<?xml version="1.0" encoding="utf-8"?>
<!-- Generator: Adobe Illustrator 21.0.0, SVG Export Plug-In . SVG Version: 6.00 Build 0)  -->
<svg version="1.1" id="Layer_1" xmlns="http://www.w3.org/2000/svg" xmlns:xlink="http://www.w3.org/1999/xlink" x="0px" y="0px"
	 viewBox="0 0 523 837" style="enable-background:new 0 0 523 837;" xml:space="preserve">
<style type="text/css">
	.st0{display:none;}
	.st1{display:inline;fill:#020201;}
	.st2{display:inline;fill:#FEFEFE;}
	.st3{display:inline;fill:#FCD203;}
	.st4{display:inline;}
	.st5{fill:#D60026;stroke:#D60026;stroke-width:9.375000e-02;stroke-miterlimit:10;}
	.st6{fill:#FFFFFF;stroke:#FFFFFF;stroke-width:9.375000e-02;stroke-miterlimit:10;}
	.st7{stroke:#000000;stroke-width:9.375000e-02;stroke-miterlimit:10;}
	.st8{display:inline;fill:#FFFFFF;}
	.st9{display:inline;fill:#CF4044;}
	.st10{display:inline;fill:#EE3A43;}
	.st11{display:inline;fill:#FFFFFF;stroke:#000000;stroke-width:2;stroke-miterlimit:10;}
	.st12{fill:#FFFFFF;stroke:#000000;stroke-width:2;stroke-miterlimit:10;}
</style>
<rect x="2.5" y="3.8" class="st0" width="523" height="418.5"/>
<g class="st0">
	<path class="st1" d="M10.9,320.7c10.7,0,21.4,0,32.1,0.1c1.3,0,1.6-0.3,1.6-1.7c0-24.5,0-49.1,0-73.6c0-1.1,0.1-2.2,0.2-3.2
		c0.5-3.9,2.8-5.9,6.7-6c4.7-0.1,9.5,0,14.2,0c0.2-0.7-0.3-1.1-0.6-1.6c-9-16.2-17.9-32.4-26.9-48.5c-0.8-1.4-0.5-1.8,0.8-2.4
		c6.4-2.9,12.8-5.8,19.2-8.8c0.9-0.4,1.4-0.3,2.1,0.5c8.4,9,18.6,14.3,30.8,15.7c10.9,1.2,21.6,0.5,32.1-3
		c6.8-2.3,13.7-4.1,20.6-6.1c12.1-3.5,24.1-7.1,36.5-9.5c5.2-1,10.5-1.5,15.8-1.9c0.5,0,1.1,0.3,1.5-0.3c5.5,0,11.1,0,16.6,0
		c0.4,0.6,1,0.3,1.5,0.3c8.7,0.6,17.5,1.3,26,3.4c2.6,0.6,5.2,1.5,7.7,2.6c3.3,1.5,6.1,3.6,8.2,6.6c9.7,13.5,18,27.8,26.5,42.1
		c1.9,3.2,3.8,6.4,5.6,9.6c0.7,1.3,1.4,1.7,2.9,1.7c30-0.1,60,0,90,0c2.7,0,5.4,0.2,8,1.2c3.4,1.3,5.4,3.8,5.8,7.4
		c0.1,1.1,0.2,2.1,0.2,3.2c0,23.5,0,46.9,0,70.4c0,1.4,0.2,1.9,1.8,1.9c15.5-0.1,31-0.1,46.4-0.1c0,28.6,0,57.2,0,85.8
		c-15.9,0-31.8,0-47.6,0c-1.5,0-1.9,0.3-1.8,1.8c0.1,3.2,0,6.4,0,9.7c-0.1,8.9-6.2,15.2-15.1,15.6c-1,0.1-1.9,0.1-2.9,0.1
		c-49.3,0-98.6,0-147.8,0c-0.6,0-1.2,0-1.9,0c-0.1,0.8,0.5,1.2,0.8,1.7c6.4,10.5,12.7,21,19.2,31.5c0.6,1,0.7,1.5-0.6,2
		c-10.4,4.8-20.8,9.6-31.1,14.4c-1.4,0.7-2.1,0.4-3-0.9c-10.6-15.9-21.3-31.7-32-47.6c-0.7-1.1-1.5-1.5-2.8-1.5
		c-38.3,0-76.6,0-114.9,0.1c-5,0-9.6-1.1-13.7-4.1c-3.4-2.5-5.2-5.8-5.1-10.1c0.1-4,0-7.9,0.1-11.9c0-1.2-0.3-1.5-1.5-1.5
		c-10.7,0.1-21.5,0-32.2,0C10.9,377.4,10.9,349,10.9,320.7z M220.3,429.6c1,0,1.7,0,2.3,0c51.6,0,103.1,0,154.6,0c0.9,0,1.8,0,2.7,0
		c7.1-0.4,11.4-4.9,11.5-12c0-4.5,0.1-8.9,0-13.4c0-1.4,0.3-1.8,1.7-1.8c15.5,0.1,31,0,46.4,0.1c1.3,0,1.7-0.3,1.7-1.6
		c-0.1-24.8-0.1-49.5,0-74.3c0-1.4-0.3-1.8-1.8-1.8c-15,0.1-30,0-44.9,0.1c-1.5,0-1.9-0.4-1.9-1.9c0.1-24.7,0-49.4,0-74.1
		c0-1-0.1-1.9-0.1-2.9c-0.2-2.2-1.4-3.5-3.3-4.3c-2-0.8-4.2-0.8-6.4-0.8c-30.8,0-61.6,0-92.4,0c-1.4,0-2.2-0.4-2.9-1.7
		c-3-5.3-6-10.5-9.1-15.6c-7.4-12.3-14.7-24.6-22.9-36.4c-2.9-4.2-6.6-6.7-11.3-8.1c-1.9-0.6-3.9-1.1-5.9-1.5
		c-9-1.9-18.2-2.5-27.4-2.9c-10-0.4-20,0.2-29.9,2c-13.6,2.5-26.7,6.6-39.9,10.5c-8.1,2.3-16.2,4.8-24.4,7
		c-7.3,1.9-14.9,1.7-22.4,1.4c-13.6-0.7-25.1-5.9-34.9-15.1c-0.8-0.8-1.4-0.8-2.3-0.4c-4.1,1.9-8.2,3.8-12.3,5.6
		c-1.4,0.6-1.5,1.1-0.7,2.4c9.4,16.9,18.7,33.7,28.1,50.6c0.9,1.7,0.9,1.7-1.1,1.7c-5.6,0-11.3-0.1-16.9,0c-5.2,0-5.4,0.2-5.4,5.5
		c0,25.7,0,51.4,0,77.1c0,1.5-0.3,1.9-1.8,1.9c-10.1-0.1-20.2,0-30.4-0.1c-1.3,0-1.6,0.4-1.6,1.6c0,24.6,0,49.2,0,73.8
		c0,1.4,0.5,1.6,1.7,1.6c10.1-0.1,20.1,0,30.2-0.1c1.4,0,1.9,0.2,1.9,1.8c-0.1,5.3,0,10.5-0.1,15.8c-0.1,2.8,1.1,4.9,3.2,6.5
		c3.2,2.5,6.9,3.4,10.9,3.4c39.1,0,78.1,0,117.2-0.1c1.6,0,2.6,0.5,3.5,1.8c10.3,15.5,20.8,30.9,31.2,46.4c0.7,1.1,1.2,1.5,2.6,0.8
		c7.8-3.7,15.6-7.3,23.5-10.9c1.9-0.9,1.9-0.9,0.9-2.6c-4.4-7.2-8.8-14.5-13.2-21.7C225.8,438.6,223.1,434.2,220.3,429.6z"/>
	<path class="st1" d="M134.5,318.3c1.4,2.4,2.7,4.6,4.1,6.8c1.2,2,2.5,3.9,3.6,6c0.5,1,1.2,1.3,2.3,1.3c12.7,0,25.3,0,38-0.1
		c3.4,0,5.6,1.4,7,4.3c2.2,4.5,2.8,9.4,2.6,14.4c-0.2,4.8-0.5,9.7-1.9,14.4c-0.2,0.7-0.4,1.4-0.7,2.1c-1.3,3.2-2.4,4-5.9,4
		c-1.7,0-3.4,0-5.4,0c18.9,31.7,37.7,63.1,56.6,94.5c-4.5,2.3-9,4.5-13.4,6.8c-1,0.5-1.1-0.4-1.5-0.9c-3.9-6.4-7.7-12.7-11.6-19.1
		c-16.1-26.5-32.2-53-48.3-79.4c-0.3-0.5-0.4-1.1-1.2-1.3c0,5.9,0,11.7,0,17.5c0,1.4,0.5,3.3-0.2,4.1c-0.8,1-2.8,0.3-4.2,0.3
		c-3.9,0.1-7.8-0.1-11.7,0.1c-1.6,0.1-1.9-0.5-1.9-2c0.1-16.5,0-33,0.1-49.5c0-1.2-0.3-2.2-0.9-3.2c-21.9-36.2-43.8-72.4-65.7-108.6
		c-6.8-11.3-13.6-22.6-20.5-33.9c-0.7-1.1-0.6-1.7,0.6-2.3c1.3-0.6,2.7-2.1,3.8-1.9c1.2,0.2,1.8,2.2,2.4,3.5c1.6,3.9,4.4,5.3,8.5,6
		c7.7,1.3,15.2,3.3,22.9,4.3c8.4,1.1,16.7,0.6,25-0.5c14.2-1.8,27.4-7.1,40.6-11.9c13.8-5,28-8.5,42.5-10.6
		c9.9-1.4,19.9-1.7,29.9,0.2c6.9,1.3,12,5,15.8,10.9c14.3,22.4,27.6,45.3,40.9,68.2c7.1,12.2,14.2,24.5,21.2,36.8
		c0.3,0.6,0.7,1.2,1,1.7c1,1.5,0.8,2.3-0.7,3.2c-0.7,0.4-0.9-0.1-1.2-0.4c-7.2-9-17.1-13-28.1-14.2c-15.4-1.7-30.5,0.5-45.2,5.5
		c-10.4,3.5-20.7,7.5-31,11.1c-14.1,5-28.4,9.2-43.3,11.3c-8,1.1-15.9,1.9-24,0.5C135.1,318.3,134.9,318.3,134.5,318.3z
		 M300.8,294.2c0,0.2,0.1,0.3,0.3,0.2c0,0,0-0.2-0.1-0.4c-4.5-7.8-9-15.6-13.5-23.5c-0.4-0.7-1.1-1.1-1.8-1.4
		c-5.2-2.4-10.7-3.6-16.3-4c-5.9-0.4-11.8,0.2-17.8,1.2c4.1,6.1,7.6,12.4,11.1,18.7c0.6,1,1.2,1.4,2.4,1.3
		c6.6-0.4,13.2-0.1,19.7,1.3C290.5,289,295.8,291.3,300.8,294.2z M166.8,313.5c-4-7-7.9-13.6-12.2-20.3c11.5-2.6,22.8-5.1,33.9-8.9
		c-3.9-6.7-7.3-13.4-11.4-19.7c-0.7-1-0.6-1.4,0.6-1.8c5.8-1.8,11.6-3.8,17.4-5.5c4.4-1.4,8.9-2.5,13.4-3.8
		c-4.7-6.7-8.8-13.6-13.1-20.5c10.4-3.3,20.8-6.2,32-7.1c-1.6-2.5-3-4.7-4.3-6.9c-2.5-4.1-5.1-8.2-7.6-12.4c-1-1.6-0.9-1.6,1-1.8
		c1.1-0.1,2.3-0.1,3.4-0.2c6.7-0.5,13.3-0.6,20,0.5c3.3,0.5,6.6,1.3,10.3,2.3c-2.7-4.2-5.1-8-7.6-11.9c-2.7-4.3-6.6-7.1-11.5-8.3
		c-8.9-2.3-17.9-1.5-27.2-1.1c3.6,6.4,7.1,12.6,10.6,18.9c-10.7,1.2-20.9,3.5-30.8,7c-1,0.3-1.3,0-1.6-0.7
		c-3.4-5.7-6.6-11.4-9.7-17.3c-0.6-1-1.1-1.3-2.2-0.9c-9.5,3-18.8,6.6-28.2,9.8c-1,0.3-1,0.6-0.6,1.5c3.2,5.7,6.5,11.3,9.7,17
		c0.5,0.9,1,0.9,1.9,0.6c9.6-3,19.2-5.9,28.6-9.3c0.9-0.3,1.3-0.3,1.9,0.6c3.8,6.2,7.3,12.6,11.4,18.6c0.4,0.7,0.6,1-0.4,1.3
		c-9.8,2.8-19.3,6.4-29,9.7c-1.1,0.4-1.4,0.1-1.9-0.8c-3.3-5.5-6.6-11-10-16.5c-1.9-3.1-1.9-3-5.4-2c-7.3,2.1-14.7,3.9-22.2,4.6
		c-2.9,0.3-5.7,0.7-8.7,1c4.1,7.4,8.2,14.6,12.3,21.8c0.5,0.9,1.1,0.7,1.8,0.7c11-1.3,21.7-4.1,32-8.1c0.8-0.3,1.1-0.2,1.5,0.5
		c1.4,2.4,2.9,4.9,4.3,7.3c2.4,3.9,4.8,7.8,7.3,11.8c-0.4,0.2-0.7,0.3-0.9,0.4c-10.9,3.6-21.9,6.6-33.3,7.9c-1,0.1-1.2,0.4-0.6,1.2
		c1,1.4,2,2.9,2.9,4.4c3.4,5.3,6.8,10.6,10.3,16.1c-11.1,2-21.8,5.4-33.2,3.5c3.1,5.1,6.2,9.9,8.9,14.9c1.2,2.2,2.9,3.2,5.1,3.5
		c0.8,0.1,1.7,0.3,2.5,0.4C147.6,316.7,157.1,315.2,166.8,313.5z M239.5,245.7c-10.5,2-20.7,4.7-31,7.8c4.1,6.7,8.1,13.2,12.1,19.8
		c-10.3,3.2-20.4,6.6-30.5,10.3c-1.6,0.6-1.5,1.1-0.8,2.3c3.3,5.5,6.5,11.1,9.7,16.7c0.7,1.3,1.4,1.4,2.7,1
		c9.8-3.5,19.4-7.3,29.3-10.5c1.1-0.4,1-0.8,0.5-1.6c-3.4-5.6-6.8-11.3-10.2-16.9c-0.5-0.9-0.6-1.3,0.5-1.6
		c6.3-1.9,12.7-3.7,19.2-4.9c3.5-0.6,6.9-1.2,10.5-1.8C247.2,259.6,243.8,252.5,239.5,245.7c11.6-1.3,22.9-3,34.3,1.4
		c-0.6-1-0.8-1.5-1.1-2.1c-3-5.1-6.1-10.3-9.1-15.5c-0.7-1.3-1.6-2-3-2.5c-10.9-4.1-22-2.5-33.3-1.2
		C231.7,232.4,235.9,238.8,239.5,245.7z M66,204.6c0,0.2,0,0.4,0,0.5c4,6.5,8,13.1,11.9,19.6c0.4,0.7,1,0.9,1.7,1
		c10.2,2.6,20.6,3.8,31.2,3.4c1.7-0.1,3.3-0.3,5.2-0.5c-3.8-6-7.1-11.9-10.3-17.9c-0.4-0.7-0.9-0.6-1.4-0.6
		c-9.3,0.4-18.3-1.4-27.3-3.3C73.2,206.1,69.6,205.3,66,204.6z M94.3,251.8c0.4,0.7,0.7,1.2,1,1.8c3,5,6.3,9.8,8.9,15
		c1.7,3.3,4.1,4.2,7.5,4.4c9.3,0.6,18.6-0.3,27.9-1.1c1.4-0.1,0.9-0.7,0.5-1.3c-3.6-5.5-6.8-11.1-9.9-16.9c-0.5-1-1.1-1.2-2.1-1.1
		c-8.9,0.5-17.7,0.7-26.6,0.1C99.1,252.3,96.8,252,94.3,251.8z M159.3,352.3c0,1.7,0.1,3.4,0,5.1c-0.1,1.4,0.2,2,1.8,1.9
		c2.8-0.1,5.6-0.1,8.5,0c1.9,0.1,3.1-0.8,3.9-2.4c1.4-3.2,1.2-6.4-0.1-9.5c-0.5-1.3-1.6-2-3.1-2c-3.3,0-6.5,0.1-9.8,0
		c-0.9,0-1.1,0.3-1.1,1.2C159.4,348.5,159.3,350.4,159.3,352.3z"/>
	<path class="st2" d="M166.8,313.5c-9.7,1.7-19.1,3.2-28.8,2.1c-0.8-0.1-1.7-0.2-2.5-0.4c-2.3-0.4-3.9-1.3-5.1-3.5
		c-2.8-5-5.9-9.9-8.9-14.9c11.4,1.9,22.1-1.5,33.2-3.5c-3.5-5.5-6.9-10.8-10.3-16.1c-0.9-1.5-1.9-3-2.9-4.4
		c-0.6-0.9-0.4-1.1,0.6-1.2c11.4-1.3,22.5-4.3,33.3-7.9c0.3-0.1,0.5-0.2,0.9-0.4c-2.4-4-4.9-7.9-7.3-11.8c-1.5-2.4-2.9-4.8-4.3-7.3
		c-0.4-0.7-0.7-0.9-1.5-0.5c-10.3,4-21,6.7-32,8.1c-0.7,0.1-1.3,0.2-1.8-0.7c-4-7.2-8.1-14.4-12.3-21.8c3-0.3,5.9-0.8,8.7-1
		c7.6-0.7,14.9-2.5,22.2-4.6c3.5-1,3.5-1,5.4,2c3.4,5.5,6.7,11,10,16.5c0.5,0.9,0.9,1.2,1.9,0.8c9.6-3.3,19.2-6.9,29-9.7
		c1-0.3,0.8-0.6,0.4-1.3c-4-6-7.6-12.4-11.4-18.6c-0.6-0.9-1-0.9-1.9-0.6c-9.4,3.4-19,6.3-28.6,9.3c-0.9,0.3-1.4,0.2-1.9-0.6
		c-3.2-5.7-6.4-11.4-9.7-17c-0.5-0.9-0.4-1.1,0.6-1.5c9.4-3.2,18.7-6.9,28.2-9.8c1.2-0.4,1.7-0.2,2.2,0.9c3.1,5.8,6.3,11.6,9.7,17.3
		c0.4,0.7,0.7,1.1,1.6,0.7c9.9-3.5,20.1-5.8,30.8-7c-3.5-6.3-7-12.5-10.6-18.9c9.3-0.4,18.3-1.2,27.2,1.1c4.9,1.3,8.8,4,11.5,8.3
		c2.4,3.8,4.9,7.7,7.6,11.9c-3.7-1-7-1.8-10.3-2.3c-6.6-1.1-13.3-0.9-20-0.5c-1.1,0.1-2.3,0.2-3.4,0.2c-2,0.1-2,0.1-1,1.8
		c2.5,4.1,5.1,8.3,7.6,12.4c1.4,2.2,2.7,4.4,4.3,6.9c-11.1,0.9-21.6,3.8-32,7.1c4.3,6.9,8.4,13.9,13.1,20.5c-4.5,1.3-9,2.5-13.4,3.8
		c-5.8,1.8-11.6,3.7-17.4,5.5c-1.2,0.4-1.2,0.8-0.6,1.8c4.1,6.4,7.6,13.1,11.4,19.7c-11.1,3.8-22.4,6.3-33.9,8.9
		C158.9,299.8,162.8,306.5,166.8,313.5z"/>
	<path class="st2" d="M239.5,245.7c-3.6-7-7.8-13.4-12.2-20c11.4-1.3,22.4-2.8,33.3,1.2c1.4,0.5,2.3,1.3,3,2.5
		c3,5.2,6.1,10.3,9.1,15.5c0.3,0.5,0.6,1.1,1.1,2.1c-11.5-4.3-22.7-2.6-34.2-1.3c4.2,6.7,7.6,13.8,11.9,20.5
		c-3.6,0.6-7,1.2-10.5,1.8c-6.5,1.2-12.8,3-19.2,4.9c-1.1,0.3-1.1,0.7-0.5,1.6c3.4,5.6,6.8,11.3,10.2,16.9c0.5,0.8,0.7,1.2-0.5,1.6
		c-9.9,3.1-19.5,7-29.3,10.5c-1.3,0.5-2,0.3-2.7-1c-3.1-5.6-6.4-11.1-9.7-16.7c-0.7-1.2-0.8-1.7,0.8-2.3c10-3.7,20.2-7,30.5-10.3
		c-4-6.6-8-13.1-12.1-19.8C218.8,250.5,229,247.8,239.5,245.7z"/>
	<path class="st2" d="M300.8,294.2c-5-2.9-10.3-5.2-16-6.5c-6.5-1.4-13.1-1.8-19.7-1.3c-1.2,0.1-1.8-0.3-2.4-1.3
		c-3.5-6.3-7-12.6-11.1-18.7c6-1.1,11.9-1.6,17.8-1.2c5.7,0.4,11.2,1.6,16.3,4c0.7,0.3,1.4,0.7,1.8,1.4c4.5,7.8,9,15.6,13.5,23.5
		C301,294.1,300.9,294.2,300.8,294.2z"/>
	<path class="st2" d="M66,204.6c3.7,0.8,7.3,1.5,10.9,2.3c9,1.9,18,3.6,27.3,3.3c0.5,0,1.1-0.1,1.4,0.6c3.2,6,6.5,11.9,10.3,17.9
		c-1.9,0.2-3.5,0.4-5.2,0.5c-10.6,0.4-20.9-0.8-31.2-3.4c-0.7-0.2-1.3-0.3-1.7-1c-4-6.6-7.9-13.1-11.9-19.6
		C65.9,204.9,66,204.8,66,204.6z"/>
	<path class="st2" d="M94.3,251.8c2.5,0.3,4.9,0.6,7.2,0.7c8.9,0.6,17.7,0.4,26.6-0.1c1-0.1,1.6,0.1,2.1,1.1
		c3,5.8,6.3,11.5,9.8,16.9c0.4,0.6,1,1.2-0.5,1.3c-9.3,0.8-18.5,1.7-27.9,1.1c-3.4-0.2-5.8-1.1-7.5-4.4c-2.6-5.2-5.9-10-8.9-15
		C95,253,94.7,252.5,94.3,251.8z"/>
	<path class="st3" d="M220.3,429.7c2.8,4.7,5.5,9.1,8.2,13.4c4.4,7.2,8.8,14.5,13.2,21.7c1.1,1.7,1.1,1.7-0.9,2.6
		c-7.8,3.6-15.7,7.2-23.5,10.9c-1.4,0.7-1.9,0.3-2.6-0.8c-10.4-15.5-20.8-30.9-31.2-46.4c-0.9-1.4-1.9-1.8-3.5-1.8
		c-39.1,0.1-78.1,0-117.2,0.1c-4,0-7.7-1-10.9-3.4c-2.1-1.6-3.3-3.7-3.2-6.5c0.1-5.3,0-10.5,0.1-15.8c0-1.6-0.5-1.8-1.9-1.8
		c-10.1,0.1-20.1,0-30.2,0.1c-1.3,0-1.7-0.2-1.7-1.6c0.1-24.6,0.1-49.2,0-73.8c0-1.3,0.3-1.6,1.6-1.6c10.1,0.1,20.2,0,30.4,0.1
		c1.5,0,1.8-0.4,1.8-1.9c-0.1-25.7,0-51.4,0-77.1c0-5.2,0.2-5.5,5.4-5.5c5.6,0,11.3,0,16.9,0c2,0,2,0,1.1-1.7
		c-9.3-16.9-18.6-33.7-28-50.6c-0.7-1.3-0.7-1.8,0.7-2.4c4.1-1.8,8.2-3.7,12.3-5.6c0.9-0.5,1.5-0.4,2.3,0.4
		c9.8,9.2,21.4,14.5,34.9,15.1c7.5,0.4,15.1,0.6,22.4-1.4c8.2-2.1,16.3-4.6,24.4-7c13.2-3.8,26.4-8,39.9-10.5
		c9.9-1.8,19.8-2.5,29.9-2c9.2,0.4,18.4,1,27.4,2.9c2,0.4,4,0.9,5.9,1.5c4.7,1.4,8.4,3.9,11.3,8.1c8.1,11.8,15.5,24.1,22.9,36.4
		c3.1,5.2,6.2,10.4,9.1,15.6c0.7,1.3,1.4,1.7,2.9,1.7c30.8-0.1,61.6,0,92.4,0c2.2,0,4.3,0.1,6.4,0.8c2,0.7,3.2,2.1,3.3,4.3
		c0.1,1,0.1,1.9,0.1,2.9c0,24.7,0,49.4,0,74.1c0,1.5,0.4,1.9,1.9,1.9c15-0.1,30,0,44.9-0.1c1.4,0,1.8,0.4,1.8,1.8
		c0,24.8-0.1,49.5,0,74.3c0,1.4-0.4,1.6-1.7,1.6c-15.5,0-31,0-46.4-0.1c-1.4,0-1.8,0.4-1.7,1.8c0.1,4.5,0.1,8.9,0,13.4
		c0,7.1-4.3,11.6-11.5,12c-0.9,0.1-1.8,0-2.7,0c-51.6,0-103.1,0-154.6,0C222,429.7,221.3,429.7,220.3,429.7z M144.4,332.5
		c-1.1,0-1.8-0.3-2.3-1.3c-1.1-2-2.4-4-3.6-6c-1.3-2.3-2.7-4.5-4.1-6.8c0.5,0,0.7-0.1,0.9,0c8,1.4,16,0.7,24-0.5
		c14.9-2.1,29.2-6.3,43.3-11.3c10.4-3.7,20.6-7.6,31-11.1c14.7-5,29.8-7.2,45.2-5.5c11,1.2,20.9,5.2,28.1,14.2
		c0.3,0.4,0.6,0.8,1.2,0.4c1.5-0.9,1.7-1.8,0.7-3.2c-0.4-0.6-0.7-1.2-1-1.7c-7.1-12.3-14.1-24.6-21.2-36.8
		c-13.4-22.9-26.7-45.9-40.9-68.2c-3.8-5.9-8.9-9.6-15.8-10.9c-9.9-1.9-20-1.5-29.9-0.2c-14.5,2-28.6,5.6-42.5,10.6
		c-13.3,4.8-26.5,10.1-40.6,11.9c-8.3,1.1-16.6,1.6-25,0.5c-7.7-1.1-15.3-3-22.9-4.3c-4-0.7-6.9-2.2-8.5-6c-0.5-1.3-1.2-3.3-2.4-3.5
		c-1.1-0.2-2.5,1.3-3.8,1.9c-1.2,0.6-1.2,1.1-0.6,2.3c6.9,11.3,13.7,22.6,20.5,33.9c21.9,36.2,43.8,72.5,65.7,108.7
		c0.6,1,0.9,2,0.9,3.2 M155.9,366.5c16.1,26.5,32.2,52.9,48.3,79.4c3.9,6.4,7.7,12.7,11.6,19.1c0.3,0.5,0.4,1.4,1.5,0.9
		c4.4-2.3,8.8-4.5,13.4-6.8c-18.9-31.5-40.7-67.8-59.6-99.5"/>
	<path class="st3" d="M148.3,406.7c-0.1-0.8,0.1-1.3,1.1-1.2c0.8,0.1,1.6,0.3,1.6,1.3c0,1.2-1,1.3-1.8,1.3
		C148.1,408.2,148.5,407.2,148.3,406.7z"/>
	<path class="st4" d="M62.1,361.2c2.6-1,4.5-2.4,5.8-4.1c2-2.6,2.9-5.7,2.9-9.4c0-4.3-1.4-8-4.1-10.9s-6.7-4.4-11.9-4.4h-31V394
		h28.6c1.2,0,3.7-0.3,7.4-0.9c2.8-0.4,4.9-1.1,6.3-2c2.2-1.5,4-3.5,5.3-6c1.3-2.6,1.9-5.4,1.9-8.6c0-3.9-0.9-7.2-2.7-9.8
		C68.8,364.1,66,362.3,62.1,361.2z M40.5,344.8h7.3c2.5,0,4.3,0.5,5.3,1.5s1.5,2.4,1.5,4.2c0,1.9-0.5,3.4-1.5,4.4s-2.8,1.5-5.4,1.5
		h-7.2C40.5,356.4,40.5,344.8,40.5,344.8z M55,379c-1.2,1.2-3.1,1.7-6,1.7h-8.4l0,0l0,0v-12.5H49c2.9,0,4.9,0.5,6.1,1.7
		c1.2,1.1,1.8,2.6,1.8,4.4C56.8,376.3,56.2,377.8,55,379z"/>
	<polygon class="st4" points="356.5,353.9 337.7,353.9 337.7,332.3 320.6,332.3 320.6,394 337.7,394 337.7,369 356.5,369 356.5,394 
		373.7,394 373.7,332.3 356.5,332.3 	"/>
	<polygon class="st4" points="402.3,378.8 402.3,332.3 384.3,332.3 384.3,394 430.3,394 430.3,378.8 	"/>
	<path class="st4" d="M95.2,332.4L73.3,394h18.4l2.8-10.2H115l2.9,10.2h18.8l-21.9-61.6H95.2z M111.2,370.5H98.4l6.4-22.2
		L111.2,370.5L111.2,370.5z"/>
	<path class="st4" d="M140.9,332.4V394h17.4v-25l-0.1-1.8l15.7-0.2l0,0c4.1-0.2,11.5,0.2,14.2-1.3c4-2.1,3.4-11.5,3.4-16.3
		c0-6.3,0.3-12.2-3.4-14.9c-3.8-2.8-11.7-2.2-18.3-2.2h-18L140.9,332.4 M170.2,356.5c-2.3,0.5-3.8,0.8-4.6,0.8h-7.3v-12.5h7.6
		c3.2,0,5.3,0.5,6.5,1.6c1.1,1,1.7,2.6,1.7,4.6c0,1.4-0.4,2.6-1.1,3.6C172.3,355.6,171.3,356.2,170.2,356.5z"/>
	<path class="st4" d="M245.8,341.1c-2-2.8-4.6-5-7.8-6.5s-7.2-2.3-12.3-2.3H200l0,0V394h25.7c3.1,0,6.5-0.5,10.3-1.7
		c2.8-0.8,5.4-2.4,7.8-4.9c2.4-2.4,4.3-5.5,5.7-9.1s2-8.8,2-15.3c0-4.2-0.5-8.2-1.4-12C249.3,347.2,247.9,343.9,245.8,341.1z
		 M233,374c-0.9,2.2-2.1,3.8-3.6,4.6c-1.5,0.9-4.1,1.3-7.7,1.3h-4.3v-33.7l0,0l0,0h4.3c4.5,0,7.7,1.2,9.6,3.6
		c1.9,2.4,2.9,6.9,2.9,13.4C234.3,368.3,233.8,371.8,233,374z"/>
	<path class="st4" d="M275.1,332.4l-22,61.6h18.5l2.8-10.2H295l2.9,10.2h19l-22-61.6H275.1z M291.2,370.5h-12.9l6.5-22.2
		L291.2,370.5L291.2,370.5z"/>
</g>
<g>
	<path class="st5" d="M63.2,233.7c118.1,0,236.3,0,354.3,0c-8,21.3-16.3,42.5-24.4,63.8c-6.9,17.9-13.8,35.8-20.7,53.7
		c-0.2,0.6-0.5,1.2-0.7,1.8c-1.1,3-2.4,6-3.4,9c-64.8,0.1-129.6,0-194.4,0.1c-0.4-0.1-1.3-0.1-1.8-0.1c-25.3-0.2-50.6-0.1-75.9-0.1
		c-27.4,0-54.9,0.1-82.3,0c8.2-20.7,15.9-41.6,24-62.4C46.4,277.6,54.9,255.7,63.2,233.7L63.2,233.7z"/>
	<path class="st6" d="M77.2,260c7.1-0.1,14.3-0.1,21.4-0.1c2.8,0,6.1,0.2,8,2.5c1.7,1.8,1.3,4.5,0.6,6.7c-1.3,3.7-2.9,7.2-4.3,10.8
		c-1.3,3.3-2.3,6.9-5,9.6c-1.6,1.7-3.7,2.7-5.8,3.6c1.2,1.3,2.7,2.5,3.3,4.3c0.3,1.5-0.5,3-1,4.4c-2.7,6.8-5.4,13.7-8,20.5
		c-1.3,3.6-4,6.7-7.5,8.1c-2.6,0.9-5.5,0.7-8.2,0.7c-7-0.1-14,0.1-20.9-0.1C58.8,307.4,68.1,283.7,77.2,260L77.2,260z"/>
	<path class="st6" d="M134.8,260c2.5-0.1,5-0.1,7.5,0c-3.4,23.7-6.9,47.4-10.4,71.2c-3.5,0-6.9,0-10.4,0c1-5.4,2-10.6,2.9-16
		c-3.5,0.1-7-0.3-10.5,0.1c-1,0.8-1.6,2-2.2,3.1c-2.3,4.3-4.7,8.5-7.1,12.8c-3.6-0.1-7.1,0.1-10.7-0.1c2.7-5.2,5.8-10.2,8.7-15.3
		C113.3,297.1,124,278.5,134.8,260L134.8,260z"/>
	<path class="st6" d="M168.2,260.1c3.2-0.1,6.4-0.2,9.6-0.1c-7.9,20.9-16,41.8-23.8,62.7c5.4,0,10.7-0.1,16.1,0.1
		c-0.9,2.9-2.1,5.7-3.2,8.5c-8.7-0.1-17.5,0-26.2-0.1C149.9,307.5,159.2,283.8,168.2,260.1L168.2,260.1z"/>
	<path class="st6" d="M202.9,260c7.8-0.1,15.6-0.1,23.4-0.1c2.3,0.1,5,0.1,6.7,1.9c1.3,1.4,0.8,3.6,0.2,5.2
		c-6.9,18-13.8,36-20.6,53.9c-1.1,2.7-1.8,6-4.4,7.8c-3.4,2.3-7.8,2.4-11.7,2.4c-7-0.1-14,0.1-21-0.1
		C184.5,307.3,193.7,283.6,202.9,260L202.9,260z"/>
	<path class="st6" d="M243.9,260c3.6-0.1,7.3-0.1,10.9,0c-1.2,8.3-2.4,16.7-3.5,25c-0.6,4-1.3,8-1.5,12c1.9-2.3,3.4-4.9,5-7.5
		c5.8-9.8,11.8-19.6,17.8-29.5c2.8-0.1,5.7-0.1,8.5,0c-1.2,8.7-2.4,17.4-3.7,26.1c-0.5,4.1-1.4,8.3-1.5,12.5c1.9-2.5,3.4-5.2,5-8
		c5.9-10.2,11.9-20.3,17.9-30.6c3.7-0.1,7.3-0.1,11,0.1c-12.4,22.3-25.2,44.4-37.7,66.6c-1.2,1.7-1.9,4.6-4.3,4.5
		c-2.3,0.2-4.6,0.1-6.9,0c1.1-12.9,3.4-25.8,4.4-38.7c-1.8,2.3-3.3,5-4.7,7.5c-5.5,9.5-11.1,18.9-16.5,28.4c-0.6,0.9-1.2,2-2,2.7
		c-2.7,0.4-5.4,0.1-8.1,0.1C237,307.4,240.5,283.7,243.9,260L243.9,260z"/>
	<path class="st6" d="M320.8,260c3.2-0.1,6.4-0.1,9.6,0c-9.1,23.7-17.9,47.5-27,71.2c-3.4,0-6.8,0-10.3-0.1
		C302.1,307.3,311.6,283.7,320.8,260L320.8,260z"/>
	<path class="st6" d="M346.4,260c3-0.1,6.1-0.1,9.2,0c0.2,8.1,0.2,16.3,0.5,24.4c0.1,4.5-0.1,9,0.6,13.5c1.9-3.3,3.1-6.9,4.5-10.4
		c3.1-8.1,6.4-16.2,9.4-24.4c0.5-1,0.9-2.2,1.6-3c3.3-0.5,6.5-0.1,9.8-0.1c-9.1,23.7-18.4,47.4-27.6,71c-3.1,0.1-6.2,0.1-9.3,0.1
		c-0.1-8.2,0.1-16.4-0.2-24.5c-0.1-4.4,0.2-8.9-0.2-13.2c-0.6,1.1-1.3,2.2-1.8,3.4c-4.5,11.5-8.9,22.9-13.5,34.3
		c-3.5,0.1-6.9,0.1-10.4,0.1C328.1,307.4,337.2,283.7,346.4,260L346.4,260z"/>
	<path class="st5" d="M83.2,269.5c3,0,6.1-0.2,9.1-0.1c1.1,0.1,2.3,0.1,3.3,0.8c0.5,2-0.5,4-1.2,5.9c-1.2,2.9-2.2,5.9-3.5,8.8
		c-0.6,1.5-1.7,2.9-3.4,2.9c-3.7,0.2-7.5,0-11.2,0C78.3,281.6,81,275.6,83.2,269.5L83.2,269.5z"/>
	<path class="st5" d="M209.4,270.5c3.5,0,6.9-0.3,10.4,0c0.9-0.1,1.3,1,1.2,1.7c-0.1,2.7-1.3,5.1-2.3,7.5
		c-4.8,12.1-9.5,24.3-14.3,36.4c-0.8,2.1-2.2,4.4-4.5,4.8c-3.3,0.6-6.8,0.2-10.1,0.2C196.1,304.2,202.9,287.5,209.4,270.5
		L209.4,270.5z"/>
	<path class="st5" d="M119.1,304.2c3.4-5.9,6.5-12.1,10.4-17.7c-0.5,5.9-2.1,11.7-3,17.6C124,304.2,121.5,304.2,119.1,304.2
		L119.1,304.2z"/>
	<path class="st5" d="M72,298.6c4.1,0.1,8.2-0.6,12.1,0.4c0.9,1.5,0,3.3-0.5,4.8c-1.9,4.7-3.8,9.4-5.7,14.1
		c-0.8,2.3-2.6,4.4-5.2,4.7c-3.4,0.5-6.8,0.1-10.3,0.1C65.6,314.6,68.9,306.6,72,298.6L72,298.6z"/>
	<path class="st7" d="M371.8,353c0.2-0.6,0.5-1.2,0.7-1.8c25.5-0.1,51-0.1,76.5,0c-10.8,30.1-21.8,60.1-32.7,90.1
		c-91,0-181.9,0.1-272.9,0c9.6-26.5,19.1-52.9,28.8-79.3c0.5,0,1.4,0,1.8,0.1c-9.1,25.8-18.7,51.5-27.9,77.3
		c89.6,0.1,179.3-0.1,269,0c10.4-28.8,20.9-57.6,31.3-86.4C421.5,353,396.7,353,371.8,353L371.8,353z"/>
	<path class="st6" d="M368.3,362.1c1-3,2.3-6,3.4-9c24.9,0,49.7-0.1,74.5,0.1c-10.4,28.8-20.9,57.6-31.3,86.4
		c-89.7-0.1-179.3,0.1-269,0c9.2-25.8,18.8-51.5,27.9-77.3C238.8,362.1,303.5,362.2,368.3,362.1L368.3,362.1z"/>
	<path class="st7" d="M200,374.8c8.7,0,17.5,0,26.3,0c-1.2,3.8-2.6,7.6-4,11.4c-4.7,0.1-9.5-0.4-14.2,0.2c-1.1,2.1-1.8,4.4-2.7,6.5
		c4.7,0,9.4,0,14,0c-1.3,3.4-2.6,6.9-3.8,10.3c-4.8-0.1-9.6,0-14.4,0c-2.4,6.5-5,12.9-7.5,19.4c-4.1-0.1-8.2,0.1-12.2-0.1
		C187.6,406.6,193.9,390.7,200,374.8L200,374.8z"/>
	<path class="st7" d="M234.3,374.8c3.9,0.1,7.8-0.1,11.7,0c-5.9,16-12.1,31.9-18,47.8c-4.1,0-8.2,0-12.3,0
		C221.9,406.6,228.1,390.7,234.3,374.8L234.3,374.8z"/>
	<path class="st7" d="M254.1,374.8c4-0.1,7.9-0.1,11.9-0.1c-4.6,12.2-9.3,24.3-13.9,36.5c5.8-0.1,11.6-0.1,17.4,0
		c-1.4,3.8-3,7.5-4.3,11.3c-9.7,0-19.4,0-29.1,0C242,406.6,248.2,390.8,254.1,374.8L254.1,374.8z"/>
	<path class="st7" d="M278.2,374.8c10.7,0,21.4,0,32.2,0c-1.3,3.7-2.3,7.4-3.9,11c-3.3,0.9-7,0.2-10.5,0.3
		c-4.5,12.2-9.3,24.3-13.8,36.5c-4.1,0-8.2,0-12.3,0c4.7-12.2,9.4-24.3,14.1-36.5c-3.4,0.1-6.9,0-10.4,0
		C275,382.3,276.7,378.6,278.2,374.8L278.2,374.8z"/>
	<path class="st7" d="M315.5,374.8c8,0,16,0,24,0c-1.4,3.8-3,7.5-4.3,11.3c-4.1,0-8.1,0.1-12.2,0c-0.8,2.2-1.6,4.5-2.4,6.8
		c3.8,0,7.8,0,11.6,0c-1.1,3.4-2.3,6.9-3.4,10.3c-4-0.1-8,0-12,0c-1,2.7-2.2,5.4-3.2,8.1c4-0.1,7.9,0,11.8,0
		c-1.3,3.8-2.8,7.5-4.1,11.3c-8,0-16,0-24,0C303.4,406.6,309.5,390.7,315.5,374.8L315.5,374.8z"/>
	<path class="st7" d="M346.9,374.8c7,0,14,0,21,0c2.1,0.1,4.7,0.2,6,2.2c1,1.8,0.2,4-0.4,5.7c-1.7,4.4-3.5,8.7-5.2,13.1
		c-0.7,1.7-1.3,3.6-2.4,5.1c-1.1,1.4-2.9,1.9-4.4,2.9c0.3,6.3,1.2,12.6,1.7,18.9c-3.8,0-7.5,0-11.3,0c-0.6-5.8-1.3-11.7-1.9-17.5
		c-1,0-2,0-2.9,0.1c-2.2,5.8-4.4,11.6-6.5,17.4c-4.1-0.1-8.2,0-12.3,0C334.5,406.6,340.7,390.7,346.9,374.8L346.9,374.8z"/>
	<path class="st7" d="M382.1,380.2c1-2.6,3-5.4,6.1-5.4c7.1-0.1,14.2-0.1,21.2-0.1c-1.4,3.8-3,7.5-4.3,11.3c-4.4,0-8.8,0.1-13.2,0
		c-1,2.3-1.9,4.5-3,6.8c3.3,0.1,6.5-0.2,9.8,0.1c1.5,0,2.9,1.3,2.9,2.9c-0.1,1.6-0.7,3.1-1.2,4.5c-2,5-4,10-6,15
		c-0.9,2.3-2.1,4.7-4.2,6.2c-1.4,1-3.2,0.9-4.8,0.9c-6.5-0.1-13.1,0.1-19.6-0.1c1.3-3.8,2.7-7.5,4.1-11.3c4.6,0.1,9.2,0,13.8,0
		c1-2.7,2.3-5.3,3.3-8c-3.4-0.2-6.9,0.4-10.3-0.5c-2.2-0.7-2.1-3.4-1.3-5.2C377.6,391.7,379.9,386,382.1,380.2L382.1,380.2z"/>
	<path class="st6" d="M353.9,386c2.4,0,4.7,0.1,7.1,0c-0.9,2.4-1.9,4.7-2.8,7.1c-2.3-0.1-4.7-0.1-7-0.1
		C352,390.6,353,388.3,353.9,386L353.9,386z"/>
</g>
<g class="st0">
	<path class="st8" d="M224.9,496.6c17.8-23.7,42.6-28.5,73.3-31.4c36.3-3.4,52.5-7.2,73.3-30.3c13-14.5,22.1-38,22.1-59.4
		c0-14.9-0.8-27.2-8.1-48.5c-15.8-45.7-20.8-62.8,15.5-104.7l-75.6-75.6c-16.3,13.6-51.6,37.2-100.5-1.5
		c-49.3,39.2-83.4,14.7-100.5,1.5l-75.6,75.7c36.1,41.9,32.7,59.2,15.5,104.7c-7.8,20.6-8.1,34.1-8.1,48.5
		c0,21.4,8.3,44.8,22.1,59.4c21.5,22.7,37.6,26.8,73.3,30.3C183.4,468.3,207,473.3,224.9,496.6L224.9,496.6z"/>
	<path class="st4" d="M224.9,487.3c18.2-20.6,45.8-25.1,73.7-27.9c34.9-3.5,48.5-7.1,67.9-27.9c12.5-13.5,21-34.5,21-55.9
		c0-14.3-2.3-31.7-8.9-49.6c-18.1-48.9-14-69,14.4-103.2l-68.3-68.3c0,0-43.8,40.7-99.7-2.3c-55.5,43.1-99.7,2.3-99.7,2.3L57,222.8
		c29.1,34.1,33.2,54.7,14.4,103.2c-7,18-8.9,35.3-8.9,49.6c0,20.9,8.3,43,21,55.9c20,20.4,33.1,24.1,67.9,27.9
		C179.1,462.5,206.7,466.7,224.9,487.3L224.9,487.3z"/>
	<path class="st8" d="M224.9,470.6c28.3-18.2,42.7-17.8,71.8-22.1c25.2-3.7,41.8-5.7,60.1-24c26-26,23.5-62.9,7.8-104.7
		c-18.2-48.5-2.1-76.8,13.2-96.2l-54.3-54.3c0,0-42.7,33.7-98.5-2.7c-55.9,36.5-98.5,2.7-98.5,2.7L72,223.5
		c15.2,19.4,31.8,47.3,13.2,96.2c-16,42-17.8,78.7,7.8,104.7c18.2,18.5,34.6,20.4,60.1,24C183,452.8,196.6,452.4,224.9,470.6z"/>
	<path class="st9" d="M224.9,453.2c30.7-17,49.4-15.3,83.8-20.6c73.3-11.2,49.6-85,49.6-85c0.4-7-18.2-41.1-15.9-75.3h-235
		c2.7,33.7-15.5,68.3-15.9,75.3c0,0-23.3,73.3,49.6,85C177.8,438.5,194.2,436.2,224.9,453.2z"/>
	<g class="st4">
		<rect x="185.3" y="206.7" width="9.9" height="48.9"/>
		<polygon points="165.9,226.1 156.4,226.1 156.4,206.7 147.3,206.7 147.3,255.6 156.4,255.6 156.4,234.7 165.9,234.7 165.9,255.6 
			175.4,255.6 175.4,206.7 165.9,206.7 		"/>
		<path d="M123,206.5h-9.9v49.3h9.9v-16.1c2.8-0.1,18.9,1.6,19.3-15.8C142.8,204.7,126.4,206.5,123,206.5z M123,231.6V214
			c2,0,10.1-1.1,10.2,8.7C133.2,233.6,124.5,231.6,123,231.6z"/>
		<path d="M338.3,243c-0.2-5.5-3.6-10.5-8.7-13.6c-5.6-3.5-12.4-7.4-12.5-11.1c-0.1-6.7,10.5-8.3,10.5,2.5h9.7
			c0.2-6.9-0.8-15.7-14.8-15.7S308,215.7,308,218.5c-0.2,10.2,7.7,13.3,14.7,17.5c6.2,3.7,5.5,7.4,5.5,7.4
			c-0.1,7.8-11.3,9.3-11.3-2.7h-9.3c0,5.9,1.2,16.2,15.1,16.2C336.2,256.8,338.4,247.8,338.3,243z"/>
		<polygon points="214.9,206.6 205.1,206.6 205.1,255.5 225.6,255.5 225.6,247.9 214.9,247.9 		"/>
		<path d="M285.4,206.5h-9.9v49.3h9.9v-16.1c2.8-0.1,18.9,1.6,19.3-15.8C305.1,204.7,288.8,206.5,285.4,206.5z M285.4,231.6V214
			c2,0,10.1-1.1,10.2,8.7C295.6,233.6,286.8,231.6,285.4,231.6z"/>
		<polygon points="240.4,206.7 230.5,206.7 230.5,255.6 251.1,255.6 251.1,248 240.4,248 		"/>
		<rect x="255.9" y="206.7" width="9.9" height="48.8"/>
	</g>
	<path class="st8" d="M321.7,325.4c1.7-5-0.7-22.2-17.8-27.9c-32-10.7-56.4,6-69,41.3c-3.9,11-7.7,23-8.3,33.8
		c-0.7,13.4,3.4,25.1,18.2,30.8c16.8,6.4,45.2,3.9,58.2-17.5c2.5-4.2,4.6-8.7,6.2-13.3c5.2-15.3,4.4-32.1-11.5-37.8
		c-18.3-6.6-30,3.2-30,3.2s7.9-26,20.1-26c8,0,6.2,11.4,6.2,11.4L321.7,325.4L321.7,325.4z M274.5,349.6c9.3,1.9,6.1,14.2,2.9,23
		v0.1c-3.3,8.9-9.8,18.5-17.9,16.3c-5.3-1.4-5.3-9-3.4-16.4c0.7-2.9,1.7-5.7,2.9-8.4C262.4,356.4,267.6,348.2,274.5,349.6
		L274.5,349.6z M201.6,297.4c-33-10.9-56.6,6.8-69,41.3c-3.9,11-7.7,23-8.3,33.8c-0.7,13.4,3.4,25.1,18.2,30.8
		c16.8,6.4,45.2,3.9,58.2-17.5c2.5-4.2,4.6-8.7,6.2-13.3c5.2-15.3,4.4-32.1-11.5-37.8c-18.3-6.6-30,3.2-30,3.2s7.9-26,20.1-26
		c8,0,6.2,11.4,6.2,11.4l27.7,2C221.1,320.4,218.7,303.1,201.6,297.4z M172.3,349.6c9.3,1.9,6.1,14.2,2.9,23v0.1
		c-3.3,8.9-9.8,18.5-17.9,16.3c-5.3-1.4-5.2-9-3.2-16.4c0.8-2.9,1.8-5.7,3-8.4C160.4,356.4,165.4,348.2,172.3,349.6L172.3,349.6z"/>
</g>
<g class="st0">
	<path class="st10" d="M100.3,398.6c28.7,0,51.9-23.5,51.9-52.4c0-29.1-23.2-52.6-51.9-52.6c-28.6,0-51.8,23.5-51.8,52.6
		C48.5,375.1,71.7,398.6,100.3,398.6L100.3,398.6z"/>
	<path class="st8" d="M118.6,351.1l-20.9-13c-4.5-2.8-9.7,1.9-9.3,2.6l-15.6-24.4c-0.5-0.7-0.7-1.5-0.7-2.4c0-4.1,5.3-5.2,7.5-2
		L95,334.6c1,1.5,2.3,2.3,3.6,2.3c1.7,0,3-1.3,3-3c0-0.4-0.1-0.8-0.2-1.1l-8.9-24.2c-1.8-5,5.5-8,7.5-3L118.6,351.1z"/>
	<path class="st8" d="M119.5,353.1l2.1,2.9c0.3,1,0.7,2.4,0.3,3.4l4.1,10.7c-1.5,2.7-5.5,5.9-9.4,5.2c-7.8-1.2-10.8-11.2-10.8-17.3
		v-0.7l-0.6-0.4l-4.6-2.8l-2.1-1.3l-7.2-4.3c-0.7-0.4-1.3-1-1.8-1.7c-1.2-1.8-1.1-4.1,0-5.8c1-1.6,2.8-2.6,4.7-2.6
		c1,0,1.9,0.3,2.8,0.8L119.5,353.1L119.5,353.1z"/>
	<path class="st8" d="M99.6,355c0,0.3,0.2,0.6,0.2,0.9c0,0.8-0.3,1.7-0.7,2.5c-0.9,1.3-2.4,2.2-4,2.2l-2.5-0.8l-15.4-10.2
		c-2.1-1.4-2.7-4.2-1.3-6.4c0.8-1.3,2.3-2.1,3.8-2.1c0.9,0,1.7,0.3,2.5,0.8l5.7,3.8c0.5,1.4,1.4,3,2.9,4l6,3.5l1.7,1L99.6,355z
		 M88.9,371.5L74.7,362c-2.1-1.4-2.6-4.1-1.3-6.2c1.4-2.1,4.1-2.9,6.3-1.5l15.4,10.3c2.1,1.4,2.9,4.2,1.5,6.4
		C94.8,373.8,91.3,373,88.9,371.5L88.9,371.5z"/>
	<path class="st8" d="M101.1,355.9l3.7,2.2c0.2,7.8,2,10.5,3.8,13.5c0.8,1.7,2.5,2.9,3.8,3.8c-2.1,2.2-5.8,5.2-9.4,7.5
		c-0.8,0.6-1.8,0.9-2.8,0.8c-3.2,0-8.2-6.1-8.2-6.3c-0.7-0.8-1.2-2.2-1.5-3.7c2.7,1.2,5.7,0.5,7.4-2c1.7-2.7,0.8-6.4-1.8-8.1
		l-2.3-1.7v-0.3c2.5,0.7,5.2-0.2,6.7-2.5C100.9,358.1,101.3,356.9,101.1,355.9L101.1,355.9z"/>
	<path class="st11" d="M225.4,318.5c-10.4,0-17.7,7.3-17.7,19.4c0,12.6,7.9,19.4,18.5,19.4c7.2,0,14.3-3.9,16.1-12.4h-10.9
		c-1.2,2.4-2.9,3.2-5.4,3.2c-4.7,0-7.1-2.9-7.1-8h23.9v-1.4C242.9,326.3,236.5,318.5,225.4,318.5z M219.2,332.6
		c0.7-3.7,3.4-5.8,6.7-5.8c3,0,5.9,2.2,6.4,5.8H219.2z"/>
	<g class="st4">
		<polygon class="st12" points="186.7,327.8 205.4,302.6 190.3,302.6 175.5,324.6 175.3,324.6 175.3,302.6 163.2,302.6 163.2,356.1 
			175.3,356.1 175.3,332.9 175.5,332.9 191.3,356.1 207.1,356.1 		"/>
		<path class="st12" d="M313.2,352v4.1h11.3v-58.9h-11.3v26c-2.4-3.2-6.2-4.8-9.9-4.8c-9.4,0-16,8.8-16,19.4
			c0,10.4,6.7,19.4,16.1,19.4c3.7,0,7.6-1.7,9.6-5.3L313.2,352L313.2,352L313.2,352z M306.3,346c-4.7,0-7.4-3.6-7.4-8.2
			c0-4.4,2.7-8.2,7.4-8.2c4.5,0,7.2,3.7,7.2,8.2C313.5,342.5,310.8,346,306.3,346z"/>
		<path class="st12" d="M366.4,356.1v-36.4h-11.3v3.6c-2.4-3.2-6.2-4.8-9.9-4.8c-9.4,0-16,8.8-16,19.4c0,10.4,6.6,19.4,16.1,19.4
			c3.7,0,7.6-1.7,9.6-5.3h0.2v4.1L366.4,356.1L366.4,356.1z M348.3,346c-4.7,0-7.4-3.6-7.4-8.2c0-4.4,2.7-8.2,7.4-8.2
			c4.5,0,7.2,3.7,7.2,8.2C355.5,342.5,352.8,346,348.3,346z"/>
		<polygon class="st12" points="215,369.4 210.3,382.7 205.9,369.4 200.2,369.4 196.5,394.4 202.2,394.4 204,380 209.1,394.4 
			211.3,394.4 216.7,380 218.2,394.4 223.9,394.4 220.7,369.4 		"/>
		<path class="st12" d="M278.5,368.5c-6.2,0-12.1,5.3-12.1,12.9c0,8,5.2,13.6,12.1,13.6c7.1,0,12.1-5.6,12.1-13.6
			C290.6,373.8,284.9,368.5,278.5,368.5z M278.5,388.8c-3.4,0-6.1-3.1-6.1-7.3c0-3.6,2.7-6.6,6.1-6.6c3.5,0,6.2,3.1,6.2,6.6
			C284.8,385.7,282.1,388.8,278.5,388.8z"/>
		<path class="st12" d="M259.4,337.2c0-4.6,1.3-8.5,5.9-8.5c5.5,0,5,6.1,5,9.7v17.7h11.4v-22.5c0-9-3.5-15.1-12.1-15.1
			c-4.4,0-7.6,1.5-10.1,6h-0.2v-4.8h-11.4v36.4h11.4v-18.9H259.4z"/>
		<path class="st12" d="M334,368.5c-6.2,0-12.1,5.3-12.1,12.9c0,8,5,13.6,12.1,13.6s12.1-5.6,12.1-13.6
			C346.1,373.8,340.4,368.5,334,368.5z M334,388.8c-3.4,0-6.2-3.1-6.2-7.3c0-3.6,2.9-6.6,6.2-6.6c3.4,0,6.2,3.1,6.2,6.6
			C340.2,385.7,337.4,388.8,334,388.8z"/>
		<path class="st12" d="M237.4,368.5c-6.2,0-12.1,5.3-12.1,12.9c0,8,5,13.6,12.1,13.6s12.1-5.6,12.1-13.6
			C249.5,373.8,243.7,368.5,237.4,368.5z M237.3,388.8c-3.4,0-6.2-3.1-6.2-7.3c0-3.6,2.9-6.6,6.2-6.6s6.2,3.1,6.2,6.6
			C243.6,385.7,240.7,388.8,237.3,388.8z"/>
		<path class="st12" d="M309.5,377.1c0-5.3-3.4-7.7-7.6-7.7h-8.6v25h5.7v-9.7l5.4,9.7h7.1l-6.9-10.4
			C307.8,383.5,309.5,380.5,309.5,377.1z M299.6,380.6H299v-6.3h0.5c1.8,0,4,0.3,4,3.1C303.6,380.1,301.4,380.6,299.6,380.6z"/>
		<rect x="392.7" y="297.2" class="st12" width="11.4" height="58.9"/>
		<rect x="374" y="297.2" class="st12" width="11.3" height="58.9"/>
		<rect x="348.8" y="369.4" class="st12" width="5.7" height="25"/>
		<polygon class="st12" points="363.9,369.4 358.2,369.4 358.2,394.4 370.6,394.4 370.6,388.8 363.9,388.8 		"/>
		<polygon class="st12" points="250.4,374.9 255.1,374.9 255.1,394.4 260.9,394.4 260.9,374.9 265.6,374.9 265.6,369.4 250.4,369.4 
					"/>
	</g>
</g>
</svg>
