<?xml version="1.0" encoding="utf-8"?>
<!-- Generator: Adobe Illustrator 21.0.0, SVG Export Plug-In . SVG Version: 6.00 Build 0)  -->
<svg version="1.1" id="Layer_1" xmlns="http://www.w3.org/2000/svg" xmlns:xlink="http://www.w3.org/1999/xlink" x="0px" y="0px"
	 viewBox="0 0 526 822" style="enable-background:new 0 0 526 822;" xml:space="preserve">
<style type="text/css">
	.st0{display:none;}
	.st1{display:inline;fill:#D60026;stroke:#D60026;stroke-width:9.375000e-02;stroke-miterlimit:10;}
	.st2{display:inline;fill:#FFFFFF;stroke:#FFFFFF;stroke-width:9.375000e-02;stroke-miterlimit:10;}
	.st3{display:inline;stroke:#000000;stroke-width:9.375000e-02;stroke-miterlimit:10;}
	.st4{display:inline;fill:#FFFFFF;}
	.st5{display:inline;}
	.st6{display:inline;fill:#CF4044;}
	.st7{display:inline;fill:#EE3A43;}
	.st8{display:inline;fill:#FFFFFF;stroke:#000000;stroke-width:2;stroke-miterlimit:10;}
	.st9{fill:#FFFFFF;stroke:#000000;stroke-width:2;stroke-miterlimit:10;}
	.st10{fill:#020201;}
	.st11{fill:#FEFEFE;}
	.st12{fill:#FCD203;}
</style>
<rect x="2.5" y="3.8" class="st0" width="523" height="418.5"/>
<g class="st0">
	<path class="st1" d="M115.8,227.3c101.8,0,203.7,0,305.5,0c-6.9,18.4-14,36.6-21,55c-5.9,15.4-11.9,30.9-17.8,46.3
		c-0.2,0.5-0.4,1.1-0.6,1.6c-1,2.6-2.1,5.2-3,7.8c-55.9,0.1-111.7,0-167.6,0.1c-0.4-0.1-1.2-0.1-1.6-0.1
		c-21.8-0.2-43.6-0.1-65.4-0.1c-23.7,0-47.3,0.1-70.9,0c7-17.9,13.7-35.9,20.7-53.8C101.3,265.2,108.6,246.3,115.8,227.3
		L115.8,227.3z"/>
	<path class="st2" d="M127.9,250c6.1-0.1,12.3-0.1,18.4-0.1c2.4,0,5.2,0.2,6.9,2.2c1.5,1.6,1.2,3.9,0.5,5.8
		c-1.2,3.2-2.5,6.2-3.7,9.3c-1.1,2.9-2,6-4.3,8.2c-1.4,1.5-3.2,2.3-5,3.1c1.1,1.1,2.4,2.2,2.8,3.7c0.3,1.3-0.4,2.6-0.9,3.8
		c-2.4,5.9-4.6,11.8-6.9,17.7c-1.2,3.1-3.4,5.8-6.5,7c-2.3,0.8-4.7,0.6-7.1,0.6c-6-0.1-12.1,0.1-18-0.1
		C112,290.9,120,270.5,127.9,250L127.9,250z"/>
	<path class="st2" d="M177.5,250c2.2-0.1,4.3-0.1,6.4,0c-2.9,20.4-5.9,40.9-8.9,61.3c-3,0-6,0-9,0c0.9-4.6,1.8-9.1,2.5-13.8
		c-3,0.1-6-0.3-9,0.1c-0.9,0.7-1.4,1.7-1.9,2.7c-2,3.7-4.1,7.3-6.1,11c-3.1-0.1-6.1,0.1-9.2-0.1c2.3-4.5,5-8.8,7.5-13.2
		C159,282,168.2,266,177.5,250L177.5,250z"/>
	<path class="st2" d="M206.3,250.1c2.8-0.1,5.5-0.2,8.3-0.1c-6.8,18-13.8,36-20.5,54.1c4.6,0,9.2-0.1,13.9,0.1
		c-0.8,2.5-1.8,4.9-2.8,7.3c-7.5-0.1-15.1,0-22.6-0.1C190.5,290.9,198.5,270.5,206.3,250.1L206.3,250.1z"/>
	<path class="st2" d="M236.2,250c6.7-0.1,13.5-0.1,20.2-0.1c2,0.1,4.3,0.1,5.8,1.7c1.2,1.2,0.7,3.1,0.2,4.5
		c-5.9,15.5-11.9,31-17.7,46.5c-1,2.4-1.6,5.2-3.8,6.7c-2.9,2-6.7,2.1-10.1,2.1c-6-0.1-12.1,0.1-18.1-0.1
		C220.4,290.8,228.3,270.4,236.2,250L236.2,250z"/>
	<path class="st2" d="M271.5,250c3.1-0.1,6.3-0.1,9.4,0c-1,7.2-2.1,14.4-3,21.6c-0.5,3.5-1.1,6.9-1.3,10.3c1.7-2,3-4.2,4.3-6.5
		c5-8.5,10.2-16.9,15.3-25.4c2.4-0.1,4.9-0.1,7.3,0c-1.1,7.5-2.1,15-3.2,22.5c-0.5,3.6-1.2,7.1-1.3,10.8c1.7-2.2,3-4.5,4.3-6.9
		c5.1-8.8,10.3-17.5,15.4-26.4c3.2-0.1,6.3-0.1,9.5,0.1c-10.7,19.2-21.8,38.2-32.5,57.4c-1,1.5-1.6,4-3.7,3.9c-2,0.2-4,0.1-6,0
		c1-11.2,3-22.2,3.8-33.4c-1.6,2-2.8,4.3-4.1,6.5c-4.7,8.2-9.5,16.3-14.2,24.5c-0.6,0.8-1,1.7-1.8,2.3c-2.3,0.4-4.7,0.1-7,0.1
		C265.6,290.9,268.7,270.5,271.5,250L271.5,250z"/>
	<path class="st2" d="M337.8,250c2.8-0.1,5.5-0.1,8.2,0c-7.9,20.4-15.4,40.9-23.3,61.3c-3,0-5.9,0-8.8-0.1
		C321.8,290.8,329.9,270.5,337.8,250L337.8,250z"/>
	<path class="st2" d="M359.9,250c2.6-0.1,5.3-0.1,7.9,0c0.2,7,0.2,14,0.4,21.1c0.1,3.9-0.1,7.8,0.5,11.7c1.7-2.8,2.7-6,3.9-9
		c2.7-7,5.5-14,8.1-21c0.4-0.9,0.8-1.9,1.4-2.6c2.8-0.4,5.6-0.1,8.4-0.1c-7.8,20.4-15.8,40.8-23.8,61.2c-2.7,0.1-5.3,0.1-8,0.1
		c-0.1-7,0.1-14.1-0.2-21.2c-0.1-3.8,0.2-7.6-0.2-11.4c-0.6,1-1.1,1.9-1.6,2.9c-3.9,9.9-7.7,19.7-11.7,29.6c-3,0.1-6,0.1-8.9,0.1
		C344.1,290.9,352,270.4,359.9,250L359.9,250z"/>
	<path class="st1" d="M133,258.1c2.6,0,5.2-0.2,7.8-0.1c1,0.1,2,0.1,2.8,0.7c0.5,1.8-0.5,3.5-1,5.1c-1.1,2.5-1.9,5.1-3,7.6
		c-0.5,1.3-1.5,2.5-3,2.5c-3.2,0.2-6.4,0-9.7,0C128.8,268.6,131.1,263.4,133,258.1L133,258.1z"/>
	<path class="st1" d="M241.8,259.1c3,0,6-0.3,8.9,0c0.8-0.1,1.2,0.9,1.1,1.5c-0.1,2.3-1.2,4.4-2,6.5c-4.1,10.5-8.2,21-12.3,31.4
		c-0.7,1.8-1.9,3.8-3.9,4.2c-2.9,0.6-5.8,0.2-8.7,0.2C230.4,288.1,236.3,273.7,241.8,259.1L241.8,259.1z"/>
	<path class="st1" d="M164,288.1c3-5.1,5.6-10.4,9-15.2c-0.4,5.1-1.8,10.1-2.6,15.2C168.2,288.1,166.1,288.1,164,288.1L164,288.1z"
		/>
	<path class="st1" d="M123.4,283.3c3.5,0.1,7-0.5,10.5,0.4c0.8,1.3,0,2.8-0.5,4.1c-1.7,4-3.3,8.1-4.9,12.2c-0.7,2-2.3,3.8-4.5,4.1
		c-2.9,0.4-5.9,0.1-8.8,0.1C117.8,297.1,120.7,290.2,123.4,283.3L123.4,283.3z"/>
	<path class="st3" d="M381.8,330.2c0.2-0.5,0.4-1.1,0.6-1.6c22-0.1,44-0.1,66,0c-9.3,25.9-18.8,51.8-28.2,77.7
		c-78.4,0-156.9,0.1-235.3,0c8.2-22.8,16.4-45.6,24.8-68.3c0.4,0,1.2,0,1.6,0.1c-7.9,22.3-16.1,44.4-24.1,66.7
		c77.3,0.1,154.5-0.1,231.9,0c8.9-24.8,18-49.6,27-74.5C424.7,330.1,403.3,330.2,381.8,330.2L381.8,330.2z"/>
	<path class="st2" d="M378.8,338c0.9-2.6,2-5.2,3-7.8c21.5,0,42.9-0.1,64.3,0.1c-8.9,24.8-18,49.6-27,74.5
		c-77.3-0.1-154.6,0.1-231.9,0c7.9-22.3,16.2-44.4,24.1-66.7C267.2,338,323,338.1,378.8,338L378.8,338z"/>
	<path class="st3" d="M233.7,348.9c7.5,0,15.1,0,22.7,0c-1.1,3.3-2.2,6.5-3.4,9.8c-4.1,0.1-8.2-0.4-12.3,0.2c-1,1.8-1.6,3.8-2.3,5.6
		c4,0,8.1,0,12.1,0c-1.1,3-2.3,5.9-3.3,8.9c-4.2-0.1-8.3,0-12.4,0c-2.1,5.6-4.3,11.2-6.5,16.7c-3.5-0.1-7,0.1-10.6-0.1
		C223,376.4,228.4,362.6,233.7,348.9L233.7,348.9z"/>
	<path class="st3" d="M263.3,348.9c3.4,0.1,6.7-0.1,10.1,0c-5.1,13.8-10.4,27.5-15.5,41.2c-3.6,0-7.1,0-10.6,0
		C252.6,376.4,257.9,362.6,263.3,348.9L263.3,348.9z"/>
	<path class="st3" d="M280.3,349c3.4-0.1,6.8-0.1,10.2-0.1c-4,10.5-8,21-12,31.5c5-0.1,10-0.1,15,0c-1.2,3.3-2.6,6.5-3.7,9.7
		c-8.3,0-16.7,0-25.1,0C270,376.4,275.3,362.7,280.3,349L280.3,349z"/>
	<path class="st3" d="M301.1,348.9c9.2,0,18.5,0,27.7,0c-1.2,3.2-2,6.4-3.4,9.4c-2.9,0.8-6,0.2-9,0.3c-3.9,10.5-8,21-11.9,31.5
		c-3.5,0-7,0-10.6,0c4-10.5,8.1-21,12.2-31.5c-3,0.1-6,0-8.9,0C298.4,355.4,299.8,352.2,301.1,348.9L301.1,348.9z"/>
	<path class="st3" d="M333.3,348.9c6.9,0,13.8,0,20.6,0c-1.2,3.3-2.6,6.5-3.7,9.7c-3.5,0-7,0.1-10.5,0c-0.7,1.9-1.4,3.9-2.1,5.8
		c3.3,0,6.7,0,10,0c-1,3-2,5.9-2.9,8.9c-3.5-0.1-6.9,0-10.3,0c-0.9,2.4-1.9,4.6-2.8,7c3.4-0.1,6.8,0,10.2,0
		c-1.2,3.3-2.4,6.5-3.6,9.7c-6.9,0-13.8,0-20.6,0C322.8,376.4,328.1,362.7,333.3,348.9L333.3,348.9z"/>
	<path class="st3" d="M360.3,348.9c6,0,12.1,0,18.1,0c1.8,0.1,4,0.2,5.2,1.9c0.9,1.6,0.2,3.4-0.4,4.9c-1.5,3.8-3,7.5-4.5,11.3
		c-0.6,1.5-1.2,3.1-2.1,4.4c-1,1.2-2.5,1.7-3.8,2.5c0.3,5.4,1.1,10.9,1.5,16.3c-3.3,0-6.5,0-9.7,0c-0.5-5-1.2-10-1.6-15.1
		c-0.9,0-1.7,0-2.5,0.1c-1.9,5-3.8,10-5.6,15c-3.6-0.1-7.1,0-10.6,0C349.7,376.4,355,362.6,360.3,348.9L360.3,348.9z"/>
	<path class="st3" d="M390.7,353.7c0.9-2.3,2.6-4.7,5.3-4.7c6.1-0.1,12.2-0.1,18.3-0.1c-1.2,3.3-2.6,6.5-3.7,9.7
		c-3.8,0-7.6,0.1-11.4,0c-0.9,2-1.7,3.9-2.6,5.8c2.8,0.1,5.6-0.2,8.4,0.1c1.3,0,2.5,1.1,2.5,2.5c-0.1,1.4-0.6,2.7-1.1,3.9
		c-1.8,4.3-3.5,8.6-5.2,13c-0.8,2-1.8,4.1-3.6,5.4c-1.2,0.9-2.8,0.8-4.2,0.8c-5.6-0.1-11.3,0.1-16.9-0.1c1.1-3.3,2.4-6.5,3.6-9.7
		c4,0.1,7.9,0,11.9,0c0.9-2.3,2-4.6,2.9-6.9c-3-0.2-6,0.4-8.9-0.5c-1.9-0.6-1.8-3-1.2-4.5C386.8,363.5,388.8,358.6,390.7,353.7
		L390.7,353.7z"/>
	<path class="st2" d="M366.4,358.6c2.1,0,4.1,0.1,6.1,0c-0.8,2.1-1.6,4.1-2.4,6.1c-2-0.1-4-0.1-6-0.1
		C364.8,362.6,365.6,360.6,366.4,358.6L366.4,358.6z"/>
</g>
<g class="st0">
	<path class="st4" d="M262.9,421.2c10.6-14,25.3-16.9,43.5-18.7c21.6-2,31.2-4.2,43.5-18c7.7-8.6,13.1-22.6,13.1-35.2
		c0-8.8-0.5-16.1-4.8-28.8c-9.4-27.1-12.3-37.3,9.2-62.2l-44.9-44.9c-9.7,8.1-30.6,22.1-59.6-0.9c-29.2,23.2-49.5,8.7-59.6,0.9
		l-44.9,44.9c21.4,24.9,19.4,35.1,9.2,62.2c-4.6,12.2-4.8,20.3-4.8,28.8c0,12.7,5,26.6,13.1,35.2c12.7,13.5,22.3,15.9,43.5,18
		C238.3,404.4,252.3,407.4,262.9,421.2L262.9,421.2z"/>
	<path class="st5" d="M262.9,415.6c10.8-12.2,27.2-14.9,43.7-16.6c20.7-2.1,28.8-4.2,40.3-16.6c7.4-8,12.4-20.5,12.4-33.1
		c0-8.5-1.4-18.8-5.3-29.5c-10.7-29-8.3-41,8.5-61.2L322,218.1c0,0-26,24.2-59.2-1.4c-32.9,25.6-59.2,1.4-59.2,1.4l-40.5,40.5
		c17.2,20.3,19.7,32.5,8.5,61.2c-4.1,10.7-5.3,21-5.3,29.5c0,12.4,4.9,25.5,12.4,33.1c11.9,12.1,19.6,14.3,40.3,16.6
		C235.7,400.9,252.1,403.4,262.9,415.6L262.9,415.6z"/>
	<path class="st4" d="M262.9,405.7c16.8-10.8,25.3-10.6,42.6-13.1c15-2.2,24.8-3.4,35.7-14.3c15.4-15.4,13.9-37.3,4.6-62.2
		c-10.8-28.8-1.3-45.6,7.8-57.1l-32.2-32.2c0,0-25.3,20-58.5-1.6c-33.1,21.6-58.5,1.6-58.5,1.6L172.2,259c9,11.5,18.9,28.1,7.8,57.1
		c-9.5,24.9-10.6,46.7,4.6,62.2c10.8,11,20.5,12.1,35.7,14.3C238,395.2,246.1,394.9,262.9,405.7z"/>
	<path class="st6" d="M262.9,395.4c18.2-10.1,29.3-9.1,49.7-12.2c43.5-6.7,29.5-50.4,29.5-50.4c0.2-4.1-10.8-24.4-9.4-44.7H193.1
		c1.6,20-9.2,40.5-9.4,44.7c0,0-13.8,43.5,29.5,50.4C235,386.7,244.7,385.3,262.9,395.4z"/>
	<g class="st5">
		<rect x="239.4" y="249.2" width="5.9" height="29"/>
		<polygon points="227.9,260.6 222.3,260.6 222.3,249.2 216.9,249.2 216.9,278.1 222.3,278.1 222.3,265.7 227.9,265.7 227.9,278.1 
			233.5,278.1 233.5,249.2 227.9,249.2 		"/>
		<path d="M202.4,249h-5.9v29.3h5.9v-9.5c1.6-0.1,11.2,0.9,11.4-9.4C214.2,248,204.5,249,202.4,249z M202.4,263.9v-10.5
			c1.2,0,6-0.7,6,5.1C208.5,265.1,203.3,263.9,202.4,263.9z"/>
		<path d="M330.2,270.6c-0.1-3.2-2.2-6.2-5.2-8.1c-3.3-2.1-7.4-4.4-7.4-6.6c-0.1-4,6.2-4.9,6.2,1.5h5.8c0.1-4.1-0.5-9.3-8.8-9.3
			s-8.6,6.3-8.6,8c-0.1,6,4.6,7.9,8.7,10.4c3.7,2.2,3.3,4.4,3.3,4.4c0,4.6-6.7,5.5-6.7-1.6H312c0,3.5,0.7,9.6,8.9,9.6
			C328.9,278.9,330.2,273.5,330.2,270.6z"/>
		<polygon points="257,249.1 251.1,249.1 251.1,278.1 263.3,278.1 263.3,273.6 257,273.6 		"/>
		<path d="M298.8,249h-5.9v29.3h5.9v-9.5c1.6-0.1,11.2,0.9,11.4-9.4C310.5,248,300.8,249,298.8,249z M298.8,263.9v-10.5
			c1.2,0,6-0.7,6,5.1C304.8,265.1,299.6,263.9,298.8,263.9z"/>
		<polygon points="272.1,249.2 266.2,249.2 266.2,278.1 278.4,278.1 278.4,273.6 272.1,273.6 		"/>
		<rect x="281.3" y="249.2" width="5.9" height="29"/>
	</g>
	<path class="st4" d="M320.3,319.5c1-2.9-0.4-13.2-10.6-16.6c-19-6.3-33.5,3.6-41,24.5c-2.3,6.5-4.6,13.6-4.9,20.1
		c-0.4,8,2,14.9,10.8,18.3c10,3.8,26.8,2.3,34.5-10.4c1.5-2.5,2.8-5.1,3.7-7.9c3.1-9.1,2.6-19-6.8-22.5c-10.9-3.9-17.8,1.9-17.8,1.9
		s4.7-15.4,11.9-15.4c4.7,0,3.7,6.8,3.7,6.8L320.3,319.5L320.3,319.5z M292.3,333.9c5.5,1.1,3.6,8.4,1.7,13.6c0,0,0,0,0,0.1
		c-1.9,5.3-5.8,10.9-10.6,9.7c-3.2-0.8-3.1-5.3-2-9.7c0.4-1.7,1-3.4,1.7-5C285.2,338,288.3,333.1,292.3,333.9L292.3,333.9z
		 M249.1,303c-19.6-6.4-33.6,4-41,24.5c-2.3,6.5-4.6,13.6-4.9,20.1c-0.4,8,2,14.9,10.8,18.3c10,3.8,26.8,2.3,34.5-10.4
		c1.5-2.5,2.8-5.1,3.7-7.9c3.1-9.1,2.6-19-6.8-22.5c-10.9-3.9-17.8,1.9-17.8,1.9s4.7-15.4,11.9-15.4c4.7,0,3.7,6.8,3.7,6.8l16.5,1.2
		C260.7,316.6,259.2,306.3,249.1,303z M231.7,333.9c5.5,1.1,3.6,8.4,1.7,13.6v0.1c-1.9,5.3-5.8,10.9-10.6,9.7
		c-3.2-0.8-3.1-5.3-1.9-9.7c0.5-1.7,1-3.4,1.8-5C224.6,338,227.6,333.1,231.7,333.9L231.7,333.9z"/>
</g>
<g class="st0">
	<path class="st7" d="M128.4,366.5c30.2,0,54.6-24.7,54.6-55.1c0-30.6-24.4-55.3-54.6-55.3c-30,0-54.4,24.7-54.4,55.3
		C74,341.8,98.4,366.5,128.4,366.5L128.4,366.5z"/>
	<path class="st4" d="M147.7,316.6l-22-13.6c-4.7-2.9-10.2,2-9.8,2.7L99.5,280c-0.5-0.7-0.7-1.6-0.7-2.5c0-4.3,5.6-5.4,7.9-2.1
		l16.2,23.9c1.1,1.5,2.4,2.4,3.8,2.4c1.8,0,3.1-1.4,3.1-3.1c0-0.4-0.1-0.8-0.2-1.2l-9.3-25.5c-1.9-5.2,5.8-8.4,7.9-3.1L147.7,316.6z
		"/>
	<path class="st4" d="M148.6,318.6l2.2,3c0.4,1.1,0.7,2.5,0.4,3.6l4.4,11.3c-1.6,2.8-5.8,6.2-9.9,5.5c-8.2-1.2-11.3-11.8-11.3-18.2
		v-0.7l-0.7-0.4l-4.8-2.9l-2.2-1.4l-7.6-4.6c-0.7-0.4-1.4-1.1-1.8-1.8c-1.2-1.9-1.2-4.3,0-6.1c1.1-1.7,2.9-2.7,4.9-2.7
		c1,0,2,0.3,2.9,0.8L148.6,318.6L148.6,318.6z"/>
	<path class="st4" d="M127.8,320.6c0,0.3,0.2,0.6,0.2,1c0,0.8-0.3,1.8-0.7,2.6c-0.9,1.4-2.5,2.3-4.2,2.3l-2.6-0.8L104.3,315
		c-2.2-1.5-2.8-4.5-1.4-6.7c0.9-1.4,2.4-2.2,4-2.2c0.9,0,1.8,0.3,2.6,0.8l5.9,3.9c0.6,1.5,1.5,3.1,3,4.2l6.3,3.7l1.8,1.1
		L127.8,320.6z M116.5,337.9l-15-9.9c-2.2-1.4-2.8-4.3-1.4-6.5c1.5-2.2,4.4-3.1,6.6-1.6l16.2,10.8c2.2,1.5,3,4.4,1.6,6.7
		C122.7,340.4,119,339.6,116.5,337.9L116.5,337.9z"/>
	<path class="st4" d="M129.3,321.6l3.9,2.3c0.2,8.2,2.1,11,4,14.2c0.9,1.8,2.6,3.1,4,4c-2.2,2.3-6.1,5.4-9.9,7.9
		c-0.9,0.6-1.9,0.9-3,0.9c-3.3,0-8.6-6.4-8.6-6.6c-0.7-0.9-1.2-2.3-1.6-3.9c2.8,1.2,6,0.5,7.7-2.1c1.8-2.8,0.9-6.8-1.9-8.5l-2.5-1.8
		v-0.4c2.6,0.7,5.4-0.2,7-2.7C129.1,323.9,129.5,322.6,129.3,321.6L129.3,321.6z"/>
	<path class="st8" d="M260,282.3c-11,0-18.6,7.7-18.6,20.4c0,13.2,8.3,20.4,19.4,20.4c7.6,0,15-4.1,17-13.1h-11.5
		c-1.2,2.5-3,3.4-5.7,3.4c-4.9,0-7.4-3-7.4-8.4h25.1v-1.4C278.3,290.5,271.6,282.3,260,282.3z M253.4,297.1c0.7-3.9,3.5-6.1,7.1-6.1
		c3.2,0,6.2,2.3,6.7,6.1H253.4z"/>
	<g class="st5">
		<polygon class="st9" points="219.3,292.1 238.9,265.6 223,265.6 207.5,288.7 207.3,288.7 207.3,265.6 194.6,265.6 194.6,321.8 
			207.3,321.8 207.3,297.5 207.5,297.5 224.1,321.8 240.7,321.8 		"/>
		<path class="st9" d="M352.2,317.5v4.3H364v-61.9h-11.8v27.4c-2.5-3.4-6.5-5-10.4-5c-9.9,0-16.8,9.3-16.8,20.4
			c0,10.9,7.1,20.4,17,20.4C345.9,323.1,350,321.3,352.2,317.5L352.2,317.5L352.2,317.5L352.2,317.5z M344.9,311.2
			c-4.9,0-7.8-3.8-7.8-8.6c0-4.6,2.8-8.6,7.8-8.6c4.8,0,7.6,3.9,7.6,8.6C352.5,307.5,349.7,311.2,344.9,311.2z"/>
		<path class="st9" d="M408.2,321.8v-38.3h-11.8v3.8c-2.5-3.4-6.5-5-10.4-5c-9.9,0-16.8,9.3-16.8,20.4c0,10.9,6.9,20.4,17,20.4
			c3.9,0,8-1.8,10.1-5.5h0.2v4.3L408.2,321.8L408.2,321.8z M389.1,311.2c-4.9,0-7.8-3.8-7.8-8.6c0-4.6,2.8-8.6,7.8-8.6
			c4.8,0,7.6,3.9,7.6,8.6C396.7,307.5,393.9,311.2,389.1,311.2z"/>
		<polygon class="st9" points="249,335.8 244,349.7 239.5,335.8 233.4,335.8 229.6,362.1 235.6,362.1 237.5,346.9 242.8,362.1 
			245.1,362.1 250.8,346.9 252.4,362.1 258.4,362.1 255,335.8 		"/>
		<path class="st9" d="M315.8,334.9c-6.5,0-12.7,5.5-12.7,13.6c0,8.4,5.5,14.3,12.7,14.3c7.4,0,12.7-5.9,12.7-14.3
			C328.5,340.4,322.5,334.9,315.8,334.9z M315.8,356.2c-3.5,0-6.4-3.2-6.4-7.7c0-3.8,2.8-7,6.4-7c3.7,0,6.5,3.2,6.5,7
			C322.3,352.9,319.5,356.2,315.8,356.2z"/>
		<path class="st9" d="M295.6,301.9c0-4.8,1.4-8.9,6.2-8.9c5.8,0,5.3,6.4,5.3,10.2v18.6h12v-23.6c0-9.5-3.7-15.9-12.7-15.9
			c-4.6,0-8,1.6-10.6,6.3h-0.2v-5h-12v38.3h12L295.6,301.9L295.6,301.9z"/>
		<path class="st9" d="M374.1,334.9c-6.5,0-12.7,5.5-12.7,13.6c0,8.4,5.3,14.3,12.7,14.3c7.4,0,12.7-5.9,12.7-14.3
			C386.8,340.4,380.8,334.9,374.1,334.9z M374.1,356.2c-3.5,0-6.5-3.2-6.5-7.7c0-3.8,3-7,6.5-7s6.5,3.2,6.5,7
			C380.6,352.9,377.6,356.2,374.1,356.2z"/>
		<path class="st9" d="M272.5,334.9c-6.5,0-12.7,5.5-12.7,13.6c0,8.4,5.3,14.3,12.7,14.3c7.4,0,12.7-5.9,12.7-14.3
			C285.2,340.4,279.2,334.9,272.5,334.9z M272.5,356.2c-3.5,0-6.5-3.2-6.5-7.7c0-3.8,3-7,6.5-7s6.5,3.2,6.5,7
			C279,352.9,276,356.2,272.5,356.2z"/>
		<path class="st9" d="M348.3,343.8c0-5.5-3.5-8-8-8h-9v26.3h6v-10.2l5.6,10.2h7.4l-7.2-10.9C346.5,350.6,348.3,347.4,348.3,343.8z
			 M337.9,347.6h-0.5V341h0.5c1.9,0,4.2,0.4,4.2,3.2S339.8,347.6,337.9,347.6z"/>
		<rect x="435.8" y="259.9" class="st9" width="12" height="61.9"/>
		<rect x="416.1" y="259.9" class="st9" width="11.8" height="61.9"/>
		<rect x="389.6" y="335.8" class="st9" width="6" height="26.3"/>
		<polygon class="st9" points="405.5,335.8 399.5,335.8 399.5,362.1 412.6,362.1 412.6,356.2 405.5,356.2 		"/>
		<polygon class="st9" points="286.3,341.5 291.2,341.5 291.2,362.1 297.2,362.1 297.2,341.5 302.2,341.5 302.2,335.8 286.3,335.8 
					"/>
	</g>
</g>
<g>
	<path class="st10" d="M3.4,312.7c11.2,0,22.5,0,33.7,0.1c1.4,0,1.7-0.3,1.7-1.8c0-25.7,0-51.5,0-77.2c0-1.2,0.1-2.3,0.2-3.4
		c0.5-4.1,2.9-6.2,7-6.3c4.9-0.1,10,0,14.9,0c0.2-0.7-0.3-1.2-0.6-1.7c-9.4-17-18.8-34-28.2-50.9c-0.8-1.5-0.5-1.9,0.8-2.5
		c6.7-3,13.4-6.1,20.1-9.2c0.9-0.4,1.5-0.3,2.2,0.5c8.8,9.4,19.5,15,32.3,16.5c11.4,1.3,22.7,0.5,33.7-3.1
		c7.1-2.4,14.4-4.3,21.6-6.4c12.7-3.7,25.3-7.4,38.3-10c5.5-1,11-1.6,16.6-2c0.5,0,1.2,0.3,1.6-0.3c5.8,0,11.6,0,17.4,0
		c0.4,0.6,1,0.3,1.6,0.3c9.1,0.6,18.4,1.4,27.3,3.6c2.7,0.6,5.5,1.6,8.1,2.7c3.5,1.6,6.4,3.8,8.6,6.9c10.2,14.2,18.9,29.2,27.8,44.2
		c2,3.4,4,6.7,5.9,10.1c0.7,1.4,1.5,1.8,3,1.8c31.5-0.1,62.9,0,94.4,0c2.8,0,5.7,0.2,8.4,1.3c3.6,1.4,5.7,4,6.1,7.8
		c0.1,1.2,0.2,2.2,0.2,3.4c0,24.7,0,49.2,0,73.9c0,1.5,0.2,2,1.9,2c16.3-0.1,32.5-0.1,48.7-0.1c0,30,0,60,0,90
		c-16.7,0-33.4,0-49.9,0c-1.6,0-2,0.3-1.9,1.9c0.1,3.4,0,6.7,0,10.2c-0.1,9.3-6.5,15.9-15.8,16.4c-1,0.1-2,0.1-3,0.1
		c-51.7,0-103.4,0-155.1,0c-0.6,0-1.3,0-2,0c-0.1,0.8,0.5,1.3,0.8,1.8c6.7,11,13.3,22,20.1,33c0.6,1,0.7,1.6-0.6,2.1
		c-10.9,5-21.8,10.1-32.6,15.1c-1.5,0.7-2.2,0.4-3.1-0.9c-11.1-16.7-22.3-33.3-33.6-49.9c-0.7-1.2-1.6-1.6-2.9-1.6
		c-40.2,0-80.4,0-120.5,0.1c-5.2,0-10.1-1.2-14.4-4.3c-3.6-2.6-5.5-6.1-5.4-10.6c0.1-4.2,0-8.3,0.1-12.5c0-1.3-0.3-1.6-1.6-1.6
		c-11.2,0.1-22.6,0-33.8,0C3.4,372.2,3.4,342.4,3.4,312.7z M223.1,426.9c1,0,1.8,0,2.4,0c54.1,0,108.2,0,162.2,0c0.9,0,1.9,0,2.8,0
		c7.4-0.4,12-5.1,12.1-12.6c0-4.7,0.1-9.3,0-14.1c0-1.5,0.3-1.9,1.8-1.9c16.3,0.1,32.5,0,48.7,0.1c1.4,0,1.8-0.3,1.8-1.7
		c-0.1-26-0.1-51.9,0-78c0-1.5-0.3-1.9-1.9-1.9c-15.7,0.1-31.5,0-47.1,0.1c-1.6,0-2-0.4-2-2c0.1-25.9,0-51.8,0-77.7c0-1-0.1-2-0.1-3
		c-0.2-2.3-1.5-3.7-3.5-4.5c-2.1-0.8-4.4-0.8-6.7-0.8c-32.3,0-64.6,0-96.9,0c-1.5,0-2.3-0.4-3-1.8c-3.1-5.6-6.3-11-9.5-16.4
		c-7.8-12.9-15.4-25.8-24-38.2c-3-4.4-6.9-7-11.9-8.5c-2-0.6-4.1-1.2-6.2-1.6c-9.4-2-19.1-2.6-28.7-3c-10.5-0.4-21,0.2-31.4,2.1
		c-14.3,2.6-28,6.9-41.9,11c-8.5,2.4-17,5-25.6,7.3c-7.7,2-15.6,1.8-23.5,1.5c-14.3-0.7-26.3-6.2-36.6-15.8
		c-0.8-0.8-1.5-0.8-2.4-0.4c-4.3,2-8.6,4-12.9,5.9c-1.5,0.6-1.6,1.2-0.7,2.5c9.9,17.7,19.6,35.4,29.5,53.1c0.9,1.8,0.9,1.8-1.2,1.8
		c-5.9,0-11.9-0.1-17.7,0c-5.5,0-5.7,0.2-5.7,5.8c0,27,0,53.9,0,80.9c0,1.6-0.3,2-1.9,2c-10.6-0.1-21.2,0-31.9-0.1
		c-1.4,0-1.7,0.4-1.7,1.7c0,25.8,0,51.6,0,77.4c0,1.5,0.5,1.7,1.8,1.7c10.6-0.1,21.1,0,31.7-0.1c1.5,0,2,0.2,2,1.9
		c-0.1,5.6,0,11-0.1,16.6c-0.1,2.9,1.2,5.1,3.4,6.8c3.4,2.6,7.2,3.6,11.4,3.6c41,0,81.9,0,123-0.1c1.7,0,2.7,0.5,3.7,1.9
		c10.8,16.3,21.8,32.4,32.7,48.7c0.7,1.2,1.3,1.6,2.7,0.8c8.2-3.9,16.4-7.7,24.7-11.4c2-0.9,2-0.9,0.9-2.7
		c-4.6-7.6-9.2-15.2-13.8-22.8C228.9,436.4,226.1,431.8,223.1,426.9z"/>
	<path class="st10" d="M133.1,310.2c1.5,2.5,2.8,4.8,4.3,7.1c1.3,2.1,2.6,4.1,3.8,6.3c0.5,1,1.3,1.4,2.4,1.4c13.3,0,26.5,0,39.9-0.1
		c3.6,0,5.9,1.5,7.3,4.5c2.3,4.7,2.9,9.9,2.7,15.1c-0.2,5-0.5,10.2-2,15.1c-0.2,0.7-0.4,1.5-0.7,2.2c-1.4,3.4-2.5,4.2-6.2,4.2
		c-1.8,0-3.6,0-5.7,0c19.8,33.3,39.6,66.2,59.4,99.1c-4.7,2.4-9.4,4.7-14.1,7.1c-1,0.5-1.2-0.4-1.6-0.9c-4.1-6.7-8.1-13.3-12.2-20
		c-16.9-27.8-33.8-55.6-50.7-83.3c-0.3-0.5-0.4-1.2-1.3-1.4c0,6.2,0,12.3,0,18.4c0,1.5,0.5,3.5-0.2,4.3c-0.8,1-2.9,0.3-4.4,0.3
		c-4.1,0.1-8.2-0.1-12.3,0.1c-1.7,0.1-2-0.5-2-2.1c0.1-17.3,0-34.6,0.1-51.9c0-1.3-0.3-2.3-0.9-3.4c-23-38-46-76-68.9-113.9
		c-7.1-11.9-14.3-23.7-21.5-35.6c-0.7-1.2-0.6-1.8,0.6-2.4c1.4-0.6,2.8-2.2,4-2c1.3,0.2,1.9,2.3,2.5,3.7c1.7,4.1,4.6,5.6,8.9,6.3
		c8.1,1.4,15.9,3.5,24,4.5c8.8,1.2,17.5,0.6,26.2-0.5c14.9-1.9,28.7-7.4,42.6-12.5c14.5-5.2,29.4-8.9,44.6-11.1
		c10.4-1.5,20.9-1.8,31.4,0.2c7.2,1.4,12.6,5.2,16.6,11.4c15,23.5,29,47.5,42.9,71.6c7.4,12.8,14.9,25.7,22.2,38.6
		c0.3,0.6,0.7,1.3,1,1.8c1,1.6,0.8,2.4-0.7,3.4c-0.7,0.4-0.9-0.1-1.3-0.4c-7.6-9.4-17.9-13.6-29.5-14.9c-16.2-1.8-32,0.5-47.4,5.8
		c-10.9,3.7-21.7,7.9-32.5,11.6c-14.8,5.2-29.8,9.7-45.4,11.9c-8.4,1.2-16.7,2-25.2,0.5C133.7,310.2,133.5,310.2,133.1,310.2z
		 M307.6,284.9c0,0.2,0.1,0.3,0.3,0.2c0,0,0-0.2-0.1-0.4c-4.7-8.2-9.4-16.4-14.2-24.7c-0.4-0.7-1.2-1.2-1.9-1.5
		c-5.5-2.5-11.2-3.8-17.1-4.2c-6.2-0.4-12.4,0.2-18.7,1.3c4.3,6.4,8,13,11.6,19.6c0.6,1,1.3,1.5,2.5,1.4c6.9-0.4,13.8-0.1,20.7,1.4
		C296.8,279.4,302.3,281.8,307.6,284.9z M167,305.1c-4.2-7.3-8.3-14.3-12.8-21.3c12.1-2.7,23.9-5.4,35.6-9.3
		c-4.1-7-7.7-14.1-12-20.7c-0.7-1-0.6-1.5,0.6-1.9c6.1-1.9,12.2-4,18.3-5.8c4.6-1.5,9.3-2.6,14.1-4c-4.9-7-9.2-14.3-13.7-21.5
		c10.9-3.5,21.8-6.5,33.6-7.4c-1.7-2.6-3.1-4.9-4.5-7.2c-2.6-4.3-5.4-8.6-8-13c-1-1.7-0.9-1.7,1-1.9c1.2-0.1,2.4-0.1,3.6-0.2
		c7-0.5,14-0.6,21,0.5c3.5,0.5,6.9,1.4,10.8,2.4c-2.8-4.4-5.4-8.4-8-12.5c-2.8-4.5-6.9-7.4-12.1-8.7c-9.3-2.4-18.8-1.6-28.5-1.2
		c3.8,6.7,7.4,13.2,11.1,19.8c-11.2,1.3-21.9,3.7-32.3,7.3c-1,0.3-1.4,0-1.7-0.7c-3.6-6-6.9-12-10.2-18.2c-0.6-1-1.2-1.4-2.3-0.9
		c-10,3.1-19.7,6.9-29.6,10.3c-1,0.3-1,0.6-0.6,1.6c3.4,6,6.8,11.9,10.2,17.8c0.5,0.9,1,0.9,2,0.6c10.1-3.1,20.1-6.2,30-9.8
		c0.9-0.3,1.4-0.3,2,0.6c4,6.5,7.7,13.2,12,19.5c0.4,0.7,0.6,1-0.4,1.4c-10.3,2.9-20.2,6.7-30.4,10.2c-1.2,0.4-1.5,0.1-2-0.8
		c-3.5-5.8-6.9-11.5-10.5-17.3c-2-3.3-2-3.1-5.7-2.1c-7.7,2.2-15.4,4.1-23.3,4.8c-3,0.3-6,0.7-9.1,1c4.3,7.8,8.6,15.3,12.9,22.9
		c0.5,0.9,1.2,0.7,1.9,0.7c11.5-1.4,22.8-4.3,33.6-8.5c0.8-0.3,1.2-0.2,1.6,0.5c1.5,2.5,3,5.1,4.5,7.7c2.5,4.1,5,8.2,7.7,12.4
		c-0.4,0.2-0.7,0.3-0.9,0.4c-11.4,3.8-23,6.9-34.9,8.3c-1,0.1-1.3,0.4-0.6,1.3c1,1.5,2.1,3,3,4.6c3.6,5.6,7.1,11.1,10.8,16.9
		c-11.6,2.1-22.9,5.7-34.8,3.7c3.3,5.4,6.5,10.4,9.3,15.6c1.3,2.3,3,3.4,5.4,3.7c0.8,0.1,1.8,0.3,2.6,0.4
		C146.8,308.5,156.8,306.9,167,305.1z M243.3,234c-11,2.1-21.7,4.9-32.5,8.2c4.3,7,8.5,13.8,12.7,20.8c-10.8,3.4-21.4,6.9-32,10.8
		c-1.7,0.6-1.6,1.2-0.8,2.4c3.5,5.8,6.8,11.6,10.2,17.5c0.7,1.4,1.5,1.5,2.8,1c10.3-3.7,20.4-7.7,30.7-11c1.2-0.4,1-0.8,0.5-1.7
		c-3.6-5.9-7.1-11.9-10.7-17.7c-0.5-0.9-0.6-1.4,0.5-1.7c6.6-2,13.3-3.9,20.1-5.1c3.7-0.6,7.2-1.3,11-1.9
		C251.3,248.6,247.8,241.1,243.3,234c12.2-1.4,24-3.1,36,1.5c-0.6-1-0.8-1.6-1.2-2.2c-3.1-5.4-6.4-10.8-9.5-16.3
		c-0.7-1.4-1.7-2.1-3.1-2.6c-11.4-4.3-23.1-2.6-34.9-1.3C235.1,220,239.5,226.8,243.3,234z M61.2,190.9c0,0.2,0,0.4,0,0.5
		c4.2,6.8,8.4,13.7,12.5,20.6c0.4,0.7,1,0.9,1.8,1c10.7,2.7,21.6,4,32.7,3.6c1.8-0.1,3.5-0.3,5.5-0.5c-4-6.3-7.4-12.5-10.8-18.8
		c-0.4-0.7-0.9-0.6-1.5-0.6c-9.8,0.4-19.2-1.5-28.6-3.5C68.8,192.5,65,191.6,61.2,190.9z M90.9,240.4c0.4,0.7,0.7,1.3,1,1.9
		c3.1,5.2,6.6,10.3,9.3,15.7c1.8,3.5,4.3,4.4,7.9,4.6c9.8,0.6,19.5-0.3,29.3-1.2c1.5-0.1,0.9-0.7,0.5-1.4
		c-3.8-5.8-7.1-11.6-10.4-17.7c-0.5-1-1.2-1.3-2.2-1.2c-9.3,0.5-18.6,0.7-27.9,0.1C96,240.9,93.5,240.6,90.9,240.4z M159.1,345.8
		c0,1.8,0.1,3.6,0,5.4c-0.1,1.5,0.2,2.1,1.9,2c2.9-0.1,5.9-0.1,8.9,0c2,0.1,3.3-0.8,4.1-2.5c1.5-3.4,1.3-6.7-0.1-10
		c-0.5-1.4-1.7-2.1-3.3-2.1c-3.5,0-6.8,0.1-10.3,0c-0.9,0-1.2,0.3-1.2,1.3C159.2,341.9,159.1,343.8,159.1,345.8z"/>
	<path class="st11" d="M167,305.1c-10.2,1.8-20,3.4-30.2,2.2c-0.8-0.1-1.8-0.2-2.6-0.4c-2.4-0.4-4.1-1.4-5.4-3.7
		c-2.9-5.2-6.2-10.4-9.3-15.6c12,2,23.2-1.6,34.8-3.7c-3.7-5.8-7.2-11.3-10.8-16.9c-0.9-1.6-2-3.1-3-4.6c-0.6-0.9-0.4-1.2,0.6-1.3
		c12-1.4,23.6-4.5,34.9-8.3c0.3-0.1,0.5-0.2,0.9-0.4c-2.5-4.2-5.1-8.3-7.7-12.4c-1.6-2.5-3-5-4.5-7.7c-0.4-0.7-0.7-0.9-1.6-0.5
		c-10.8,4.2-22,7-33.6,8.5c-0.7,0.1-1.4,0.2-1.9-0.7c-4.2-7.6-8.5-15.1-12.9-22.9c3.1-0.3,6.2-0.8,9.1-1c8-0.7,15.6-2.6,23.3-4.8
		c3.7-1,3.7-1,5.7,2.1c3.6,5.8,7,11.5,10.5,17.3c0.5,0.9,0.9,1.3,2,0.8c10.1-3.5,20.1-7.2,30.4-10.2c1-0.3,0.8-0.6,0.4-1.4
		c-4.2-6.3-8-13-12-19.5c-0.6-0.9-1-0.9-2-0.6c-9.9,3.6-19.9,6.6-30,9.8c-0.9,0.3-1.5,0.2-2-0.6c-3.4-6-6.7-12-10.2-17.8
		c-0.5-0.9-0.4-1.2,0.6-1.6c9.9-3.4,19.6-7.2,29.6-10.3c1.3-0.4,1.8-0.2,2.3,0.9c3.3,6.1,6.6,12.2,10.2,18.2
		c0.4,0.7,0.7,1.2,1.7,0.7c10.4-3.7,21.1-6.1,32.3-7.3c-3.7-6.6-7.3-13.1-11.1-19.8c9.8-0.4,19.2-1.3,28.5,1.2
		c5.1,1.4,9.2,4.2,12.1,8.7c2.5,4,5.1,8.1,8,12.5c-3.9-1-7.3-1.9-10.8-2.4c-6.9-1.2-14-0.9-21-0.5c-1.2,0.1-2.4,0.2-3.6,0.2
		c-2.1,0.1-2.1,0.1-1,1.9c2.6,4.3,5.4,8.7,8,13c1.5,2.3,2.8,4.6,4.5,7.2c-11.6,0.9-22.7,4-33.6,7.4c4.5,7.2,8.8,14.6,13.7,21.5
		c-4.7,1.4-9.4,2.6-14.1,4c-6.1,1.9-12.2,3.9-18.3,5.8c-1.3,0.4-1.3,0.8-0.6,1.9c4.3,6.7,8,13.7,12,20.7c-11.6,4-23.5,6.6-35.6,9.3
		C158.7,290.8,162.8,297.8,167,305.1z"/>
	<path class="st11" d="M243.3,234c-3.8-7.3-8.2-14.1-12.8-21c12-1.4,23.5-2.9,34.9,1.3c1.5,0.5,2.4,1.4,3.1,2.6
		c3.1,5.5,6.4,10.8,9.5,16.3c0.3,0.5,0.6,1.2,1.2,2.2C267.1,230.9,255.4,232.7,243.3,234c4.4,7,8,14.5,12.5,21.5
		c-3.8,0.6-7.3,1.3-11,1.9c-6.8,1.3-13.4,3.1-20.1,5.1c-1.2,0.3-1.2,0.7-0.5,1.7c3.6,5.9,7.1,11.9,10.7,17.7
		c0.5,0.8,0.7,1.3-0.5,1.7c-10.4,3.3-20.5,7.3-30.7,11c-1.4,0.5-2.1,0.3-2.8-1c-3.3-5.9-6.7-11.6-10.2-17.5
		c-0.7-1.3-0.8-1.8,0.8-2.4c10.5-3.9,21.2-7.3,32-10.8c-4.2-6.9-8.4-13.7-12.7-20.8C221.5,239,232.2,236.2,243.3,234z"/>
	<path class="st11" d="M307.6,284.9c-5.2-3-10.8-5.5-16.8-6.8c-6.8-1.5-13.7-1.9-20.7-1.4c-1.3,0.1-1.9-0.3-2.5-1.4
		c-3.7-6.6-7.3-13.2-11.6-19.6c6.3-1.2,12.5-1.7,18.7-1.3c6,0.4,11.8,1.7,17.1,4.2c0.7,0.3,1.5,0.7,1.9,1.5
		c4.7,8.2,9.4,16.4,14.2,24.7C307.8,284.8,307.7,284.9,307.6,284.9z"/>
	<path class="st11" d="M61.2,190.9c3.9,0.8,7.7,1.6,11.4,2.4c9.4,2,18.9,3.8,28.6,3.5c0.5,0,1.2-0.1,1.5,0.6
		c3.4,6.3,6.8,12.5,10.8,18.8c-2,0.2-3.7,0.4-5.5,0.5c-11.1,0.4-21.9-0.8-32.7-3.6c-0.7-0.2-1.4-0.3-1.8-1
		c-4.2-6.9-8.3-13.7-12.5-20.6C61.1,191.2,61.2,191.1,61.2,190.9z"/>
	<path class="st11" d="M90.9,240.4c2.6,0.3,5.1,0.6,7.6,0.7c9.3,0.6,18.6,0.4,27.9-0.1c1-0.1,1.7,0.1,2.2,1.2
		c3.1,6.1,6.6,12.1,10.3,17.7c0.4,0.6,1,1.3-0.5,1.4c-9.8,0.8-19.4,1.8-29.3,1.2c-3.6-0.2-6.1-1.2-7.9-4.6
		c-2.7-5.5-6.2-10.5-9.3-15.7C91.7,241.7,91.3,241.1,90.9,240.4z"/>
	<path class="st12" d="M223.1,427c2.9,4.9,5.8,9.5,8.6,14.1c4.6,7.6,9.2,15.2,13.8,22.8c1.2,1.8,1.2,1.8-0.9,2.7
		c-8.2,3.8-16.5,7.6-24.7,11.4c-1.5,0.7-2,0.3-2.7-0.8c-10.9-16.3-21.8-32.4-32.7-48.7c-0.9-1.5-2-1.9-3.7-1.9
		c-41,0.1-81.9,0-123,0.1c-4.2,0-8.1-1-11.4-3.6c-2.2-1.7-3.5-3.9-3.4-6.8c0.1-5.6,0-11,0.1-16.6c0-1.7-0.5-1.9-2-1.9
		c-10.6,0.1-21.1,0-31.7,0.1c-1.4,0-1.8-0.2-1.8-1.7c0.1-25.8,0.1-51.6,0-77.4c0-1.4,0.3-1.7,1.7-1.7c10.6,0.1,21.2,0,31.9,0.1
		c1.6,0,1.9-0.4,1.9-2c-0.1-27,0-53.9,0-80.9c0-5.5,0.2-5.8,5.7-5.8c5.9,0,11.9,0,17.7,0c2.1,0,2.1,0,1.2-1.8
		c-9.8-17.7-19.5-35.4-29.4-53.1c-0.7-1.4-0.7-1.9,0.7-2.5c4.3-1.9,8.6-3.9,12.9-5.9c0.9-0.5,1.6-0.4,2.4,0.4
		c10.3,9.7,22.5,15.2,36.6,15.8c7.9,0.4,15.8,0.6,23.5-1.5c8.6-2.2,17.1-4.8,25.6-7.3c13.8-4,27.7-8.4,41.9-11
		c10.4-1.9,20.8-2.6,31.4-2.1c9.7,0.4,19.3,1,28.7,3c2.1,0.4,4.2,0.9,6.2,1.6c4.9,1.5,8.8,4.1,11.9,8.5c8.5,12.4,16.3,25.3,24,38.2
		c3.3,5.5,6.5,10.9,9.5,16.4c0.7,1.4,1.5,1.8,3,1.8c32.3-0.1,64.6,0,96.9,0c2.3,0,4.5,0.1,6.7,0.8c2.1,0.7,3.4,2.2,3.5,4.5
		c0.1,1,0.1,2,0.1,3c0,25.9,0,51.8,0,77.7c0,1.6,0.4,2,2,2c15.7-0.1,31.5,0,47.1-0.1c1.5,0,1.9,0.4,1.9,1.9c0,26-0.1,51.9,0,78
		c0,1.5-0.4,1.7-1.8,1.7c-16.3,0-32.5,0-48.7-0.1c-1.5,0-1.9,0.4-1.8,1.9c0.1,4.7,0.1,9.3,0,14.1c0,7.4-4.5,12.2-12.1,12.6
		c-0.9,0.1-1.9,0-2.8,0c-54.1,0-108.2,0-162.2,0C224.9,427,224.2,427,223.1,427z M143.5,325.1c-1.2,0-1.9-0.3-2.4-1.4
		c-1.2-2.1-2.5-4.2-3.8-6.3c-1.4-2.4-2.8-4.7-4.3-7.1c0.5,0,0.7-0.1,0.9,0c8.4,1.5,16.8,0.7,25.2-0.5c15.6-2.2,30.6-6.6,45.4-11.9
		c10.9-3.9,21.6-8,32.5-11.6c15.4-5.2,31.3-7.6,47.4-5.8c11.5,1.3,21.9,5.5,29.5,14.9c0.3,0.4,0.6,0.8,1.3,0.4
		c1.6-0.9,1.8-1.9,0.7-3.4c-0.4-0.6-0.7-1.3-1-1.8c-7.4-12.9-14.8-25.8-22.2-38.6c-14.1-24-28-48.2-42.9-71.6
		c-4-6.2-9.3-10.1-16.6-11.4c-10.4-2-21-1.6-31.4-0.2c-15.2,2.1-30,5.9-44.6,11.1c-14,5-27.8,10.6-42.6,12.5
		c-8.7,1.2-17.4,1.7-26.2,0.5c-8.1-1.2-16.1-3.1-24-4.5c-4.2-0.7-7.2-2.3-8.9-6.3c-0.5-1.4-1.3-3.5-2.5-3.7s-2.6,1.4-4,2
		c-1.3,0.6-1.3,1.2-0.6,2.4c7.2,11.9,14.4,23.7,21.5,35.6c23,38,46,76.1,68.9,114c0.6,1,0.9,2.1,0.9,3.4 M155.5,360.7
		c16.9,27.8,33.8,55.5,50.7,83.3c4.1,6.7,8.1,13.3,12.2,20c0.3,0.5,0.4,1.5,1.6,0.9c4.6-2.4,9.2-4.7,14.1-7.1
		c-19.8-33-42.7-71.1-62.5-104.4"/>
	<path class="st12" d="M147.6,402.9c-0.1-0.8,0.1-1.4,1.2-1.3c0.8,0.1,1.7,0.3,1.7,1.4c0,1.3-1,1.4-1.9,1.4
		C147.4,404.5,147.8,403.4,147.6,402.9z"/>
	<path d="M57.1,355.2c2.7-1,4.7-2.5,6.1-4.3c2.1-2.7,3-6,3-9.9c0-4.5-1.5-8.4-4.3-11.4s-7-4.6-12.5-4.6H17v64.6h30
		c1.3,0,3.9-0.3,7.8-0.9c2.9-0.4,5.1-1.2,6.6-2.1c2.3-1.6,4.2-3.7,5.6-6.3c1.4-2.7,2-5.7,2-9c0-4.1-0.9-7.6-2.8-10.3
		C64.2,358.2,61.2,356.3,57.1,355.2z M34.5,338h7.7c2.6,0,4.5,0.5,5.6,1.6c1,1,1.6,2.5,1.6,4.4c0,2-0.5,3.6-1.6,4.6
		s-2.9,1.6-5.7,1.6h-7.6C34.5,350.1,34.5,338,34.5,338z M49.7,373.9c-1.3,1.3-3.3,1.8-6.3,1.8h-8.8l0,0l0,0v-13.1h8.8
		c3,0,5.1,0.5,6.4,1.8c1.3,1.2,1.9,2.7,1.9,4.6C51.6,371,50.9,372.6,49.7,373.9z"/>
	<polygon points="366,347.5 346.3,347.5 346.3,324.9 328.3,324.9 328.3,389.6 346.3,389.6 346.3,363.4 366,363.4 366,389.6 
		384.1,389.6 384.1,324.9 366,324.9 	"/>
	<polygon points="414.1,373.6 414.1,324.9 395.2,324.9 395.2,389.6 443.4,389.6 443.4,373.6 	"/>
	<path d="M91.9,325l-23,64.6h19.3l2.9-10.7h21.5l3,10.7h19.7l-23-64.6H91.9z M108.7,364.9H95.2l6.7-23.3L108.7,364.9L108.7,364.9z"
		/>
	<path d="M139.8,325v64.6h18.3v-26.2l-0.1-1.9l16.5-0.2l0,0c4.3-0.2,12.1,0.2,14.9-1.4c4.2-2.2,3.6-12.1,3.6-17.1
		c0-6.6,0.3-12.8-3.6-15.6c-4-2.9-12.3-2.3-19.2-2.3h-18.9H140 M170.6,350.2c-2.4,0.5-4,0.8-4.8,0.8h-7.7v-13h8
		c3.4,0,5.6,0.5,6.8,1.7c1.2,1,1.8,2.7,1.8,4.8c0,1.5-0.4,2.7-1.2,3.8C172.8,349.3,171.7,349.9,170.6,350.2z"/>
	<path d="M249.9,334.1c-2.1-2.9-4.8-5.2-8.2-6.8c-3.4-1.6-7.6-2.4-12.9-2.4h-27l0,0v64.7h27c3.3,0,6.8-0.5,10.8-1.8
		c2.9-0.8,5.7-2.5,8.2-5.1c2.5-2.5,4.5-5.8,6-9.5c1.5-3.8,2.1-9.2,2.1-16.1c0-4.4-0.5-8.6-1.5-12.6
		C253.5,340.5,252.1,337,249.9,334.1z M236.4,368.6c-0.9,2.3-2.2,4-3.8,4.8c-1.6,0.9-4.3,1.4-8.1,1.4H220v-35.4l0,0l0,0h4.5
		c4.7,0,8.1,1.3,10.1,3.8s3,7.2,3,14.1C237.8,362.6,237.3,366.3,236.4,368.6z"/>
	<path d="M280.6,325l-23.1,64.6h19.4l2.9-10.7h21.6l3,10.7h19.9L301.4,325H280.6z M297.5,364.9H284l6.8-23.3L297.5,364.9
		L297.5,364.9z"/>
</g>
</svg>
