<?xml version="1.0" encoding="utf-8"?>
<!-- Generator: Adobe Illustrator 21.0.0, SVG Export Plug-In . SVG Version: 6.00 Build 0)  -->
<svg version="1.1" id="Layer_1" xmlns="http://www.w3.org/2000/svg" xmlns:xlink="http://www.w3.org/1999/xlink" x="0px" y="0px"
	 viewBox="0 0 794 826" style="enable-background:new 0 0 794 826;" xml:space="preserve">
<style type="text/css">
	.st0{display:none;}
	.st1{display:inline;fill:#020201;}
	.st2{display:inline;fill:#FEFEFE;}
	.st3{display:inline;fill:#FCD203;}
	.st4{display:inline;}
	.st5{display:inline;fill:#FFFFFF;}
	.st6{display:inline;fill:#CF4044;}
	.st7{fill:#EE3A43;}
	.st8{fill:#FFFFFF;}
	.st9{fill:#FFFFFF;stroke:#000000;stroke-width:2;stroke-miterlimit:10;}
</style>
<rect x="2.5" y="-1.7" class="st0" width="523" height="418.5"/>
<g class="st0">
	<path class="st1" d="M10.9,315.2c10.7,0,21.4,0,32.1,0.1c1.3,0,1.6-0.3,1.6-1.7c0-24.5,0-49.1,0-73.6c0-1.1,0.1-2.2,0.2-3.2
		c0.5-3.9,2.8-5.9,6.7-6c4.7-0.1,9.5,0,14.2,0c0.2-0.7-0.3-1.1-0.6-1.6c-9-16.2-17.9-32.4-26.9-48.5c-0.8-1.4-0.5-1.8,0.8-2.4
		c6.4-2.9,12.8-5.8,19.2-8.8c0.9-0.4,1.4-0.3,2.1,0.5c8.4,9,18.6,14.3,30.8,15.7c10.9,1.2,21.6,0.5,32.1-3
		c6.8-2.3,13.7-4.1,20.6-6.1c12.1-3.5,24.1-7.1,36.5-9.5c5.2-1,10.5-1.5,15.8-1.9c0.5,0,1.1,0.3,1.5-0.3c5.5,0,11.1,0,16.6,0
		c0.4,0.6,1,0.3,1.5,0.3c8.7,0.6,17.5,1.3,26,3.4c2.6,0.6,5.2,1.5,7.7,2.6c3.3,1.5,6.1,3.6,8.2,6.6c9.7,13.5,18,27.8,26.5,42.1
		c1.9,3.2,3.8,6.4,5.6,9.6c0.7,1.3,1.4,1.7,2.9,1.7c30-0.1,60,0,90,0c2.7,0,5.4,0.2,8,1.2c3.4,1.3,5.4,3.8,5.8,7.4
		c0.1,1.1,0.2,2.1,0.2,3.2c0,23.5,0,46.9,0,70.4c0,1.4,0.2,1.9,1.8,1.9c15.5-0.1,31-0.1,46.4-0.1c0,28.6,0,57.2,0,85.8
		c-15.9,0-31.8,0-47.6,0c-1.5,0-1.9,0.3-1.8,1.8c0.1,3.2,0,6.4,0,9.7c-0.1,8.9-6.2,15.2-15.1,15.6c-1,0.1-1.9,0.1-2.9,0.1
		c-49.3,0-98.6,0-147.8,0c-0.6,0-1.2,0-1.9,0c-0.1,0.8,0.5,1.2,0.8,1.7c6.4,10.5,12.7,21,19.2,31.5c0.6,1,0.7,1.5-0.6,2
		c-10.4,4.8-20.8,9.6-31.1,14.4c-1.4,0.7-2.1,0.4-3-0.9c-10.6-15.9-21.3-31.7-32-47.6c-0.7-1.1-1.5-1.5-2.8-1.5
		c-38.3,0-76.6,0-114.9,0.1c-5,0-9.6-1.1-13.7-4.1c-3.4-2.5-5.2-5.8-5.1-10.1c0.1-4,0-7.9,0.1-11.9c0-1.2-0.3-1.5-1.5-1.5
		c-10.7,0.1-21.5,0-32.2,0C10.9,371.9,10.9,343.5,10.9,315.2z M220.3,424.1c1,0,1.7,0,2.3,0c51.6,0,103.1,0,154.6,0
		c0.9,0,1.8,0,2.7,0c7.1-0.4,11.4-4.9,11.5-12c0-4.5,0.1-8.9,0-13.4c0-1.4,0.3-1.8,1.7-1.8c15.5,0.1,31,0,46.4,0.1
		c1.3,0,1.7-0.3,1.7-1.6c-0.1-24.8-0.1-49.5,0-74.3c0-1.4-0.3-1.8-1.8-1.8c-15,0.1-30,0-44.9,0.1c-1.5,0-1.9-0.4-1.9-1.9
		c0.1-24.7,0-49.4,0-74.1c0-1-0.1-1.9-0.1-2.9c-0.2-2.2-1.4-3.5-3.3-4.3c-2-0.8-4.2-0.8-6.4-0.8c-30.8,0-61.6,0-92.4,0
		c-1.4,0-2.2-0.4-2.9-1.7c-3-5.3-6-10.5-9.1-15.6c-7.4-12.3-14.7-24.6-22.9-36.4c-2.9-4.2-6.6-6.7-11.3-8.1
		c-1.9-0.6-3.9-1.1-5.9-1.5c-9-1.9-18.2-2.5-27.4-2.9c-10-0.4-20,0.2-29.9,2c-13.6,2.5-26.7,6.6-39.9,10.5c-8.1,2.3-16.2,4.8-24.4,7
		c-7.3,1.9-14.9,1.7-22.4,1.4c-13.6-0.7-25.1-5.9-34.9-15.1c-0.8-0.8-1.4-0.8-2.3-0.4c-4.1,1.9-8.2,3.8-12.3,5.6
		c-1.4,0.6-1.5,1.1-0.7,2.4c9.4,16.9,18.7,33.7,28.1,50.6c0.9,1.7,0.9,1.7-1.1,1.7c-5.6,0-11.3-0.1-16.9,0c-5.2,0-5.4,0.2-5.4,5.5
		c0,25.7,0,51.4,0,77.1c0,1.5-0.3,1.9-1.8,1.9c-10.1-0.1-20.2,0-30.4-0.1c-1.3,0-1.6,0.4-1.6,1.6c0,24.6,0,49.2,0,73.8
		c0,1.4,0.5,1.6,1.7,1.6c10.1-0.1,20.1,0,30.2-0.1c1.4,0,1.9,0.2,1.9,1.8c-0.1,5.3,0,10.5-0.1,15.8c-0.1,2.8,1.1,4.9,3.2,6.5
		c3.2,2.5,6.9,3.4,10.9,3.4c39.1,0,78.1,0,117.2-0.1c1.6,0,2.6,0.5,3.5,1.8c10.3,15.5,20.8,30.9,31.2,46.4c0.7,1.1,1.2,1.5,2.6,0.8
		c7.8-3.7,15.6-7.3,23.5-10.9c1.9-0.9,1.9-0.9,0.9-2.6c-4.4-7.2-8.8-14.5-13.2-21.7C225.8,433.1,223.1,428.7,220.3,424.1z"/>
	<path class="st1" d="M134.5,312.8c1.4,2.4,2.7,4.6,4.1,6.8c1.2,2,2.5,3.9,3.6,6c0.5,1,1.2,1.3,2.3,1.3c12.7,0,25.3,0,38-0.1
		c3.4,0,5.6,1.4,7,4.3c2.2,4.5,2.8,9.4,2.6,14.4c-0.2,4.8-0.5,9.7-1.9,14.4c-0.2,0.7-0.4,1.4-0.7,2.1c-1.3,3.2-2.4,4-5.9,4
		c-1.7,0-3.4,0-5.4,0c18.9,31.7,37.7,63.1,56.6,94.5c-4.5,2.3-9,4.5-13.4,6.8c-1,0.5-1.1-0.4-1.5-0.9c-3.9-6.4-7.7-12.7-11.6-19.1
		c-16.1-26.5-32.2-53-48.3-79.4c-0.3-0.5-0.4-1.1-1.2-1.3c0,5.9,0,11.7,0,17.5c0,1.4,0.5,3.3-0.2,4.1c-0.8,1-2.8,0.3-4.2,0.3
		c-3.9,0.1-7.8-0.1-11.7,0.1c-1.6,0.1-1.9-0.5-1.9-2c0.1-16.5,0-33,0.1-49.5c0-1.2-0.3-2.2-0.9-3.2c-21.9-36.2-43.8-72.4-65.7-108.6
		c-6.8-11.3-13.6-22.6-20.5-33.9c-0.7-1.1-0.6-1.7,0.6-2.3c1.3-0.6,2.7-2.1,3.8-1.9c1.2,0.2,1.8,2.2,2.4,3.5c1.6,3.9,4.4,5.3,8.5,6
		c7.7,1.3,15.2,3.3,22.9,4.3c8.4,1.1,16.7,0.6,25-0.5c14.2-1.8,27.4-7.1,40.6-11.9c13.8-5,28-8.5,42.5-10.6
		c9.9-1.4,19.9-1.7,29.9,0.2c6.9,1.3,12,5,15.8,10.9c14.3,22.4,27.6,45.3,40.9,68.2c7.1,12.2,14.2,24.5,21.2,36.8
		c0.3,0.6,0.7,1.2,1,1.7c1,1.5,0.8,2.3-0.7,3.2c-0.7,0.4-0.9-0.1-1.2-0.4c-7.2-9-17.1-13-28.1-14.2c-15.4-1.7-30.5,0.5-45.2,5.5
		c-10.4,3.5-20.7,7.5-31,11.1c-14.1,5-28.4,9.2-43.3,11.3c-8,1.1-15.9,1.9-24,0.5C135.1,312.8,134.9,312.8,134.5,312.8z
		 M300.8,288.7c0,0.2,0.1,0.3,0.3,0.2c0,0,0-0.2-0.1-0.4c-4.5-7.8-9-15.6-13.5-23.5c-0.4-0.7-1.1-1.1-1.8-1.4
		c-5.2-2.4-10.7-3.6-16.3-4c-5.9-0.4-11.8,0.2-17.8,1.2c4.1,6.1,7.6,12.4,11.1,18.7c0.6,1,1.2,1.4,2.4,1.3
		c6.6-0.4,13.2-0.1,19.7,1.3C290.5,283.5,295.8,285.8,300.8,288.7z M166.8,308c-4-7-7.9-13.6-12.2-20.3c11.5-2.6,22.8-5.1,33.9-8.9
		c-3.9-6.7-7.3-13.4-11.4-19.7c-0.7-1-0.6-1.4,0.6-1.8c5.8-1.8,11.6-3.8,17.4-5.5c4.4-1.4,8.9-2.5,13.4-3.8
		c-4.7-6.7-8.8-13.6-13.1-20.5c10.4-3.3,20.8-6.2,32-7.1c-1.6-2.5-3-4.7-4.3-6.9c-2.5-4.1-5.1-8.2-7.6-12.4c-1-1.6-0.9-1.6,1-1.8
		c1.1-0.1,2.3-0.1,3.4-0.2c6.7-0.5,13.3-0.6,20,0.5c3.3,0.5,6.6,1.3,10.3,2.3c-2.7-4.2-5.1-8-7.6-11.9c-2.7-4.3-6.6-7.1-11.5-8.3
		c-8.9-2.3-17.9-1.5-27.2-1.1c3.6,6.4,7.1,12.6,10.6,18.9c-10.7,1.2-20.9,3.5-30.8,7c-1,0.3-1.3,0-1.6-0.7
		c-3.4-5.7-6.6-11.4-9.7-17.3c-0.6-1-1.1-1.3-2.2-0.9c-9.5,3-18.8,6.6-28.2,9.8c-1,0.3-1,0.6-0.6,1.5c3.2,5.7,6.5,11.3,9.7,17
		c0.5,0.9,1,0.9,1.9,0.6c9.6-3,19.2-5.9,28.6-9.3c0.9-0.3,1.3-0.3,1.9,0.6c3.8,6.2,7.3,12.6,11.4,18.6c0.4,0.7,0.6,1-0.4,1.3
		c-9.8,2.8-19.3,6.4-29,9.7c-1.1,0.4-1.4,0.1-1.9-0.8c-3.3-5.5-6.6-11-10-16.5c-1.9-3.1-1.9-3-5.4-2c-7.3,2.1-14.7,3.9-22.2,4.6
		c-2.9,0.3-5.7,0.7-8.7,1c4.1,7.4,8.2,14.6,12.3,21.8c0.5,0.9,1.1,0.7,1.8,0.7c11-1.3,21.7-4.1,32-8.1c0.8-0.3,1.1-0.2,1.5,0.5
		c1.4,2.4,2.9,4.9,4.3,7.3c2.4,3.9,4.8,7.8,7.3,11.8c-0.4,0.2-0.7,0.3-0.9,0.4c-10.9,3.6-21.9,6.6-33.3,7.9c-1,0.1-1.2,0.4-0.6,1.2
		c1,1.4,2,2.9,2.9,4.4c3.4,5.3,6.8,10.6,10.3,16.1c-11.1,2-21.8,5.4-33.2,3.5c3.1,5.1,6.2,9.9,8.9,14.9c1.2,2.2,2.9,3.2,5.1,3.5
		c0.8,0.1,1.7,0.3,2.5,0.4C147.6,311.2,157.1,309.7,166.8,308z M239.5,240.2c-10.5,2-20.7,4.7-31,7.8c4.1,6.7,8.1,13.2,12.1,19.8
		c-10.3,3.2-20.4,6.6-30.5,10.3c-1.6,0.6-1.5,1.1-0.8,2.3c3.3,5.5,6.5,11.1,9.7,16.7c0.7,1.3,1.4,1.4,2.7,1
		c9.8-3.5,19.4-7.3,29.3-10.5c1.1-0.4,1-0.8,0.5-1.6c-3.4-5.6-6.8-11.3-10.2-16.9c-0.5-0.9-0.6-1.3,0.5-1.6
		c6.3-1.9,12.7-3.7,19.2-4.9c3.5-0.6,6.9-1.2,10.5-1.8C247.2,254.1,243.8,247,239.5,240.2c11.6-1.3,22.9-3,34.3,1.4
		c-0.6-1-0.8-1.5-1.1-2.1c-3-5.1-6.1-10.3-9.1-15.5c-0.7-1.3-1.6-2-3-2.5c-10.9-4.1-22-2.5-33.3-1.2
		C231.7,226.9,235.9,233.3,239.5,240.2z M66,199.1c0,0.2,0,0.4,0,0.5c4,6.5,8,13.1,11.9,19.6c0.4,0.7,1,0.9,1.7,1
		c10.2,2.6,20.6,3.8,31.2,3.4c1.7-0.1,3.3-0.3,5.2-0.5c-3.8-6-7.1-11.9-10.3-17.9c-0.4-0.7-0.9-0.6-1.4-0.6
		c-9.3,0.4-18.3-1.4-27.3-3.3C73.2,200.6,69.6,199.8,66,199.1z M94.3,246.3c0.4,0.7,0.7,1.2,1,1.8c3,5,6.3,9.8,8.9,15
		c1.7,3.3,4.1,4.2,7.5,4.4c9.3,0.6,18.6-0.3,27.9-1.1c1.4-0.1,0.9-0.7,0.5-1.3c-3.6-5.5-6.8-11.1-9.9-16.9c-0.5-1-1.1-1.2-2.1-1.1
		c-8.9,0.5-17.7,0.7-26.6,0.1C99.1,246.8,96.8,246.5,94.3,246.3z M159.3,346.8c0,1.7,0.1,3.4,0,5.1c-0.1,1.4,0.2,2,1.8,1.9
		c2.8-0.1,5.6-0.1,8.5,0c1.9,0.1,3.1-0.8,3.9-2.4c1.4-3.2,1.2-6.4-0.1-9.5c-0.5-1.3-1.6-2-3.1-2c-3.3,0-6.5,0.1-9.8,0
		c-0.9,0-1.1,0.3-1.1,1.2C159.4,343,159.3,344.9,159.3,346.8z"/>
	<path class="st2" d="M166.8,308c-9.7,1.7-19.1,3.2-28.8,2.1c-0.8-0.1-1.7-0.2-2.5-0.4c-2.3-0.4-3.9-1.3-5.1-3.5
		c-2.8-5-5.9-9.9-8.9-14.9c11.4,1.9,22.1-1.5,33.2-3.5c-3.5-5.5-6.9-10.8-10.3-16.1c-0.9-1.5-1.9-3-2.9-4.4
		c-0.6-0.9-0.4-1.1,0.6-1.2c11.4-1.3,22.5-4.3,33.3-7.9c0.3-0.1,0.5-0.2,0.9-0.4c-2.4-4-4.9-7.9-7.3-11.8c-1.5-2.4-2.9-4.8-4.3-7.3
		c-0.4-0.7-0.7-0.9-1.5-0.5c-10.3,4-21,6.7-32,8.1c-0.7,0.1-1.3,0.2-1.8-0.7c-4-7.2-8.1-14.4-12.3-21.8c3-0.3,5.9-0.8,8.7-1
		c7.6-0.7,14.9-2.5,22.2-4.6c3.5-1,3.5-1,5.4,2c3.4,5.5,6.7,11,10,16.5c0.5,0.9,0.9,1.2,1.9,0.8c9.6-3.3,19.2-6.9,29-9.7
		c1-0.3,0.8-0.6,0.4-1.3c-4-6-7.6-12.4-11.4-18.6c-0.6-0.9-1-0.9-1.9-0.6c-9.4,3.4-19,6.3-28.6,9.3c-0.9,0.3-1.4,0.2-1.9-0.6
		c-3.2-5.7-6.4-11.4-9.7-17c-0.5-0.9-0.4-1.1,0.6-1.5c9.4-3.2,18.7-6.9,28.2-9.8c1.2-0.4,1.7-0.2,2.2,0.9c3.1,5.8,6.3,11.6,9.7,17.3
		c0.4,0.7,0.7,1.1,1.6,0.7c9.9-3.5,20.1-5.8,30.8-7c-3.5-6.3-7-12.5-10.6-18.9c9.3-0.4,18.3-1.2,27.2,1.1c4.9,1.3,8.8,4,11.5,8.3
		c2.4,3.8,4.9,7.7,7.6,11.9c-3.7-1-7-1.8-10.3-2.3c-6.6-1.1-13.3-0.9-20-0.5c-1.1,0.1-2.3,0.2-3.4,0.2c-2,0.1-2,0.1-1,1.8
		c2.5,4.1,5.1,8.3,7.6,12.4c1.4,2.2,2.7,4.4,4.3,6.9c-11.1,0.9-21.6,3.8-32,7.1c4.3,6.9,8.4,13.9,13.1,20.5c-4.5,1.3-9,2.5-13.4,3.8
		c-5.8,1.8-11.6,3.7-17.4,5.5c-1.2,0.4-1.2,0.8-0.6,1.8c4.1,6.4,7.6,13.1,11.4,19.7c-11.1,3.8-22.4,6.3-33.9,8.9
		C158.9,294.3,162.8,301,166.8,308z"/>
	<path class="st2" d="M239.5,240.2c-3.6-7-7.8-13.4-12.2-20c11.4-1.3,22.4-2.8,33.3,1.2c1.4,0.5,2.3,1.3,3,2.5
		c3,5.2,6.1,10.3,9.1,15.5c0.3,0.5,0.6,1.1,1.1,2.1c-11.5-4.3-22.7-2.6-34.2-1.3c4.2,6.7,7.6,13.8,11.9,20.5
		c-3.6,0.6-7,1.2-10.5,1.8c-6.5,1.2-12.8,3-19.2,4.9c-1.1,0.3-1.1,0.7-0.5,1.6c3.4,5.6,6.8,11.3,10.2,16.9c0.5,0.8,0.7,1.2-0.5,1.6
		c-9.9,3.1-19.5,7-29.3,10.5c-1.3,0.5-2,0.3-2.7-1c-3.1-5.6-6.4-11.1-9.7-16.7c-0.7-1.2-0.8-1.7,0.8-2.3c10-3.7,20.2-7,30.5-10.3
		c-4-6.6-8-13.1-12.1-19.8C218.8,245,229,242.3,239.5,240.2z"/>
	<path class="st2" d="M300.8,288.7c-5-2.9-10.3-5.2-16-6.5c-6.5-1.4-13.1-1.8-19.7-1.3c-1.2,0.1-1.8-0.3-2.4-1.3
		c-3.5-6.3-7-12.6-11.1-18.7c6-1.1,11.9-1.6,17.8-1.2c5.7,0.4,11.2,1.6,16.3,4c0.7,0.3,1.4,0.7,1.8,1.4c4.5,7.8,9,15.6,13.5,23.5
		C301,288.6,300.9,288.7,300.8,288.7z"/>
	<path class="st2" d="M66,199.1c3.7,0.8,7.3,1.5,10.9,2.3c9,1.9,18,3.6,27.3,3.3c0.5,0,1.1-0.1,1.4,0.6c3.2,6,6.5,11.9,10.3,17.9
		c-1.9,0.2-3.5,0.4-5.2,0.5c-10.6,0.4-20.9-0.8-31.2-3.4c-0.7-0.2-1.3-0.3-1.7-1c-4-6.6-7.9-13.1-11.9-19.6
		C65.9,199.4,66,199.3,66,199.1z"/>
	<path class="st2" d="M94.3,246.3c2.5,0.3,4.9,0.6,7.2,0.7c8.9,0.6,17.7,0.4,26.6-0.1c1-0.1,1.6,0.1,2.1,1.1
		c3,5.8,6.3,11.5,9.8,16.9c0.4,0.6,1,1.2-0.5,1.3c-9.3,0.8-18.5,1.7-27.9,1.1c-3.4-0.2-5.8-1.1-7.5-4.4c-2.6-5.2-5.9-10-8.9-15
		C95,247.5,94.7,247,94.3,246.3z"/>
	<path class="st3" d="M220.3,424.2c2.8,4.7,5.5,9.1,8.2,13.4c4.4,7.2,8.8,14.5,13.2,21.7c1.1,1.7,1.1,1.7-0.9,2.6
		c-7.8,3.6-15.7,7.2-23.5,10.9c-1.4,0.7-1.9,0.3-2.6-0.8c-10.4-15.5-20.8-30.9-31.2-46.4c-0.9-1.4-1.9-1.8-3.5-1.8
		c-39.1,0.1-78.1,0-117.2,0.1c-4,0-7.7-1-10.9-3.4c-2.1-1.6-3.3-3.7-3.2-6.5c0.1-5.3,0-10.5,0.1-15.8c0-1.6-0.5-1.8-1.9-1.8
		c-10.1,0.1-20.1,0-30.2,0.1c-1.3,0-1.7-0.2-1.7-1.6c0.1-24.6,0.1-49.2,0-73.8c0-1.3,0.3-1.6,1.6-1.6c10.1,0.1,20.2,0,30.4,0.1
		c1.5,0,1.8-0.4,1.8-1.9c-0.1-25.7,0-51.4,0-77.1c0-5.2,0.2-5.5,5.4-5.5c5.6,0,11.3,0,16.9,0c2,0,2,0,1.1-1.7
		c-9.3-16.9-18.6-33.7-28-50.6c-0.7-1.3-0.7-1.8,0.7-2.4c4.1-1.8,8.2-3.7,12.3-5.6c0.9-0.5,1.5-0.4,2.3,0.4
		c9.8,9.2,21.4,14.5,34.9,15.1c7.5,0.4,15.1,0.6,22.4-1.4c8.2-2.1,16.3-4.6,24.4-7c13.2-3.8,26.4-8,39.9-10.5
		c9.9-1.8,19.8-2.5,29.9-2c9.2,0.4,18.4,1,27.4,2.9c2,0.4,4,0.9,5.9,1.5c4.7,1.4,8.4,3.9,11.3,8.1c8.1,11.8,15.5,24.1,22.9,36.4
		c3.1,5.2,6.2,10.4,9.1,15.6c0.7,1.3,1.4,1.7,2.9,1.7c30.8-0.1,61.6,0,92.4,0c2.2,0,4.3,0.1,6.4,0.8c2,0.7,3.2,2.1,3.3,4.3
		c0.1,1,0.1,1.9,0.1,2.9c0,24.7,0,49.4,0,74.1c0,1.5,0.4,1.9,1.9,1.9c15-0.1,30,0,44.9-0.1c1.4,0,1.8,0.4,1.8,1.8
		c0,24.8-0.1,49.5,0,74.3c0,1.4-0.4,1.6-1.7,1.6c-15.5,0-31,0-46.4-0.1c-1.4,0-1.8,0.4-1.7,1.8c0.1,4.5,0.1,8.9,0,13.4
		c0,7.1-4.3,11.6-11.5,12c-0.9,0.1-1.8,0-2.7,0c-51.6,0-103.1,0-154.6,0C222,424.2,221.3,424.2,220.3,424.2z M144.4,327
		c-1.1,0-1.8-0.3-2.3-1.3c-1.1-2-2.4-4-3.6-6c-1.3-2.3-2.7-4.5-4.1-6.8c0.5,0,0.7-0.1,0.9,0c8,1.4,16,0.7,24-0.5
		c14.9-2.1,29.2-6.3,43.3-11.3c10.4-3.7,20.6-7.6,31-11.1c14.7-5,29.8-7.2,45.2-5.5c11,1.2,20.9,5.2,28.1,14.2
		c0.3,0.4,0.6,0.8,1.2,0.4c1.5-0.9,1.7-1.8,0.7-3.2c-0.4-0.6-0.7-1.2-1-1.7c-7.1-12.3-14.1-24.6-21.2-36.8
		c-13.4-22.9-26.7-45.9-40.9-68.2c-3.8-5.9-8.9-9.6-15.8-10.9c-9.9-1.9-20-1.5-29.9-0.2c-14.5,2-28.6,5.6-42.5,10.6
		c-13.3,4.8-26.5,10.1-40.6,11.9c-8.3,1.1-16.6,1.6-25,0.5c-7.7-1.1-15.3-3-22.9-4.3c-4-0.7-6.9-2.2-8.5-6c-0.5-1.3-1.2-3.3-2.4-3.5
		c-1.1-0.2-2.5,1.3-3.8,1.9c-1.2,0.6-1.2,1.1-0.6,2.3c6.9,11.3,13.7,22.6,20.5,33.9c21.9,36.2,43.8,72.5,65.7,108.7
		c0.6,1,0.9,2,0.9,3.2 M155.9,361c16.1,26.5,32.2,52.9,48.3,79.4c3.9,6.4,7.7,12.7,11.6,19.1c0.3,0.5,0.4,1.4,1.5,0.9
		c4.4-2.3,8.8-4.5,13.4-6.8c-18.9-31.5-40.7-67.8-59.6-99.5"/>
	<path class="st3" d="M148.3,401.2c-0.1-0.8,0.1-1.3,1.1-1.2c0.8,0.1,1.6,0.3,1.6,1.3c0,1.2-1,1.3-1.8,1.3
		C148.1,402.7,148.5,401.7,148.3,401.2z"/>
	<path class="st4" d="M62.1,355.7c2.6-1,4.5-2.4,5.8-4.1c2-2.6,2.9-5.7,2.9-9.4c0-4.3-1.4-8-4.1-10.9c-2.7-2.9-6.7-4.4-11.9-4.4h-31
		v61.6h28.6c1.2,0,3.7-0.3,7.4-0.9c2.8-0.4,4.9-1.1,6.3-2c2.2-1.5,4-3.5,5.3-6c1.3-2.6,1.9-5.4,1.9-8.6c0-3.9-0.9-7.2-2.7-9.8
		C68.8,358.6,66,356.8,62.1,355.7z M40.5,339.3h7.3c2.5,0,4.3,0.5,5.3,1.5c1,1,1.5,2.4,1.5,4.2c0,1.9-0.5,3.4-1.5,4.4
		c-1,1-2.8,1.5-5.4,1.5h-7.2V339.3z M55,373.5c-1.2,1.2-3.1,1.7-6,1.7h-8.4l0,0l0,0v-12.5h8.4c2.9,0,4.9,0.5,6.1,1.7
		c1.2,1.1,1.8,2.6,1.8,4.4C56.8,370.8,56.2,372.3,55,373.5z"/>
	<polygon class="st4" points="356.5,348.4 337.7,348.4 337.7,326.8 320.6,326.8 320.6,388.5 337.7,388.5 337.7,363.5 356.5,363.5 
		356.5,388.5 373.7,388.5 373.7,326.8 356.5,326.8 	"/>
	<polygon class="st4" points="402.3,373.3 402.3,326.8 384.3,326.8 384.3,388.5 430.3,388.5 430.3,373.3 	"/>
	<path class="st4" d="M95.2,326.9l-21.9,61.6h18.4l2.8-10.2H115l2.9,10.2h18.8l-21.9-61.6H95.2z M111.2,365H98.4l6.4-22.2L111.2,365
		L111.2,365z"/>
	<path class="st4" d="M140.9,326.9v61.6h17.4v-25.1l-0.1-1.8l15.7-0.2l0,0c4.1-0.2,11.5,0.2,14.2-1.3c4-2.1,3.4-11.5,3.4-16.3
		c0-6.3,0.3-12.2-3.4-14.9c-3.8-2.8-11.7-2.2-18.3-2.2h-18l-10.8,0 M170.2,351c-2.3,0.5-3.8,0.8-4.6,0.8h-7.3v-12.5h7.6
		c3.2,0,5.3,0.5,6.5,1.6c1.1,1,1.7,2.6,1.7,4.6c0,1.4-0.4,2.6-1.1,3.6C172.3,350.1,171.3,350.7,170.2,351z"/>
	<path class="st4" d="M245.8,335.6c-2-2.8-4.6-5-7.8-6.5s-7.2-2.3-12.3-2.3h-25.7l0,0v61.8h25.7c3.1,0,6.5-0.5,10.3-1.7
		c2.8-0.8,5.4-2.4,7.8-4.9c2.4-2.4,4.3-5.5,5.7-9.1c1.4-3.6,2-8.8,2-15.3c0-4.2-0.5-8.2-1.4-12C249.3,341.7,247.9,338.4,245.8,335.6
		z M233,368.5c-0.9,2.2-2.1,3.8-3.6,4.6c-1.5,0.9-4.1,1.3-7.7,1.3h-4.3v-33.7l0,0l0,0h4.3c4.5,0,7.7,1.2,9.6,3.6
		c1.9,2.4,2.9,6.9,2.9,13.4C234.3,362.8,233.8,366.3,233,368.5z"/>
	<path class="st4" d="M275.1,326.9l-22,61.6h18.5l2.8-10.2H295l2.9,10.2h19l-22-61.6H275.1z M291.2,365h-12.9l6.5-22.2L291.2,365
		L291.2,365z"/>
</g>
<g class="st0">
	<path class="st5" d="M224.9,491.1c17.8-23.7,42.6-28.5,73.3-31.4c36.3-3.4,52.5-7.2,73.3-30.3c13-14.5,22.1-38,22.1-59.4
		c0-14.9-0.8-27.2-8.1-48.5c-15.8-45.7-20.8-62.8,15.5-104.7l-75.6-75.6c-16.3,13.6-51.6,37.2-100.5-1.5
		c-49.3,39.2-83.4,14.7-100.5,1.5l-75.6,75.7c36.1,41.9,32.7,59.2,15.5,104.7c-7.8,20.6-8.1,34.1-8.1,48.5
		c0,21.4,8.3,44.8,22.1,59.4c21.5,22.7,37.6,26.8,73.3,30.3C183.4,462.8,207,467.8,224.9,491.1L224.9,491.1z"/>
	<path class="st4" d="M224.9,481.8c18.2-20.6,45.8-25.1,73.7-27.9c34.9-3.5,48.5-7.1,67.9-27.9c12.5-13.5,21-34.5,21-55.9
		c0-14.3-2.3-31.7-8.9-49.6c-18.1-48.9-14-69,14.4-103.2L324.6,149c0,0-43.8,40.7-99.7-2.3c-55.5,43.1-99.7,2.3-99.7,2.3l-68.3,68.3
		c29.1,34.1,33.2,54.7,14.4,103.2c-7,18-8.9,35.3-8.9,49.6c0,20.9,8.3,43,21,55.9c20,20.4,33.1,24.1,67.9,27.9
		C179.1,457,206.7,461.2,224.9,481.8L224.9,481.8z"/>
	<path class="st5" d="M224.9,465.1c28.3-18.2,42.7-17.8,71.8-22.1c25.2-3.7,41.8-5.7,60.1-24c26-26,23.5-62.9,7.8-104.7
		c-18.2-48.5-2.1-76.8,13.2-96.2l-54.3-54.3c0,0-42.7,33.7-98.5-2.7c-55.9,36.5-98.5,2.7-98.5,2.7L72,218
		c15.2,19.4,31.8,47.3,13.2,96.2c-16,42-17.8,78.7,7.8,104.7c18.2,18.5,34.6,20.4,60.1,24C183,447.3,196.6,446.9,224.9,465.1z"/>
	<path class="st6" d="M224.9,447.7c30.7-17,49.4-15.3,83.8-20.6c73.3-11.2,49.6-85,49.6-85c0.4-7-18.2-41.1-15.9-75.3H107.4
		c2.7,33.7-15.5,68.3-15.9,75.3c0,0-23.3,73.3,49.6,85C177.8,433,194.2,430.7,224.9,447.7z"/>
	<g class="st4">
		<rect x="185.3" y="201.2" width="9.9" height="48.9"/>
		<polygon points="165.9,220.6 156.4,220.6 156.4,201.2 147.3,201.2 147.3,250.1 156.4,250.1 156.4,229.2 165.9,229.2 165.9,250.1 
			175.4,250.1 175.4,201.2 165.9,201.2 		"/>
		<path d="M123,201h-9.9v49.3h9.9v-16.1c2.8-0.1,18.9,1.6,19.3-15.8C142.8,199.2,126.4,201,123,201z M123,226.1v-17.6
			c2,0,10.1-1.1,10.2,8.7C133.2,228.1,124.5,226.1,123,226.1z"/>
		<path d="M338.3,237.5c-0.2-5.5-3.6-10.5-8.7-13.6c-5.6-3.5-12.4-7.4-12.5-11.1c-0.1-6.7,10.5-8.3,10.5,2.5h9.7
			c0.2-6.9-0.8-15.7-14.8-15.7S308,210.2,308,213c-0.2,10.2,7.7,13.3,14.7,17.5c6.2,3.7,5.5,7.4,5.5,7.4c-0.1,7.8-11.3,9.3-11.3-2.7
			h-9.3c0,5.9,1.2,16.2,15.1,16.2C336.2,251.3,338.4,242.3,338.3,237.5z"/>
		<polygon points="214.9,201.1 205.1,201.1 205.1,250 225.6,250 225.6,242.4 214.9,242.4 		"/>
		<path d="M285.4,201h-9.9v49.3h9.9v-16.1c2.8-0.1,18.9,1.6,19.3-15.8C305.1,199.2,288.8,201,285.4,201z M285.4,226.1v-17.6
			c2,0,10.1-1.1,10.2,8.7C295.6,228.1,286.8,226.1,285.4,226.1z"/>
		<polygon points="240.4,201.2 230.5,201.2 230.5,250.1 251.1,250.1 251.1,242.5 240.4,242.5 		"/>
		<rect x="255.9" y="201.2" width="9.9" height="48.8"/>
	</g>
	<path class="st5" d="M321.7,319.9c1.7-5-0.7-22.2-17.8-27.9c-32-10.7-56.4,6-69,41.3c-3.9,11-7.7,23-8.3,33.8
		c-0.7,13.4,3.4,25.1,18.2,30.8c16.8,6.4,45.2,3.9,58.2-17.5c2.5-4.2,4.6-8.7,6.2-13.3c5.2-15.3,4.4-32.1-11.5-37.8
		c-18.3-6.6-30,3.2-30,3.2s7.9-26,20.1-26c8,0,6.2,11.4,6.2,11.4L321.7,319.9L321.7,319.9z M274.5,344.1c9.3,1.9,6.1,14.2,2.9,23
		c0,0,0,0.1,0,0.1c-3.3,8.9-9.8,18.5-17.9,16.3c-5.3-1.4-5.3-9-3.4-16.4c0.7-2.9,1.7-5.7,2.9-8.4
		C262.4,350.9,267.6,342.7,274.5,344.1L274.5,344.1z M201.6,291.9c-33-10.9-56.6,6.8-69,41.3c-3.9,11-7.7,23-8.3,33.8
		c-0.7,13.4,3.4,25.1,18.2,30.8c16.8,6.4,45.2,3.9,58.2-17.5c2.5-4.2,4.6-8.7,6.2-13.3c5.2-15.3,4.4-32.1-11.5-37.8
		c-18.3-6.6-30,3.2-30,3.2s7.9-26,20.1-26c8,0,6.2,11.4,6.2,11.4l27.7,2C221.1,314.9,218.7,297.6,201.6,291.9z M172.3,344.1
		c9.3,1.9,6.1,14.2,2.9,23l0,0.1c-3.3,8.9-9.8,18.5-17.9,16.3c-5.3-1.4-5.2-9-3.2-16.4c0.8-2.9,1.8-5.7,3-8.4
		C160.4,350.9,165.4,342.7,172.3,344.1L172.3,344.1z"/>
</g>
<g>
	<path class="st7" d="M178.5,365.4c38.3,0,69.1-31.3,69.1-69.8c0-38.7-30.9-70-69.1-70c-38,0-68.9,31.3-68.9,70
		C109.6,334.1,140.5,365.4,178.5,365.4L178.5,365.4z"/>
	<path class="st8" d="M202.9,302.1L175,284.9c-6-3.7-12.9,2.6-12.4,3.4l-20.8-32.5c-0.6-0.9-0.9-2-0.9-3.1c0-5.5,7.1-6.9,10-2.6
		l20.5,30.2c1.3,2,3.1,3.1,4.9,3.1c2.2,0,4-1.8,4-4c0-0.5-0.1-1.1-0.3-1.5l-11.8-32.3c-2.5-6.6,7.4-10.6,10-4L202.9,302.1z"/>
	<path class="st8" d="M204.1,304.8l2.8,3.8c0.4,1.4,0.9,3.2,0.4,4.6l5.5,14.3c-2,3.5-7.4,7.8-12.5,7c-10.4-1.6-14.3-14.9-14.3-23.1
		v-0.9l-0.8-0.5l-6.1-3.7l-2.8-1.7l-9.6-5.8c-0.9-0.6-1.7-1.3-2.3-2.2c-1.6-2.4-1.5-5.4,0-7.8c1.4-2.1,3.7-3.4,6.2-3.4
		c1.3,0,2.6,0.3,3.7,1.1L204.1,304.8L204.1,304.8z"/>
	<path class="st8" d="M177.7,307.3c0.1,0.4,0.2,0.8,0.2,1.2c0,1.1-0.3,2.3-0.9,3.3c-1.2,1.8-3.2,2.9-5.3,2.9l-3.3-1.1l-20.5-13.5
		c-2.8-1.9-3.6-5.7-1.7-8.5c1.1-1.7,3-2.8,5.1-2.8c1.2,0,2.3,0.3,3.3,1l7.5,5c0.7,1.9,1.8,3.9,3.8,5.3l8,4.7l2.2,1.3L177.7,307.3z
		 M163.4,329.2l-18.9-12.5c-2.7-1.8-3.5-5.5-1.7-8.3c1.8-2.8,5.5-3.9,8.4-2l20.5,13.7c2.8,1.9,3.8,5.6,2,8.5
		C171.3,332.3,166.6,331.3,163.4,329.2L163.4,329.2z"/>
	<path class="st8" d="M179.7,308.5l4.9,2.9c0.2,10.4,2.7,14,5.1,18c1.1,2.3,3.3,3.9,5,5.1c-2.8,2.9-7.7,6.9-12.6,10
		c-1.1,0.8-2.4,1.1-3.8,1.1c-4.2,0-10.9-8.1-10.9-8.3c-0.9-1.1-1.6-2.9-2-5c3.6,1.6,7.6,0.7,9.8-2.7c2.2-3.6,1.1-8.6-2.4-10.8
		l-3.1-2.3v-0.4c3.3,0.9,6.9-0.2,8.9-3.4C179.4,311.4,179.9,309.8,179.7,308.5L179.7,308.5z"/>
	<path class="st9" d="M345.1,258.7c-13.9,0-23.5,9.7-23.5,25.8c0,16.8,10.5,25.8,24.6,25.8c9.6,0,19-5.2,21.5-16.5h-14.5
		c-1.6,3.2-3.8,4.3-7.2,4.3c-6.3,0-9.4-3.9-9.4-10.6h31.8v-1.8C368.4,269.1,359.9,258.7,345.1,258.7z M336.8,277.5
		c0.9-5,4.5-7.7,9-7.7c4,0,7.8,2.9,8.5,7.7H336.8z"/>
	<g>
		<polygon class="st9" points="293.6,271.2 318.5,237.7 298.3,237.7 278.7,266.9 278.4,266.9 278.4,237.7 262.3,237.7 262.3,308.8 
			278.4,308.8 278.4,278 278.7,278 299.7,308.8 320.7,308.8 		"/>
		<path class="st9" d="M461.9,303.3v5.4h15v-78.4h-15v34.7c-3.1-4.3-8.3-6.3-13.2-6.3c-12.5,0-21.3,11.8-21.3,25.8
			c0,13.8,9,25.8,21.5,25.8c4.9,0,10.1-2.3,12.8-7L461.9,303.3L461.9,303.3L461.9,303.3z M452.7,295.4c-6.3,0-9.8-4.8-9.8-10.9
			c0-5.9,3.6-10.9,9.8-10.9c6,0,9.6,5,9.6,10.9C462.3,290.7,458.8,295.4,452.7,295.4z"/>
		<path class="st9" d="M532.8,308.8v-48.5h-15v4.8c-3.1-4.3-8.3-6.3-13.2-6.3c-12.5,0-21.3,11.8-21.3,25.8
			c0,13.8,8.7,25.8,21.5,25.8c4.9,0,10.1-2.3,12.8-7h0.2v5.4H532.8z M508.7,295.4c-6.3,0-9.8-4.8-9.8-10.9c0-5.9,3.6-10.9,9.8-10.9
			c6,0,9.6,5,9.6,10.9C518.3,290.7,514.7,295.4,508.7,295.4z"/>
		<polygon class="st9" points="331.2,326.5 325,344.2 319.1,326.5 311.5,326.5 306.6,359.8 314.2,359.8 316.7,340.6 323.4,359.8 
			326.3,359.8 333.5,340.6 335.5,359.8 343.1,359.8 338.8,326.5 		"/>
		<path class="st9" d="M415.8,325.4c-8.3,0-16.1,7-16.1,17.2c0,10.6,6.9,18.1,16.1,18.1c9.4,0,16.1-7.5,16.1-18.1
			C431.9,332.4,424.3,325.4,415.8,325.4z M415.8,352.3c-4.5,0-8.1-4.1-8.1-9.7c0-4.8,3.6-8.8,8.1-8.8c4.7,0,8.3,4.1,8.3,8.8
			C424.1,348.2,420.5,352.3,415.8,352.3z"/>
		<path class="st9" d="M390.3,283.6c0-6.1,1.8-11.3,7.8-11.3c7.4,0,6.7,8.2,6.7,12.9v23.6h15.2v-29.9c0-12-4.7-20.2-16.1-20.2
			c-5.8,0-10.1,2-13.4,7.9h-0.2v-6.3h-15.2v48.5h15.2V283.6z"/>
		<path class="st9" d="M489.6,325.4c-8.3,0-16.1,7-16.1,17.2c0,10.6,6.7,18.1,16.1,18.1c9.4,0,16.1-7.5,16.1-18.1
			C505.8,332.4,498.2,325.4,489.6,325.4z M489.6,352.3c-4.5,0-8.3-4.1-8.3-9.7c0-4.8,3.8-8.8,8.3-8.8c4.5,0,8.3,4.1,8.3,8.8
			C497.9,348.2,494.1,352.3,489.6,352.3z"/>
		<path class="st9" d="M361,325.4c-8.3,0-16.1,7-16.1,17.2c0,10.6,6.7,18.1,16.1,18.1c9.4,0,16.1-7.5,16.1-18.1
			C377.1,332.4,369.5,325.4,361,325.4z M361,352.3c-4.5,0-8.3-4.1-8.3-9.7c0-4.8,3.8-8.8,8.3-8.8c4.5,0,8.3,4.1,8.3,8.8
			C369.3,348.2,365.5,352.3,361,352.3z"/>
		<path class="st9" d="M457,336.7c0-7-4.5-10.2-10.1-10.2h-11.4v33.3h7.6v-12.9l7.2,12.9h9.4l-9.2-13.8
			C454.8,345.3,457,341.2,457,336.7z M443.8,341.5h-0.7v-8.4h0.7c2.5,0,5.4,0.4,5.4,4.1S446.3,341.5,443.8,341.5z"/>
		<rect x="567.8" y="230.4" class="st9" width="15.2" height="78.4"/>
		<rect x="542.9" y="230.4" class="st9" width="15" height="78.4"/>
		<rect x="509.3" y="326.5" class="st9" width="7.6" height="33.3"/>
		<polygon class="st9" points="529.5,326.5 521.9,326.5 521.9,359.8 538.4,359.8 538.4,352.3 529.5,352.3 		"/>
		<polygon class="st9" points="378.4,333.8 384.7,333.8 384.7,359.8 392.3,359.8 392.3,333.8 398.6,333.8 398.6,326.5 378.4,326.5 
					"/>
	</g>
</g>
<image style="display:none;overflow:visible;" width="794" height="826" xlink:href="../../../Volumes/FreeAgent/WebSite-MAMP/1montues.com/assets/humans/ryan_veronica.png" >
</image>
</svg>
