<?xml version="1.0" encoding="utf-8"?>
<!-- Generator: Adobe Illustrator 21.0.0, SVG Export Plug-In . SVG Version: 6.00 Build 0)  -->
<svg version="1.1" id="Layer_1" xmlns="http://www.w3.org/2000/svg" xmlns:xlink="http://www.w3.org/1999/xlink" x="0px" y="0px"
	 viewBox="0 0 523 837" style="enable-background:new 0 0 523 837;" xml:space="preserve">
<style type="text/css">
	.st0{display:none;}
	.st1{display:inline;fill:#D60026;stroke:#D60026;stroke-width:9.375000e-02;stroke-miterlimit:10;}
	.st2{display:inline;fill:#FFFFFF;stroke:#FFFFFF;stroke-width:9.375000e-02;stroke-miterlimit:10;}
	.st3{display:inline;stroke:#000000;stroke-width:9.375000e-02;stroke-miterlimit:10;}
	.st4{display:inline;fill:#EE3A43;}
	.st5{display:inline;fill:#FFFFFF;}
	.st6{display:inline;fill:#FFFFFF;stroke:#000000;stroke-width:2;stroke-miterlimit:10;}
	.st7{display:inline;}
	.st8{fill:#FFFFFF;stroke:#000000;stroke-width:2;stroke-miterlimit:10;}
	.st9{display:inline;fill:#020201;}
	.st10{display:inline;fill:#FEFEFE;}
	.st11{display:inline;fill:#FCD203;}
	.st12{fill:#FFFFFF;}
	.st13{fill:#CF4044;}
</style>
<rect x="2.5" y="3.8" class="st0" width="523" height="418.5"/>
<g class="st0">
	<path class="st1" d="M115.8,227.3c101.8,0,203.7,0,305.5,0c-6.9,18.4-14,36.6-21,55c-5.9,15.4-11.9,30.9-17.8,46.3
		c-0.2,0.5-0.4,1.1-0.6,1.6c-1,2.6-2.1,5.2-3,7.8c-55.9,0.1-111.7,0-167.6,0.1c-0.4-0.1-1.2-0.1-1.6-0.1
		c-21.8-0.2-43.6-0.1-65.4-0.1c-23.7,0-47.3,0.1-70.9,0c7-17.9,13.7-35.9,20.7-53.8C101.3,265.2,108.6,246.3,115.8,227.3
		L115.8,227.3z"/>
	<path class="st2" d="M127.9,250c6.1-0.1,12.3-0.1,18.4-0.1c2.4,0,5.2,0.2,6.9,2.2c1.5,1.6,1.2,3.9,0.5,5.8
		c-1.2,3.2-2.5,6.2-3.7,9.3c-1.1,2.9-2,6-4.3,8.2c-1.4,1.5-3.2,2.3-5,3.1c1.1,1.1,2.4,2.2,2.8,3.7c0.3,1.3-0.4,2.6-0.9,3.8
		c-2.4,5.9-4.6,11.8-6.9,17.7c-1.2,3.1-3.4,5.8-6.5,7c-2.3,0.8-4.7,0.6-7.1,0.6c-6-0.1-12.1,0.1-18-0.1
		C112,290.9,120,270.5,127.9,250L127.9,250z"/>
	<path class="st2" d="M177.5,250c2.2-0.1,4.3-0.1,6.4,0c-2.9,20.4-5.9,40.9-8.9,61.3c-3,0-6,0-9,0c0.9-4.6,1.8-9.1,2.5-13.8
		c-3,0.1-6-0.3-9,0.1c-0.9,0.7-1.4,1.7-1.9,2.7c-2,3.7-4.1,7.3-6.1,11c-3.1-0.1-6.1,0.1-9.2-0.1c2.3-4.5,5-8.8,7.5-13.2
		C159,282,168.2,266,177.5,250L177.5,250z"/>
	<path class="st2" d="M206.3,250.1c2.8-0.1,5.5-0.2,8.3-0.1c-6.8,18-13.8,36-20.5,54.1c4.6,0,9.2-0.1,13.9,0.1
		c-0.8,2.5-1.8,4.9-2.8,7.3c-7.5-0.1-15.1,0-22.6-0.1C190.5,290.9,198.5,270.5,206.3,250.1L206.3,250.1z"/>
	<path class="st2" d="M236.2,250c6.7-0.1,13.5-0.1,20.2-0.1c2,0.1,4.3,0.1,5.8,1.7c1.2,1.2,0.7,3.1,0.2,4.5
		c-5.9,15.5-11.9,31-17.7,46.5c-1,2.4-1.6,5.2-3.8,6.7c-2.9,2-6.7,2.1-10.1,2.1c-6-0.1-12.1,0.1-18.1-0.1
		C220.4,290.8,228.3,270.4,236.2,250L236.2,250z"/>
	<path class="st2" d="M271.5,250c3.1-0.1,6.3-0.1,9.4,0c-1,7.2-2.1,14.4-3,21.6c-0.5,3.5-1.1,6.9-1.3,10.3c1.7-2,3-4.2,4.3-6.5
		c5-8.5,10.2-16.9,15.3-25.4c2.4-0.1,4.9-0.1,7.3,0c-1.1,7.5-2.1,15-3.2,22.5c-0.5,3.6-1.2,7.1-1.3,10.8c1.7-2.2,3-4.5,4.3-6.9
		c5.1-8.8,10.3-17.5,15.4-26.4c3.2-0.1,6.3-0.1,9.5,0.1c-10.7,19.2-21.8,38.2-32.5,57.4c-1,1.5-1.6,4-3.7,3.9c-2,0.2-4,0.1-6,0
		c1-11.2,3-22.2,3.8-33.4c-1.6,2-2.8,4.3-4.1,6.5c-4.7,8.2-9.5,16.3-14.2,24.5c-0.6,0.8-1,1.7-1.8,2.3c-2.3,0.4-4.7,0.1-7,0.1
		C265.6,290.9,268.7,270.5,271.5,250L271.5,250z"/>
	<path class="st2" d="M337.8,250c2.8-0.1,5.5-0.1,8.2,0c-7.9,20.4-15.4,40.9-23.3,61.3c-3,0-5.9,0-8.8-0.1
		C321.8,290.8,329.9,270.5,337.8,250L337.8,250z"/>
	<path class="st2" d="M359.9,250c2.6-0.1,5.3-0.1,7.9,0c0.2,7,0.2,14,0.4,21.1c0.1,3.9-0.1,7.8,0.5,11.7c1.7-2.8,2.7-6,3.9-9
		c2.7-7,5.5-14,8.1-21c0.4-0.9,0.8-1.9,1.4-2.6c2.8-0.4,5.6-0.1,8.4-0.1c-7.8,20.4-15.8,40.8-23.8,61.2c-2.7,0.1-5.3,0.1-8,0.1
		c-0.1-7,0.1-14.1-0.2-21.2c-0.1-3.8,0.2-7.6-0.2-11.4c-0.6,1-1.1,1.9-1.6,2.9c-3.9,9.9-7.7,19.7-11.7,29.6c-3,0.1-6,0.1-8.9,0.1
		C344.1,290.9,352,270.4,359.9,250L359.9,250z"/>
	<path class="st1" d="M133,258.1c2.6,0,5.2-0.2,7.8-0.1c1,0.1,2,0.1,2.8,0.7c0.5,1.8-0.5,3.5-1,5.1c-1.1,2.5-1.9,5.1-3,7.6
		c-0.5,1.3-1.5,2.5-3,2.5c-3.2,0.2-6.4,0-9.7,0C128.8,268.6,131.1,263.4,133,258.1L133,258.1z"/>
	<path class="st1" d="M241.8,259.1c3,0,6-0.3,8.9,0c0.8-0.1,1.2,0.9,1.1,1.5c-0.1,2.3-1.2,4.4-2,6.5c-4.1,10.5-8.2,21-12.3,31.4
		c-0.7,1.8-1.9,3.8-3.9,4.2c-2.9,0.6-5.8,0.2-8.7,0.2C230.4,288.1,236.3,273.7,241.8,259.1L241.8,259.1z"/>
	<path class="st1" d="M164,288.1c3-5.1,5.6-10.4,9-15.2c-0.4,5.1-1.8,10.1-2.6,15.2C168.2,288.1,166.1,288.1,164,288.1L164,288.1z"
		/>
	<path class="st1" d="M123.4,283.3c3.5,0.1,7-0.5,10.5,0.4c0.8,1.3,0,2.8-0.5,4.1c-1.7,4-3.3,8.1-4.9,12.2c-0.7,2-2.3,3.8-4.5,4.1
		c-2.9,0.4-5.9,0.1-8.8,0.1C117.8,297.1,120.7,290.2,123.4,283.3L123.4,283.3z"/>
	<path class="st3" d="M381.8,330.2c0.2-0.5,0.4-1.1,0.6-1.6c22-0.1,44-0.1,66,0c-9.3,25.9-18.8,51.8-28.2,77.7
		c-78.4,0-156.9,0.1-235.3,0c8.2-22.8,16.4-45.6,24.8-68.3c0.4,0,1.2,0,1.6,0.1c-7.9,22.3-16.1,44.4-24.1,66.7
		c77.3,0.1,154.5-0.1,231.9,0c8.9-24.8,18-49.6,27-74.5C424.7,330.1,403.3,330.2,381.8,330.2L381.8,330.2z"/>
	<path class="st2" d="M378.8,338c0.9-2.6,2-5.2,3-7.8c21.5,0,42.9-0.1,64.3,0.1c-8.9,24.8-18,49.6-27,74.5
		c-77.3-0.1-154.6,0.1-231.9,0c7.9-22.3,16.2-44.4,24.1-66.7C267.2,338,323,338.1,378.8,338L378.8,338z"/>
	<path class="st3" d="M233.7,348.9c7.5,0,15.1,0,22.7,0c-1.1,3.3-2.2,6.5-3.4,9.8c-4.1,0.1-8.2-0.4-12.3,0.2c-1,1.8-1.6,3.8-2.3,5.6
		c4,0,8.1,0,12.1,0c-1.1,3-2.3,5.9-3.3,8.9c-4.2-0.1-8.3,0-12.4,0c-2.1,5.6-4.3,11.2-6.5,16.7c-3.5-0.1-7,0.1-10.6-0.1
		C223,376.4,228.4,362.6,233.7,348.9L233.7,348.9z"/>
	<path class="st3" d="M263.3,348.9c3.4,0.1,6.7-0.1,10.1,0c-5.1,13.8-10.4,27.5-15.5,41.2c-3.6,0-7.1,0-10.6,0
		C252.6,376.4,257.9,362.6,263.3,348.9L263.3,348.9z"/>
	<path class="st3" d="M280.3,349c3.4-0.1,6.8-0.1,10.2-0.1c-4,10.5-8,21-12,31.5c5-0.1,10-0.1,15,0c-1.2,3.3-2.6,6.5-3.7,9.7
		c-8.3,0-16.7,0-25.1,0C270,376.4,275.3,362.7,280.3,349L280.3,349z"/>
	<path class="st3" d="M301.1,348.9c9.2,0,18.5,0,27.7,0c-1.2,3.2-2,6.4-3.4,9.4c-2.9,0.8-6,0.2-9,0.3c-3.9,10.5-8,21-11.9,31.5
		c-3.5,0-7,0-10.6,0c4-10.5,8.1-21,12.2-31.5c-3,0.1-6,0-8.9,0C298.4,355.4,299.8,352.2,301.1,348.9L301.1,348.9z"/>
	<path class="st3" d="M333.3,348.9c6.9,0,13.8,0,20.6,0c-1.2,3.3-2.6,6.5-3.7,9.7c-3.5,0-7,0.1-10.5,0c-0.7,1.9-1.4,3.9-2.1,5.8
		c3.3,0,6.7,0,10,0c-1,3-2,5.9-2.9,8.9c-3.5-0.1-6.9,0-10.3,0c-0.9,2.4-1.9,4.6-2.8,7c3.4-0.1,6.8,0,10.2,0
		c-1.2,3.3-2.4,6.5-3.6,9.7c-6.9,0-13.8,0-20.6,0C322.8,376.4,328.1,362.7,333.3,348.9L333.3,348.9z"/>
	<path class="st3" d="M360.3,348.9c6,0,12.1,0,18.1,0c1.8,0.1,4,0.2,5.2,1.9c0.9,1.6,0.2,3.4-0.4,4.9c-1.5,3.8-3,7.5-4.5,11.3
		c-0.6,1.5-1.2,3.1-2.1,4.4c-1,1.2-2.5,1.7-3.8,2.5c0.3,5.4,1.1,10.9,1.5,16.3c-3.3,0-6.5,0-9.7,0c-0.5-5-1.2-10-1.6-15.1
		c-0.9,0-1.7,0-2.5,0.1c-1.9,5-3.8,10-5.6,15c-3.6-0.1-7.1,0-10.6,0C349.7,376.4,355,362.6,360.3,348.9L360.3,348.9z"/>
	<path class="st3" d="M390.7,353.7c0.9-2.3,2.6-4.7,5.3-4.7c6.1-0.1,12.2-0.1,18.3-0.1c-1.2,3.3-2.6,6.5-3.7,9.7
		c-3.8,0-7.6,0.1-11.4,0c-0.9,2-1.7,3.9-2.6,5.8c2.8,0.1,5.6-0.2,8.4,0.1c1.3,0,2.5,1.1,2.5,2.5c-0.1,1.4-0.6,2.7-1.1,3.9
		c-1.8,4.3-3.5,8.6-5.2,13c-0.8,2-1.8,4.1-3.6,5.4c-1.2,0.9-2.8,0.8-4.2,0.8c-5.6-0.1-11.3,0.1-16.9-0.1c1.1-3.3,2.4-6.5,3.6-9.7
		c4,0.1,7.9,0,11.9,0c0.9-2.3,2-4.6,2.9-6.9c-3-0.2-6,0.4-8.9-0.5c-1.9-0.6-1.8-3-1.2-4.5C386.8,363.5,388.8,358.6,390.7,353.7
		L390.7,353.7z"/>
	<path class="st2" d="M366.4,358.6c2.1,0,4.1,0.1,6.1,0c-0.8,2.1-1.6,4.1-2.4,6.1c-2-0.1-4-0.1-6-0.1
		C364.8,362.6,365.6,360.6,366.4,358.6L366.4,358.6z"/>
</g>
<g class="st0">
	<path class="st4" d="M128.4,366.5c30.2,0,54.6-24.7,54.6-55.1c0-30.6-24.4-55.3-54.6-55.3c-30,0-54.4,24.7-54.4,55.3
		C74,341.8,98.4,366.5,128.4,366.5L128.4,366.5z"/>
	<path class="st5" d="M147.7,316.6l-22-13.6c-4.7-2.9-10.2,2-9.8,2.7l-16.4-25.7c-0.5-0.7-0.7-1.6-0.7-2.5c0-4.3,5.6-5.4,7.9-2.1
		l16.2,23.9c1.1,1.5,2.4,2.4,3.8,2.4c1.8,0,3.1-1.4,3.1-3.1c0-0.4-0.1-0.8-0.2-1.2l-9.3-25.5c-1.9-5.2,5.8-8.4,7.9-3.1L147.7,316.6z
		"/>
	<path class="st5" d="M148.6,318.6l2.2,3c0.4,1.1,0.7,2.5,0.4,3.6l4.4,11.3c-1.6,2.8-5.8,6.2-9.9,5.5c-8.2-1.2-11.3-11.8-11.3-18.2
		v-0.7l-0.7-0.4l-4.8-2.9l-2.2-1.4l-7.6-4.6c-0.7-0.4-1.4-1.1-1.8-1.8c-1.2-1.9-1.2-4.3,0-6.1c1.1-1.7,2.9-2.7,4.9-2.7
		c1,0,2,0.3,2.9,0.8L148.6,318.6L148.6,318.6z"/>
	<path class="st5" d="M127.8,320.6c0,0.3,0.2,0.6,0.2,1c0,0.8-0.3,1.8-0.7,2.6c-0.9,1.4-2.5,2.3-4.2,2.3l-2.6-0.8l-16.2-10.7
		c-2.2-1.5-2.8-4.5-1.4-6.7c0.9-1.4,2.4-2.2,4-2.2c0.9,0,1.8,0.3,2.6,0.8l5.9,3.9c0.6,1.5,1.5,3.1,3,4.2l6.3,3.7l1.8,1.1
		L127.8,320.6z M116.5,337.9l-15-9.9c-2.2-1.4-2.8-4.3-1.4-6.5c1.5-2.2,4.4-3.1,6.6-1.6l16.2,10.8c2.2,1.5,3,4.4,1.6,6.7
		C122.7,340.4,119,339.6,116.5,337.9L116.5,337.9z"/>
	<path class="st5" d="M129.3,321.6l3.9,2.3c0.2,8.2,2.1,11,4,14.2c0.9,1.8,2.6,3.1,4,4c-2.2,2.3-6.1,5.4-9.9,7.9
		c-0.9,0.6-1.9,0.9-3,0.9c-3.3,0-8.6-6.4-8.6-6.6c-0.7-0.9-1.2-2.3-1.6-3.9c2.8,1.2,6,0.5,7.7-2.1c1.8-2.8,0.9-6.8-1.9-8.5l-2.5-1.8
		v-0.4c2.6,0.7,5.4-0.2,7-2.7C129.1,323.9,129.5,322.6,129.3,321.6L129.3,321.6z"/>
	<path class="st6" d="M260,282.3c-11,0-18.6,7.7-18.6,20.4c0,13.2,8.3,20.4,19.4,20.4c7.6,0,15-4.1,17-13.1h-11.5
		c-1.2,2.5-3,3.4-5.7,3.4c-4.9,0-7.4-3-7.4-8.4h25.1v-1.4C278.3,290.5,271.6,282.3,260,282.3z M253.4,297.1c0.7-3.9,3.5-6.1,7.1-6.1
		c3.2,0,6.2,2.3,6.7,6.1H253.4z"/>
	<g class="st7">
		<polygon class="st8" points="219.3,292.1 238.9,265.6 223,265.6 207.5,288.7 207.3,288.7 207.3,265.6 194.6,265.6 194.6,321.8 
			207.3,321.8 207.3,297.5 207.5,297.5 224.1,321.8 240.7,321.8 		"/>
		<path class="st8" d="M352.2,317.5v4.3H364v-61.9h-11.8v27.4c-2.5-3.4-6.5-5-10.4-5c-9.9,0-16.8,9.3-16.8,20.4
			c0,10.9,7.1,20.4,17,20.4c3.9,0,8-1.8,10.1-5.5L352.2,317.5L352.2,317.5L352.2,317.5z M344.9,311.2c-4.9,0-7.8-3.8-7.8-8.6
			c0-4.6,2.8-8.6,7.8-8.6c4.8,0,7.6,3.9,7.6,8.6C352.5,307.5,349.7,311.2,344.9,311.2z"/>
		<path class="st8" d="M408.2,321.8v-38.3h-11.8v3.8c-2.5-3.4-6.5-5-10.4-5c-9.9,0-16.8,9.3-16.8,20.4c0,10.9,6.9,20.4,17,20.4
			c3.9,0,8-1.8,10.1-5.5h0.2v4.3H408.2z M389.1,311.2c-4.9,0-7.8-3.8-7.8-8.6c0-4.6,2.8-8.6,7.8-8.6c4.8,0,7.6,3.9,7.6,8.6
			C396.7,307.5,393.9,311.2,389.1,311.2z"/>
		<polygon class="st8" points="249,335.8 244,349.7 239.5,335.8 233.4,335.8 229.6,362.1 235.6,362.1 237.5,346.9 242.8,362.1 
			245.1,362.1 250.8,346.9 252.4,362.1 258.4,362.1 255,335.8 		"/>
		<path class="st8" d="M315.8,334.9c-6.5,0-12.7,5.5-12.7,13.6c0,8.4,5.5,14.3,12.7,14.3c7.4,0,12.7-5.9,12.7-14.3
			C328.5,340.4,322.5,334.9,315.8,334.9z M315.8,356.2c-3.5,0-6.4-3.2-6.4-7.7c0-3.8,2.8-7,6.4-7c3.7,0,6.5,3.2,6.5,7
			C322.3,352.9,319.5,356.2,315.8,356.2z"/>
		<path class="st8" d="M295.6,301.9c0-4.8,1.4-8.9,6.2-8.9c5.8,0,5.3,6.4,5.3,10.2v18.6h12v-23.6c0-9.5-3.7-15.9-12.7-15.9
			c-4.6,0-8,1.6-10.6,6.3h-0.2v-5h-12v38.3h12V301.9z"/>
		<path class="st8" d="M374.1,334.9c-6.5,0-12.7,5.5-12.7,13.6c0,8.4,5.3,14.3,12.7,14.3c7.4,0,12.7-5.9,12.7-14.3
			C386.8,340.4,380.8,334.9,374.1,334.9z M374.1,356.2c-3.5,0-6.5-3.2-6.5-7.7c0-3.8,3-7,6.5-7c3.5,0,6.5,3.2,6.5,7
			C380.6,352.9,377.6,356.2,374.1,356.2z"/>
		<path class="st8" d="M272.5,334.9c-6.5,0-12.7,5.5-12.7,13.6c0,8.4,5.3,14.3,12.7,14.3c7.4,0,12.7-5.9,12.7-14.3
			C285.2,340.4,279.2,334.9,272.5,334.9z M272.5,356.2c-3.5,0-6.5-3.2-6.5-7.7c0-3.8,3-7,6.5-7s6.5,3.2,6.5,7
			C279,352.9,276,356.2,272.5,356.2z"/>
		<path class="st8" d="M348.3,343.8c0-5.5-3.5-8-8-8h-9v26.3h6v-10.2l5.6,10.2h7.4l-7.2-10.9C346.5,350.6,348.3,347.4,348.3,343.8z
			 M337.9,347.6h-0.5V341h0.5c1.9,0,4.2,0.4,4.2,3.2S339.8,347.6,337.9,347.6z"/>
		<rect x="435.8" y="259.9" class="st8" width="12" height="61.9"/>
		<rect x="416.1" y="259.9" class="st8" width="11.8" height="61.9"/>
		<rect x="389.6" y="335.8" class="st8" width="6" height="26.3"/>
		<polygon class="st8" points="405.5,335.8 399.5,335.8 399.5,362.1 412.6,362.1 412.6,356.2 405.5,356.2 		"/>
		<polygon class="st8" points="286.3,341.5 291.2,341.5 291.2,362.1 297.2,362.1 297.2,341.5 302.2,341.5 302.2,335.8 286.3,335.8 
					"/>
	</g>
</g>
<g class="st0">
	<path class="st9" d="M10.9,320.7c10.7,0,21.4,0,32.1,0.1c1.3,0,1.6-0.3,1.6-1.7c0-24.5,0-49.1,0-73.6c0-1.1,0.1-2.2,0.2-3.2
		c0.5-3.9,2.8-5.9,6.7-6c4.7-0.1,9.5,0,14.2,0c0.2-0.7-0.3-1.1-0.6-1.6c-9-16.2-17.9-32.4-26.9-48.5c-0.8-1.4-0.5-1.8,0.8-2.4
		c6.4-2.9,12.8-5.8,19.2-8.8c0.9-0.4,1.4-0.3,2.1,0.5c8.4,9,18.6,14.3,30.8,15.7c10.9,1.2,21.6,0.5,32.1-3
		c6.8-2.3,13.7-4.1,20.6-6.1c12.1-3.5,24.1-7.1,36.5-9.5c5.2-1,10.5-1.5,15.8-1.9c0.5,0,1.1,0.3,1.5-0.3c5.5,0,11.1,0,16.6,0
		c0.4,0.6,1,0.3,1.5,0.3c8.7,0.6,17.5,1.3,26,3.4c2.6,0.6,5.2,1.5,7.7,2.6c3.3,1.5,6.1,3.6,8.2,6.6c9.7,13.5,18,27.8,26.5,42.1
		c1.9,3.2,3.8,6.4,5.6,9.6c0.7,1.3,1.4,1.7,2.9,1.7c30-0.1,60,0,90,0c2.7,0,5.4,0.2,8,1.2c3.4,1.3,5.4,3.8,5.8,7.4
		c0.1,1.1,0.2,2.1,0.2,3.2c0,23.5,0,46.9,0,70.4c0,1.4,0.2,1.9,1.8,1.9c15.5-0.1,31-0.1,46.4-0.1c0,28.6,0,57.2,0,85.8
		c-15.9,0-31.8,0-47.6,0c-1.5,0-1.9,0.3-1.8,1.8c0.1,3.2,0,6.4,0,9.7c-0.1,8.9-6.2,15.2-15.1,15.6c-1,0.1-1.9,0.1-2.9,0.1
		c-49.3,0-98.6,0-147.8,0c-0.6,0-1.2,0-1.9,0c-0.1,0.8,0.5,1.2,0.8,1.7c6.4,10.5,12.7,21,19.2,31.5c0.6,1,0.7,1.5-0.6,2
		c-10.4,4.8-20.8,9.6-31.1,14.4c-1.4,0.7-2.1,0.4-3-0.9c-10.6-15.9-21.3-31.7-32-47.6c-0.7-1.1-1.5-1.5-2.8-1.5
		c-38.3,0-76.6,0-114.9,0.1c-5,0-9.6-1.1-13.7-4.1c-3.4-2.5-5.2-5.8-5.1-10.1c0.1-4,0-7.9,0.1-11.9c0-1.2-0.3-1.5-1.5-1.5
		c-10.7,0.1-21.5,0-32.2,0C10.9,377.4,10.9,349,10.9,320.7z M220.3,429.6c1,0,1.7,0,2.3,0c51.6,0,103.1,0,154.6,0c0.9,0,1.8,0,2.7,0
		c7.1-0.4,11.4-4.9,11.5-12c0-4.5,0.1-8.9,0-13.4c0-1.4,0.3-1.8,1.7-1.8c15.5,0.1,31,0,46.4,0.1c1.3,0,1.7-0.3,1.7-1.6
		c-0.1-24.8-0.1-49.5,0-74.3c0-1.4-0.3-1.8-1.8-1.8c-15,0.1-30,0-44.9,0.1c-1.5,0-1.9-0.4-1.9-1.9c0.1-24.7,0-49.4,0-74.1
		c0-1-0.1-1.9-0.1-2.9c-0.2-2.2-1.4-3.5-3.3-4.3c-2-0.8-4.2-0.8-6.4-0.8c-30.8,0-61.6,0-92.4,0c-1.4,0-2.2-0.4-2.9-1.7
		c-3-5.3-6-10.5-9.1-15.6c-7.4-12.3-14.7-24.6-22.9-36.4c-2.9-4.2-6.6-6.7-11.3-8.1c-1.9-0.6-3.9-1.1-5.9-1.5
		c-9-1.9-18.2-2.5-27.4-2.9c-10-0.4-20,0.2-29.9,2c-13.6,2.5-26.7,6.6-39.9,10.5c-8.1,2.3-16.2,4.8-24.4,7
		c-7.3,1.9-14.9,1.7-22.4,1.4c-13.6-0.7-25.1-5.9-34.9-15.1c-0.8-0.8-1.4-0.8-2.3-0.4c-4.1,1.9-8.2,3.8-12.3,5.6
		c-1.4,0.6-1.5,1.1-0.7,2.4c9.4,16.9,18.7,33.7,28.1,50.6c0.9,1.7,0.9,1.7-1.1,1.7c-5.6,0-11.3-0.1-16.9,0c-5.2,0-5.4,0.2-5.4,5.5
		c0,25.7,0,51.4,0,77.1c0,1.5-0.3,1.9-1.8,1.9c-10.1-0.1-20.2,0-30.4-0.1c-1.3,0-1.6,0.4-1.6,1.6c0,24.6,0,49.2,0,73.8
		c0,1.4,0.5,1.6,1.7,1.6c10.1-0.1,20.1,0,30.2-0.1c1.4,0,1.9,0.2,1.9,1.8c-0.1,5.3,0,10.5-0.1,15.8c-0.1,2.8,1.1,4.9,3.2,6.5
		c3.2,2.5,6.9,3.4,10.9,3.4c39.1,0,78.1,0,117.2-0.1c1.6,0,2.6,0.5,3.5,1.8c10.3,15.5,20.8,30.9,31.2,46.4c0.7,1.1,1.2,1.5,2.6,0.8
		c7.8-3.7,15.6-7.3,23.5-10.9c1.9-0.9,1.9-0.9,0.9-2.6c-4.4-7.2-8.8-14.5-13.2-21.7C225.8,438.6,223.1,434.2,220.3,429.6z"/>
	<path class="st9" d="M134.5,318.3c1.4,2.4,2.7,4.6,4.1,6.8c1.2,2,2.5,3.9,3.6,6c0.5,1,1.2,1.3,2.3,1.3c12.7,0,25.3,0,38-0.1
		c3.4,0,5.6,1.4,7,4.3c2.2,4.5,2.8,9.4,2.6,14.4c-0.2,4.8-0.5,9.7-1.9,14.4c-0.2,0.7-0.4,1.4-0.7,2.1c-1.3,3.2-2.4,4-5.9,4
		c-1.7,0-3.4,0-5.4,0c18.9,31.7,37.7,63.1,56.6,94.5c-4.5,2.3-9,4.5-13.4,6.8c-1,0.5-1.1-0.4-1.5-0.9c-3.9-6.4-7.7-12.7-11.6-19.1
		c-16.1-26.5-32.2-53-48.3-79.4c-0.3-0.5-0.4-1.1-1.2-1.3c0,5.9,0,11.7,0,17.5c0,1.4,0.5,3.3-0.2,4.1c-0.8,1-2.8,0.3-4.2,0.3
		c-3.9,0.1-7.8-0.1-11.7,0.1c-1.6,0.1-1.9-0.5-1.9-2c0.1-16.5,0-33,0.1-49.5c0-1.2-0.3-2.2-0.9-3.2c-21.9-36.2-43.8-72.4-65.7-108.6
		c-6.8-11.3-13.6-22.6-20.5-33.9c-0.7-1.1-0.6-1.7,0.6-2.3c1.3-0.6,2.7-2.1,3.8-1.9c1.2,0.2,1.8,2.2,2.4,3.5c1.6,3.9,4.4,5.3,8.5,6
		c7.7,1.3,15.2,3.3,22.9,4.3c8.4,1.1,16.7,0.6,25-0.5c14.2-1.8,27.4-7.1,40.6-11.9c13.8-5,28-8.5,42.5-10.6
		c9.9-1.4,19.9-1.7,29.9,0.2c6.9,1.3,12,5,15.8,10.9c14.3,22.4,27.6,45.3,40.9,68.2c7.1,12.2,14.2,24.5,21.2,36.8
		c0.3,0.6,0.7,1.2,1,1.7c1,1.5,0.8,2.3-0.7,3.2c-0.7,0.4-0.9-0.1-1.2-0.4c-7.2-9-17.1-13-28.1-14.2c-15.4-1.7-30.5,0.5-45.2,5.5
		c-10.4,3.5-20.7,7.5-31,11.1c-14.1,5-28.4,9.2-43.3,11.3c-8,1.1-15.9,1.9-24,0.5C135.1,318.3,134.9,318.3,134.5,318.3z
		 M300.8,294.2c0,0.2,0.1,0.3,0.3,0.2c0,0,0-0.2-0.1-0.4c-4.5-7.8-9-15.6-13.5-23.5c-0.4-0.7-1.1-1.1-1.8-1.4
		c-5.2-2.4-10.7-3.6-16.3-4c-5.9-0.4-11.8,0.2-17.8,1.2c4.1,6.1,7.6,12.4,11.1,18.7c0.6,1,1.2,1.4,2.4,1.3
		c6.6-0.4,13.2-0.1,19.7,1.3C290.5,289,295.8,291.3,300.8,294.2z M166.8,313.5c-4-7-7.9-13.6-12.2-20.3c11.5-2.6,22.8-5.1,33.9-8.9
		c-3.9-6.7-7.3-13.4-11.4-19.7c-0.7-1-0.6-1.4,0.6-1.8c5.8-1.8,11.6-3.8,17.4-5.5c4.4-1.4,8.9-2.5,13.4-3.8
		c-4.7-6.7-8.8-13.6-13.1-20.5c10.4-3.3,20.8-6.2,32-7.1c-1.6-2.5-3-4.7-4.3-6.9c-2.5-4.1-5.1-8.2-7.6-12.4c-1-1.6-0.9-1.6,1-1.8
		c1.1-0.1,2.3-0.1,3.4-0.2c6.7-0.5,13.3-0.6,20,0.5c3.3,0.5,6.6,1.3,10.3,2.3c-2.7-4.2-5.1-8-7.6-11.9c-2.7-4.3-6.6-7.1-11.5-8.3
		c-8.9-2.3-17.9-1.5-27.2-1.1c3.6,6.4,7.1,12.6,10.6,18.9c-10.7,1.2-20.9,3.5-30.8,7c-1,0.3-1.3,0-1.6-0.7
		c-3.4-5.7-6.6-11.4-9.7-17.3c-0.6-1-1.1-1.3-2.2-0.9c-9.5,3-18.8,6.6-28.2,9.8c-1,0.3-1,0.6-0.6,1.5c3.2,5.7,6.5,11.3,9.7,17
		c0.5,0.9,1,0.9,1.9,0.6c9.6-3,19.2-5.9,28.6-9.3c0.9-0.3,1.3-0.3,1.9,0.6c3.8,6.2,7.3,12.6,11.4,18.6c0.4,0.7,0.6,1-0.4,1.3
		c-9.8,2.8-19.3,6.4-29,9.7c-1.1,0.4-1.4,0.1-1.9-0.8c-3.3-5.5-6.6-11-10-16.5c-1.9-3.1-1.9-3-5.4-2c-7.3,2.1-14.7,3.9-22.2,4.6
		c-2.9,0.3-5.7,0.7-8.7,1c4.1,7.4,8.2,14.6,12.3,21.8c0.5,0.9,1.1,0.7,1.8,0.7c11-1.3,21.7-4.1,32-8.1c0.8-0.3,1.1-0.2,1.5,0.5
		c1.4,2.4,2.9,4.9,4.3,7.3c2.4,3.9,4.8,7.8,7.3,11.8c-0.4,0.2-0.7,0.3-0.9,0.4c-10.9,3.6-21.9,6.6-33.3,7.9c-1,0.1-1.2,0.4-0.6,1.2
		c1,1.4,2,2.9,2.9,4.4c3.4,5.3,6.8,10.6,10.3,16.1c-11.1,2-21.8,5.4-33.2,3.5c3.1,5.1,6.2,9.9,8.9,14.9c1.2,2.2,2.9,3.2,5.1,3.5
		c0.8,0.1,1.7,0.3,2.5,0.4C147.6,316.7,157.1,315.2,166.8,313.5z M239.5,245.7c-10.5,2-20.7,4.7-31,7.8c4.1,6.7,8.1,13.2,12.1,19.8
		c-10.3,3.2-20.4,6.6-30.5,10.3c-1.6,0.6-1.5,1.1-0.8,2.3c3.3,5.5,6.5,11.1,9.7,16.7c0.7,1.3,1.4,1.4,2.7,1
		c9.8-3.5,19.4-7.3,29.3-10.5c1.1-0.4,1-0.8,0.5-1.6c-3.4-5.6-6.8-11.3-10.2-16.9c-0.5-0.9-0.6-1.3,0.5-1.6
		c6.3-1.9,12.7-3.7,19.2-4.9c3.5-0.6,6.9-1.2,10.5-1.8C247.2,259.6,243.8,252.5,239.5,245.7c11.6-1.3,22.9-3,34.3,1.4
		c-0.6-1-0.8-1.5-1.1-2.1c-3-5.1-6.1-10.3-9.1-15.5c-0.7-1.3-1.6-2-3-2.5c-10.9-4.1-22-2.5-33.3-1.2
		C231.7,232.4,235.9,238.8,239.5,245.7z M66,204.6c0,0.2,0,0.4,0,0.5c4,6.5,8,13.1,11.9,19.6c0.4,0.7,1,0.9,1.7,1
		c10.2,2.6,20.6,3.8,31.2,3.4c1.7-0.1,3.3-0.3,5.2-0.5c-3.8-6-7.1-11.9-10.3-17.9c-0.4-0.7-0.9-0.6-1.4-0.6
		c-9.3,0.4-18.3-1.4-27.3-3.3C73.2,206.1,69.6,205.3,66,204.6z M94.3,251.8c0.4,0.7,0.7,1.2,1,1.8c3,5,6.3,9.8,8.9,15
		c1.7,3.3,4.1,4.2,7.5,4.4c9.3,0.6,18.6-0.3,27.9-1.1c1.4-0.1,0.9-0.7,0.5-1.3c-3.6-5.5-6.8-11.1-9.9-16.9c-0.5-1-1.1-1.2-2.1-1.1
		c-8.9,0.5-17.7,0.7-26.6,0.1C99.1,252.3,96.8,252,94.3,251.8z M159.3,352.3c0,1.7,0.1,3.4,0,5.1c-0.1,1.4,0.2,2,1.8,1.9
		c2.8-0.1,5.6-0.1,8.5,0c1.9,0.1,3.1-0.8,3.9-2.4c1.4-3.2,1.2-6.4-0.1-9.5c-0.5-1.3-1.6-2-3.1-2c-3.3,0-6.5,0.1-9.8,0
		c-0.9,0-1.1,0.3-1.1,1.2C159.4,348.5,159.3,350.4,159.3,352.3z"/>
	<path class="st10" d="M166.8,313.5c-9.7,1.7-19.1,3.2-28.8,2.1c-0.8-0.1-1.7-0.2-2.5-0.4c-2.3-0.4-3.9-1.3-5.1-3.5
		c-2.8-5-5.9-9.9-8.9-14.9c11.4,1.9,22.1-1.5,33.2-3.5c-3.5-5.5-6.9-10.8-10.3-16.1c-0.9-1.5-1.9-3-2.9-4.4
		c-0.6-0.9-0.4-1.1,0.6-1.2c11.4-1.3,22.5-4.3,33.3-7.9c0.3-0.1,0.5-0.2,0.9-0.4c-2.4-4-4.9-7.9-7.3-11.8c-1.5-2.4-2.9-4.8-4.3-7.3
		c-0.4-0.7-0.7-0.9-1.5-0.5c-10.3,4-21,6.7-32,8.1c-0.7,0.1-1.3,0.2-1.8-0.7c-4-7.2-8.1-14.4-12.3-21.8c3-0.3,5.9-0.8,8.7-1
		c7.6-0.7,14.9-2.5,22.2-4.6c3.5-1,3.5-1,5.4,2c3.4,5.5,6.7,11,10,16.5c0.5,0.9,0.9,1.2,1.9,0.8c9.6-3.3,19.2-6.9,29-9.7
		c1-0.3,0.8-0.6,0.4-1.3c-4-6-7.6-12.4-11.4-18.6c-0.6-0.9-1-0.9-1.9-0.6c-9.4,3.4-19,6.3-28.6,9.3c-0.9,0.3-1.4,0.2-1.9-0.6
		c-3.2-5.7-6.4-11.4-9.7-17c-0.5-0.9-0.4-1.1,0.6-1.5c9.4-3.2,18.7-6.9,28.2-9.8c1.2-0.4,1.7-0.2,2.2,0.9c3.1,5.8,6.3,11.6,9.7,17.3
		c0.4,0.7,0.7,1.1,1.6,0.7c9.9-3.5,20.1-5.8,30.8-7c-3.5-6.3-7-12.5-10.6-18.9c9.3-0.4,18.3-1.2,27.2,1.1c4.9,1.3,8.8,4,11.5,8.3
		c2.4,3.8,4.9,7.7,7.6,11.9c-3.7-1-7-1.8-10.3-2.3c-6.6-1.1-13.3-0.9-20-0.5c-1.1,0.1-2.3,0.2-3.4,0.2c-2,0.1-2,0.1-1,1.8
		c2.5,4.1,5.1,8.3,7.6,12.4c1.4,2.2,2.7,4.4,4.3,6.9c-11.1,0.9-21.6,3.8-32,7.1c4.3,6.9,8.4,13.9,13.1,20.5c-4.5,1.3-9,2.5-13.4,3.8
		c-5.8,1.8-11.6,3.7-17.4,5.5c-1.2,0.4-1.2,0.8-0.6,1.8c4.1,6.4,7.6,13.1,11.4,19.7c-11.1,3.8-22.4,6.3-33.9,8.9
		C158.9,299.8,162.8,306.5,166.8,313.5z"/>
	<path class="st10" d="M239.5,245.7c-3.6-7-7.8-13.4-12.2-20c11.4-1.3,22.4-2.8,33.3,1.2c1.4,0.5,2.3,1.3,3,2.5
		c3,5.2,6.1,10.3,9.1,15.5c0.3,0.5,0.6,1.1,1.1,2.1c-11.5-4.3-22.7-2.6-34.2-1.3c4.2,6.7,7.6,13.8,11.9,20.5
		c-3.6,0.6-7,1.2-10.5,1.8c-6.5,1.2-12.8,3-19.2,4.9c-1.1,0.3-1.1,0.7-0.5,1.6c3.4,5.6,6.8,11.3,10.2,16.9c0.5,0.8,0.7,1.2-0.5,1.6
		c-9.9,3.1-19.5,7-29.3,10.5c-1.3,0.5-2,0.3-2.7-1c-3.1-5.6-6.4-11.1-9.7-16.7c-0.7-1.2-0.8-1.7,0.8-2.3c10-3.7,20.2-7,30.5-10.3
		c-4-6.6-8-13.1-12.1-19.8C218.8,250.5,229,247.8,239.5,245.7z"/>
	<path class="st10" d="M300.8,294.2c-5-2.9-10.3-5.2-16-6.5c-6.5-1.4-13.1-1.8-19.7-1.3c-1.2,0.1-1.8-0.3-2.4-1.3
		c-3.5-6.3-7-12.6-11.1-18.7c6-1.1,11.9-1.6,17.8-1.2c5.7,0.4,11.2,1.6,16.3,4c0.7,0.3,1.4,0.7,1.8,1.4c4.5,7.8,9,15.6,13.5,23.5
		C301,294.1,300.9,294.2,300.8,294.2z"/>
	<path class="st10" d="M66,204.6c3.7,0.8,7.3,1.5,10.9,2.3c9,1.9,18,3.6,27.3,3.3c0.5,0,1.1-0.1,1.4,0.6c3.2,6,6.5,11.9,10.3,17.9
		c-1.9,0.2-3.5,0.4-5.2,0.5c-10.6,0.4-20.9-0.8-31.2-3.4c-0.7-0.2-1.3-0.3-1.7-1c-4-6.6-7.9-13.1-11.9-19.6
		C65.9,204.9,66,204.8,66,204.6z"/>
	<path class="st10" d="M94.3,251.8c2.5,0.3,4.9,0.6,7.2,0.7c8.9,0.6,17.7,0.4,26.6-0.1c1-0.1,1.6,0.1,2.1,1.1
		c3,5.8,6.3,11.5,9.8,16.9c0.4,0.6,1,1.2-0.5,1.3c-9.3,0.8-18.5,1.7-27.9,1.1c-3.4-0.2-5.8-1.1-7.5-4.4c-2.6-5.2-5.9-10-8.9-15
		C95,253,94.7,252.5,94.3,251.8z"/>
	<path class="st11" d="M220.3,429.7c2.8,4.7,5.5,9.1,8.2,13.4c4.4,7.2,8.8,14.5,13.2,21.7c1.1,1.7,1.1,1.7-0.9,2.6
		c-7.8,3.6-15.7,7.2-23.5,10.9c-1.4,0.7-1.9,0.3-2.6-0.8c-10.4-15.5-20.8-30.9-31.2-46.4c-0.9-1.4-1.9-1.8-3.5-1.8
		c-39.1,0.1-78.1,0-117.2,0.1c-4,0-7.7-1-10.9-3.4c-2.1-1.6-3.3-3.7-3.2-6.5c0.1-5.3,0-10.5,0.1-15.8c0-1.6-0.5-1.8-1.9-1.8
		c-10.1,0.1-20.1,0-30.2,0.1c-1.3,0-1.7-0.2-1.7-1.6c0.1-24.6,0.1-49.2,0-73.8c0-1.3,0.3-1.6,1.6-1.6c10.1,0.1,20.2,0,30.4,0.1
		c1.5,0,1.8-0.4,1.8-1.9c-0.1-25.7,0-51.4,0-77.1c0-5.2,0.2-5.5,5.4-5.5c5.6,0,11.3,0,16.9,0c2,0,2,0,1.1-1.7
		c-9.3-16.9-18.6-33.7-28-50.6c-0.7-1.3-0.7-1.8,0.7-2.4c4.1-1.8,8.2-3.7,12.3-5.6c0.9-0.5,1.5-0.4,2.3,0.4
		c9.8,9.2,21.4,14.5,34.9,15.1c7.5,0.4,15.1,0.6,22.4-1.4c8.2-2.1,16.3-4.6,24.4-7c13.2-3.8,26.4-8,39.9-10.5
		c9.9-1.8,19.8-2.5,29.9-2c9.2,0.4,18.4,1,27.4,2.9c2,0.4,4,0.9,5.9,1.5c4.7,1.4,8.4,3.9,11.3,8.1c8.1,11.8,15.5,24.1,22.9,36.4
		c3.1,5.2,6.2,10.4,9.1,15.6c0.7,1.3,1.4,1.7,2.9,1.7c30.8-0.1,61.6,0,92.4,0c2.2,0,4.3,0.1,6.4,0.8c2,0.7,3.2,2.1,3.3,4.3
		c0.1,1,0.1,1.9,0.1,2.9c0,24.7,0,49.4,0,74.1c0,1.5,0.4,1.9,1.9,1.9c15-0.1,30,0,44.9-0.1c1.4,0,1.8,0.4,1.8,1.8
		c0,24.8-0.1,49.5,0,74.3c0,1.4-0.4,1.6-1.7,1.6c-15.5,0-31,0-46.4-0.1c-1.4,0-1.8,0.4-1.7,1.8c0.1,4.5,0.1,8.9,0,13.4
		c0,7.1-4.3,11.6-11.5,12c-0.9,0.1-1.8,0-2.7,0c-51.6,0-103.1,0-154.6,0C222,429.7,221.3,429.7,220.3,429.7z M144.4,332.5
		c-1.1,0-1.8-0.3-2.3-1.3c-1.1-2-2.4-4-3.6-6c-1.3-2.3-2.7-4.5-4.1-6.8c0.5,0,0.7-0.1,0.9,0c8,1.4,16,0.7,24-0.5
		c14.9-2.1,29.2-6.3,43.3-11.3c10.4-3.7,20.6-7.6,31-11.1c14.7-5,29.8-7.2,45.2-5.5c11,1.2,20.9,5.2,28.1,14.2
		c0.3,0.4,0.6,0.8,1.2,0.4c1.5-0.9,1.7-1.8,0.7-3.2c-0.4-0.6-0.7-1.2-1-1.7c-7.1-12.3-14.1-24.6-21.2-36.8
		c-13.4-22.9-26.7-45.9-40.9-68.2c-3.8-5.9-8.9-9.6-15.8-10.9c-9.9-1.9-20-1.5-29.9-0.2c-14.5,2-28.6,5.6-42.5,10.6
		c-13.3,4.8-26.5,10.1-40.6,11.9c-8.3,1.1-16.6,1.6-25,0.5c-7.7-1.1-15.3-3-22.9-4.3c-4-0.7-6.9-2.2-8.5-6c-0.5-1.3-1.2-3.3-2.4-3.5
		c-1.1-0.2-2.5,1.3-3.8,1.9c-1.2,0.6-1.2,1.1-0.6,2.3c6.9,11.3,13.7,22.6,20.5,33.9c21.9,36.2,43.8,72.5,65.7,108.7
		c0.6,1,0.9,2,0.9,3.2 M155.9,366.5c16.1,26.5,32.2,52.9,48.3,79.4c3.9,6.4,7.7,12.7,11.6,19.1c0.3,0.5,0.4,1.4,1.5,0.9
		c4.4-2.3,8.8-4.5,13.4-6.8c-18.9-31.5-40.7-67.8-59.6-99.5"/>
	<path class="st11" d="M148.3,406.7c-0.1-0.8,0.1-1.3,1.1-1.2c0.8,0.1,1.6,0.3,1.6,1.3c0,1.2-1,1.3-1.8,1.3
		C148.1,408.2,148.5,407.2,148.3,406.7z"/>
	<path class="st7" d="M62.1,361.2c2.6-1,4.5-2.4,5.8-4.1c2-2.6,2.9-5.7,2.9-9.4c0-4.3-1.4-8-4.1-10.9c-2.7-2.9-6.7-4.4-11.9-4.4h-31
		V394h28.6c1.2,0,3.7-0.3,7.4-0.9c2.8-0.4,4.9-1.1,6.3-2c2.2-1.5,4-3.5,5.3-6c1.3-2.6,1.9-5.4,1.9-8.6c0-3.9-0.9-7.2-2.7-9.8
		C68.8,364.1,66,362.3,62.1,361.2z M40.5,344.8h7.3c2.5,0,4.3,0.5,5.3,1.5c1,1,1.5,2.4,1.5,4.2c0,1.9-0.5,3.4-1.5,4.4
		c-1,1-2.8,1.5-5.4,1.5h-7.2V344.8z M55,379c-1.2,1.2-3.1,1.7-6,1.7h-8.4l0,0l0,0v-12.5h8.4c2.9,0,4.9,0.5,6.1,1.7
		c1.2,1.1,1.8,2.6,1.8,4.4C56.8,376.3,56.2,377.8,55,379z"/>
	<polygon class="st7" points="356.5,353.9 337.7,353.9 337.7,332.3 320.6,332.3 320.6,394 337.7,394 337.7,369 356.5,369 356.5,394 
		373.7,394 373.7,332.3 356.5,332.3 	"/>
	<polygon class="st7" points="402.3,378.8 402.3,332.3 384.3,332.3 384.3,394 430.3,394 430.3,378.8 	"/>
	<path class="st7" d="M95.2,332.4L73.3,394h18.4l2.8-10.2H115l2.9,10.2h18.8l-21.9-61.6H95.2z M111.2,370.5H98.4l6.4-22.2
		L111.2,370.5L111.2,370.5z"/>
	<path class="st7" d="M140.9,332.4V394h17.4V369l-0.1-1.8l15.7-0.2l0,0c4.1-0.2,11.5,0.2,14.2-1.3c4-2.1,3.4-11.5,3.4-16.3
		c0-6.3,0.3-12.2-3.4-14.9c-3.8-2.8-11.7-2.2-18.3-2.2h-18l-10.8,0 M170.2,356.5c-2.3,0.5-3.8,0.8-4.6,0.8h-7.3v-12.5h7.6
		c3.2,0,5.3,0.5,6.5,1.6c1.1,1,1.7,2.6,1.7,4.6c0,1.4-0.4,2.6-1.1,3.6C172.3,355.6,171.3,356.2,170.2,356.5z"/>
	<path class="st7" d="M245.8,341.1c-2-2.8-4.6-5-7.8-6.5s-7.2-2.3-12.3-2.3h-25.7l0,0V394h25.7c3.1,0,6.5-0.5,10.3-1.7
		c2.8-0.8,5.4-2.4,7.8-4.9c2.4-2.4,4.3-5.5,5.7-9.1c1.4-3.6,2-8.8,2-15.3c0-4.2-0.5-8.2-1.4-12C249.3,347.2,247.9,343.9,245.8,341.1
		z M233,374c-0.9,2.2-2.1,3.8-3.6,4.6c-1.5,0.9-4.1,1.3-7.7,1.3h-4.3v-33.7l0,0l0,0h4.3c4.5,0,7.7,1.2,9.6,3.6
		c1.9,2.4,2.9,6.9,2.9,13.4C234.3,368.3,233.8,371.8,233,374z"/>
	<path class="st7" d="M275.1,332.4l-22,61.6h18.5l2.8-10.2H295l2.9,10.2h19l-22-61.6H275.1z M291.2,370.5h-12.9l6.5-22.2
		L291.2,370.5L291.2,370.5z"/>
</g>
<g>
	<path class="st12" d="M224.9,496.6c17.8-23.7,42.6-28.5,73.3-31.4c36.3-3.4,52.5-7.2,73.3-30.3c13-14.5,22.1-38,22.1-59.4
		c0-14.9-0.8-27.2-8.1-48.5c-15.8-45.7-20.8-62.8,15.5-104.7l-75.6-75.6c-16.3,13.6-51.6,37.2-100.5-1.5
		c-49.3,39.2-83.4,14.7-100.5,1.5l-75.6,75.7c36.1,41.9,32.7,59.2,15.5,104.7c-7.8,20.6-8.1,34.1-8.1,48.5
		c0,21.4,8.3,44.8,22.1,59.4c21.5,22.7,37.6,26.8,73.3,30.3C183.4,468.3,207,473.3,224.9,496.6L224.9,496.6z"/>
	<path d="M224.9,487.3c18.2-20.6,45.8-25.1,73.7-27.9c34.9-3.5,48.5-7.1,67.9-27.9c12.5-13.5,21-34.5,21-55.9
		c0-14.3-2.3-31.7-8.9-49.6c-18.1-48.9-14-69,14.4-103.2l-68.3-68.3c0,0-43.8,40.7-99.7-2.3c-55.5,43.1-99.7,2.3-99.7,2.3
		l-68.3,68.3c29.1,34.1,33.2,54.7,14.4,103.2c-7,18-8.9,35.3-8.9,49.6c0,20.9,8.3,43,21,55.9c20,20.4,33.1,24.1,67.9,27.9
		C179.1,462.5,206.7,466.7,224.9,487.3L224.9,487.3z"/>
	<path class="st12" d="M224.9,470.6c28.3-18.2,42.7-17.8,71.8-22.1c25.2-3.7,41.8-5.7,60.1-24c26-26,23.5-62.9,7.8-104.7
		c-18.2-48.5-2.1-76.8,13.2-96.2l-54.3-54.3c0,0-42.7,33.7-98.5-2.7c-55.9,36.5-98.5,2.7-98.5,2.7L72,223.5
		c15.2,19.4,31.8,47.3,13.2,96.2c-16,42-17.8,78.7,7.8,104.7c18.2,18.5,34.6,20.4,60.1,24C183,452.8,196.6,452.4,224.9,470.6z"/>
	<path class="st13" d="M224.9,453.2c30.7-17,49.4-15.3,83.8-20.6c73.3-11.2,49.6-85,49.6-85c0.4-7-18.2-41.1-15.9-75.3H107.4
		c2.7,33.7-15.5,68.3-15.9,75.3c0,0-23.3,73.3,49.6,85C177.8,438.5,194.2,436.2,224.9,453.2z"/>
	<g>
		<rect x="185.3" y="206.7" width="9.9" height="48.9"/>
		<polygon points="165.9,226.1 156.4,226.1 156.4,206.7 147.3,206.7 147.3,255.6 156.4,255.6 156.4,234.7 165.9,234.7 165.9,255.6 
			175.4,255.6 175.4,206.7 165.9,206.7 		"/>
		<path d="M123,206.5h-9.9v49.3h9.9v-16.1c2.8-0.1,18.9,1.6,19.3-15.8C142.8,204.7,126.4,206.5,123,206.5z M123,231.6V214
			c2,0,10.1-1.1,10.2,8.7C133.2,233.6,124.5,231.6,123,231.6z"/>
		<path d="M338.3,243c-0.2-5.5-3.6-10.5-8.7-13.6c-5.6-3.5-12.4-7.4-12.5-11.1c-0.1-6.7,10.5-8.3,10.5,2.5h9.7
			c0.2-6.9-0.8-15.7-14.8-15.7S308,215.7,308,218.5c-0.2,10.2,7.7,13.3,14.7,17.5c6.2,3.7,5.5,7.4,5.5,7.4
			c-0.1,7.8-11.3,9.3-11.3-2.7h-9.3c0,5.9,1.2,16.2,15.1,16.2C336.2,256.8,338.4,247.8,338.3,243z"/>
		<polygon points="214.9,206.6 205.1,206.6 205.1,255.5 225.6,255.5 225.6,247.9 214.9,247.9 		"/>
		<path d="M285.4,206.5h-9.9v49.3h9.9v-16.1c2.8-0.1,18.9,1.6,19.3-15.8C305.1,204.7,288.8,206.5,285.4,206.5z M285.4,231.6V214
			c2,0,10.1-1.1,10.2,8.7C295.6,233.6,286.8,231.6,285.4,231.6z"/>
		<polygon points="240.4,206.7 230.5,206.7 230.5,255.6 251.1,255.6 251.1,248 240.4,248 		"/>
		<rect x="255.9" y="206.7" width="9.9" height="48.8"/>
	</g>
	<path class="st12" d="M321.7,325.4c1.7-5-0.7-22.2-17.8-27.9c-32-10.7-56.4,6-69,41.3c-3.9,11-7.7,23-8.3,33.8
		c-0.7,13.4,3.4,25.1,18.2,30.8c16.8,6.4,45.2,3.9,58.2-17.5c2.5-4.2,4.6-8.7,6.2-13.3c5.2-15.3,4.4-32.1-11.5-37.8
		c-18.3-6.6-30,3.2-30,3.2s7.9-26,20.1-26c8,0,6.2,11.4,6.2,11.4L321.7,325.4L321.7,325.4z M274.5,349.6c9.3,1.9,6.1,14.2,2.9,23
		c0,0,0,0.1,0,0.1c-3.3,8.9-9.8,18.5-17.9,16.3c-5.3-1.4-5.3-9-3.4-16.4c0.7-2.9,1.7-5.7,2.9-8.4
		C262.4,356.4,267.6,348.2,274.5,349.6L274.5,349.6z M201.6,297.4c-33-10.9-56.6,6.8-69,41.3c-3.9,11-7.7,23-8.3,33.8
		c-0.7,13.4,3.4,25.1,18.2,30.8c16.8,6.4,45.2,3.9,58.2-17.5c2.5-4.2,4.6-8.7,6.2-13.3c5.2-15.3,4.4-32.1-11.5-37.8
		c-18.3-6.6-30,3.2-30,3.2s7.9-26,20.1-26c8,0,6.2,11.4,6.2,11.4l27.7,2C221.1,320.4,218.7,303.1,201.6,297.4z M172.3,349.6
		c9.3,1.9,6.1,14.2,2.9,23l0,0.1c-3.3,8.9-9.8,18.5-17.9,16.3c-5.3-1.4-5.2-9-3.2-16.4c0.8-2.9,1.8-5.7,3-8.4
		C160.4,356.4,165.4,348.2,172.3,349.6L172.3,349.6z"/>
</g>
</svg>
