<?xml version="1.0" encoding="UTF-8"?>
<!DOCTYPE svg PUBLIC "-//W3C//DTD SVG 1.1//EN" "http://www.w3.org/Graphics/SVG/1.1/DTD/svg11.dtd">
<!-- Creator: CorelDRAW X7 -->
<svg xmlns="http://www.w3.org/2000/svg" xml:space="preserve" width="100%" height="100%" version="1.1" style="shape-rendering:geometricPrecision; text-rendering:geometricPrecision; image-rendering:optimizeQuality; fill-rule:evenodd; clip-rule:evenodd"
viewBox="0 0 2060 2060"
 xmlns:xlink="http://www.w3.org/1999/xlink">
 <defs>
  <style type="text/css">
   <![CDATA[
    .str0 {stroke:#FFF;stroke-width:7.62}
    .fil2 {fill:none}
    .fil1 {fill:#FFF}
    .fil0 {fill:#FFF;fill-rule:nonzero}
   ]]>
  </style>
 </defs>
 <g id="Слой_x0020_1">
  <metadata id="CorelCorpID_0Corel-Layer"/>
  <g id="_379175208">
   <g>
    <path class="fil0" d="M1572 1876c-45,30 -94,53 -145,69 -52,16 -106,24 -160,24 -150,0 -286,-61 -385,-160 -99,-99 -160,-235 -160,-386 0,-119 40,-232 107,-324 68,-92 165,-162 279,-197l22 71c-99,31 -182,91 -240,171 -59,79 -93,176 -93,279 0,130 53,248 138,333 85,85 203,138 332,138 48,0 94,-7 138,-20 44,-14 88,-32 127,-58l40 60z"/>
    <path class="fil1" d="M1179 423c85,6 168,21 249,48l178 -277 -188 70 -33 -175 -110 145 -119 -162 23 351z"/>
    <path class="fil0" d="M1188 413c40,3 80,9 119,16 40,8 78,18 117,30l158 -245 -161 59 -11 4 -2 -11 -29 -153 -96 127 -8 11 -8 -11 -98 -135 19 308zm115 36c-41,-8 -82,-13 -125,-16l-8 -1 -1 -9 -23 -351 -2 -34 20 28 112 151 101 -134 13 -18 4 22 31 163 178 -65 28 -10 -16 25 -179 276 -4 7 -7 -3c-40,-13 -80,-23 -122,-31zm278 1424c-67,45 -148,89 -226,112 -77,24 -158,36 -239,36 -226,0 -431,-92 -579,-240 -148,-148 -240,-353 -240,-579 0,-226 92,-431 240,-580 148,-148 353,-240 579,-240l14 0c5,1 10,1 14,1l-2 74c-5,0 -9,0 -13,0l-13 0c-206,0 -392,83 -526,218 -135,135 -218,321 -218,527 0,205 83,392 218,526 134,135 320,218 526,218 74,0 148,-11 217,-32 70,-22 137,-53 199,-95l49 54zm-694 -251c-4,-18 -7,-36 -10,-53 -2,-18 -3,-37 -3,-55 0,-122 50,-233 130,-314 81,-80 192,-130 314,-130 123,0 234,50 314,130 81,81 130,192 130,314 0,74 -18,146 -52,209 -33,63 -82,119 -143,160l-42 -62c51,-34 91,-80 119,-133 28,-53 43,-112 43,-174 0,-102 -41,-194 -108,-261 -66,-67 -159,-108 -261,-108 -102,0 -194,41 -261,108 -67,67 -108,159 -108,261l-62 108zm-470 -840c38,-64 82,-122 133,-173 73,-74 160,-131 261,-169 -10,-24 -22,-47 -37,-68 -18,-26 -39,-49 -65,-70 -111,57 -189,136 -236,234 -34,72 -52,154 -56,246zm186 -120c-75,75 -136,170 -185,281l-57 130 -14 -142c-16,-165 2,-308 59,-427 57,-120 153,-214 291,-280l20 -9 18 13c41,29 74,63 100,101 26,38 46,79 60,122l12 36 -36 11c-106,34 -194,90 -268,164zm1047 -74c-15,155 -71,262 -164,326 -91,64 -216,82 -372,61l-20 -3 -9 -18c-44,-92 -65,-184 -61,-277 4,-92 33,-184 87,-276l12 -20 22 2c103,6 198,20 281,47 85,28 158,70 214,129l12 13 -2 16zm-206 265c71,-49 115,-133 130,-255 -46,-43 -103,-74 -171,-96 -71,-23 -151,-37 -239,-43 -41,74 -62,148 -65,221 -3,74 12,149 45,223 128,15 228,-1 300,-50zm-90 -65c-25,0 -47,-10 -63,-26l0 0 0 0c-16,-16 -26,-38 -26,-62 0,-25 10,-47 26,-63l0 0 0 0c16,-16 38,-26 63,-26 24,0 46,10 62,26l0 0 0 0c16,16 26,38 26,63 0,24 -10,46 -26,62l0 0 0 0c-16,16 -38,26 -62,26zm-10 -79c2,3 6,4 10,4 3,0 7,-1 9,-4l0 0c2,-2 4,-6 4,-9 0,-4 -2,-8 -4,-10l0 0c-2,-2 -6,-4 -9,-4 -4,0 -8,2 -10,4l0 0c-2,2 -4,6 -4,10 0,3 2,7 4,9l0 0z"/>
    <circle class="fil1 str0" cx="1318" cy="1514" r="197"/>
    <path class="fil0" d="M1318 1749c-64,0 -123,-27 -165,-69 -43,-42 -69,-101 -69,-166 0,-64 26,-123 69,-165 42,-43 101,-69 165,-69 65,0 124,26 166,69 42,42 69,101 69,165 0,65 -27,124 -69,166 -42,42 -101,69 -166,69zm-112 -122c28,29 68,47 112,47 44,0 84,-18 113,-47 29,-29 47,-69 47,-113 0,-44 -18,-83 -47,-112 -29,-29 -69,-47 -113,-47 -44,0 -84,18 -112,47 -29,29 -47,68 -47,112 0,44 18,84 47,113z"/>
    <circle class="fil1" cx="1353" cy="700" r="51"/>
   </g>
   <rect class="fil2" width="2060" height="2060"/>
  </g>
 </g>
</svg>
