<?xml version="1.0" encoding="UTF-8"?>
<!DOCTYPE svg PUBLIC "-//W3C//DTD SVG 1.1//EN" "http://www.w3.org/Graphics/SVG/1.1/DTD/svg11.dtd">
<!-- Creator: CorelDRAW X7 -->
<svg xmlns="http://www.w3.org/2000/svg" xml:space="preserve" width="324px" height="686px" version="1.1" style="shape-rendering:geometricPrecision; text-rendering:geometricPrecision; image-rendering:optimizeQuality; fill-rule:evenodd; clip-rule:evenodd"
viewBox="0 0 38233 80963"
 xmlns:xlink="http://www.w3.org/1999/xlink">
 <defs>
  <style type="text/css">
   <![CDATA[
    .fil0 {fill:black;fill-opacity:0.200000}
    .fil1 {fill:black;fill-rule:nonzero;fill-opacity:0.200000}
   ]]>
  </style>
 </defs>
 <g id="Слой_x0020_1">
  <metadata id="CorelCorpID_0Corel-Layer"/>
  <path class="fil0" d="M33121 80963l-27499 0c-2822,0 -5111,-2288 -5111,-5111l0 -47331 -204 0c-170,0 -307,-137 -307,-307l0 -2044c0,-169 137,-307 307,-307l204 0 0 -3987 -204 0c-170,0 -307,-137 -307,-306l0 -2045c0,-169 137,-306 307,-306l204 0 0 -4192 -204 0c-170,0 -307,-137 -307,-306l0 -2863c0,-169 137,-306 307,-306l204 0 0 -5827c0,-2823 2289,-5112 5111,-5112l20446 0 0 -306c0,-170 137,-307 306,-307l5316 0c169,0 307,137 307,307l0 306 1124 0c2823,0 5112,2289 5112,5112l0 70127c0,2823 -2289,5111 -5112,5111zm4907 -75238l0 0c0,-2710 -2197,-4907 -4907,-4907l-27499 0c-2710,0 -4906,2197 -4906,4907l0 70127c0,2710 2196,4907 4906,4907l27499 0c2710,0 4907,-2197 4907,-4907l0 -70127z"/>
  <g id="_469401960">
   <path class="fil1" d="M22081 6440c394,0 715,321 715,716 0,394 -321,715 -715,715l-5520 0c-395,0 -716,-321 -716,-715 0,-395 321,-716 716,-716l5520 0zm0 -102l0 0 -5520 0c-452,0 -818,366 -818,818 0,451 366,818 818,818l5520 0c451,0 818,-367 818,-818 0,-452 -367,-818 -818,-818z"/>
  </g>
  <g id="_469388568">
   <path class="fil1" d="M19321 3578c394,0 715,321 715,716 0,394 -321,715 -715,715 -395,0 -716,-321 -716,-715 0,-395 321,-716 716,-716zm0 -102l0 0c-452,0 -818,366 -818,818 0,451 366,817 818,817 451,0 818,-366 818,-817 0,-452 -367,-818 -818,-818z"/>
  </g>
  <g id="_469402224">
   <path class="fil1" d="M19321 72079c1916,0 3475,1559 3475,3476 0,1916 -1559,3475 -3475,3475 -1917,0 -3476,-1559 -3476,-3475 0,-1917 1559,-3476 3476,-3476zm0 -102l0 0c-1976,0 -3578,1602 -3578,3578 0,1976 1602,3578 3578,3578 1976,0 3578,-1602 3578,-3578 0,-1976 -1602,-3578 -3578,-3578z"/>
  </g>
 </g>
</svg>
