<?xml version="1.0" encoding="UTF-8"?>
<!DOCTYPE svg PUBLIC "-//W3C//DTD SVG 1.1//EN" "http://www.w3.org/Graphics/SVG/1.1/DTD/svg11.dtd">
<!-- Creator: CorelDRAW X7 -->
<svg xmlns="http://www.w3.org/2000/svg" xml:space="preserve" width="700px" height="431px" version="1.1" style="shape-rendering:geometricPrecision; text-rendering:geometricPrecision; image-rendering:optimizeQuality; fill-rule:evenodd; clip-rule:evenodd"
viewBox="0 0 50499 31096"
 xmlns:xlink="http://www.w3.org/1999/xlink">
 <defs>
  <style type="text/css">
   <![CDATA[
    .str0 {stroke:#CCCCCC;stroke-width:111.586}
    .fil0 {fill:none}
   ]]>
  </style>
 </defs>
 <g id="Слой_x0020_1">
  <metadata id="CorelCorpID_0Corel-Layer"/>
  <rect class="fil0 str0" x="4863" y="3223" width="40689" height="23712"/>
  <path class="fil0 str0" d="M47414 28561l-44337 0 0 -26426c0,-1144 935,-2079 2078,-2079l40180 0c1144,0 2079,935 2079,2079l0 26426z"/>
  <path class="fil0 str0" d="M50443 29736l-50387 0 0 -936c0,-133 109,-242 242,-242l49903 0c133,0 242,109 242,242l0 936z"/>
  <path class="fil0 str0" d="M50443 29736l-50387 0 0 0c0,737 2285,1305 2946,1304l44710 -12c661,0 2731,-555 2731,-1292l0 0z"/>
  <path class="fil0 str0" d="M31336 28561l-12181 0 0 239c0,178 145,323 323,323l11534 0c178,0 324,-145 324,-323l0 -239z"/>
  <circle class="fil0 str0" cx="25330" cy="1602" r="1134"/>
 </g>
</svg>
