<?xml version="1.0" encoding="UTF-8"?>
<!DOCTYPE svg PUBLIC "-//W3C//DTD SVG 1.1//EN" "http://www.w3.org/Graphics/SVG/1.1/DTD/svg11.dtd">
<!-- Creator: CorelDRAW X7 -->
<svg xmlns="http://www.w3.org/2000/svg" xml:space="preserve" width="324px" height="688px" version="1.1" style="shape-rendering:geometricPrecision; text-rendering:geometricPrecision; image-rendering:optimizeQuality; fill-rule:evenodd; clip-rule:evenodd"
viewBox="0 0 162673 345308"
 xmlns:xlink="http://www.w3.org/1999/xlink">
 <defs>
  <style type="text/css">
   <![CDATA[
    .str1 {stroke:#E9EAEA;stroke-width:108.377}
    .str0 {stroke:#F5F5F6;stroke-width:108.377}
    .fil2 {fill:#E9EAEA}
    .fil1 {fill:#E9EAEA}
    .fil0 {fill:#F5F5F6}
   ]]>
  </style>
 </defs>
 <g id="Слой_x0020_1">
  <metadata id="CorelCorpID_0Corel-Layer"/>
  <g id="_370187816">
   <path class="fil0 str0" d="M141001 345254l-117823 0c-11890,0 -21619,-9729 -21619,-21619l0 -299572c0,-11890 9729,-21619 21619,-21619l117823 0c11890,0 21618,9729 21618,21619l0 299572c0,11890 -9728,21619 -21618,21619z"/>
   <path class="fil1 str1" d="M69665 27507l24284 0c1821,0 3311,1490 3311,3311l0 1c0,1821 -1490,3311 -3311,3311l-24284 0c-1822,0 -3312,-1490 -3312,-3311l0 -1c0,-1821 1490,-3311 3312,-3311z"/>
   <path class="fil1 str1" d="M82065 16499c1715,0 3105,1389 3105,3104 0,1715 -1390,3104 -3105,3104 -1714,0 -3104,-1389 -3104,-3104 0,-1715 1390,-3104 3104,-3104z"/>
   <path class="fil2 str1" d="M83472 308043c6186,0 11200,5015 11200,11201 0,6185 -5014,11200 -11200,11200 -6186,0 -11200,-5015 -11200,-11200 0,-6186 5014,-11201 11200,-11201z"/>
   <path class="fil1 str1" d="M908 102892l651 0 0 12563 -651 0c-469,0 -853,-384 -853,-853l0 -10857c0,-470 384,-853 853,-853z"/>
   <path class="fil1 str1" d="M920 82930l639 0 0 12742 -639 0c-470,0 -854,-384 -854,-854l0 -11035c0,-470 384,-853 854,-853z"/>
   <path class="fil1 str1" d="M908 50362l651 0 0 16349 -651 0c-470,0 -854,-384 -854,-854l0 -14642c0,-469 384,-853 854,-853z"/>
   <path class="fil1 str1" d="M113721 54l23041 0c1241,0 2256,1016 2256,2257l0 133 -27553 0 0 -133c0,-1241 1015,-2257 2256,-2257z"/>
  </g>
 </g>
</svg>
