<svg xmlns="http://www.w3.org/2000/svg" viewBox="0 0 70 32.9"><g fill="#242323"><path d="M0 24.5V.5h3.8l7.7 17.9L19.1.5h3.8v24H19V9.6l-6 14.8h-3L4 9.6v14.8H0zM26.9 26.3h3.6c0 .9.3 1.7.9 2.3.6.6 1.6 1 2.9 1 1.4 0 2.4-.3 3-1 .7-.7 1-1.8 1-3.3v-3c-.5.9-1.2 1.5-2.1 2-.9.4-1.9.7-3.1.7-1.2 0-2.1-.2-2.9-.6-.8-.4-1.4-.9-1.9-1.6-.4-.6-.7-1.3-.8-2-.1-.7-.2-1.7-.2-2.7V8.5H31v8.3c0 .7.1 1.3.2 1.9.1.6.3 1.1.6 1.5.3.4.6.8 1.1 1 .4.3 1 .4 1.7.4 1.3 0 2.3-.5 2.9-1.4.6-.9.9-2.1.9-3.5V8.5h3.7v16.7c0 2.7-.7 4.7-2.1 5.9-1.4 1.2-3.5 1.8-6.1 1.8-1 0-2-.2-2.8-.5-.8-.4-1.6-.8-2.2-1.4-.6-.6-1.1-1.3-1.4-2.1-.4-.9-.6-1.8-.6-2.6zM46.3 24.5V.5H50v24h-3.7zM53.1 16.5c0-1.1.2-2.2.6-3.2.4-1 1-1.9 1.7-2.7.7-.8 1.6-1.4 2.6-1.8 1-.4 2.2-.7 3.5-.7 1.3 0 2.4.2 3.5.7 1 .4 1.9 1.1 2.7 1.8.7.8 1.3 1.7 1.7 2.7.4 1 .6 2.1.6 3.2s-.2 2.2-.6 3.2c-.4 1-1 1.9-1.7 2.7-.7.8-1.6 1.4-2.7 1.8-1 .4-2.2.7-3.5.7-1.3 0-2.4-.2-3.5-.7-1-.4-1.9-1.1-2.6-1.8-.7-.8-1.3-1.7-1.7-2.7-.4-1-.6-2.1-.6-3.2zm3.8 0c0 .7.1 1.3.3 2 .2.6.5 1.2.9 1.6.4.5.9.8 1.5 1.1.6.3 1.2.4 1.9.4s1.3-.1 1.9-.4c.6-.3 1.1-.6 1.5-1.1.4-.5.7-1 1-1.6.2-.6.3-1.3.3-2s-.1-1.3-.3-1.9c-.2-.6-.5-1.2-1-1.6-.4-.5-.9-.8-1.5-1.1-.6-.3-1.2-.4-1.9-.4s-1.3.1-1.9.4c-.6.3-1.1.6-1.5 1.1-.4.5-.7 1-.9 1.6-.2.5-.3 1.2-.3 1.9z"/></g><g fill="#EA8857"><path d="M26.4 2.7c0-.8.3-1.4.8-2 .6-.4 1.2-.7 2-.7s1.4.3 2 .8c.5.5.8 1.2.8 1.9 0 .8-.3 1.4-.8 1.9s-1.2.8-2 .8-1.4-.3-1.9-.8c-.6-.5-.9-1.1-.9-1.9zM37.5 2.7c0-.8.3-1.4.8-2 .6-.4 1.2-.7 1.9-.7.8 0 1.4.3 2 .8.5.5.8 1.2.8 1.9 0 .8-.3 1.4-.8 1.9s-1.2.8-2 .8-1.4-.3-1.9-.8-.8-1.1-.8-1.9z"/></g></svg>