<?xml version="1.0" encoding="UTF-8"?>
<!DOCTYPE svg PUBLIC "-//W3C//DTD SVG 1.1//EN" "http://www.w3.org/Graphics/SVG/1.1/DTD/svg11.dtd">
<!-- Creator: CorelDRAW X7 -->
<svg xmlns="http://www.w3.org/2000/svg" xml:space="preserve" width="228px" height="93px" version="1.1" style="shape-rendering:geometricPrecision; text-rendering:geometricPrecision; image-rendering:optimizeQuality; fill-rule:evenodd; clip-rule:evenodd"
viewBox="0 0 4158 1691"
 xmlns:xlink="http://www.w3.org/1999/xlink">
 <defs>
  <style type="text/css">
   <![CDATA[
    .fil1 {fill:#86C9B7;fill-rule:nonzero}
    .fil2 {fill:#EB7D6C;fill-rule:nonzero}
    .fil0 {fill:#EB7D6C}
   ]]>
  </style>
 </defs>
 <g id="Слой_x0020_1">
  <metadata id="CorelCorpID_0Corel-Layer"/>
  <g id="_463716136">
   <path class="fil0" d="M1675 826l327 0 0 441 -288 -32 -39 -409zm804 0l-52 488 -329 -36 27 -452 354 0z"/>
   <path class="fil1" d="M699 1142l-196 35c-6,-39 -21,-68 -45,-88 -23,-19 -53,-29 -91,-29 -49,0 -89,17 -118,51 -30,35 -44,92 -44,172 0,90 15,153 44,190 30,37 71,55 121,55 38,0 69,-11 92,-32 25,-22 42,-59 51,-111l196 33c-20,90 -59,158 -116,204 -58,46 -135,69 -232,69 -110,0 -198,-35 -263,-104 -65,-70 -98,-166 -98,-289 0,-125 33,-222 98,-291 66,-69 155,-104 267,-104 91,0 164,20 218,59 54,40 92,100 116,180z"/>
   <path id="1" class="fil1" d="M1046 633l0 385c65,-76 142,-115 232,-115 46,0 87,9 124,25 37,18 65,39 84,66 19,26 32,55 39,88 7,32 10,81 10,149l0 441 -199 0 0 -397c0,-79 -4,-129 -11,-150 -8,-22 -21,-38 -41,-51 -19,-12 -43,-19 -73,-19 -33,0 -63,8 -89,25 -26,16 -45,40 -58,72 -12,32 -18,80 -18,143l0 377 -199 0 0 -1039 199 0z"/>
   <polygon id="2" class="fil1" points="2541,1672 2541,1473 2740,1473 2740,1672 "/>
   <path id="3" class="fil1" d="M3289 919l0 158 -136 0 0 305c0,62 1,98 4,108 2,10 8,19 17,25 10,7 21,10 34,10 19,0 45,-6 80,-19l17 155c-46,20 -98,30 -157,30 -36,0 -68,-6 -97,-18 -28,-13 -49,-28 -63,-47 -13,-20 -22,-46 -28,-78 -4,-24 -6,-71 -6,-141l0 -330 -91 0 0 -158 91 0 0 -149 199 -118 0 267 136 0z"/>
   <path id="4" class="fil1" d="M3382 1286c0,-66 16,-130 49,-192 32,-62 79,-109 138,-142 60,-32 126,-49 200,-49 114,0 207,37 280,111 73,74 109,168 109,281 0,114 -37,208 -110,283 -74,75 -166,113 -277,113 -69,0 -135,-16 -198,-47 -62,-31 -110,-77 -142,-137 -33,-61 -49,-134 -49,-221zm204 11c0,75 18,132 53,172 36,39 79,59 131,59 52,0 96,-20 131,-59 35,-40 52,-98 52,-174 0,-73 -17,-130 -52,-170 -35,-40 -79,-59 -131,-59 -52,0 -95,19 -131,59 -35,40 -53,97 -53,172z"/>
   <path class="fil0" d="M2218 689c497,-143 -61,-748 -118,-78l-1 0 1 -19c26,-1122 1009,-147 118,97l0 0zm-334 -36c-506,-206 177,-665 172,-70l0 0c52,-1175 -1130,-266 -172,70l0 0zm-856 -195c271,187 677,270 976,279 -304,-69 -594,-248 -803,-503l4 175 -177 49zm1906 75c-261,-93 -463,106 -799,203 319,-43 573,-157 690,-32l5 -94 104 -77z"/>
   <path class="fil2" d="M2214 1415l199 33c-53,152 -169,224 -327,224 -228,0 -349,-138 -364,-346l205 37c10,88 67,159 161,159 71,0 108,-42 126,-107z"/>
  </g>
 </g>
</svg>
