<?xml version="1.0" encoding="UTF-8"?>
<!DOCTYPE svg PUBLIC "-//W3C//DTD SVG 1.1//EN" "http://www.w3.org/Graphics/SVG/1.1/DTD/svg11.dtd">
<!-- Creator: CorelDRAW X7 -->
<svg xmlns="http://www.w3.org/2000/svg" xml:space="preserve" width="100%" height="100%" version="1.1" style="shape-rendering:geometricPrecision; text-rendering:geometricPrecision; image-rendering:optimizeQuality; fill-rule:evenodd; clip-rule:evenodd"
viewBox="0 0 71034 71029"
 xmlns:xlink="http://www.w3.org/1999/xlink">
 <defs>
  <style type="text/css">
   <![CDATA[
    .fil1 {fill:none}
    .fil0 {fill:#66757F;fill-rule:nonzero}
   ]]>
  </style>
 </defs>
 <g id="Слой_x0020_1">
  <metadata id="CorelCorpID_0Corel-Layer"/>
  <path class="fil0" d="M52547 2384c273,-477 882,-641 1359,-367 477,274 641,883 367,1359l-37683 65270c-274,476 -883,641 -1360,367 -476,-274 -641,-883 -367,-1359l37684 -65270zm10798 51774l-5176 0 0 -2000 5176 0c8641,-318 6210,-11856 881,-11803 1453,-11482 -17362,-15238 -21042,-3331 -866,-1592 -2140,-2403 -3389,-2596l1045 -1811c609,174 1209,448 1776,832 2890,-4715 8498,-6496 13743,-5420 5297,1086 9765,5018 9936,10709 1876,722 3318,2411 4094,4426 767,1990 894,4314 138,6327 -952,2535 -3184,4515 -7112,4659l-70 8zm-31263 -6371c449,2367 2017,4371 4963,4371l5124 0 0 2000 -5124 0c-3229,0 -5274,-1711 -6311,-4036l1348 -2335zm12080 11865l5331 5331 0 -22436 2000 0 0 22436 5331 -5331 1414 1414 -7038 7038 -707 707 -707 -707 -7038 -7038 1414 -1414zm-34315 -47511l5331 -5331 0 22436 2000 0 0 -22436 5331 5331 1414 -1414 -7038 -7038 -707 -707 -707 707 -7038 7038 1414 1414zm-6882 -150l2882 0 0 2000 -2882 0c-425,0 -772,347 -772,772l0 26426c0,425 347,772 772,772l23283 0 -1155 2000 -22128 0c-1529,0 -2772,-1243 -2772,-2772l0 -26426c0,-1518 1254,-2772 2772,-2772zm27198 23189l0 -20417c0,-425 -348,-772 -772,-772l-2822 0 0 -2000 2822 0c1528,0 2772,1243 2772,2772l0 16953 -2000 3464z"/>
  <rect class="fil1" width="71029" height="71029"/>
 </g>
</svg>
