<?xml version="1.0" encoding="UTF-8"?>
<!DOCTYPE svg PUBLIC "-//W3C//DTD SVG 1.1//EN" "http://www.w3.org/Graphics/SVG/1.1/DTD/svg11.dtd">
<!-- Creator: CorelDRAW X7 -->
<svg xmlns="http://www.w3.org/2000/svg" xml:space="preserve" width="100%" height="100%" version="1.1" style="shape-rendering:geometricPrecision; text-rendering:geometricPrecision; image-rendering:optimizeQuality; fill-rule:evenodd; clip-rule:evenodd"
viewBox="0 0 17639 17639"
 xmlns:xlink="http://www.w3.org/1999/xlink">
 <defs>
  <style type="text/css">
   <![CDATA[
    .str0 {stroke:#ABD7EF;stroke-width:200;stroke-linecap:round}
    .fil0 {fill:none}
    .fil2 {fill:#5B5B5B}
    .fil4 {fill:#FEFEFE;fill-rule:nonzero}
    .fil1 {fill:#5B5B5B;fill-rule:nonzero}
    .fil3 {fill:#ABD7EF;fill-rule:nonzero}
   ]]>
  </style>
 </defs>
 <g id="Слой_x0020_1">
  <metadata id="CorelCorpID_0Corel-Layer"/>
  <g id="_716411224">
   <rect class="fil0" width="17639" height="17639"/>
   <path class="fil1" d="M10538 11814c-40,-20 -75,-46 -74,-133l0 -1 1 -30 -1 0 0 -8156c0,-449 -184,-858 -480,-1154 -296,-297 -705,-481 -1155,-481 -449,0 -858,184 -1154,481 -296,296 -480,705 -480,1154l0 8156 -1 0 0 34 1 0c0,85 -36,111 -75,131 -320,254 -583,579 -765,952 -176,363 -276,771 -276,1203 0,759 308,1447 806,1944 498,498 1185,806 1944,806 760,0 1447,-308 1945,-806 498,-497 805,-1185 805,-1944 0,-432 -99,-840 -276,-1203 -182,-373 -445,-699 -765,-953zm226 -201c338,277 616,626 809,1022 196,404 306,856 306,1335 0,842 -341,1604 -893,2156 -552,552 -1314,894 -2157,894 -842,0 -1604,-342 -2156,-894 -552,-552 -894,-1314 -894,-2156 0,-478 111,-931 307,-1334 193,-397 470,-745 809,-1023l0 -8119c0,-532 217,-1016 568,-1367 351,-350 834,-568 1366,-568 533,0 1016,218 1367,568 351,351 568,835 568,1367l0 8119z"/>
   <path class="fil2" d="M9939 11981c696,389 1167,1134 1167,1989 0,1257 -1019,2277 -2277,2277 -1257,0 -2276,-1020 -2276,-2277 0,-855 471,-1600 1167,-1989l0 -2771 2219 -2053 0 4824z"/>
   <path class="fil1" d="M3079 11391c614,0 1171,249 1573,652 403,402 652,959 652,1573 0,615 -249,1171 -652,1573 -402,403 -959,652 -1573,652 -614,0 -1171,-249 -1573,-652 -403,-402 -652,-958 -652,-1573 0,-614 249,-1171 652,-1573 402,-403 959,-652 1573,-652zm1467 758c-375,-376 -894,-608 -1467,-608 -573,0 -1092,232 -1467,608 -376,375 -608,894 -608,1467 0,573 232,1092 608,1467 375,376 894,608 1467,608 573,0 1092,-232 1467,-608 376,-375 608,-894 608,-1467 0,-573 -232,-1092 -608,-1467z"/>
   <path class="fil1" d="M14563 709c615,0 1171,250 1573,652 403,403 652,959 652,1573 0,615 -249,1171 -652,1574 -402,402 -958,652 -1573,652 -614,0 -1171,-250 -1573,-652 -403,-403 -652,-959 -652,-1574 0,-614 249,-1170 652,-1573 402,-402 959,-652 1573,-652zm1467 758c-375,-375 -894,-608 -1467,-608 -573,0 -1092,233 -1467,608 -376,376 -608,894 -608,1467 0,573 232,1092 608,1468 375,375 894,608 1467,608 573,0 1092,-233 1467,-608 376,-376 608,-895 608,-1468 0,-573 -232,-1091 -608,-1467z"/>
   <polygon class="fil1" points="13105,4524 4758,12264 4554,12045 12901,4304 "/>
   <g>
    <g>
     <g>
      <line class="fil0 str0" x1="3079" y1="12166" x2="3079" y2= "13616" />
      <line class="fil0 str0" x1="2673" y1="12247" x2="3079" y2= "12439" />
      <line class="fil0 str0" x1="3485" y1="12247" x2="3079" y2= "12439" />
     </g>
     <g>
      <line class="fil0 str0" x1="3079" y1="15066" x2="3079" y2= "13616" />
      <line class="fil0 str0" x1="2673" y1="14985" x2="3079" y2= "14794" />
      <line class="fil0 str0" x1="3485" y1="14985" x2="3079" y2= "14794" />
     </g>
    </g>
    <g>
     <g>
      <line class="fil0 str0" x1="2054" y1="12591" x2="3079" y2= "13616" />
      <line class="fil0 str0" x1="1824" y1="12935" x2="2246" y2= "12784" />
      <line class="fil0 str0" x1="2398" y1="12361" x2="2246" y2= "12784" />
     </g>
     <g>
      <line class="fil0 str0" x1="4104" y1="14641" x2="3079" y2= "13616" />
      <line class="fil0 str0" x1="3760" y1="14871" x2="3912" y2= "14449" />
      <line class="fil0 str0" x1="4334" y1="14297" x2="3912" y2= "14449" />
     </g>
    </g>
    <g>
     <g>
      <line class="fil0 str0" x1="4104" y1="12591" x2="3079" y2= "13616" />
      <line class="fil0 str0" x1="3760" y1="12361" x2="3912" y2= "12784" />
      <line class="fil0 str0" x1="4334" y1="12935" x2="3912" y2= "12784" />
     </g>
     <g>
      <line class="fil0 str0" x1="2054" y1="14641" x2="3079" y2= "13616" />
      <line class="fil0 str0" x1="1824" y1="14297" x2="2246" y2= "14449" />
      <line class="fil0 str0" x1="2398" y1="14871" x2="2246" y2= "14449" />
     </g>
    </g>
    <g>
     <g>
      <line class="fil0 str0" x1="1629" y1="13616" x2="3079" y2= "13616" />
      <line class="fil0 str0" x1="1710" y1="14022" x2="1902" y2= "13616" />
      <line class="fil0 str0" x1="1710" y1="13210" x2="1902" y2= "13616" />
     </g>
     <g>
      <line class="fil0 str0" x1="4529" y1="13616" x2="3079" y2= "13616" />
      <line class="fil0 str0" x1="4448" y1="14022" x2="4256" y2= "13616" />
      <line class="fil0 str0" x1="4448" y1="13210" x2="4256" y2= "13616" />
     </g>
    </g>
   </g>
   <polygon class="fil3" points="1623,10468 1623,10228 2095,10228 2095,10468 "/>
   <path id="1" class="fil3" d="M2184 10480l240 -24c7,54 27,97 61,129 34,32 72,47 117,47 50,0 92,-20 127,-61 35,-41 52,-103 52,-186 0,-77 -17,-135 -52,-174 -34,-39 -79,-58 -134,-58 -70,0 -132,30 -187,91l-194 -28 123 -651 635 0 0 224 -453 0 -38 213c53,-27 108,-40 164,-40 107,0 197,39 272,117 74,77 111,178 111,302 0,104 -30,196 -90,278 -82,110 -195,166 -339,166 -116,0 -211,-31 -284,-94 -73,-62 -116,-145 -131,-251z"/>
   <path id="2" class="fil3" d="M3103 9848c0,-102 27,-181 81,-237 54,-56 125,-85 215,-85 89,0 161,29 215,85 54,57 81,136 81,237 0,101 -27,179 -81,236 -53,56 -125,85 -215,85 -90,0 -161,-28 -215,-85 -54,-56 -81,-135 -81,-236zm181 1c0,63 10,108 31,134 21,27 49,40 82,40 33,0 61,-13 82,-40 21,-26 32,-71 32,-134 0,-63 -11,-107 -32,-134 -21,-27 -49,-40 -82,-40 -33,0 -61,13 -82,39 -21,27 -31,72 -31,135z"/>
   <path id="3" class="fil3" d="M4429 10470l150 21c-17,103 -59,184 -127,242 -68,59 -151,88 -250,88 -124,0 -224,-40 -299,-121 -76,-81 -113,-198 -113,-349 0,-98 16,-183 48,-257 33,-73 82,-128 149,-164 66,-37 138,-55 216,-55 98,0 179,24 242,74 62,50 103,121 120,213l-149 22c-14,-61 -39,-106 -76,-137 -36,-31 -79,-46 -131,-46 -77,0 -140,27 -189,83 -49,55 -73,143 -73,263 0,122 24,210 70,265 47,56 108,83 183,83 61,0 111,-18 152,-55 40,-37 66,-94 77,-170z"/>
   <path class="fil3" d="M13771 5856c121,0 216,43 285,130 81,103 122,274 122,512 0,237 -41,408 -123,512 -68,86 -163,129 -284,129 -122,0 -220,-47 -295,-141 -75,-94 -112,-262 -112,-503 0,-236 41,-407 123,-510 68,-86 163,-129 284,-129zm0 200c-29,0 -54,9 -76,28 -23,18 -40,51 -53,99 -16,62 -24,167 -24,315 0,147 7,248 22,304 14,55 33,91 55,110 22,18 47,27 76,27 29,0 54,-9 77,-28 22,-18 39,-51 52,-99 16,-62 24,-167 24,-314 0,-148 -7,-249 -22,-304 -14,-55 -33,-92 -55,-110 -22,-19 -47,-28 -76,-28z"/>
   <path id="1" class="fil3" d="M14287 6162c0,-102 26,-181 80,-237 54,-56 126,-85 215,-85 90,0 161,29 215,85 54,57 81,136 81,237 0,101 -27,179 -80,236 -54,56 -126,85 -216,85 -89,0 -161,-28 -215,-85 -54,-56 -80,-135 -80,-236zm180 1c0,63 10,108 31,134 21,27 49,40 82,40 34,0 61,-13 82,-40 22,-26 32,-71 32,-134 0,-63 -10,-107 -32,-134 -21,-27 -48,-40 -82,-40 -33,0 -61,13 -82,39 -21,27 -31,72 -31,135z"/>
   <path id="2" class="fil3" d="M15612 6784l150 21c-16,103 -58,184 -126,242 -68,59 -152,88 -251,88 -124,0 -224,-40 -299,-121 -75,-81 -113,-198 -113,-349 0,-98 16,-183 49,-257 32,-73 81,-128 148,-164 66,-37 138,-55 216,-55 99,0 179,24 242,74 62,50 103,121 120,213l-149 22c-14,-61 -39,-106 -75,-137 -37,-31 -80,-46 -132,-46 -77,0 -140,27 -189,83 -48,55 -73,143 -73,263 0,122 24,210 70,265 47,56 108,83 183,83 61,0 111,-18 152,-55 40,-37 66,-94 77,-170z"/>
   <g>
    <g>
     <g>
      <line class="fil0 str0" x1="14563" y1="1484" x2="14563" y2= "2934" />
      <line class="fil0 str0" x1="14157" y1="1566" x2="14563" y2= "1757" />
      <line class="fil0 str0" x1="14969" y1="1566" x2="14563" y2= "1757" />
     </g>
     <g>
      <line class="fil0 str0" x1="14563" y1="4384" x2="14563" y2= "2934" />
      <line class="fil0 str0" x1="14157" y1="4303" x2="14563" y2= "4112" />
      <line class="fil0 str0" x1="14969" y1="4303" x2="14563" y2= "4112" />
     </g>
    </g>
    <g>
     <g>
      <line class="fil0 str0" x1="13538" y1="1909" x2="14563" y2= "2934" />
      <line class="fil0 str0" x1="13308" y1="2254" x2="13731" y2= "2102" />
      <line class="fil0 str0" x1="13882" y1="1679" x2="13731" y2= "2102" />
     </g>
     <g>
      <line class="fil0 str0" x1="15588" y1="3960" x2="14563" y2= "2934" />
      <line class="fil0 str0" x1="15244" y1="4190" x2="15396" y2= "3767" />
      <line class="fil0 str0" x1="15818" y1="3615" x2="15396" y2= "3767" />
     </g>
    </g>
    <g>
     <g>
      <line class="fil0 str0" x1="15588" y1="1909" x2="14563" y2= "2934" />
      <line class="fil0 str0" x1="15244" y1="1679" x2="15396" y2= "2102" />
      <line class="fil0 str0" x1="15818" y1="2254" x2="15396" y2= "2102" />
     </g>
     <g>
      <line class="fil0 str0" x1="13538" y1="3960" x2="14563" y2= "2934" />
      <line class="fil0 str0" x1="13308" y1="3615" x2="13731" y2= "3767" />
      <line class="fil0 str0" x1="13882" y1="4190" x2="13731" y2= "3767" />
     </g>
    </g>
    <g>
     <g>
      <line class="fil0 str0" x1="13113" y1="2934" x2="14563" y2= "2934" />
      <line class="fil0 str0" x1="13194" y1="3341" x2="13386" y2= "2934" />
      <line class="fil0 str0" x1="13194" y1="2528" x2="13386" y2= "2934" />
     </g>
     <g>
      <line class="fil0 str0" x1="16013" y1="2934" x2="14563" y2= "2934" />
      <line class="fil0 str0" x1="15932" y1="3341" x2="15741" y2= "2934" />
      <line class="fil0 str0" x1="15932" y1="2528" x2="15741" y2= "2934" />
     </g>
    </g>
   </g>
   <polygon class="fil4" points="9062,12956 8508,12716 8508,12582 9062,12343 9062,12499 8675,12647 9062,12800 "/>
   <path id="1" class="fil4" d="M8521 14102l155 -16c4,35 17,62 39,83 22,20 47,30 75,30 32,0 60,-13 82,-39 23,-27 34,-67 34,-120 0,-50 -11,-87 -34,-112 -22,-25 -51,-38 -86,-38 -45,0 -85,20 -120,59l-126 -18 79 -420 410 0 0 145 -292 0 -25 137c35,-17 70,-26 106,-26 69,0 127,25 175,76 48,50 72,115 72,195 0,67 -19,126 -58,178 -53,72 -126,108 -219,108 -74,0 -135,-21 -182,-61 -48,-40 -76,-94 -85,-161z"/>
   <path id="2" class="fil4" d="M8466 15157l-152 27c-5,-30 -17,-53 -35,-68 -19,-15 -42,-23 -71,-23 -39,0 -69,13 -92,40 -23,27 -35,71 -35,134 0,70 12,119 35,147 24,29 55,43 94,43 29,0 53,-8 72,-25 19,-16 32,-45 40,-86l152 26c-16,70 -46,122 -91,158 -45,36 -105,54 -180,54 -85,0 -154,-27 -204,-81 -51,-54 -77,-129 -77,-225 0,-97 26,-172 77,-226 51,-54 120,-81 207,-81 71,0 127,16 170,46 41,31 72,78 90,140z"/>
   <path id="3" class="fil4" d="M8509 14984l165 0 140 415 137 -415 160 0 -206 563 -37 102c-14,34 -27,60 -39,78 -13,18 -27,32 -43,43 -16,12 -36,20 -59,27 -23,6 -50,9 -79,9 -30,0 -59,-3 -88,-9l-14 -121c25,5 47,7 66,7 36,0 63,-10 80,-32 17,-21 31,-48 40,-81l-223 -586z"/>
   <polygon id="4" class="fil4" points="9155,14984 9684,14984 9684,15109 9496,15109 9496,15569 9342,15569 9342,15109 9155,15109 "/>
  </g>
 </g>
</svg>
