<?xml version="1.0" encoding="UTF-8"?>
<!DOCTYPE svg PUBLIC "-//W3C//DTD SVG 1.1//EN" "http://www.w3.org/Graphics/SVG/1.1/DTD/svg11.dtd">
<!-- Creator: CorelDRAW X7 -->
<svg xmlns="http://www.w3.org/2000/svg" xml:space="preserve" width="100%" height="100%" version="1.1" style="shape-rendering:geometricPrecision; text-rendering:geometricPrecision; image-rendering:optimizeQuality; fill-rule:evenodd; clip-rule:evenodd"
viewBox="0 0 4004 2940"
 xmlns:xlink="http://www.w3.org/1999/xlink">
 <defs>
  <style type="text/css">
   <![CDATA[
    .fil0 {fill:#FEFEFE}
   ]]>
  </style>
 </defs>
 <g id="Слой_x0020_1">
  <metadata id="CorelCorpID_0Corel-Layer"/>
  <path class="fil0" d="M460 1217c224,-107 335,207 146,297 -102,48 -185,-14 -218,-72 -99,-180 64,-221 72,-225zm1025 -629c-696,166 -806,142 -1232,571 -394,396 -309,394 125,752 81,67 171,147 260,188 387,-188 404,-376 466,-896 211,478 -161,864 -254,1020 267,74 480,-35 785,717 144,-151 171,-193 186,-478l-201 -151c149,-21 696,-107 786,-56 126,69 194,348 514,374 -13,-111 -19,-507 -94,-551l-138 -74c193,-474 643,225 1316,263 -116,-250 -368,-381 -370,-757 -1,-360 192,-541 307,-762 -520,151 -813,519 -937,530 -126,12 -312,-49 -387,-121 33,-91 17,-68 83,-126 34,-29 29,-18 62,-42l59 -44c-143,-267 -644,-841 -877,-945 -219,106 -310,331 -459,588z"/>
 </g>
</svg>
