<?xml version="1.0" encoding="UTF-8"?>
<!DOCTYPE svg PUBLIC "-//W3C//DTD SVG 1.1//EN" "http://www.w3.org/Graphics/SVG/1.1/DTD/svg11.dtd">
<!-- Creator: CorelDRAW X7 -->
<svg xmlns="http://www.w3.org/2000/svg" xml:space="preserve" width="100%" height="100%" version="1.1" style="shape-rendering:geometricPrecision; text-rendering:geometricPrecision; image-rendering:optimizeQuality; fill-rule:evenodd; clip-rule:evenodd"
viewBox="0 0 9036 11563"
 xmlns:xlink="http://www.w3.org/1999/xlink">
 <defs>
  <style type="text/css">
   <![CDATA[
    .fil0 {fill:#FEFEFE}
   ]]>
  </style>
 </defs>
 <g id="Слой_x0020_1">
  <metadata id="CorelCorpID_0Corel-Layer"/>
  <path class="fil0" d="M4190 10108c206,-52 755,-52 879,157 134,224 -107,605 -269,756 -493,461 -1277,-747 -610,-913zm1325 -1992c-208,-622 431,-1187 972,-728 -7,213 -156,433 -344,531 -100,53 -537,207 -628,197zm-2962 -728c191,-162 575,-212 786,-53 188,143 255,577 187,781 -78,9 -953,-139 -973,-728zm-2302 -7280c-910,3102 2656,4373 2809,4675 88,173 -429,684 -528,721 -269,102 -523,-935 -2007,-830 -957,68 -400,1639 61,2028 492,415 887,161 1186,318 219,116 259,853 349,1147 224,729 635,1518 954,2221 405,893 813,1296 1849,1144 801,-305 933,-944 1255,-1671 332,-751 617,-1267 846,-2080 66,-319 33,-592 78,-849 155,-22 366,66 539,70 216,5 369,-39 571,-105 512,-336 705,-737 794,-1335 147,-991 -268,-1004 -1134,-848 -1022,185 -1058,715 -1239,858 -119,94 -379,-290 -475,-386 -138,-140 -434,-315 -156,-478 974,-570 1726,-975 2400,-1936 1134,-1618 236,-3531 -98,-2387 406,937 -316,2288 -707,2509 17,-182 448,-1166 -46,-1941 -245,-101 -444,-27 -434,257 150,704 208,1017 -138,1688 -121,235 -689,971 -934,1016 11,-175 482,-1230 48,-1725 -286,-40 -390,29 -396,326 89,634 -104,1301 -565,1749 -229,222 -517,355 -841,251 -199,-63 -549,-337 -582,-540 -255,-170 -385,-790 -395,-1083 -7,-204 93,-499 -43,-640 -174,-180 -324,-44 -450,71 -129,768 -3,913 184,1595 -216,-29 -859,-779 -933,-1031 -221,-259 -300,-866 -257,-1194 22,-173 144,-482 98,-619 -81,-234 -314,-201 -474,-44 -309,516 -167,1327 11,1866 -284,-147 -699,-975 -766,-1303 -105,-315 -88,-752 0,-1070 41,-149 116,-306 -11,-434 -171,-172 -280,-54 -423,19z"/>
 </g>
</svg>
