<?xml version="1.0" encoding="UTF-8"?>
<!DOCTYPE svg PUBLIC "-//W3C//DTD SVG 1.1//EN" "http://www.w3.org/Graphics/SVG/1.1/DTD/svg11.dtd">
<!-- Creator: CorelDRAW X7 -->
<svg xmlns="http://www.w3.org/2000/svg" xml:space="preserve" width="100%" height="100%" version="1.1" style="shape-rendering:geometricPrecision; text-rendering:geometricPrecision; image-rendering:optimizeQuality; fill-rule:evenodd; clip-rule:evenodd"
viewBox="0 0 17639 17639"
 xmlns:xlink="http://www.w3.org/1999/xlink">
 <defs>
  <style type="text/css">
   <![CDATA[
    .fil0 {fill:none}
    .fil1 {fill:#4e4e4f;fill-rule:nonzero}
   ]]>
  </style>
 </defs>
 <g id="Слой_x0020_1">
  <metadata id="CorelCorpID_0Corel-Layer"/>
  <rect class="fil0" width="17639" height="17639"/>
  <path class="fil1" d="M2739 5893l245 75c-38,138 -100,240 -188,307 -87,67 -198,101 -332,101 -166,0 -303,-57 -410,-171 -107,-114 -161,-269 -161,-466 0,-209 54,-371 161,-486 108,-115 250,-173 425,-173 153,0 278,45 373,136 57,54 100,131 129,231l-250 60c-15,-65 -46,-116 -93,-154 -47,-38 -104,-56 -171,-56 -93,0 -169,33 -227,100 -58,66 -86,174 -86,323 0,158 28,271 85,338 57,67 131,101 222,101 68,0 126,-22 174,-64 48,-43 83,-110 104,-202z"/>
  <path id="1" class="fil1" d="M3399 5727l-217 -39c25,-88 67,-154 127,-196 59,-43 148,-64 266,-64 107,0 187,12 239,38 52,25 89,57 111,96 21,39 32,111 32,215l-4 280c0,79 4,138 12,176 7,38 21,78 42,122l-237 0c-6,-16 -14,-39 -23,-70 -4,-15 -7,-24 -9,-28 -41,40 -84,70 -131,90 -47,20 -96,30 -149,30 -93,0 -166,-25 -220,-76 -53,-50 -80,-114 -80,-192 0,-51 12,-97 36,-137 25,-40 59,-71 103,-92 44,-21 108,-40 191,-56 112,-21 190,-41 233,-59l0 -24c0,-46 -12,-80 -34,-100 -23,-20 -67,-29 -130,-29 -43,0 -76,8 -100,25 -24,17 -43,47 -58,90zm322 194c-31,10 -80,22 -146,37 -67,14 -110,28 -131,41 -31,23 -47,51 -47,85 0,34 13,63 38,87 25,24 57,37 95,37 44,0 85,-15 124,-43 29,-22 48,-48 57,-79 7,-21 10,-60 10,-117l0 -48z"/>
  <polygon id="2" class="fil1" points="4200,5447 4499,5447 4722,6079 4949,5447 5246,5447 5246,6355 5041,6355 5041,5757 4821,6355 4615,6355 4405,5757 4405,6355 4200,6355 "/>
  <path id="3" class="fil1" d="M5488 5447l240 0 0 378 241 0c95,0 167,7 217,20 50,13 92,42 126,87 35,45 52,98 52,159 0,88 -30,153 -91,197 -60,44 -151,67 -271,67l-514 0 0 -908zm240 754l223 0c58,0 101,-9 127,-27 26,-18 40,-48 40,-89 0,-43 -17,-73 -51,-89 -35,-16 -95,-24 -183,-24l-156 0 0 229zm772 -754l240 0 0 908 -240 0 0 -908z"/>
  <path id="4" class="fil1" d="M7504 6068l240 40c-31,88 -80,155 -146,201 -66,45 -149,68 -249,68 -157,0 -274,-51 -350,-154 -59,-83 -89,-188 -89,-314 0,-150 39,-268 117,-353 79,-86 178,-128 298,-128 135,0 241,45 319,134 78,89 115,226 112,410l-600 0c2,71 21,126 58,166 37,39 83,59 138,59 37,0 69,-10 94,-30 26,-21 45,-54 58,-99zm14 -243c-2,-70 -19,-123 -54,-159 -34,-36 -75,-54 -124,-54 -52,0 -95,19 -129,57 -34,38 -51,90 -51,156l358 0z"/>
  <path id="5" class="fil1" d="M8427 5447l240 0 0 371c40,-5 68,-17 85,-37 16,-20 36,-63 59,-130 31,-90 65,-146 101,-172 37,-25 85,-37 144,-37 18,0 50,1 95,4l1 159c-64,0 -104,5 -122,17 -17,13 -37,50 -57,112 -28,84 -68,135 -121,154 76,21 140,87 192,198 3,6 6,12 10,19l134 250 -258 0 -120 -264c-24,-53 -45,-87 -63,-102 -18,-15 -45,-23 -80,-23l0 389 -240 0 0 -908z"/>
  <path id="6" class="fil1" d="M9306 5447l224 0 0 133c29,-45 68,-82 117,-110 50,-28 105,-42 165,-42 105,0 195,41 268,124 74,83 111,198 111,345 0,152 -37,270 -112,354 -74,84 -163,126 -269,126 -50,0 -95,-10 -136,-30 -41,-20 -84,-54 -129,-102l0 454 -239 0 0 -1252zm236 440c0,102 20,178 60,227 41,48 90,73 148,73 55,0 102,-23 139,-68 37,-44 55,-118 55,-220 0,-96 -19,-167 -57,-213 -38,-46 -85,-69 -141,-69 -59,0 -108,22 -146,68 -39,45 -58,113 -58,202z"/>
  <path id="7" class="fil1" d="M10242 5447l256 0 217 644 213 -644 248 0 -320 873 -58 158c-21,53 -41,93 -60,121 -19,28 -41,50 -66,68 -25,17 -55,31 -92,40 -36,10 -77,15 -123,15 -46,0 -91,-5 -136,-15l-21 -187c38,7 72,11 102,11 56,0 97,-16 124,-49 27,-33 48,-75 62,-126l-346 -909z"/>
  <polygon id="8" class="fil1" points="11320,5447 12126,5447 12126,6355 11886,6355 11886,5641 11559,5641 11559,6355 11320,6355 "/>
  <polygon id="9" class="fil1" points="12376,5447 12615,5447 12615,5779 12961,5779 12961,5447 13201,5447 13201,6355 12961,6355 12961,5973 12615,5973 12615,6355 12376,6355 "/>
  <path id="10" class="fil1" d="M13444 5447l240 0 0 378 241 0c95,0 167,7 217,20 50,13 92,42 126,87 35,45 52,98 52,159 0,88 -30,153 -91,197 -60,44 -151,67 -271,67l-514 0 0 -908zm240 754l223 0c58,0 101,-9 127,-27 26,-18 39,-48 39,-89 0,-43 -16,-73 -51,-89 -34,-16 -95,-24 -183,-24l-155 0 0 229zm772 -754l240 0 0 908 -240 0 0 -908z"/>
  <path id="11" class="fil1" d="M15460 6068l240 40c-31,88 -80,155 -146,201 -66,45 -149,68 -249,68 -157,0 -274,-51 -350,-154 -59,-83 -89,-188 -89,-314 0,-150 39,-268 117,-353 79,-86 178,-128 298,-128 135,0 241,45 319,134 78,89 115,226 112,410l-600 0c2,71 21,126 58,166 37,39 83,59 138,59 37,0 69,-10 94,-30 26,-21 45,-54 58,-99zm14 -243c-2,-70 -20,-123 -54,-159 -34,-36 -75,-54 -124,-54 -52,0 -95,19 -129,57 -35,38 -51,90 -51,156l358 0z"/>
  <path id="12" class="fil1" d="M5385 8675l-165 0c-88,-131 -154,-268 -200,-410 -46,-141 -69,-278 -69,-411 0,-164 28,-320 84,-467 50,-127 112,-244 187,-352l164 0c-78,172 -132,319 -162,440 -29,121 -44,249 -44,384 0,94 9,189 26,287 18,98 42,191 72,279 21,58 56,141 107,250z"/>
  <path id="13" class="fil1" d="M6318 8308l-687 0 0 239 -194 0 0 -435 98 0c41,-46 74,-117 101,-214 27,-97 43,-263 47,-498l733 0 0 712 98 0 0 435 -196 0 0 -239zm-140 -196l1 -514 -291 0c-10,251 -49,422 -119,514l409 0z"/>
  <path id="14" class="fil1" d="M6622 7843c0,-80 20,-157 59,-232 39,-74 95,-131 167,-171 72,-39 152,-59 241,-59 137,0 249,45 337,134 88,89 132,202 132,338 0,138 -45,252 -133,342 -89,90 -200,136 -334,136 -83,0 -163,-19 -238,-57 -75,-38 -133,-93 -172,-165 -39,-73 -59,-162 -59,-266zm247 13c0,90 21,159 63,207 43,48 96,72 158,72 63,0 115,-24 157,-72 43,-48 64,-118 64,-209 0,-89 -21,-157 -64,-205 -42,-48 -94,-72 -157,-72 -62,0 -115,24 -158,72 -42,48 -63,117 -63,207z"/>
  <path id="15" class="fil1" d="M8386 7631c-62,-26 -107,-62 -135,-108 -28,-46 -42,-96 -42,-151 0,-93 33,-171 98,-231 65,-61 157,-92 277,-92 119,0 211,31 277,92 65,60 98,138 98,231 0,58 -15,110 -45,155 -30,45 -73,80 -128,104 70,28 123,69 159,122 36,54 54,116 54,186 0,116 -36,210 -110,283 -73,72 -171,109 -294,109 -113,0 -208,-30 -284,-90 -89,-71 -133,-168 -133,-292 0,-67 17,-130 50,-187 34,-56 86,-100 158,-131zm50 -241c0,47 14,85 41,112 27,27 63,40 107,40 46,0 82,-14 109,-41 27,-27 41,-64 41,-112 0,-45 -14,-82 -41,-109 -27,-27 -62,-40 -106,-40 -46,0 -83,13 -110,41 -27,27 -41,63 -41,109zm-22 536c0,67 17,119 50,156 34,38 76,56 127,56 49,0 90,-18 122,-54 33,-35 49,-87 49,-155 0,-59 -17,-107 -50,-142 -33,-36 -74,-54 -125,-54 -58,0 -102,20 -130,61 -29,41 -43,85 -43,132z"/>
  <polygon id="16" class="fil1" points="9697,7400 9996,7400 10219,8033 10446,7400 10743,7400 10743,8308 10538,8308 10538,7710 10318,8308 10112,8308 9902,7710 9902,8308 9697,8308 "/>
  <polygon id="17" class="fil1" points="10990,7400 11289,7400 11512,8033 11739,7400 12036,7400 12036,8308 11831,8308 11831,7710 11612,8308 11406,8308 11195,7710 11195,8308 10990,8308 "/>
  <path id="18" class="fil1" d="M12208 8675c48,-101 81,-179 101,-233 19,-54 37,-116 54,-187 16,-70 28,-137 36,-201 8,-63 12,-128 12,-195 0,-135 -14,-263 -44,-384 -29,-121 -82,-268 -160,-440l162 0c86,122 153,252 201,389 48,137 72,276 72,417 0,119 -19,247 -57,383 -42,152 -113,302 -211,451l-166 0z"/>
  <polygon id="19" class="fil1" points="5366,9354 5597,9354 5597,9924 5966,9354 6202,9354 6202,10261 5971,10261 5971,9683 5597,10261 5366,10261 "/>
  <path id="20" class="fil1" d="M6437 9354l240 0 0 370c40,-4 68,-17 85,-36 16,-20 36,-64 59,-131 31,-89 65,-146 102,-171 36,-25 84,-38 143,-38 19,0 50,2 95,5l1 158c-63,0 -104,6 -121,18 -18,12 -37,50 -58,112 -28,83 -68,135 -121,154 76,21 140,87 193,198 2,6 5,12 9,18l134 250 -258 0 -119 -263c-25,-53 -46,-87 -64,-102 -18,-15 -45,-23 -80,-23l0 388 -240 0 0 -907z"/>
  <path id="21" class="fil1" d="M7316 9354l224 0 0 133c29,-46 68,-82 117,-111 50,-28 105,-42 165,-42 106,0 195,42 269,125 73,82 110,197 110,345 0,152 -37,270 -111,354 -74,84 -164,126 -270,126 -50,0 -95,-10 -136,-30 -41,-20 -84,-54 -129,-102l0 454 -239 0 0 -1252zm236 439c0,103 20,178 61,227 40,49 89,73 147,73 55,0 102,-22 139,-67 37,-45 55,-118 55,-221 0,-95 -19,-166 -57,-212 -38,-47 -85,-70 -141,-70 -59,0 -108,23 -146,69 -39,45 -58,112 -58,201z"/>
  <polygon id="22" class="fil1" points="8384,9354 8615,9354 8615,9924 8984,9354 9220,9354 9220,10261 8989,10261 8989,9683 8615,10261 8384,10261 "/>
  <polygon id="23" class="fil1" points="9455,9354 9695,9354 9695,9686 10041,9686 10041,9354 10280,9354 10280,10261 10041,10261 10041,9880 9695,9880 9695,10261 9455,10261 "/>
  <path id="24" class="fil1" d="M10511 9354l240 0 0 370c40,-4 68,-17 85,-36 16,-20 36,-64 59,-131 31,-89 65,-146 101,-171 37,-25 85,-38 144,-38 18,0 50,2 95,5l1 158c-64,0 -104,6 -122,18 -17,12 -37,50 -57,112 -28,83 -68,135 -121,154 76,21 140,87 192,198 3,6 6,12 10,18l134 250 -258 0 -120 -263c-24,-53 -45,-87 -63,-102 -18,-15 -45,-23 -80,-23l0 388 -240 0 0 -907z"/>
  <polygon id="25" class="fil1" points="11390,9354 11621,9354 11621,9924 11989,9354 12226,9354 12226,10261 11995,10261 11995,9683 11621,10261 11390,10261 "/>
  <polygon id="26" class="fil1" points="820,11307 1050,11307 1050,11877 1419,11307 1655,11307 1655,12214 1424,12214 1424,11636 1050,12214 820,12214 "/>
  <path id="27" class="fil1" d="M2144 11844l0 -156c42,0 72,-2 91,-8 19,-6 37,-19 53,-40 17,-21 26,-44 26,-72 0,-28 -11,-55 -31,-79 -21,-25 -52,-37 -94,-37 -31,0 -60,7 -85,21 -25,13 -48,45 -68,96l-203 -43c20,-80 64,-139 131,-179 67,-39 144,-59 230,-59 109,0 194,25 254,75 60,50 90,113 90,189 0,48 -13,87 -39,118 -26,31 -67,60 -123,87 67,18 117,46 150,83 33,37 50,83 50,138 0,71 -33,132 -99,183 -66,51 -161,76 -284,76 -216,0 -348,-84 -397,-253l219 -41c35,89 93,133 175,133 45,0 81,-12 108,-35 27,-24 40,-52 40,-84 0,-35 -14,-63 -42,-83 -28,-20 -65,-30 -111,-30l-41 0z"/>
  <path id="28" class="fil1" d="M3321 11307l802 0 0 907 -239 0 0 -713 -326 0 0 408c0,104 -12,177 -35,219 -25,42 -51,69 -80,82 -29,13 -76,20 -140,20 -39,0 -89,-5 -152,-15l0 -176c5,0 19,0 40,1 25,2 45,3 59,3 32,0 52,-11 60,-32 7,-22 11,-81 11,-179l0 -525z"/>
  <path id="29" class="fil1" d="M4288 11750c0,-80 19,-157 59,-232 39,-75 95,-132 167,-171 72,-39 152,-59 241,-59 137,0 249,44 337,134 88,89 131,201 131,338 0,137 -44,251 -132,342 -89,90 -200,135 -335,135 -83,0 -162,-19 -237,-56 -76,-38 -133,-93 -172,-166 -40,-72 -59,-161 -59,-265zm246 12c0,91 22,160 64,207 43,48 95,72 158,72 62,0 115,-24 157,-72 42,-47 64,-117 64,-208 0,-89 -22,-158 -64,-205 -42,-48 -95,-72 -157,-72 -63,0 -115,24 -158,72 -42,47 -64,116 -64,206z"/>
  <path id="30" class="fil1" d="M6179 11576l-236 42c-8,-47 -26,-82 -54,-106 -28,-23 -65,-35 -110,-35 -60,0 -107,20 -143,62 -35,41 -53,110 -53,207 0,108 18,184 54,229 36,44 85,66 145,66 46,0 83,-13 112,-39 29,-26 49,-70 61,-134l236 40c-24,109 -71,191 -140,246 -70,56 -163,83 -280,83 -132,0 -238,-42 -316,-125 -79,-84 -119,-200 -119,-349 0,-150 40,-266 119,-350 79,-84 186,-125 321,-125 110,0 198,24 263,71 65,48 111,120 140,217z"/>
  <path id="31" class="fil1" d="M6305 11750c0,-80 20,-157 59,-232 39,-75 95,-132 167,-171 72,-39 152,-59 241,-59 137,0 249,44 337,134 88,89 132,201 132,338 0,137 -45,251 -133,342 -89,90 -200,135 -334,135 -83,0 -163,-19 -238,-56 -75,-38 -133,-93 -172,-166 -39,-72 -59,-161 -59,-265zm247 12c0,91 21,160 64,207 42,48 95,72 158,72 62,0 114,-24 157,-72 42,-47 63,-117 63,-208 0,-89 -21,-158 -63,-205 -43,-48 -95,-72 -157,-72 -63,0 -116,24 -158,72 -43,47 -64,116 -64,206z"/>
  <path id="32" class="fil1" d="M8196 11576l-236 42c-7,-47 -26,-82 -54,-106 -28,-23 -64,-35 -109,-35 -60,0 -108,20 -143,62 -36,41 -54,110 -54,207 0,108 18,184 54,229 37,44 85,66 146,66 45,0 82,-13 111,-39 29,-26 50,-70 62,-134l236 40c-25,109 -72,191 -141,246 -69,56 -162,83 -279,83 -133,0 -238,-42 -317,-125 -79,-84 -118,-200 -118,-349 0,-150 39,-266 118,-350 79,-84 186,-125 321,-125 110,0 198,24 263,71 65,48 112,120 140,217z"/>
  <path id="33" class="fil1" d="M8903 11928l240 40c-31,88 -80,154 -146,200 -66,46 -149,69 -249,69 -157,0 -274,-51 -350,-155 -59,-82 -89,-187 -89,-313 0,-150 39,-268 117,-353 79,-86 178,-128 298,-128 135,0 241,44 319,134 78,89 115,225 112,410l-600 0c2,71 21,126 58,166 37,39 83,59 138,59 37,0 69,-10 94,-31 26,-20 45,-53 58,-98zm14 -243c-2,-70 -19,-123 -54,-159 -34,-37 -75,-55 -124,-55 -52,0 -95,20 -129,58 -34,38 -51,90 -50,156l357 0z"/>
  <path id="34" class="fil1" d="M9353 11307l525 0c108,0 189,20 242,59 54,39 81,99 81,178 0,51 -15,95 -44,133 -29,37 -66,62 -111,75 63,15 109,44 140,86 31,42 46,88 46,138 0,71 -26,128 -78,172 -51,44 -128,66 -230,66l-571 0 0 -907zm239 378l156 0c75,0 129,-10 163,-29 33,-19 50,-48 50,-89 0,-38 -16,-65 -47,-82 -31,-16 -86,-24 -166,-24l-156 0 0 224zm0 376l191 0c69,0 119,-9 150,-25 32,-17 47,-46 47,-89 0,-45 -18,-75 -54,-92 -36,-17 -106,-25 -210,-25l-124 0 0 231z"/>
  <path id="35" class="fil1" d="M10427 11307l240 0 0 378 241 0c95,0 167,6 217,20 50,13 92,42 127,87 34,45 51,98 51,159 0,87 -30,153 -90,197 -61,44 -151,66 -272,66l-514 0 0 -907zm240 754l224 0c58,0 100,-9 127,-28 26,-18 39,-47 39,-88 0,-43 -17,-73 -51,-89 -34,-16 -95,-24 -183,-24l-156 0 0 229zm773 -754l239 0 0 907 -239 0 0 -907z"/>
  <polygon id="36" class="fil1" points="11803,12214 12130,11747 11817,11307 12109,11307 12269,11556 12440,11307 12720,11307 12413,11737 12748,12214 12456,12214 12269,11933 12083,12214 "/>
  <path id="37" class="fil1" d="M13370 11307l224 0 0 133c29,-45 68,-82 118,-110 49,-28 104,-42 165,-42 105,0 194,41 268,124 73,82 110,198 110,345 0,152 -37,270 -111,354 -74,84 -164,126 -270,126 -50,0 -95,-10 -136,-30 -40,-20 -84,-54 -128,-102l0 454 -240 0 0 -1252zm236 440c0,102 20,178 61,226 40,49 89,74 147,74 56,0 102,-23 139,-68 37,-45 55,-118 55,-220 0,-96 -19,-167 -57,-213 -38,-46 -85,-69 -141,-69 -59,0 -107,22 -146,68 -39,45 -58,113 -58,202z"/>
  <path id="38" class="fil1" d="M14447 11307l239 0 0 378 242 0c94,0 167,6 216,20 50,13 92,42 127,87 35,45 52,98 52,159 0,87 -31,153 -91,197 -60,44 -151,66 -271,66l-514 0 0 -907zm239 754l224 0c58,0 101,-9 127,-28 26,-18 39,-47 39,-88 0,-43 -17,-73 -51,-89 -34,-16 -95,-24 -183,-24l-156 0 0 229zm773 -754l240 0 0 907 -240 0 0 -907z"/>
  <path id="39" class="fil1" d="M16620 10933l163 0c-6,72 -25,126 -57,164 -33,37 -114,55 -243,55 -15,0 -30,0 -46,-1l-31 0c-76,0 -138,9 -186,26 -48,16 -87,49 -117,97 -31,49 -46,127 -48,235 36,-67 81,-116 138,-149 56,-33 123,-49 200,-49 119,0 220,46 303,139 82,92 123,200 123,322 0,127 -43,237 -130,328 -87,91 -200,137 -341,137 -96,0 -180,-23 -254,-69 -72,-46 -125,-109 -156,-190 -31,-80 -47,-212 -47,-398 0,-218 40,-374 120,-469 80,-96 220,-143 420,-143l121 0c34,0 57,-12 68,-35zm-482 835c0,83 20,149 61,197 41,49 92,73 151,73 64,0 117,-25 158,-75 41,-50 61,-115 61,-194 0,-81 -20,-146 -62,-195 -42,-50 -93,-75 -154,-75 -60,0 -111,25 -153,73 -42,49 -62,114 -62,196z"/>
 </g>
</svg>
