<?xml version="1.0" encoding="UTF-8"?>
<!DOCTYPE svg PUBLIC "-//W3C//DTD SVG 1.1//EN" "http://www.w3.org/Graphics/SVG/1.1/DTD/svg11.dtd">
<!-- Creator: CorelDRAW X7 -->
<svg xmlns="http://www.w3.org/2000/svg" xml:space="preserve" width="100%" height="100%" version="1.1" style="shape-rendering:geometricPrecision; text-rendering:geometricPrecision; image-rendering:optimizeQuality; fill-rule:evenodd; clip-rule:evenodd"
viewBox="0 0 17639 17639"
 xmlns:xlink="http://www.w3.org/1999/xlink">
 <defs>
  <style type="text/css">
   <![CDATA[
    .fil1 {fill:none}
    .fil0 {fill:#4e4e4f;fill-rule:nonzero}
   ]]>
  </style>
 </defs>
 <g id="Слой_x0020_1">
  <metadata id="CorelCorpID_0Corel-Layer"/>
  <path class="fil0" d="M3157 3214c0,-176 26,-324 79,-444 39,-88 93,-167 161,-237 68,-69 142,-121 223,-155 107,-46 231,-69 372,-69 254,0 458,79 611,237 152,158 229,378 229,660 0,279 -76,497 -228,655 -151,157 -354,236 -607,236 -257,0 -461,-78 -613,-235 -151,-157 -227,-373 -227,-648zm359 -12c0,196 45,344 136,445 90,101 205,151 344,151 139,0 253,-50 343,-150 89,-100 134,-250 134,-451 0,-198 -44,-346 -131,-443 -87,-97 -202,-146 -346,-146 -144,0 -260,49 -348,148 -88,99 -132,247 -132,446z"/>
  <path id="1" class="fil0" d="M6041 2300l224 0c-7,99 -34,174 -79,225 -45,51 -156,77 -334,77 -21,0 -42,0 -63,-1l-43 0c-105,0 -190,12 -256,35 -66,23 -120,68 -162,134 -42,67 -64,175 -66,323 49,-91 112,-160 190,-205 77,-45 169,-68 275,-68 165,0 304,64 418,192 113,128 170,276 170,444 0,176 -59,326 -179,452 -120,126 -276,189 -470,189 -133,0 -249,-32 -350,-95 -100,-64 -172,-151 -215,-261 -43,-111 -65,-294 -65,-549 0,-300 55,-516 166,-647 110,-132 303,-197 578,-197l168 0c46,0 77,-16 93,-48zm-665 1151c0,114 28,205 85,271 56,67 126,100 207,100 89,0 161,-34 218,-103 57,-69 85,-158 85,-267 0,-111 -29,-201 -86,-269 -58,-69 -129,-103 -213,-103 -82,0 -152,34 -210,101 -57,67 -86,157 -86,270z"/>
  <path id="2" class="fil0" d="M6619 2815l1106 0 0 1251 -331 0 0 -983 -448 0 0 562c0,143 -16,244 -49,302 -33,57 -70,95 -110,113 -40,18 -105,28 -193,28 -53,0 -123,-8 -209,-21l0 -243c7,0 26,0 55,2 35,3 62,4 81,4 45,0 72,-15 82,-44 10,-30 16,-112 16,-247l0 -724z"/>
  <path id="3" class="fil0" d="M8306 3201l-299 -53c34,-122 92,-213 175,-271 82,-59 204,-88 367,-88 147,0 257,17 329,52 72,35 123,79 152,133 30,54 45,152 45,296l-5 385c0,110 5,191 16,243 10,53 30,108 59,168l-328 0c-9,-22 -19,-54 -32,-97 -5,-19 -9,-32 -12,-38 -56,55 -116,97 -180,124 -64,28 -133,42 -205,42 -129,0 -230,-35 -304,-105 -74,-69 -110,-157 -110,-264 0,-71 16,-134 50,-189 34,-55 81,-98 142,-127 61,-29 148,-55 263,-77 154,-29 261,-56 320,-81l0 -33c0,-65 -15,-111 -47,-138 -31,-28 -91,-41 -178,-41 -59,0 -105,11 -138,35 -33,23 -59,65 -80,124zm443 267c-42,14 -109,31 -201,51 -91,20 -152,39 -180,57 -43,31 -64,70 -64,117 0,46 17,86 51,120 35,34 79,50 132,50 60,0 117,-19 171,-58 40,-30 66,-66 79,-110 8,-28 12,-82 12,-161l0 -66z"/>
  <path id="4" class="fil0" d="M10434 4066l-947 0 0 330 -267 0 0 -600 135 0c56,-63 102,-161 139,-295 36,-133 59,-362 65,-686l1010 0 0 981 135 0 0 600 -270 0 0 -330zm-193 -270l1 -708 -401 0c-13,345 -68,581 -164,708l564 0z"/>
  <path id="5" class="fil0" d="M11176 3201l-299 -53c34,-122 92,-213 174,-271 83,-59 205,-88 367,-88 148,0 258,17 330,52 72,35 123,79 152,133 30,54 44,152 44,296l-4 385c0,110 5,191 15,243 11,53 30,108 59,168l-327 0c-9,-22 -20,-54 -32,-97 -5,-19 -9,-32 -12,-38 -56,55 -116,97 -181,124 -64,28 -132,42 -205,42 -128,0 -229,-35 -303,-105 -74,-69 -111,-157 -111,-264 0,-71 17,-134 51,-189 34,-55 81,-98 142,-127 60,-29 148,-55 262,-77 154,-29 262,-56 321,-81l0 -33c0,-65 -16,-111 -47,-138 -32,-28 -91,-41 -178,-41 -59,0 -105,11 -138,35 -33,23 -60,65 -80,124zm443 267c-42,14 -109,31 -201,51 -92,20 -152,39 -180,57 -43,31 -65,70 -65,117 0,46 18,86 52,120 35,34 78,50 132,50 59,0 116,-19 171,-58 39,-30 66,-66 78,-110 9,-28 13,-82 13,-161l0 -66z"/>
  <path id="6" class="fil0" d="M12993 3671l330 55c-42,121 -109,213 -200,276 -92,63 -206,95 -343,95 -218,0 -379,-71 -483,-213 -82,-114 -123,-258 -123,-432 0,-207 54,-370 162,-487 108,-118 245,-176 410,-176 186,0 332,61 440,184 107,123 159,311 154,565l-827 0c3,98 29,174 80,229 51,55 114,82 190,82 52,0 95,-14 130,-42 35,-28 62,-74 80,-136zm19 -335c-2,-96 -27,-169 -74,-219 -47,-50 -104,-75 -171,-75 -72,0 -131,26 -178,79 -47,53 -70,124 -70,215l493 0z"/>
  <polygon id="7" class="fil0" points="13429,2815 14559,2815 14559,3083 14159,3083 14159,4066 13829,4066 13829,3083 13429,3083 "/>
  <path id="8" class="fil0" d="M1269 5507l351 0 300 887 293 -887 342 0 -441 1204 -79 217c-29,73 -57,128 -84,167 -26,38 -56,69 -90,93 -35,24 -77,42 -127,56 -50,13 -106,20 -169,20 -64,0 -126,-7 -188,-20l-29 -258c52,10 99,15 141,15 77,0 134,-22 171,-68 37,-45 65,-103 85,-173l-476 -1253z"/>
  <polygon id="9" class="fil0" points="2753,5507 3083,5507 3083,5965 3561,5965 3561,5507 3891,5507 3891,6758 3561,6758 3561,6232 3083,6232 3083,6758 2753,6758 "/>
  <polygon id="10" class="fil0" points="4213,5507 4532,5507 4532,6293 5040,5507 5365,5507 5365,6758 5047,6758 5047,5961 4532,6758 4213,6758 "/>
  <path id="11" class="fil0" d="M5690 5507l330 0 0 511c55,-6 94,-23 117,-51 22,-27 50,-87 82,-179 43,-123 89,-202 139,-236 51,-35 116,-52 198,-52 26,0 69,2 131,6l1 218c-87,0 -143,8 -167,24 -25,18 -51,69 -79,155 -39,115 -94,186 -167,212 105,29 193,120 265,273 4,8 8,16 13,25l185 345 -356 0 -164 -363c-34,-73 -63,-120 -88,-141 -25,-21 -62,-31 -110,-31l0 535 -330 0 0 -1251z"/>
  <path id="12" class="fil0" d="M7156 5893l-299 -53c34,-122 92,-213 174,-271 83,-59 205,-88 367,-88 148,0 258,17 330,52 72,35 123,79 152,133 30,54 45,152 45,296l-5 385c0,110 5,191 15,243 11,52 30,108 59,168l-327 0c-9,-22 -20,-54 -32,-97 -5,-19 -9,-32 -12,-38 -56,55 -116,97 -180,124 -65,28 -133,42 -206,42 -128,0 -229,-35 -303,-105 -74,-69 -111,-158 -111,-264 0,-71 17,-134 51,-189 34,-55 81,-98 142,-127 60,-29 148,-55 262,-77 155,-29 262,-56 321,-81l0 -34c0,-64 -15,-110 -47,-137 -31,-28 -91,-41 -178,-41 -59,0 -105,11 -138,35 -33,23 -60,65 -80,124zm443 267c-42,14 -109,31 -201,51 -92,19 -152,39 -180,57 -43,31 -65,70 -65,117 0,46 18,86 52,120 35,33 79,50 132,50 59,0 116,-19 171,-58 39,-30 66,-67 78,-110 9,-28 13,-82 13,-161l0 -66z"/>
  <path id="13" class="fil0" d="M8339 5507l1106 0 0 1251 -330 0 0 -983 -448 0 0 562c0,143 -16,244 -49,301 -34,58 -70,96 -110,114 -40,18 -105,27 -194,27 -52,0 -122,-7 -208,-21l0 -242c7,0 25,0 55,2 35,2 62,4 80,4 45,0 73,-15 83,-45 10,-29 15,-111 15,-246l0 -724z"/>
  <path id="14" class="fil0" d="M9788 5507l330 0 0 521 332 0c130,0 230,9 300,28 70,19 127,59 174,121 46,63 69,135 69,217 0,121 -41,212 -124,273 -83,60 -206,91 -372,91l-709 0 0 -1251zm330 1039l309 0c97,0 158,-16 186,-47 27,-31 40,-68 40,-111 0,-60 -23,-101 -70,-124 -47,-23 -130,-34 -249,-34l-216 0 0 316z"/>
  <polygon id="15" class="fil0" points="11248,5507 11578,5507 11578,5965 12055,5965 12055,5507 12385,5507 12385,6758 12055,6758 12055,6232 11578,6232 11578,6758 11248,6758 "/>
  <path id="16" class="fil0" d="M12720 5507l330 0 0 521 332 0c131,0 231,9 299,27 69,19 127,59 175,121 47,62 71,135 71,218 0,121 -42,212 -125,273 -83,60 -208,91 -374,91l-708 0 0 -1251zm330 1039l308 0c80,0 139,-13 175,-38 36,-25 54,-65 54,-121 0,-60 -23,-102 -70,-124 -47,-22 -131,-33 -252,-33l-215 0 0 316zm1065 -1039l330 0 0 1251 -330 0 0 -1251z"/>
  <polygon id="17" class="fil0" points="14785,5507 15197,5507 15504,6379 15816,5507 16226,5507 16226,6758 15944,6758 15944,5934 15641,6758 15357,6758 15067,5934 15067,6758 14785,6758 "/>
  <polygon id="18" class="fil0" points="820,8199 1150,8199 1150,8657 1627,8657 1627,8199 1957,8199 1957,9449 1627,9449 1627,8924 1150,8924 1150,9449 820,9449 "/>
  <path id="19" class="fil0" d="M2535 8584l-299 -53c34,-122 92,-212 175,-271 82,-58 204,-88 367,-88 147,0 257,18 329,53 72,35 123,79 153,133 29,53 44,152 44,296l-5 385c0,110 5,191 16,243 10,52 30,108 59,167l-328 0c-9,-21 -19,-53 -32,-96 -5,-20 -9,-32 -11,-38 -57,55 -117,96 -181,124 -64,28 -133,42 -205,42 -129,0 -230,-35 -304,-105 -73,-69 -110,-158 -110,-265 0,-70 16,-133 50,-188 34,-55 81,-98 142,-127 61,-30 148,-55 263,-77 154,-29 261,-57 320,-82l0 -33c0,-64 -15,-110 -47,-138 -31,-27 -91,-41 -178,-41 -59,0 -105,12 -138,36 -33,23 -59,64 -80,123zm443 268c-42,14 -109,31 -201,51 -91,19 -152,38 -180,57 -43,31 -64,69 -64,116 0,47 17,87 51,120 35,34 79,51 132,51 60,0 117,-20 171,-59 40,-30 66,-66 79,-109 8,-28 12,-82 12,-161l0 -66z"/>
  <path id="20" class="fil0" d="M4718 8570l-325 58c-11,-65 -36,-113 -74,-146 -39,-33 -90,-49 -151,-49 -83,0 -149,28 -198,85 -49,57 -73,152 -73,286 0,149 25,254 75,315 49,61 116,92 200,92 62,0 114,-18 153,-54 40,-36 69,-97 85,-185l325 56c-33,149 -98,262 -194,338 -95,77 -223,115 -384,115 -183,0 -328,-58 -437,-173 -109,-116 -163,-276 -163,-480 0,-207 55,-368 164,-483 108,-115 256,-173 442,-173 151,0 272,33 362,99 90,65 154,165 193,299z"/>
  <path id="21" class="fil0" d="M4972 8199l330 0 0 520 333 0c130,0 230,10 298,28 69,19 127,59 175,121 47,61 71,135 71,218 0,121 -42,212 -125,272 -83,61 -208,91 -374,91l-708 0 0 -1250zm330 1038l308 0c80,0 139,-12 175,-37 36,-25 54,-65 54,-122 0,-59 -23,-101 -70,-123 -47,-22 -131,-33 -252,-33l-215 0 0 315zm1065 -1038l330 0 0 1250 -330 0 0 -1250z"/>
  <polygon id="22" class="fil0" points="7022,8199 7326,8199 7326,9182 7709,9182 7709,8199 8013,8199 8013,9182 8401,9182 8401,8199 8704,8199 8704,9182 8839,9182 8839,9780 8572,9780 8572,9449 7022,9449 "/>
  <path id="23" class="fil0" d="M9783 9054l330 56c-42,121 -109,213 -200,276 -92,63 -206,95 -343,95 -217,0 -378,-71 -482,-213 -83,-114 -124,-258 -124,-432 0,-207 54,-370 162,-487 108,-118 245,-177 411,-177 185,0 332,62 439,185 108,123 159,311 154,565l-826 0c2,98 29,174 80,229 50,54 114,82 189,82 52,0 95,-14 130,-43 36,-28 62,-73 80,-136zm20 -335c-3,-96 -27,-169 -74,-218 -47,-51 -104,-76 -172,-76 -72,0 -131,27 -178,80 -47,52 -70,124 -69,214l493 0z"/>
  <polygon id="24" class="fil0" points="10386,8199 10716,8199 10716,8657 11193,8657 11193,8199 11523,8199 11523,9449 11193,9449 11193,8924 10716,8924 10716,9449 10386,9449 "/>
  <polygon id="25" class="fil0" points="11841,8199 12171,8199 12171,8657 12649,8657 12649,8199 12979,8199 12979,9449 12649,9449 12649,8924 12171,8924 12171,9449 11841,9449 "/>
  <path id="26" class="fil0" d="M13314 8199l330 0 0 520 332 0c131,0 230,10 299,28 69,19 127,59 174,121 48,61 72,135 72,218 0,121 -42,212 -125,272 -83,61 -208,91 -374,91l-708 0 0 -1250zm330 1038l308 0c80,0 139,-12 175,-37 36,-25 54,-65 54,-122 0,-59 -23,-101 -70,-123 -47,-22 -131,-33 -252,-33l-215 0 0 315zm1065 -1038l330 0 0 1250 -330 0 0 -1250z"/>
  <polygon id="27" class="fil0" points="15379,8199 15791,8199 16098,9070 16410,8199 16819,8199 16819,9449 16538,9449 16538,8626 16235,9449 15951,9449 15660,8626 15660,9449 15379,9449 "/>
  <polygon id="28" class="fil0" points="3536,10891 3854,10891 3854,11677 4362,10891 4688,10891 4688,12141 4370,12141 4370,11344 3854,12141 3536,12141 "/>
  <path id="29" class="fil0" d="M5012 10891l330 0 0 511c55,-7 94,-24 117,-51 22,-27 50,-87 82,-180 43,-123 89,-201 140,-236 50,-34 116,-51 198,-51 25,0 68,2 131,6l1 218c-88,0 -144,8 -168,24 -24,17 -51,69 -79,154 -38,115 -94,186 -166,213 104,29 192,120 265,273 3,8 8,16 12,25l185 344 -355 0 -165 -362c-34,-73 -63,-120 -88,-141 -24,-21 -61,-32 -110,-32l0 535 -330 0 0 -1250z"/>
  <path id="30" class="fil0" d="M6124 11501c0,-110 27,-217 81,-319 54,-104 131,-182 230,-236 99,-54 209,-82 332,-82 189,0 344,62 465,185 120,123 181,278 181,466 0,189 -61,346 -183,471 -122,124 -275,187 -461,187 -114,0 -223,-26 -327,-78 -104,-52 -183,-128 -237,-228 -54,-100 -81,-222 -81,-366zm339 17c0,125 30,220 88,286 59,66 132,99 218,99 86,0 158,-33 216,-99 59,-66 88,-162 88,-288 0,-122 -29,-217 -88,-283 -58,-66 -130,-99 -216,-99 -86,0 -159,33 -218,99 -58,66 -88,161 -88,285z"/>
  <path id="31" class="fil0" d="M7663 10891l308 0 0 183c40,-62 94,-113 163,-152 68,-38 144,-58 227,-58 145,0 268,57 369,171 102,114 152,273 152,476 0,209 -51,372 -153,488 -102,116 -226,174 -371,174 -69,0 -132,-14 -188,-42 -56,-27 -115,-74 -177,-141l0 626 -330 0 0 -1725zm325 606c0,141 28,245 84,312 55,67 123,101 203,101 76,0 140,-31 191,-93 51,-62 76,-163 76,-304 0,-131 -26,-229 -78,-293 -53,-64 -118,-96 -195,-96 -81,0 -148,32 -201,94 -53,63 -80,156 -80,279z"/>
  <polygon id="32" class="fil0" points="9130,10891 9460,10891 9460,11349 9937,11349 9937,10891 10267,10891 10267,12141 9937,12141 9937,11616 9460,11616 9460,12141 9130,12141 "/>
  <path id="33" class="fil0" d="M10602 10891l330 0 0 520 333 0c130,0 230,9 298,28 69,18 127,59 175,120 48,62 71,135 71,219 0,121 -42,212 -125,272 -83,61 -208,91 -374,91l-708 0 0 -1250zm330 1038l309 0c80,0 138,-12 174,-37 36,-25 55,-66 55,-122 0,-60 -24,-101 -71,-123 -47,-22 -131,-33 -252,-33l-215 0 0 315zm1065 -1038l330 0 0 1250 -330 0 0 -1250z"/>
  <polygon id="34" class="fil0" points="12667,10891 13079,10891 13386,11762 13699,10891 14108,10891 14108,12141 13826,12141 13826,11318 13523,12141 13239,12141 12949,11318 12949,12141 12667,12141 "/>
  <path id="35" class="fil0" d="M4730 13583l725 0c148,0 259,26 333,81 74,54 111,136 111,245 0,70 -20,131 -61,183 -40,52 -91,86 -152,103 86,22 150,61 193,119 42,59 63,122 63,191 0,97 -36,176 -107,237 -72,61 -177,91 -317,91l-788 0 0 -1250zm330 520l215 0c103,0 178,-13 224,-39 46,-26 70,-67 70,-123 0,-53 -22,-90 -65,-113 -43,-22 -119,-33 -229,-33l-215 0 0 308zm0 518l263 0c95,0 164,-11 207,-34 43,-23 65,-63 65,-123 0,-61 -25,-103 -75,-126 -49,-23 -146,-35 -289,-35l-171 0 0 318z"/>
  <path id="36" class="fil0" d="M6194 13583l330 0 0 510c55,-6 94,-23 117,-50 23,-28 50,-87 83,-180 42,-123 88,-201 139,-236 50,-34 116,-52 198,-52 25,0 69,2 131,6l1 218c-87,0 -143,8 -167,25 -25,17 -51,69 -80,154 -38,115 -94,186 -166,213 104,29 193,120 265,273 3,8 8,16 13,25l184 344 -355 0 -165 -363c-33,-73 -63,-120 -88,-140 -24,-21 -61,-32 -110,-32l0 535 -330 0 0 -1250z"/>
  <path id="37" class="fil0" d="M7256 13583l351 0 300 887 293 -887 342 0 -441 1203 -79 217c-29,73 -57,129 -84,167 -26,38 -56,70 -90,93 -34,24 -77,43 -127,56 -50,13 -106,20 -169,20 -64,0 -126,-7 -188,-20l-29 -258c52,10 99,15 141,15 77,0 134,-22 171,-67 37,-46 65,-104 85,-173l-476 -1253z"/>
  <path id="38" class="fil0" d="M9784 13954l-325 57c-11,-64 -36,-113 -75,-146 -39,-32 -89,-49 -151,-49 -82,0 -148,29 -197,86 -49,57 -74,152 -74,286 0,148 25,253 75,315 50,61 117,92 200,92 63,0 114,-18 154,-54 40,-36 68,-97 85,-185l325 55c-34,150 -98,263 -194,339 -96,76 -224,114 -385,114 -182,0 -328,-57 -436,-173 -109,-115 -163,-275 -163,-480 0,-206 54,-367 163,-482 109,-115 256,-173 442,-173 152,0 273,33 363,98 89,66 154,166 193,300z"/>
  <path id="39" class="fil0" d="M9958 14193c0,-110 27,-217 81,-320 54,-103 131,-181 230,-235 99,-55 210,-82 332,-82 189,0 344,62 465,184 121,124 181,279 181,467 0,189 -61,346 -183,471 -122,124 -275,186 -460,186 -115,0 -224,-26 -328,-77 -104,-52 -183,-128 -237,-229 -54,-100 -81,-222 -81,-365zm340 17c0,124 29,220 88,285 59,67 131,100 217,100 86,0 159,-33 217,-100 58,-65 87,-161 87,-287 0,-123 -29,-217 -87,-283 -58,-66 -131,-99 -217,-99 -86,0 -158,33 -217,99 -59,66 -88,161 -88,285z"/>
  <polygon id="40" class="fil0" points="11485,13583 11897,13583 12204,14454 12516,13583 12926,13583 12926,14833 12644,14833 12644,14010 12341,14833 12057,14833 11767,14010 11767,14833 11485,14833 "/>
  <rect class="fil1" width="17639" height="17639"/>
 </g>
</svg>
