<?xml version="1.0" encoding="UTF-8"?>
<!DOCTYPE svg PUBLIC "-//W3C//DTD SVG 1.1//EN" "http://www.w3.org/Graphics/SVG/1.1/DTD/svg11.dtd">
<!-- Creator: CorelDRAW X7 -->
<svg xmlns="http://www.w3.org/2000/svg" xml:space="preserve" width="100%" height="100%" version="1.1" style="shape-rendering:geometricPrecision; text-rendering:geometricPrecision; image-rendering:optimizeQuality; fill-rule:evenodd; clip-rule:evenodd"
viewBox="0 0 17639 17639"
 xmlns:xlink="http://www.w3.org/1999/xlink">
 <defs>
  <style type="text/css">
   <![CDATA[
    .fil0 {fill:none}
    .fil3 {fill:#F5B2B6}
    .fil2 {fill:#4E4E4F}
    .fil1 {fill:#E1DFD3}
    .fil4 {fill:#4E4E4F;fill-rule:nonzero}
   ]]>
  </style>
 </defs>
 <g id="Слой_x0020_1">
  <metadata id="CorelCorpID_0Corel-Layer"/>
  <g id="_611915096">
   <rect class="fil0" width="17639" height="17639"/>
   <path class="fil1" d="M8065 8738l-20 -413 38 2 -18 411zm7552 -5187l61 0 36 21 18 264c110,30 282,47 361,128l-407 322 -48 -46 -14 206 -216 60c87,121 245,-11 310,201 79,259 -106,195 -150,305l679 -179c47,160 -13,508 -28,689l-156 32 -85 376 -297 106 -92 -167 -31 -32 -539 469 3 56 671 441 47 421c-175,65 -234,-321 -381,66 -28,74 90,592 128,672l170 -14 -181 412c-40,15 -283,-227 -326,215 -11,110 -342,369 -434,463 -152,156 -79,525 -90,773 -4,89 -57,810 -52,799l479 47 28 -266c288,-233 596,249 675,451 216,549 288,102 388,930 50,408 164,818 79,1253 -151,776 -540,583 -778,-64 104,-81 185,-37 271,-97l-244 -828c-96,62 -336,422 -420,536 -110,-58 -77,-44 -185,-231 -391,-91 -409,215 -665,-46 -121,-122 -313,-340 -453,-423 -158,-95 -539,2 -673,133 -157,152 -29,301 8,489 190,967 -462,500 -760,737 -182,145 -200,336 -469,421 -340,107 -415,-104 -664,-117 -238,-13 -379,213 -600,36 -176,-141 -375,-347 -625,-193 -191,118 88,394 -143,509 -274,137 -463,-87 -672,-150 -401,-121 -613,522 -1131,295 -135,-60 -260,-289 -422,-380 -160,-89 -418,-7 -520,-139 -299,-388 -28,-905 -622,-810 -430,69 -392,-541 -711,-564 -279,-20 -427,77 -749,5 -163,-36 -399,-140 -397,82 2,166 -292,41 -268,275 17,167 48,419 -249,232 -300,-189 -110,-169 -523,-312 -269,-92 -218,-278 -386,-458 -214,-231 -358,-90 -591,-39 -195,43 -266,-120 -455,33 -223,182 -59,372 -24,572 59,327 -228,258 -425,311 -383,102 -179,1054 -573,921l-97 -566c-84,-204 -160,-7 -279,-290 -90,-214 -157,-200 -250,-359 -175,-299 -97,-51 -186,-424 -39,-159 -95,-287 -100,-469l399 -48 -15 -83 216 50 -54 -146c292,-166 17,282 490,-111 153,-127 -34,-389 -125,-530 -123,-191 -182,-252 -113,-529 26,-101 148,-118 79,-230 -62,-100 -177,-82 -231,-173l113 -191c81,-12 177,84 204,-2 32,-102 -31,-171 50,-307 63,-106 180,-133 151,-246 -28,-108 -102,-125 -92,-262 12,-174 212,-415 350,-511 326,-228 289,-161 499,-2l-35 -284 661 -55 -57 -68 979 -1188 417 127 -51 138c231,42 397,849 182,980 -456,279 -542,-559 -625,-671 -13,131 35,314 -54,417 -107,124 -142,69 -173,277 -7,51 -6,401 124,260 80,-87 -148,-211 79,-266l176 341 109 -232 426 17 43 169c59,-95 288,-519 362,-549l152 303c-94,89 -196,-2 -273,52l74 178 875 -70 -141 145 669 151 39 -184c342,-73 429,632 656,545l-113 -320 123 -334c57,-99 338,-351 339,-440l250 152c12,69 -124,310 -160,387l41 20 292 -406 -57 399 236 152 -194 -249 251 -88 281 169 -150 -482 550 -46c30,-129 -173,-201 170,-440 71,-49 360,-228 438,-233l164 -19 113 -113 -43 -23 173 -350 68 13 204 289 102 -93c156,-30 326,97 368,249 63,223 -85,311 -132,475l121 20 269 654 -140 407 -174 167 191 1262 297 42 424 704 18 492 384 -169 21 48c209,-302 95,-700 469,-323l168 -15 388 492c24,-20 396,-145 666,-74 155,41 463,-123 593,-215 524,-366 -161,-523 -7,-1080 98,-144 444,-334 371,-543 -46,-134 -194,-85 -164,-291 31,-220 -44,-306 -25,-387l448 -199c-9,-141 -139,-248 -212,-342 -174,-221 28,-248 34,-375 16,-380 430,-37 143,-622 -221,-452 360,-397 86,-648 -109,-100 -283,3 -327,-198 -27,-120 158,-230 103,-411l-243 -106 237 -487 287 -72 -11 -86 -268 -65c-39,-131 376,-668 497,-759 132,-100 251,-153 378,-272 250,-234 400,105 449,-133 -177,-36 -164,-14 -232,-87l336 -312zm-5595 4003c7,82 128,240 -180,302l180 -302zm20 -20l-20 20 20 -20zm-853 -447l0 0zm6543 -3251l0 0z"/>
   <path class="fil1" d="M12541 6538l0 0zm21 -20l-21 20 21 -20zm0 0l-359 131 -23 193 178 146 -140 60 21 79 -402 167 62 264c-323,76 -336,-403 -503,-425l-406 90c24,70 90,176 63,247l-890 84 269 654 -140 407 -174 167 191 1262 297 42 424 704 18 492 384 -169 21 48c209,-302 95,-700 469,-323l168 -15 388 492c24,-20 396,-145 666,-74 155,41 463,-123 593,-215 524,-366 -161,-523 -7,-1080 98,-144 444,-334 371,-543 -46,-134 -194,-85 -164,-291 31,-220 -44,-306 -25,-387l448 -199c-9,-141 -139,-248 -212,-342 -174,-221 28,-248 34,-375 16,-380 430,-37 143,-622 -221,-452 360,-397 86,-648 -109,-100 -283,3 -327,-198 -27,-120 158,-230 103,-411l-243 -106 133 201c-77,-9 -454,-165 -537,-158 -282,25 -209,351 -334,461l-549 12c-31,63 -2,220 3,295l-98 -117z"/>
   <path class="fil1" d="M17459 8936l0 72 -21 9c-47,2 -664,-298 -752,-345 -412,-220 -329,-322 -518,-601 -58,-85 -158,-606 -226,-808 -51,-152 -27,-379 -103,-466 -101,-32 -114,-20 -146,6l-671 -441 -3 -56 539 -469 31 32 92 167 297 -106 85 -376 156 -32 235 686c-104,73 -190,-14 -242,166 -53,187 64,158 70,302l-119 -59 -28 305 303 490 64 -164 421 244c-55,42 -96,64 -125,112l327 243c-9,133 -132,75 -61,260 60,156 143,104 210,183l-100 182 71 -9 214 473z"/>
   <path class="fil2" d="M16773 11705l-39 -229 184 5c-24,-93 -714,-191 -518,-581l222 28c-8,-69 -566,-324 -703,-473 -236,-255 -586,-450 -291,8 186,289 370,230 582,616 33,61 519,627 563,626z"/>
   <polygon class="fil3" points="2490,8770 2633,9214 3099,9213 2722,9486 2866,9929 2490,9654 2114,9929 2258,9486 1881,9213 2347,9214 "/>
   <g>
    <path class="fil4" d="M3369 7336l-1 63 312 20 -39 115 -310 105 -110 388 -5 13 -3 13 -4 12 -3 11 -2 10 -2 9 -1 8 -1 8 0 7 0 6 0 6 1 5 2 4 1 4 2 4 3 3 2 3 3 2 3 2 4 2 4 2 4 1 4 1 4 1 5 1 5 1 5 1 5 2 5 1 5 1 5 2 5 1 0 0 6 2 5 2 6 1 5 2 6 1 5 1 6 1 6 1 5 1 6 1 6 1 6 1 6 1 6 0 6 1 6 1 6 0 7 1 6 0 6 1 7 0 7 1 7 0 6 1 7 0 7 1 8 0 7 1 7 0 8 1 7 0 8 1 0 0 588 -56 -45 133 -2 5 -4 6 -5 5 -6 5 -7 5 -7 5 -9 4 -9 5 -10 4 -11 5 -11 4 -11 4 -12 4 -12 3 -12 4 -12 4 -12 3 -11 3 -12 3 -11 2 -11 3 -10 2 -10 3 -9 1 -9 2 -7 2 -7 1 -5 1 -5 1 -3 1 -2 0 -1 0 0 0 -39 115 -3 8 -4 8 -3 7 -5 7 -4 5 -4 5 -5 5 -5 4 -5 3 -5 2 -5 2 -5 2 -5 0 -5 1 -5 -1 -4 0 -5 -2 -4 -2 -4 -2 -4 -3 -4 -3 -3 -3 -3 -4 -2 -5 -2 -4 -2 -6 -1 -5 0 -6 0 -6 1 -6 1 -7 2 -7 0 0 20 -58 -191 64 -26 76 -2 13 -3 11 -4 10 -3 9 -5 8 -4 8 -5 6 -5 5 -5 4 -5 4 -5 2 -5 2 -6 1 -5 1 -5 0 -5 -1 -5 -2 -5 -2 -5 -3 -4 -3 -4 -4 -4 -4 -3 -5 -3 -5 -2 -5 -2 -6 -1 -6 -1 -6 0 -7 1 -6 1 -7 2 -7 0 0 12 -37 -285 94 -134 335 -14 22 -13 19 -13 17 -12 14 -11 13 -11 10 -10 8 -10 6 -9 4 -9 2 -8 1 -8 -1 -7 -2 -7 -3 -6 -5 -5 -5 -5 -7 -5 -8 -4 -8 -3 -9 -3 -10 -2 -10 -2 -11 -1 -10 -1 -11 -1 -11 1 -11 0 -11 2 -11 1 -10 3 -10 2 -9 0 0 97 -349 -172 -248 -19 55 -3 5 -4 4 -4 3 -4 4 -5 2 -4 3 -4 2 -5 1 -4 1 -5 1 -4 0 -4 0 -5 -1 -4 -1 -4 -2 -3 -2 -4 -2 -3 -3 -3 -3 -3 -4 -2 -4 -3 -4 -1 -5 -2 -6 -1 -5 0 -6 0 -7 0 -7 1 -7 2 -8 2 -8 2 -9 0 0 33 -95 -115 -168 -13 39 -3 7 -3 7 -4 6 -3 6 -5 5 -4 5 -5 4 -4 4 -5 3 -5 3 -5 2 -6 2 -5 1 -5 1 -5 0 -4 0 -5 -1 -4 -1 -4 -2 -4 -3 -3 -3 -3 -4 -3 -4 -2 -5 -2 -6 -1 -6 0 -7 0 -8 1 -8 2 -9 2 -10 3 -10 0 0 33 -96 -70 -107 -4 -7 -4 -7 -3 -7 -4 -6 -4 -6 -3 -7 -4 -6 -4 -6 -3 -6 -4 -6 -3 -6 -4 -5 -3 -6 -3 -6 -3 -6 -2 -6 -3 -6 -2 -6 -2 -6 -2 -6 -1 -6 -1 -7 -1 -6 0 -7 -1 -7 1 -7 0 -8 1 -7 2 -8 2 -9 2 -8 3 -9 0 0 25 -75 419 397 138 89 13 10 13 9 12 8 11 6 10 5 10 4 8 3 8 3 7 1 6 1 6 -1 5 0 5 -2 4 -2 4 -3 3 -3 3 -4 3 -3 2 -5 2 -4 2 -5 2 -5 2 -5 2 -5 1 -5 2 -5 2 -4 2 -5 2 -4 2 -4 3 -4 3 -3 0 0 179 -406 -184 -273 39 -115 258 173 39 -50 19 6zm-290 627l142 48 -108 280 -142 -48 108 -280zm447 -961l133 69 -93 161 -46 98 -138 -59 52 -109 92 -160zm582 -887l120 90 -71 88 -102 149 -127 -80 109 -159 71 -88zm708 -789l105 107 -55 50 -151 159 -113 -99 159 -168 55 -49zm823 -671l86 123 -51 33 -185 142 -96 -116 195 -149 51 -33zm919 -530l65 135 -60 27 -201 107 -76 -129 211 -113 61 -27zm994 -370l42 144 -83 20 -197 67 -54 -140 209 -71 83 -20zm1043 -194l17 149 -111 8 -180 29 -30 -147 193 -31 111 -8zm1062 -3l-10 149 -134 -14 -158 -4 -4 -149 172 3 134 15zm1044 189l-36 146 -136 -41 -148 -31 23 -148 161 33 136 41zm994 375l-63 136 -103 -53 -164 -67 50 -141 177 72 103 53zm915 540l-86 122 -29 -22 -217 -138 75 -130 228 145 29 23zm809 678l-97 114 -221 -203 97 -114 221 203zm709 790l-115 97 -175 -225 -6 -7 106 -106 15 17 175 224zm607 863l-122 87 -165 -250 122 -88 165 251zm507 931l-133 69 -111 -234 -18 -31 128 -79 23 41 111 234zm420 967l-138 60 -110 -279 138 -60 110 279zm345 996l-141 51 -93 -285 141 -51 93 285zm276 1018l-144 42 -76 -290 144 -42 76 290z"/>
   </g>
  </g>
 </g>
</svg>
