<?xml version="1.0" encoding="UTF-8"?>
<!DOCTYPE svg PUBLIC "-//W3C//DTD SVG 1.1//EN" "http://www.w3.org/Graphics/SVG/1.1/DTD/svg11.dtd">
<!-- Creator: CorelDRAW X7 -->
<svg xmlns="http://www.w3.org/2000/svg" xml:space="preserve" width="100%" height="100%" version="1.1" style="shape-rendering:geometricPrecision; text-rendering:geometricPrecision; image-rendering:optimizeQuality; fill-rule:evenodd; clip-rule:evenodd"
viewBox="0 0 17639 17639"
 xmlns:xlink="http://www.w3.org/1999/xlink">
 <defs>
  <style type="text/css">
   <![CDATA[
    .fil0 {fill:none}
    .fil1 {fill:#FEFEFE;fill-rule:nonzero}
   ]]>
  </style>
 </defs>
 <g id="Слой_x0020_1">
  <metadata id="CorelCorpID_0Corel-Layer"/>
  <rect class="fil0" width="17639" height="17639"/>
  <path class="fil1" d="M3543 8082l0 -2550 957 0c195,0 351,25 469,77 117,51 209,131 276,238 67,107 100,220 100,337 0,109 -29,211 -88,308 -59,96 -148,173 -267,233 154,45 273,122 355,231 83,109 125,238 125,386 0,120 -26,231 -76,334 -51,103 -113,181 -187,237 -74,55 -167,98 -279,126 -112,29 -249,43 -412,43l-973 0zm338 -1478l552 0c149,0 257,-10 322,-30 86,-25 150,-68 194,-128 43,-59 65,-133 65,-223 0,-85 -20,-159 -61,-224 -40,-64 -99,-109 -174,-133 -75,-23 -205,-35 -388,-35l-510 0 0 773zm0 1179l636 0c109,0 185,-4 230,-13 77,-13 142,-37 195,-69 52,-33 95,-80 128,-143 34,-62 51,-134 51,-215 0,-96 -24,-178 -74,-249 -48,-71 -116,-120 -203,-148 -86,-29 -210,-43 -373,-43l-590 0 0 880z"/>
  <path id="1" class="fil1" d="M7653 6233l314 0 0 1849 -314 0 0 -1849zm-1749 0l314 0 0 723 395 0c258,0 457,50 596,151 140,100 209,238 209,414 0,155 -58,287 -174,396 -117,110 -302,165 -558,165l-782 0 0 -1849zm314 1592l329 0c197,0 339,-24 424,-73 85,-48 127,-124 127,-228 0,-80 -32,-151 -94,-214 -63,-62 -201,-94 -416,-94l-370 0 0 609z"/>
  <path id="2" class="fil1" d="M8607 6233l1457 0 0 1847 -313 0 0 -1587 -830 0 0 920c0,214 -7,355 -21,424 -14,69 -52,128 -115,179 -63,51 -153,77 -271,77 -73,0 -157,-5 -252,-14l0 -261 137 0c65,0 111,-6 139,-20 28,-13 46,-34 56,-63 8,-29 13,-124 13,-284l0 -1218z"/>
  <path id="3" class="fil1" d="M10455 7158c0,-342 95,-595 285,-759 159,-137 353,-205 581,-205 254,0 462,83 623,249 161,166 242,396 242,688 0,238 -36,424 -107,560 -71,136 -175,242 -312,317 -136,76 -285,113 -446,113 -259,0 -467,-82 -627,-248 -160,-166 -239,-404 -239,-715zm320 0c0,236 52,413 155,530 104,118 234,177 391,177 156,0 285,-59 389,-177 103,-118 155,-298 155,-540 0,-228 -52,-401 -156,-518 -104,-117 -233,-176 -388,-176 -157,0 -287,58 -391,175 -103,117 -155,294 -155,529z"/>
  <path id="4" class="fil1" d="M12553 6233l721 0c177,0 309,15 396,45 86,30 160,84 222,163 62,79 93,173 93,284 0,88 -19,165 -55,231 -37,66 -91,121 -165,165 87,29 159,83 216,162 57,79 86,174 86,282 -11,176 -74,306 -188,390 -113,85 -278,127 -494,127l-832 0 0 -1849zm313 780l333 0c132,0 224,-7 273,-20 50,-15 94,-43 134,-85 39,-42 58,-94 58,-153 0,-98 -34,-165 -102,-204 -69,-39 -187,-58 -353,-58l-343 0 0 520zm0 812l412 0c177,0 298,-20 364,-61 66,-42 101,-113 104,-214 0,-59 -19,-114 -57,-164 -38,-51 -88,-83 -149,-96 -61,-14 -160,-20 -295,-20l-379 0 0 555z"/>
  <path id="5" class="fil1" d="M819 9511l517 0 0 1086c115,-12 192,-41 233,-89 40,-47 103,-180 187,-397 106,-276 214,-448 321,-515 107,-67 279,-101 516,-101 12,0 37,-1 75,-2l0 381 -73 -2c-106,0 -183,13 -232,39 -48,27 -87,66 -118,120 -30,53 -74,163 -133,329 -32,89 -65,162 -102,222 -37,59 -101,115 -194,167 115,32 209,98 284,197 75,98 157,237 246,417l347 698 -606 0 -305 -657c-5,-9 -15,-27 -30,-54 -6,-9 -27,-49 -64,-120 -65,-125 -119,-204 -160,-235 -42,-32 -106,-48 -192,-49l0 1115 -517 0 0 -2550z"/>
  <path id="6" class="fil1" d="M3389 10782l-441 -78c49,-181 136,-314 257,-401 122,-86 303,-130 543,-130 218,0 380,26 487,77 106,52 182,117 225,197 44,79 65,225 65,437l-7 570c0,162 8,282 24,359 15,78 44,160 87,248l-485 0c-12,-32 -28,-80 -47,-143 -7,-29 -13,-48 -17,-57 -83,82 -172,144 -267,185 -95,40 -196,61 -303,61 -190,0 -339,-51 -448,-155 -110,-102 -164,-233 -164,-391 0,-104 25,-197 75,-279 49,-81 119,-144 209,-187 90,-44 219,-82 388,-114 228,-43 387,-84 475,-120l0 -50c0,-95 -24,-162 -70,-203 -47,-41 -135,-61 -263,-61 -88,0 -155,17 -204,52 -49,35 -88,96 -119,183zm656 396c-63,20 -162,45 -298,74 -135,30 -224,58 -266,85 -63,46 -95,103 -95,172 0,69 25,128 76,178 51,50 116,75 195,75 88,0 172,-29 252,-87 59,-44 98,-98 117,-162 12,-42 19,-121 19,-238l0 -97z"/>
  <polygon id="7" class="fil1" points="5021,10212 5630,10212 6084,11501 6546,10212 7151,10212 7151,12061 6734,12061 6734,10844 6287,12061 5867,12061 5438,10844 5438,12061 5021,12061 "/>
  <path id="8" class="fil1" d="M7584 10212l495 0 0 443c0,101 9,175 27,225 19,49 57,92 115,127 59,35 133,53 222,53 86,0 184,-20 292,-59l0 -789 488 0 0 1849 -488 0 0 -739c-191,51 -336,76 -435,76 -150,0 -285,-32 -404,-96 -119,-64 -201,-147 -246,-247 -44,-101 -66,-234 -66,-401l0 -442z"/>
  <path id="9" class="fil1" d="M10072 10782l-441 -78c49,-181 136,-314 257,-401 122,-86 303,-130 543,-130 218,0 380,26 487,77 106,52 182,117 225,197 44,79 65,225 65,437l-7 570c0,162 8,282 24,359 15,78 44,160 87,248l-485 0c-12,-32 -28,-80 -47,-143 -7,-29 -13,-48 -17,-57 -83,82 -172,144 -267,185 -95,40 -196,61 -303,61 -190,0 -339,-51 -448,-155 -110,-102 -164,-233 -164,-391 0,-104 25,-197 75,-279 49,-81 119,-144 209,-187 90,-44 219,-82 388,-114 228,-43 387,-84 475,-120l0 -50c0,-95 -24,-162 -70,-203 -47,-41 -135,-61 -263,-61 -88,0 -155,17 -204,52 -49,35 -88,96 -119,183zm656 396c-63,20 -162,45 -298,74 -135,30 -224,58 -266,85 -63,46 -95,103 -95,172 0,69 25,128 76,178 51,50 116,75 195,75 88,0 172,-29 252,-87 59,-44 98,-98 117,-162 12,-42 19,-121 19,-238l0 -97z"/>
  <polygon id="10" class="fil1" points="11469,10212 13140,10212 13140,10608 12548,10608 12548,12061 12060,12061 12060,10608 11469,10608 "/>
  <path id="11" class="fil1" d="M13413 10212l488 0 0 755c81,-9 138,-34 172,-74 34,-41 75,-129 122,-266 63,-182 131,-298 206,-349 74,-51 172,-76 293,-76 37,0 101,3 193,9l2 322c-129,0 -212,12 -248,36 -36,26 -75,102 -117,228 -57,170 -139,275 -246,314 154,43 285,178 392,404 5,12 12,24 19,37l273 509 -525 0 -244 -536c-50,-108 -93,-178 -130,-208 -36,-31 -91,-47 -162,-47l0 791 -488 0 0 -1849z"/>
  <path id="12" class="fil1" d="M15580 10782l-442 -78c50,-181 136,-314 258,-401 122,-86 303,-130 542,-130 218,0 381,26 488,77 106,52 181,117 225,197 43,79 65,225 65,437l-7 570c0,162 8,282 23,359 16,78 45,160 87,248l-484 0c-12,-32 -28,-80 -47,-143 -8,-29 -14,-48 -17,-57 -83,82 -172,144 -267,185 -95,40 -196,61 -304,61 -189,0 -339,-51 -448,-155 -109,-102 -164,-233 -164,-391 0,-104 25,-197 75,-279 50,-81 120,-144 210,-187 89,-44 219,-82 388,-114 228,-43 386,-84 474,-120l0 -50c0,-95 -23,-162 -69,-203 -47,-41 -135,-61 -264,-61 -87,0 -155,17 -203,52 -50,35 -89,96 -119,183zm655 396c-62,20 -161,45 -297,74 -135,30 -225,58 -266,85 -64,46 -96,103 -96,172 0,69 26,128 77,178 51,50 116,75 195,75 88,0 172,-29 252,-87 59,-44 98,-98 116,-162 13,-42 19,-121 19,-238l0 -97z"/>
 </g>
</svg>
