<svg height="464pt" viewBox="0 0 464 464" width="464pt" xmlns="http://www.w3.org/2000/svg"><path d="m464 232c0 128.128906-103.871094 232-232 232s-232-103.871094-232-232 103.871094-232 232-232 232 103.871094 232 232zm0 0" fill="#da1c4b"/><path d="m424 232c.003906 78.222656-47.476562 148.617188-120 177.921875-46.164062 18.773437-97.835938 18.773437-144 0-89.515625-36.210937-138.210938-133.273437-113.722656-226.679687 24.484375-93.40625 114.535156-154.09375 210.300781-141.730469 95.769531 12.359375 167.457031 93.925781 167.421875 190.488281zm0 0" fill="#fff"/><path d="m312 208c0 44.183594-35.816406 80-80 80s-80-35.816406-80-80 35.816406-80 80-80 80 35.816406 80 80zm0 0" fill="#7d8d9c"/><g fill="#5a6470"><path d="m88 224h104v32h-104zm0 0"/><path d="m126.320312 200h-16c-.074218-4.101562.65625-8.179688 2.152344-12 1.609375-4.269531 1.609375-8.980469 0-13.246094-2.871094-7.773437-2.871094-16.316406 0-24.089844.871094-2.109374 1.28125-4.382812 1.207032-6.664062h16c.078124 4.117188-.652344 8.210938-2.152344 12.046875-1.609375 4.277344-1.609375 8.992187 0 13.265625 2.871094 7.765625 2.871094 16.304688 0 24.070312-.867188 2.097657-1.277344 4.351563-1.207032 6.617188zm0 0"/><path d="m94.320312 200h-16c-.074218-4.101562.65625-8.179688 2.152344-12 1.609375-4.269531 1.609375-8.980469 0-13.246094-2.871094-7.773437-2.871094-16.316406 0-24.089844.871094-2.109374 1.28125-4.382812 1.207032-6.664062h16c.078124 4.117188-.652344 8.210938-2.152344 12.046875-1.609375 4.277344-1.609375 8.992187 0 13.265625 2.871094 7.765625 2.871094 16.304688 0 24.070312-.867188 2.097657-1.277344 4.351563-1.207032 6.617188zm0 0"/></g><path d="m304 364.320312v45.601563c-46.164062 18.773437-97.835938 18.773437-144 0v-45.601563c0-24.476562 19.84375-44.320312 44.320312-44.320312h55.359376c24.476562 0 44.320312 19.84375 44.320312 44.320312zm0 0" fill="#7d8d9c"/><path d="m368 72.003906 28 28-296 296-28-28zm0 0" fill="#da1c4b"/></svg>