<?xml version="1.0" encoding="iso-8859-1"?>
<!-- Generator: Adobe Illustrator 18.1.1, SVG Export Plug-In . SVG Version: 6.00 Build 0)  -->
<svg version="1.1" id="Capa_1" xmlns="http://www.w3.org/2000/svg" xmlns:xlink="http://www.w3.org/1999/xlink" x="0px" y="0px"
	 viewBox="0 0 36.393 36.393" style="enable-background:new 0 0 36.393 36.393;" xml:space="preserve">
<g>
	<path d="M36.182,18.492l-5.588,5.742c0,0-0.662,0.701-0.662-0.063c-0.002-0.76-0.002-2.603-0.002-2.603s-0.443,0-1.132,0.002
		c-1.935-0.002-8.372-0.002-9.981,0c-0.045,0.009-0.082,0.007-0.107,0c-0.021,0.007-0.062,0.011-0.116-0.002
		c-1.644,0-9.066,0.002-10.996,0c-0.689,0.003-1.139,0.003-1.139,0.003s0,1.84,0,2.604c0.005,0.76-0.66,0.062-0.66,0.062
		l-5.588-5.744c0,0-0.441-0.38-0.047-0.778c0.551-0.545,5.766-5.597,5.766-5.597s0.696-0.703,0.696,0.227
		c-0.001,0.924-0.001,2.406-0.001,2.406s0.404-0.005,1.019-0.002c1.866-0.004,9.418-0.004,11.019-0.004c0.025,0,0.064,0,0.094,0
		c1.572,0,8.13,0,9.996,0.004c0.613-0.004,1.016,0,1.016,0s-0.003-1.481-0.003-2.405c0.003-0.927,0.695-0.228,0.695-0.228
		s5.22,5.05,5.769,5.598C36.623,18.113,36.181,18.492,36.182,18.492z"/>
</g>
<g>
</g>
<g>
</g>
<g>
</g>
<g>
</g>
<g>
</g>
<g>
</g>
<g>
</g>
<g>
</g>
<g>
</g>
<g>
</g>
<g>
</g>
<g>
</g>
<g>
</g>
<g>
</g>
<g>
</g>
</svg>
