<?xml version="1.0" encoding="UTF-8"?>
<!DOCTYPE svg PUBLIC "-//W3C//DTD SVG 1.1//EN" "http://www.w3.org/Graphics/SVG/1.1/DTD/svg11.dtd">
<!-- Creator: CorelDRAW X7 -->
<svg xmlns="http://www.w3.org/2000/svg" xml:space="preserve" width="100%" height="100%" version="1.1" style="shape-rendering:geometricPrecision; text-rendering:geometricPrecision; image-rendering:optimizeQuality; fill-rule:evenodd; clip-rule:evenodd"
viewBox="0 0 21590 23675"
 xmlns:xlink="http://www.w3.org/1999/xlink">
 <defs>
  <style type="text/css">
   <![CDATA[
    .str0 {stroke:#3DB773;stroke-width:564.44}
    .fil0 {fill:none}
    .fil1 {fill:#FEFEFE}
    .fil5 {fill:#2C3E50;fill-rule:nonzero}
    .fil2 {fill:#6DABDE;fill-rule:nonzero}
    .fil3 {fill:#E46D70;fill-rule:nonzero}
    .fil4 {fill:#FEFEFE;fill-rule:nonzero}
    .fil7 {fill:#6DABDE;fill-rule:nonzero;fill-opacity:0.250980}
    .fil6 {fill:#6DABDE;fill-rule:nonzero;fill-opacity:0.301961}
   ]]>
  </style>
 </defs>
 <g id="Слой_x0020_1">
  <metadata id="CorelCorpID_0Corel-Layer"/>
  <rect class="fil0" width="21590" height="23675"/>
  <g id="_320235776">
   <g>
    <g>
     <path class="fil1" d="M11301 8899l-833 -4c-311,-326 -718,-166 -597,430 -495,563 -289,1069 -473,1903 -507,696 -896,1464 -1070,2364 -90,400 -58,796 128,1087 380,453 506,481 1011,677l47 -87 190 26 11 -86 126 14 -11 -143 132 18 -14 -130 122 -36c-271,-1031 -715,-437 -1105,-806l424 -81 -355 -98 189 -108 -181 -103 299 -34 -188 -117 164 -4 -94 -90 214 -28 -216 -161 305 -32 -259 -154 333 -78 -284 -138 342 -61 -303 -69 317 -93 -253 -33 238 -161 -158 -146 204 23 -94 -123 90 -44 40 -102 28 102 97 39 -83 151 167 52 -145 162 168 33 -119 110 157 42 -126 92 196 64 -162 136 171 82 -168 57 150 57 -141 132 512 -3 -290 -179 333 -104 -301 -103 232 -78 -175 -108 140 -11 -101 -92 268 -71 -287 -144 253 -46 -192 -103 211 -18 -219 -162 251 -9 -99 -183 84 10 -8 -192 91 34 21 -167 100 41 -38 114 94 -26 -57 188 156 -41 -68 176 165 91 -203 88 289 74 -272 93 251 69 -206 102 295 92 -231 118 288 72 -175 140 184 38 -39 72 51 62 -57 75 223 5 -92 -122 164 -29 -97 -140 135 -27 -110 -140 167 3 -113 -189 114 19 -19 -155 81 -42 -36 -55 76 -102 59 92 -38 87 83 -38 -91 232 140 -77 -7 175 95 76 -156 106 250 69 -208 96 173 87 -170 88 282 95 -237 129 274 73 -166 132 159 53 -76 59 164 25 -154 73 225 68 -168 89 223 55 14 59c-548,216 -864,36 -1039,732l-22 164 76 9 -34 213 128 14 -30 87 179 0 3 54 172 -9 16 89 221 -37c939,-385 1277,-1059 1050,-2001 -214,-1055 -788,-1917 -1181,-2875 -200,59 -407,97 -626,105 402,-301 1235,-177 1205,-901 90,-4 87,-278 -42,-312 -521,-94 -532,-471 -1117,-673l0 0 -1 0 1 0 -1 0 0 0zm0 0l0 0 0 0z"/>
    </g>
    <path class="fil1" d="M11940 9280c195,-259 -98,-483 -335,-298 110,95 244,186 335,298z"/>
   </g>
  </g>
  <g id="_786680544">
   <path class="fil0 str0" d="M8498 8086c-809,-679 -1276,-1681 -1276,-2738 0,-1973 1600,-3573 3573,-3573 1973,0 3573,1600 3573,3573 0,1100 -506,2139 -1373,2816"/>
   <polyline class="fil0 str0" points="13203,3746 9998,6951 8387,5340 "/>
  </g>
  <g id="_786683744">
   <path class="fil2" d="M10802 22879c-290,0 -601,-79 -601,-253 0,-174 311,-253 601,-253 288,0 599,79 599,253 0,174 -311,253 -599,253zm0 -364l0 0c-292,0 -447,82 -457,112 10,28 165,109 457,109 290,0 446,-81 457,-112 -11,-27 -167,-109 -457,-109z"/>
   <path class="fil3" d="M10795 19916c571,3 1033,467 1033,1039 0,549 -952,1530 -1033,1619 -81,-89 -1032,-1070 -1032,-1619 0,-572 461,-1036 1032,-1039z"/>
   <path class="fil4" d="M11506 20955c0,389 -315,704 -704,704 -389,0 -705,-315 -705,-704 0,-389 316,-704 705,-704 389,0 704,315 704,704z"/>
   <path class="fil5" d="M11083 20829c0,155 -126,282 -281,282 -156,0 -282,-127 -282,-282 0,-156 126,-281 282,-281 155,0 281,125 281,281zm-281 830l0 0c209,0 397,-91 526,-237 -102,-160 -299,-268 -526,-268 -227,0 -425,108 -526,268 129,146 315,237 526,237z"/>
   <path class="fil2" d="M1707 21300c-288,0 -599,-79 -599,-254 0,-174 311,-253 599,-253 290,0 601,79 601,253 0,175 -311,254 -601,254zm0 -364l0 0c-290,0 -446,81 -457,112 11,28 167,108 457,108 292,0 447,-80 457,-112 -10,-27 -165,-108 -457,-108z"/>
   <path class="fil3" d="M1702 18336c571,4 1032,467 1032,1039 0,550 -951,1530 -1032,1619 -82,-89 -1034,-1069 -1034,-1619 0,-572 463,-1035 1034,-1039z"/>
   <path class="fil4" d="M2412 19375c0,389 -316,705 -705,705 -389,0 -704,-316 -704,-705 0,-388 315,-704 704,-704 389,0 705,316 705,704z"/>
   <path class="fil5" d="M1989 19250c0,155 -126,281 -282,281 -155,0 -281,-126 -281,-281 0,-156 126,-282 281,-282 156,0 282,126 282,282zm-282 830l0 0c211,0 397,-92 526,-238 -101,-159 -299,-268 -526,-268 -227,0 -424,109 -526,268 129,146 317,238 526,238z"/>
   <path class="fil4" d="M19895 21300c-289,0 -600,-79 -600,-254 0,-174 311,-253 600,-253 290,0 599,79 599,253 0,175 -309,254 -599,254zm0 -364l0 0c-290,0 -446,81 -457,112 11,28 167,108 457,108 291,0 447,-80 457,-112 -10,-27 -166,-108 -457,-108z"/>
   <path class="fil2" d="M19890 18336c571,4 1032,467 1032,1039 0,550 -952,1530 -1032,1619 -82,-89 -1034,-1069 -1034,-1619 0,-572 461,-1035 1034,-1039z"/>
   <path class="fil4" d="M20600 19375c0,389 -316,705 -705,705 -389,0 -704,-316 -704,-705 0,-388 315,-704 704,-704 389,0 705,316 705,704z"/>
   <path class="fil5" d="M20177 19250c0,155 -127,281 -282,281 -155,0 -281,-126 -281,-281 0,-156 126,-282 281,-282 155,0 282,126 282,282zm-282 830l0 0c209,0 397,-92 526,-238 -101,-159 -299,-268 -526,-268 -227,0 -425,109 -526,268 129,146 317,238 526,238z"/>
   <path class="fil2" d="M13854 20245c-247,0 -512,-67 -512,-216 0,-148 265,-216 512,-216 247,0 511,68 511,216 0,149 -264,216 -511,216zm0 -310l0 0c-248,0 -382,69 -390,95 8,24 142,93 390,93 248,0 381,-69 389,-95 -8,-24 -141,-93 -389,-93z"/>
   <path class="fil3" d="M13849 17716c487,2 882,398 882,886 0,469 -813,1306 -882,1382 -69,-76 -882,-913 -882,-1382 0,-488 394,-884 882,-886z"/>
   <path class="fil4" d="M14455 18602c0,333 -269,602 -601,602 -332,0 -601,-269 -601,-602 0,-332 269,-601 601,-601 332,0 601,269 601,601z"/>
   <path class="fil5" d="M14094 18495c0,133 -107,241 -240,241 -133,0 -240,-108 -240,-241 0,-133 107,-240 240,-240 133,0 240,107 240,240zm-240 709l0 0c179,0 338,-78 449,-203 -87,-135 -255,-228 -449,-228 -194,0 -363,93 -448,228 109,125 269,203 448,203z"/>
   <path class="fil2" d="M7571 19645c-145,0 -301,-40 -301,-128 0,-87 156,-127 301,-127 145,0 301,40 301,127 0,88 -156,128 -301,128zm0 -184l0 0c-146,0 -224,42 -230,57 6,13 84,54 230,54 147,0 225,-41 230,-55 -5,-14 -83,-56 -230,-56z"/>
   <path class="fil3" d="M7568 18154c287,2 519,236 519,523 0,276 -478,770 -519,814 -40,-44 -520,-538 -520,-814 0,-287 233,-521 520,-523z"/>
   <path class="fil4" d="M7926 18677c0,195 -160,354 -355,354 -196,0 -354,-159 -354,-354 0,-196 158,-354 354,-354 195,0 355,158 355,354z"/>
   <path class="fil5" d="M7713 18613c0,78 -63,142 -142,142 -78,0 -142,-64 -142,-142 0,-78 64,-141 142,-141 79,0 142,63 142,141zm-142 418l0 0c106,0 200,-47 264,-119 -51,-80 -149,-135 -264,-135 -115,0 -214,55 -264,135 65,72 158,119 264,119z"/>
   <path class="fil4" d="M5149 21769c-214,0 -443,-59 -443,-188 0,-127 229,-186 443,-186 212,0 442,59 442,186 0,129 -230,188 -442,188zm0 -269l0 0c-215,0 -330,60 -338,84 8,19 123,79 338,79 213,0 329,-60 337,-83 -8,-20 -124,-80 -337,-80z"/>
   <path class="fil2" d="M5144 19581c421,2 762,345 762,767 0,406 -702,1129 -762,1195 -61,-66 -763,-789 -763,-1195 0,-422 342,-765 763,-767z"/>
   <path class="fil4" d="M5668 20348c0,287 -232,520 -519,520 -287,0 -520,-233 -520,-520 0,-286 233,-519 520,-519 287,0 519,233 519,519z"/>
   <path class="fil5" d="M5356 20255c0,115 -93,208 -207,208 -116,0 -208,-93 -208,-208 0,-114 92,-207 208,-207 114,0 207,93 207,207zm-207 613l0 0c154,0 293,-68 388,-174 -75,-119 -221,-199 -388,-199 -169,0 -315,80 -389,199 96,106 234,174 389,174z"/>
  </g>
  <g>
   <path class="fil6" d="M5094 19368l106 3 -2 50 -2 160 -106 0 2 -163 2 -50zm67 -743l105 15 0 1 -20 153 -6 53 -105 -10 6 -56 20 -155 0 -1zm134 -732l104 21 -27 128 -16 79 -104 -20 16 -81 27 -127zm174 -723l102 26 -31 125 -20 80 -103 -25 20 -80 32 -126zm180 -717l103 24 -4 18 -33 135 -13 53 -103 -25 13 -53 33 -135 4 -17zm147 -723l105 18 -14 87 -22 123 -104 -20 21 -121 14 -87zm57 -659l106 0 0 0 -2 125 -1 21 -106 -8 1 -17 2 -121 0 0zm-1 -70l106 1 1 69 -106 0 -1 -70zm-80 -726l104 -18 18 91 19 120 -105 14 -18 -115 -18 -92zm-190 -708l101 -32 37 113 27 91 -102 28 -26 -87 -37 -113zm-259 -689l98 -40 53 130 26 67 -98 38 -26 -65 -53 -130zm-293 -679l97 -43 65 149 20 45 -97 43 -19 -45 -66 -149zm-290 -683l98 -40 8 21 66 160 6 14 -98 42 -6 -15 -66 -161 -8 -21zm-248 -703l101 -31 25 82 38 119 -100 33 -40 -121 -24 -82zm-149 -735l106 -11 1 20 20 154 6 31 -104 20 -6 -35 -21 -159 -2 -20zm21 -750l105 12 -17 129 -7 78 -106 -6 7 -83 18 -130zm174 -729l102 31 -19 58 -42 143 -102 -28 43 -146 18 -58zm258 -699l98 39 -44 110 -34 86 -99 -38 34 -87 45 -110zm287 -684l98 41 -57 134 -26 61 -97 -41 26 -61 56 -134zm280 -685l98 39 -53 138 -24 60 -98 -40 23 -59 54 -138zm239 -697l101 32 -38 126 -25 77 -100 -34 24 -74 38 -127zm171 -714l104 20 -17 99 -24 111 -103 -24 23 -107 17 -99zm77 -728l106 4 -1 45 -10 169 -106 -9 10 -165 1 -44zm-58 -725l104 -18 13 66 17 104 6 41 -106 13 -5 -38 -16 -102 -13 -66zm-185 -711l101 -30 13 41 32 109 16 54 -102 28 -16 -53 -32 -107 -12 -42zm-219 -707l101 -31 26 85 34 112 2 5 -101 32 -2 -5 -35 -113 -25 -85zm-186 -721l103 -23 24 110 22 96 -103 24 -23 -97 -23 -110zm-94 -742l106 -7 6 121 8 88 -106 11 -7 -91 -7 -122zm48 -744l326 647 -648 2 322 -649z"/>
  </g>
  <g>
   <path class="fil7" d="M19833 18126l106 -3 2 61 3 152 -106 0 -2 -149 -3 -61zm-75 -730l104 -16 11 63 20 145 0 4 -105 11 0 -1 -20 -143 -10 -63zm-148 -721l103 -24 21 88 27 119 -103 22 -27 -117 -21 -88zm-188 -715l102 -28 1 6 36 130 19 69 -102 27 -19 -68 -36 -130 -1 -6zm-189 -717l103 -26 21 87 30 118 -102 27 -31 -119 -21 -87zm-135 -734l105 -14 11 87 17 118 0 2 -104 19 -1 -4 -17 -121 -11 -87zm-4 -752l106 11 -3 24 -13 165 0 17 -106 0 1 -22 12 -170 3 -25zm148 -733l102 27 -26 93 -28 110 -103 -24 29 -114 26 -92zm249 -704l99 39 -61 151 -17 44 -99 -36 18 -47 60 -151zm302 -680l96 45 -23 49 -65 143 -97 -44 66 -143 23 -50zm312 -671l97 44 -51 112 -38 81 -96 -45 37 -80 51 -112zm278 -682l100 36 -18 50 -56 150 -99 -39 56 -147 17 -50zm185 -706l104 17 -4 29 -28 149 -8 34 -103 -26 7 -30 28 -144 4 -29zm10 -724l105 -12 4 33 14 150 1 34 -106 0 -1 -27 -13 -144 -4 -34zm-169 -709l100 -33 5 14 47 150 11 42 -102 26 -11 -38 -46 -147 -4 -14zm-269 -685l98 -42 44 103 39 93 -98 40 -39 -92 -44 -102zm-303 -675l96 -43 2 5 72 157 14 30 -97 44 -14 -31 -71 -157 -2 -5zm-295 -681l98 -40 16 41 64 154 -97 41 -65 -155 -16 -41zm-249 -703l102 -31 19 67 44 133 -101 34 -44 -136 -20 -67zm-165 -728l104 -18 12 81 24 126 -104 21 -24 -130 -12 -80zm-53 -678l105 0 0 0 3 140 -105 5 -3 -145 0 0zm1 -69l106 0 -2 69 -105 0 1 -69zm125 -743l103 28 -8 29 -25 97 -18 77 -103 -23 18 -79 25 -99 8 -30zm224 -709l100 33 -9 29 -35 103 -23 69 -100 -33 23 -69 34 -103 10 -29zm223 -705l101 30 -29 102 -30 102 -102 -31 31 -101 29 -102zm148 -717l105 15 -6 53 -18 114 -8 45 -104 -20 8 -42 17 -112 6 -53zm82 -1013l322 649 -648 -2 326 -647z"/>
  </g>
 </g>
</svg>
