<?xml version="1.0" encoding="UTF-8"?>
<!DOCTYPE svg PUBLIC "-//W3C//DTD SVG 1.1//EN" "http://www.w3.org/Graphics/SVG/1.1/DTD/svg11.dtd">
<!-- Creator: CorelDRAW X7 -->
<svg xmlns="http://www.w3.org/2000/svg" xml:space="preserve" width="26px" height="26px" version="1.1" style="shape-rendering:geometricPrecision; text-rendering:geometricPrecision; image-rendering:optimizeQuality; fill-rule:evenodd; clip-rule:evenodd"
viewBox="0 0 5710 5711"
 xmlns:xlink="http://www.w3.org/1999/xlink">
 <defs>
  <style type="text/css">
   <![CDATA[
    .fil0 {fill:#2C3E50}
   ]]>
  </style>
 </defs>
 <g id="Слой_x0020_1">
  <metadata id="CorelCorpID_0Corel-Layer"/>
  <path class="fil0" d="M5395 0l-5080 0c-174,0 -315,141 -315,315l0 5080c0,174 141,316 315,316l2735 0 0 -2212 -745 0 0 -862 745 0 0 -636c0,-737 451,-1138 1108,-1138 315,0 586,23 665,33l0 771 -456 1c-358,0 -427,170 -427,419l0 550 853 0 -111 862 -742 0 0 2212 1455 0c174,0 315,-142 315,-316l0 -5080c0,-174 -141,-315 -315,-315z"/>
 </g>
</svg>
