<?xml version="1.0" encoding="UTF-8"?>
<!DOCTYPE svg PUBLIC "-//W3C//DTD SVG 1.1//EN" "http://www.w3.org/Graphics/SVG/1.1/DTD/svg11.dtd">
<!-- Creator: CorelDRAW X7 -->
<svg xmlns="http://www.w3.org/2000/svg" xml:space="preserve" width="26px" height="26px" version="1.1" style="shape-rendering:geometricPrecision; text-rendering:geometricPrecision; image-rendering:optimizeQuality; fill-rule:evenodd; clip-rule:evenodd"
viewBox="0 0 111 111"
 xmlns:xlink="http://www.w3.org/1999/xlink">
 <defs>
  <style type="text/css">
   <![CDATA[
    .str0 {stroke:#2B2A29;stroke-width:0.386477}
    .fil0 {fill:#2C3E50}
    .fil2 {fill:#FEFEFE;fill-rule:nonzero}
    .fil1 {fill:#2C3E50;fill-rule:nonzero}
   ]]>
  </style>
 </defs>
 <g id="Слой_x0020_1">
  <metadata id="CorelCorpID_0Corel-Layer"/>
  <rect class="fil0 str0" x="6" y="5" width="100" height="101" rx="24" ry="27"/>
  <path class="fil1" d="M54 0c-14,0 -16,0 -21,0 -6,1 -10,2 -14,3 -3,1 -7,3 -10,6 -3,3 -5,7 -6,10 -1,4 -2,8 -3,14 0,6 0,8 0,23 0,15 0,17 0,23 1,6 2,10 3,13 1,4 3,7 6,10 3,3 7,5 10,6 4,2 8,3 14,3 6,0 8,0 23,0 15,0 17,0 23,0 6,0 10,-1 13,-3 4,-1 7,-3 10,-6 3,-3 5,-6 6,-10 2,-3 3,-7 3,-13 0,-6 0,-8 0,-22l0 -3c0,-14 0,-16 0,-21 0,-6 -1,-10 -3,-14 -1,-3 -3,-7 -6,-10 -3,-3 -6,-5 -10,-6 -3,-1 -7,-2 -13,-3 -6,0 -8,0 -22,0l-3 0zm2 10c15,0 16,0 22,0 6,1 9,2 11,2 2,1 4,2 6,4 2,2 3,4 4,7 1,2 2,5 2,10 0,6 0,8 0,23 0,15 0,16 0,22 0,6 -1,9 -2,11 -1,2 -2,4 -4,6 -2,2 -4,3 -6,4 -2,1 -5,2 -11,2 -6,0 -7,0 -22,0 -15,0 -17,0 -23,0 -5,0 -8,-1 -10,-2 -3,-1 -5,-2 -7,-4 -2,-2 -3,-4 -4,-6 0,-2 -1,-5 -2,-11 0,-6 0,-7 0,-22 0,-15 0,-17 0,-23 1,-5 2,-8 2,-10 1,-3 2,-5 4,-7 2,-2 4,-3 7,-4 2,0 5,-1 10,-2 6,0 8,0 23,0z"/>
  <path class="fil2" d="M56 74c-11,0 -19,-8 -19,-18 0,-11 8,-19 19,-19 10,0 18,8 18,19 0,10 -8,18 -18,18zm0 -47c-16,0 -29,13 -29,29 0,15 13,28 29,28 15,0 28,-13 28,-28 0,-16 -13,-29 -28,-29z"/>
  <path class="fil2" d="M92 26c0,4 -3,7 -7,7 -3,0 -6,-3 -6,-7 0,-4 3,-7 6,-7 4,0 7,3 7,7z"/>
 </g>
</svg>
