<?xml version="1.0" encoding="UTF-8"?>
<!DOCTYPE svg PUBLIC "-//W3C//DTD SVG 1.1//EN" "http://www.w3.org/Graphics/SVG/1.1/DTD/svg11.dtd">
<!-- Creator: CorelDRAW X7 -->
<svg xmlns="http://www.w3.org/2000/svg" xml:space="preserve" width="26px" height="26px" version="1.1" style="shape-rendering:geometricPrecision; text-rendering:geometricPrecision; image-rendering:optimizeQuality; fill-rule:evenodd; clip-rule:evenodd"
viewBox="0 0 10204 10204"
 xmlns:xlink="http://www.w3.org/1999/xlink">
 <defs>
  <style type="text/css">
   <![CDATA[
    .fil0 {fill:#2C3E50;fill-rule:nonzero}
   ]]>
  </style>
 </defs>
 <g id="Слой_x0020_1">
  <metadata id="CorelCorpID_0Corel-Layer"/>
  <g id="_397561016">
   <path class="fil0" d="M4976 0c-1271,0 -1450,7 -1978,31 -543,24 -914,111 -1238,237 -336,130 -620,305 -904,588 -283,284 -458,568 -588,904 -126,324 -213,695 -237,1238 -25,545 -31,718 -31,2104 0,1385 6,1559 31,2103 24,543 111,914 237,1239 130,335 305,620 588,903 284,284 568,459 904,589 324,126 695,212 1238,237 545,25 718,31 2104,31 1385,0 1559,-6 2103,-31 543,-25 914,-111 1239,-237 335,-130 620,-305 904,-589 283,-283 458,-568 588,-903 126,-325 212,-696 237,-1239 24,-527 30,-706 31,-1977l0 -253c-1,-1270 -7,-1449 -31,-1977 -25,-543 -111,-914 -237,-1238 -130,-336 -305,-620 -588,-904 -284,-283 -569,-458 -904,-588 -325,-126 -696,-213 -1239,-237 -527,-24 -706,-31 -1977,-31l-252 0zm126 919c1362,0 1524,5 2062,30 497,23 767,106 947,176 238,92 408,203 586,381 179,179 290,349 382,587 70,180 153,450 176,947 24,538 30,700 30,2062 0,1362 -6,1524 -30,2061 -23,498 -106,768 -176,948 -92,238 -203,408 -382,586 -178,179 -348,290 -586,382 -180,70 -450,153 -947,176 -538,24 -700,30 -2062,30 -1362,0 -1524,-6 -2062,-30 -497,-23 -767,-106 -947,-176 -238,-92 -408,-203 -587,-382 -178,-178 -289,-348 -381,-586 -70,-180 -153,-450 -176,-948 -25,-537 -30,-699 -30,-2061 0,-1362 5,-1524 30,-2062 23,-497 106,-767 176,-947 92,-238 203,-408 381,-587 179,-178 349,-289 587,-381 180,-70 450,-153 947,-176 538,-25 700,-30 2062,-30z"/>
   <path class="fil0" d="M5102 6803c-939,0 -1701,-762 -1701,-1701 0,-939 762,-1701 1701,-1701 939,0 1701,762 1701,1701 0,939 -762,1701 -1701,1701zm0 -4321c-1447,0 -2620,1173 -2620,2620 0,1447 1173,2620 2620,2620 1447,0 2620,-1173 2620,-2620 0,-1447 -1173,-2620 -2620,-2620z"/>
   <path class="fil0" d="M8438 2378c0,339 -275,613 -613,613 -338,0 -612,-274 -612,-613 0,-338 274,-612 612,-612 338,0 613,274 613,612z"/>
  </g>
 </g>
</svg>
