<?xml version="1.0" encoding="UTF-8"?>
<!DOCTYPE svg PUBLIC "-//W3C//DTD SVG 1.1//EN" "http://www.w3.org/Graphics/SVG/1.1/DTD/svg11.dtd">
<!-- Creator: CorelDRAW X7 -->
<svg xmlns="http://www.w3.org/2000/svg" xml:space="preserve" width="26px" height="26px" version="1.1" style="shape-rendering:geometricPrecision; text-rendering:geometricPrecision; image-rendering:optimizeQuality; fill-rule:evenodd; clip-rule:evenodd"
viewBox="0 0 2994 2995"
 xmlns:xlink="http://www.w3.org/1999/xlink">
 <defs>
  <style type="text/css">
   <![CDATA[
    .fil0 {fill:#2C3E50}
   ]]>
  </style>
 </defs>
 <g id="Слой_x0020_1">
  <metadata id="CorelCorpID_0Corel-Layer"/>
  <g>
   <path class="fil0" d="M462 0l2071 0c255,0 461,207 461,462l0 2071c0,255 -206,462 -461,462l-2071 -1c-255,0 -462,-206 -462,-461l0 -2071c0,-255 207,-462 462,-462l0 0zm1010 2096l122 0c0,0 38,-4 56,-24 18,-19 17,-54 17,-54 0,0 -2,-164 74,-188 75,-24 172,158 274,229 78,53 136,41 136,41l274 -4c0,0 143,-9 75,-121 -5,-9 -39,-83 -203,-236 -172,-159 -148,-133 58,-408 126,-168 176,-271 160,-315 -15,-42 -107,-30 -107,-30l-308 2c0,0 -23,-4 -40,7 -16,9 -27,33 -27,33 0,0 -49,129 -114,240 -137,233 -192,245 -215,230 -52,-33 -39,-135 -39,-207 0,-226 35,-320 -66,-344 -34,-8 -58,-14 -144,-14 -110,-2 -203,0 -256,25 -35,18 -62,56 -45,58 20,3 66,12 90,46 32,43 31,139 31,139 0,0 18,266 -42,299 -42,23 -99,-24 -221,-235 -63,-108 -110,-228 -110,-228 0,0 -10,-22 -26,-34 -19,-15 -47,-19 -47,-19l-293 2c0,0 -44,1 -60,20 -14,17 -1,52 -1,52 0,0 229,536 489,807 238,247 508,231 508,231l0 0zm0 0l0 0 0 0z"/>
  </g>
 </g>
</svg>
