<?xml version="1.0" encoding="UTF-8"?>
<!DOCTYPE svg PUBLIC "-//W3C//DTD SVG 1.1//EN" "http://www.w3.org/Graphics/SVG/1.1/DTD/svg11.dtd">
<!-- Creator: CorelDRAW X7 -->
<svg xmlns="http://www.w3.org/2000/svg" xml:space="preserve" width="26px" height="26px" version="1.1" style="shape-rendering:geometricPrecision; text-rendering:geometricPrecision; image-rendering:optimizeQuality; fill-rule:evenodd; clip-rule:evenodd"
viewBox="0 0 937 937"
 xmlns:xlink="http://www.w3.org/1999/xlink">
 <defs>
  <style type="text/css">
   <![CDATA[
    .fil0 {fill:none}
    .fil1 {fill:#2C3E50;fill-rule:nonzero}
   ]]>
  </style>
 </defs>
 <g id="Слой_x0020_1">
  <metadata id="CorelCorpID_0Corel-Layer"/>
  <rect class="fil0" width="937" height="937"/>
  <path class="fil1" d="M150 178c109,77 216,116 321,117 105,0 208,-38 312,-116l39 52c-115,86 -232,129 -351,129 -119,-1 -238,-44 -358,-129l37 -53zm319 -178c129,0 246,52 331,137 85,85 137,202 137,332 0,129 -52,246 -137,331 -85,85 -202,137 -331,137 -130,0 -247,-52 -332,-137 -85,-85 -137,-202 -137,-331 0,-130 52,-247 137,-332 85,-85 202,-137 332,-137zm274 195c-70,-70 -167,-114 -274,-114 -107,0 -204,44 -274,114 -70,70 -114,167 -114,274 0,107 44,204 114,274 70,70 167,113 274,113 107,0 204,-43 274,-113 70,-70 113,-167 113,-274 0,-107 -43,-204 -113,-274zm-282 -187c68,0 128,55 169,144 37,82 61,194 61,317 0,123 -24,234 -61,316 -41,89 -101,144 -169,144 -69,0 -128,-55 -170,-144 -37,-82 -60,-193 -60,-316 0,-123 23,-235 60,-317 42,-89 101,-144 170,-144zm110 172c-31,-66 -70,-107 -110,-107 -41,0 -80,41 -111,107 -33,73 -54,175 -54,289 0,113 21,215 54,289 31,66 70,106 111,106 40,0 79,-40 110,-106 34,-74 55,-176 55,-289 0,-114 -21,-216 -55,-289zm-458 526c120,-85 239,-128 358,-128 119,-1 236,42 351,129l-39 51c-104,-77 -207,-116 -312,-115 -105,0 -212,39 -321,116l-37 -53zm329 190l0 -854 65 0 0 854 -65 0zm-394 -460l853 0 0 65 -853 0 0 -65z"/>
 </g>
</svg>
