<?xml version="1.0" encoding="UTF-8"?>
<!DOCTYPE svg PUBLIC "-//W3C//DTD SVG 1.1//EN" "http://www.w3.org/Graphics/SVG/1.1/DTD/svg11.dtd">
<!-- Creator: CorelDRAW X7 -->
<svg xmlns="http://www.w3.org/2000/svg" xml:space="preserve" width="26px" height="26px" version="1.1" style="shape-rendering:geometricPrecision; text-rendering:geometricPrecision; image-rendering:optimizeQuality; fill-rule:evenodd; clip-rule:evenodd"
viewBox="0 0 1500 1500"
 xmlns:xlink="http://www.w3.org/1999/xlink">
 <defs>
  <style type="text/css">
   <![CDATA[
    .fil1 {fill:none}
    .fil0 {fill:#2C3E50;fill-rule:nonzero}
   ]]>
  </style>
 </defs>
 <g id="Слой_x0020_1">
  <metadata id="CorelCorpID_0Corel-Layer"/>
  <g>
   <path class="fil0" d="M1500 285c-55,24 -114,41 -177,48 64,-38 113,-98 136,-170 -60,35 -126,61 -196,75 -56,-60 -136,-97 -224,-97 -170,0 -308,137 -308,307 0,24 3,48 8,70 -256,-12 -483,-135 -635,-321 -26,45 -41,98 -41,155 0,106 54,201 137,256 -51,-2 -98,-16 -140,-39 0,2 0,3 0,4 0,149 106,274 247,302 -26,7 -53,11 -81,11 -20,0 -39,-2 -58,-6 39,123 153,212 288,214 -106,83 -238,132 -383,132 -24,0 -49,-2 -73,-5 136,88 298,139 472,139 566,0 876,-469 876,-876 0,-13 -1,-27 -1,-40 60,-43 112,-97 153,-159l0 0zm0 0l0 0 0 0z"/>
  </g>
  <rect class="fil1" width="1500" height="1500"/>
 </g>
</svg>
