<svg xmlns="http://www.w3.org/2000/svg" width="26" height="26" viewBox="0 0 9570 9667" shape-rendering="geometricPrecision" image-rendering="optimizeQuality" fill-rule="evenodd" clip-rule="evenodd"><g fill-rule="nonzero"><path fill="#fefefe" d="m4781 9667h8v-9667h-8z"/><path d="m8354 822h-7137c-245 0-443 198-443 443v7137c0 244 198 443 443 443h3842v-3107h-1046v-1211h1046v-893c0-1036 633-1600 1557-1600 443 0 823 33 934 47v1083l-641 1c-502 0-600 239-600 589v773h1199l-156 1211h-1043v3107h2045c244 0 442-199 442-443v-7137c0-245-198-443-442-443" fill="#415696"/></g></svg>