<svg xmlns="http://www.w3.org/2000/svg" viewBox="0 0 5136 7267" shape-rendering="geometricPrecision" image-rendering="optimizeQuality" fill-rule="evenodd" clip-rule="evenodd"><g fill="#572025"><path d="m3199 179l-882-4c-329-345-760-174-633 456-523 596-305 1131-500 2015-536 737-949 1549-1132 2501-97 424-61 844 136 1151 401 481 534 510 1070 717l49-91 202 26 11-90 134 14-12-151 139 18-14-138 129-36c-288-1091-756-462-1171-854l449-85-376-105 201-113-192-110 317-35-199-124 174-4-100-95 227-31-229-170 322-33-273-165 351-81-300-146 362-66-320-72 335-98-267-37 251-168-166-155 215 23-99-130 95-45 44-109 27 109 103 41-87 158 177 56-155 173 180 34-127 116 166 44-133 99 207 67-171 144 182 87-179 60 158 61-148 138 542-3-307-188 352-112-319-108 246-81-185-116 148-11-108-99 284-74-303-152 267-49-202-109 222-18-231-174 267-8-106-193 89 10-9-203 97 37 21-178 106 44-40 119 99-27-61 199 167-43-72 187 174 95-215 94 306 77-287 100 265 73-218 107 312 99-244 123 304 76-184 149 194 41-41 76 55 65-61 79 235 6-96-129 172-32-101-148 142-28-117-149 176 4-117-199 119 19-19-163 85-45-38-59 80-108 64 98-41 91 87-39-96 245 148-82-7 186 101 81-166 111 266 73-220 103 181 91-179 93 299 101-250 137 289 78-175 139 167 56-80 63 175 26-165 78 239 72-179 94 238 57 14 64c-580 228-915 36-1099 775l-24 173 80 9-36 225 136 15-33 93h191l2 56 182-10 18 96 234-39c994-409 1352-1121 1111-2118-226-1118-834-2030-1251-3045-211 62-430 103-661 111 425-318 1306-187 1276-953 94-4 91-295-45-331-552-99-564-499-1184-713"/><path d="m3876 584c207-275-104-511-355-316 116 100 259 196 355 316"/></g></svg>