<?xml version="1.0" encoding="UTF-8"?>
<!DOCTYPE svg PUBLIC "-//W3C//DTD SVG 1.1//EN" "http://www.w3.org/Graphics/SVG/1.1/DTD/svg11.dtd">
<!-- Creator: CorelDRAW X7 -->
<svg xmlns="http://www.w3.org/2000/svg" xml:space="preserve" width="100%" height="100%" version="1.1" style="shape-rendering:geometricPrecision; text-rendering:geometricPrecision; image-rendering:optimizeQuality; fill-rule:evenodd; clip-rule:evenodd"
viewBox="0 0 25938 26869"
 xmlns:xlink="http://www.w3.org/1999/xlink">
 <defs>
  <style type="text/css">
   <![CDATA[
    .fil6 {fill:none}
    .fil5 {fill:none;fill-rule:nonzero}
    .fil3 {fill:#2C3E50}
    .fil0 {fill:#6DABDE}
    .fil1 {fill:#E46D70}
    .fil4 {fill:#FEFEFE}
    .fil2 {fill:#FEFEFE;fill-rule:nonzero}
   ]]>
   
    .fil1 
	 {	opacity: 1; font-weight: 900; 
		 -webkit-animation: blink 4s infinite; 
		 -moz-animation: blink 4s infinite;
		 -ms-animation: blink 4s infinite;
		 -o-animation: blink 4s infinite;
		 animation: blink 4s infinite;
	}
		@-keyframes blink {0%, 100% {opacity: 1;}50% {opacity: 0.1;}}
		@-webkit-keyframes blink {0%, 100% {opacity: 1;}50% {opacity: 0.1;}}
		@-moz-keyframes blink {0%, 100% {opacity: 1;}50% {opacity: 0.1;}}
		@-ms-keyframes blink {0%, 100% {opacity: 1;}50% {opacity: 0.1;}}
		@-o-keyframes blink {0%, 100% {opacity: 1;}50% {opacity: 0.1;}}    
    
   
   
  </style>
 </defs>
 <g id="Слой_x0020_1">
  <metadata id="CorelCorpID_0Corel-Layer"/>
  <path class="fil0" d="M13290 1045c823,30 1616,165 2373,394l-1439 1300 -934 -1694zm2974 601c762,288 1474,676 2123,1147l-1784 763 -339 -1910zm2622 1535c624,519 1177,1117 1645,1784l-1946 141 301 -1925zm1985 2300c423,691 757,1442 985,2238l-1898 -502 913 -1736 0 0zm1135 2830c138,639 213,1300 213,1979 0,156 -3,309 -12,465l-1630 -1096 1429 -1348zm150 3054c-96,829 -300,1625 -600,2370l-1187 -1562 1787 -808 0 0zm-850 2934c-354,739 -805,1421 -1333,2034l-613 -1850 1946 -184zm-1763 2496c-564,574 -1207,1072 -1904,1481l18 -1940 1886 459zm-2469 1784c-708,355 -1471,619 -2270,778l643 -1820 1627 1042zm-2907 883c-393,51 -793,78 -1198,78 -406,0 -805,-27 -1196,-78l1196 -1510 1198 1510zm-3033 -105c-799,-159 -1559,-423 -2271,-778l1628 -1042 643 1820zm-2833 -1081c-699,-409 -1339,-907 -1907,-1481l1886 -459 21 1940zm-2333 -1943c-532,-613 -982,-1295 -1337,-2034l1950 184 -613 1850zm-1586 -2598c-300,-745 -505,-1541 -601,-2370l1790 808 -1189 1562 0 0zm-652 -2980c-6,-156 -12,-309 -12,-465 0,-679 75,-1340 213,-1979l1433 1348 -1634 1096zm352 -3036c231,-796 564,-1547 985,-2238l913 1736 -1898 502 0 0zm1324 -2754c469,-667 1024,-1265 1649,-1784l300 1925 -1949 -141 0 0zm2145 -2172c651,-471 1363,-859 2123,-1147l-336 1910 -1787 -763 0 0zm2727 -1354c754,-229 1546,-364 2369,-394l-934 1694 -1435 -1300z"/>
  <polygon class="fil1" points="12969,466 14224,2739 16149,997 16603,3559 18985,2538 18585,5106 21168,4917 19958,7217 22466,7881 20576,9662 22730,11104 20369,12173 21940,14242 19360,14483 20174,16948 17657,16336 17630,18937 15447,17537 14582,19988 12969,17952 11356,19988 10491,17537 8307,18937 8280,16336 5764,16948 6581,14483 4001,14242 5571,12173 3208,11104 5364,9662 3475,7881 5980,7217 4769,4917 7355,5106 6953,2538 9338,3559 9788,997 11713,2739 "/>
  <path class="fil2" d="M13167 357l1117 2025 1715 -1550 301 -273 72 399 402 2283 2124 -910 372 -160 -63 400 -357 2292 2303 -169 403 -30 -187 358 -1081 2051 2235 589 390 105 -294 276 -1685 1589 1922 1286 336 225 -369 168 -2105 952 1399 1844 244 322 -403 36 -2298 213 730 2201 126 385 -393 -96 -2244 -547 -24 2319 -3 405 -342 -219 -1946 -1247 -769 2184 -138 381 -253 -318 -1435 -1814 -1436 1814 -252 318 -135 -381 -772 -2184 -1946 1247 -340 219 -6 -405 -21 -2319 -2246 547 -394 96 129 -385 727 -2201 -2297 -213 -403 -36 243 -322 1403 -1844 -2108 -952 -367 -168 336 -225 1920 -1286 -1682 -1589 -295 -276 391 -105 2231 -589 -1078 -2051 -189 -358 402 30 2304 169 -357 -2292 -60 -400 369 160 2123 910 403 -2283 72 -399 300 273 1715 1550 1121 -2025 195 -357 198 357 0 0zm862 2490l-1060 -1916 -1057 1916 -139 250 -210 -193 -1622 -1468 -381 2162 -51 279 -261 -114 -2010 -859 337 2169 45 279 -283 -21 -2180 -159 1021 1940 132 249 -273 73 -2115 561 1595 1502 205 192 -235 159 -1817 1220 1994 901 256 117 -171 222 -1325 1748 2178 201 279 27 -87 268 -691 2084 2126 -517 274 -66 3 283 21 2192 1844 -1180 237 -153 96 267 730 2066 1361 -1715 174 -222 177 222 1358 1715 732 -2066 93 -267 241 153 1841 1180 21 -2192 3 -283 276 66 2124 517 -691 -2084 -87 -268 282 -27 2178 -201 -1328 -1748 -171 -222 258 -117 1994 -901 -1820 -1220 -234 -159 204 -192 1595 -1502 -2114 -561 -274 -73 133 -249 1021 -1940 -2181 159 -282 21 45 -279 339 -2169 -2012 859 -261 114 -48 -279 -382 -2162 -1622 1468 -210 193 -138 -250 0 0z"/>
  <path class="fil2" d="M12969 2586c2129,0 4057,862 5451,2256 1394,1396 2259,3321 2259,5451 0,2129 -865,4054 -2259,5451 -1394,1394 -3322,2259 -5451,2259 -2130,0 -4055,-865 -5451,-2259 -1394,-1397 -2256,-3322 -2256,-5451 0,-2130 862,-4055 2256,-5451 1396,-1394 3321,-2256 5451,-2256zm5133 2574c-1313,-1313 -3130,-2124 -5133,-2124 -2003,0 -3818,811 -5133,2124 -1313,1315 -2123,3129 -2123,5133 0,2003 810,3820 2123,5133 1315,1312 3130,2126 5133,2126 2003,0 3820,-814 5133,-2126 1312,-1313 2126,-3130 2126,-5133 0,-2004 -814,-3818 -2126,-5133z"/>
  <path class="fil3" d="M2469 17471l21000 0 0 -1231c-2379,-1685 -4474,-3587 -5940,-5921l-708 9c-246,400 -711,793 -1090,1061 -618,-517 -1241,-1185 -1755,-1837l-647 65c-384,493 -928,953 -1393,1313 -631,-570 -1032,-1252 -1402,-2195l-1146 19c-2006,3463 -4225,5771 -6919,7486l0 1231 0 0z"/>
  <path class="fil4" d="M9494 8410c-1979,3442 -4340,6003 -7025,7830 2147,-1481 4199,-3019 5751,-5488l-12 565 574 -895 -261 1207 973 -775 129 1292 766 -1412 664 916 66 -916 2264 1778 -790 -1177 829 499 466 -814 1231 1132 72 -781 1908 1069 -805 -736 753 214 334 -496 556 372 84 -399c1342,1589 3180,3205 5448,4845 -2475,-1784 -4442,-3776 -5839,-6001l-904 3c-270,405 -592,730 -955,988 -652,-544 -1207,-1132 -1697,-1751l-796 6c-387,489 -817,907 -1276,1273 -661,-636 -1115,-1441 -1451,-2345l-1057 -3 0 0z"/>
  <path class="fil2" d="M10581 8515c-15,39 -60,57 -99,42 -36,-18 -54,-60 -39,-99 315,-751 420,-1289 393,-1577 -9,-81 -24,-138 -51,-168 -15,-18 -36,-24 -60,-18 -63,15 -150,84 -249,213 -24,33 -72,39 -105,12 -18,-12 -27,-33 -27,-54l0 0c-21,-328 -96,-547 -189,-643 -27,-30 -54,-45 -81,-48 -25,0 -52,15 -82,42 -90,90 -165,303 -195,652 -3,39 -39,72 -81,66 -24,0 -45,-12 -57,-33 -102,-129 -186,-198 -252,-210 -30,-6 -57,6 -75,30 -30,39 -51,105 -63,192 -42,315 54,877 339,1538 15,36 -3,81 -39,96 -39,18 -84,0 -99,-39 -295,-685 -394,-1274 -352,-1613 15,-114 48,-204 94,-264 57,-75 132,-106 225,-87 69,15 147,60 231,141 42,-289 123,-478 219,-574 57,-60 123,-87 190,-84 69,0 132,33 189,93 93,99 174,288 210,562 78,-75 150,-120 213,-135 87,-22 159,3 213,69 43,54 73,138 85,249 30,309 -82,874 -406,1649l0 0z"/>
  <path class="fil2" d="M14116 9554c-18,36 -60,54 -99,39 -39,-15 -57,-60 -39,-99 318,-757 444,-1292 435,-1571 -3,-75 -15,-126 -33,-153 -9,-9 -21,-12 -39,-9 -57,18 -138,90 -240,219 -24,33 -72,39 -105,15 -18,-15 -27,-33 -27,-54l0 0c-21,-330 -96,-547 -186,-646 -30,-30 -57,-45 -84,-45 -24,0 -51,12 -78,42 -91,90 -169,304 -199,649 -3,42 -39,72 -81,69 -24,-3 -45,-15 -57,-33 -99,-129 -180,-195 -237,-210 -18,-6 -33,0 -42,15 -24,36 -36,96 -39,180 -15,312 114,883 402,1556 15,39 0,84 -39,99 -39,15 -81,0 -99,-39 -297,-697 -429,-1292 -414,-1622 3,-111 27,-198 63,-255 48,-75 117,-105 207,-81 60,18 129,63 207,138 42,-285 123,-475 219,-571 61,-60 124,-87 193,-87 66,3 129,33 186,93 93,102 174,292 210,562 72,-75 141,-120 198,-138 84,-24 154,-3 202,66 36,51 57,129 63,234 9,300 -120,856 -448,1637l0 0z"/>
  <path class="fil2" d="M17669 10320c-18,39 -60,57 -99,39 -39,-15 -57,-60 -39,-96 315,-751 424,-1286 402,-1568l0 0c-6,-78 -24,-132 -48,-162 -12,-18 -30,-21 -54,-18 -63,18 -147,90 -249,219 -24,33 -72,39 -105,12 -18,-12 -27,-33 -27,-54l0 0c-21,-327 -96,-547 -189,-643 -27,-30 -54,-45 -81,-48 -24,0 -51,15 -81,42 -91,90 -166,304 -196,652 -3,39 -39,72 -81,69 -24,-3 -45,-15 -57,-33 -102,-132 -180,-198 -240,-213 -21,-6 -39,3 -51,21 -24,33 -39,96 -42,180 -21,312 99,880 387,1553 18,36 0,81 -39,96 -36,18 -81,0 -99,-39 -297,-691 -420,-1286 -399,-1619 6,-111 30,-198 69,-255 51,-75 123,-105 210,-81 63,15 132,60 213,138 42,-289 123,-478 219,-574 57,-60 124,-87 193,-84 66,0 129,33 186,93 93,99 174,291 210,562 78,-75 150,-123 213,-138 84,-21 157,3 208,69 42,51 69,132 78,243l0 0 0 0c27,303 -87,862 -412,1637l0 0z"/>
  <path class="fil5" d="M2469 18147c1652,0 3499,-1550 5151,-1550 1850,0 3502,1550 5349,1550m10500 0c-1649,0 -3499,-1550 -5151,-1550 -1847,0 -3499,1550 -5349,1550"/>
  <path class="fil2" d="M2469 17471c685,0 1496,-360 2303,-718 941,-417 1881,-832 2848,-832 1066,0 2006,415 2946,832 811,358 1619,718 2403,718 784,0 1595,-360 2403,-718 940,-417 1883,-832 2946,-832 967,0 1907,415 2847,832 811,358 1619,718 2304,718l0 1352c-964,0 -1907,-418 -2847,-835 -808,-358 -1619,-715 -2304,-715 -784,0 -1592,357 -2403,715 -940,417 -1880,835 -2946,835 -1063,0 -2006,-418 -2947,-835 -807,-358 -1618,-715 -2402,-715 -685,0 -1493,357 -2304,715 -940,417 -1880,835 -2847,835l0 -1352z"/>
  <path class="fil0" d="M23469 18705c-1691,0 -3544,-1468 -5235,-1468 -1808,0 -3457,1468 -5265,1468 -1808,0 -3457,-1468 -5262,-1468 -1694,0 -3544,1468 -5238,1468l0 4965c9,994 498,1478 1357,1571l7293 -3c1042,66 1658,613 1850,1631 195,-1018 811,-1565 1850,-1631l7295 3c856,-93 1346,-577 1355,-1571l0 -4965 0 0z"/>
  <rect class="fil6" y="931" width="25938" height="25938"/>
 </g>
</svg>
