<?xml version="1.0" encoding="UTF-8"?>
<!DOCTYPE svg PUBLIC "-//W3C//DTD SVG 1.1//EN" "http://www.w3.org/Graphics/SVG/1.1/DTD/svg11.dtd">
<!-- Creator: CorelDRAW X7 -->
<svg xmlns="http://www.w3.org/2000/svg" xml:space="preserve" width="100%" height="100%" version="1.1" style="shape-rendering:geometricPrecision; text-rendering:geometricPrecision; image-rendering:optimizeQuality; fill-rule:evenodd; clip-rule:evenodd"
viewBox="0 0 15918 15917"
 xmlns:xlink="http://www.w3.org/1999/xlink">
 <defs>
  <style type="text/css">
   <![CDATA[
    .fil0 {fill:none}
    .fil1 {fill:#FEFEFE}
    .fil3 {fill:#E46D70}
    .fil2 {fill:#FEFEFE;fill-rule:nonzero}
    .fil4 {fill:#579CD4}
   ]]>
  </style>
 </defs>
 <g id="Слой_x0020_1">
  <metadata id="CorelCorpID_0Corel-Layer"/>
  <rect class="fil0" width="15918" height="15917"/>
  <g id="_889103280">
   <g id="_320235776">
    <g>
     <g>
      <path class="fil1" d="M8399 9894l-615 -3c-229,-241 -529,-122 -440,317 -365,415 -213,788 -348,1403 -374,513 -661,1079 -789,1742 -67,295 -43,587 94,801 280,334 373,355 746,499l34 -64 140 19 8 -63 93 10 -8 -105 97 13 -10 -97 90 -25c-200,-760 -527,-322 -815,-594l313 -60 -262 -73 139 -79 -133 -76 220 -25 -138 -86 121 -3 -70 -66 158 -21 -159 -119 225 -23 -190 -114 244 -57 -209 -102 252 -45 -223 -51 234 -68 -187 -25 175 -118 -116 -108 150 17 -69 -91 66 -32 31 -75 19 75 72 29 -61 110 124 39 -108 120 124 24 -88 81 116 31 -93 68 145 47 -120 100 126 61 -124 42 111 42 -104 96 377 -2 -213 -131 245 -77 -222 -76 171 -57 -129 -80 103 -8 -74 -69 197 -52 -211 -105 186 -34 -141 -76 155 -13 -161 -121 185 -5 -73 -135 62 7 -6 -141 67 25 15 -123 74 30 -28 84 69 -19 -42 138 115 -30 -50 130 122 67 -150 65 213 53 -200 70 185 51 -152 75 217 68 -170 87 212 52 -129 103 136 29 -29 53 39 46 -43 55 164 4 -68 -91 121 -21 -70 -103 99 -20 -82 -104 123 3 -83 -139 84 14 -14 -114 60 -31 -27 -41 56 -75 44 68 -28 63 61 -27 -67 171 103 -57 -5 129 70 56 -115 77 184 51 -153 72 127 64 -125 64 208 71 -174 95 202 54 -123 97 117 39 -56 44 121 18 -114 54 166 50 -124 66 166 40 9 44c-404,159 -637,26 -765,539l-17 121 56 7 -25 157 94 9 -22 65 132 0 2 39 127 -6 12 66 163 -27c692,-285 941,-781 774,-1475 -158,-778 -581,-1413 -871,-2120 -147,44 -300,72 -461,78 296,-222 910,-130 889,-664 65,-3 63,-205 -32,-230 -384,-69 -392,-347 -823,-496l0 0 0 0 0 0 0 0zm0 0l0 0 0 0z"/>
     </g>
     <path class="fil1" d="M8869 10175c144,-191 -72,-356 -247,-220 82,70 181,137 247,220z"/>
    </g>
   </g>
   <g>
    <path class="fil2" d="M7889 5724c0,-39 31,-70 70,-70 39,0 71,31 71,70l-141 0zm141 141l-141 0 0 -141 141 0 0 141zm0 0c0,39 -32,71 -71,71 -39,0 -70,-32 -70,-71l141 0zm-141 424c0,-39 31,-71 70,-71 39,0 71,32 71,71l-141 0zm141 141l-141 0 0 -141 141 0 0 141zm0 0c0,39 -32,70 -71,70 -39,0 -70,-31 -70,-70l141 0zm-141 423c0,-39 31,-70 70,-70 39,0 71,31 71,70l-141 0zm141 141l-141 0 0 -141 141 0 0 141zm0 0c0,39 -32,71 -71,71 -39,0 -70,-32 -70,-71l141 0zm-141 424c0,-39 31,-71 70,-71 39,0 71,32 71,71l-141 0zm141 141l-141 0 0 -141 141 0 0 141zm0 0c0,39 -32,70 -71,70 -39,0 -70,-31 -70,-70l141 0zm-130 279l118 -77 -118 0 361 -557 118 77 -361 557 -118 0zm0 0l118 0 -59 91 -59 -91zm-302 -595l59 -39 361 557 -118 77 -361 -557 59 -38z"/>
   </g>
   <polygon class="fil3" points="7328,3559 9794,1176 7511,2685 "/>
   <path class="fil1" d="M9872 1090l0 0 0 0 -1 -1 0 0c-1284,867 -2311,1748 -2311,1748l1221 876c15,9 34,3 43,-12 0,0 1077,-2593 1048,-2611z"/>
   <path class="fil1" d="M9872 1092l0 -2 0 0 0 0 -1 -1 0 0c-29,-18 -3802,1097 -3802,1097 -25,7 -31,21 -14,31l882 221 110 62 2825 -1408z"/>
   <polygon class="fil4" points="6939,2435 7328,3559 7557,2843 9871,1089 "/>
  </g>
 </g>
</svg>
