<svg xmlns="http://www.w3.org/2000/svg" width="1800" height="617" viewBox="0 0 99870 34233" shape-rendering="geometricPrecision" image-rendering="optimizeQuality" fill-rule="evenodd" clip-rule="evenodd"><g fill="none"><g stroke="#2b2a29"><g stroke-width="209.68"><path d="m23466 13932c962-60 1693-757 2048-2485-1930 767-3387 1037-3495-117-795-4230 4942-6835 7635-3232 4015 5337-3470 9259-6188 5834z"/><g stroke-linejoin="round" stroke-linecap="round"><path d="m24901 6633c-1076-229-1595-626-1714-1144"/><path d="m24350 6859c-1032-103-1696-498-2178-1037"/><path d="m25268 9308c-186 248-277 521-245 827"/><path d="m23735 9371c-186 248-278 521-246 827"/></g></g><g stroke-linejoin="round" stroke-linecap="round"><path d="m26475 15992c476 2900 818 3793 1215 4204 1234-167 2362-901 3473-1734-416-1436-948-2627-1651-3880" stroke-width="209.66"/><path d="m34330 14111c-1333 1204-2717 1507-4178 440" stroke-width="209.68"/></g></g><g stroke-linecap="round"><g stroke-linejoin="round"><g stroke-width="209.68"><path d="m29529 15446c-574-293-1148-587-936-381 213 206 1212 910 1025 884-186-25-1558-781-1379-588 178 194 1907 1336 1700 1288-207-48-2349-1286-2199-1109 151 176 2593 1768 2446 1735-147-32-2884-1689-2982-1668-98 21 2442 1719 2423 1780-20 62-2599-1514-2589-1432 10 82 2610 1823 2630 1877 20 55-2541-1577-2456-1485 85 92 2816 1908 2845 2001 29 93-2645-1538-2699-1533-55 5 2509 1646 2679 1899 171 253-2052-883-2290-978-239-95 1506 850 1660 1057 154 207-1283-323-1427-320-144 3 1005 540 1206 767 200 227-548 145-1296 62" stroke="#f8c180"/><path d="m21569 17330c1646 719 3054 568 4102-907" stroke="#2b2a29"/></g><path d="m28550 20438c-666 1305-907 2506-494 3545" stroke="#2b2a29" stroke-width="209.66"/></g><g stroke="#2b2a29" stroke-width="209.66"><path d="m30720 19583c976 106 1758 520 2235 1416"/><path d="m35924 19371c-35 275-242 594-520 760l-9597 5771c-312 113-577 114-797 9"/></g></g></g></svg>