<svg xmlns="http://www.w3.org/2000/svg" width="1716" height="1572" viewBox="0 0 212061 194266" shape-rendering="geometricPrecision" image-rendering="optimizeQuality" fill-rule="evenodd" clip-rule="evenodd"><g stroke-linejoin="round" stroke-linecap="round"><g fill="none"><path d="m62616 158823c-2383 1731-4767 3462-3263 2979 1504-482 6895-3177 6739-2468-156 709-5859 4823-4058 4157 1802-667 11108-6115 11279-5817 170 298-8796 6342-8498 6824 298 482 9860-4596 10470-4384 610 213-7732 5718-6782 5533 951-184 11194-6058 12470-6029 1277 28-6412 5958-5930 6143 483 184 9137-5377 10499-5859 1361-483-4569 4114-4029 4369 539 255 7547-3830 8029-3447 482 383-5561 5234-4965 5362 596 128 7831-4469 9377-4823 1546-355-2596 3532-2213 3660 383 128 5292-3504 6498-3873 1205-369-1291 2525-1263 3164 28 638 2582-979 5135-2597" stroke="#adb991" stroke-width="557.6"/><path d="m102413 92563c-6450 12139-6010 22944-14016 46195" stroke="#2b2a29" stroke-width="223.04"/></g><g stroke="#2b2a29"><g stroke-width="557.6"><g fill="#fefefe"><path d="m102413 92563c37394-22916-13859-34474 0 0z"/><path d="m102877 93773l-464-1210 1185 626z"/></g><g fill="#727271"><path d="m100449 106227l219-814 384 783z"/><path d="m109939 108162l419-1556 733 1496z"/></g><path d="m110358 106606c57856-27620-20248-50483 0 0z" fill="#fefefe"/></g><path d="m110358 106606c-10506 8791-14863 26027-21961 32152" fill="none" stroke-width="223.04"/><g fill="#fefefe" stroke-width="557.6"><path d="m100618 105413c27274-36591-30376-16052 0 0z"/><path d="m94250 97367l337-1251 590 1203z"/></g><path d="m100618 105413c-4650 10170-7296 21992-12221 33345" fill="none" stroke-width="223.04"/><path d="m94587 96116c31626-40577-37294-19946 0 0z" fill="#fefefe" stroke-width="557.6"/><g fill="none" stroke-width="223.04"><path d="m94587 96116c448 19398-3608 14649-6190 42642"/><path d="m93212 153943c-3248-6206-617-11086-4815-15185"/><path d="m84990 151943c3048-2970 2271-8790 3407-13185"/><path d="m87212 152017c1556-3079 790-8840 1185-13259"/><path d="m89731 154684c-1556-5605-890-10618-1334-15926"/><path d="m90323 149795c725-5175-1951-5062-1926-11037"/><path d="m88618 104458c1926 16248-147 22866-221 34300"/></g><g stroke-width="557.6"><path d="m88618 104458c-33642-44205 37274-20067 0 0z" fill="#fefefe"/><path fill="#727271" d="m87513 105560l1105-1102-110 1609z"/></g></g><g fill="none" stroke-width="557.6"><path d="m82726 82308c3482-1087 6963-2173 5926-1580-1037 592-6593 2864-5839 2778 753-87 7814-2531 7494-2148-321 382-8025 3592-7643 3728 383 136 8852-2802 8075-2247-778 556-10803 4605-9877 4580 926-24 12803-4123 12790-3864-12 259-11914 4877-11457 5371 457 494 13272-3136 12865-2729-408 408-14038 4852-13593 5383 444 531 14963-2852 15334-2765 370 86-13408 3642-13915 4148-506 506 12260-2037 12470-1821 210 216-12136 3192-11704 3494 432 303 13643-2068 14272-1821 630 247-11321 3111-12303 4068-981 957 9007 6 9760 228 753 223-7729 1618-8970 2106-1241 487 4760 67 6389 419 1630 352-1110 1475-2271 2061-1161 587-741 636-321 685" stroke="#f8c180"/><path d="m92359 74156c3259 420 6519 839 5186 1123-1334 284-7260 432-6470 655 790 222 8297 518 7667 864-629 345-9395 741-9185 1012 210 272 9395 420 10457 741 1062 321-6000 815-6173 938-173 124 6543-123 7013 87 469 210-5309 876-5433 1111-123 234 5408 37 5729 290 321 253-4568 957-5408 1352-839 395 2371 481 5581 568" stroke="#e4ea88"/><path d="m102104 86054c2441 510 4883 1021 4235 1144-648 124-4386-140-4095 37 292 177 4613 794 4285 1144-327 350-5303 432-5211 574 93 142 5255 344 5132 494-124 150-5531 249-5576 319-44 70 5276 111 5441 249 166 137-4822 372-4605 648 217 275 5639 593 5337 723-303 131-6330 76-6373 477-43 401 5897 1259 5971 1539 73 281-5721-17-6068 244-347 262 4754 1082 4810 1485 57 404-4931 392-5184 670-253 278 4229 845 4236 985 7 140-4461-148-4930 143-469 290 3060 1158 3238 1450 178 292-2995 8-2976 163 18 154 3228 746 2946 806-284 60-4060-413-4399-265-340 148 2757 918 2464 1084-293 166-3976-271-3939-117 37 154 3794 900 3876 1242 83 342-3510 281-4120 519-610 239 1762 778 4134 1317" stroke="#f16b8e"/><path d="m124674 78881c3156 2107 6312 4214 4002 3231-2311-984-10089-5058-8842-3774 1246 1284 11518 7927 10506 7593-1012-333-13309-7642-12963-6951 345 692 13333 9383 12210 9173-1124-210-16359-9321-16223-8432 136 889 15643 11778 15408 11889-235 111-16210-10556-16815-10432-605 123 14161 11037 14073 11440-87 402-15028-9707-15288-9312-259 395 14164 11294 13983 11875-181 580-14966-9158-15423-8948-457 210 13414 10368 13658 10978 244 610-13140-8329-13843-8378-704-50 11272 8790 11778 9617 506 828-10457-6358-11383-6506-926-148 8185 6741 8591 7800 407 1059-7892-3713-8410-3713-519 0 6743 4772 7322 5417 579 645-5524-2836-6919-2786-1395 49 1918 3629 2801 4998 884 1370-661 529-1439 442-778-86-788 582-798 1250" stroke="#ab74ad"/><path d="m106959 71946c3556 654 7112 1308 5760 1234-1352-74-7611-876-6852-666 759 209 8537 1432 8624 1561 86 130-7519-833-7951-654-432 179 6309 1500 5958 1591-351 90-7794-1050-7911-760-117 290 7091 2010 7016 2253-75 243-7434-991-7785-744-352 246 6302 1975 6753 2376 450 401-5303-525-6000-193-697 332 3661 1922 4193 2788 531 866-2765 1008-3630 1473-864 464 702 1251 2269 2037" stroke="#83cfe9"/><g stroke="#2b2a29"><path d="m88397 138757c-2041 4605-4826 6849-8930 4904"/><path d="m71760 154462c-220 8346 720 8622 2684 8630"/><path d="m76994 155568c-220 6349 720 6559 2684 6565"/></g></g></g><g fill="none" stroke-width="557.6"><g stroke="#2b2a29"><path d="m84125 135384c-2459 724-4918-356-7377-4352 5521 166 9409-484 8631-3468-1857-11293-18562-12594-22019-1143-5187 16985 17083 19991 20765 8963z"/><g stroke-linejoin="round" stroke-linecap="round"><path d="m73908 118442c2482-1549 3420-3012 3246-4413"/><path d="m75490 118508c2487-1196 3787-2786 4504-4572"/><path d="m75420 125462c690 451 1167 1050 1365 1845"/><path d="m79311 124227c690 451 1167 1050 1365 1844"/><path d="m78475 143264c1445 7682 1401 10225 781 11613-3235 702-6722-107-10253-1180-265-3969-18-7427 602-11199"/><path d="m68394 142392c-4523 1532-7023 4351-6444 9127"/></g></g><path d="m70371 144537c1168-1254 2336-2508 1992-1801-345 707-2201 3375-1758 3141 442-233 3184-3368 2913-2723-270 646-3553 5072-3079 4764 473-307 4702-5348 4487-4770-215 578-4875 6774-4537 6559 339-215 5674-6842 5939-6879 264-37-4543 6516-4439 6652 105 135 5121-6148 5170-5932 49 215-4868 6927-4868 7081 0 154 4917-6251 4788-5944-129 307-5305 7327-5292 7585 12 259 5212-6245 5354-6282 141-37-4777 6393-4973 7180-197 787 4327-4069 4838-4524 510-455-2994 3491-3191 4149-197 658 2914-1973 3277-2096 362-123-2023 2262-2318 3012-295 750 1500-135 3295-1021" stroke="#e4ea88" stroke-linejoin="round" stroke-linecap="round"/></g></svg>