<?xml version="1.0" encoding="UTF-8"?>
<!DOCTYPE svg PUBLIC "-//W3C//DTD SVG 1.1//EN" "http://www.w3.org/Graphics/SVG/1.1/DTD/svg11.dtd">
<!-- Creator: CorelDRAW X7 -->
<svg xmlns="http://www.w3.org/2000/svg" xml:space="preserve" width="100px" height="200px" version="1.1" style="shape-rendering:geometricPrecision; text-rendering:geometricPrecision; image-rendering:optimizeQuality; fill-rule:evenodd; clip-rule:evenodd"
viewBox="0 0 117955 235910"
 xmlns:xlink="http://www.w3.org/1999/xlink">
 <defs>
  <style type="text/css">
   <![CDATA[
    .str0 {stroke:#6DABDE;stroke-width:3396.8}
    .fil1 {fill:none}
    .fil2 {fill:#6DABDE}
    .fil0 {fill:#E46D70}
   ]]>
  </style>
 </defs>
 <g id="Слой_x0020_1">
  <metadata id="CorelCorpID_0Corel-Layer"/>
  <g>
   <path class="fil0" d="M42533 102736l0 -87517 43759 43759 -43759 43758zm3397 -79317l0 71117 35558 -35558 -35558 -35559z"/>
  </g>
  <rect class="fil1" x="29489" y="117955" width="58977" height="117955"/>
  <line class="fil1 str0" x1="42684" y1="137861" x2="42684" y2= "217120" />
  <line class="fil1 str0" x1="76652" y1="137861" x2="76652" y2= "217120" />
  <g>
   <path class="fil0" d="M58978 0c32572,0 58977,26405 58977,58978 0,32572 -26405,58977 -58977,58977 -32573,0 -58978,-26405 -58978,-58977 0,-32573 26405,-58978 58978,-58978zm39301 19676c-10058,-10058 -23953,-16279 -39301,-16279 -15349,0 -29244,6221 -39302,16279 -10058,10058 -16279,23953 -16279,39302 0,15348 6221,29243 16279,39301 10058,10058 23953,16279 39302,16279 15348,0 29243,-6221 39301,-16279 10058,-10058 16279,-23953 16279,-39301 0,-15349 -6221,-29244 -16279,-39302z"/>
  </g>
  <g>
   <path class="fil2" d="M58978 117955c32572,0 58977,26405 58977,58977 0,32572 -26405,58978 -58977,58978 -32573,0 -58978,-26406 -58978,-58978 0,-32572 26405,-58977 58978,-58977zm39301 19675c-10058,-10058 -23953,-16279 -39301,-16279 -15349,0 -29244,6221 -39302,16279 -10058,10058 -16279,23954 -16279,39302 0,15349 6221,29244 16279,39302 10058,10058 23953,16279 39302,16279 15348,0 29243,-6221 39301,-16279 10058,-10058 16279,-23953 16279,-39302 0,-15348 -6221,-29244 -16279,-39302z"/>
  </g>
 </g>
</svg>
