<svg viewBox="0 0 24 23" fill="none" xmlns="http://www.w3.org/2000/svg">
<path d="M6.20508 0.475C7.00508 0.575 7.80508 0.675 8.60508 0.375C10.0051 -0.125 11.3051 -0.125 12.7051 0.375C13.3051 0.575 14.0051 0.675 14.6051 0.475C15.8051 0.175 16.9051 0.575 17.7051 1.375C18.2051 1.875 19.1051 2.075 19.1051 2.975C19.5051 3.475 20.2051 3.075 20.6051 3.475C21.5051 7.375 25.1051 10.275 23.6051 15.075C21.6051 20.975 13.4051 24.675 8.10508 21.575C3.90508 20.775 1.40508 18.075 0.405079 14.075C-0.994921 8.375 1.30508 3.275 6.20508 0.475Z" fill="#E15E26"/>
</svg>
