<?xml version="1.0" standalone="no"?>
<!DOCTYPE svg PUBLIC "-//W3C//DTD SVG 20010904//EN"
 "http://www.w3.org/TR/2001/REC-SVG-20010904/DTD/svg10.dtd">
<svg version="1.0" xmlns="http://www.w3.org/2000/svg"
 width="700.000000pt" height="700.000000pt" viewBox="0 0 700.000000 700.000000"
 preserveAspectRatio="xMidYMid meet">
<metadata>
Created by potrace 1.11, written by Peter Selinger 2001-2013
</metadata>
<g transform="translate(0.000000,700.000000) scale(0.100000,-0.100000)"
fill="#000000" stroke="none">
<path d="M4600 6748 c-10 -24 -71 -173 -135 -333 -65 -159 -142 -348 -171
-420 -29 -71 -119 -292 -199 -490 -80 -198 -163 -403 -185 -455 -21 -52 -80
-196 -130 -320 -50 -124 -108 -268 -130 -320 -48 -117 -174 -429 -354 -875
-76 -187 -146 -359 -157 -382 -10 -24 -19 -47 -19 -51 0 -5 -6 -22 -14 -38 -8
-16 -58 -137 -111 -269 -53 -132 -122 -301 -152 -375 -137 -336 -167 -409
-258 -635 -139 -343 -239 -590 -302 -745 -161 -396 -253 -624 -250 -625 1 -1
67 -28 147 -59 80 -32 159 -64 175 -71 84 -39 189 -75 195 -68 7 8 50 113 335
818 91 226 170 419 175 430 5 11 23 56 41 100 17 44 37 94 44 110 8 17 62 149
121 295 135 337 153 381 164 405 5 11 28 67 51 125 22 58 49 124 60 147 10 23
19 45 19 48 0 3 8 25 18 48 10 23 26 62 36 87 10 25 24 58 32 73 8 16 14 33
14 38 0 5 9 28 19 52 11 23 47 112 81 197 34 85 68 169 75 185 7 17 23 55 35
85 11 30 30 74 40 97 11 24 20 45 20 47 0 2 70 177 156 388 86 210 193 475
239 588 46 113 129 318 185 455 55 138 133 329 172 425 39 96 76 189 83 205 7
17 38 91 68 165 98 243 199 493 253 623 l52 128 -31 15 c-45 20 -478 194 -483
194 -3 0 -13 -19 -24 -42z"/>
<path d="M1259 4597 l-1006 -1008 962 -962 c530 -529 971 -970 981 -979 19
-16 19 -14 20 80 1 53 4 227 8 387 l7 289 -593 593 -593 593 609 609 608 608
3 164 c7 395 9 628 5 631 -3 2 -458 -451 -1011 -1005z"/>
<path d="M4949 5360 c0 -8 -3 -127 -5 -265 -2 -137 -6 -303 -7 -368 -2 -64 0
-123 5 -130 4 -6 271 -276 594 -599 l587 -587 -614 -614 -614 -614 -4 -304
c-2 -167 -4 -346 -5 -396 -1 -51 1 -93 4 -93 3 0 460 455 1015 1010 l1010
1010 -983 982 c-540 541 -982 976 -983 968z"/>
</g>
</svg>
