<svg xmlns="http://www.w3.org/2000/svg" width="1000" height="900" viewBox="0 0 570395 513355" shape-rendering="geometricPrecision" image-rendering="optimizeQuality" fill-rule="evenodd" clip-rule="evenodd"><g fill="#d6f0c8"><path d="m420785 209740h-111406c-14705 0-26737-12031-26737-26737v-2971c0-14705 12032-26737 26737-26737h111406c14706 0 26737 12032 26737 26737v2971c0 14706-12031 26737-26737 26737"/><path d="m310744 386260h-28966c-14706 0-26737-12031-26737-26737v-2971c0-14705 12031-26737 26737-26737h28966c14705 0 26737 12032 26737 26737v2971c0 14706-12032 26737-26737 26737"/><path d="m289275 358629h-111406c-14705 0-26737-12032-26737-26738v-2971c0-14705 12032-26737 26737-26737h111406c14705 0 26737 12032 26737 26737v2971c0 14706-12032 26738-26737 26738"/></g><g stroke-width="631.59"><g stroke="#5b5b5b"><path d="m179203 321940c25376 61492 125885 60855 151260-198 103955-91495-250777-97812-151260 198z" fill="#333"/><path d="m318043 283625c15515 6930 25013 16212 6994 29936-2561 1951-5174 3792-8426 5487-8272 4313-12274 5593-21226 8179-2591 748-5117 1149-7890 1739-17071 3631-36784 3702-53923 1440-21515-2840-44530-11350-53951-23561-9134-9626 446-17122 4563-21761 4512-5084-5612-10003 9635-8884 1038-967 999-2214 2131-3222 61-54 6700-2883 8688-7091 3274-6929 14992-5620 23323-6753 6649-3383 14582 4102 22709-5232 1578-460 3320-398 4758-862 67-21 133-50 198-74 3917-1404 9193 672 13166 1311 891 143 3227 726 4005 592 8138-1396 16890 3660 23715 7520 1469 831 6661 1856 7279 2894 994 1672-2176 2281 126 5742 6459 7022-599 8361 14126 12600z" fill="#fffdf4"/></g><g fill="none" stroke="#fefefe"><path d="m253899 357615c1237-759 926-1255 1311-3070 3362-15839 14913-4765 8189-17169-1680 2764-188 2728-1592 5052-2032 635-13365 631-15406-2-1404-2356 132-2362-1580-5069-4829 9191 805 6531 3817 8637 4008 2803 3652 8471 5261 11621z"/><path d="m252241 357895c281-3368-1646-9118-4664-11040l1476 12810 3188-1770z"/><path d="m260530 346810c-3050 2233-4242 7024-4766 10788l3491 1802 1275-12590z"/><path d="m258952 362660c441-5305-10287-4937-9378 68l9378-68z"/></g></g><g fill="#333" fill-rule="nonzero"><path d="m236475 208340h1149v7580l5096-7580h1254v9572h-1149v-7560l-5083 7560h-1267z"/><path d="m245536 215211l1203-307c92 463 337 927 733 1390 399 463 925 695 1582 695 669 0 1197-171 1585-517 385-343 579-760 579-1248 0-525-203-946-611-1256-405-312-960-468-1660-468h-603v-1110c579 0 1022-33 1330-100 307-67 579-238 815-515 237-274 355-588 355-940 0-414-161-777-484-1085-321-307-757-461-1306-461-481 0-891 120-1230 363-338 243-572 564-704 963-129 398-193 697-193 893l-1217-281c299-2032 1417-3048 3353-3048 934 0 1671 261 2217 780 546 519 820 1125 820 1820 0 892-421 1582-1263 2073 488 136 896 412 1225 826 328 417 493 914 493 1493 0 824-319 1513-956 2068-637 554-1482 833-2533 833-1810 0-2986-954-3530-2861"/><path d="m257820 208340h1938v4077c430-44 722-154 874-334 151-178 387-675 704-1491 398-1036 802-1682 1205-1934 401-252 1045-379 1936-379 45 0 138-2 281-6v1430l-274-6c-397 0-686 49-869 147-183 98-330 247-443 447-114 201-281 613-502 1237-118 332-245 608-383 831-136 223-379 432-726 629 430 120 784 367 1065 737 280 370 588 891 922 1566l1304 2621h-2273l-1148-2465c-17-35-55-102-111-202-22-34-102-185-241-450-245-473-445-767-601-885-158-118-397-178-720-183v4185h-1938v-9572"/><path d="m265551 213184c0-976 147-1796 439-2460 216-488 515-927 891-1315 377-388 789-675 1237-864 597-252 1286-379 2065-379 1413 0 2540 439 3389 1315 847 877 1270 2096 1270 3658 0 1549-421 2761-1261 3634-840 876-1965 1313-3371 1313-1423 0-2558-435-3398-1306-840-869-1261-2068-1261-3596m1992-65c0 1085 252 1907 753 2469 501 559 1139 840 1910 840 773 0 1406-279 1902-834 495-557 743-1390 743-2502 0-1098-241-1918-725-2457-481-542-1120-812-1920-812-798 0-1442 275-1930 820-488 549-733 1373-733 2476"/><path d="m276351 217912v-9572h3099c1174 0 1938 46 2295 142 548 145 1007 457 1377 938 370 482 555 1103 555 1865 0 588-107 1081-319 1482-214 401-483 715-811 945-327 227-662 378-1000 452-462 91-1128 138-2001 138h-1257v3610h-1938m1938-7955v2727h1054c760 0 1266-51 1522-151 256-100 457-256 601-472 145-214 219-462 219-747 0-350-103-637-305-864-206-228-462-370-776-428-229-43-691-65-1386-65h-929"/><path d="m284691 213184c0-976 147-1796 438-2460 217-488 515-927 892-1315 376-388 789-675 1237-864 597-252 1285-379 2065-379 1412 0 2540 439 3389 1315 846 877 1270 2096 1270 3658 0 1549-421 2761-1261 3634-840 876-1966 1313-3371 1313-1424 0-2558-435-3398-1306-840-869-1261-2068-1261-3596m1992-65c0 1085 251 1907 753 2469 501 559 1138 840 1909 840 773 0 1406-279 1903-834 495-557 742-1390 742-2502 0-1098-241-1918-724-2457-481-542-1121-812-1921-812-798 0-1441 275-1929 820-488 549-733 1373-733 2476"/><path d="m295490 208340h3828c760 0 1324 31 1696 93 374 65 706 196 1000 395 294 200 539 465 735 797 196 332 294 706 294 1119 0 445-120 858-360 1230-241 374-569 652-981 840 582 171 1027 461 1341 871 312 410 468 891 468 1446 0 437-100 860-303 1272-202 412-479 742-831 989-350 245-782 397-1297 455-320 33-1098 56-2330 65h-3260v-9572m1939 1590v2206h1265c751 0 1219-11 1402-33 330-38 590-151 779-341 190-189 284-437 284-744 0-296-83-535-246-720-162-185-405-296-726-334-192-22-742-34-1649-34h-1109m0 3797v2567h1791c695 0 1139-20 1326-58 287-53 521-180 702-383 180-205 271-475 271-816 0-289-69-532-209-733-138-200-341-347-604-439-263-91-835-138-1715-138h-1562"/><path d="m305185 208340h1938v3823h2583c1216 0 2096 285 2642 856 546 570 818 1254 818 2052 0 653-165 1207-497 1664-330 459-706 769-1132 932-423 162-1036 245-1836 245h-4516v-9572m1938 7954h1878c609 0 1032-29 1266-87 234-58 446-191 631-399 185-207 276-461 276-764 0-437-158-755-473-958-316-203-853-305-1615-305h-1963v2513"/><path d="m314755 217912v-9572h7085v1617h-5147v2126h4786v1617h-4786v2594h5334v1618z"/><path d="m323765 208340h6484v1617h-4545v7955h-1939z"/><path d="m330672 213184c0-976 147-1796 439-2460 216-488 515-927 891-1315 377-388 789-675 1237-864 597-252 1286-379 2065-379 1413 0 2540 439 3389 1315 847 877 1270 2096 1270 3658 0 1549-421 2761-1261 3634-840 876-1965 1313-3371 1313-1423 0-2558-435-3398-1306-840-869-1261-2068-1261-3596m1992-65c0 1085 252 1907 753 2469 501 559 1139 840 1910 840 773 0 1406-279 1902-834 495-557 743-1390 743-2502 0-1098-241-1918-725-2457-481-542-1120-812-1920-812-798 0-1442 275-1930 820-488 549-733 1373-733 2476"/><path d="m236421 232847v-9572h1899l2263 6775c210 631 361 1103 457 1417 109-347 281-860 512-1535l2304-6657h1696v9572h-1217v-8008l-2794 8008h-1141l-2762-8155v8155h-1217"/><path d="m247196 228188c0-1587 428-2830 1281-3728 854-898 1954-1346 3305-1346 884 0 1680 212 2390 633 709 421 1251 1009 1623 1765 372 753 559 1608 559 2564 0 969-196 1838-588 2603-393 766-947 1345-1665 1737-720 395-1495 591-2326 591-902 0-1707-218-2417-653-709-434-1248-1027-1614-1780-365-751-548-1546-548-2386m1310 22c0 1152 310 2059 929 2720 620 662 1398 994 2333 994 954 0 1736-334 2353-1003 615-668 923-1617 923-2847 0-778-132-1457-395-2037-263-579-648-1029-1154-1348-508-318-1076-479-1707-479-895 0-1666 308-2312 923-646 615-970 1640-970 3077"/><path d="m258542 223275h5976v9572h-1271v-8449h-3435v4930c0 1003-47 1736-141 2202-93 468-292 829-592 1089-301 259-684 388-1146 388-280 0-617-58-1009-174l227-1123c208 107 386 161 533 161 285 0 501-107 644-323 142-217 214-725 214-1527v-6746"/><path d="m266220 228188c0-1587 428-2830 1281-3728 853-898 1954-1346 3304-1346 885 0 1680 212 2391 633 708 421 1250 1009 1622 1765 372 753 559 1608 559 2564 0 969-196 1838-588 2603-392 766-947 1345-1664 1737-720 395-1496 591-2326 591-903 0-1707-218-2418-653-709-434-1248-1027-1613-1780-366-751-548-1546-548-2386m1310 22c0 1152 310 2059 929 2720 619 662 1397 994 2333 994 953 0 1735-334 2353-1003 615-668 922-1617 922-2847 0-778-131-1457-394-2037-263-579-649-1029-1154-1348-508-318-1077-479-1707-479-896 0-1667 308-2313 923-646 615-969 1640-969 3077"/><path d="m277033 223275h1270v4197c577 0 985-113 1218-338 237-225 535-765 901-1620 265-631 483-1074 657-1333 171-260 417-479 735-655 317-176 669-265 1052-265 488 0 744 5 771 14v1096c-45 0-129-2-254-7-141-4-225-7-256-7-404 0-704 98-901 294-200 197-428 615-686 1255-321 811-593 1323-815 1535-221 210-488 379-796 506 617 169 1228 742 1829 1713l1972 3187h-1573l-1606-2594c-439-720-807-1214-1101-1482-296-269-677-403-1147-403v4479h-1270v-9572"/><path d="m283744 232847l3672-9572h1392l3897 9572h-1441l-1108-2902h-4030l-1039 2902h-1343m2754-3931h3262l-999-2654c-300-806-528-1472-686-1998-131 624-307 1237-528 1842l-1049 2810"/><path d="m333847 163484h5829v8449h855v3356h-1123v-2233h-6336v2233h-1123v-3356h735c776-1163 1163-3514 1163-7050v-1399m4559 1123h-3342v490c0 816-74 1932-221 3347-145 1415-434 2578-862 3489h4425v-7326"/><path d="m341643 168397c0-1586 428-2830 1281-3728 854-898 1954-1345 3305-1345 884 0 1680 211 2390 632 709 422 1250 1010 1622 1765 373 753 560 1609 560 2565 0 969-196 1838-588 2602-393 766-947 1346-1665 1738-720 394-1495 590-2326 590-902 0-1707-218-2417-652-709-435-1248-1028-1614-1781-365-751-548-1546-548-2386m1310 22c0 1152 310 2059 929 2721 620 662 1397 993 2333 993 954 0 1736-334 2353-1002 615-669 923-1618 923-2848 0-777-132-1457-395-2036-263-579-648-1029-1154-1348-508-319-1076-479-1707-479-895 0-1666 307-2312 922-646 615-970 1640-970 3077"/><path d="m352403 173056v-9572h1898l2264 6776c209 630 361 1103 457 1417 109-348 280-860 512-1535l2304-6658h1695v9572h-1216v-8008l-2794 8008h-1141l-2763-8155v8155h-1216"/><path d="m362516 173056l3672-9572h1393l3897 9572h-1442l-1107-2901h-4031l-1038 2901h-1344m2754-3930h3262l-998-2654c-301-807-528-1473-686-1999-132 624-308 1237-528 1843l-1050 2810"/><path d="m372509 163484h1270v8449h3169v-8449h1270v8449h3168v-8449h1270v9572h-10147z"/><path d="m384789 173056v-9572h1269v3944h4947v-3944h1270v9572h-1270v-4505h-4947v4505z"/><path d="m401956 173056v-9572h-4242c-854 0-1500 87-1943 259-444 171-798 474-1063 909-265 434-399 915-399 1441 0 680 221 1252 660 1718 439 466 1116 760 2034 887-336 160-591 321-764 477-370 338-720 764-1047 1274l-1656 2607h1582l1266-1992c367-577 673-1016 911-1321 240-305 454-517 644-640 187-120 381-205 577-254 142-29 376-44 704-44h1466v4251h1270m-1270-5347h-2718c-579 0-1030-61-1355-181-325-118-573-310-740-575-169-263-254-548-254-858 0-452 163-826 491-1118 327-292 844-437 1550-437h3026v3169"/><path d="m411611 173056v-9572h-4243c-853 0-1499 87-1943 259-443 171-797 474-1062 909-266 434-399 915-399 1441 0 680 220 1252 659 1718 439 466 1116 760 2034 887-336 160-590 321-764 477-370 338-720 764-1047 1274l-1656 2607h1582l1266-1992c368-577 673-1016 911-1321 241-305 455-517 644-640 187-120 381-205 577-254 143-29 377-44 704-44h1466v4251h1271m-1271-5347h-2718c-579 0-1029-61-1354-181-326-118-573-310-740-575-169-263-254-548-254-858 0-452 162-826 490-1118 328-292 844-437 1551-437h3025v3169"/><path d="m252187 194235l5087 1563c-781 2864-2083 4990-3900 6383-1817 1387-4118 2083-6910 2083-3458 0-6299-1181-8527-3543-2223-2362-3337-5590-3337-9690 0-4330 1120-7697 3355-10095 2235-2398 5178-3598 8824-3598 3185 0 5771 945 7758 2829 1187 1114 2071 2713 2664 4802l-5196 1236c-309-1345-951-2411-1926-3192-981-781-2168-1169-3561-1169-1931 0-3500 691-4699 2077-1205 1381-1805 3622-1805 6723 0 3282 594 5626 1775 7019 1187 1399 2725 2095 4620 2095 1399 0 2605-442 3610-1332 1005-890 1732-2283 2168-4191"/><path d="m261235 203828v-26017h7891l4663 17744 4609-17744h7909v26017h-4869l-18-20482-5129 20482h-5063l-5106-20482-18 20482z"/><path d="m291576 203828v-26017h19259v4396h-13990v5778h13009v4397h-13009v7049h14499v4397z"/><path d="m321663 203828v-21621h-7703v-4396h20639v4396h-7667v21621z"/><path d="m359157 203828h-5675l-2246-5923h-10435l-2162 5923h-5572l10102-26017h5565l10423 26017m-9629-10320l-3616-9629-3512 9629h7128"/><path d="m361961 203828v-26017h5269v10247h10247v-10247h5269v26017h-5269v-11373h-10247v11373z"/><path d="m411640 203828h-5675l-2246-5923h-10435l-2162 5923h-5572l10102-26017h5565l10423 26017m-9629-10320l-3616-9629-3512 9629h7128"/></g><path d="m321785 332479l-1847 1116c-377 305-320 255-568 544-9344 1789 4307-15594-11394-4928-7900 5367-3854 16920-9555 9447-1357-1507-7440 14384-11865-3121-3043-12041-4753-993-5388 202l-407 1989c-306 1139-4691 19455-11276 4112-2404-9391 152-5546-10339-9921 360-600 12159-11287 12243-11568 313-1043 415-1209 702-2658 280-1413 591-1838 137-2624 923-6314-79-10689-3034-15508-469-763-2476-2124-3470-2518-2871-1138-5219-603-7244 1400-52 52-121 120-173 173l-1236 1844c-820 1404-914 961-1217 3005-1226 2674-631 3734-2606 6449-51123-14492 103594-51161 68537 22565" fill="#fffdf4"/></svg>