<svg xmlns="http://www.w3.org/2000/svg" width="1000" height="900" viewBox="0 0 442837 398553" shape-rendering="geometricPrecision" image-rendering="optimizeQuality" fill-rule="evenodd" clip-rule="evenodd"><g fill="#d6f0c8"><path d="m325636 140907h-86492c-11417 0-20758-9341-20758-20758v-2307c0-11417 9341-20758 20758-20758h86492c11417 0 20758 9341 20758 20758v2307c0 11417-9341 20758-20758 20758"/><path d="m160927 166415h-22488c-11417 0-20758-9341-20758-20758v-2307c0-11417 9341-20758 20758-20758h22488c11417 0 20758 9341 20758 20758v2307c0 11417-9341 20758-20758 20758"/><path d="m200041 300691h-86492c-11417 0-20758-9341-20758-20758v-2307c0-11416 9341-20757 20758-20757h86492c11417 0 20758 9341 20758 20757v2307c0 11417-9341 20758-20758 20758"/></g><g fill="#fefefe" stroke="#333" stroke-width="490.35"><ellipse cx="222158" cy="258066" rx="112551" ry="25441"/><ellipse cx="223132" cy="252024" rx="104062" ry="18895"/></g><g fill="#333" fill-rule="nonzero"><path d="m135928 137072h4526v6560h664v2605h-872v-1733h-4920v1733h-872v-2605h571c602-903 903-2728 903-5473v-1087m3540 872h-2595v381c0 633-57 1499-171 2598-113 1098-338 2001-670 2709h3436v-5688"/><path d="m141981 140886c0-1231 332-2196 995-2894 662-697 1517-1044 2565-1044 687 0 1304 164 1856 491 550 327 971 784 1259 1370 289 585 435 1249 435 1991 0 753-153 1427-457 2020-305 596-735 1045-1292 1350-559 306-1161 458-1806 458-701 0-1325-169-1877-507-550-337-969-797-1252-1382-284-583-426-1200-426-1853m1017 18c0 894 241 1598 721 2112 481 514 1085 771 1812 771 740 0 1347-259 1826-778 478-519 716-1256 716-2211 0-603-102-1131-306-1581-204-449-503-799-896-1046-394-248-835-372-1325-372-695 0-1294 238-1795 716-502 477-753 1273-753 2389"/><path d="m150334 144504v-7432h1474l1758 5261c162 489 280 856 354 1100 85-270 218-668 398-1192l1789-5169h1316v7432h-944v-6217l-2170 6217h-885l-2145-6332v6332h-945"/><path d="m158186 144504l2851-7432h1081l3025 7432h-1119l-859-2253h-3130l-806 2253h-1043m2138-3052h2533l-775-2060c-234-626-410-1143-533-1552-102 485-239 960-410 1431l-815 2181"/><path d="m165944 137072h986v6560h2460v-6560h986v6560h2460v-6560h986v7432h-7878z"/><path d="m175478 144504v-7432h986v3062h3840v-3062h986v7432h-986v-3498h-3840v3498z"/><path d="m182952 137072h893v5885l3956-5885h974v7432h-893v-5870l-3946 5870h-984z"/><path d="m190413 137072h893v5885l3956-5885h974v7432h-893v-5870l-3946 5870h-984v-7432m3705-1785h623c-50 427-206 756-465 984-260 230-604 345-1035 345-432 0-778-115-1036-341-258-229-413-557-463-988h622c47 234 142 408 282 522 140 116 331 173 568 173 275 0 482-55 622-167 140-111 236-288 282-528"/><path d="m285078 109516v-6560h-2450v-872h5885v872h-2449v6560z"/><path d="m288761 105898c0-1231 332-2196 994-2894 663-697 1517-1044 2566-1044 686 0 1304 164 1856 491 550 327 970 784 1259 1370 289 585 434 1249 434 1991 0 753-152 1427-456 2020-305 596-736 1045-1293 1350-558 306-1160 458-1806 458-700 0-1325-169-1876-507-551-337-969-797-1253-1382-284-583-425-1200-425-1853m1017 18c0 894 240 1598 721 2112 481 514 1085 771 1811 771 741 0 1348-259 1827-778 477-519 716-1256 716-2211 0-603-102-1131-306-1581-204-449-503-799-896-1046-395-248-836-372-1325-372-696 0-1294 238-1796 716-501 477-752 1273-752 2389"/><path d="m297135 109516v-7432h2805c493 0 871 24 1132 71 365 61 671 177 918 346 248 171 446 410 597 716 151 306 225 644 225 1012 0 630-201 1164-604 1600-401 438-1129 656-2181 656h-1906v3031h-986m986-3903h1920c636 0 1086-118 1354-355 267-237 400-569 400-999 0-310-78-576-235-798-158-221-365-368-622-439-166-43-472-66-916-66h-1901v2657"/><path d="m305479 109516v-6560h-2449v-872h5885v872h-2450v6560z"/><path d="m147963 125958l3950 1213c-607 2224-1617 3875-3028 4956-1411 1077-3197 1618-5365 1618-2685 0-4890-917-6620-2751-1726-1834-2591-4340-2591-7523 0-3362 870-5976 2605-7838 1735-1862 4020-2793 6851-2793 2473 0 4481 734 6023 2196 921 865 1608 2106 2069 3729l-4035 959c-240-1044-738-1872-1495-2478-761-607-1683-908-2765-908-1499 0-2717 537-3648 1613-936 1072-1401 2812-1401 5219 0 2549 460 4368 1377 5450 922 1086 2116 1626 3588 1626 1086 0 2022-343 2802-1034 781-691 1345-1772 1683-3254"/><path d="m154988 133406v-20199h6126l3621 13776 3578-13776h6140v20199h-3780l-14-15902-3982 15902h-3931l-3964-15902-14 15902z"/><path d="m178544 133406v-20199h14952v3414h-10861v4485h10099v3414h-10099v5473h11256v3413z"/><path d="m201903 133406v-16785h-5981v-3414h16024v3414h-5953v16785z"/><path d="m231012 133406h-4406l-1744-4598h-8101l-1679 4598h-4326l7843-20199h4321l8092 20199m-7476-8012l-2807-7476-2727 7476h5534"/><path d="m233189 133406v-20199h4090v7955h7956v-7955h4090v20199h-4090v-8830h-7956v8830z"/><path d="m253562 133406v-20199h4090v7955h7956v-7955h4091v20199h-4091v-8830h-7956v8830z"/><path d="m273991 113207h3809v13447l8181-13447h4062v20199h-3808v-13231l-8181 13231h-4063z"/><path d="m294270 113207h4091v8604c907-94 1523-324 1843-705 320-376 818-1425 1486-3145 841-2187 1692-3550 2543-4082 847-531 2206-799 4086-799 94 0 292-5 593-14v3019l-579-14c-836 0-1448 103-1833 310-386 207-696 522-936 945-240 423-592 1293-1058 2609-249 701-517 1284-809 1754-286 470-799 912-1532 1326 907 254 1655 776 2247 1556 592 781 1241 1881 1947 3306l2750 5529h-4796l-2421-5200c-38-75-118-216-235-428-47-71-216-390-508-950-517-997-940-1617-1269-1866-334-250-837-377-1519-386v8830h-4091v-20199"/></g><g stroke-width="490.35"><path d="m220255 221206c231 1756-637 2237-1889 2916-1028 558-2602 1087-3850 1411-2791 725-5726 1254-8723 1643-12749 1652-35778 1802-48120-1725-1761-503-7140-2252-5194-4536-1062 297-2940 1768-2792 3247 342 3423 9875 5436 12687 5980 13641 2639 32750 2660 46426 194 3236-583 7015-1452 9749-2712 1374-633 2842-1346 3620-2604 1097-1772-924-3301-1914-3814z" fill="#fcfcfc" stroke="#000"/><path d="m142189 221869c54182 6806 108357 7578 162523 0v12375c-55295 7953-109368 7231-162523 0v-12375z" fill="#211500" stroke="#211500"/><path d="m142189 234244c54182 6806 108357 7578 162523 0v12374c-55295 7953-109368 7231-162523 0v-12374z" fill="#fffceb" stroke="#fffceb"/><path d="m142189 197121c54182 6805 108357 7578 162523 0v12374c-55295 7953-109368 7231-162523 0v-12374z" fill="#211500" stroke="#211500"/><path d="m142189 209495c54182 6806 108357 7578 162523 0v12374c-55295 7953-109368 7231-162523 0v-12374z" fill="#fffceb" stroke="#fffceb"/><path d="m142189 246618c54182 6806 108357 7578 162523 0-1841 22490-164235 20205-162523 0z" fill="#211500" stroke="#211500"/><path d="m142215 184445c54182 6805 108356 7578 162522 0v12374c-55294 7953-109367 7231-162522 0v-12374z" fill="#fffceb" stroke="#fffceb"/></g><path d="m143096 223042c8192 9229 8220 13395 8011 2592l1947-4575c1711-3279 5613-13153 9274-13249 2175 2182 4488 8780 2413 12179 414 3356-812 4121-1323 6598-824 3983-5134 13169 1910 16837l2580 1307c526 357 447 299 793 636 4365 700 2250-9618 2068-12485 334-1463 52-84-144-1147-372-2018-727-9505 399-10907-209-3447 1113-10106 3183-12191 9481 620 8248 2538 9057 13305 1555 1256 390 2130 2490 2351 2336 246 1268-890 3447-1994 516-1545 3579-4337 4768-5936 1526-2051 3765-4097 4923-6158l1117-701 2279-3560c6377-316 6312 1240 8423-2634l1985-3561c1290-2466 7241-1875 8723-472 1686 1596 1585 2177 2762 3961l956 2491c707 2200 4286 17308 3066 24961-2985 5304-3379 50113 10151 23690 408-1335 908-6742 853-6863l-1773-12641c-502-702-1622-5316-1738-5644-437-1222-580-1416-981-3111-390-1653-824-2151-191-3071-1289-7389 110-12509 4237-18148 654-894 3456-2486 4845-2947 4008-1332 7287-707 10114 1639 73 60 170 139 241 202l1727 2158c1145 1643 1276 1124 1699 3516 1713 3129 882 4370 3638 7548 4374-58 5413-5064 7215-8182 3924-1470 4388 321 5645 3583 739 1920 2690 6197 2957 7893 584 1111 1262 2954 2124 3650 1791 1447 2474 2023 3900 1806 2543-387 211-147 2970-2757 5525-5228 1554-7717 9586-14285 5950-4866 9252 1415 9372 1793 767 2420-21 2108 1526 3341 6177-9966 4383-36215-12878-41873-624-205-1102-261-1689-449-8955-2884-31461 2100-45632 382-6587-799-35330-3806-42082-3938-1474-28-3077 99-4494-171-4383-839-17731-814-22124-456-25109 2044-39624 3311-39873 31802-39 4416-511 32001 190 34415 3300 11366 3160-10121 5358-10530" fill="#f6edbc"/></svg>