<?xml version="1.0" encoding="UTF-8"?>
<!DOCTYPE svg PUBLIC "-//W3C//DTD SVG 1.1//EN" "http://www.w3.org/Graphics/SVG/1.1/DTD/svg11.dtd">
<!-- Creator: CorelDRAW X7 -->
<svg xmlns="http://www.w3.org/2000/svg" xml:space="preserve" width="100%" height="100%" version="1.1" style="shape-rendering:geometricPrecision; text-rendering:geometricPrecision; image-rendering:optimizeQuality; fill-rule:evenodd; clip-rule:evenodd"
viewBox="0 0 39370 39370"
 xmlns:xlink="http://www.w3.org/1999/xlink">
 <defs>
  <style type="text/css">
   <![CDATA[
    .fil0 {fill:#FEFEFE}
   ]]>
  </style>
 </defs>
 <g id="Слой_x0020_1">
  <metadata id="CorelCorpID_0Corel-Layer"/>
  <path class="fil0" d="M19685 0c10872,0 19685,8813 19685,19685 0,1440 -155,2845 -448,4197 -483,2223 -1349,570 -2685,-1023l-3659 -4366c-1472,-1755 -1657,-1794 -3355,-191l-4241 4004 -9477 -12214c-1201,-1547 -1476,-1552 -2658,-27l-9946 12838c-1259,1623 -2041,3003 -2503,736 -261,-1277 -398,-2600 -398,-3954 0,-10872 8813,-19685 19685,-19685zm14127 33392c-3578,3686 -8584,5978 -14127,5978 -5351,0 -10204,-2136 -13751,-5601 -1535,-1500 -853,-2040 312,-3620l1909 -2588c1115,-1513 1426,-1438 2695,-221l0 0c1795,1719 1855,1660 3450,-178l2818 -3247c1800,-2061 1922,-1993 3693,236l4991 6284c1112,1400 1590,1625 3407,1626l1686 2c2218,2 4678,-486 2917,1329zm-3619 -25669c26,3884 -2169,5920 312,8224 538,500 508,565 498,-67 -61,-4027 2198,-5965 83,-8362 -1098,-1246 -901,-938 -893,205z"/>
 </g>
</svg>
