<?xml version="1.0" encoding="UTF-8"?>
<!DOCTYPE svg PUBLIC "-//W3C//DTD SVG 1.1//EN" "http://www.w3.org/Graphics/SVG/1.1/DTD/svg11.dtd">
<!-- Creator: CorelDRAW X7 -->
<svg xmlns="http://www.w3.org/2000/svg" xml:space="preserve" width="100%" height="100%" version="1.1" style="shape-rendering:geometricPrecision; text-rendering:geometricPrecision; image-rendering:optimizeQuality; fill-rule:evenodd; clip-rule:evenodd"
viewBox="0 0 31750 31750"
 xmlns:xlink="http://www.w3.org/1999/xlink">
 <defs>
  <style type="text/css">
   <![CDATA[
    .fil0 {fill:none}
    .fil1 {fill:#FEFEFE}
   ]]>
  </style>
 </defs>
 <g id="Слой_x0020_1">
  <metadata id="CorelCorpID_0Corel-Layer"/>
  <rect class="fil0" width="31750" height="31750" rx="30000" ry="30000"/>
  <path class="fil1" d="M24262 10673c-618,274 -1281,459 -1977,542 711,-426 1256,-1100 1513,-1904 -665,395 -1401,681 -2185,835 -628,-669 -1522,-1086 -2512,-1086 -1901,0 -3441,1540 -3441,3441 0,269 30,532 89,784 -2860,-143 -5396,-1513 -7093,-3596 -296,509 -466,1100 -466,1730 0,1194 607,2248 1531,2865 -564,-18 -1095,-173 -1559,-431 0,15 0,29 0,44 0,1667 1186,3058 2760,3374 -288,79 -592,120 -906,120 -222,0 -438,-21 -648,-61 438,1367 1709,2362 3215,2390 -1178,923 -2662,1473 -4274,1473 -277,0 -552,-17 -821,-48 1523,976 3332,1546 5275,1546 6330,0 9791,-5244 9791,-9791 0,-149 -3,-298 -10,-445 672,-486 1256,-1092 1717,-1782l1 0z"/>
 </g>
</svg>
