<?xml version="1.0" encoding="UTF-8"?>
<!DOCTYPE svg PUBLIC "-//W3C//DTD SVG 1.1//EN" "http://www.w3.org/Graphics/SVG/1.1/DTD/svg11.dtd">
<!-- Creator: CorelDRAW X7 -->
<svg xmlns="http://www.w3.org/2000/svg" xml:space="preserve" width="100%" height="100%" version="1.1" style="shape-rendering:geometricPrecision; text-rendering:geometricPrecision; image-rendering:optimizeQuality; fill-rule:evenodd; clip-rule:evenodd"
viewBox="0 0 31750 31750"
 xmlns:xlink="http://www.w3.org/1999/xlink">
 <defs>
  <style type="text/css">
   <![CDATA[
    .fil0 {fill:none}
    .fil1 {fill:#FEFEFE}
   ]]>
  </style>
 </defs>
 <g id="Слой_x0020_1">
  <metadata id="CorelCorpID_0Corel-Layer"/>
  <rect class="fil0" width="31750" height="31750" rx="30000" ry="30000"/>
  <path class="fil1" d="M15688 20803l1041 0c0,0 315,-35 475,-207 148,-159 144,-458 144,-458 0,0 -21,-1397 627,-1603 640,-203 1461,1350 2331,1948 658,452 1159,352 1159,352l2326 -32c0,0 1217,-75 640,-1032 -47,-78 -336,-707 -1730,-2002 -1460,-1353 -1263,-1135 494,-3477 1071,-1426 1498,-2297 1364,-2671 -127,-355 -915,-261 -915,-261l-2619 17c0,0 -194,-27 -338,59 -141,85 -231,281 -231,281 0,0 -416,1104 -968,2043 -1167,1981 -1633,2086 -1824,1962 -444,-287 -332,-1152 -332,-1765 0,-1920 290,-2720 -568,-2927 -285,-69 -495,-115 -1223,-123 -935,-9 -1726,3 -2174,223 -297,146 -527,471 -387,490 173,23 565,105 772,389 269,365 260,1185 260,1185 0,0 154,2260 -361,2540 -352,192 -837,-200 -1876,-1998 -533,-920 -935,-1937 -935,-1937 0,0 -78,-191 -217,-292 -168,-124 -402,-163 -402,-163l-2490 17c0,0 -373,10 -510,173 -123,144 -11,443 -11,443 0,0 1949,4560 4156,6858 2024,2106 4322,1968 4322,1968l0 0 0 0z"/>
 </g>
</svg>
