<?xml version="1.0" encoding="utf-8"?>
<!-- Generator: Adobe Illustrator 16.0.0, SVG Export Plug-In . SVG Version: 6.00 Build 0)  -->
<!DOCTYPE svg PUBLIC "-//W3C//DTD SVG 1.1//EN" "http://www.w3.org/Graphics/SVG/1.1/DTD/svg11.dtd">
<svg version="1.1" id="Layer_1" xmlns="http://www.w3.org/2000/svg" xmlns:xlink="http://www.w3.org/1999/xlink" x="0px" y="0px"
	 width="708.661px" height="935.433px" viewBox="0 0 708.661 935.433" enable-background="new 0 0 708.661 935.433"
	 xml:space="preserve">
<g id="Map">
	<path fill="#E6E7E8" d="M419.19,346.806c-8.254-21.071,84.285-101.286,96.037-90.217c15.797,14.896-49.688,41.515-68.299,71.551
		C445.809,329.917,423.397,349.785,419.19,346.806L419.19,346.806z"/>
	<rect x="0" y="-0.341" fill="none" width="548.569" height="763.604"/>
	<path fill="#73746C" d="M156.464,431.613c-0.082-31.867-15.141-46.408-37.112-9.348
		C138.617,412.152,144.139,413.437,156.464,431.613z"/>
	<path fill="#00AFEF" d="M421.296,115.593c-7.6,3.034-16.918-0.738-24.381,1.23c-2.213,0.547-3.66,7.188-5.848,7.789
		c-2.871,0.765-6.943-3.088-9.785-2.542c-2.021,0.382-3.799,4.81-5.793,5.192c-3.336,0.683-6.148-4.181-9.457-3.935
		c-11.23,0.82-22.711,4.673-34.162,2.35l34.654-61.056l13.338,9.292l10.275-7.051L421.296,115.593L421.296,115.593z"/>
	<path fill="#6899DE" d="M421.296,115.593c-7.6,3.034-16.918-0.738-24.381,1.23c-2.213,0.547-3.66,7.188-5.848,7.789
		c-2.871,0.765-6.943-3.088-9.785-2.542c-2.021,0.382-3.799,4.81-5.793,5.192c-3.336,0.683-6.148-4.181-9.457-3.935
		c-11.23,0.82-22.711,4.673-34.162,2.35l34.654-61.056l13.338,9.292l10.275-7.051L421.296,115.593L421.296,115.593z"/>
	<polygon fill="#EDEDEE" points="407.63,94.221 388.934,84.956 380.844,95.041 373.385,89.848 361.686,104.579 354.884,85.121 
		366.524,64.623 379.862,73.915 390.137,66.864 	"/>
	<path fill="#B6D2DE" d="M397.735,136.556c-0.027,3.99,3.197,5.849,6.205,6.368c1.748,0.246,1.174,5.849,2.979,6.04
		c2.377,0.273,5.572-4.509,8.113-4.564c2.297,0,6.943,8.8,9.293,8.8c5.713,0,10.414-6.478,15.66-8.117
		c2.57-0.792,5.193,1.886,7.816,2.132c4.291,0.41,12.98,1.913,12.652-0.438l-13.01-46.461c0,0-2.432-5.903-4.51-5.548
		c-2.049,0.355-4.672,4.127-6.859,4.865c-2.186,0.738-2.268-5.029-4.346-5.166c-1.967-0.109-3.115,4.455-5.547,5.466
		c-1.396,0.52-1.695-7.816-5.221-2.405L397.735,136.556z"/>
	<path fill="#EDEDEE" d="M414.325,108.679c-0.025,3.607-0.572-3.197,8.146-2.214c2.402,0.274,0.928,5.001,3.471,4.975
		c2.295-0.027,5.793-2.132,8.146-2.132c5.736,0,2.979,3.252,8.195,1.64c2.6-0.82,1.75,4.428,4.373,4.673
		c4.266,0.41,3.801-3.389,3.473-5.739l-2.68-9.565c0,0-2.432-5.903-4.51-5.548c-2.049,0.355-4.672,4.127-6.859,4.865
		c-2.186,0.738-2.268-5.029-4.346-5.166c-1.967-0.109-3.115,4.455-5.547,5.466c-1.396,0.52-1.695-7.816-5.221-2.405L414.325,108.679
		L414.325,108.679z"/>
	<path fill="#6899DE" d="M191.857,515.378c1.995,0.684,5.712-2.705,8.173-2.27c2.24,0.354,3.279,4.617,5.028,4.068
		c2.296-0.734,2.73-4.479,4.837-4.23c2.952,0.381,7.188,6.938,9.921,7.35c4.236,0.631,4.673-7.623,8.253-8.582
		c1.668-0.436,3.554,3.336,5.521,3.527c2.322,0.246,2.517-4.186,4.43-4.482c1.364-0.246,3.359,2.951,4.862,3.416
		c2.159,0.656,3.802-1.365,4.812-2.158l-25.744-41.979l-10.877-1.777L191.857,515.378L191.857,515.378z"/>
	<polygon fill="#EDEDEE" points="201.477,491.82 208.828,484.414 213.475,501.904 218.395,485.097 235.338,491.845 221.948,470.039 
		211.071,468.261 	"/>
	<path fill="#6793A7" d="M172.645,613.74c-4.62,1.611-13.283-3.881-19.897-2.652c-4.974,0.932-7.731,8.912-12.569,8.256
		c-6.369-0.9-11.59-8.336-16.264-7.598c-8.145,1.256-5.983,14.184-14.43,13.609c-5.002-0.328-5.275-9.455-10.414-10.604
		c-8.198-1.887-21.371,3.471-30.035-1.012L96.64,544.13c2.597-1.857,5.492,2.707,7.844,1.668c2.896-1.258,5.221-7.953,7.762-8.063
		c2.924-0.109,2.814,6.529,5.275,7.869c1.967,1.037,6.611-3.416,8.309-1.477L172.645,613.74z"/>
	<path fill="#EDEDEE" d="M138.535,563.015c-4.618,1.586-5.164,12.461-11.807,13.664c-4.946,0.93-1.064,5.549-5.875,4.893
		c-6.368-0.9-0.273-12.572-4.977-11.834c-8.09,1.258-2.76,16.563-11.205,16.045c-4.975-0.357-0.055-23.889-5.191-25.037
		c-8.199-1.885-2.434,8.664-11.098,4.184l8.256-20.799c2.597-1.855,5.492,2.707,7.844,1.668c2.896-1.258,5.221-7.953,7.762-8.063
		c2.924-0.109,2.814,6.531,5.275,7.871c1.967,1.037,6.611-3.416,8.309-1.477L138.535,563.015L138.535,563.015z"/>
	<path fill="#73746C" d="M53.266,278.317c22.328-44.248,38.396-50.67,58.979-4.209C88.248,255.141,76.114,249.894,53.266,278.317z"
		/>
	<path fill="#73746C" d="M50.643,300.482C83.302,273.644,96.53,260.689,100,324.723C97.213,285.86,81.908,275.201,50.643,300.482z"
		/>
	<path fill="#73746C" d="M99.973,288.156c19.295-42.143,19.321-42.744,48.646-4.154C130.746,264.925,114.403,264.625,99.973,288.156
		z"/>
	<path fill="#73746C" d="M80.514,223.958c19.73-27.604,20.717-25.417,31.293,1.585C104.428,211.987,93.878,209.882,80.514,223.958z"
		/>
	<path fill="#73746C" d="M110.933,238.934c5.521-33.425,18.256-16.261,23.229,1.612
		C128.889,230.271,118.612,224.012,110.933,238.934z"/>
	<path fill="#73746C" d="M200.248,519.232c-15.935-18.994-14.979-19.842-29.49-6.559c0.604-0.602,2.297,0.109,2.845-0.438
		C183.823,502.888,186.035,515.925,200.248,519.232L200.248,519.232z"/>
	<path fill="#73746C" d="M159.115,522.648c6.478-23.531,21.51-11.451,27.385,1.121C177.891,511.88,165.456,506.769,159.115,522.648z
		"/>
	<path fill="#40949F" d="M436.79,157.108c-1.146,2.022,0.902,5.411,2.543,5.931c1.559,0.465,4.592-2.979,5.795-2.077
		c2.049,1.503,2.648,3.662,5.818,4.182c3.199,0.492,4.564-4.619,8.582-4.673c1.313-0.028,0.711,7.325,2.24,7.57
		c2.461,0.437,2.434-6.396,5.604-7.188c1.342-0.328,2.598,2.351,4.318,2.651c1.504,0.3,2.65-3.499,4.236-3.444
		c2.924,0.027,7.434,6.231,8.035,3.389L466.36,130.98c-1.83-1.94-4.455,0.492-5.465-1.148c-3.635-5.875-7.652-2.596-12.654,4.919
		L436.79,157.108L436.79,157.108z"/>
	<path fill="#EDEDEE" d="M445.864,139.425c-1.146,1.995,1.748,0.219,3.391,0.71c1.527,0.465,1.174,3.362,2.377,4.264
		c2.051,1.503,4.838-10.249,7.543-8.5c5.795,3.772,3.252,6.833,7.379,6.887c2.871,0.055,2.051-3.689,2.65-6.559l-2.844-5.248
		c-1.83-1.94-4.455,0.492-5.465-1.148c-3.635-5.875-7.652-2.596-12.654,4.919L445.864,139.425L445.864,139.425z"/>
	<polygon fill="#2761A1" points="172.071,603.244 165.428,592.339 120.99,665.23 156.464,663.291 175.569,686.275 188.823,674.193 
		216.1,674.193 239.492,684.333 248.84,675.779 200.138,596.22 192.704,599.748 183.768,583.757 	"/>
	<polygon fill="#EDEDEE" points="172.071,603.244 165.428,592.339 149.195,618.988 168.161,614.941 173.218,627.814 187.266,614.56 
		194.617,629.753 208.857,610.458 200.138,596.22 192.704,599.748 183.768,583.757 	"/>
	<path fill="#EDEDEE" d="M428.809,80.966l2.324,16.753l7.543-12.763c6.34,1.476,11.014,0.93,7.813-9.319
		c11.508-7.078,1.176-33.588-7.707-16.125c-2.787-9.838-18.393-13.583-15.604,4.51C409.298,60.633,413.149,94.686,428.809,80.966
		L428.809,80.966z"/>
	<g id="_794333312">
		<path fill="#90413A" d="M44.957,348.119c2.078,9.373,4.977,14.676,9.238,13.473l-1.367-8.826l12.791-0.547l-0.109,9.101
			c4.266-0.164,5.657-3.171,7.105-10.987c-0.355-6.039,2.869-7.734,9.375-5.438c1.476-0.109,4.373-2.733,3.936-3.744
			c-0.437-1.011-1.857-1.312-2.516-2.405c-0.545-0.984-0.3-2.814-0.98-3.389c-0.957-0.766-2.078-0.246-2.98-0.902
			c-1.065-0.792-0.983-2.432-2.514-2.623c-1.643-0.191-3.607,1.476-5.984,1.748c-7.926-2.268-20.826-0.081-26.211,9.977
			c-0.982,1.83-2.732,1.722-2.76,2.924C41.924,347.572,43.372,347.408,44.957,348.119L44.957,348.119z"/>
		<path fill="#4B4B4D" d="M80.022,337.104c-2.377-0.383,0.982,3.908,0.736,0.219C80.733,337.131,80.323,337.159,80.022,337.104z"/>
	</g>
	<ellipse fill="#00AFEF" cx="97.213" cy="234.152" rx="13.336" ry="3.854"/>
	<path fill="#D2D3D5" d="M84.094,233.468c3.496-1.421,3.389-1.011,3.605-0.382c0.082,0.3,0.219,0.71,1.723,0.737
		c0.139,0,0.438-0.164,0.793-0.382c1.146-0.71,2.979-1.804,5.165-0.109c0.466,0.41,0.71,0.137,1.038-0.191
		c0.656-0.738,1.53-1.667,4.209-0.027c1.066,0.684,1.725,0.219,2.378-0.246c1.038-0.738,2.188-1.503,4.757,0.655
		c0.572,0.493,1.693,0.301,2.321,0.192c0.221-0.027,0.3-0.027,0.382-0.027l0,0c-0.082,0-1.557,1.421-3.006,0.191
		c-2.295-1.94-3.277-1.257-4.209-0.628c-0.792,0.547-1.528,1.066-2.869,0.246c-2.351-1.476-3.089-0.656-3.635-0.055
		c-0.492,0.519-0.848,0.902-1.667,0.246c-1.913-1.503-3.581-0.52-4.619,0.136c-0.438,0.246-0.792,0.465-1.038,0.465
		c-1.805-0.055-2.021-0.628-2.158-1.039C87.156,232.921,87.156,232.238,84.094,233.468L84.094,233.468L84.094,233.468z"/>
	<path fill="#D2D3D5" d="M84.641,235.436c1.446-1.148,2.131-0.902,2.813-0.438c0.655,0.492,1.53,1.093,4.235-0.219
		c0.574-0.273,0.875,0.055,1.258,0.411c0.547,0.519,1.258,1.202,3.389-0.301c1.342-0.929,2.271-0.492,3.279-0.054
		c0.93,0.437,1.859,0.901,3.279,0.027c1.449-0.902,2.434-0.355,3.498,0.246c0.685,0.41,1.586,0.957,2.461,0.957l0,0
		c-1.014,0-1.97-0.137-2.682-0.546c-0.955-0.546-1.803-1.039-3.031-0.273c-1.642,0.984-2.705,0.492-3.719,0.027
		c-0.875-0.437-1.692-0.792-2.842,0c-2.433,1.695-3.307,0.875-3.936,0.246c-0.246-0.246-0.492-0.465-0.768-0.328
		c-2.949,1.421-3.936,0.737-4.698,0.191c-0.521-0.383-1.313-0.902-2.487,0L84.641,235.436L84.641,235.436z"/>
	<path fill="#D2D3D5" d="M89.862,237.349c2.131-1.531,2.732-1.367,3.416-0.902c0.574,0.383,1.367,0.902,4.127,0.027
		c1.339-0.41,3.498,0.519,4.699,1.011l0.329,0.218l0,0c-1.148-0.519-3.719-1.175-4.894-0.792c-2.979,0.902-3.854,0.328-4.51-0.082
		C92.485,236.475,91.747,235.982,89.862,237.349L89.862,237.349L89.862,237.349z"/>
	<path fill="#D2D3D5" d="M86.772,231.773c0.438-0.027,0.793-0.109,1.146,0c0.768,0.274,1.561,0.547,3.334-0.957
		c0.521-0.464,0.875-0.218,1.367,0.109c0.738,0.492,1.886,1.285,5.084-0.382c0.93-0.52,1.693-0.164,2.486,0.246
		c0.956,0.464,2.104,1.148,3.744,0.027l0,0c-1.832,1.257-2.869,0.875-3.938,0.355c-0.711-0.328-1.365-0.628-2.076-0.246
		c-3.443,1.804-4.729,0.93-5.549,0.383c-0.328-0.246-0.574-0.41-0.847-0.164c-1.968,1.694-2.87,1.367-3.771,1.066
		C87.456,232.102,87.127,231.773,86.772,231.773L86.772,231.773z"/>
	<ellipse fill="#FFCC00" cx="216.181" cy="531.858" rx="1.421" ry="1.53"/>
	<path fill="#AA8326" d="M217.192,546.589c0.055,1.83,12.299-0.629,6.939-9.129c-1.992-3.143-13.172-3.416-16.613-2.516
		c-2.378,0.654-11.396,8.719-0.028,8.719C211.535,543.666,217.056,543.201,217.192,546.589L217.192,546.589z"/>
	<path fill="#59BBAC" d="M214.705,544.349c3.252,2.76,0.409,2.842,7.078,0.93c1.913-0.52,6.367-9.047-5.521-9.047
		c-4.266,0-14.269-0.055-13.146,6.668C203.636,546.152,213.748,543.529,214.705,544.349L214.705,544.349z"/>
	<path fill="#FFCC00" d="M222.494,535.466c-8.854,0-2.842,0.684-7.079,3.391c-0.899,0.6-3.635,0.053-2.269-3.281
		c0.766-1.857-8.773,0.465-2.213-2.049c1.476-0.549,4.315,1.119,8.39,0.438C220.143,533.828,221.92,535.466,222.494,535.466
		L222.494,535.466z"/>
	<path fill="#EDEDEE" d="M211.371,538.253c0.245,1.967,5.574,1.805,6.258,0.439c0.191,0.164-2.238,2.104-3.936,2.131
		C211.098,540.876,211.371,538.253,211.371,538.253L211.371,538.253z"/>
	<path fill="#EDEDEE" d="M208.883,538.636c-0.981,1.969,3.689,2.158-0.137,1.939c-0.683-0.057-0.709-1.01,0.082-1.857
		L208.883,538.636L208.883,538.636z"/>
	<path fill="#EDEDEE" d="M220.143,532.103c0.602-6.477-0.221-1.855-1.447-4.727c-0.848-1.996,1.776-2.543,1.748-2.869
		c-0.054-4.018,4.045-3.854,3.688-0.629c-0.218,1.857,1.148-0.547,3.146,0.982c0.901,0.684,0.683,5.084-2.515,5.604
		c-3.444,0.574-0.956-0.793-4.267,1.529L220.143,532.103L220.143,532.103z"/>
	<path fill="#EDEDEE" d="M211.398,531.75c-0.983-1.912-1.065-0.52,0.219-2.133c0.683-0.846-0.765-0.545,0.027-1.693
		c0.711-1.039-0.819-0.711-0.931-1.063c-0.711-2.406-2.239-0.875-2.32-0.934c-0.305-0.244-1.941,0.141-0.411,1.832
		c0,0.027-1.913,1.887,0.271,2.078c0.056,0-0.49,0.711,0.546,1.502c1.148,0.93,0.273-1.422,2.299,0.383
		C211.153,531.777,211.371,531.722,211.398,531.75z"/>
	<ellipse fill="#FFCC00" cx="151.518" cy="419.286" rx="1.446" ry="1.558"/>
	<path fill="#AA8326" d="M150.506,434.482c-0.082,1.887-12.681-0.656-7.158-9.432c2.05-3.223,13.556-3.496,17.082-2.541
		c2.459,0.629,11.752,8.965,0.08,8.965C156.301,431.474,150.643,430.982,150.506,434.482L150.506,434.482z"/>
	<path fill="#59BBAC" d="M153.076,432.158c-3.363,2.871-0.438,2.951-7.325,0.984c-1.938-0.547-6.53-9.318,5.687-9.318
		c4.428,0,14.677-0.082,13.557,6.857C164.445,434.042,154.032,431.337,153.076,432.158z"/>
	<path fill="#FFCC00" d="M145.014,423.031c9.127,0,2.979,0.711,7.296,3.498c0.957,0.6,3.771,0.055,2.351-3.391
		c-0.765-1.912,9.021,0.492,2.241-2.104c-1.478-0.574-4.399,1.145-8.582,0.438C147.446,421.333,145.615,423.031,145.014,423.031
		L145.014,423.031z"/>
	<path fill="#EDEDEE" d="M156.464,425.925c-0.243,1.996-5.712,1.832-6.422,0.41c-0.19,0.164,2.323,2.189,4.072,2.215
		C156.765,428.578,156.464,425.873,156.464,425.925z"/>
	<path fill="#EDEDEE" d="M159.061,426.283c1.012,2.051-3.799,2.215,0.137,1.994c0.684-0.025,0.738-1.037-0.082-1.912
		L159.061,426.283L159.061,426.283z"/>
	<path fill="#EDEDEE" d="M158.105,419.888c0.628-6.643-0.247-1.914-1.53-4.865c-0.875-2.051,1.831-2.623,1.831-2.926
		c-0.028-4.152,4.181-3.963,3.771-0.654c-0.19,1.885,1.202-0.574,3.253,1.01c0.93,0.711,0.711,5.223-2.598,5.768
		c-3.553,0.574-0.982-0.846-4.346,1.561C158.459,419.804,158.105,419.888,158.105,419.888L158.105,419.888z"/>
	<path fill="#EDEDEE" d="M162.942,421.773c2.021-0.93,1.203,0.271,1.203-1.857c0-1.121,0.956,0.055,1.063-1.396
		c0.084-1.279,1.121-0.023,1.422-0.27c2.104-1.475,2.378,0.736,2.46,0.736c0.409,0,1.478,1.395-0.848,1.775
		c0,0,0.355,2.707-1.53,1.479c-0.025-0.027-0.055,0.875-1.394,0.875c-1.53,0,0.683-1.34-2.104-1.146
		C163.133,421.964,162.969,421.746,162.942,421.773L162.942,421.773z"/>
	<path fill="#AA4730" d="M189.862,653.585c-1.885,5.467,14.212,16.699,25.145,8.91c5.058-3.607,12.024-4.699,6.148-12.355
		c-3.936-5.057-14.785-13.42-21.426-6.939C196.558,646.291,191.174,649.759,189.862,653.585L189.862,653.585z"/>
	<path fill="#EDEDEE" d="M201.832,657.138c0.686-1.119-4.018-4.672,2.435-9.045c1.585-1.039,1.446-3.416-0.163-5.002
		c-1.148-1.146-4.021-1.395-3.146-2.787c1.914-3.008-6.914-10.795-7.813,0.271c0,0.271-7.899-1.064-6.669,7.627
		c0.982,6.752,6.888,2.787,13.992,8.225C200.684,656.593,201.832,657.138,201.832,657.138L201.832,657.138z"/>
	<path fill="#EDEDEE" d="M208.393,652.441c5.328-19.215,4.017-4.701,7.76-12.082c1.613-3.168-3.033-1.586,1.146-4.781
		c2.979-2.271-1.446-9.047-3.963-6.805c0.957-4.484-12.299-4.291-8.417,1.912c0.026,0-4.974,2.295-0.901,4.865
		c0.166,0.107-3.906,3.086,1.75,5.957c1.559,0.766,1.914-1.203,2.404,5.303C208.2,647.355,208.501,652.056,208.393,652.441z"/>
	<path fill="#EDEDEE" d="M209.785,658.56c10.604-6.449,4.264,0.629,9.978-1.748c4.291-1.805-0.384-2.295,4.099-2.486
		c4.563-0.219-0.219-4.1,1.996-6.479c3.115-3.334-3.662-2.787-3.938-3.58c-0.654-1.939-5.494-3.58-5.931,2.352
		c-0.027,0.162-4.755-2.707-3.554,3.416c0.957,4.891,2.65-1.283-2.705,7.16C209.047,658.289,209.02,658.56,209.785,658.56z"/>
	<g id="_794340288">
		<path fill="#90413A" d="M507.684,122.153c-2.105,9.347-5.002,14.648-9.293,13.474l1.395-8.855l-12.791-0.546l0.109,9.128
			c-4.264-0.191-5.656-3.198-7.078-10.986c0.355-6.04-2.896-7.762-9.402-5.439c-1.445-0.109-4.371-2.761-3.936-3.771
			c0.41-1.011,1.859-1.312,2.516-2.405c0.574-0.984,0.303-2.815,1.014-3.362c0.928-0.792,2.049-0.273,2.979-0.929
			c1.039-0.792,0.957-2.405,2.486-2.596c1.639-0.191,3.635,1.476,6.014,1.722c7.896-2.269,20.797-0.083,26.184,9.975
			c0.98,1.831,2.703,1.722,2.76,2.924C510.663,121.606,509.27,121.415,507.684,122.153L507.684,122.153z"/>
		<path fill="#4B4B4D" d="M472.594,111.139c2.377-0.41-0.984,3.854-0.711,0.191C471.884,111.139,472.292,111.166,472.594,111.139z"
			/>
	</g>
	<path fill="#73746C" d="M102.707,316.06c16.506-27.221,20.496-40.476,42.088-8.582C128.889,293.786,115.305,296.683,102.707,316.06
		z"/>
	<path fill="#FFCC00" d="M357.425,251.807c1.805,4.1,18.42-0.082,10.631-12.599c-4.371-7.051-21.781-1.148-10.77,12.436
		C357.343,251.697,357.425,251.807,357.425,251.807z"/>
	<path fill="#63372E" d="M364.2,265.69c3.691-4.018-12.322-1.667-4.727-0.027C360.458,265.881,363.6,266.346,364.2,265.69z"/>
	<path fill="#63372E" d="M351.302,265.417c-0.738-3.034,0.025-2.296-5.386-2.296C345.042,266.182,351.52,266.346,351.302,265.417z"
		/>
	<path fill="#63372E" d="M361.634,262.302c0.818-7.571-10.74-15.579-6.971-22.083c4.895-8.363-16.371-7.843-10.467,0.219
		c3.391,4.591-6.26,5.685,1.283,14.021c3.471,3.88-6.039,7.98,5.986,7.98C352.833,262.438,361.577,262.684,361.634,262.302
		L361.634,262.302z"/>
	<path fill="#D2D3D5" d="M350.344,248.363c1.531,0.465,3.115,0.93,3.826,1.804c0.766,0.983,0.572,2.187-1.424,3.771l0,0
		c-0.898,0.71-2.648,0.738-4.262,0.765c-1.203,0.027-2.516,0.137-2.625,0.273c-0.164-0.273-0.52-0.628-0.873-1.066
		c0.545-0.738,1.885-0.628,3.473-0.656c1.393-0.027,2.867-0.027,3.389-0.437l0,0c1.174-0.93,1.42-1.449,1.174-1.75
		c-0.408-0.52-1.775-0.929-3.088-1.312c-1.994-0.574-3.908-1.148-3.908-2.624C347.831,247.161,348.462,247.816,350.344,248.363z"/>
	<path fill="#FFCC00" d="M349.964,243.034c-10.357-6.586,5.686-12.517,0.465-0.956C350.208,242.597,350.098,243.088,349.964,243.034
		z"/>
	<path fill="#63372E" d="M362.206,241.312c-3.277-0.109-12.271,12.436-4.398,8.5C365.95,245.767,362.643,241.312,362.206,241.312z"
		/>
	<path fill="#D2D3D5" d="M354.444,248.746c-0.574-0.328-0.271,4.318,1.832,2.077C357.343,249.702,354.444,248.746,354.444,248.746z"
		/>
	<path fill="#5CA47A" d="M32.713,328.878v-7.544c-0.465,0.328-0.955,0.629-1.393,0.929c-0.547,0.355-3.444,1.996-3.608,2.133
		l-0.899-1.066c0.246-0.273,3.088-1.913,3.717-2.295c0.738-0.492,1.612-1.039,2.186-1.586v-4.346
		c-0.383,0.328-0.792,0.711-1.146,1.066c-0.685,0.602-2.842,2.269-3.228,2.65l-1.118-1.339c0.409-0.383,2.679-1.776,3.335-2.378
		c0.766-0.765,1.61-1.503,2.156-2.021v-6.287c-0.326,0.355-0.546,0.628-0.765,0.957c-0.546,0.792-1.175,1.667-3.417,3.197
		l-0.819-1.202c1.995-1.394,2.542-2.159,3.063-2.87c0.437-0.656,0.683-1.722,1.938-2.624v-0.082l0.083,0.027h0.026l0.027,0.027
		l0.9,0.382c1.775,0.766,2.979,2.515,4.102,4.127c0.41,0.601,0.818,1.202,1.229,1.694l-1.12,0.929c-0.49-0.546-0.9-1.148-1.34-1.776
		c-0.738-1.093-1.502-2.213-2.432-2.979v6.478c0.735,0.655,1.394,1.038,1.912,1.338c0.9,0.52,2.516,1.723,3.196,2.871l-0.601,1.064
		c-0.492-0.792-2.598-2.268-3.307-2.65c-0.355-0.219-0.768-0.438-1.203-0.738v4.045c1.585,0.246,2.705,1.831,3.498,2.925
		c0.271,0.355,2.813,2.597,2.896,2.651l-0.875,0.983c-0.271-0.191-2.896-2.323-3.226-2.761c-0.572-0.819-1.421-1.968-2.295-2.268
		v8.336h-1.476v0.003H32.713z"/>
	<path fill="#5CA47A" d="M504.542,199.305v-7.542c-0.438,0.355-0.93,0.655-1.365,0.956c-0.547,0.355-3.473,1.968-3.607,2.104
		l-0.93-1.039c0.271-0.273,3.115-1.913,3.717-2.323c0.738-0.465,1.613-1.039,2.188-1.585v-4.346
		c-0.355,0.354-0.768,0.711-1.148,1.066c-0.656,0.602-2.816,2.268-3.197,2.651l-1.146-1.312c0.41-0.382,2.678-1.776,3.334-2.405
		c0.793-0.738,1.611-1.475,2.16-1.995v-6.285c-0.303,0.328-0.521,0.601-0.738,0.929c-0.574,0.792-1.203,1.667-3.416,3.225
		l-0.848-1.23c2.021-1.366,2.566-2.159,3.061-2.842c0.465-0.656,0.684-1.722,1.941-2.624v-0.109l0.107,0.055l0.027-0.027
		l0.027,0.055l0.872,0.355c1.806,0.792,2.979,2.514,4.13,4.126c0.406,0.629,0.816,1.23,1.199,1.722l-1.12,0.929
		c-0.464-0.546-0.872-1.175-1.312-1.804c-0.738-1.066-1.504-2.213-2.461-2.951v6.477c0.766,0.656,1.395,1.012,1.941,1.313
		c0.898,0.519,2.514,1.721,3.195,2.896l-0.602,1.039c-0.49-0.792-2.596-2.241-3.309-2.624c-0.354-0.218-0.766-0.437-1.229-0.765
		v4.072c1.586,0.246,2.705,1.831,3.498,2.897c0.271,0.382,2.814,2.596,2.896,2.651l-0.875,1.011
		c-0.271-0.219-2.896-2.323-3.195-2.788c-0.574-0.792-1.422-1.94-2.324-2.268v8.335H504.542L504.542,199.305z"/>
	<path fill="#5CA47A" d="M322.03,103.295v-7.543c-0.465,0.328-0.955,0.656-1.393,0.957c-0.547,0.328-3.445,1.968-3.607,2.104
		l-0.9-1.066c0.271-0.274,3.088-1.886,3.717-2.296c0.736-0.465,1.609-1.039,2.186-1.585v-4.345c-0.354,0.355-0.791,0.71-1.146,1.065
		c-0.686,0.602-2.844,2.269-3.199,2.651l-1.146-1.312c0.409-0.383,2.679-1.804,3.334-2.405c0.767-0.738,1.61-1.503,2.157-1.995
		v-6.286c-0.328,0.301-0.547,0.601-0.734,0.929c-0.574,0.792-1.203,1.667-3.445,3.198l-0.818-1.203
		c1.994-1.394,2.541-2.159,3.063-2.842c0.438-0.656,0.684-1.722,1.938-2.624v-0.109l0.082,0.055l0.027-0.027l0.027,0.055l0.9,0.355
		c1.777,0.766,2.979,2.515,4.102,4.127c0.409,0.628,0.818,1.229,1.229,1.721l-1.121,0.929c-0.491-0.574-0.9-1.175-1.34-1.803
		c-0.738-1.093-1.502-2.214-2.432-2.979v6.505c0.736,0.656,1.393,1.011,1.912,1.312c0.9,0.52,2.543,1.722,3.197,2.87l-0.602,1.066
		c-0.492-0.793-2.598-2.241-3.307-2.651c-0.355-0.191-0.768-0.437-1.203-0.738v4.072c1.586,0.246,2.705,1.831,3.498,2.897
		c0.271,0.382,2.813,2.596,2.896,2.651l-0.875,1.011c-0.271-0.219-2.896-2.323-3.223-2.788c-0.574-0.793-1.422-1.94-2.297-2.269
		v8.336H322.03L322.03,103.295z"/>
	<path fill="#5CA47A" d="M128.944,194.906v-7.543c-0.465,0.328-0.93,0.628-1.367,0.929c-0.547,0.355-3.471,1.995-3.605,2.131
		l-0.932-1.065c0.246-0.273,3.115-1.886,3.717-2.323c0.738-0.437,1.613-1.039,2.188-1.585v-4.345
		c-0.383,0.354-0.766,0.738-1.176,1.093c-0.629,0.602-2.814,2.269-3.17,2.651l-1.148-1.313c0.41-0.409,2.65-1.803,3.335-2.432
		c0.792-0.711,1.612-1.476,2.159-1.968v-6.286c-0.301,0.3-0.521,0.601-0.738,0.901c-0.574,0.82-1.202,1.695-3.416,3.226l-0.848-1.23
		c2.021-1.367,2.568-2.132,3.033-2.815c0.49-0.683,0.711-1.749,1.969-2.624v-0.109l0.108,0.027h0.026v0.027l0.901,0.383
		c1.804,0.765,2.979,2.487,4.099,4.127c0.411,0.629,0.85,1.23,1.23,1.694l-1.148,0.957c-0.438-0.574-0.874-1.175-1.311-1.831
		c-0.711-1.066-1.504-2.214-2.435-2.952v6.505c0.767,0.628,1.366,0.983,1.94,1.313c0.899,0.519,2.485,1.694,3.197,2.87l-0.604,1.066
		c-0.492-0.82-2.623-2.241-3.334-2.651c-0.354-0.219-0.738-0.438-1.202-0.738v4.044c1.585,0.246,2.705,1.832,3.498,2.924
		c0.273,0.383,2.815,2.569,2.897,2.651l-0.875,0.983c-0.273-0.191-2.897-2.295-3.197-2.76c-0.602-0.82-1.422-1.968-2.323-2.269
		v8.336h-1.474v0.001H128.944z"/>
	<path fill="#5CA47A" d="M230.884,429.535v-7.543c-0.489,0.328-0.954,0.629-1.394,0.93c-0.547,0.355-3.471,1.994-3.607,2.131
		l-0.93-1.063c0.246-0.273,3.115-1.914,3.717-2.295c0.738-0.494,1.613-1.066,2.214-1.586v-4.348
		c-0.407,0.328-0.792,0.709-1.175,1.066c-0.653,0.6-2.842,2.268-3.195,2.623l-1.148-1.313c0.41-0.383,2.65-1.775,3.334-2.406
		c0.793-0.736,1.612-1.475,2.188-1.967v-6.313c-0.355,0.354-0.548,0.627-0.793,0.955c-0.548,0.793-1.177,1.666-3.417,3.199
		l-0.818-1.232c2.021-1.365,2.567-2.131,3.033-2.842c0.49-0.654,0.684-1.723,1.994-2.623v-0.082l0.082,0.023v-0.023l0.027,0.055
		l0.901,0.383c1.774,0.766,2.979,2.516,4.099,4.127c0.41,0.602,0.849,1.23,1.23,1.693l-1.148,0.93
		c-0.464-0.52-0.873-1.146-1.311-1.775c-0.738-1.094-1.504-2.215-2.435-2.98v6.506c0.737,0.627,1.366,1.014,1.94,1.314
		c0.899,0.52,2.486,1.723,3.17,2.869l-0.604,1.064c-0.465-0.795-2.596-2.27-3.307-2.648c-0.354-0.223-0.738-0.439-1.202-0.738v4.045
		c1.585,0.246,2.705,1.83,3.498,2.924c0.273,0.355,2.815,2.596,2.897,2.652l-0.875,0.979c-0.273-0.217-2.897-2.318-3.197-2.758
		c-0.602-0.82-1.422-1.971-2.323-2.27v8.338h-1.447V429.535z"/>
	<path fill="#5CA47A" d="M118.83,450.687v-7.541c-0.464,0.326-0.956,0.654-1.394,0.93c-0.521,0.354-3.443,1.994-3.58,2.131
		l-0.929-1.066c0.244-0.27,3.113-1.887,3.717-2.32c0.71-0.439,1.585-1.039,2.186-1.561v-4.373c-0.383,0.355-0.791,0.738-1.146,1.098
		c-0.686,0.602-2.846,2.268-3.229,2.648l-1.119-1.313c0.41-0.41,2.68-1.805,3.309-2.434c0.792-0.711,1.64-1.477,2.186-1.969v-6.285
		c-0.327,0.301-0.52,0.604-0.765,0.902c-0.546,0.818-1.148,1.693-3.416,3.223l-0.819-1.229c2.021-1.365,2.541-2.131,3.033-2.814
		c0.491-0.682,0.684-1.721,1.967-2.625v-0.107l0.082,0.027h0.028l0.024,0.027l0.902,0.383c1.776,0.764,2.979,2.484,4.102,4.125
		c0.408,0.631,0.818,1.23,1.229,1.695l-1.12,0.955c-0.492-0.572-0.902-1.174-1.34-1.83c-0.737-1.064-1.502-2.189-2.432-2.951v6.504
		c0.736,0.629,1.394,0.984,1.938,1.314c0.875,0.518,2.488,1.689,3.171,2.865l-0.601,1.066c-0.465-0.82-2.599-2.242-3.31-2.65
		c-0.354-0.189-0.736-0.438-1.2-0.734v4.043c1.586,0.248,2.73,1.832,3.498,2.926c0.271,0.381,2.813,2.568,2.896,2.65l-0.874,0.98
		c-0.274-0.188-2.871-2.295-3.227-2.76c-0.574-0.82-1.396-1.969-2.295-2.27v8.334h-1.476v0.004H118.83z"/>
	<path fill="#6CBCDF" d="M264.337,188.264c1.642-8.308-15.496-20.333-31.922-37.524c-21.126-22.11-43.209-48.593-39.271-68.052
		c-7.79,27.357,38.453,71.659,55.425,85.789c33.616,27.986-10.632,40.585,16.89,56.218c3.772,2.159-4.919,20.278,3.938,26.565
		c0.848,0.601,4.044-1.612,3.388-0.793c-6.449,7.815,0.793,22.41,12.764,26.646c1.805,0.654,12.816,9.292,14.76,11.451
		c-1.586,1.011-3.254,1.857-5.002,2.459c-33.425,11.232-8.855-5.193-21.592,27.331c0.41-1.859,10.934-0.191,13.117,1.613
		c29.025,23.857-28.886-4.674-1.229,46.516c6.121,11.26,37.771,9.865,37.223,5.41c-2.813-22.902-7.541-7.652-17.6-14.238
		c-23.832-15.66,33.23,2.352,34.244,2.023c46.379-13.748,9.43,34.543,10.086,35.008c28.857,20.854-2.98,14.541,0.219,22.604
		c0,7.27-7.789,6.75-9.266,11.424c-10.795,34.518-33.453,9.646-36.24,21.344c-10.084,42.525,58.051,43.291,41.297,56.273
		c-17.082,13.256-3.881,5.549-8.691,17.217c-8.418,20.389-23.039,30.092-43.975,14.76c-49.494-36.295-12.215,10.439-13.746,14.295
		c-6.531,16.451,19.131,32.223,19.459,32.223c30.063-0.9,18.529,31.482,18.42,31.619c-14.539,17.82,21.699,33.182-19.295,33.182
		c-0.055,0.105,0.93,21.373-12.189,28.395c-21.043,11.232-2.32,8.336-1.912,8.117c33.232-17.438,24.406-29.814,38.646-11.043
		c0.588,0.779-29.025,35.137-10.441,45.924c5.982,3.473,11.629,7.818,16.805,13.021c23.141,23.262-46.76,21.621-39.859,33.762
		c6.244,10.988-33.355,32.438-20.5,36c27.421,7.6,4.636,22.379-13,36c-9.055,6.994-22.297,20.055-20,23c23,29.5-2.319,17.568,1,32.5
		c2.008,9.031-26.787,37.838-6.5,35.5c54.111-6.236,203.418,7.869,318.783-161.5c90.049-132.203,164.82-504.861,146.883-608.5
		c-3-17.333-53.236,60.13-53.625,54c-0.602-9.52-10.33-15.553-10.541-15.498c-2.984,0.149,25.74-32.717-0.834-28.002
		c-10.334,1.833-15.57,30.465-19.299,31.517c-68.264,19.249-159.088,109.613-172.006,120.896
		c-22.027,19.24-45.504,71.276-55.754,35.748c-2.188-7.6-21.975-40.148-10.248-34.246c2.486,1.258,1.477,5.139,3.225,6.041
		c11.016,5.602,15.605,2.65,11.998-3.361c-0.246-0.41-3.799,0.082-4.045,0c-4.865-2.16-9.594-10.932-11.807-17.957
		c-8.801-27.576-22.301-30.446-27.934-37.634c-12.271-15.742-19.896-10.168-27.738-1.039c-2.24-3.061-8.393-6.041-10.223-7.379
		c-4.729-3.389-20.58,2.568-32.852-2.35c-7.16-11.396,12.873-13.338-3.689-14.568c-9.265-0.682,9.265-17.545-11.669-31.866
		C256.466,213.763,261.877,208.134,264.337,188.264L264.337,188.264z M305.167,284.657c-3.143-2.732-10.057-6.504-15.77-10.002
		c3.744-1.777,12.764,3.662,15.496,5.438c0.137,0.082,0.93,1.695,1.668,3.17C306.096,283.756,305.632,284.193,305.167,284.657z
		 M309.05,280.557c-0.273-1.147-0.383-2.213,0.271-2.021c0.439,0.137,0.875,0.246,1.23,0.328
		C310.059,279.438,309.567,280.01,309.05,280.557L309.05,280.557z M311.727,277.442c-1.094-1.038-2.762-2.514-4.51-4.346
		c-5.439-5.793-14.65-3.279-18.996-6.203c4.291,0.109,8.744-0.273,11.834-1.148c6.313-1.775,11.754,6.286,12.873,10.223
		C312.548,276.459,312.108,276.95,311.727,277.442z M285.872,272.467c-6.039-4.018-5.818-3.196-7.814-6.012
		c0.629,0.52,7.27,0.327,8.361,0.383l0,0c3.443,6.422,10.986-0.82,20.145,8.772c0.328,0.328,0.49,1.147,0.656,1.94
		c-1.23-0.164-3.803-0.465-8.256-3.062C293.579,271.348,290.491,272.385,285.872,272.467L285.872,272.467z"/>
	<path fill="#FEFEFE" d="M206.78,507.179c0.71-0.082,0.902,1.641-1.858,1.666c-0.301,0-1.229,0.111-1.175-0.326
		c0.219-0.084,1.502,0.109,2.188-0.084C207.518,507.97,206.67,507.507,206.78,507.179L206.78,507.179z M203.117,508.9
		c-0.41,0.221-1.121-0.271-1.34-0.602c-0.219-0.354-0.219-1.365,0.328-1.229c0.055,0.354-0.465,0.684,0.082,1.199
		C202.516,508.574,203.145,508.574,203.117,508.9z M206.889,505.65c-0.191-1.643,0.601-3.525,0.982-5.084
		c0.327-1.203,0-1.119,0.928-2.158c0.549-0.602,1.449,0.08,1.941,0.492c1.912,1.584-0.848,0.816,0.465,4.508
		c0.604,1.668-0.107,1.23-0.219,2.297c-0.055,0.684,0.765,1.256,0.738,2.268c-0.329-0.244-0.386-0.875-1.941-1.666
		C208.393,505.568,208.282,505.839,206.889,505.65L206.889,505.65z M206.123,511.47v-0.273c-0.055-0.41,1.23-0.354,1.914-0.711
		c2.787-1.641,0.874-4.018-1.064-4.182c3.389,2.051,0.49,3.719-2.16,3.826c-1.175,0.027-2.623-0.164-3.607-0.875
		c-1.529-1.121-0.52-1.912,0.109-2.787c-1.148,0.164-2.021,1.666-1.093,2.762c1.093,1.313,3.113,1.064,3.144,1.584
		c-0.52,0.547-3.033-0.738-3.553-1.447c-0.875-1.313-0.165-2.65,1.175-3.172c-0.547,0.057-1.366,0.494-1.776,0.82
		c-0.736,0.602-0.629,1.666-0.9,1.75c-0.738-0.383,0.52-2.021,1.064-2.377c1.095-0.686,2.049-0.438,3.063-0.711
		c0.301-0.711,3.006-6.777,3.881-6.041l0.082,0.055l-0.984,1.803l0.082,0.166l0.109-0.029c0.189-0.301,0.957-2.076,1.203-2.076
		c0.271,0.193-0.355,0.85-0.438,1.23v0.219l0.219-0.055c0.246-0.246,0.41-1.365,0.768-1.396c0.164,0.193-0.465,1.422-0.574,1.727
		c-0.766,1.992-0.93,2.76-1.121,4.918c-0.055,0.301,0.027,0.93-0.271,0.875c-0.355-0.383,0.52-4.455,0.818-5.109
		c-0.219-0.137,0,0.027-0.137-0.219l-0.273,0.188c-0.244,0.246-0.735,1.971-0.818,2.377c-0.109,0.439-0.22,0.875-0.301,1.314
		c-0.137,0.768-0.056,1.229-0.384,1.203c-0.354-0.572,0.956-4.102,0.983-4.508c-0.301-0.164-0.027-0.111-0.191-0.248l-1.886,4.701
		c-0.792-0.654,2.214-5.738,2.487-6.447c-0.738,0.627-2.104,3.496-2.459,4.479c-1.176,3.195-0.355,1.611-0.191,2.404
		c0.109,0.627,0.685,0.219,1.148,0.301c0.437,0.082-0.058,0.273,0.489,0.326c0.354,0.027,0.409-0.217,0.655-0.025
		c0.057,0.521-1.12,0.49-1.313-0.107c-0.327,0.246-1.064,0.301-1.229-0.107c-0.271-0.549,0-0.111-0.41-0.412
		c-0.301-0.246-0.082-0.436-0.189-0.627c-1.094,0.354-2.023,1.229-0.932,2.27c1.26,1.229,5.223,1.256,6.479,0.025
		c0.901-0.875-0.301-2.021-1.148-2.24c0.057,0.383,0.246,1.012-0.137,1.283c-0.189,0.164-0.957,0.41-1.039-0.107l0.85-0.191
		c0.025-0.082-0.109-3.473,0.189-4.51c0.109-0.465,0.984-3.498,1.313-3.527c0.272,0.33-1.448,4.785-1.147,6.369
		c0.874,0.109,1.503-0.328,3.361,0.793c0.52,0.301,2.433,1.941,1.477,2.488c-0.246-0.057-0.301-0.82-0.438-1.094
		c-0.492-0.85-2.188-1.723-2.897-1.805c0.983,0.766,2.214,1.176,1.585,2.951c-0.41,1.012-1.666,1.887-2.73,1.967
		c-0.191,0.057-0.521,0.057-0.629,0.191L206.123,511.47L206.123,511.47z"/>
	<path fill="#FEFEFE" d="M164.089,650.634c1.642-0.137,2.104,3.799-4.208,3.854c-0.684,0-2.786,0.193-2.624-0.791
		c0.438-0.164,3.392,0.273,4.922-0.164C165.838,652.494,163.87,651.345,164.089,650.634L164.089,650.634z M155.754,654.542
		c-0.9,0.547-2.485-0.572-3.007-1.338c-0.574-0.795-0.574-3.115,0.737-2.814c0.082,0.873-1.093,1.557,0.164,2.787
		C154.387,653.886,155.864,653.833,155.754,654.542L155.754,654.542z M162.614,660.449l0.027-0.658
		c-0.139-0.9,2.787-0.738,4.316-1.611c6.341-3.688,2.021-9.102-2.402-9.482c7.732,4.645,1.118,8.42-4.922,8.666
		c-2.703,0.105-5.958-0.357-8.197-1.996c-3.498-2.541-1.257-4.318,0.246-6.285c-2.651,0.301-4.646,3.744-2.517,6.258
		c2.517,2.951,7.106,2.434,7.161,3.58c-1.176,1.258-6.887-1.641-8.063-3.307c-1.995-2.951-0.438-5.984,2.623-7.16
		c-1.202,0.082-3.115,1.063-4.047,1.855c-1.667,1.365-1.393,3.771-2.021,3.965c-1.694-0.9,1.146-4.594,2.433-5.412
		c2.487-1.584,4.674-1.037,6.941-1.611c0.082-0.521,2.487-9.238,8.854-13.746l0.221,0.107l-2.27,4.127l0.163,0.354l0.301-0.082
		c0.409-0.652,2.104-4.729,2.681-4.701c0.653,0.439-0.82,1.912-0.932,2.734v0.521l0.465-0.109c0.548-0.547,0.983-3.115,1.805-3.172
		c0.354,0.465-1.093,3.227-1.365,3.938c-1.777,4.535-2.133,6.313-2.57,11.232c-0.081,0.656,0.082,2.104-0.601,1.938
		c-0.792-0.875,1.146-10.141,1.913-11.613c-0.521-0.303-0.057,0.023-0.355-0.521l-0.629,0.492c-0.546,0.521-1.64,4.428-1.885,5.355
		c-0.246,1.012-0.465,1.996-0.629,3.033c-0.328,1.695-0.164,2.762-0.902,2.68c-0.792-1.285,2.132-9.293,2.242-10.223
		c-0.711-0.383-0.028-0.271-0.438-0.602l-4.318,10.713c-1.777-1.447,5.083-13.035,5.657-14.676
		c-1.667,1.447-4.783,7.979-5.604,10.223c-2.679,7.27-0.766,3.662-0.41,5.492c0.273,1.395,1.53,0.438,2.623,0.656
		c0.957,0.189-0.164,0.57,1.096,0.736c0.818,0.08,0.982-0.467,1.503-0.025c0.137,1.145-2.542,1.121-2.952-0.246
		c-0.767,0.52-2.434,0.656-2.869-0.273c-0.604-1.285,0.055-0.246-0.874-0.957c-0.685-0.518-0.219-0.955-0.466-1.393
		c-2.516,0.791-4.563,2.787-2.076,5.164c1.694,1.668,5.057,2.078,7.324,2.104c2.214,0.027,5.738-0.41,7.434-2.021
		c2.05-1.994-0.655-4.699-2.648-5.139c0.082,0.875,0.572,2.352-0.273,2.953c-0.492,0.354-2.241,0.875-2.404-0.33l1.939-0.381
		c0.082-0.164-0.246-7.871,0.383-10.25c0.328-1.121,2.295-7.979,3.006-8.063c0.656,0.738-3.279,10.879-2.596,14.482
		c1.994,0.275,3.471-0.734,7.68,1.832c1.148,0.711,5.492,4.453,3.391,5.688c-0.574-0.137-0.713-1.859-1.065-2.518
		c-1.066-1.91-4.946-3.879-6.532-4.127c2.188,1.832,5.028,2.682,3.525,6.727c-0.875,2.377-3.689,4.291-6.204,4.537
		c-0.409,0.08-1.093,0.107-1.421,0.408L162.614,660.449L162.614,660.449z"/>
	<path fill="#00AFEF" d="M118.421,243.198c-1.038-0.109-1.339,2.405,2.681,2.432c0.438,0,1.773,0.137,1.666-0.492
		c-0.272-0.109-2.158,0.164-3.145-0.109C117.328,244.373,118.585,243.662,118.421,243.198L118.421,243.198z M123.723,245.685
		c0.572,0.328,1.586-0.383,1.913-0.875c0.354-0.492,0.382-1.968-0.466-1.776c-0.055,0.547,0.685,0.984-0.108,1.776
		C124.598,245.248,123.668,245.22,123.723,245.685z M119.35,249.429v-0.41c0.082-0.574-1.776-0.492-2.762-1.066
		c-4.045-2.323-1.283-5.767,1.56-6.012c-4.946,2.952-0.737,5.384,3.116,5.521c1.691,0.054,3.798-0.219,5.189-1.257
		c2.241-1.613,0.793-2.761-0.137-4.018c1.668,0.191,2.952,2.405,1.613,3.99c-1.642,1.886-4.537,1.531-4.564,2.295
		c0.711,0.793,4.373-1.066,5.111-2.132c1.284-1.858,0.271-3.798-1.668-4.537c0.766,0.028,1.996,0.683,2.597,1.175
		c1.065,0.875,0.901,2.405,1.257,2.515c1.094-0.574-0.711-2.924-1.53-3.444c-1.585-1.011-2.948-0.656-4.427-1.011l-3.007-6.478
		c-0.273-0.683-1.722-3.061-2.623-2.268l-0.137,0.055l1.448,2.624l-0.109,0.219l-0.191-0.028c-0.271-0.41-1.34-3.034-1.693-2.979
		c-0.438,0.273,0.52,1.175,0.602,1.722l-0.027,0.328l-0.301-0.082c-0.354-0.355-0.627-1.968-1.119-2.023
		c-0.219,0.301,0.685,2.077,0.848,2.515c1.146,2.897,1.365,4.017,1.668,7.133c0.025,0.438-0.082,1.367,0.354,1.257
		c0.521-0.547-0.736-6.45-1.203-7.407c0.328-0.191,0.027,0.028,0.221-0.3l0.383,0.3c0.354,0.328,1.064,2.788,1.203,3.417
		c0.188,0.628,0.301,1.257,0.438,1.913c0.19,1.093,0.082,1.749,0.546,1.694c0.521-0.792-1.339-5.903-1.421-6.504
		c0.438-0.246,0.027-0.164,0.273-0.382l2.73,6.833c1.148-0.93-3.225-8.281-3.58-9.347c1.066,0.929,3.033,5.083,3.555,6.505
		c1.722,4.619,0.49,2.35,0.271,3.471c-0.189,0.929-0.982,0.3-1.668,0.437c-0.601,0.137,0.082,0.383-0.709,0.465
		c-0.52,0.082-0.602-0.273-0.957,0c-0.082,0.738,1.642,0.71,1.913-0.164c0.464,0.328,1.503,0.41,1.804-0.191
		c0.385-0.792-0.025-0.109,0.574-0.601c0.409-0.301,0.109-0.601,0.272-0.875c1.586,0.493,2.896,1.777,1.339,3.308
		c-1.092,1.039-3.227,1.312-4.673,1.312c-1.421,0.027-3.662-0.273-4.729-1.285c-1.313-1.257,0.438-2.979,1.666-3.279
		c-0.024,0.574-0.354,1.503,0.192,1.886c0.3,0.219,1.421,0.574,1.53-0.191l-1.23-0.247c-0.055-0.137,0.138-5.029-0.246-6.532
		c-0.188-0.711-1.476-5.056-1.912-5.138c-0.438,0.492,2.077,6.942,1.666,9.238c-1.283,0.191-2.213-0.492-4.892,1.175
		c-0.737,0.437-3.526,2.815-2.188,3.58c0.384-0.082,0.466-1.175,0.686-1.558c0.711-1.23,3.143-2.487,4.182-2.651
		c-1.395,1.148-3.225,1.695-2.268,4.291c0.546,1.503,2.377,2.733,3.962,2.87c0.245,0.055,0.683,0.055,0.899,0.273L119.35,249.429
		L119.35,249.429z"/>
	<path fill="#EDEDEE" d="M423.397,456.564l-0.053,21.264l-14.158-1.449c-0.355-4.043-0.246-6.941,0.82-10.713
		c1.912-6.561,6.805-16.016,13.309-18.857L423.397,456.564z M439.577,481.132c0.521,7.381-1.666,4.291-6.75,5.385
		c-6.121,1.313-5.385-1.748-11.123-0.574c-6.064,1.258-3.881,1.367-10.25-0.408c-3.521-0.984-4.727-3.938-5.354-8.281
		L439.577,481.132L439.577,481.132z M437.421,479.685l-12.602-1.641l-0.164-19.295c1.561,1.857,1.75,2.625,3.443,4.619
		c1.531,1.773,2.404,2.924,4.045,4.592C434.987,470.884,436.981,474.875,437.421,479.685L437.421,479.685z"/>
	<path id="way1" display="none" fill="none" stroke="#D2D3D5" stroke-width="5" stroke-dasharray="107.52,161.28" d="
		M451.55,222.974c5.355,3.225-1.912,35.229,17.793,45.04c2.484,1.229,12.051,9.265,12.299,9.374 M158.951,564.328
		c1.804,24.541,36.158,3.088,66.057,35.01c17.521,18.666,32.936,50.533,9.513,69.527 M177.454,519.998
		c4.864,5.629,17.71,6.969,24.542,6.395 M246.326,253.829c-15.934,13.556,11.697,9.21-23.832,34.217
		c-7.188,5.083-0.711,11.834-15.277,26.482c-4.291,4.318,7.625,8.691-5.191,20.033c-0.711,0.629-8.938,11.889-8.8,13.393
		c-0.521,0.683-3.28,26.428-16.836,37.195c-2.323,1.831-9.759,20.688-9.759,23.313c9.648,12.189,7.078,16.262,6.479,34.463
		c0,0.109,22.22,10.906,25.636,19.27c2.979,7.324,3.39,21.59-13.72,32.521c-36.352,23.232,21.81,8.746-7.57,25.279
		c-6.341,3.553-12.765,36.541-20.278,46.488c-1.748,2.322-3.607,5.604-5.492,2.516c-70.486-115.906-128.81,54.031-62.726,32.797
		 M308.94,222.755c3.443-3.307-14.104-11.889-9.074-16.507c2.732-2.542,2.076-1.449,4.646-3.334
		c0-6.504-18.449-29.188,13.229-30.391c2.598-0.109,43.398-17.136,48.895-21.973c22.93-20.088,23.229,10.413,51.488-17.71
		 M298.991,208.543c-10.494-7.461-4.756-18.448-39.191-25.444c-16.836-3.417-29.241-54.469-85.979-53.567
		c-34.929,0.547-11.452,21.399-57.913,25.089c-34.107,2.706-76.004,32.413-41.623,83.302 M340.698,253.228
		c-12.299,1.093-23.477-8.854-24.896-20.552c-0.246-1.859-6.832-9.757-6.859-9.921c-7.844,3.416-37.088,17.901-39.604,26.1
		c-3.498,1.339-22.247,4.373-23.012,4.974 M365.731,257.956c8.281,1.995,12.764,8.609,15.059,16.617
		c1.695,5.849,32.168-0.41,35.939-2.296c13.584-6.859,2.951-7.516,1.777-23.668c-0.438-5.985-11.043-12.298,1.311-14.813
		c2.434-0.492,29.572-9.539,31.73-10.823c-0.492-4.155-16.426-10.577-15.688-24.98c0.848-16.726,26.346-37.388,19.814-48.511"/>
	<path fill="#73746C" d="M117.984,199.442c-19.733-27.603-20.716-25.39-31.294,1.613
		C95.737,187.827,106.013,186.515,117.984,199.442z"/>
	<g id="_794338976">
		<path fill="#84716B" d="M44.848,546.701c-0.082,0.381-0.409,0.709-0.246,1.064c0.301,0.109,6.205,0.137,6.725,0.025l0.026-1.146
			c0.082-0.383-0.026-0.244,0.189-0.355c-0.026-1.559,1.585-4.373,3.58-3.553c2.46,1.012,1.886,3.553,2.353,5.221h7.297
			c0.766-2.541-2.27-5.139-3.473-7.08c-0.766-1.309-0.982-2.541-1.641-3.797c-1.063-2.16-3.143,0.217-3.471,0.191
			c-0.521-0.549-1.257-5.057-3.771-3.855c-2.05,1.066-2.269,5.139-2.649,5.467c-1.56,0.328-2.542-1.34-3.416,2.623
			C45.832,543.857,45.559,544.541,44.848,546.701L44.848,546.701z"/>
		<path fill="#84716B" d="M44.848,546.701c-0.328,0.137-0.573,0.955-0.303,1.201c0.247,0.137,6.368,0.164,6.942,0.055l0.055-1.668
			c-0.218,0.111-0.107-0.025-0.189,0.355l-0.026,1.146c-0.52,0.111-6.424,0.084-6.725-0.025
			C44.439,547.41,44.766,547.082,44.848,546.701z"/>
	</g>
	<path fill="#EDEDEE" d="M109.292,522.046l-2.296,16.727l-7.516-12.764c-6.34,1.504-11.041,0.955-7.87-9.293
		c-11.479-7.078-3.362-21.453,7.762-16.125c1.858-17.107,18.364-13.582,15.577,4.512
		C120.58,509.367,120.771,521.417,109.292,522.046L109.292,522.046z"/>
	<path id="Ocean" fill="#91D8F7" d="M490.356,321.225c-9.373,7.134-10.932-2.269-21.809-0.628c-3.607,0.547-4.4,1.557-6.996,2.705
		c0.818-4.564,7.568-4.619,10.166-7.406c1.832-2.022,0.684-4.892-0.686-6.177c-2.648-2.405-4.346-1.066-6.395,0.328
		c0.766-7.816,10.303-7.844,13.555-0.984c1.996,4.209,2.271,8.882,7.438,10.714c0.791,0.301,1.557,0.438,2.432,0.602
		C489.048,320.542,489.675,320.57,490.356,321.225L490.356,321.225z M476.692,304.8c-0.82-0.765-1.723-2.323-3.389-2.104
		c-2.133,0.301-1.148,1.339-3.117,0.492c-1.146-0.492-1.393-0.902-1.119-2.269C469.887,297.065,476.528,298.569,476.692,304.8z
		 M482.132,316.498c-0.604-1.586-1.584-3.525-0.791-5.712c1.912-5.521,9.209-0.055,3.58,1.613c-1.039,0.328-1.561,0.137-2.023,1.257
		C482.704,314.529,482.594,315.787,482.132,316.498L482.132,316.498z M464.885,316.498c-4.783,2.076-5.576-6.478-1.014-8.473
		c-1.611,6.641,3.09,4.373,2.078,7.297C465.733,315.978,465.54,316.197,464.885,316.498L464.885,316.498z"/>
	<g id="_794309824">
		<path fill="#BDBFC1" d="M393.362,336.94c5.357,1.886,3.854,4.756-9.156,1.53c-2.623-0.655-7.926,1.23-11.561,1.23
			c-0.355,0-12.299,0.465-9.51-1.914c0.465-0.382,8.555-1.557,4.07-2.021c-0.736-0.082-9.84-0.875-1.258-1.804
			c3.637-0.384,1.34-3.308-1.42-4.072c-2.133-0.602-2.871-2.323-1.121-3.499c1.967-1.312,2.213-4.728,7.652,0.793
			c6.367,6.478,9.072,0.027,14.32,7.051c0.793,1.066,13.992,0.055,10.494,1.996C395.413,336.476,392.678,336.721,393.362,336.94
			L393.362,336.94z"/>
		<path fill="#848688" d="M366.223,326.308c-0.355,0-0.686,0.246-0.686,0.52s0.328,0.52,0.686,0.52c0.383,0,0.711-0.246,0.711-0.52
			S366.606,326.308,366.223,326.308z"/>
	</g>
	<g id="_794341056">
		<path fill="#C7757F" d="M412.903,512.972c7.898-5.438,14.539-4.975,20.115,0.492c0.957,0.875,0.766,0.656-0.137,1.641l-0.85,0.93
			l0.711,0.957c0.711,1.012,0.984,0.848,0.027,1.529c-6.123,4.428-12.955,3.443-20.115-0.438l-5.631,3.471
			c3.281-4.863,2.762-8.635,0.574-11.943L412.903,512.972z"/>
		<path fill="#B6D2DE" d="M436.243,509.009l5.521,5.029v0.027c0.793,0.816,0.848,1.938,0.465,2.867
			c-0.137,0.385-0.383,0.738-0.629,1.039c-0.273,0.303-0.604,0.574-0.93,0.738c-0.738,0.355-1.611,0.355-2.352-0.248v-0.025
			l-3.688-3.195l4.07,1.037l-0.438,0.631l0.793,0.682l0,0c0.354,0.273,0.764,0.273,1.119,0.109c0.189-0.109,0.41-0.273,0.574-0.463
			c0.189-0.193,0.326-0.439,0.438-0.711c0.219-0.574,0.219-1.23-0.219-1.695l-5.492-5.027L436.243,509.009L436.243,509.009z
			 M434.413,505.513c0.684,0,1.313,0.301,1.775,0.766c0.465,0.465,0.766,1.092,0.766,1.775c0,0.711-0.301,1.365-0.766,1.83l0,0
			c-0.465,0.438-1.094,0.738-1.775,0.738c-0.711,0-1.34-0.301-1.805-0.738h-0.027l0,0c-0.438-0.465-0.711-1.119-0.711-1.83
			c0-0.684,0.273-1.313,0.711-1.775l0,0C433.073,505.814,433.702,505.513,434.413,505.513z M435.395,507.07
			c-0.271-0.246-0.627-0.41-0.982-0.41c-0.408,0-0.766,0.164-1.012,0.41l0,0c-0.246,0.273-0.41,0.629-0.41,0.984
			c0,0.41,0.164,0.766,0.41,1.012l0,0c0.246,0.271,0.604,0.408,1.012,0.408c0.355,0,0.711-0.137,0.982-0.408l0,0
			c0.246-0.246,0.41-0.602,0.41-1.012C435.805,507.699,435.641,507.343,435.395,507.07z"/>
		<path fill="#FEFEFE" d="M427.089,513c0.602,0,1.119,0.492,1.119,1.096s-0.52,1.119-1.119,1.119c-0.601,0-1.094-0.52-1.094-1.119
			C425.995,513.492,426.487,513,427.089,513z"/>
	</g>
	<g id="_794310688">
		<polygon fill="#C86254" points="347.885,315.732 306.673,315.677 312.385,320.187 342.063,320.269 		"/>
		<g>
			<path fill="#A62720" d="M318.915,314.638l4.154,0.137l0.438-3.99c1.121,1.449,2.268,2.269,3.498,2.433l1.094-1.34
				c-2.406-1.011-2.898-4.482-4.783-6.04C320.528,303.542,319.161,311.086,318.915,314.638L318.915,314.638z"/>
			<ellipse fill="#FFCC00" cx="324.026" cy="302.504" rx="2.27" ry="2.132"/>
			<path fill="#394380" d="M334.468,302.313c-1.941,2.022-2.896,3.99-2.814,5.876l-11.396,13.665
				c-2.105,0.137-3.662,1.749-5.111,3.744l2.979,2.788c1.94-2.022,2.897-3.99,2.843-5.85l11.371-13.665
				c2.104-0.164,3.661-1.749,5.107-3.744L334.468,302.313z"/>
			<ellipse fill="#FFCC00" cx="328.29" cy="313.081" rx="0.736" ry="0.656"/>
			<path fill="#A62720" d="M326.485,302.067l-4.127-1.312c1.832-1.066,3.854-1.202,4.1,0.875l1.588,0.464l-0.139,0.41
				L326.485,302.067L326.485,302.067z"/>
		</g>
	</g>
</g>
<g id="trail-path" display="none">
	<path display="inline" fill="none" stroke="#000000" stroke-width="2" stroke-miterlimit="10" d="M354.188,271.009
		c-14.777-5.094-25.938-12.378-35.938-34.566c-1.688-3.739-2.912-10.798-6.672-12.98c-5.412-3.147-11.477,1.583-16.832,4
		c-6.061,2.734-18.063,11.26-23.258,15.766c-4.325,3.752-3.564,7.135-8.372,10.24c-10.451,6.753-25.332-1.926-23.166,9.574
		c3,26.167-9.803,12.402-20.012,27.617c-4.432,6.604-7.021,15.026-13.354,24.69c-5.426,8.278,2.154,5.844,1.334,10.959
		c-1.381,8.615-26.75,27.07-30.842,34.298c-8.555,15.114-8.561,17.661-10.332,30.462c-2.416,17.456-5.104,9.604-0.844,28.819
		c1.164,5.25,6.903,21.045,12.715,30.736c5.5,7.832,17.225,7.441,20.092,16.666c2.767,7.494,1.537,17-5.417,20.561
		c-18.009,7.939,0,0-26.977,12.443c-9.918,3.396,21.984,12.26,23.392,18.66c2.289,10.422-25.645,41.189-16.899,42.809
		c64.145,11.865,120.478,103.398,54.93,105.498"/>
</g>
<g id="camera-path" display="none">
	<path display="inline" fill="none" stroke="#3FFF00" stroke-miterlimit="10" d="M227.738,667.261
		c58.548-66.967-59.889-102.605-61.113-136.934c-0.507-14.23,12.854-36.135,21.661-55.035c5.648-12.119,2.055-20.297-3.371-30.666
		c-7.547-14.424-14.406-30.852-17.026-47.564c-3.163-20.152,0.07-44.738,4.749-63.963c6.281-25.832,23.008-46.653,39.342-67.305
		c15.108-19.106,32.261-32.798,54.777-41.993c11.069-4.52,19.35-6.821,31.647-6.183c9.545,0.496,17.561,1.994,24.184,9.297
		c12.701,14.006,21.541,31.304,34.699,44.719"/>
</g>
<g id="points" display="none">
	<circle id="v.Mutnovsky" display="inline" fill="#405B54" cx="228.891" cy="667.261" r="6.447"/>
	<circle id="start" display="inline" fill="#405B54" cx="354.187" cy="271.217" r="4.001"/>
</g>
<text transform="matrix(1 0 0 1 376.5828 243.064)" fill="#C6C6C6" font-family="'Arial'" font-size="8.7955">Petropavlovsk</text>
<text transform="matrix(1 0 0 1 376.5828 253.6177)" fill="#C6C6C6" font-family="'Arial'" font-size="8.7955">Kamchatsky</text>
</svg>
