<?xml version="1.0" encoding="UTF-8"?>
<!DOCTYPE svg PUBLIC "-//W3C//DTD SVG 1.1//EN" "http://www.w3.org/Graphics/SVG/1.1/DTD/svg11.dtd">
<!-- Creator: CorelDRAW X7 -->
<svg xmlns="http://www.w3.org/2000/svg" xml:space="preserve" width="1999px" height="1417px" version="1.1" style="shape-rendering:geometricPrecision; text-rendering:geometricPrecision; image-rendering:optimizeQuality; fill-rule:evenodd; clip-rule:evenodd"
viewBox="0 0 191719 135883"
 xmlns:xlink="http://www.w3.org/1999/xlink">
 <defs>
  <style type="text/css">
   <![CDATA[
    .str4 {stroke:#434242;stroke-width:158.389}
    .str3 {stroke:#B7CBD8;stroke-width:158.389}
    .str1 {stroke:whitesmoke;stroke-width:158.389}
    .str2 {stroke:#FDFDFD;stroke-width:158.389}
    .str0 {stroke:#434242;stroke-width:24.1386}
    .str6 {stroke:#96A7B1;stroke-width:24.1386}
    .str5 {stroke:#434242;stroke-width:158.389;stroke-linecap:round}
    .str8 {stroke:#FEFEFE;stroke-width:79.1947;stroke-dasharray:395.973728 237.584237}
    .str7 {stroke:#FEFEFE;stroke-width:79.1947;stroke-dasharray:395.973728 395.973728}
    .str9 {stroke:whitesmoke;stroke-width:79.1947;stroke-dasharray:395.973728 395.973728}
    .fil0 {fill:none}
    .fil3 {fill:none}
    .fil2 {fill:#EBECEC}
    .fil1 {fill:#434242}
    .fil4 {fill:#96A7B1}
   ]]>
  </style>
 </defs>
 <g id="Слой_x0020_1">
  <metadata id="CorelCorpID_0Corel-Layer"/>
  <rect class="fil0" width="191719" height="135883"/>
  <polygon class="fil1 str0" points="132873,113727 134891,111880 136909,113727 138926,111880 140944,113727 142961,111880 144979,113727 146996,111880 149014,113727 151032,111880 153049,113727 155067,111880 157084,113727 159102,111880 161119,113727 163137,111880 165154,113727 165154,27299 132873,27299 "/>
  <path class="fil2" d="M146866 41908c1315,177 2665,182 4053,0l0 602c0,86 -66,149 -147,156 -1306,117 -2557,112 -3759,0 -81,-7 -147,-70 -147,-156 0,-201 0,-401 0,-602z"/>
  <path class="fil0 str1" d="M147130 42671l0 1416c0,239 26,187 -138,359 -212,225 -425,449 -637,674 -873,921 -742,671 -919,1923 -688,4864 -1785,9158 -1830,13739 -3,310 -96,2089 152,2239 691,419 699,847 -23,1285 -227,138 -173,827 -173,1112 0,4925 0,9850 0,14774 -283,558 -276,488 -276,1112 88,2259 385,8396 3633,4366 1361,2387 2667,2548 3980,0 3276,4032 3844,-2206 3846,-4264 0,-793 63,-498 -278,-1214 0,-4924 3,-9849 6,-14774 0,-359 70,-955 -208,-1134 -669,-427 -663,-819 -129,-1182 419,-286 273,-1748 261,-2320 -91,-4448 -1288,-9043 -2034,-13763 -199,-1264 -90,-1009 -975,-1944l-586 -619c-174,-183 -147,-127 -147,-380l0 -1405c-1189,108 -2364,107 -3525,0z"/>
  <path class="fil2 str2" d="M145564 46708c-92,-33 -110,210 -128,335 -688,4864 -1785,9158 -1830,13739 -3,310 -96,2089 152,2239 691,419 699,847 -23,1285 -227,138 -173,827 -173,1112 0,4925 0,9850 0,14774 -283,558 -276,488 -276,1112 88,2259 385,8396 3633,4366 1361,2387 2667,2548 3980,0 3276,4032 3844,-2206 3846,-4264 0,-793 63,-498 -278,-1214 0,-4924 3,-9849 6,-14774 0,-359 70,-955 -208,-1134 -669,-427 -663,-819 -129,-1182 419,-286 273,-1748 261,-2320 -91,-4448 -1288,-9043 -2034,-13763 -18,-115 -32,-287 -118,-323 -1085,-457 -2187,-424 -3302,6 -746,288 -1565,674 -3379,6z"/>
  <line class="fil0 str3" x1="150359" y1="47831" x2="151105" y2= "58486" />
  <path class="fil0 str3" d="M144521 80451c1520,371 3097,577 4745,581"/>
  <path class="fil2 str4" d="M146859 39780c1356,-153 2711,-153 4067,0 80,9 147,66 147,147l0 1886c0,81 -67,138 -147,147 -1282,148 -2632,158 -4067,0 -80,-9 -147,-66 -147,-147l0 -1886c0,-81 67,-138 147,-147z"/>
  <g id="_486579416">
   <line class="fil3 str5" x1="147057" y1="40064" x2="147057" y2= "40330" />
   <line class="fil3 str5" x1="147424" y1="40036" x2="147424" y2= "40464" />
   <line class="fil3 str5" x1="147791" y1="40013" x2="147791" y2= "40597" />
   <line class="fil3 str5" x1="148525" y1="39989" x2="148525" y2= "40864" />
   <line class="fil3 str5" x1="148158" y1="39998" x2="148158" y2= "40744" />
   <line class="fil3 str5" x1="148892" y1="39986" x2="148893" y2= "40997" />
   <line class="fil3 str5" x1="149260" y1="39989" x2="149260" y2= "41131" />
   <line class="fil3 str5" x1="149627" y1="39998" x2="149627" y2= "41277" />
   <line class="fil3 str5" x1="149994" y1="40014" x2="149994" y2= "41397" />
   <line class="fil3 str5" x1="150728" y1="40064" x2="150728" y2= "41664" />
   <line class="fil3 str5" x1="150361" y1="40036" x2="150361" y2= "41531" />
  </g>
  <line class="fil0 str4" x1="150359" y1="47836" x2="151105" y2= "58492" />
  <path class="fil0 str4" d="M144750 63802c1326,203 2737,323 4264,327"/>
  <path class="fil0 str4" d="M144521 80457c1520,370 3097,577 4745,581"/>
  <polygon class="fil4 str6" points="129645,22727 168383,22727 168383,23800 129645,23800 "/>
  <path class="fil4 str6" d="M129645 22010c692,0 1253,561 1253,1253 0,692 -561,1253 -1253,1253 -692,0 -1253,-561 -1253,-1253 0,-692 561,-1253 1253,-1253z"/>
  <path class="fil4 str6" d="M168383 22010c692,0 1253,561 1253,1253 0,692 -561,1253 -1253,1253 -692,0 -1253,-561 -1253,-1253 0,-692 561,-1253 1253,-1253z"/>
  <polygon class="fil1 str0" points="132873,22083 165154,22083 165154,27299 132873,27299 "/>
  <line class="fil0 str7" x1="132873" y1="27299" x2="165154" y2= "27299" />
  <line class="fil0 str7" x1="133276" y1="27299" x2="133276" y2= "112948" />
  <line class="fil0 str7" x1="164751" y1="27299" x2="164751" y2= "112948" />
  <g id="_486577568">
   <polyline class="fil0 str8" points="133276,112948 134891,111477 136909,113324 138926,111477 "/>
   <polyline class="fil0 str8" points="138926,111477 140944,113324 142961,111477 144979,113324 146996,111477 "/>
   <polyline class="fil0 str8" points="146996,111477 149014,113324 151032,111477 153049,113324 155067,111477 "/>
   <polyline class="fil0 str8" points="155067,111477 157084,113324 159102,111477 161119,113324 163137,111477 "/>
   <line class="fil0 str8" x1="163137" y1="111477" x2="164751" y2= "112948" />
  </g>
  <path class="fil1" d="M149508 69367l57 -34c27,46 38,91 33,135 -5,44 -25,83 -60,119 -37,36 -74,59 -112,67 -38,8 -77,3 -117,-13 -40,-16 -76,-41 -109,-73 -35,-35 -59,-73 -72,-113 -13,-39 -13,-79 -2,-117 11,-39 32,-73 61,-103 34,-34 72,-54 112,-59 40,-6 81,2 121,24l-33 55c-33,-17 -62,-24 -89,-20 -26,4 -50,17 -73,39 -26,26 -41,54 -46,84 -5,30 -1,59 13,88 14,28 32,53 55,75 28,29 58,50 88,63 30,14 59,17 87,10 28,-8 53,-21 74,-42 25,-25 39,-54 41,-85 3,-32 -6,-66 -29,-100zm-117 -324l45 -45 144 145 81 -81c53,-53 98,-78 134,-75 37,3 67,17 92,42 26,26 40,58 42,96 2,37 -21,80 -70,129l-129 129 -339 -340zm346 256l82 -81c28,-29 44,-54 47,-76 3,-22 -6,-44 -27,-65 -14,-14 -30,-22 -47,-24 -17,-2 -33,2 -48,12 -15,9 -36,28 -65,57l-60 60 118 117zm-50 -552l45 -45 340 339 -46 45 -339 -339zm461 218l-340 -339 128 -128c23,-23 41,-39 55,-49 20,-14 39,-22 58,-26 19,-3 39,-1 60,6 21,7 40,19 56,36 29,28 44,62 46,100 2,39 -22,82 -70,130l-87 87 139 138 -45 45zm-134 -223l88 -88c29,-29 44,-55 46,-78 1,-23 -8,-44 -28,-64 -14,-14 -30,-22 -47,-25 -17,-3 -33,0 -48,8 -10,6 -25,19 -45,39l-87 87 121 121zm260 -234c-56,-56 -85,-115 -86,-177 -2,-63 21,-117 69,-165 31,-32 67,-52 107,-63 40,-10 80,-8 120,5 40,14 77,38 111,71 35,35 58,73 72,114 13,41 14,81 2,120 -11,40 -32,74 -61,104 -32,32 -69,52 -109,62 -41,10 -81,8 -121,-6 -39,-13 -74,-35 -104,-65zm48 -46c40,41 84,62 129,64 45,2 85,-14 118,-47 34,-34 50,-74 48,-119 -2,-46 -25,-91 -68,-134 -28,-28 -57,-47 -87,-58 -29,-12 -59,-14 -88,-7 -30,6 -55,21 -78,43 -32,32 -48,70 -49,115 -1,45 24,93 75,143zm501 -172l-339 -340 245 -245 40 40 -200 200 104 105 187 -188 40 40 -187 187 115 116 208 -208 40 40 -253 253zm754 -754l-118 118 -129 -46c-30,-11 -51,-17 -61,-16 -11,0 -21,4 -30,14l134 134 -105 105 -339 -340 105 -104 130 130c9,-10 12,-20 11,-31 0,-11 -10,-36 -28,-76 -13,-29 -20,-52 -21,-69 -1,-17 5,-37 19,-59 14,-22 41,-52 79,-91l72 72 -6 5c-18,18 -27,35 -29,50 -2,15 2,34 12,54 9,21 15,38 16,52 1,14 -2,29 -9,45 20,-11 42,-15 65,-14 24,1 55,7 93,20l139 47zm-145 -194c-56,-55 -84,-113 -83,-175 0,-62 27,-120 82,-176 57,-56 115,-84 176,-85 61,0 119,27 174,82 39,40 65,79 77,117 12,39 12,78 1,118 -11,39 -35,78 -73,115 -38,38 -76,64 -113,77 -37,13 -77,14 -119,3 -42,-11 -83,-36 -122,-76zm105 -104c34,34 65,52 92,55 28,2 53,-8 75,-30 23,-23 33,-48 31,-74 -3,-28 -23,-60 -61,-98 -32,-32 -62,-49 -89,-51 -28,-1 -53,9 -75,31 -21,21 -31,46 -28,73 2,28 20,59 55,94zm132 -473l175 -175c38,-38 75,-57 112,-58 37,-1 73,15 106,49 34,34 51,71 49,111 -1,40 -23,81 -65,124l-58 57 126 126 -105 105 -340 -339zm251 40l25 -26c21,-21 32,-39 33,-54 1,-15 -4,-28 -15,-39 -11,-11 -23,-16 -38,-16 -14,-1 -31,9 -51,29l-30 30 76 76zm249 -200c-56,-55 -83,-114 -83,-176 0,-61 27,-120 83,-175 56,-56 115,-85 176,-85 61,0 118,27 173,82 40,39 65,78 77,117 12,39 13,78 2,117 -11,40 -36,78 -73,116 -39,38 -77,64 -114,77 -37,12 -77,14 -119,3 -42,-11 -83,-36 -122,-76zm105 -104c34,34 65,52 93,54 28,2 52,-7 74,-29 23,-23 33,-48 31,-75 -2,-27 -23,-59 -61,-97 -32,-32 -61,-49 -89,-51 -28,-2 -52,8 -75,31 -21,21 -30,45 -28,73 2,28 20,59 55,94zm134 -475l196 -196c33,-33 66,-50 100,-51 34,-1 62,10 86,34 20,20 31,43 33,70 1,18 -3,38 -14,60 31,-19 58,-27 84,-24 26,3 50,15 71,37 18,17 30,37 36,59 5,23 5,45 -1,67 -3,14 -13,31 -28,51 -21,27 -35,44 -43,52l-181 181 -339 -340zm239 28l45 -46c17,-16 25,-30 26,-42 1,-13 -4,-24 -15,-35 -10,-9 -21,-14 -33,-13 -12,1 -26,9 -41,25l-47 47 65 64zm133 133l53 -53c18,-18 28,-34 29,-48 1,-14 -4,-26 -15,-37 -10,-10 -22,-15 -35,-13 -13,1 -29,11 -48,29l-53 53 69 69zm232 -503l56 -56c51,-52 99,-81 142,-87 43,-7 83,9 121,47 32,31 44,67 38,106 -6,39 -30,80 -73,123l-180 180 -340 -339 105 -105 131 131zm136 135l53 -53c33,-33 38,-61 14,-85 -21,-21 -48,-15 -81,18l-53 54 67 66zm-5 -528l280 -280 73 72 -175 176 54 54 162 -163 70 69 -163 163 67 67 180 -181 77 77 -286 286 -339 -340zm-10025 11260l657 -658 1232 731 -730 -1232 654 -654 1613 1612 -408 408 -1229 -1229 914 1543 -369 370 -1543 -916 1229 1229 -407 408 -1613 -1612zm2875 -1260c-264,-263 -395,-541 -395,-834 0,-294 131,-571 393,-833 268,-269 547,-404 836,-405 290,-1 564,128 824,388 188,188 311,374 368,558 57,184 59,370 6,557 -53,187 -169,370 -348,549 -182,181 -361,303 -538,365 -177,60 -366,66 -565,14 -199,-51 -393,-171 -581,-359zm498 -497c163,163 310,250 442,260 132,10 250,-37 354,-141 107,-107 156,-225 145,-353 -11,-129 -107,-283 -287,-463 -152,-152 -293,-232 -424,-241 -132,-8 -250,40 -355,145 -101,100 -146,217 -136,349 10,132 97,280 261,444zm3728 -2119l-498 498 -1216 -1216 -390 389 496 496c204,204 343,365 417,482 74,117 93,238 59,362 -35,125 -141,275 -319,453 -54,54 -122,110 -204,169l-327 -327 74 -74c68,-68 100,-130 98,-188 -1,-57 -42,-125 -121,-205l-1067 -1066 1385 -1385 1613 1612zm-539 -1071c-263,-263 -395,-541 -395,-835 0,-293 131,-570 393,-832 269,-269 547,-404 836,-405 290,-1 564,128 824,388 188,188 311,374 368,558 57,184 59,370 6,556 -53,188 -169,371 -348,550 -181,181 -361,303 -538,364 -177,61 -366,67 -565,15 -199,-51 -393,-171 -581,-359zm499 -497c162,163 310,249 441,260 132,10 250,-37 354,-141 107,-107 156,-225 145,-353 -11,-129 -106,-283 -287,-464 -152,-151 -293,-231 -424,-240 -132,-8 -250,40 -355,145 -100,100 -146,217 -136,349 10,132 97,280 262,444zm3711 -2103l-561 561 -611 -219c-144,-54 -241,-80 -292,-79 -49,0 -97,23 -142,68l638 637 -498 498 -1613 -1613 498 -497 619 619c41,-45 60,-95 55,-147 -4,-53 -49,-173 -133,-360 -62,-137 -97,-247 -102,-329 -6,-81 25,-174 91,-279 67,-105 192,-249 375,-432l340 340 -25 25c-85,85 -132,164 -140,238 -9,73 9,159 56,258 45,99 71,180 76,247 5,66 -8,136 -39,209 95,-48 198,-70 309,-66 111,4 258,37 439,99l660 222zm-690 -920c-263,-263 -395,-541 -395,-835 0,-293 131,-571 393,-832 269,-269 547,-404 836,-405 290,-1 564,128 824,388 188,188 311,374 368,558 57,184 59,369 6,556 -53,188 -169,371 -348,550 -181,181 -361,303 -538,364 -177,61 -366,66 -565,15 -199,-51 -393,-171 -581,-359zm499 -497c162,163 310,249 441,260 132,10 250,-37 354,-141 107,-107 156,-225 145,-353 -11,-129 -106,-283 -287,-464 -152,-151 -293,-231 -424,-240 -132,-8 -250,40 -355,145 -100,100 -146,217 -136,349 10,132 98,280 262,444zm-7805 10975l-84 84 -74 -74 -217 217 74 74 -85 84 -152 -152 35 -35c-35,-75 -87,-146 -156,-215l-75 -76 284 -284 261 261 37 -37 152 153zm-294 -11l-177 -178 -85 84 5 5c47,47 97,112 149,197l108 -108zm78 -261c-55,-55 -83,-114 -83,-175 0,-62 28,-121 83,-176 57,-56 115,-85 176,-85 61,0 119,27 173,82 40,39 66,79 78,117 12,39 12,78 1,117 -11,40 -35,78 -73,116 -38,38 -76,64 -113,77 -38,13 -77,14 -119,3 -42,-11 -83,-36 -123,-76zm105 -104c35,34 66,52 93,54 28,3 53,-7 75,-29 22,-23 33,-48 30,-75 -2,-27 -22,-59 -60,-97 -32,-32 -62,-49 -89,-51 -28,-2 -53,9 -75,31 -21,21 -31,45 -29,73 2,28 21,59 55,94zm133 -473l138 -138 259 154 -153 -260 137 -138 340 340 -86 86 -259 -259 193 325 -78 78 -325 -193 259 259 -86 86 -339 -340zm940 -374l-118 119 39 73 -108 107 -211 -467 115 -115 466 212 -110 110 -73 -39zm-95 -51l-159 -85 85 159 74 -74zm768 -510l-456 457 -340 -340 105 -104 256 256 71 -71 -256 -256 105 -105 256 256 71 -71 -256 -256 105 -105 339 339zm-269 -409l104 -105 119 119 115 -115 -119 -118 105 -106 340 340 -105 105 -138 -137 -115 114 138 138 -105 105 -339 -340zm719 -719l339 339 -98 99 -187 -186 60 312 -99 100 -340 -340 100 -99 187 188 -60 -315 98 -98zm70 -70l281 -281 72 73 -175 175 54 54 162 -162 70 69 -163 162 67 67 180 -180 77 76 -286 286 -339 -339zm-2271 3630l267 -267 339 340 -45 45 -300 -300 -176 177 300 299 -45 45 -340 -339zm680 -1l-340 -339 129 -129c22,-22 40,-38 55,-48 19,-14 38,-23 57,-26 19,-4 39,-2 60,5 21,7 40,19 57,36 29,29 44,63 45,101 2,38 -21,81 -69,129l-87 88 138 138 -45 45zm-133 -223l87 -88c29,-29 45,-55 46,-78 1,-23 -8,-44 -27,-64 -14,-14 -30,-23 -48,-26 -17,-3 -33,0 -48,9 -10,5 -25,18 -45,39l-87 86 122 122zm260 -234c-57,-57 -85,-116 -87,-178 -2,-62 22,-117 69,-165 32,-31 68,-52 108,-62 40,-10 80,-9 120,5 40,13 77,37 111,71 34,34 58,72 71,113 13,41 14,81 3,121 -12,39 -33,74 -62,103 -32,32 -68,53 -109,63 -40,10 -81,8 -120,-6 -40,-14 -74,-35 -104,-65zm47 -46c41,41 84,62 129,64 46,1 85,-15 118,-48 34,-34 50,-73 48,-119 -2,-45 -24,-90 -68,-134 -28,-27 -56,-47 -86,-58 -30,-11 -60,-13 -89,-7 -29,7 -55,21 -77,44 -32,32 -49,70 -50,115 -1,44 24,92 75,143zm181 -531l207 -207 300 300 30 -31 119 119 -40 40 -79 -79 -225 225 80 79 -40 40 -119 -119 26 -27c-14,-68 -84,-165 -209,-291l-50 -49zm202 -122l-119 118 18 18c29,29 66,71 111,126 45,55 76,107 93,154l157 -156 -260 -260zm60 -140l45 -45 320 98 -112 -306 44 -44 137 391c17,49 26,84 26,104 0,21 -10,40 -29,59 -11,12 -28,23 -50,35l-39 -39c19,-5 35,-14 49,-27 11,-11 17,-24 17,-39 1,-15 -6,-40 -21,-75l-387 -112zm336 -336l45 -45 149 149c21,-21 31,-39 31,-56 1,-16 -8,-46 -25,-89 -13,-32 -21,-55 -24,-71 -3,-15 -2,-31 3,-49 5,-17 14,-33 28,-47 17,-17 26,-26 27,-26l39 39c-1,1 -4,4 -9,8 -5,5 -8,8 -9,9 -15,14 -22,29 -22,42 0,15 7,37 20,69 18,40 26,68 26,84 -1,15 -4,30 -10,46 28,-16 69,-17 125,-4l183 43 -56 56 -149 -35c-41,-10 -71,-15 -91,-14 -20,1 -38,10 -55,26l159 159 -45 45 -340 -339zm701 -22l-299 -300 -112 112 -40 -40 269 -269 39 40 -111 112 299 300 -45 45zm-134 -545l45 -45 145 144 81 -81c53,-53 98,-78 134,-75 36,3 67,17 92,42 26,26 40,58 42,96 2,37 -22,80 -70,129l-129 129 -340 -339zm346 256l82 -82c28,-28 44,-54 47,-76 4,-22 -5,-43 -26,-64 -14,-14 -30,-22 -47,-24 -18,-2 -34,2 -48,11 -15,10 -37,29 -65,57l-60 60 117 118zm-49 -553l45 -45 339 340 -45 45 -339 -340zm-1641 3147l56 -56c52,-51 99,-80 142,-87 43,-7 83,9 122,47 31,32 44,67 37,106 -6,40 -30,81 -73,123l-180 181 -339 -340 285 -286 69 69 -181 181 62 62zm136 136l53 -54c33,-33 38,-61 14,-85 -21,-21 -48,-15 -80,18l-54 54 67 67zm-3 -530l281 -281 72 73 -175 175 54 54 162 -163 70 70 -163 162 67 67 180 -181 77 77 -286 286 -339 -339zm710 -401c52,-29 98,-24 138,16 33,33 48,73 43,120 -4,47 -30,93 -76,140 -80,80 -163,96 -249,48l92 -106c29,18 57,14 83,-12 14,-15 22,-29 22,-44 0,-15 -6,-29 -19,-42 -13,-12 -28,-18 -45,-16 -17,2 -34,11 -50,27l-28 28 -61 -60 22 -23c14,-13 21,-27 21,-42 1,-15 -5,-28 -18,-41 -18,-18 -38,-16 -61,7 -24,24 -27,48 -10,74l-105 82c-44,-74 -27,-149 49,-225 42,-42 83,-67 124,-74 40,-8 74,2 101,30 34,33 43,71 27,113zm92 -402l267 -266 339 339 -45 45 -299 -300 -177 177 300 299 -45 46 -340 -340zm501 -152c-56,-57 -85,-116 -86,-178 -2,-62 21,-117 69,-165 31,-31 67,-52 107,-62 40,-10 80,-9 120,5 40,13 77,37 111,71 35,34 58,72 72,113 13,41 14,81 2,121 -11,39 -32,74 -61,103 -32,32 -69,53 -109,63 -41,10 -81,8 -121,-6 -39,-14 -74,-35 -104,-65zm48 -46c40,41 84,62 129,64 45,1 85,-15 118,-48 34,-34 50,-73 48,-119 -2,-45 -25,-90 -68,-134 -28,-27 -57,-47 -87,-58 -29,-11 -59,-13 -88,-7 -30,7 -55,21 -78,44 -32,32 -48,70 -49,115 -1,44 24,92 75,143zm623 -532l56 -34c28,46 39,91 34,135 -5,44 -25,83 -61,119 -36,36 -73,58 -111,66 -38,8 -77,4 -117,-12 -40,-16 -77,-41 -109,-73 -35,-35 -59,-73 -72,-113 -13,-40 -14,-79 -3,-117 12,-39 32,-73 62,-103 34,-34 71,-54 112,-60 40,-5 80,3 121,25l-34 54c-32,-16 -62,-23 -88,-19 -26,3 -51,17 -73,39 -26,26 -42,54 -47,84 -5,30 0,59 14,87 14,29 32,54 54,76 29,29 59,50 88,63 30,13 59,16 88,9 28,-7 53,-20 73,-41 25,-25 39,-54 42,-86 3,-31 -7,-65 -29,-99zm219 18l-339 -339 128 -129c23,-22 41,-38 55,-48 20,-14 39,-23 58,-26 19,-4 39,-2 60,5 21,7 40,19 56,36 29,29 44,63 46,101 2,38 -22,81 -70,129l-87 88 139 138 -46 45zm-133 -223l88 -88c29,-29 44,-55 46,-78 1,-23 -8,-44 -28,-64 -14,-14 -30,-23 -47,-26 -17,-3 -33,0 -48,9 -10,5 -25,18 -45,39l-87 86 121 122zm451 -94l-340 -340 245 -245 40 40 -200 200 104 104 188 -187 39 40 -187 187 116 116 208 -208 40 40 -253 253zm6 -686l207 -206 300 299 30 -30 119 119 -40 40 -79 -79 -225 224 79 79 -39 40 -119 -119 26 -26c-14,-69 -84,-166 -209,-291l-50 -50zm202 -122l-119 119 18 17c29,29 66,71 111,127 45,55 76,107 93,154l157 -157 -260 -260zm430 170l-340 -340 45 -45 140 140 176 -175 -140 -140 45 -45 339 339 -45 45 -159 -160 -176 176 160 160 -45 45zm2 -681l41 -41 268 269 -88 -450 45 -44 339 339 -40 41 -269 -268 88 448 -45 45 -339 -339zm341 -341l45 -45 149 149c20,-21 30,-39 31,-56 0,-16 -8,-46 -26,-89 -13,-32 -21,-55 -24,-70 -3,-16 -2,-32 3,-50 5,-17 14,-33 28,-46 17,-18 27,-27 28,-27l39 39c-2,1 -5,4 -9,8 -6,5 -9,8 -10,9 -14,15 -21,29 -21,43 0,14 6,37 20,68 17,41 26,68 25,84 0,15 -3,30 -10,46 28,-16 70,-17 126,-4l183 43 -56 56 -149 -35c-41,-10 -72,-15 -92,-14 -20,1 -38,10 -55,26l159 159 -45 45 -339 -339zm430 -82c-56,-56 -85,-116 -87,-178 -1,-62 22,-117 70,-165 31,-31 67,-52 107,-62 40,-10 80,-8 120,5 40,14 77,37 111,71 34,35 58,72 71,113 14,41 14,82 3,121 -12,40 -32,74 -62,103 -32,32 -68,53 -108,63 -41,10 -81,8 -121,-6 -39,-14 -74,-35 -104,-65zm47 -46c41,41 84,62 130,64 45,1 85,-14 118,-48 34,-34 49,-73 48,-119 -2,-45 -25,-90 -69,-133 -27,-28 -56,-47 -86,-59 -30,-11 -59,-13 -89,-6 -29,6 -55,21 -77,43 -32,32 -48,70 -49,115 -2,45 23,92 74,143zm499 -169l-340 -340 128 -127c26,-26 50,-44 73,-52 22,-9 45,-11 68,-5 23,5 43,15 58,31 15,14 24,32 29,53 5,20 4,43 -4,66 26,-14 53,-20 78,-16 26,3 48,15 68,35 16,16 27,34 34,54 7,20 9,39 7,57 -3,17 -9,35 -20,53 -12,19 -28,39 -50,61l-129 130zm-152 -242l74 -74c20,-20 33,-35 39,-46 8,-15 11,-30 8,-43 -2,-14 -9,-27 -21,-39 -11,-11 -24,-18 -38,-21 -14,-4 -27,-2 -40,5 -14,7 -32,23 -57,47l-68 68 103 103zm157 157l85 -85c14,-14 24,-25 29,-32 8,-12 14,-24 16,-35 3,-12 2,-24 -1,-36 -4,-13 -12,-25 -22,-36 -13,-13 -27,-20 -43,-23 -16,-3 -32,-1 -47,7 -15,8 -34,22 -55,44l-79 79 117 117z"/>
  <path class="fil2" d="M145724 93159c-262,6 -353,-117 -475,-284 -22,-30 -29,-47 -45,-75 -8,-13 -14,-24 -23,-37 -24,-35 -10,-24 -39,-33 -53,145 169,432 280,518 50,39 95,57 143,89 22,14 11,6 22,19 -383,291 -275,399 -504,668 -104,122 -161,185 -300,285 -34,24 -129,101 -153,140 -109,179 98,293 185,364 62,52 101,87 216,81 208,-10 348,-40 547,24 430,140 371,-315 774,267 150,218 313,509 423,748 135,293 194,524 492,688 40,22 63,21 79,63 46,117 45,271 52,396 18,315 209,734 35,1020 -79,131 -224,178 -255,348 108,32 248,45 365,4 189,-68 78,-198 145,-278 26,-23 43,5 70,6 55,1 -42,12 24,-5 27,-7 -14,-247 -12,-317 9,-316 23,-668 97,-970 37,43 117,322 136,401 53,211 147,752 38,935 -55,92 -203,174 -204,331 109,63 485,44 540,-107 28,-77 -25,-137 -3,-226l73 -14c-17,-136 -85,-104 -83,-602 1,-225 -4,-453 -3,-677 3,-484 312,-595 777,-551 440,42 732,160 1212,96 294,-39 419,-138 512,26 139,243 232,241 357,329 3,86 -36,262 41,306 60,-32 90,-189 92,-274l202 4c-2,80 -8,277 59,316 70,-32 77,-237 74,-320 193,-42 186,246 195,362 21,274 41,742 -186,920 -96,75 -227,197 -259,324 136,17 484,98 550,-94 11,-33 15,-69 20,-102 2,-18 3,-35 8,-51 20,-74 71,-34 132,-29 10,-68 -8,-113 -5,-181 11,-305 96,-694 156,-1000 14,-71 24,-138 42,-163 68,92 135,291 162,404 65,262 36,752 -69,1003 -50,121 -209,156 -252,318 110,49 342,71 463,25 205,-78 37,-260 120,-404 62,1 48,28 97,15 10,-29 -13,-178 -13,-259 -2,-272 5,-553 44,-823 15,-104 92,-407 67,-493 -21,-76 -147,-149 -221,-363 -249,-718 187,-1290 193,-1982 54,18 116,287 125,331 90,405 93,896 29,1299 -44,282 -119,525 -24,817 41,127 96,212 174,289 103,103 138,119 163,301 62,-101 19,-260 -29,-345 -50,-88 -125,-183 -124,-317 42,48 40,126 89,181 2,-43 -21,-87 -18,-147 7,-199 63,-106 -40,-431 -186,-581 35,-1189 -169,-1870 -110,-367 -257,-640 -620,-753 -654,-203 -1147,109 -1782,147 -734,43 -1187,69 -1943,-37 -778,-109 -622,-17 -1267,3 -213,7 -437,0 -633,-40 -157,-32 -405,-115 -478,-209 54,-59 219,-142 206,-248 -83,-98 -335,6 -428,49l-25 -50c-9,-23 -17,-33 -31,-49 -76,-88 -183,-66 -271,-183 -44,-60 -75,-131 -99,-203l-49 -182c-11,-38 -5,-39 -30,-56 -16,21 2,-16 -17,28 -2,6 -7,23 -8,32 -13,74 -7,174 3,249 17,127 59,169 89,265z"/>
  <path class="fil2" d="M142131 103991l754 0 0 960 -128 0 0 -847 -498 0 0 847 -128 0 0 -960zm1335 960l0 -960 363 0c64,0 112,3 146,9 47,8 87,23 119,45 32,22 57,53 77,92 19,40 29,84 29,131 0,82 -26,151 -78,207 -52,57 -146,85 -282,85l-246 0 0 391 -128 0zm128 -504l248 0c82,0 140,-15 175,-46 34,-30 51,-73 51,-129 0,-40 -10,-74 -30,-103 -20,-29 -47,-48 -80,-57 -22,-5 -61,-8 -119,-8l-245 0 0 343zm1071 37c0,-159 43,-284 128,-374 86,-90 197,-135 332,-135 89,0 168,21 240,63 71,43 125,102 162,177 38,76 57,162 57,258 0,97 -20,184 -59,261 -40,77 -95,135 -167,174 -73,40 -150,59 -234,59 -90,0 -171,-22 -242,-65 -71,-44 -125,-103 -162,-179 -37,-75 -55,-155 -55,-239zm131 2c0,116 31,207 94,273 62,66 140,100 234,100 95,0 174,-34 236,-101 61,-67 92,-162 92,-285 0,-78 -13,-147 -39,-205 -27,-58 -65,-103 -116,-135 -51,-32 -108,-48 -171,-48 -90,0 -168,31 -232,92 -65,62 -98,165 -98,309zm1326 -495l116 0 0 760 511 -760 126 0 0 960 -116 0 0 -758 -510 758 -127 0 0 -960zm1282 689l121 -30c9,46 33,92 73,139 40,46 93,70 159,70 67,0 120,-17 159,-52 38,-35 58,-76 58,-125 0,-53 -21,-95 -61,-126 -41,-32 -97,-47 -167,-47l-61 0 0 -112c59,0 103,-3 134,-10 31,-6 58,-24 82,-51 23,-28 35,-59 35,-95 0,-41 -16,-78 -48,-108 -32,-31 -76,-47 -131,-47 -49,0 -90,12 -124,37 -34,24 -57,56 -70,96 -13,40 -20,70 -20,90l-122 -28c30,-204 142,-306 337,-306 93,0 167,26 222,78 55,52 82,113 82,183 0,89 -42,159 -126,208 48,13 89,41 122,83 33,41 50,91 50,149 0,83 -32,152 -96,208 -64,55 -149,83 -254,83 -182,0 -300,-95 -354,-287zm1229 271l0 -960 361 0c73,0 132,10 176,29 44,20 79,50 104,90 25,40 38,82 38,127 0,41 -11,79 -33,115 -23,37 -56,66 -101,88 58,17 103,46 134,87 31,41 47,90 47,146 0,45 -10,87 -29,125 -19,39 -42,69 -70,90 -28,21 -63,36 -105,47 -43,11 -94,16 -155,16l-367 0zm128 -556l207 0c57,0 97,-4 121,-11 33,-10 57,-26 74,-49 16,-22 24,-50 24,-84 0,-32 -7,-60 -23,-84 -15,-24 -37,-41 -65,-50 -29,-9 -77,-13 -146,-13l-192 0 0 291zm0 444l239 0c41,0 70,-2 87,-5 29,-5 53,-14 73,-26 20,-13 36,-30 48,-54 13,-23 19,-50 19,-81 0,-36 -9,-67 -27,-94 -19,-26 -44,-45 -77,-56 -32,-10 -79,-16 -140,-16l-222 0 0 332zm1147 112l0 -960 694 0 0 113 -566 0 0 295 529 0 0 112 -529 0 0 328 589 0 0 112 -717 0zm1352 -960l585 0 0 848 85 0 0 336 -112 0 0 -224 -636 0 0 224 -112 0 0 -336 73 0c78,-117 117,-353 117,-708l0 -140zm457 113l-335 0 0 49c0,82 -7,194 -22,336 -15,142 -44,258 -87,350l444 0 0 -735zm739 847l0 -960 693 0 0 113 -565 0 0 295 529 0 0 112 -529 0 0 328 588 0 0 112 -716 0zm1270 0l0 -960 127 0 0 396 496 0 0 -396 128 0 0 960 -128 0 0 -452 -496 0 0 452 -127 0zm1297 -467c0,-159 43,-284 128,-374 86,-90 196,-135 332,-135 88,0 168,21 239,63 71,43 126,102 163,177 37,76 56,162 56,258 0,97 -19,184 -59,261 -39,77 -95,135 -167,174 -72,40 -150,59 -233,59 -91,0 -171,-22 -243,-65 -71,-44 -125,-103 -161,-179 -37,-75 -55,-155 -55,-239zm131 2c0,116 31,207 93,273 62,66 140,100 234,100 96,0 174,-34 236,-101 62,-67 93,-162 93,-285 0,-78 -13,-147 -40,-205 -26,-58 -65,-103 -116,-135 -50,-32 -107,-48 -171,-48 -90,0 -167,31 -232,92 -65,62 -97,165 -97,309zm-14406 2358l187 58c-28,106 -77,184 -144,236 -67,51 -152,77 -255,77 -127,0 -232,-44 -314,-131 -82,-87 -123,-206 -123,-358 0,-160 41,-284 123,-372 83,-89 191,-133 326,-133 118,0 213,35 286,104 44,41 77,100 99,177l-192 46c-11,-50 -35,-89 -71,-118 -36,-29 -80,-43 -132,-43 -71,0 -129,26 -173,77 -44,51 -67,133 -67,248 0,121 22,208 66,259 44,52 100,77 170,77 52,0 97,-16 134,-49 37,-33 64,-84 80,-155zm726 354l0 -960 711 0 0 163 -516 0 0 213 480 0 0 162 -480 0 0 260 535 0 0 162 -730 0zm1265 0l0 -960 291 0 172 655 170 -655 292 0 0 960 -180 0 0 -755 -190 755 -186 0 -189 -755 0 755 -180 0zm1492 0l0 -960 711 0 0 163 -516 0 0 213 480 0 0 162 -480 0 0 260 535 0 0 162 -730 0zm1270 -960l181 0 0 640 389 -640 193 0 0 960 -181 0 0 -628 -389 628 -193 0 0 -960zm496 -277l90 0c-5,59 -26,106 -63,139 -36,34 -83,51 -141,51 -58,0 -105,-17 -142,-51 -36,-33 -57,-80 -62,-139l89 0c4,31 14,54 33,70 19,16 46,24 82,24 35,0 63,-8 81,-24 19,-16 30,-39 33,-70zm838 1237l0 -960 194 0 0 378 378 0 0 -378 195 0 0 960 -195 0 0 -419 -378 0 0 419 -194 0zm2206 0l-210 0 -83 -218 -385 0 -79 218 -206 0 373 -960 205 0 385 960zm-356 -380l-133 -356 -130 356 263 0zm1406 380l0 -400 -40 0c-61,0 -104,9 -129,27 -26,18 -69,73 -130,164l-139 209 -231 0 117 -187c46,-74 83,-126 110,-156 27,-30 62,-57 103,-80 -89,-14 -154,-45 -193,-94 -40,-48 -60,-106 -60,-173 0,-58 15,-110 45,-155 29,-46 68,-76 116,-91 49,-16 121,-24 217,-24l408 0 0 960 -194 0zm0 -797l-152 0c-76,0 -127,1 -151,5 -24,3 -45,15 -63,35 -17,20 -26,47 -26,79 0,34 9,61 25,80 17,20 39,33 65,37 26,5 78,8 158,8l144 0 0 -244zm2077 685l0 112 -190 0 0 -112c-153,-6 -262,-44 -325,-114 -63,-70 -95,-157 -95,-263 0,-111 33,-199 99,-266 66,-67 173,-104 321,-109l0 -96 190 0 0 96c153,5 261,43 325,112 63,69 95,158 95,264 0,106 -32,193 -95,263 -63,69 -171,107 -325,113zm0 -162c51,0 95,-9 132,-26 36,-17 62,-40 77,-69 16,-28 23,-70 23,-126 0,-138 -77,-207 -232,-207l0 428zm-190 0l0 -428c-82,0 -141,18 -177,54 -37,37 -55,92 -55,165 0,139 77,209 232,209zm1138 274l0 -960 710 0 0 163 -516 0 0 213 480 0 0 162 -480 0 0 260 535 0 0 162 -729 0zm1267 0l0 -960 311 0c117,0 194,5 230,15 55,14 101,45 138,94 37,48 56,110 56,187 0,59 -11,108 -32,148 -22,41 -49,72 -82,95 -33,23 -66,38 -100,46 -46,9 -113,13 -201,13l-126 0 0 362 -194 0zm194 -797l0 273 106 0c76,0 127,-5 153,-15 25,-10 45,-26 60,-47 14,-22 22,-47 22,-75 0,-35 -10,-64 -31,-87 -20,-23 -46,-37 -78,-43 -23,-4 -69,-6 -139,-6l-93 0zm1052 797l0 -960 292 0 172 655 170 -655 292 0 0 960 -180 0 -1 -755 -189 755 -187 0 -188 -755 -1 755 -180 0zm2358 0l-210 0 -83 -218 -385 0 -79 218 -206 0 373 -960 205 0 385 960zm-356 -380l-133 -356 -130 356 263 0z"/>
  <polygon class="fil1 str0" points="26564,113800 28582,111953 30599,113800 32617,111953 34635,113800 36652,111953 38670,113800 40687,111953 42705,113800 44722,111953 46740,113800 48758,111953 50775,113800 52793,111953 54810,113800 56828,111953 58845,113800 58845,27372 26564,27372 "/>
  <polygon class="fil4 str6" points="23336,22800 62073,22800 62073,23873 23336,23873 "/>
  <path class="fil4 str6" d="M23336 22083c692,0 1253,561 1253,1253 0,692 -561,1253 -1253,1253 -692,0 -1253,-561 -1253,-1253 0,-692 561,-1253 1253,-1253z"/>
  <path class="fil4 str6" d="M62073 22083c692,0 1253,561 1253,1253 0,692 -561,1253 -1253,1253 -692,0 -1253,-561 -1253,-1253 0,-692 561,-1253 1253,-1253z"/>
  <polygon class="fil1 str0" points="26564,22156 58845,22156 58845,27372 26564,27372 "/>
  <line class="fil0 str7" x1="26564" y1="27372" x2="58845" y2= "27372" />
  <line class="fil0 str7" x1="58442" y1="27372" x2="58442" y2= "113020" />
  <g id="_486575648">
   <polyline class="fil0 str8" points="26967,113020 28582,111550 30599,113397 32617,111550 "/>
   <polyline class="fil0 str8" points="32617,111550 34635,113397 36652,111550 38670,113397 40687,111550 "/>
   <polyline class="fil0 str8" points="40687,111550 42705,113397 44722,111550 46740,113397 48758,111550 "/>
   <polyline class="fil0 str8" points="48758,111550 50775,113397 52793,111550 54810,113397 56828,111550 "/>
   <line class="fil0 str8" x1="56828" y1="111550" x2="58442" y2= "113020" />
  </g>
  <line class="fil0 str9" x1="26967" y1="27372" x2="26967" y2= "113020" />
  <path class="fil2" d="M43703 59897l169 -101c82,139 116,274 101,405 -15,132 -76,250 -182,356 -109,110 -221,177 -334,201 -114,24 -231,11 -351,-38 -121,-49 -229,-121 -327,-219 -106,-106 -178,-218 -216,-338 -39,-119 -41,-237 -7,-352 33,-116 95,-219 185,-308 102,-102 213,-162 334,-179 122,-18 243,7 364,73l-101 164c-98,-51 -186,-70 -264,-59 -79,11 -152,50 -220,118 -78,78 -125,162 -140,252 -15,90 -2,178 40,262 42,84 97,160 164,227 87,87 175,150 264,189 90,40 177,49 263,28 85,-21 158,-63 220,-125 75,-75 117,-160 126,-256 8,-96 -21,-196 -88,-300zm662 53l-1019 -1019 736 -735 119 119 -600 601 313 313 562 -562 119 119 -562 562 347 347 625 -624 119 119 -759 760zm943 -943l-1019 -1019 202 -202 962 480c89,45 156,79 199,103 -25,-49 -61,-122 -108,-218l-464 -954 181 -180 1018 1018 -129 130 -852 -852 554 1149 -121 121 -1162 -573 868 867 -129 130zm1190 -1191l-1018 -1018 735 -736 120 120 -601 600 313 313 562 -562 120 120 -562 561 347 348 624 -625 120 120 -760 759zm952 -951l-1019 -1019 135 -135 420 420 526 -527 -419 -419 135 -135 1018 1018 -135 135 -479 -479 -526 526 479 479 -135 136zm910 -910l-628 -1409 148 -149 1433 604 -153 154 -427 -191 -429 429 199 419 -143 143zm-126 -711l348 -348 -389 -176c-118,-53 -213,-100 -286,-139 53,80 99,164 140,252l187 411zm1991 -1155l-1018 -1018 -452 451c-91,91 -150,169 -179,234 -29,66 -34,136 -16,210 18,75 55,140 111,196 72,72 156,110 253,113 96,2 199,-38 310,-122 -18,52 -28,97 -30,132 -4,75 5,157 24,247l101 453 169 -168 -78 -347c-22,-100 -36,-179 -43,-237 -7,-58 -7,-104 0,-137 7,-33 19,-62 35,-88 12,-19 35,-45 70,-80l156 -156 452 452 135 -135zm-704 -434l-289 290c-62,61 -116,103 -164,125 -47,22 -93,28 -139,17 -46,-10 -86,-31 -119,-64 -48,-48 -70,-105 -67,-171 4,-66 44,-137 119,-212l322 -322 337 337zm1072 -1815c342,-276 636,-292 881,-46 251,250 235,544 -46,881l106 106 -286 286 -108 -109c-336,283 -629,299 -879,49 -246,-246 -231,-539 47,-881l-79 -78 286 -286 78 78zm622 622c35,-64 48,-128 39,-192 -10,-64 -40,-122 -92,-174 -49,-49 -107,-79 -174,-90 -67,-11 -133,0 -197,32l424 424zm-283 289l-421 -421c-33,60 -45,124 -34,193 11,68 42,128 92,178 47,47 104,75 170,84 66,9 130,-2 193,-34zm200 -1606l842 -842 218 218 -526 526 162 162 488 -488 207 208 -487 488 200 200 542 -542 230 231 -857 858 -1019 -1019zm1026 -1026l524 -523c114,-114 226,-172 337,-175 111,-2 217,46 317,147 103,103 153,214 148,334 -3,120 -69,243 -196,371l-173 172 377 377 -315 316 -1019 -1019zm751 120l78 -78c61,-61 93,-114 97,-160 3,-46 -12,-85 -44,-118 -32,-32 -70,-49 -114,-49 -44,-1 -95,28 -154,87l-90 90 227 228zm275 -1145l415 -415 778 461 -461 -778 413 -413 1018 1018 -257 257 -777 -776 578 975 -233 233 -975 -578 777 777 -258 257 -1018 -1018zm2822 -1122l-356 357 116 219 -321 321 -635 -1402 345 -344 1400 637 -330 329 -219 -117zm-287 -154l-477 -254 254 477 223 -223zm-22987 40099l-253 253 -222 -222 -650 650 222 222 -253 254 -457 -457 105 -105c-105,-224 -261,-438 -468,-645l-227 -227 854 -854 783 784 110 -109 456 456zm-880 -33l-534 -533 -253 253 14 13c140,141 290,338 448,592l325 -325zm234 -781c-167,-166 -250,-342 -250,-527 0,-185 83,-361 249,-526 169,-169 345,-255 528,-256 183,0 356,82 520,245 119,119 196,237 232,353 36,116 37,233 4,351 -33,119 -106,234 -219,347 -115,115 -229,192 -340,231 -112,38 -231,41 -357,9 -126,-32 -248,-108 -367,-227zm315 -314c102,103 195,158 278,164 84,7 158,-23 224,-89 68,-67 98,-142 92,-223 -7,-81 -68,-178 -182,-292 -95,-96 -185,-147 -267,-152 -84,-5 -158,25 -225,91 -63,64 -92,138 -85,221 6,83 61,177 165,280zm397 -1418l415 -415 777 462 -461 -778 414 -414 1018 1019 -257 257 -777 -776 578 975 -233 233 -975 -578 776 776 -257 258 -1018 -1019zm2822 -1121l-357 357 117 219 -321 321 -635 -1402 344 -344 1400 636 -329 330 -219 -117zm-287 -154l-477 -255 254 478 223 -223zm2306 -1529l-1370 1370 -1018 -1019 314 -314 768 768 212 -212 -768 -768 314 -314 768 768 215 -215 -768 -768 314 -315 1019 1019zm-810 -1227l315 -315 355 356 344 -344 -355 -356 316 -316 1018 1019 -316 315 -412 -412 -344 344 412 413 -314 314 -1019 -1018zm2158 -2158l1018 1018 -295 296 -560 -559 181 938 -299 298 -1018 -1018 297 -298 564 564 -182 -945 294 -294zm211 -211l842 -842 217 218 -526 526 162 162 488 -488 208 208 -488 488 200 201 542 -542 231 230 -858 858 -1018 -1019zm-6756 10834l799 -799 1018 1018 -135 135 -899 -899 -529 530 899 899 -135 135 -1018 -1019zm2039 -2l-1018 -1019 384 -384c68,-68 123,-116 165,-146 58,-41 116,-67 173,-78 58,-11 118,-5 180,16 63,22 119,58 170,108 86,86 132,187 136,302 5,115 -65,245 -209,389l-261 261 415 416 -135 135zm-400 -670l263 -263c88,-88 133,-165 137,-235 5,-69 -23,-132 -82,-191 -42,-43 -89,-69 -141,-77 -52,-9 -101,-1 -146,24 -28,17 -73,56 -134,117l-261 261 364 364zm781 -702c-169,-169 -256,-347 -261,-533 -5,-187 65,-351 209,-495 94,-94 201,-156 321,-187 121,-31 241,-26 361,15 119,41 230,112 332,214 103,103 175,216 214,339 40,123 43,244 8,362 -34,119 -96,222 -185,310 -96,96 -204,159 -326,188 -122,29 -242,24 -361,-18 -119,-41 -223,-106 -312,-195zm141 -137c123,122 252,186 389,190 136,5 254,-43 354,-142 101,-102 149,-220 143,-357 -5,-137 -74,-270 -205,-401 -82,-83 -169,-141 -258,-175 -90,-34 -179,-41 -266,-21 -88,21 -166,64 -233,131 -95,95 -145,210 -148,344 -3,134 71,278 224,431zm545 -1595l620 -620 899 899 91 -91 357 357 -120 119 -237 -237 -675 674 238 238 -119 119 -357 -357 78 -78c-41,-206 -250,-498 -627,-874l-148 -149zm604 -365l-355 355 52 52c86,87 197,214 332,380 135,166 228,320 280,463l471 -471 -780 -779zm179 -419l136 -135 960 292 -337 -916 133 -132 411 1173c51,147 77,251 77,312 0,62 -28,120 -85,177 -35,35 -85,69 -152,104l-115 -116c57,-15 105,-43 146,-83 32,-33 50,-71 53,-116 2,-45 -19,-120 -66,-224l-1161 -336zm1010 -1009l135 -135 447 446c61,-61 92,-117 93,-165 2,-49 -24,-139 -76,-268 -39,-96 -63,-166 -72,-212 -10,-46 -7,-95 9,-148 14,-52 42,-99 83,-140 52,-52 80,-79 84,-81l116 117c-4,5 -14,13 -27,26 -16,15 -25,23 -28,27 -43,43 -65,85 -65,127 0,42 20,111 61,206 52,121 77,204 76,250 -1,46 -12,93 -31,139 84,-48 210,-52 377,-13l549 130 -167 167 -447 -105c-123,-30 -215,-43 -275,-41 -60,3 -115,30 -165,80l477 476 -136 135 -1018 -1018zm2103 -66l-899 -899 -336 335 -119 -119 806 -807 120 120 -336 336 899 899 -135 135zm-401 -1636l135 -135 434 434 242 -243c159,-159 293,-234 402,-225 109,9 201,50 276,125 79,79 121,175 126,288 6,113 -64,242 -210,387l-387 388 -1018 -1019zm1038 768l246 -245c84,-85 131,-160 141,-227 9,-66 -17,-131 -80,-193 -42,-43 -90,-67 -141,-73 -52,-5 -100,6 -144,35 -45,28 -110,85 -195,171l-180 180 353 352zm-149 -1657l135 -135 1018 1019 -135 135 -1018 -1019zm-4922 9441l168 -168c154,-154 296,-241 424,-262 129,-20 251,28 366,142 94,95 132,201 113,319 -18,118 -91,241 -219,369l-541 540 -1018 -1018 857 -858 207 206 -544 544 187 186zm406 407l161 -161c99,-99 113,-183 41,-255 -62,-62 -143,-44 -241,54l-161 161 200 201zm-8 -1590l842 -842 217 217 -526 527 162 162 488 -488 208 208 -488 488 200 200 542 -542 231 231 -858 857 -1018 -1018zm2130 -1202c155,-89 293,-73 414,48 100,99 143,219 130,359 -13,141 -89,281 -229,421 -239,238 -488,287 -746,144l275 -319c88,54 171,42 249,-36 43,-43 66,-87 66,-131 1,-45 -18,-86 -57,-125 -38,-38 -82,-54 -134,-49 -52,4 -102,31 -151,80l-85 86 -182 -182 67 -68c40,-40 61,-82 63,-126 2,-44 -16,-85 -53,-122 -55,-55 -117,-48 -186,21 -72,71 -81,144 -29,219l-315 249c-130,-222 -81,-447 147,-676 127,-126 250,-201 371,-224 121,-23 223,8 306,91 100,100 126,213 79,340zm278 -1206l799 -800 1019 1019 -136 135 -899 -899 -529 529 899 899 -135 135 -1018 -1018zm1502 -457c-169,-169 -255,-347 -260,-533 -5,-187 65,-351 208,-495 94,-94 202,-156 322,-187 120,-31 240,-26 360,15 120,41 231,112 333,214 103,103 174,216 214,339 40,123 42,244 8,362 -35,119 -96,222 -185,310 -96,96 -205,159 -326,188 -122,29 -243,24 -362,-18 -118,-41 -222,-106 -312,-195zm142 -137c123,122 252,186 388,190 137,5 255,-43 354,-142 102,-102 149,-220 144,-357 -6,-137 -74,-270 -205,-401 -83,-83 -169,-141 -259,-175 -89,-34 -178,-41 -266,-21 -88,21 -165,64 -232,131 -96,95 -145,210 -148,344 -4,134 71,278 224,431zm1870 -1598l169 -101c82,139 116,274 101,405 -15,132 -76,250 -182,356 -109,110 -221,177 -334,201 -114,24 -231,11 -351,-38 -121,-49 -229,-121 -327,-219 -106,-106 -178,-218 -216,-338 -39,-119 -41,-237 -7,-352 33,-116 95,-219 185,-308 102,-102 213,-162 334,-179 122,-18 243,7 364,73l-101 164c-98,-51 -186,-70 -264,-59 -79,11 -152,50 -220,118 -78,78 -125,162 -140,252 -15,90 -1,178 40,262 42,84 97,160 164,227 87,87 175,150 264,189 90,40 177,49 263,28 85,-21 158,-63 220,-125 75,-75 117,-160 126,-256 8,-96 -21,-196 -88,-300zm659 56l-1019 -1019 385 -384c67,-68 122,-116 165,-146 58,-41 116,-67 173,-78 57,-11 117,-5 180,16 62,22 119,58 169,108 87,86 132,187 137,302 5,115 -65,245 -209,389l-261 261 415 415 -135 136zm-400 -670l263 -263c87,-88 133,-165 137,-235 4,-69 -23,-132 -82,-191 -42,-43 -90,-69 -142,-78 -51,-8 -100,0 -145,25 -29,17 -74,56 -135,117l-260 261 364 364zm1351 -282l-1018 -1018 735 -736 120 120 -600 600 312 313 562 -562 120 120 -562 561 347 347 624 -624 120 119 -760 760zm20 -2057l620 -620 899 899 91 -91 357 357 -119 120 -238 -238 -674 674 238 238 -120 119 -357 -357 78 -78c-41,-206 -250,-498 -626,-874l-149 -149zm605 -365l-356 355 52 52c87,87 198,214 333,380 135,166 228,320 279,463l471 -471 -779 -779zm1290 507l-1018 -1018 135 -135 419 419 527 -526 -420 -420 135 -135 1019 1019 -135 135 -480 -480 -526 527 479 479 -135 135zm6 -2043l122 -122 807 807 -264 -1349 133 -133 1018 1018 -122 122 -804 -804 263 1345 -135 135 -1018 -1019zm1023 -1022l135 -135 446 447c62,-62 93,-117 94,-166 1,-49 -25,-138 -77,-268 -39,-96 -63,-166 -72,-212 -9,-46 -6,-95 9,-148 15,-52 43,-99 84,-140 52,-52 79,-79 83,-81l117 117c-5,5 -14,14 -28,26 -15,15 -25,24 -28,27 -43,43 -64,85 -64,127 -1,42 19,111 60,206 52,121 78,204 77,251 -2,45 -12,92 -31,138 84,-48 209,-52 377,-12l549 129 -168 167 -447 -105c-123,-30 -215,-43 -274,-40 -61,2 -115,29 -165,79l476 476 -135 135 -1018 -1018zm1291 -246c-169,-169 -256,-346 -261,-533 -4,-186 65,-351 209,-494 94,-95 201,-157 322,-188 120,-30 240,-25 360,16 120,40 231,111 332,213 103,103 175,216 215,339 39,124 42,244 7,362 -34,119 -96,222 -184,311 -96,96 -205,158 -327,188 -122,29 -242,23 -361,-18 -119,-41 -223,-106 -312,-196zm142 -137c122,123 252,186 388,191 136,4 254,-43 354,-143 101,-101 149,-220 143,-357 -5,-136 -73,-270 -204,-401 -83,-83 -169,-141 -259,-175 -90,-33 -178,-40 -266,-20 -88,20 -166,63 -233,130 -95,96 -144,210 -148,345 -3,134 72,277 225,430zm1495 -509l-1018 -1018 382 -383c78,-77 150,-130 218,-156 68,-26 136,-31 206,-15 69,16 127,47 174,94 44,44 73,97 88,158 15,62 10,129 -14,200 80,-43 158,-60 235,-49 76,10 144,45 204,104 47,48 82,102 102,164 21,61 28,117 21,169 -8,52 -28,106 -62,162 -33,56 -82,116 -147,181l-389 389zm-455 -725l220 -221c60,-59 99,-106 117,-140 24,-45 33,-87 27,-129 -7,-41 -28,-79 -63,-115 -34,-34 -72,-55 -114,-65 -42,-9 -83,-4 -123,17 -39,20 -96,67 -169,140l-203 204 308 309zm471 470l254 -253c43,-44 72,-76 87,-97 25,-37 42,-72 50,-106 8,-34 6,-70 -6,-108 -11,-39 -33,-74 -66,-106 -38,-38 -80,-62 -128,-70 -48,-9 -95,-2 -141,22 -45,23 -101,67 -166,131l-235 236 351 351z"/>
  <path class="fil2" d="M26564 79442l1817 -1817 1065 1065 -2248 2247 865 864 1922 -1922 1002 1003 -1922 1922 2019 2019 -1535 1535 -2985 -2985 0 -3931zm9169 -900l-1733 1734 567 1064 -1562 1562 -3087 -6814 1674 -1675 6806 3096 -1601 1602 -1064 -569zm-1396 -747l-2319 -1239 1236 2322 1083 -1083zm4565 -790l-4951 -4950 2549 -2550c473,-472 875,-794 1206,-961 331,-169 683,-220 1055,-154 374,67 718,259 1034,575 274,274 453,570 535,887 84,317 84,640 2,971 -52,208 -166,454 -341,733 243,-121 436,-194 580,-216 95,-15 265,-9 504,16 239,27 413,58 521,95l2174 686 -1729 1729 -2327 -692c-299,-93 -518,-127 -658,-105 -186,34 -350,122 -489,261l-135 135 2005 2005 -1535 1535zm-1404 -4473l647 -647c69,-69 182,-228 338,-474 81,-120 112,-255 92,-403 -20,-149 -83,-276 -192,-385 -160,-160 -334,-233 -520,-216 -188,15 -421,162 -701,442l-673 673 1009 1010zm1797 -5821l2018 -2018 3781 2244 -2242 -3784 2009 -2008 4951 4950 -1252 1252 -3774 -3774 2809 4740 -1134 1134 -4738 -2811 3774 3774 -1251 1252 -4951 -4951zm6602 -6602l1535 -1535 4951 4951 -1535 1535 -4951 -4951zm2629 -2629l1528 -1528 3733 3734 2393 -2392 1217 1216 -3921 3921 -4950 -4951zm3580 -3580l1699 -1699 2668 665 -670 -2663 1689 -1690 956 4800 397 398 0 3070 -1932 -1933 -4807 -948z"/>
  <g id="_486119928">
   <polygon class="fil1 str0" points="79719,113727 81736,111880 83754,113727 85772,111880 87789,113727 89807,111880 91824,113727 93842,111880 95859,113727 97877,111880 99895,113727 101912,111880 103930,113727 105947,111880 107965,113727 109982,111880 112000,113727 112000,27299 79719,27299 "/>
   <path class="fil2" d="M93711 41908c1315,177 2665,182 4054,0l0 602c0,86 -67,149 -147,156 -1306,117 -2558,112 -3760,0 -80,-7 -147,-70 -147,-156 0,-201 0,-401 0,-602z"/>
   <path class="fil0 str1" d="M93975 42671l0 1416c0,239 26,187 -137,359 -213,225 -425,449 -638,674 -872,921 -742,671 -919,1923 -687,4864 -1785,9158 -1830,13739 -3,310 -95,2089 152,2239 691,419 700,847 -22,1285 -228,138 -174,827 -174,1112 0,4925 0,9850 0,14774 -282,558 -275,488 -275,1112 87,2259 384,8396 3633,4366 1360,2387 2667,2548 3979,0 3276,4032 3845,-2206 3846,-4264 0,-793 63,-498 -278,-1214 0,-4924 4,-9849 7,-14774 0,-359 69,-955 -209,-1134 -669,-427 -663,-819 -129,-1182 420,-286 274,-1748 262,-2320 -92,-4448 -1289,-9043 -2034,-13763 -200,-1264 -91,-1009 -975,-1944l-587 -619c-173,-183 -147,-127 -147,-380l0 -1405c-1188,108 -2363,107 -3525,0z"/>
   <path class="fil2 str2" d="M92410 46708c-92,-33 -111,210 -129,335 -687,4864 -1785,9158 -1830,13739 -3,310 -95,2089 152,2239 691,419 700,847 -22,1285 -228,138 -174,827 -174,1112 0,4925 0,9850 0,14774 -282,558 -275,488 -275,1112 87,2259 384,8396 3633,4366 1360,2387 2667,2548 3979,0 3276,4032 3845,-2206 3846,-4264 0,-793 63,-498 -278,-1214 0,-4924 4,-9849 7,-14774 0,-359 69,-955 -209,-1134 -669,-427 -663,-819 -129,-1182 420,-286 274,-1748 262,-2320 -92,-4448 -1289,-9043 -2034,-13763 -18,-115 -33,-287 -118,-323 -1085,-457 -2187,-424 -3303,6 -746,288 -1564,674 -3378,6z"/>
   <line class="fil0 str3" x1="97204" y1="47831" x2="97950" y2= "58486" />
   <path class="fil0 str3" d="M91366 80451c1520,371 3097,577 4745,581"/>
   <path class="fil2 str4" d="M93705 39780c1355,-153 2711,-153 4066,0 80,9 147,66 147,147l0 1886c0,81 -67,138 -147,147 -1281,148 -2632,158 -4066,0 -81,-9 -147,-66 -147,-147l0 -1886c0,-81 66,-138 147,-147z"/>
   <g>
    <line class="fil3 str5" x1="93902" y1="40064" x2="93902" y2= "40330" />
    <line class="fil3 str5" x1="94269" y1="40036" x2="94269" y2= "40464" />
    <line class="fil3 str5" x1="94636" y1="40013" x2="94636" y2= "40597" />
    <line class="fil3 str5" x1="95371" y1="39989" x2="95371" y2= "40864" />
    <line class="fil3 str5" x1="95004" y1="39998" x2="95004" y2= "40744" />
    <line class="fil3 str5" x1="95738" y1="39986" x2="95738" y2= "40997" />
    <line class="fil3 str5" x1="96105" y1="39989" x2="96105" y2= "41131" />
    <line class="fil3 str5" x1="96472" y1="39998" x2="96472" y2= "41277" />
    <line class="fil3 str5" x1="96839" y1="40014" x2="96839" y2= "41397" />
    <line class="fil3 str5" x1="97574" y1="40064" x2="97574" y2= "41664" />
    <line class="fil3 str5" x1="97207" y1="40036" x2="97207" y2= "41531" />
   </g>
   <line class="fil0 str4" x1="97204" y1="47836" x2="97950" y2= "58492" />
   <path class="fil0 str4" d="M91596 63802c1325,203 2736,323 4263,327"/>
   <path class="fil0 str4" d="M91366 80457c1520,370 3097,577 4745,581"/>
   <polygon class="fil4 str6" points="76491,22727 115228,22727 115228,23800 76491,23800 "/>
   <path class="fil4 str6" d="M76491 22010c692,0 1253,561 1253,1253 0,692 -561,1253 -1253,1253 -692,0 -1253,-561 -1253,-1253 0,-692 561,-1253 1253,-1253z"/>
   <path class="fil4 str6" d="M115228 22010c692,0 1253,561 1253,1253 0,692 -561,1253 -1253,1253 -692,0 -1253,-561 -1253,-1253 0,-692 561,-1253 1253,-1253z"/>
   <polygon class="fil1 str0" points="79719,22083 112000,22083 112000,27299 79719,27299 "/>
   <line class="fil0 str7" x1="79719" y1="27299" x2="112000" y2= "27299" />
   <line class="fil0 str7" x1="80122" y1="27299" x2="80122" y2= "112948" />
   <line class="fil0 str7" x1="111597" y1="27299" x2="111597" y2= "112948" />
   <g>
    <polyline class="fil0 str8" points="80122,112948 81736,111477 83754,113324 85772,111477 "/>
    <polyline class="fil0 str8" points="85772,111477 87789,113324 89807,111477 91824,113324 93842,111477 "/>
    <polyline class="fil0 str8" points="93842,111477 95859,113324 97877,111477 99895,113324 101912,111477 "/>
    <polyline class="fil0 str8" points="101912,111477 103930,113324 105947,111477 107965,113324 109982,111477 "/>
    <line class="fil0 str8" x1="109982" y1="111477" x2="111597" y2= "112948" />
   </g>
   <path class="fil1" d="M97133 68587l57 -34c27,46 39,91 33,135 -5,44 -25,84 -60,119 -37,36 -74,59 -112,67 -37,8 -76,3 -116,-13 -41,-16 -77,-40 -109,-73 -36,-35 -60,-73 -73,-113 -12,-39 -13,-79 -2,-117 11,-39 32,-73 62,-103 34,-34 71,-54 111,-59 41,-6 81,2 122,24l-34 55c-33,-17 -62,-24 -88,-20 -26,4 -51,17 -74,39 -26,26 -41,55 -46,84 -5,30 -1,60 13,88 14,28 33,53 55,75 29,29 58,50 88,63 30,14 59,17 87,10 29,-7 53,-21 74,-42 25,-25 39,-53 42,-85 3,-32 -7,-65 -30,-100zm-117 -324l45 -45 145 145 81 -81c53,-53 97,-78 134,-75 36,3 67,17 91,42 27,26 41,58 43,96 1,37 -22,80 -70,129l-129 129 -340 -340zm346 256l82 -81c28,-29 44,-54 47,-76 3,-22 -6,-44 -26,-64 -15,-15 -30,-23 -48,-25 -17,-1 -33,2 -48,12 -14,10 -36,28 -64,57l-60 60 117 117zm-50 -552l45 -45 340 340 -45 45 -340 -340zm461 219l-340 -340 129 -128c22,-23 40,-39 55,-49 19,-13 38,-22 57,-26 19,-3 39,-1 60,6 21,7 40,19 57,36 29,28 44,62 45,100 2,39 -21,82 -69,130l-87 87 138 138 -45 46zm-133 -224l87 -87c29,-30 45,-56 46,-79 1,-23 -8,-44 -27,-63 -15,-15 -30,-23 -48,-26 -17,-3 -33,0 -48,8 -10,6 -25,19 -45,39l-87 87 122 121zm260 -234c-57,-56 -85,-115 -87,-177 -2,-63 22,-117 69,-165 32,-32 68,-52 108,-63 40,-10 80,-8 120,5 40,14 77,38 111,72 34,34 58,72 71,113 13,41 14,81 3,120 -12,40 -33,74 -62,104 -32,32 -68,53 -109,62 -40,10 -81,8 -120,-6 -40,-13 -74,-35 -104,-65zm47 -45c41,40 84,62 129,63 46,2 85,-14 118,-47 34,-34 50,-74 48,-119 -2,-46 -24,-90 -68,-134 -28,-28 -56,-47 -86,-58 -30,-12 -60,-14 -89,-7 -29,7 -55,21 -77,43 -32,32 -49,70 -50,115 -1,45 24,93 75,144zm501 -173l-339 -339 245 -246 40 40 -200 200 104 105 187 -188 40 40 -187 187 116 116 208 -208 40 40 -254 253zm754 -754l-118 118 -129 -46c-30,-11 -50,-17 -61,-16 -10,0 -20,5 -30,14l134 134 -104 105 -340 -340 105 -104 130 130c9,-10 13,-20 12,-31 -1,-11 -10,-36 -28,-76 -13,-29 -21,-52 -22,-69 -1,-17 6,-37 20,-59 14,-22 40,-52 78,-91l72 72 -5 5c-18,18 -28,35 -30,50 -2,16 2,34 12,54 10,21 15,39 16,52 1,14 -2,29 -8,45 20,-10 42,-15 65,-14 23,1 54,8 92,21l139 46zm-145 -193c-56,-56 -83,-114 -83,-176 0,-62 27,-120 83,-175 56,-57 115,-85 176,-86 61,0 118,27 173,82 40,40 65,79 77,118 12,38 13,77 2,117 -11,39 -36,78 -73,115 -39,39 -76,64 -114,77 -37,13 -77,14 -119,3 -42,-11 -82,-36 -122,-75zm105 -105c34,34 65,52 93,55 28,2 52,-8 74,-30 23,-23 33,-47 31,-74 -2,-27 -23,-60 -60,-98 -32,-32 -62,-49 -90,-50 -28,-2 -52,8 -74,30 -22,21 -31,46 -29,73 2,28 20,59 55,94zm501 -532c52,-29 98,-24 138,16 33,33 48,73 43,120 -4,47 -30,93 -76,140 -80,80 -163,96 -249,48l92 -106c29,18 57,14 83,-12 14,-15 22,-29 22,-44 0,-15 -6,-29 -19,-42 -13,-12 -28,-18 -45,-16 -17,2 -34,11 -50,27l-29 28 -60 -60 22 -23c14,-13 21,-27 21,-42 1,-15 -5,-28 -18,-41 -18,-18 -39,-16 -62,7 -23,24 -27,48 -9,74l-105 83c-44,-75 -27,-150 49,-226 42,-42 83,-67 124,-74 40,-8 74,2 101,30 34,33 43,71 27,113zm194 -242l56 -56c52,-52 99,-81 142,-87 43,-7 84,9 122,47 31,31 44,67 38,106 -7,39 -31,80 -74,123l-180 180 -339 -339 105 -105 130 131zm136 135l54 -53c32,-33 37,-61 13,-85 -21,-21 -47,-15 -80,18l-54 54 67 66zm-5 -528l281 -280 72 72 -175 176 54 54 163 -163 69 69 -163 163 67 67 181 -181 77 77 -286 286 -340 -340zm-10024 11260l657 -658 1231 731 -730 -1232 655 -654 1612 1612 -408 408 -1229 -1229 915 1543 -369 370 -1544 -916 1230 1229 -408 408 -1612 -1612zm2874 -1260c-263,-263 -395,-541 -394,-834 0,-294 131,-571 393,-833 268,-269 547,-404 836,-405 289,-1 564,128 823,388 188,188 311,374 368,558 57,184 59,370 7,557 -53,187 -169,370 -348,549 -182,181 -361,303 -539,365 -177,60 -365,66 -565,14 -198,-51 -393,-171 -581,-359zm499 -497c162,163 310,250 441,260 132,10 250,-37 355,-141 107,-107 155,-225 144,-353 -11,-129 -106,-283 -287,-463 -151,-152 -293,-232 -424,-241 -132,-8 -249,40 -355,145 -100,100 -145,217 -135,349 9,132 97,280 261,444zm3727 -2119l-498 498 -1216 -1216 -389 389 495 496c204,204 343,365 417,482 74,117 94,238 59,362 -35,125 -141,275 -318,453 -54,54 -123,110 -205,169l-327 -327 75 -74c67,-68 100,-130 98,-188 -2,-57 -43,-125 -122,-205l-1066 -1066 1385 -1385 1612 1612zm-539 -1071c-263,-263 -395,-541 -394,-835 0,-293 131,-570 393,-832 268,-269 547,-404 836,-405 289,-1 564,128 823,388 188,188 311,374 368,558 57,184 59,370 7,556 -53,188 -169,371 -348,550 -182,181 -361,303 -539,364 -177,61 -365,67 -564,15 -199,-51 -393,-171 -582,-359zm499 -497c162,163 310,249 441,260 132,10 250,-37 355,-141 107,-107 155,-225 144,-353 -11,-129 -106,-283 -287,-464 -151,-151 -293,-231 -424,-240 -131,-8 -249,40 -354,145 -101,100 -146,217 -136,349 9,132 97,280 261,444zm3711 -2103l-561 561 -611 -219c-144,-54 -241,-80 -291,-79 -50,0 -98,23 -142,68l637 637 -498 498 -1612 -1613 497 -497 620 619c41,-45 59,-95 55,-147 -5,-53 -49,-173 -133,-360 -63,-137 -97,-247 -103,-329 -5,-81 25,-174 92,-279 67,-105 192,-249 375,-432l340 340 -25 25c-85,85 -132,164 -141,238 -9,73 10,159 56,258 46,99 71,180 76,247 6,66 -7,136 -39,209 95,-48 199,-70 309,-66 112,4 258,37 440,99l659 222zm-690 -920c-263,-263 -395,-541 -394,-835 0,-293 131,-571 393,-832 268,-269 547,-404 836,-405 289,-1 564,128 823,388 189,188 311,374 368,558 57,184 59,369 7,556 -53,188 -169,371 -348,550 -182,181 -361,303 -539,364 -177,61 -365,66 -564,15 -199,-51 -393,-171 -582,-359zm499 -497c163,163 310,249 441,260 132,10 250,-37 355,-141 107,-107 155,-225 144,-353 -11,-129 -106,-283 -287,-464 -151,-151 -293,-231 -424,-240 -131,-8 -249,40 -354,145 -101,100 -146,217 -136,349 9,132 97,280 261,444zm-7805 10975l-84 84 -74 -74 -217 217 74 74 -84 84 -152 -152 35 -35c-35,-75 -87,-146 -156,-215l-76 -76 284 -284 262 261 36 -37 152 153zm-293 -11l-178 -178 -84 84 4 5c47,47 97,112 150,197l108 -108zm78 -261c-56,-55 -83,-114 -83,-175 0,-62 27,-121 83,-176 56,-56 115,-85 176,-85 60,0 118,27 173,82 40,39 65,79 77,117 12,39 13,78 2,117 -11,40 -36,78 -74,116 -38,38 -76,64 -113,77 -37,13 -77,14 -119,3 -42,-11 -83,-36 -122,-76zm105 -104c34,34 65,52 93,54 27,3 52,-7 74,-29 23,-23 33,-48 31,-75 -2,-27 -23,-59 -61,-97 -32,-32 -61,-49 -89,-51 -28,-2 -52,9 -75,31 -21,21 -30,45 -28,73 2,28 20,59 55,94zm132 -473l138 -138 260 154 -154 -260 138 -138 339 340 -86 86 -258 -259 192 325 -78 78 -324 -193 258 259 -85 86 -340 -340zm941 -374l-119 119 39 73 -107 107 -212 -467 115 -115 467 212 -110 110 -73 -39zm-96 -51l-159 -85 85 159 74 -74zm769 -510l-457 457 -339 -340 105 -104 256 256 70 -71 -256 -256 105 -105 256 256 72 -71 -256 -256 104 -105 340 339zm-270 -409l105 -105 118 119 115 -115 -119 -118 106 -106 339 340 -105 105 -138 -137 -114 114 137 138 -105 105 -339 -340zm719 -719l340 339 -99 99 -186 -186 60 312 -100 100 -339 -340 99 -99 188 188 -61 -315 98 -98zm70 -70l281 -281 73 73 -176 175 54 54 163 -162 69 69 -163 162 67 67 181 -180 77 76 -286 286 -340 -339zm-2270 3630l266 -267 339 340 -45 45 -299 -300 -177 177 300 299 -45 45 -339 -339zm679 -1l-339 -339 128 -129c23,-22 41,-38 55,-48 19,-14 39,-23 58,-26 19,-4 39,-2 60,5 21,7 39,19 56,36 29,29 44,63 46,101 1,38 -22,81 -70,129l-87 88 138 138 -45 45zm-133 -223l88 -88c29,-29 44,-55 45,-78 2,-23 -7,-44 -27,-64 -14,-14 -30,-23 -47,-26 -17,-3 -34,0 -49,9 -9,5 -24,18 -44,39l-87 86 121 122zm260 -234c-56,-57 -85,-116 -87,-178 -1,-62 22,-117 70,-165 31,-31 67,-52 107,-62 40,-10 80,-9 120,5 40,13 77,37 111,71 34,34 58,72 71,113 14,41 15,81 3,121 -11,39 -32,74 -62,103 -32,32 -68,53 -108,63 -41,10 -81,8 -121,-6 -39,-14 -74,-35 -104,-65zm47 -46c41,41 84,62 130,64 45,1 85,-15 118,-48 34,-34 50,-73 48,-119 -2,-45 -25,-90 -69,-134 -27,-27 -56,-47 -86,-58 -30,-11 -59,-13 -88,-7 -30,7 -56,21 -78,44 -32,32 -48,70 -49,115 -1,44 23,92 74,143zm182 -531l207 -207 299 300 31 -31 119 119 -40 40 -79 -79 -225 225 79 79 -40 40 -119 -119 26 -27c-13,-68 -83,-165 -208,-291l-50 -49zm201 -122l-118 118 17 18c29,29 66,71 111,126 45,55 76,107 93,154l157 -156 -260 -260zm60 -140l45 -45 320 98 -112 -306 44 -44 137 391c17,49 26,84 26,104 0,21 -9,40 -28,59 -12,12 -29,23 -51,35l-38 -39c19,-5 35,-14 48,-27 11,-11 17,-24 18,-39 1,-15 -6,-40 -22,-75l-387 -112zm337 -336l45 -45 149 149c20,-21 30,-39 31,-56 0,-16 -8,-46 -26,-89 -13,-32 -21,-55 -24,-71 -3,-15 -2,-31 3,-49 5,-17 14,-33 28,-47 17,-17 27,-26 28,-26l39 39c-2,1 -5,4 -10,8 -5,5 -8,8 -9,9 -14,14 -21,29 -21,42 0,15 6,37 20,69 17,40 26,68 25,84 0,15 -4,30 -10,46 28,-16 70,-17 126,-4l183 43 -56 56 -149 -35c-41,-10 -72,-15 -92,-14 -20,1 -38,10 -55,26l159 159 -45 45 -339 -339zm701 -22l-300 -300 -112 112 -40 -40 269 -269 40 40 -112 112 300 300 -45 45zm-134 -545l45 -45 144 144 81 -81c53,-53 98,-78 134,-75 37,3 67,17 92,42 27,26 41,58 42,96 2,37 -21,80 -70,129l-129 129 -339 -339zm346 256l82 -82c28,-28 44,-54 47,-76 3,-22 -6,-43 -27,-64 -14,-14 -30,-22 -47,-24 -17,-2 -33,2 -48,11 -15,10 -36,29 -65,57l-60 60 118 118zm-50 -553l45 -45 340 340 -45 45 -340 -340zm-1640 3147l56 -56c51,-51 98,-80 141,-87 43,-7 84,9 122,47 31,32 44,67 38,106 -6,40 -31,81 -73,123l-181 181 -339 -340 286 -286 69 69 -182 181 63 62zm135 136l54 -54c33,-33 37,-61 13,-85 -20,-21 -47,-15 -80,18l-54 54 67 67zm-3 -530l281 -281 72 73 -175 175 54 54 163 -163 69 70 -163 162 67 67 181 -181 77 77 -286 286 -340 -339zm710 -401c52,-29 98,-24 138,16 34,33 48,73 44,120 -5,47 -30,93 -77,140 -79,80 -162,96 -248,48l91 -106c30,18 57,14 83,-12 15,-15 22,-29 22,-44 1,-15 -6,-29 -19,-42 -12,-12 -27,-18 -44,-16 -18,2 -34,11 -51,27l-28 28 -61 -60 23 -23c13,-13 20,-27 21,-42 0,-15 -6,-28 -18,-41 -18,-18 -39,-16 -62,7 -24,24 -27,48 -10,74l-104 82c-44,-74 -28,-149 48,-225 43,-42 84,-67 124,-74 40,-8 74,2 102,30 33,33 42,71 26,113zm93 -402l266 -266 340 339 -45 45 -300 -300 -176 177 299 299 -45 46 -339 -340zm501 -152c-57,-57 -85,-116 -87,-178 -2,-62 22,-117 69,-165 32,-31 68,-52 108,-62 40,-10 80,-9 120,5 40,13 77,37 111,71 34,34 58,72 71,113 13,41 14,81 3,121 -12,39 -32,74 -62,103 -32,32 -68,53 -109,63 -40,10 -81,8 -120,-6 -40,-14 -74,-35 -104,-65zm47 -46c41,41 84,62 129,64 46,1 85,-15 118,-48 34,-34 50,-73 48,-119 -2,-45 -24,-90 -68,-134 -28,-27 -56,-47 -86,-58 -30,-11 -60,-13 -89,-7 -29,7 -55,21 -77,44 -32,32 -49,70 -50,115 -1,44 24,92 75,143zm623 -532l57 -34c27,46 38,91 33,135 -5,44 -25,83 -60,119 -37,36 -74,58 -112,66 -38,8 -77,4 -117,-12 -40,-16 -76,-41 -109,-73 -35,-35 -59,-73 -72,-113 -13,-40 -13,-79 -2,-117 11,-39 32,-73 62,-103 34,-34 71,-54 111,-60 41,-5 81,3 121,25l-33 54c-33,-16 -62,-23 -88,-19 -27,3 -51,17 -74,39 -26,26 -41,54 -46,84 -5,30 -1,59 13,87 14,29 32,54 55,76 29,29 58,50 88,63 30,13 59,16 87,9 29,-7 53,-20 74,-41 25,-25 39,-54 42,-86 2,-31 -7,-65 -30,-99zm220 18l-340 -339 129 -129c22,-22 40,-38 55,-48 19,-14 38,-23 57,-26 19,-4 39,-2 60,5 21,7 40,19 57,36 29,29 44,63 45,101 2,38 -21,81 -69,129l-87 88 138 138 -45 45zm-133 -223l87 -88c29,-29 45,-55 46,-78 1,-23 -8,-44 -27,-64 -14,-14 -30,-23 -48,-26 -17,-3 -33,0 -48,9 -10,5 -25,18 -45,39l-87 86 122 122zm450 -94l-339 -340 245 -245 40 40 -200 200 104 104 187 -187 40 40 -187 187 115 116 208 -208 40 40 -253 253zm7 -686l206 -206 300 299 30 -30 119 119 -39 40 -80 -79 -224 224 79 79 -40 40 -119 -119 26 -26c-14,-69 -83,-166 -209,-291l-49 -50zm201 -122l-118 119 17 17c29,29 66,71 111,127 45,55 76,107 93,154l157 -157 -260 -260zm430 170l-339 -340 45 -45 140 140 175 -175 -140 -140 45 -45 340 339 -45 45 -160 -160 -175 176 159 160 -45 45zm2 -681l41 -41 269 269 -88 -450 44 -44 340 339 -41 41 -268 -268 88 448 -45 45 -340 -339zm341 -341l45 -45 149 149c20,-21 31,-39 31,-56 1,-16 -8,-46 -25,-89 -13,-32 -21,-55 -24,-70 -3,-16 -2,-32 3,-50 5,-17 14,-33 28,-46 17,-18 26,-27 27,-27l39 39c-1,1 -4,4 -9,8 -5,5 -8,8 -9,9 -15,15 -22,29 -22,43 0,14 7,37 20,68 18,41 26,68 26,84 -1,15 -4,30 -10,46 27,-16 69,-17 125,-4l183 43 -56 56 -149 -35c-41,-10 -71,-15 -91,-14 -20,1 -39,10 -55,26l159 159 -45 45 -340 -339zm431 -82c-57,-56 -86,-116 -87,-178 -2,-62 21,-117 69,-165 32,-31 67,-52 107,-62 41,-10 81,-8 121,5 39,14 76,37 110,71 35,35 59,72 72,113 13,41 14,82 2,121 -11,40 -32,74 -61,103 -32,32 -68,53 -109,63 -41,10 -81,8 -120,-6 -40,-14 -75,-35 -104,-65zm47 -46c41,41 84,62 129,64 46,1 85,-14 118,-48 34,-34 50,-73 48,-119 -2,-45 -25,-90 -68,-133 -28,-28 -57,-47 -86,-59 -30,-11 -60,-13 -89,-6 -29,6 -55,21 -78,43 -31,32 -48,70 -49,115 -1,45 24,92 75,143zm498 -169l-339 -340 127 -127c26,-26 50,-44 73,-52 23,-9 45,-11 69,-5 23,5 42,15 58,31 14,14 24,32 29,53 5,20 3,43 -5,66 27,-14 53,-20 79,-16 25,3 48,15 67,35 16,16 28,34 35,54 7,20 9,39 6,57 -2,17 -9,35 -20,53 -11,19 -27,39 -49,61l-130 130zm-151 -242l73 -74c20,-20 33,-35 39,-46 8,-15 11,-30 9,-43 -2,-14 -9,-27 -21,-39 -12,-11 -24,-18 -38,-21 -14,-4 -28,-2 -41,5 -13,7 -32,23 -56,47l-68 68 103 103zm157 157l84 -85c15,-14 24,-25 29,-32 9,-12 14,-24 17,-35 2,-12 2,-24 -2,-36 -4,-13 -11,-25 -22,-36 -13,-13 -27,-20 -43,-23 -16,-3 -31,-1 -47,7 -15,8 -33,22 -55,44l-78 79 117 117z"/>
   <path class="fil2" d="M88877 103991l753 0 0 960 -127 0 0 -847 -499 0 0 847 -127 0 0 -960zm1335 960l0 -960 362 0c64,0 113,3 146,9 48,8 87,23 119,45 32,22 58,53 77,92 20,40 29,84 29,131 0,82 -26,151 -78,207 -52,57 -146,85 -282,85l-246 0 0 391 -127 0zm127 -504l248 0c82,0 141,-15 175,-46 35,-30 52,-73 52,-129 0,-40 -10,-74 -30,-103 -21,-29 -48,-48 -81,-57 -21,-5 -61,-8 -118,-8l-246 0 0 343zm1071 37c0,-159 43,-284 129,-374 86,-90 196,-135 331,-135 89,0 169,21 240,63 71,43 126,102 163,177 37,76 56,162 56,258 0,97 -20,184 -59,261 -39,77 -95,135 -167,174 -72,40 -150,59 -233,59 -91,0 -171,-22 -243,-65 -71,-44 -125,-103 -162,-179 -36,-75 -55,-155 -55,-239zm132 2c0,116 31,207 93,273 62,66 140,100 234,100 96,0 174,-34 236,-101 62,-67 93,-162 93,-285 0,-78 -14,-147 -40,-205 -26,-58 -65,-103 -116,-135 -51,-32 -108,-48 -171,-48 -90,0 -167,31 -232,92 -65,62 -97,165 -97,309zm1326 -495l115 0 0 760 511 -760 126 0 0 960 -115 0 0 -758 -510 758 -127 0 0 -960zm1281 689l121 -30c9,46 34,92 73,139 41,46 93,70 159,70 67,0 120,-17 159,-52 39,-35 58,-76 58,-125 0,-53 -20,-95 -61,-126 -41,-32 -96,-47 -167,-47l-60 0 0 -112c58,0 102,-3 133,-10 31,-6 58,-24 82,-51 24,-28 36,-59 36,-95 0,-41 -16,-78 -49,-108 -32,-31 -76,-47 -131,-47 -48,0 -89,12 -123,37 -34,24 -58,56 -71,96 -13,40 -19,70 -19,90l-122 -28c30,-204 142,-306 336,-306 94,0 168,26 222,78 55,52 83,113 83,183 0,89 -43,159 -127,208 49,13 90,41 123,83 33,41 49,91 49,149 0,83 -32,152 -96,208 -63,55 -148,83 -254,83 -181,0 -299,-95 -354,-287zm1230 271l0 -960 360 0c73,0 132,10 177,29 44,20 79,50 104,90 25,40 37,82 37,127 0,41 -11,79 -33,115 -22,37 -56,66 -101,88 59,17 103,46 134,87 32,41 47,90 47,146 0,45 -9,87 -28,125 -19,39 -43,69 -71,90 -28,21 -63,36 -105,47 -42,11 -94,16 -155,16l-366 0zm127 -556l208 0c56,0 97,-4 121,-11 32,-10 57,-26 73,-49 16,-22 25,-50 25,-84 0,-32 -8,-60 -23,-84 -16,-24 -38,-41 -66,-50 -28,-9 -77,-13 -146,-13l-192 0 0 291zm0 444l239 0c41,0 70,-2 87,-5 29,-5 54,-14 73,-26 20,-13 36,-30 49,-54 13,-23 19,-50 19,-81 0,-36 -9,-67 -28,-94 -18,-26 -44,-45 -76,-56 -33,-10 -80,-16 -141,-16l-222 0 0 332zm1148 112l0 -960 693 0 0 113 -566 0 0 295 530 0 0 112 -530 0 0 328 589 0 0 112 -716 0zm1351 -960l585 0 0 848 86 0 0 336 -113 0 0 -224 -635 0 0 224 -113 0 0 -336 74 0c78,-117 116,-353 116,-708l0 -140zm458 113l-336 0 0 49c0,82 -7,194 -22,336 -14,142 -43,258 -86,350l444 0 0 -735zm739 847l0 -960 693 0 0 113 -566 0 0 295 530 0 0 112 -530 0 0 328 589 0 0 112 -716 0zm1269 0l0 -960 128 0 0 396 496 0 0 -396 127 0 0 960 -127 0 0 -452 -496 0 0 452 -128 0zm1297 -467c0,-159 43,-284 129,-374 85,-90 196,-135 331,-135 89,0 169,21 240,63 71,43 125,102 163,177 37,76 56,162 56,258 0,97 -20,184 -59,261 -40,77 -95,135 -167,174 -72,40 -150,59 -234,59 -90,0 -171,-22 -242,-65 -71,-44 -125,-103 -162,-179 -37,-75 -55,-155 -55,-239zm132 2c0,116 31,207 93,273 62,66 140,100 234,100 95,0 174,-34 236,-101 61,-67 92,-162 92,-285 0,-78 -13,-147 -39,-205 -27,-58 -65,-103 -116,-135 -51,-32 -108,-48 -171,-48 -90,0 -167,31 -232,92 -65,62 -97,165 -97,309zm-14407 2358l188 58c-29,106 -77,184 -144,236 -67,51 -152,77 -255,77 -128,0 -233,-44 -315,-131 -82,-87 -123,-206 -123,-358 0,-160 41,-284 124,-372 82,-89 191,-133 325,-133 118,0 213,35 287,104 44,41 76,100 98,177l-192 46c-11,-50 -35,-89 -71,-118 -36,-29 -80,-43 -131,-43 -71,0 -129,26 -174,77 -44,51 -66,133 -66,248 0,121 22,208 65,259 44,52 101,77 171,77 51,0 96,-16 133,-49 37,-33 64,-84 80,-155zm727 354l0 -960 711 0 0 163 -517 0 0 213 480 0 0 162 -480 0 0 260 535 0 0 162 -729 0zm1264 0l0 -960 292 0 172 655 170 -655 292 0 0 960 -180 0 -1 -755 -189 755 -187 0 -188 -755 -1 755 -180 0zm1493 0l0 -960 710 0 0 163 -516 0 0 213 480 0 0 162 -480 0 0 260 535 0 0 162 -729 0zm1269 -960l181 0 0 640 389 -640 193 0 0 960 -181 0 0 -628 -389 628 -193 0 0 -960zm497 -277l89 0c-5,59 -26,106 -62,139 -37,34 -84,51 -142,51 -58,0 -105,-17 -141,-51 -37,-33 -58,-80 -63,-139l90 0c3,31 14,54 33,70 18,16 46,24 81,24 36,0 63,-8 82,-24 19,-16 29,-39 33,-70zm837 1237l0 -960 195 0 0 378 378 0 0 -378 194 0 0 960 -194 0 0 -419 -378 0 0 419 -195 0zm2206 0l-209 0 -83 -218 -385 0 -80 218 -206 0 373 -960 206 0 384 960zm-355 -380l-134 -356 -129 356 263 0zm1405 380l0 -400 -39 0c-62,0 -105,9 -130,27 -25,18 -68,73 -129,164l-139 209 -232 0 117 -187c46,-74 83,-126 110,-156 28,-30 62,-57 103,-80 -89,-14 -153,-45 -193,-94 -39,-48 -59,-106 -59,-173 0,-58 15,-110 44,-155 30,-46 68,-76 117,-91 48,-16 120,-24 216,-24l409 0 0 960 -195 0zm0 -797l-151 0c-77,0 -127,1 -152,5 -24,3 -45,15 -62,35 -18,20 -26,47 -26,79 0,34 8,61 25,80 17,20 38,33 64,37 26,5 79,8 159,8l143 0 0 -244zm2078 685l0 112 -190 0 0 -112c-154,-6 -262,-44 -325,-114 -64,-70 -95,-157 -95,-263 0,-111 33,-199 99,-266 66,-67 173,-104 321,-109l0 -96 190 0 0 96c153,5 261,43 324,112 64,69 96,158 96,264 0,106 -32,193 -95,263 -64,69 -172,107 -325,113zm0 -162c51,0 94,-9 131,-26 37,-17 63,-40 78,-69 15,-28 23,-70 23,-126 0,-138 -77,-207 -232,-207l0 428zm-190 0l0 -428c-83,0 -141,18 -178,54 -36,37 -54,92 -54,165 0,139 77,209 232,209zm1137 274l0 -960 711 0 0 163 -516 0 0 213 480 0 0 162 -480 0 0 260 535 0 0 162 -730 0zm1267 0l0 -960 311 0c118,0 195,5 230,15 55,14 101,45 138,94 38,48 56,110 56,187 0,59 -11,108 -32,148 -21,41 -48,72 -81,95 -33,23 -67,38 -101,46 -46,9 -113,13 -200,13l-126 0 0 362 -195 0zm195 -797l0 273 105 0c77,0 127,-5 153,-15 26,-10 46,-26 60,-47 15,-22 22,-47 22,-75 0,-35 -10,-64 -30,-87 -21,-23 -47,-37 -78,-43 -23,-4 -69,-6 -139,-6l-93 0zm1052 797l0 -960 291 0 172 655 170 -655 292 0 0 960 -179 0 -1 -755 -189 755 -187 0 -189 -755 0 755 -180 0zm2357 0l-209 0 -83 -218 -385 0 -80 218 -206 0 373 -960 206 0 384 960zm-355 -380l-134 -356 -129 356 263 0z"/>
   <path class="fil2" d="M94309 98507l0 0zm-2543 -3838l0 -178c43,-155 204,-192 219,-454 8,-142 43,-194 166,-315 -149,-108 -358,-299 -277,-506 146,-46 239,214 482,287 258,-350 460,-1021 1014,-1020 -47,174 -507,533 -587,861 390,-106 515,-548 1252,-548 -28,309 -976,409 -1095,900 347,-84 538,-504 782,-391 123,276 -277,452 -463,600 162,332 714,655 1126,653 290,-1 609,-30 887,13 331,51 372,160 758,144 486,-21 1056,-155 1499,-302 709,-235 1126,262 1487,78 91,-272 -138,-503 -284,-707 184,30 318,95 466,209 208,160 237,143 352,446 75,125 7,266 -95,413 -176,257 -75,253 -60,528 19,356 -382,808 233,1484 283,310 88,54 245,423 146,343 -32,113 25,397 30,151 118,299 190,421 -153,345 -298,679 -763,352 42,-261 394,-284 201,-826 -100,-281 -291,-496 -527,-653 -185,238 -3,180 -339,444 -9,76 8,355 16,403 35,217 75,64 -61,291 -289,484 -341,240 -669,234 28,-320 478,-470 287,-951 -74,-188 -358,-319 -532,-766 -373,219 -1443,396 -1896,338 -194,-25 -450,-103 -636,-107 -64,267 -57,589 -97,803 -64,345 -141,423 67,771l-162 40c68,143 72,511 -558,289l82 -172c-214,-23 -140,37 -192,-88 -152,-58 -24,-145 40,-271 160,-314 134,-823 139,-1144 4,-246 -155,-422 -326,-590 -184,-180 -271,-350 -394,-492 -286,-441 -397,-268 -502,-763 -208,22 94,46 -130,125l-50 -226c-73,133 24,63 -97,107l-49 -227c-112,-33 66,8 -116,71l-2 -306 -273 0c-1,259 39,335 -11,614 -62,344 -104,157 -68,559 -127,-90 -63,-107 -123,-172 -127,-139 97,86 -119,-24 164,-277 -173,-299 -36,-572l-122 27 52 -240c-146,-80 -262,-3 -330,-217 -12,-36 -20,-68 -26,-97zm7784 -230l0 0z"/>
  </g>
 </g>
</svg>
