<?xml version="1.0" encoding="UTF-8"?>
<!DOCTYPE svg PUBLIC "-//W3C//DTD SVG 1.1//EN" "http://www.w3.org/Graphics/SVG/1.1/DTD/svg11.dtd">
<!-- Creator: CorelDRAW X7 -->
<svg xmlns="http://www.w3.org/2000/svg" xml:space="preserve" width="1999px" height="330px" version="1.1" style="shape-rendering:geometricPrecision; text-rendering:geometricPrecision; image-rendering:optimizeQuality; fill-rule:evenodd; clip-rule:evenodd"
viewBox="0 0 262312 43322"
 xmlns:xlink="http://www.w3.org/1999/xlink">
 <defs>
  <style type="text/css">
   <![CDATA[
    .fil4 {fill:none}
    .fil1 {fill:none;fill-rule:nonzero}
    .fil2 {fill:#5B5A50;fill-rule:nonzero}
    .fil3 {fill:#78C6EF;fill-rule:nonzero}
    .fil0 {fill:#EB7E6D;fill-rule:nonzero}
   ]]>
   	 .fil0 
	 {	opacity: 1; font-weight: 900; 
		 -webkit-animation: blink 2s infinite; 
		 -moz-animation: blink 2s infinite;
		 -ms-animation: blink 2s infinite;
		 -o-animation: blink 2s infinite;
		 animation: blink 2s infinite;}
		@-keyframes blink {0%, 100% {opacity: 1;}50% {opacity: 0.1;}}
		@-webkit-keyframes blink {0%, 100% {opacity: 1;}50% {opacity: 0.1;}}
		@-moz-keyframes blink {0%, 100% {opacity: 1;}50% {opacity: 0.1;}}
		@-ms-keyframes blink {0%, 100% {opacity: 1;}50% {opacity: 0.1;}}
		@-o-keyframes blink {0%, 100% {opacity: 1;}50% {opacity: 0.1;}}   
  </style>
 </defs>
 <g id="Слой_x0020_1">
  <metadata id="CorelCorpID_0Corel-Layer"/>
  <path class="fil0" d="M108339 21640l644 1628c39,106 -11,229 -118,269 -106,44 -229,-12 -274,-118l-599 -1522c-1001,666 -2193,991 -3446,985l0 0 -34 0c-246,0 -448,-201 -442,-448 0,-246 196,-447 448,-447l33 0c1444,5 2781,-482 3755,-1517 990,-1046 1617,-2658 1639,-4885l0 -61c6,-1421 -224,-2954 -985,-4264 -755,-1303 -2042,-2400 -4168,-2982 -1052,-291 -2395,157 -3648,1181 -1203,990 -2311,2506 -2988,4420 -84,235 -342,358 -571,274 -235,-84 -358,-336 -274,-571 263,-738 587,-1426 951,-2053l-3704 -3245c-90,-79 -101,-213 -23,-297 79,-90 207,-95 297,-22l3654 3200c582,-912 1253,-1678 1964,-2283l-2854 -4554c-61,-101 -33,-230 67,-292 95,-61 224,-27 286,68l2825 4510c761,-588 1561,-991 2334,-1181l-996 -7196c-17,-117 61,-224 179,-235 112,-16 218,62 235,179l990 7168c532,-84 1041,-61 1511,67 610,168 1158,375 1656,610l2977 -7794c39,-107 162,-163 268,-123 107,44 163,162 123,274l-2993 7839c1231,677 2093,1578 2675,2590l28 51 8186 -6927c89,-73 223,-62 296,28 78,84 67,218 -22,291l-8259 6983c548,1113 789,2327 856,3497l6742 285c112,6 208,101 202,218 -6,118 -101,207 -218,202l-6709 -286c0,124 5,247 0,370l0 5 0 62 0 5c-11,1159 -174,2177 -465,3055l1819 1696c84,78 89,212 11,297 -84,83 -213,89 -297,11l-1689 -1578c-319,794 -750,1466 -1265,2009 -190,201 -397,386 -610,553l0 1z"/>
  <path class="fil1" d="M97731 13733c1477,-4152 4873,-6518 7178,-5886 4510,1237 5495,4706 5484,7677 -23,4762 -2720,6938 -5881,6910"/>
  <path class="fil1" d="M82399 30128c3335,-6407 12981,-14738 13468,-16792 2658,1505 10559,14039 11667,14240 2753,-1522 4023,-4381 6222,-5494 2120,1169 4817,5897 7229,7867"/>
  <path class="fil1" d="M109112 38258c-2904,-2451 -4538,-6284 -7297,-9098 -2579,2137 -4286,4057 -6323,7722 -794,637 -2243,-1987 -3368,-2983 -1740,1058 -2339,3061 -3917,4264"/>
  <path class="fil2" d="M206813 25019l39 1254c179,1717 179,1717 218,4224 0,2513 45,4493 269,5942 84,661 173,1142 263,1411l44 0c879,481 1103,525 1232,1231 134,704 -353,1365 -1058,1499 -352,45 -660,0 -968,-218 -45,-45 -45,-45 -90,-45l-128 -89c-45,-45 -135,-90 -224,-135 -878,-526 -1142,-1102 -1365,-1846l-263 526c-1192,2115 -3123,2910 -5232,1320 -2468,-1762 -3301,-8012 -2552,-13289 437,-2999 1276,-5237 2513,-6692 1577,-1896 3642,-2378 6239,-1147 559,302 822,1013 637,1578 -229,1824 -2148,828 -3094,314 -699,-40 -1326,257 -1852,878 -1802,2249 -2635,7923 -1891,12377 302,2149 833,3469 1494,3956 705,532 968,397 1488,-487 1281,-2327 1718,-7302 1763,-11129l-84 -621c-51,-280 -90,-554 -129,-811 -246,-1657 2412,-3402 2730,0l1 -1z"/>
  <path class="fil2" d="M186054 9033c134,1321 179,2860 179,4622 -45,705 -90,3352 -90,4454 0,1936 0,4185 -44,6782 1454,-1321 2294,-3257 2557,-5859 44,-705 705,-1186 1410,-1147 705,45 1186,705 1147,1410 -269,2602 -1019,4673 -2294,6301 2954,3877 3402,7246 3743,13574 173,3178 -453,4152 -1158,4152 -705,0 -1304,17 -1394,-4152 -112,-5064 -705,-8550 -3044,-11767 -307,224 -660,442 -1012,660 -90,5954 -123,8477 -123,10900 0,705 -465,1461 -1170,1461 -705,0 -1387,-1287 -1387,-1992 0,-2513 39,-4063 123,-9087 44,-4980 89,-8724 89,-11236 0,-1102 45,-3749 90,-4493 0,-1723 -45,-3133 -179,-4320 -39,-705 442,-1365 1147,-1410 705,-44 1365,442 1410,1147l0 0z"/>
  <path class="fil2" d="M173498 18769c-90,-2602 -224,-4935 -442,-7005 -45,-705 442,-1365 1147,-1410 705,-45 1365,442 1410,1147 218,2115 352,4493 442,7179 570,-45 1097,-45 1583,-45 705,0 1276,576 1276,1281 0,705 -571,1276 -1276,1276 -442,0 -923,0 -1499,45 44,968 44,2423 89,4404 135,6216 353,10843 661,13971 44,705 -442,1365 -1147,1410 -700,45 -1366,-442 -1410,-1147 -308,-3391 -526,-8108 -661,-14145 -39,-2025 -39,-3480 -84,-4404 -666,40 -1191,40 -1678,40 -705,0 -1276,-571 -1276,-1276 0,-705 571,-1276 1276,-1276 487,0 1012,0 1589,-45l0 0z"/>
  <path class="fil2" d="M161356 20929c-901,-229 -1707,39 -2350,806 -1796,2249 -2636,7923 -1886,12377 302,2148 828,3469 1494,3956 705,531 968,397 1488,-487 1276,-2328 1718,-7302 1763,-11129l-90 -621c-22,-146 -45,-286 -67,-426 -140,-1628 1970,-2573 2686,0l28 868c173,1717 173,1717 218,4224 0,2513 45,4493 263,5942 90,661 179,1142 269,1411l39 0c884,481 1102,525 1236,1231 129,704 -352,1365 -1057,1499 -353,45 -661,0 -968,-218 -45,-45 -45,-45 -90,-45l-134 -89c-45,-45 -129,-90 -218,-135 -884,-526 -1147,-1102 -1366,-1846l-263 526c-1192,2115 -3122,2910 -5231,1320 -2468,-1762 -3307,-8012 -2557,-13289 442,-2999 1281,-5237 2512,-6692 1578,-1896 3643,-2378 6244,-1147 1477,621 979,3397 -1964,1964l1 0z"/>
  <path class="fil2" d="M142964 34369l45 481c0,45 0,135 39,353 0,224 0,531 44,839 0,353 0,661 45,968 45,571 45,1058 45,1410 0,487 0,705 -134,924 -40,134 -84,268 -174,397 -263,352 -615,532 -1057,532 -398,0 -706,-135 -969,-443 -89,-134 -179,-218 -223,-352 -45,-134 -84,-218 -84,-352l0 -353c-45,-173 -45,-442 -45,-794 0,-482 0,-1321 -45,-2552l0 -974c-89,-1410 -134,-2730 -89,-3922 -45,-263 -45,-526 -45,-744 -45,-1282 -45,-3089 0,-5377 0,-4538 0,-5506 -352,-10050 -174,-2199 -264,-3832 -308,-4890 0,-705 531,-1320 1236,-1320 705,0 1321,531 1321,1236 45,1013 128,2596 308,4756 173,2160 263,3744 307,4717 263,-268 532,-487 840,-660 1583,-1018 3525,-532 4538,1231 352,615 660,1455 923,2468 839,3172 1102,7094 1102,17843 0,705 -570,1282 -1276,1282 -705,0 -1281,-577 -1281,-1282 0,-5332 -84,-9076 -218,-11146 -179,-2602 -442,-4627 -795,-6082 -218,-795 -442,-1410 -660,-1807l-173 -308c-45,-45 -90,-84 -135,-84 -570,-134 -968,84 -1454,968 -1013,1936 -1321,5724 -1321,9249 0,839 0,2115 45,3838l0 0z"/>
  <path class="fil2" d="M132081 23749c0,-224 0,-487 39,-794 45,-308 45,-487 45,-571 0,-134 0,-621 -84,-884 -40,-135 -129,-308 -174,-571 -481,-1236 -1718,-1589 -2244,-705 -1057,1808 -928,4538 -884,6827 45,1191 45,2031 45,2422 -129,2244 -129,5238 352,7000 179,705 884,1673 1590,2160 525,353 749,308 1102,-263 526,-929 391,-2468 263,-3922 -45,-750 -90,-1237 -90,-1500 0,-705 532,-1321 1237,-1321 705,0 1320,532 1320,1232 0,223 45,710 84,1410 45,705 90,1281 90,1723 45,3128 -1103,5064 -2994,5372 -1634,307 -3083,-879 -4056,-2244 -482,-660 -834,-1326 -1013,-1942 -571,-2160 -571,-5813 -442,-7705 0,-391 0,-1186 -39,-2378 -45,-1147 -45,-2070 0,-2730 39,-2333 481,-4186 1231,-5461 873,-1545 2417,-2031 3956,-1634 1281,397 2467,1500 2864,2865 532,1544 532,2557 353,3788 -45,705 -660,1236 -1366,1192 -704,-45 -1231,-661 -1186,-1366l1 0z"/>
  <path class="fil2" d="M76250 20599c-666,901 -1461,1225 -2524,386l11 -34c-923,-268 -1751,0 -2411,784 -1802,2249 -2641,7923 -1891,12377 302,2148 833,3469 1493,3956 705,531 969,397 1489,-487 1281,-2328 1718,-7302 1762,-11129l-140 -929c124,-2630 2586,-4006 2697,0l0 750c174,1717 174,1717 219,4224 0,2513 44,4493 268,5942 84,661 174,1142 263,1411l45 0c878,481 1102,525 1231,1231 134,704 -353,1365 -1058,1499 -352,45 -660,0 -968,-218 -44,-45 -44,-45 -89,-45l-129 -89c-44,-45 -134,-90 -224,-135 -878,-526 -1147,-1102 -1365,-1846l-263 526c-1192,2115 -3122,2910 -5232,1320 -2467,-1762 -3301,-8012 -2551,-13289 436,-2999 1276,-5237 2506,-6692 1584,-1896 3643,-2378 6245,-1147 570,308 839,1058 615,1634l1 0z"/>
  <path class="fil2" d="M55939 9033c134,1321 178,2860 178,4622 -44,705 -89,3352 -89,4454 0,1936 0,4185 -45,6782 1455,-1321 2289,-3257 2557,-5859 39,-705 705,-1186 1410,-1147 705,45 1187,705 1142,1410 -263,2602 -1013,4673 -2289,6301 2949,3877 3744,7979 3744,13574 0,705 -571,1276 -1276,1276 -705,0 -1282,-571 -1282,-1276 0,-5069 -704,-8550 -3038,-11767 -308,224 -660,442 -1012,660 -90,5954 -135,10139 -135,12562 0,705 -570,1276 -1276,1276 -704,0 -1275,-571 -1275,-1276 0,-2512 44,-6256 128,-11280 45,-4980 90,-8724 90,-11236 0,-1102 45,-3749 89,-4493 0,-1723 -44,-3133 -179,-4320 -44,-705 443,-1365 1147,-1410 705,-44 1366,442 1411,1147l0 0z"/>
  <path class="fil2" d="M110018 37195c588,498 660,1376 162,1964 -498,593 -1382,666 -1969,168 -1729,-1466 -2994,-3302 -4275,-5165 -722,-1046 -1444,-2098 -2244,-3055 -800,722 -1505,1438 -2171,2233 -946,1136 -1830,2462 -2809,4219 -89,162 -207,296 -341,408l0 0c-1623,1298 -2882,-268 -4141,-1835l-240 -302c-308,347 -599,750 -884,1147 -577,805 -1153,1611 -2054,2294 -610,470 -1488,352 -1953,-263 -470,-610 -352,-1489 263,-1953 554,-425 1013,-1063 1472,-1707 671,-940 1348,-1880 2507,-2602 514,-352 1219,-318 1706,112 470,414 918,968 1360,1522 1052,1315 2367,-2378 2971,-2820 1080,-1292 2205,-2361 3547,-3475l0 0c554,-458 1371,-425 1886,96 1326,1359 2378,2887 3419,4397 1169,1701 2328,3386 3788,4617l0 0z"/>
  <path class="fil3" d="M83641 30771c-358,683 -1203,952 -1885,593 -689,-352 -952,-1197 -599,-1885 2003,-3844 6088,-8248 9299,-11711 2183,-2356 3928,-4236 4051,-4756 179,-750 935,-1215 1685,-1035 184,39 352,117 498,223 1768,1131 4913,5445 7593,9126 1505,2071 2775,3900 3273,4589 895,-649 1651,-1489 2361,-2283 991,-1108 1919,-2143 3212,-2798 425,-218 912,-190 1298,22l0 0c1399,773 2803,2557 4241,4387 1092,1394 2211,2815 3201,3621 599,492 683,1370 196,1969 -487,599 -1371,683 -1970,196 -1219,-996 -2434,-2546 -3625,-4062 -985,-1254 -1959,-2490 -2759,-3201 -576,453 -1136,1074 -1718,1723 -1024,1142 -2109,2356 -3704,3263 -291,184 -644,263 -1007,195 -1030,-184 -2983,-2870 -5254,-5981 -2020,-2776 -4320,-5937 -5814,-7515 -867,1147 -2199,2580 -3715,4219 -3089,3335 -7023,7576 -8858,11101l0 0z"/>
  <rect class="fil4" y="43" width="262312" height="43280"/>
 </g>
</svg>
