<?xml version="1.0" encoding="UTF-8"?>
<!DOCTYPE svg PUBLIC "-//W3C//DTD SVG 1.1//EN" "http://www.w3.org/Graphics/SVG/1.1/DTD/svg11.dtd">
<!-- Creator: CorelDRAW X7 -->
<svg xmlns="http://www.w3.org/2000/svg" xml:space="preserve" width="2126px" height="1000px" version="1.1" style="shape-rendering:geometricPrecision; text-rendering:geometricPrecision; image-rendering:optimizeQuality; fill-rule:evenodd; clip-rule:evenodd"
viewBox="0 0 247555 116491"
 xmlns:xlink="http://www.w3.org/1999/xlink">
 <defs>
  <style type="text/css">
   <![CDATA[
    .fil3 {fill:none}
    .fil1 {fill:#C5C6C6}
    .fil2 {fill:#5B5B5B}
    .fil0 {fill:#EEEEEE;fill-rule:nonzero}
   ]]>
  </style>
   <mask id="id0">
  <linearGradient id="id1" gradientUnits="userSpaceOnUse" x1="137032" y1="41185.9" x2="139335" y2="82217.7">
   <stop offset="0" style="stop-opacity:1; stop-color:white"/>
   <stop offset="0.129412" style="stop-opacity:0.501961; stop-color:white"/>
   <stop offset="1" style="stop-opacity:0; stop-color:white"/>
  </linearGradient>
    <rect style="fill:url(#id1)" x="79885" y="41957" width="116598" height="39489"/>
   </mask>
 </defs>
 <g id="Слой_x0020_1">
  <metadata id="CorelCorpID_0Corel-Layer"/>
  <path class="fil0" d="M59822 43243l0 18206 4303 0c359,0 588,-74 688,-222 99,-148 149,-391 149,-729l0 -16367c0,-592 -259,-888 -777,-888l-4363 0zm13568 19856c0,1818 -468,3267 -1405,4345 -936,1078 -2420,1618 -4453,1618l-7710 0 0 12243 -8607 0 0 -46118 16317 0c2033,0 3517,528 4453,1586 937,1057 1405,2495 1405,4313l0 22013zm10520 12497l-777 5709 -8727 0 7830 -46118 9265 0 7830 46118 -8727 0 -777 -5709 -5917 0zm956 -7296l4005 0 -1973 -16430 -2032 16430zm29826 4948c518,0 778,-296 778,-888l0 -10657c0,-338 -50,-582 -150,-730 -100,-147 -329,-222 -687,-222l-4304 0 0 12497 4363 0zm-12970 -38061l19306 0 1495 8564 -12194 0 0 9388 7711 0c2032,0 3516,539 4453,1618 936,1078 1404,2527 1404,4345l0 16303c0,1819 -468,3257 -1404,4314 -937,1057 -2421,1586 -4453,1586l-16318 0 0 -46118zm35265 8056c-518,0 -777,296 -777,888l0 28166c0,338 50,581 150,729 99,148 329,222 687,222l3288 0c358,0 587,-74 687,-222 100,-148 149,-391 149,-729l0 -28166c0,-592 -259,-888 -777,-888l-3407 0zm12971 31528c0,888 -90,1723 -269,2506 -179,782 -508,1469 -986,2061 -479,592 -1116,1068 -1913,1428 -797,359 -1793,539 -2989,539l-10161 0c-1195,0 -2192,-180 -2988,-539 -797,-360 -1435,-836 -1913,-1428 -478,-592 -807,-1279 -986,-2061 -180,-783 -269,-1618 -269,-2506l0 -33621c0,-1819 458,-3267 1374,-4346 917,-1078 2391,-1617 4424,-1617l10878 0c2032,0 3507,539 4423,1617 917,1079 1375,2527 1375,4346l0 33621zm20681 -39584l2152 8564 -5798 0 0 37554 -8846 0 0 -37554 -5798 0 2271 -8564 16019 0zm10281 40409l-777 5709 -8727 0 7830 -46118 9265 0 7830 46118 -8727 0 -777 -5709 -5917 0zm956 -7296l4005 0 -1972 -16430 -2033 16430z"/>
  <polygon class="fil1" style="mask:url(#id0)" points="80661,52541 80027,63524 97827,81305 196341,81305 194390,69812 167019,42418 167019,43439 165812,42234 165044,42099 151083,42099 150264,43088 150419,49648 151570,50797 151021,51534 149270,49784 148444,49447 129306,49447 127717,52616 126067,50969 125237,52297 123909,50969 123062,52280 121750,50969 120821,52201 119587,50969 118843,52379 117432,50969 116730,52424 115273,50969 114453,52306 113114,50969 112385,52401 110951,50969 110350,52508 108796,50969 108092,52422 106637,50969 105744,52289 104478,50969 103580,52232 102316,50969 101442,52235 100161,50969 99350,52316 98002,50969 97233,52358 95843,50969 95115,52402 93680,50969 92882,52311 91525,50969 90847,52449 89366,50969 88655,52415 87207,50969 86660,52583 85044,50969 84451,52515 82855,50921 82172,54066 "/>
  <path class="fil2" d="M150973 42099l14424 0c390,0 709,319 709,708l0 6400c0,390 -319,709 -709,709l-14424 0c-390,0 -709,-319 -709,-709l0 -6400c0,-389 319,-708 709,-708zm-25605 8489l0 0c421,-19 780,310 798,730l588 13460c18,420 -311,779 -731,798l0 0c-421,18 -780,-311 -798,-731l-588 -13460c-18,-420 311,-779 731,-797zm-45102 1823l0 0c421,5 645,323 664,742l418 9302c30,672 -352,1276 -771,1299l0 0c-419,23 -873,-310 -873,-1387l0 -8598c0,-758 211,-1362 562,-1358zm1924 -1823l0 0c421,-19 780,310 798,730l588 13460c18,420 -311,779 -731,798l0 0c-421,18 -780,-311 -798,-731l-588 -13460c-18,-420 311,-779 731,-797zm2159 0l0 0c421,-19 780,310 798,730l588 13460c18,420 -311,779 -731,798l-1 0c-420,18 -779,-311 -797,-731l-588 -13460c-18,-420 311,-779 731,-797zm2159 0l0 0c421,-19 779,310 798,730l588 13460c18,420 -311,779 -731,798l-1 0c-420,18 -779,-311 -797,-731l-588 -13460c-18,-420 310,-779 731,-797zm2159 0c420,-19 779,310 798,730l587 13460c19,420 -310,779 -731,798l0 0c-420,18 -779,-311 -798,-731l-587 -13460c-18,-402 315,-797 731,-797zm2159 0l0 0c420,-19 779,310 798,730l587 13460c19,420 -310,779 -731,798l0 0c-420,18 -779,-311 -798,-731l-587 -13460c-19,-420 310,-779 731,-797zm2159 0l0 0c420,-19 779,310 798,730l587 13460c19,420 -310,779 -731,798l0 0c-420,18 -779,-311 -798,-731l-587 -13460c-19,-420 310,-779 731,-797zm2159 0l0 0c420,-19 779,310 798,730l587 13460c18,420 -310,779 -731,798l0 0c-421,18 -779,-311 -798,-731l-587 -13460c-19,-420 310,-779 731,-797zm2158 0l1 0c420,-19 779,310 797,730l588 13460c18,420 -310,779 -731,798l0 0c-421,18 -779,-311 -798,-731l-587 -13460c-19,-420 310,-779 730,-797zm2159 0l1 0c420,-19 779,310 797,730l588 13460c18,420 -311,779 -731,798l0 0c-421,18 -780,-311 -798,-731l-588 -13460c-18,-420 311,-779 731,-797zm2159 0l0 0c421,-19 780,310 798,730l588 13460c18,420 -311,779 -731,798l0 0c-421,18 -780,-311 -798,-731l-588 -13460c-18,-420 311,-779 731,-797zm2159 0l0 0c421,-19 780,310 798,730l588 13460c18,420 -311,779 -731,798l0 0c-421,18 -780,-311 -798,-731l-588 -13460c-18,-420 311,-779 731,-797zm2159 0l0 0c421,-19 780,310 798,730l588 13460c18,420 -311,779 -731,798l0 0c-421,18 -780,-311 -798,-731l-588 -13460c-18,-420 311,-779 731,-797zm2159 0l0 0c421,-19 780,310 798,730l588 13460c18,420 -311,779 -731,798l0 0c-421,18 -780,-311 -798,-731l-588 -13460c-18,-420 311,-779 731,-797zm2159 0l0 0c421,-19 780,310 798,730l588 13460c18,420 -311,779 -731,798l-1 0c-420,18 -779,-311 -797,-731l-588 -13460c-18,-420 311,-779 731,-797zm2159 0l0 0c420,-19 779,310 798,730l587 13460c19,420 -310,779 -731,798l0 0c-420,18 -779,-311 -797,-731l-588 -13460c-19,-420 310,-779 731,-797zm2159 0l0 0c420,-19 779,310 798,730l587 13460c19,420 -310,779 -731,798l0 0c-420,18 -779,-311 -798,-731l-587 -13460c-19,-420 310,-779 731,-797zm2159 0l0 0c420,-19 779,310 798,730l587 13460c19,420 -310,779 -731,798l0 0c-420,18 -779,-311 -798,-731l-587 -13460c-19,-420 310,-779 731,-797zm2159 0l0 0c420,-19 779,310 798,730l587 13460c18,420 -310,779 -731,798l0 0c-421,18 -779,-311 -798,-731l-587 -13460c-19,-420 310,-779 731,-797zm2159 0l0 0c420,-19 779,310 798,730l587 13460c18,420 -310,779 -731,798l0 0c-421,18 -779,-311 -798,-731l-587 -13460c-19,-420 310,-779 731,-797zm2158 0l1 0c420,-19 779,310 797,730l588 13460c18,420 -310,779 -731,798l0 0c-421,18 -780,-311 -798,-731l-588 -13460c-18,-420 311,-779 731,-797zm6097 -1141l19337 0c390,0 709,319 709,709l0 15851c0,390 -319,709 -709,709l-19337 0c-1169,0 -2126,-956 -2126,-2125l0 -13019c0,-1169 957,-2125 2126,-2125zm363 1457l19683 0 0 2087 -19683 0c-389,0 -708,-318 -708,-708l0 -670c0,-390 319,-709 708,-709zm37350 -8486c1447,11555 1396,19420 0,31166l0 -31166zm-16046 8379l14424 0c390,0 709,319 709,709l0 13439c0,390 -319,709 -709,709l-14424 0c-390,0 -709,-319 -709,-709l0 -13439c0,-390 319,-709 709,-709zm0 15770l14424 0c390,0 709,318 709,708l0 6400c0,390 -319,708 -709,708l-14424 0c-390,0 -709,-318 -709,-708l0 -6400c0,-390 319,-708 709,-708z"/>
  <rect class="fil3" width="247555" height="116491"/>
 </g>
</svg>
