<svg xmlns="http://www.w3.org/2000/svg" viewBox="0 0 296333 296333" shape-rendering="geometricPrecision" image-rendering="optimizeQuality" fill-rule="evenodd" clip-rule="evenodd"><path fill="#f8f8f8" d="m42867 42867h210600v210600h-210600z"/><path fill="#ebecec" d="m91893 187253l2677-5314-2691-2659 52-14683h2768l3672 3741 5229-3741 5270 5336 4453-5336 4146 4186 5551-4186 5294 5447v-5447h11668l5312 5359 3623-5359-12049-12144-4304-6438-400-15404 1381-8775 7684-7317 2162 1865 2740 2762 5987-529-541-8376 3665 3693 2293-3057 3500 3527 2328-857 90104 90816-1 49103h-95880z"/><path fill="#eb7d6c" d="m42867 38100h215366l-4767 4767h-210599v210599l-4767 4767v-220133z"/><g fill-rule="nonzero"><path d="m91931 164597h2768v9775l5948-9775h2953v14683h-2769v-9618l-5947 9618h-2953v-14683m16939 14683v-14683h4453l2632 10014 2601-10014h4464v14683h-2748l-10-11559-2895 11559h-2858l-2881-11559-11 11559h-2747m19444-14683h11668v14683h-2973v-12202h-5722v12202h-2973v-14683m16980 14683v-14683h10869v2481h-7896v3261h7342v2481h-7342v3979h8183v2481h-11156m15957 0v-14683h4754c1802 0 2974 72 3521 218 841 222 1545 701 2112 1439 567 739 851 1692 851 2861 0 903-164 1658-489 2273-328 615-741 1097-1244 1449-502 349-1015 581-1534 694-708 140-1730 212-3070 212h-1927v5537h-2974m2974-12202v4184h1616c1166 0 1942-79 2335-233 393-153 700-393 923-724 222-328 334-708 334-1145 0-537-157-978-468-1327-314-348-708-567-1189-656-352-65-1060-99-2126-99h-1425m13025-2481h2768v9775l5947-9775h2953v14683h-2768v-9618l-5947 9618h-2953v-14683m25756 14683v-6132h-601c-940 0-1600 140-1986 421-386 276-1043 1114-1975 2505l-2127 3206h-3544l1791-2864c704-1138 1268-1935 1685-2389 421-458 947-868 1576-1227-1364-216-2348-691-2953-1429-605-738-909-1620-909-2649 0-895 225-1688 676-2379 452-690 1046-1155 1785-1391 738-236 1842-355 3311-355h6245v14683h-2974m0-12202h-2314c-1175 0-1948 27-2317 78-369 55-690 236-957 544-266 308-400 708-400 1203 0 517 130 926 387 1231 256 304 584 492 981 567 396 72 1206 109 2426 109h2194v-3732" fill="#44718a"/><path d="m97222 187253h-1159l-459-1209h-2132l-441 1209h-1138l2063-5314h1137l2129 5314m-1967-2108l-738-1967-718 1967h1456m2540 2108v-5314h1720c652 0 1077 26 1275 79 304 81 559 254 764 521 205 267 308 612 308 1035 0 327-59 600-176 823-119 223-269 397-451 524-182 127-367 211-555 251-257 51-626 77-1111 77h-698v2004h-1076m1076-4416v1514h585c422 0 703-28 845-84 142-55 254-142 334-262 81-119 121-256 121-414 0-195-57-355-169-480-114-127-256-206-430-238-128-24-384-36-770-36h-516m3889-898h1077v2264c238-25 400-86 484-186 85-99 216-374 392-827 221-576 445-934 669-1074 222-140 580-210 1075-210 24 0 76-2 155-4v794l-152-4c-220 0-380 27-482 82-101 54-183 137-246 248-63 112-156 341-279 687-65 185-136 338-212 462-76 124-210 240-404 349 239 66 436 204 591 409 157 205 327 495 513 870l723 1454h-1261l-637-1368c-10-19-31-57-62-112-12-19-57-103-134-250-136-262-247-426-334-492-88-65-220-98-399-101v2323h-1077v-5314m5895 5314v-4416h-1573v-898h4216v898h-1567v4416h-1076m3354-5314h1002v3538l2153-3538h1069v5314h-1002v-3481l-2153 3481h-1069v-5314m5232 0h1076v1268c0 411 15 683 46 816 29 135 120 252 269 351 149 98 369 148 659 148 228 0 432-25 612-74 178-50 333-123 462-219v-2290h1077v5314h-1077v-2141c-217 97-431 170-642 219-210 49-417 74-619 74-530 0-972-125-1329-375-356-249-534-683-534-1298v-1793m5305 5314v-5314h3934v898h-2858v1180h2657v899h-2657v1439h2962v898h-4038m8350-1959l1039 319c-160 585-426 1019-797 1304-371 283-841 426-1411 426-707 0-1287-242-1742-724-454-483-682-1142-682-1979 0-885 229-1573 686-2063 456-490 1057-735 1802-735 651 0 1179 193 1585 578 242 228 423 554 544 981l-1062 252c-62-274-194-492-393-652-200-159-443-238-727-238-395 0-715 141-960 424-246 282-369 740-369 1374 0 670 122 1149 363 1433 242 286 556 428 943 428 286 0 532-90 738-272 205-182 353-467 443-856m1975-3355h1076v2264c239-25 401-86 485-186 85-99 216-374 391-827 222-576 446-934 670-1074 222-140 580-210 1074-210 25 0 77-2 156-4v794l-152-4c-220 0-381 27-482 82-102 54-183 137-246 248-63 112-156 341-279 687-65 185-136 338-212 462-76 124-211 240-404 349 239 66 436 204 591 409 157 205 327 495 513 870l723 1454h-1261l-638-1368c-9-19-31-57-61-112-12-19-57-103-134-250-136-262-247-426-334-492-88-65-220-98-400-101v2323h-1076v-5314m4293 2689c0-541 82-997 244-1365 120-271 286-515 494-730 210-215 439-375 687-480 332-140 714-211 1147-211 784 0 1410 244 1881 731 471 487 706 1163 706 2030 0 860-234 1533-700 2018-467 487-1091 729-1872 729-791 0-1421-241-1887-725-466-483-700-1148-700-1997m1106-36c0 603 140 1060 418 1371 278 311 632 466 1060 466 429 0 781-154 1057-462 274-309 411-772 411-1389 0-610-133-1066-401-1365-268-301-623-450-1067-450-443 0-800 152-1071 455-271 304-407 762-407 1374m4905-2653h1002v3538l2153-3538h1068v5314h-1001v-3481l-2153 3481h-1069v-5314m2746-1537h497c-28 328-144 587-346 774-201 186-462 280-783 280-321 0-583-94-784-280-202-187-318-446-347-774h498c17 171 77 301 180 389 104 88 255 131 453 131 197 0 348-43 452-131 104-88 163-218 180-389m4637 6851v-5314h1721c652 0 1076 26 1274 79 304 81 559 254 765 521 205 267 308 612 308 1035 0 327-60 600-177 823-119 223-269 397-451 524-182 127-367 211-555 251-256 51-626 77-1111 77h-698v2004h-1076m1076-4416v1514h585c422 0 703-28 845-84 143-55 254-142 334-262 81-119 121-256 121-414 0-195-56-355-169-480-114-127-256-206-430-238-128-24-384-36-770-36h-516m3904-898h1076v2123h1434c376 0 700 52 972 154 270 103 497 286 679 551 180 264 270 569 270 913 0 360-93 669-282 930-189 260-398 432-629 516-230 86-568 127-1012 127h-2508v-5314m1076 4416h1047c333 0 565-16 698-48 131-32 249-106 351-221 103-116 154-255 154-421 0-235-85-412-252-529-168-118-471-176-907-176h-1091v1395m3972-4416h1076v5314h-1076v-5314m2212 0h3971v898h-2895v1232h1434c394 0 723 48 983 145 261 96 484 275 668 536 185 259 277 565 277 915 0 359-92 667-279 923-186 255-398 430-636 524-238 94-577 141-1016 141h-2507v-5314m1076 4416h1043c333 0 567-16 702-48 135-32 254-105 354-220 100-114 150-255 150-422 0-244-88-421-262-532-176-110-474-165-897-165h-1090v1387m4266-4416h1076v2123h1434c376 0 700 52 972 154 270 103 497 286 679 551 180 264 270 569 270 913 0 360-93 669-282 930-189 260-398 432-629 516-230 86-568 127-1012 127h-2508v-5314m1076 4416h1047c333 0 565-16 698-48 131-32 249-106 351-221 103-116 154-255 154-421 0-235-85-412-252-529-168-118-471-176-907-176h-1091v1395m3972-4416h1076v5314h-1076v-5314m11689 0h1002v3538l2153-3538h1068v5314h-1001v-3481l-2153 3481h-1069v-5314m5335 0h1077v2264c238-25 400-86 484-186 85-99 216-374 392-827 221-576 445-934 669-1074 222-140 580-210 1075-210 24 0 76-2 155-4v794l-152-4c-220 0-380 27-482 82-101 54-183 137-246 248-63 112-156 341-279 687-65 185-136 338-212 462-76 124-210 240-404 349 239 66 436 204 591 409 157 205 327 495 513 870l723 1454h-1261l-637-1368c-10-19-31-57-62-112-12-19-57-103-134-250-136-262-247-426-334-492-88-65-220-98-399-101v2323h-1077v-5314m4516 5314v-5314h1721c652 0 1076 26 1274 79 304 81 559 254 765 521 204 267 307 612 307 1035 0 327-59 600-176 823-119 223-269 397-451 524-182 127-367 211-555 251-257 51-626 77-1111 77h-698v2004h-1076m1076-4416v1514h585c422 0 703-28 845-84 143-55 254-142 334-262 81-119 121-256 121-414 0-195-57-355-169-480-114-127-256-206-430-238-128-24-384-36-770-36h-516m3904-898h1076v2123h1434c376 0 700 52 971 154 271 103 498 286 680 551 180 264 270 569 270 913 0 360-94 669-282 930-189 260-398 432-629 516-230 86-568 127-1012 127h-2508v-5314m1076 4416h1047c333 0 565-16 698-48 131-32 249-106 351-221 103-116 154-255 154-421 0-235-85-412-252-529-168-118-471-176-908-176h-1090v1395m3972-4416h1076v5314h-1076v-5314m-22618 4670l-617 786c-302-148-593-351-871-609-214 193-443 335-684 426-241 92-528 138-862 138-661 0-1159-187-1492-559-259-287-388-619-388-994 0-341 102-648 306-920 203-272 507-509 912-709-182-215-319-421-411-616-93-195-139-380-139-554 0-322 129-595 387-819 256-224 623-337 1098-337 458 0 816 118 1075 352 258 235 387 521 387 859 0 216-63 420-190 613-128 193-384 412-770 656l731 983c87-153 161-355 224-602l923 206c-92 327-172 567-240 718-67 151-140 278-218 380 114 106 261 222 442 349 180 128 313 212 397 253m-2772-2895l273-212c202-156 302-312 302-467 0-131-48-242-146-334-97-93-228-139-394-139-160 0-286 41-378 122-90 82-136 175-136 282 0 126 76 278 230 457l249 291m-399 1109c-232 118-407 262-523 429-115 167-173 338-173 511 0 220 72 400 215 539 142 140 334 209 576 209 158 0 311-31 457-94 148-63 307-167 480-313l-1032-1281" fill="#eb7d6c"/><path d="m145356 148597c-107-434-188-865-240-1291-54-436-81-874-81-1311 0-2971 1205-5662 3152-7611 1948-1950 4638-3157 7607-3157 2968 0 5658 1207 7606 3157 1947 1949 3151 4640 3151 7611 0 1789-444 3520-1259 5054-749 1411-1813 2656-3134 3626l-2 1c-113 84-229 165-347 245l-7-10c-1558 1014-3374 1957-5116 2489-1875 574-3828 871-5795 871-5474 0-10433-2224-14023-5818-3589-3593-5809-8555-5809-14033 0-2375 417-4652 1182-6763-356-3912 98-7310 1449-10136 1392-2914 3716-5193 7060-6775l479-226 433 308c1003 713 1799 1542 2435 2460 457 660 830 1364 1134 2102 1976-588 4297-926 6370-806 173 10 345 21 517 33l-487-7551-53-825 489 667 2691 3671 2448-3264 329-438 102 538 748 3965 4299-1584 679-250-393 608-3784 5864c1728 665 3215 1588 4397 2838l286 301-41 408c-371 3741-1719 6342-3963 7895-2174 1504-5138 1971-8821 1490-2310 750-4256 2195-5636 4062-1414 1913-2230 4271-2230 6780 0 3149 1274 6000 3334 8062 2058 2060 4904 3334 8050 3334 1142 0 2265-169 3331-495 1064-326 2123-756 3067-1391l5-4 1-1c1151-817 2076-1883 2722-3099 677-1275 1047-2715 1047-4203 0-2475-1001-4714-2619-6333-1616-1618-3851-2618-6322-2618-2472 0-4707 1000-6323 2618-1618 1619-2619 3858-2619 6333l-1496 2602m11291-20198c-588 0-1122-240-1511-628l-2-2-2-1c-387-389-627-924-627-1511 0-588 240-1122 627-1511l2-2 2-2c389-387 923-627 1511-627 587 0 1122 240 1511 627l1 2 2 2c388 389 628 923 628 1511 0 587-240 1122-628 1511l-2 1-1 2c-389 388-924 628-1511 628m-6905 3096c-786-1919-1150-3844-1069-5773 77-1778 524-3550 1362-5316-1451 68-2857 307-4198 699v2l-860 272c-2592 901-4914 2376-6814 4274-1671 1764-3039 3942-4157 6462-731 1962-1131 4087-1131 6305 0 4982 2017 9492 5277 12755 3233 3237 7694 5248 12627 5278-2123-635-4023-1792-5551-3322-2389-2391-3867-5693-3867-9339 0-2902 949-5636 2592-7859 1447-1956 3435-3514 5789-4438m9134-1558c1710-1184 2776-3215 3142-6165-1093-1044-2497-1803-4139-2341-1703-559-3656-880-5781-1034-984 1798-1503 3585-1576 5363-75 1792 298 3592 1096 5397 3088 361 5527-23 7258-1220m-24922-1674c938-1567 2006-2972 3221-4193 1786-1794 3881-3184 6333-4104-247-581-544-1133-901-1649-426-615-943-1183-1571-1691-2691 1381-4573 3287-5714 5675-826 1728-1273 3722-1368 5962" fill="#44718a"/><path d="m155794 151669c-1567 0-2986-635-4013-1662-1026-1027-1662-2446-1662-4012 0-1567 636-2986 1662-4013 1027-1027 2446-1662 4013-1662 1566 0 2985 635 4012 1662 1027 1027 1663 2446 1663 4013 0 1566-636 2985-1663 4012-1027 1027-2446 1662-4012 1662" fill="#eb7d6c"/></g><path fill="#44718a" d="m253467 258233h-215366l4766-4766h210600v-210600l4766-4766v220132z"/></svg>