<?xml version="1.0" encoding="UTF-8"?>
<!DOCTYPE svg PUBLIC "-//W3C//DTD SVG 1.1//EN" "http://www.w3.org/Graphics/SVG/1.1/DTD/svg11.dtd">
<!-- Creator: CorelDRAW X7 -->
<svg xmlns="http://www.w3.org/2000/svg" xml:space="preserve" width="100%" height="100%" version="1.1" style="shape-rendering:geometricPrecision; text-rendering:geometricPrecision; image-rendering:optimizeQuality; fill-rule:evenodd; clip-rule:evenodd"
viewBox="0 0 50597 50597"
 xmlns:xlink="http://www.w3.org/1999/xlink">
 <defs>
  <style type="text/css">
   <![CDATA[
    .fil1 {fill:none}
    .fil2 {fill:#5B5A50;fill-rule:nonzero}
    .fil3 {fill:#78C6EF;fill-rule:nonzero}
    .fil0 {fill:#EB7E6D;fill-rule:nonzero}
   ]]>
   
	 .fil0 
	 {	opacity: 1; font-weight: 900; 
		 -webkit-animation: blink 4s infinite; 
		 -moz-animation: blink 4s infinite;
		 -ms-animation: blink 4s infinite;
		 -o-animation: blink 4s infinite;
		 animation: blink 4s infinite;}
		@-keyframes blink {0%, 100% {opacity: 1;}50% {opacity: 0.1;}}
		@-webkit-keyframes blink {0%, 100% {opacity: 1;}50% {opacity: 0;}}
		@-moz-keyframes blink {0%, 100% {opacity: 1;}50% {opacity: 0;}}
		@-ms-keyframes blink {0%, 100% {opacity: 1;}50% {opacity: 0;}}
		@-o-keyframes blink {0%, 100% {opacity: 1;}50% {opacity: 0;}}    
  </style>
 </defs>
 <g id="Слой_x0020_1">
  <metadata id="CorelCorpID_0Corel-Layer"/>
  <path class="fil0" d="M21235 25295l115 291c7,19 -2,41 -21,48 -19,8 -41,-2 -49,-21l-107 -272c-179,119 -392,177 -616,176l0 0 -6 0c-44,0 -80,-36 -79,-80 0,-44 35,-80 80,-80l6 0c258,1 497,-86 671,-271 177,-187 289,-475 293,-873l0 -11c1,-254 -40,-528 -176,-762 -135,-233 -365,-429 -745,-533 -188,-52 -428,28 -652,211 -215,177 -413,448 -534,790 -15,42 -61,64 -102,49 -42,-15 -64,-60 -49,-102 47,-132 105,-255 170,-367l-662 -580c-16,-14 -18,-38 -4,-53 14,-16 37,-17 53,-4l653 572c104,-163 224,-300 351,-408l-510 -814c-11,-18 -6,-41 12,-52 17,-11 40,-5 51,12l505 806c136,-105 279,-177 417,-211l-178 -1286c-3,-21 11,-40 32,-42 20,-3 39,11 42,32l177 1281c95,-15 186,-11 270,12 109,30 207,67 296,109l532 -1393c7,-19 29,-29 48,-22 19,8 29,29 22,49l-535 1401c220,121 374,282 478,463l5 9 1463 -1238c16,-13 40,-11 53,5 14,15 12,39 -4,52l-1476 1248c98,199 141,416 153,625l1205 51c20,1 37,18 36,39 -1,21 -18,37 -39,36l-1199 -51c0,22 1,44 0,66l0 1 0 11 0 1c-2,207 -31,389 -83,546l325 303c15,14 16,38 2,53 -15,15 -38,16 -53,2l-302 -282c-57,142 -134,262 -226,359 -34,36 -71,69 -109,99z"/>
  <path class="fil1" d="M19339 23882c264,-742 871,-1165 1283,-1052 806,221 982,841 980,1372 -4,851 -486,1240 -1051,1235"/>
  <path class="fil1" d="M16599 26812c596,-1145 2320,-2634 2407,-3001 475,269 1887,2509 2085,2545 492,-272 719,-783 1112,-982 379,209 861,1054 1292,1406"/>
  <path class="fil1" d="M21373 28265c-519,-438 -811,-1123 -1304,-1626 -461,382 -766,725 -1130,1380 -142,114 -401,-355 -602,-533 -311,189 -418,547 -700,762"/>
  <path class="fil2" d="M21535 28075c105,89 118,246 29,351 -89,106 -247,119 -352,30 -309,-262 -535,-590 -764,-923 -129,-187 -258,-375 -401,-546 -143,129 -269,257 -388,399 -169,203 -327,440 -502,754 -16,29 -37,53 -61,73l0 0c-290,232 -515,-48 -740,-328l-43 -54c-55,62 -107,134 -158,205 -103,144 -206,288 -367,410 -109,84 -266,63 -349,-47 -84,-109 -63,-266 47,-349 99,-76 181,-190 263,-305 120,-168 241,-336 448,-465 92,-63 218,-57 305,20 84,74 164,173 243,272 188,235 423,-425 531,-504 193,-231 394,-422 634,-621l0 0c99,-82 245,-76 337,17 237,243 425,516 611,786 209,304 416,605 677,825zm-9665 -5033c24,236 32,511 32,826 -8,126 -16,599 -16,796 0,346 0,748 -8,1212 260,-236 409,-582 457,-1047 7,-126 126,-212 252,-205 126,8 212,126 204,252 -47,465 -181,835 -409,1126 527,693 669,1426 669,2426 0,126 -102,228 -228,228 -126,0 -229,-102 -229,-228 0,-906 -126,-1528 -543,-2103 -55,40 -118,79 -181,118 -16,1064 -24,1812 -24,2245 0,126 -102,228 -228,228 -126,0 -228,-102 -228,-228 0,-449 8,-1118 23,-2016 8,-890 16,-1559 16,-2008 0,-197 8,-670 16,-803 0,-308 -8,-560 -32,-772 -8,-126 79,-244 205,-252 126,-8 244,79 252,205zm3630 2067c-119,161 -261,219 -451,69l2 -6c-165,-48 -313,0 -431,140 -322,402 -472,1416 -338,2212 54,384 149,620 267,707 126,95 173,71 266,-87 229,-416 307,-1305 315,-1989l-25 -166c22,-470 462,-716 482,0l0 134c31,307 31,307 39,755 0,449 8,803 48,1062 15,118 31,204 47,252l8 0c157,86 197,94 220,220 24,126 -63,244 -189,268 -63,8 -118,0 -173,-39 -8,-8 -8,-8 -16,-8l-23 -16c-8,-8 -24,-16 -40,-24 -157,-94 -205,-197 -244,-330l-47 94c-213,378 -558,520 -935,236 -441,-315 -590,-1432 -456,-2375 78,-536 228,-936 448,-1196 283,-339 651,-425 1116,-205 102,55 150,189 110,292zm9978 563c0,-40 0,-87 7,-142 8,-55 8,-87 8,-102 0,-24 0,-111 -15,-158 -7,-24 -23,-55 -31,-102 -86,-221 -307,-284 -401,-126 -189,323 -166,811 -158,1220 8,213 8,363 8,433 -23,401 -23,936 63,1251 32,126 158,299 284,386 94,63 134,55 197,-47 94,-166 70,-441 47,-701 -8,-134 -16,-221 -16,-268 0,-126 95,-236 221,-236 126,0 236,95 236,220 0,40 8,127 15,252 8,126 16,229 16,308 8,559 -197,905 -535,960 -292,55 -551,-157 -725,-401 -86,-118 -149,-237 -181,-347 -102,-386 -102,-1039 -79,-1377 0,-70 0,-212 -7,-425 -8,-205 -8,-370 0,-488 7,-417 86,-748 220,-976 156,-276 432,-363 707,-292 229,71 441,268 512,512 95,276 95,457 63,677 -8,126 -118,221 -244,213 -126,-8 -220,-118 -212,-244zm1945 1898l8 86c0,8 0,24 7,63 0,40 0,95 8,150 0,63 0,118 8,173 8,102 8,189 8,252 0,87 0,126 -24,165 -7,24 -15,48 -31,71 -47,63 -110,95 -189,95 -71,0 -126,-24 -173,-79 -16,-24 -32,-39 -40,-63 -8,-24 -15,-39 -15,-63l0 -63c-8,-31 -8,-79 -8,-142 0,-86 0,-236 -8,-456l0 -174c-16,-252 -24,-488 -16,-701 -8,-47 -8,-94 -8,-133 -8,-229 -8,-552 0,-961 0,-811 0,-984 -63,-1796 -31,-393 -47,-685 -55,-874 0,-126 95,-236 221,-236 126,0 236,95 236,221 8,181 23,464 55,850 31,386 47,669 55,843 47,-48 95,-87 150,-118 283,-182 630,-95 811,220 63,110 118,260 165,441 150,567 197,1268 197,3189 0,126 -102,229 -228,229 -126,0 -229,-103 -229,-229 0,-953 -15,-1622 -39,-1992 -32,-465 -79,-827 -142,-1087 -39,-142 -79,-252 -118,-323l-31 -55c-8,-8 -16,-15 -24,-15 -102,-24 -173,15 -260,173 -181,346 -236,1023 -236,1653 0,150 0,378 8,686zm3287 -2402c-161,-41 -305,7 -420,144 -321,402 -471,1416 -337,2212 54,384 148,620 267,707 126,95 173,71 266,-87 228,-416 307,-1305 315,-1989l-16 -111c-4,-26 -8,-51 -12,-76 -25,-291 352,-460 480,0l5 155c31,307 31,307 39,755 0,449 8,803 47,1062 16,118 32,204 48,252l7 0c158,86 197,94 221,220 23,126 -63,244 -189,268 -63,8 -118,0 -173,-39 -8,-8 -8,-8 -16,-8l-24 -16c-8,-8 -23,-16 -39,-24 -158,-94 -205,-197 -244,-330l-47 94c-213,378 -558,520 -935,236 -441,-315 -591,-1432 -457,-2375 79,-536 229,-936 449,-1196 282,-339 651,-425 1116,-205 264,111 175,607 -351,351zm2170 -386c-16,-465 -40,-882 -79,-1252 -8,-126 79,-244 205,-252 126,-8 244,79 252,205 39,378 63,803 79,1283 102,-8 196,-8 283,-8 126,0 228,103 228,229 0,126 -102,228 -228,228 -79,0 -165,0 -268,8 8,173 8,433 16,787 24,1111 63,1938 118,2497 8,126 -79,244 -205,252 -125,8 -244,-79 -252,-205 -55,-606 -94,-1449 -118,-2528 -7,-362 -7,-622 -15,-787 -119,7 -213,7 -300,7 -126,0 -228,-102 -228,-228 0,-126 102,-228 228,-228 87,0 181,0 284,-8zm2244 -1740c24,236 32,511 32,826 -8,126 -16,599 -16,796 0,346 0,748 -8,1212 260,-236 410,-582 457,-1047 8,-126 126,-212 252,-205 126,8 212,126 205,252 -48,465 -182,835 -410,1126 528,693 608,1295 669,2426 31,568 -81,742 -207,742 -126,0 -233,3 -249,-742 -20,-905 -126,-1528 -544,-2103 -55,40 -118,79 -181,118 -16,1064 -22,1515 -22,1948 0,126 -83,261 -209,261 -126,0 -248,-230 -248,-356 0,-449 7,-726 22,-1624 8,-890 16,-1559 16,-2008 0,-197 8,-670 16,-803 0,-308 -8,-560 -32,-772 -7,-126 79,-244 205,-252 126,-8 244,79 252,205zm3710 2857l7 224c32,307 32,307 39,755 0,449 8,803 48,1062 15,118 31,204 47,252l8 0c157,86 197,94 220,220 24,126 -63,244 -189,268 -63,8 -118,0 -173,-39 -8,-8 -8,-8 -16,-8l-23 -16c-8,-8 -24,-16 -40,-24 -157,-94 -204,-197 -244,-330l-47 94c-213,378 -558,520 -935,236 -441,-315 -590,-1432 -456,-2375 78,-536 228,-936 449,-1196 282,-339 651,-425 1115,-205 100,54 147,181 114,282 -41,326 -384,148 -553,56 -125,-7 -237,46 -331,157 -322,402 -471,1416 -338,2212 54,384 149,620 267,707 126,95 173,71 266,-87 229,-416 307,-1305 315,-1989l-15 -111c-9,-50 -16,-99 -23,-145 -44,-296 431,-608 488,0z"/>
  <path class="fil3" d="M16821 26927c-64,122 -215,170 -337,106 -123,-63 -170,-214 -107,-337 358,-687 1088,-1474 1662,-2093 390,-421 702,-757 724,-850 32,-134 167,-217 301,-185 33,7 63,21 89,40 316,202 878,973 1357,1631 269,370 496,697 585,820 160,-116 295,-266 422,-408 177,-198 343,-383 574,-500 76,-39 163,-34 232,4l0 0c250,138 501,457 758,784 195,249 395,503 572,647 107,88 122,245 35,352 -87,107 -245,122 -352,35 -218,-178 -435,-455 -648,-726 -176,-224 -350,-445 -493,-572 -103,81 -203,192 -307,308 -183,204 -377,421 -662,583 -52,33 -115,47 -180,35 -184,-33 -533,-513 -939,-1069 -361,-496 -772,-1061 -1039,-1343 -155,205 -393,461 -664,754 -552,596 -1255,1354 -1583,1984z"/>
  <rect class="fil1" width="50597" height="50597"/>
 </g>
</svg>
