<svg xmlns="http://www.w3.org/2000/svg" viewBox="0 0 630680 468379" shape-rendering="geometricPrecision" image-rendering="optimizeQuality" fill-rule="evenodd" clip-rule="evenodd"><path fill="#434242" stroke="#434242" stroke-width="76.2" d="m432185 396923l6369-5832 6369 5832 6369-5832 6369 5832 6369-5832 6369 5832 6369-5832 6369 5832 6369-5832 6369 5832 6369-5832 6369 5832 6369-5832 6369 5832 6369-5832 6369 5832v-272834h-101904z"/><path d="m476355 170207c4152 558 8414 573 12797 0v1898c0 272-210 472-464 494-4124 368-8074 353-11869 0-254-23-464-222-464-494 0-633 0-1266 0-1898" fill="#ebecec"/><g stroke-width="500"><path d="m477190 172616v4469c0 754 81 588-436 1134-670 709-1341 1417-2011 2125-2754 2910-2342 2119-2901 6071-2171 15355-5636 28911-5778 43372-9 979-301 6596 481 7069 2180 1321 2207 2671-72 4054-718 436-548 2612-548 3511 0 15547 0 31094 0 46640-892 1760-870 1538-870 3510 277 7129 1214 26504 11469 13782 4295 7534 8420 8042 12562 0 10343 12729 12137-6963 12142-13460 0-2503 198-1573-878-3832 0-15546 11-31093 21-46640 0-1131 219-3015-659-3577-2111-1351-2093-2588-407-3735 1325-900 863-5516 826-7322-290-14040-4067-28548-6421-43448-630-3988-285-3183-3078-6134l-1851-1956c-548-578-464-401-464-1200v-4433c-3753 340-7462 336-11127 0z" fill="none" stroke="#f5f5f5"/><path d="m472247 185360c-291-107-349 663-405 1055-2171 15355-5636 28911-5778 43372-9 979-301 6596 481 7069 2180 1321 2207 2671-72 4054-718 436-548 2612-548 3511 0 15547 0 31094 0 46640-892 1760-870 1538-870 3510 277 7129 1214 26504 11469 13782 4295 7534 8420 8042 12562 0 10343 12729 12137-6963 12142-13460 0-2503 198-1573-878-3832 0-15546 11-31093 21-46640 0-1131 219-3015-659-3577-2111-1351-2093-2588-407-3735 1325-900 863-5516 826-7322-290-14040-4068-28548-6421-43448-57-363-103-903-373-1017-3425-1444-6903-1339-10425 19-2355 907-4939 2127-10665 19z" fill="#ebecec" stroke="#fdfdfd"/><g fill="none" stroke="#b7cbd8"><path d="m487382 188902l2356 33638"/><path d="m468952 291879c4799 1169 9778 1821 14980 1833"/></g><g stroke="#434242"><path d="m476335 163488c4279-483 8558-483 12837 0 253 28 464 208 464 463v5955c0 255-211 435-464 464-4045 468-8309 498-12837 0-254-28-464-209-464-464v-5955c0-255 210-435 464-463z" fill="#ebecec"/><g fill="none"><g stroke-linecap="round"><path d="m476958 164385v841"/><path d="m478117 164296v1351"/><path d="m479276 164225v1843"/><path d="m481594 164147v2763"/><path d="m480435 164177v2356"/><path d="m482753 164138l1 3193"/><path d="m483912 164147l1 3605"/><path d="m485071 164177l1 4037"/><path d="m486230 164227l1 4367"/><path d="m488549 164386v5050"/><path d="m487390 164296v4719"/></g><path d="m487382 188919l2356 33638"/><path d="m469677 239321c4185 641 8639 1018 13460 1033"/><path d="m468952 291896c4799 1169 9778 1821 14980 1833"/></g></g></g><g stroke-width="76.2"><g fill="#96a7b1" stroke="#96a7b1"><path d="m421994 109656h122285v3386h-122285z"/><path d="m421994 107393c2185 0 3956 1771 3956 3956 0 2184-1771 3955-3956 3955-2184 0-3955-1771-3955-3955 0-2185 1771-3956 3955-3956z"/><path d="m544279 107393c2185 0 3956 1771 3956 3956 0 2184-1771 3955-3956 3955-2184 0-3955-1771-3955-3955 0-2185 1771-3956 3955-3956z"/></g><path fill="#434242" stroke="#434242" d="m432185 107624h101904v16465h-101904z"/></g><g fill="none" stroke="#fefefe" stroke-width="250"><g stroke-dasharray="1250 1250"><path d="m432185 124089h101904"/><path d="m433457 124089v270373"/><path d="m532817 124089v270373"/></g><g stroke-dasharray="1250 750"><path d="m433457 394462l5097-4643 6369 5832 6369-5832"/><path d="m451292 389819l6369 5832 6369-5832 6369 5832 6369-5832"/><path d="m476768 389819l6369 5832 6369-5832 6369 5832 6369-5832"/><path d="m502244 389819l6369 5832 6369-5832 6369 5832 6369-5832"/><path d="m527720 389819l5097 4643"/></g></g><path d="m484697 256887l178-106c87 146 122 288 106 426-16 138-80 263-191 375-115 115-233 185-352 210-119 26-242 13-369-39-127-51-242-128-344-230-111-112-187-230-228-356-40-126-43-249-7-371 35-122 100-230 195-324 107-107 224-170 352-189 127-18 255 8 382 78l-106 172c-103-53-196-74-278-62-83 11-160 53-232 125-82 82-131 170-147 265-15 94-1 186 43 275 44 89 102 169 172 239 91 91 184 158 278 199 95 42 187 51 276 29 90-22 167-66 232-131 79-79 123-169 132-270 9-100-21-205-92-315m-371-1021l142-142 457 457 255-256c167-167 308-246 423-237 115 9 212 53 290 132 83 83 128 184 133 303 6 118-67 254-221 407l-407 408-1072-1072m1093 808l258-258c89-89 139-168 149-238 10-70-18-138-84-204-45-45-95-70-149-76-54-6-105 6-152 36-46 30-114 90-204 180l-190 189 372 371m-157-1743l142-142 1071 1071-142 142-1071-1071m1453 689l-1071-1071 404-405c71-71 129-122 174-153 61-44 122-71 182-82 60-11 123-6 189 17 66 22 126 60 179 113 91 91 139 197 143 318 6 121-68 257-220 409l-274 275 437 437-143 142m-420-705l277-277c91-91 139-173 144-246 4-73-25-140-87-202-44-44-94-72-149-81-54-9-105 0-153 26-30 18-77 59-141 123l-274 274 383 383m821-738c-178-178-269-365-274-561-5-196 68-369 219-521 99-99 212-164 339-196 126-33 252-27 379 16 126 42 242 117 349 224 109 109 184 228 226 357 42 130 45 257 8 381-36 125-101 234-194 327-101 101-216 166-344 197-128 31-255 25-380-19-125-43-234-111-328-205m149-144c129 129 265 195 408 200 144 5 268-45 373-150 107-107 157-232 151-376-6-143-78-284-216-422-87-87-177-148-272-183-94-36-188-43-280-22-92 21-174 67-245 137-100 101-152 221-155 362-4 142 75 293 236 454m1583-545l-1072-1072 774-774 126 126-632 632 329 329 592-591 125 126-591 591 365 365 657-657 126 125-799 800m2379-2380l-373 373-406-146c-95-35-160-52-193-52-33 0-65 16-95 45l424 424-331 331-1072-1072 331-331 412 412c27-30 39-63 36-98-3-35-32-115-88-239-42-92-65-164-68-219-4-54 16-116 61-185 44-70 127-166 249-287l226 226-17 16c-57 57-88 109-93 158-6 49 6 106 37 172 30 65 47 120 51 164 3 44-6 90-27 139 64-32 132-47 206-44 74 3 171 25 292 66l438 147m-458-611c-175-175-263-360-263-555 0-195 87-379 262-553 178-179 363-268 555-269 193-1 375 85 547 258 126 125 207 248 245 371 38 122 39 245 4 369-35 125-112 246-231 365-121 121-240 202-358 243-117 40-243 44-375 10-132-34-261-114-386-239m331-330c108 108 206 165 293 172 88 7 167-24 236-93 71-71 103-150 96-235-7-86-71-188-191-308-100-101-194-154-281-160-88-5-166 27-236 97-67 66-97 144-90 232 6 87 64 186 173 295m419-1494l551-551c120-120 238-181 355-184 117-2 228 49 334 155 108 108 160 225 156 351-4 127-73 257-207 390l-182 182 397 397-332 332-1072-1072m790 126l82-82c64-64 98-120 102-169 4-48-12-89-46-124-34-33-74-51-120-51-46-1-100 29-162 92l-95 94 239 240m787-630c-175-175-262-359-262-554 0-195 87-380 261-554 178-178 364-268 556-269 192 0 375 86 547 258 125 125 207 249 245 371 37 122 39 246 4 370-35 124-112 246-231 365-121 121-240 201-358 242-118 41-243 44-376 10-132-34-261-113-386-239m332-330c108 108 206 166 293 173 87 7 166-25 235-94 71-71 104-150 96-235-7-85-70-187-190-307-101-101-195-154-282-160-88-6-166 26-236 96-67 67-97 144-90 232 6 88 65 186 174 295m422-1496l620-621c103-103 208-157 315-161 106-4 197 32 273 107 63 64 98 138 103 222 5 57-10 119-43 188 95-59 183-84 265-75 81 9 156 48 224 116 56 55 93 118 111 188 19 71 18 141 0 212-12 43-42 97-91 160-65 85-110 139-134 164l-572 571-1071-1071m754 87l144-145c52-52 79-97 82-135 2-38-13-74-47-107-31-32-66-46-104-43-38 2-82 29-132 79l-147 147 204 204m420 420l169-169c57-57 87-107 91-151 3-44-12-82-46-116-32-32-69-46-111-42-43 4-93 35-151 93l-169 168 217 217m734-1589l177-177c162-162 311-254 446-275 136-21 264 28 385 149 99 99 139 211 119 335-19 125-96 254-231 388l-569 569-1071-1071 331-331 413 413m428 428l169-170c104-103 118-192 43-267-66-66-150-47-254 56l-169 170 211 211m-15-1667l886-886 229 229-554 553 171 171 513-513 218 218-513 513 211 211 570-570 243 243-903 902-1071-1071m-31646 35543l2075-2075 3887 2307-2304-3890 2065-2065 5090 5090-1286 1287-3881-3881 2888 4874-1166 1166-4871-2890 3880 3880-1287 1287-5090-5090m9074-3977c-831-830-1247-1708-1245-2634 0-926 413-1802 1240-2629 847-847 1728-1273 2640-1277 914-4 1780 405 2599 1224 595 595 982 1181 1162 1762 180 580 186 1167 20 1757-167 591-533 1168-1098 1733-574 574-1140 958-1699 1152-560 192-1154 209-1784 46-628-161-1240-539-1835-1134m1575-1567c513 513 978 787 1393 820 416 32 789-116 1119-446 337-337 490-711 456-1115-34-406-335-892-905-1462-479-479-926-731-1339-758-416-28-788 124-1120 456-318 317-461 686-429 1102 31 417 307 885 825 1403m11766-6690l-1571 1571-3840-3839-1229 1230 1565 1565c643 643 1082 1151 1316 1520 234 371 295 753 185 1145-110 392-444 869-1005 1429-170 171-386 348-645 534l-1032-1032 235-235c212-213 315-411 310-592-6-181-134-397-384-647l-3368-3367 4372-4372 5091 5090m-1702-3382c-830-830-1246-1709-1245-2634 0-926 413-1802 1241-2629 847-847 1727-1273 2639-1277 914-4 1780 405 2599 1223 595 595 982 1182 1162 1762 180 581 186 1168 21 1758-168 591-534 1168-1099 1733-573 574-1140 958-1699 1152-559 192-1154 208-1783 46-628-161-1241-539-1836-1134m1575-1567c513 513 979 786 1393 820 416 31 790-117 1119-446 338-338 491-711 456-1115-34-407-335-892-905-1462-479-479-925-731-1339-759-416-27-788 125-1120 457-317 317-461 686-429 1102 31 417 307 885 825 1403m11716-6641l-1771 1772-1929-692c-455-168-761-251-920-249-157 1-308 74-449 215l2012 2011-1571 1572-5090-5091 1571-1571 1955 1955c129-143 187-298 173-464-13-167-154-545-419-1135-198-435-307-781-324-1040-18-257 79-551 289-881 211-332 606-786 1184-1364l1073 1074-79 79c-269 269-417 519-444 750-28 231 30 502 176 814 145 313 225 571 242 780 17 208-25 430-124 662 300-152 626-222 976-208 352 12 814 117 1387 311l2082 700m-2179-2904c-830-830-1246-1708-1245-2634 0-926 413-1802 1240-2629 848-847 1728-1273 2640-1277 914-4 1780 405 2599 1224 595 594 982 1181 1162 1761 180 581 186 1168 21 1758-168 591-534 1168-1099 1733-573 574-1140 958-1699 1152-559 192-1154 208-1783 46-628-161-1241-539-1836-1134m1575-1567c513 513 979 786 1393 820 416 32 790-117 1119-446 338-338 491-711 456-1115-34-406-335-892-905-1462-479-479-925-731-1339-758-416-28-788 124-1120 456-317 317-461 686-429 1102 31 417 307 885 825 1403m-24637 34643l-267 267-233-234-684 684 233 234-266 266-481-480 111-111c-111-235-275-461-493-678l-239-239 898-898 825 824 115-115 481 480m-927-34l-561-561-267 266 14 14c148 148 306 356 473 622l341-341m246-822c-175-175-262-360-262-555 0-195 87-379 261-553 179-179 364-268 556-269 192-1 375 85 547 257 125 126 207 249 245 371 38 123 39 246 4 370-35 125-112 246-231 365-121 121-240 202-358 243-118 40-243 44-375 9-133-33-262-113-387-238m332-330c108 108 206 165 293 172 88 7 166-24 235-93 71-72 104-150 97-235-8-86-71-188-191-308-101-101-195-154-282-160-88-5-166 27-236 96-67 67-97 145-90 232 6 88 65 187 174 296m417-1492l437-437 818 485-485-818 435-435 1072 1071-271 271-817-817 608 1026-246 246-1025-609 817 817-271 271-1072-1071m2970-1180l-375 375 123 230-338 338-669-1475 363-362 1473 670-347 347-230-123m-302-162l-502-268 268 502 234-234m2426-1609l-1441 1441-1072-1072 331-330 808 808 223-223-808-808 331-331 808 808 226-226-808-808 331-331 1071 1072m-852-1292l331-331 374 375 363-362-375-375 333-332 1071 1072-332 332-434-434-362 362 434 434-331 331-1072-1072m2271-2270l1072 1071-312 312-588-589 190 987-314 314-1072-1071 313-313 593 593-192-995 310-309m221-222l886-886 229 229-553 554 170 171 514-514 218 219-513 513 211 211 570-570 243 242-903 903-1072-1072m-7168 11460l841-841 1072 1071-143 142-945-946-557 557 946 946-142 142-1072-1071m2146-3l-1072-1072 405-404c71-71 129-122 173-153 62-44 123-71 183-83 60-11 123-5 189 17 66 23 125 61 178 114 91 91 139 197 144 318 5 121-68 257-220 409l-275 275 437 437-142 142m-421-705l277-277c92-92 140-174 144-246 5-73-24-140-86-202-45-45-94-72-149-81-55-9-106-1-153 26-30 18-78 59-142 123l-274 274 383 383m821-739c-177-177-269-364-274-560-5-196 68-370 220-521 99-99 211-164 338-197 127-32 253-27 379 16 126 43 243 118 350 225 109 108 184 227 226 357 41 130 44 257 8 381-37 125-102 233-195 326-101 101-215 167-343 198-128 31-255 25-380-19-125-43-235-112-329-206m149-144c129 129 266 196 409 201 143 4 268-45 373-150 106-107 156-232 151-376-6-144-78-284-216-422-87-87-178-148-272-184-94-35-188-42-280-21-93 21-174 66-245 137-100 100-152 221-156 362-3 141 76 292 236 453m573-1678l653-652 946 946 95-96 376 376-126 125-250-250-709 710 250 250-126 126-375-376 82-82c-43-217-263-524-659-920l-157-157m636-384l-374 374 55 55c91 91 208 224 350 399 142 175 240 337 294 487l495-495-820-820m189-440l143-143 1009 308-353-964 139-140 433 1235c54 155 81 264 81 329 0 64-30 126-90 186-36 36-89 72-160 109l-121-122c60-16 111-45 154-87 34-35 52-76 55-123 3-47-20-126-69-235l-1221-353m1062-1063l142-142 470 470c65-64 98-123 99-174 1-52-26-146-81-282-41-101-66-175-75-223-10-48-7-100 9-156 15-55 45-104 88-147 54-55 84-83 88-85l122 123c-5 5-14 14-29 27-16 16-26 25-29 28-45 46-68 90-68 134-1 45 21 117 63 217 55 127 82 215 81 264-1 48-12 97-32 145 88-50 220-54 396-13l578 136-176 176-471-110c-129-32-226-46-289-43-63 3-121 31-173 83l501 502-142 142-1072-1072m2213-69l-946-946-353 353-126-126 849-848 126 126-354 353 946 946-142 142m-422-1721l142-142 456 456 256-255c167-167 308-246 423-237 114 9 211 53 290 132 83 83 127 183 133 302 6 119-68 255-221 408l-408 408-1071-1072m1092 808l259-258c89-89 138-169 148-238 10-71-18-138-83-204-45-45-95-70-149-76-55-6-105 6-152 36-46 30-115 90-205 180l-189 189 371 371m-157-1743l142-143 1072 1072-142 142-1072-1071m-5179 9933l177-177c162-162 312-253 447-275 136-21 264 29 385 150 99 99 139 210 119 334-20 125-97 254-231 389l-569 569-1072-1072 903-902 217 217-572 571 196 196m428 428l170-169c103-104 118-193 43-268-66-66-151-47-254 57l-170 169 211 211m-9-1673l886-886 229 229-554 554 171 171 513-514 219 219-513 513 211 211 570-570 242 242-902 903-1072-1072m2242-1264c163-94 308-77 436 50 104 105 150 231 136 378-13 148-94 296-241 442-251 252-513 303-785 153l290-337c92 58 179 45 261-37 46-46 69-92 70-138 1-47-19-91-60-131-40-40-87-57-141-52-54 5-107 33-159 85l-89 89-192-191 71-71c42-42 64-87 66-133 2-46-17-89-56-129-58-57-123-50-196 22-75 76-85 152-30 231l-331 262c-138-233-86-471 154-711 134-133 264-212 391-236 127-24 234 8 321 95 106 106 133 225 84 359m292-1270l841-841 1072 1072-142 142-946-946-557 557 946 946-142 142-1072-1072m1581-480c-178-178-269-365-274-561-5-196 68-370 219-521 99-99 212-164 339-197 126-32 253-27 379 16 126 43 243 118 350 225 108 108 184 228 225 357 42 130 45 257 8 381-36 125-101 233-194 327-101 100-215 166-344 197-128 31-254 25-379-19-125-43-235-111-329-205m149-145c129 129 265 196 409 201 143 5 267-45 372-150 107-107 157-232 151-376-6-143-78-284-215-422-87-87-178-148-272-184-95-35-188-42-280-21-93 21-175 67-245 137-100 100-152 221-156 362-3 142 75 293 236 453m1968-1681l178-106c86 146 122 288 106 426-16 139-80 264-191 375-116 115-233 186-352 211-120 25-243 12-369-39-127-52-242-129-344-231-112-111-188-230-228-356-40-125-43-249-8-371 36-121 101-229 195-324 108-107 225-170 352-188 128-19 255 7 383 77l-106 172c-103-53-196-73-278-62-83 12-160 53-232 125-82 82-131 171-147 265-16 95-1 187 43 275 44 89 101 169 172 240 91 91 184 157 278 199 95 41 186 51 276 28 89-22 167-65 232-130 79-80 123-170 132-270 9-101-22-206-92-316m693 59l-1072-1072 405-405c71-71 129-121 173-152 62-44 123-72 183-83 60-11 123-5 189 17 66 23 125 61 178 114 91 91 139 197 144 318 5 121-68 257-220 409l-275 275 437 437-142 142m-421-705l277-277c92-92 140-174 144-247 5-72-24-139-86-201-45-45-94-72-149-81-55-10-106-1-153 26-30 18-78 58-142 123l-274 274 383 383m1422-297l-1071-1071 773-774 126 126-631 631 329 330 591-591 126 125-591 591 365 366 657-658 125 126-799 799m21-2164l653-652 946 946 95-96 376 375-126 126-250-250-709 710 250 250-126 125-375-375 82-83c-43-217-263-523-659-919l-157-157m636-384l-374 374 55 55c91 91 208 224 350 399 142 175 240 337 294 487l495-495-820-820m1358 534l-1072-1072 143-142 441 441 554-553-442-442 143-142 1071 1072-142 142-504-505-554 554 504 505-142 142m6-2150l129-128 849 848-279-1419 141-140 1071 1071-128 129-847-846 278 1415-142 142-1072-1072m1076-1076l142-142 470 470c65-65 98-123 99-174 1-52-26-146-81-282-41-101-66-175-75-223-10-48-7-100 9-156 15-55 45-104 88-147 54-55 83-83 87-85l123 123c-5 5-15 14-29 27-16 16-26 25-29 28-46 46-68 90-68 134-1 44 21 117 63 217 55 127 82 215 81 264-1 48-12 97-33 145 89-50 221-54 397-13l578 136-177 176-470-110c-130-32-226-46-289-43-63 3-121 31-173 83l501 502-142 142-1072-1072m1359-258c-178-178-269-365-274-561-5-196 68-369 219-521 99-99 212-164 339-196 126-33 253-27 379 16 126 42 243 117 350 224 108 109 183 228 225 357 42 130 45 257 8 381-36 125-101 234-194 327-101 101-216 166-344 197-128 31-254 25-380-19-125-43-234-111-328-205m149-144c129 129 265 195 409 200 143 5 267-45 372-150 107-107 157-232 151-376-6-143-78-284-215-422-87-87-178-148-273-183-94-36-187-43-280-22-92 21-174 67-244 137-101 101-152 221-156 362-3 142 75 293 236 454m1574-536l-1072-1072 403-402c81-82 158-137 229-165 71-27 143-33 216-15 73 16 134 50 184 99 46 46 76 101 92 166 16 65 11 135-14 211 84-46 166-64 246-53 81 11 153 48 215 110 50 51 86 108 108 172 22 65 29 124 21 179-8 54-29 111-64 170-35 59-87 122-155 191l-409 409m-479-764l232-231c63-63 104-113 123-148 25-47 34-92 27-135-6-43-28-84-66-121-36-36-75-59-120-69-44-10-87-4-129 17-41 22-101 71-177 148l-215 215 325 324m495 496l267-267c46-46 77-80 92-102 27-38 44-76 53-111 8-36 6-74-6-114-12-41-35-78-69-112-41-40-86-64-136-73-50-10-99-2-148 22-48 25-106 71-174 139l-248 248 369 370" fill="#434242"/><g fill="#ebecec"><path d="m472750 331992c-825 21-1113-368-1497-895-70-96-93-149-144-236-23-40-43-77-72-119-76-108-32-76-123-101-167 457 534 1362 883 1634 158 122 301 180 452 280 69 45 36 20 68 60-1208 918-866 1261-1589 2108-329 385-510 585-948 901-107 77-406 319-482 443-346 565 309 923 584 1149 195 162 319 272 682 255 657-30 1097-127 1726 77 1358 440 1171-996 2442 843 474 686 991 1607 1337 2360 425 923 611 1653 1554 2172 124 68 199 67 250 198 145 370 141 857 163 1251 56 995 661 2316 111 3220-252 415-708 561-807 1098 341 102 785 142 1152 12 597-213 247-626 458-876 82-75 137 15 222 17 172 5-133 40 75-15 85-22-44-781-37-999 30-1000 73-2112 307-3063 116 134 368 1017 430 1266 166 664 463 2372 119 2949-175 294-640 550-644 1047 345 199 1531 140 1703-337 88-243-77-433-9-715l230-43c-52-429-268-330-262-1901 3-711-12-1430-7-2136 9-1528 984-1879 2450-1739 1390 132 2311 503 3826 302 928-124 1325-436 1619 82 436 767 731 759 1124 1037 13 272-111 827 131 967 188-102 283-597 290-863l637 10c-6 255-23 874 188 997 220-100 242-745 233-1009 611-132 587 776 616 1144 67 864 128 2340-588 2902-303 237-718 624-818 1025 429 54 1527 310 1737-298 36-103 48-219 62-321 8-56 12-110 26-160 64-234 226-110 416-93 34-214-24-356-16-572 37-963 303-2192 494-3155 45-226 74-438 133-517 215 293 425 919 512 1276 203 829 113 2376-219 3167-159 381-661 494-795 1004 345 155 1078 224 1462 79 648-245 115-821 378-1276 197 2 152 89 307 47 32-90-40-562-42-816-6-861 16-1745 140-2600 47-327 291-1285 212-1557-69-237-467-470-700-1145-784-2266 591-4071 609-6256 170 55 367 907 397 1044 281 1280 291 2830 91 4103-140 890-376 1654-78 2577 130 402 304 668 551 913 326 324 436 375 515 949 196-319 58-821-91-1087-159-280-396-579-393-1003 132 154 127 400 281 571 5-134-65-275-58-462 25-629 201-336-126-1361-587-1834 111-3755-532-5903-348-1159-812-2019-1956-2376-2067-644-3622 344-5627 462-2316 135-3747 217-6134-117-2454-344-1962-53-3998 11-672 21-1381-1-1999-126-496-101-1280-364-1509-659 171-188 692-450 649-783-262-312-1058 19-1351 152l-78-155c-30-74-55-107-97-155-239-279-579-210-855-581-140-187-238-410-315-638l-154-575c-35-120-15-123-95-177-51 65 6-52-51 89-8 20-23 72-27 99-41 234-21 550 10 787 52 400 184 535 279 835"/><path d="m461409 366188h2379v3031h-402v-2675h-1575v2675h-402v-3031m4215 3031v-3031h1145c201 0 354 10 461 29 149 25 274 72 375 141 100 70 182 168 243 292 61 125 92 263 92 413 0 257-82 475-247 653-163 178-460 267-889 267h-778v1236h-402m402-1591h783c260 0 444-48 553-145 109-97 163-232 163-408 0-126-32-235-96-325-64-90-149-150-253-179-68-18-193-27-374-27h-776v1084m3382 116c0-502 136-896 406-1180 270-285 619-426 1046-426 280 0 532 67 757 200 224 133 396 319 514 559 118 238 177 509 177 812 0 307-62 582-186 824-125 243-300 426-527 550-228 125-474 187-737 187-286 0-540-69-766-207-224-137-395-325-510-563-116-238-174-490-174-756m415 7c0 365 98 652 294 862 196 209 443 314 739 314 302 0 549-106 745-317 195-212 292-512 292-902 0-246-42-461-125-645-83-183-205-326-365-427-161-101-341-151-541-151-283 0-528 97-732 292-205 194-307 519-307 974m4185-1563h364v2401l1614-2401h397v3031h-364v-2394l-1609 2394h-402v-3031m4046 2176l381-97c29 147 106 293 232 440 126 147 293 220 501 220 212 0 379-54 502-163 122-109 183-241 183-396 0-166-64-299-193-397-129-99-304-149-526-149h-191v-351c183 0 324-11 421-32 97-21 184-75 258-163 75-87 113-186 113-297 0-132-51-247-154-344-101-97-239-146-413-146-152 0-282 38-389 115-108 77-182 178-223 305-41 126-62 221-62 283l-385-89c94-644 449-965 1062-965 295 0 529 82 702 246 173 165 259 357 259 577 0 282-133 501-400 656 155 43 284 131 388 262 104 132 156 289 156 473 0 261-100 479-302 654-202 176-469 264-802 264-573 0-946-302-1118-906m3881 855v-3031h1138c231 0 417 31 557 92 140 61 249 156 328 284 80 127 119 260 119 400 0 129-35 251-105 365-70 114-176 207-317 277 183 54 324 146 422 276 99 129 148 282 148 458 0 143-30 275-90 397-60 122-134 216-222 282-88 66-199 116-332 150-133 33-296 50-489 50h-1157m402-1756h656c178 0 305-12 382-36 103-30 179-81 231-151 51-71 78-159 78-266 0-101-24-190-73-266-48-77-117-130-207-158-89-28-243-42-461-42h-606v919m0 1401h755c130 0 221-5 274-15 92-16 169-44 231-83 63-38 113-95 154-169 40-74 60-159 60-256 0-114-29-212-88-296-58-84-138-142-241-176-103-34-251-51-443-51h-702v1046m3623 355v-3031h2189v356h-1786v931h1672v356h-1672v1033h1858v355h-2261m4267-3031h1846v2676h271v1062h-356v-707h-2007v707h-355v-1062h233c245-369 368-1113 368-2233v-443m1443 356h-1058v155c0 258-23 612-70 1060-46 448-137 816-273 1105h1401v-2320m2333 2675v-3031h2189v356h-1787v931h1672v356h-1672v1033h1859v355h-2261m4008 0v-3031h402v1249h1567v-1249h402v3031h-402v-1426h-1567v1426h-402m4094-1475c0-502 135-896 406-1180 270-285 618-426 1046-426 280 0 532 67 757 200 224 133 396 319 514 559 117 238 177 509 177 812 0 307-62 582-187 824-124 243-299 426-527 550-228 125-473 187-736 187-286 0-541-69-766-207-224-137-395-325-511-563-115-238-173-490-173-756m415 7c0 365 98 652 294 862 196 209 442 314 739 314 302 0 549-106 745-317 194-212 292-512 292-902 0-246-42-461-125-645-83-183-205-326-366-427-160-101-340-151-540-151-284 0-528 97-732 292-205 194-307 519-307 974m-45478 7445l592 182c-91 334-242 581-454 743-212 162-480 243-805 243-403 0-734-137-993-413-259-275-389-651-389-1128 0-505 130-897 391-1177 260-279 603-419 1028-419 371 0 672 110 904 330 138 130 241 316 310 559l-605 144c-36-156-111-281-225-372-114-91-252-136-415-136-225 0-407 81-547 242-140 161-210 422-210 783 0 383 69 656 206 818 139 163 318 244 539 244 163 0 303-51 420-155 117-104 202-266 253-488m2294 1117v-3031h2244v513h-1630v673h1516v512h-1516v821h1689v512h-2303m3992 0v-3031h919l543 2068 537-2068h922v3031h-568l-2-2386-597 2386h-590l-595-2386-2 2386h-567m4711 0v-3031h2243v513h-1630v673h1516v512h-1516v821h1689v512h-2302m4008-3031h571v2018l1228-2018h610v3031h-572v-1985l-1228 1985h-609v-3031m1566-876h284c-16 187-83 334-198 441-115 107-264 160-446 160-184 0-333-53-448-160-115-107-181-254-197-441h283c10 97 44 171 103 222 60 50 146 74 259 74 112 0 198-24 257-74 59-51 93-125 103-222m2645 3907v-3031h613v1194h1194v-1194h614v3031h-614v-1325h-1194v1325h-613m6963 0h-661l-261-690h-1216l-252 690h-649l1177-3031h648l1214 3031m-1121-1202l-422-1122-409 1122h831m4436 1202v-1265h-124c-194 0-330 29-410 86-80 58-215 230-408 518l-439 661h-731l369-591c146-235 262-399 348-493 87-95 196-179 325-253-281-45-484-143-609-295-125-153-188-335-188-547 0-185 47-349 140-491 93-143 216-239 368-287 153-49 380-74 684-74h1289v3031h-614m0-2518h-478c-242 0-402 5-478 16-76 11-143 48-198 112-55 63-82 146-82 248 0 107 27 192 80 254 53 63 120 102 202 117 82 15 249 23 501 23h453v-770m6559 2163v355h-601v-355c-485-18-826-138-1026-359-200-221-299-498-299-830 0-350 104-630 312-842 209-211 546-326 1013-344v-301h601v301c482 18 823 136 1024 355 201 219 301 497 301 833 0 334-100 610-300 830-200 220-542 339-1025 357m0-512c160 0 298-27 414-81 115-54 197-125 246-217 48-90 72-222 72-397 0-437-244-656-732-656v1351m-601 0v-1351c-259 0-445 57-560 172-115 115-173 289-173 521 0 438 245 658 733 658m3591 867v-3031h2244v513h-1630v673h1515v512h-1515v821h1689v512h-2303m4000 0v-3031h981c372 0 614 15 727 45 174 46 319 145 436 297 117 153 176 350 176 591 0 186-34 342-101 469-68 127-153 227-257 299-104 72-210 120-317 144-146 29-357 43-633 43h-398v1143h-614m614-2518v863h333c241 0 401-16 482-48 81-32 145-81 191-149 46-68 69-146 69-237 0-111-32-202-97-274-65-72-146-117-245-135-73-13-219-20-439-20h-294m3322 2518v-3031h919l543 2068 537-2068h921v3031h-567l-2-2386-597 2386h-590l-595-2386-2 2386h-567m7441 0h-661l-262-690h-1216l-251 690h-650l1177-3031h649l1214 3031m-1122-1202l-421-1122-409 1122h830"/></g><g stroke-width="76.2"><path fill="#434242" stroke="#434242" d="m96591 397154l6369-5833 6369 5833 6369-5833 6369 5833 6369-5833 6369 5833 6369-5833 6369 5833 6369-5833 6369 5833 6369-5833 6369 5833 6369-5833 6369 5833 6369-5833 6369 5833v-272835h-101904z"/><g fill="#96a7b1" stroke="#96a7b1"><path d="m86400 109886h122285v3386h-122285z"/><path d="m86400 107624c2185 0 3956 1771 3956 3955 0 2185-1771 3956-3956 3956-2184 0-3955-1771-3955-3956 0-2184 1771-3955 3955-3955z"/><path d="m208685 107624c2185 0 3956 1771 3956 3955 0 2185-1771 3956-3956 3956-2184 0-3955-1771-3955-3956 0-2184 1771-3955 3955-3955z"/></g><path fill="#434242" stroke="#434242" d="m96591 107854h101904v16465h-101904z"/></g><g fill="none" stroke-width="250"><g stroke="#fefefe"><g stroke-dasharray="1250 1250"><path d="m96591 124319h101904"/><path d="m197223 124319v270373"/></g><g stroke-dasharray="1250 750"><path d="m97863 394692l5097-4643 6369 5832 6369-5832"/><path d="m115698 390049l6369 5832 6369-5832 6369 5832 6369-5832"/><path d="m141174 390049l6369 5832 6369-5832 6369 5832 6369-5832"/><path d="m166650 390049l6369 5832 6369-5832 6369 5832 6369-5832"/><path d="m192126 390049l5097 4643"/></g></g><path stroke-dasharray="1250 1250" stroke="#f5f5f5" d="m97863 124319v270373"/></g><g fill="#ebecec"><path d="m150693 226994l534-319c261 438 366 864 318 1279-48 414-238 789-573 1124-346 345-698 557-1056 632-358 76-727 37-1107-117-381-155-724-385-1031-692-334-334-563-690-684-1067-121-377-129-748-22-1114 106-365 301-689 584-972 322-321 674-510 1056-565 383-55 766 22 1148 232l-319 517c-307-160-587-222-834-187-249 35-480 160-695 375-246 246-393 511-440 795-48 284-5 560 127 825 133 268 305 507 517 719 273 273 551 472 834 596 284 125 559 154 828 87 269-66 500-197 695-393 238-238 370-507 397-809 27-302-65-617-277-946m2089 166l-3215-3215 2322-2322 377 378-1895 1894 988 988 1774-1773 377 377-1774 1773 1096 1096 1971-1971 377 377-2398 2398m2977-2977l-3215-3215 638-638 3036 1516c282 141 492 249 629 322-80-153-194-383-343-688l-1462-3009 569-570 3215 3215-409 409-2689-2690 1751 3628-383 383-3667-1811 2739 2739-409 409m3759-3759l-3215-3215 2321-2321 377 377-1895 1895 988 988 1774-1774 377 377-1774 1774 1096 1096 1971-1971 377 377-2397 2397m3004-3004l-3215-3214 426-427 1325 1325 1661-1662-1325-1324 427-427 3215 3215-427 427-1513-1514-1661 1662 1513 1513-426 426m2872-2872l-1982-4448 468-468 4524 1906-485 485-1346-603-1354 1354 626 1323-451 451m-395-2245l1095-1095-1226-556c-372-170-672-318-902-441 165 254 312 518 441 796l592 1296m6284-3644l-3215-3215-1425 1425c-287 287-475 533-566 740-91 206-109 427-52 662 57 235 174 442 351 618 228 228 494 347 798 356 304 9 630-120 981-386-59 167-90 306-96 417-11 238 15 499 76 780l319 1431 532-531-244-1094c-71-317-115-567-138-750-22-183-21-326 2-431 22-103 59-197 108-279 38-58 112-141 222-251l492-493 1428 1428 427-427m-2223-1369l-913 913c-195 195-366 325-516 394-149 70-296 89-441 56-145-32-270-99-374-203-152-152-223-332-211-540 12-208 137-431 374-668l1017-1016 1064 1064m3385-5730c1079-873 2005-922 2780-148 791 791 743 1719-144 2784l332 333-902 902-341-341c-1059 893-1984 944-2775 152-776-776-727-1702 148-2779l-247-247 903-902 246 246m1963 1963c110-202 152-405 122-607-30-202-126-385-288-547-155-155-339-251-551-286-213-35-420-1-621 102l1338 1338m-894 911l-1329-1329c-105 190-141 394-106 609 34 216 131 404 290 563 149 149 328 238 536 266 209 28 412-8 609-109m632-5068l2659-2659 687 687-1662 1662 512 512 1540-1540 656 655-1540 1540 633 633 1711-1710 727 727-2708 2708-3215-3215m3239-3238l1652-1653c360-360 715-544 1066-552 350-8 684 147 1000 463 325 325 481 677 469 1055-12 379-220 769-621 1170l-545 545 1190 1190-996 996-3215-3214m2370 377l245-245c193-193 295-362 306-507 11-144-35-268-139-372-101-101-220-153-358-155-138-3-301 89-488 276l-284 284 718 719m868-3616l1310-1310 2456 1457-1456-2457 1304-1304 3215 3215-812 812-2451-2450 1823 3078-736 736-3076-1825 2450 2451-812 812-3215-3215m8910-3539l-1126 1125 368 692-1014 1014-2005-4425 1088-1088 4420 2010-1041 1041-690-369m-907-486l-1506-805 803 1508 703-703m-72564 126582l-799 800-701-701-2052 2052 701 701-800 799-1441-1441 332-332c-333-706-826-1384-1478-2036l-717-717 2694-2694 2474 2474 345-346 1442 1441m-2780-103l-1683-1684-800 800 42 42c444 443 917 1066 1417 1867l1024-1025m738-2466c-524-525-787-1079-786-1664 0-585 261-1138 783-1661 535-535 1091-803 1668-806 577-3 1124 256 1641 773 375 375 620 746 734 1113 114 366 117 737 13 1109-106 374-337 738-694 1095-362 362-720 605-1073 728-353 121-729 131-1126 29-397-102-784-341-1160-716m995-990c324 324 618 496 880 517 263 21 498-73 706-281 214-213 310-449 289-704-22-257-212-564-572-924-303-302-585-461-846-479-263-17-498 79-707 289-201 200-291 433-271 696 19 263 194 559 521 886m1253-4477l1310-1310 2455 1457-1455-2457 1304-1305 3215 3215-813 813-2450-2451 1823 3078-736 736-3077-1825 2451 2451-812 813-3215-3215m8910-3540l-1126 1126 368 691-1014 1014-2005-4425 1088-1087 4419 2010-1040 1040-690-369m-907-485l-1506-805 803 1508 703-703m7280-4828l-4325 4324-3214-3215 992-992 2425 2424 669-669-2425-2424 992-993 2425 2425 678-678-2425-2425 993-992 3215 3215m-2556-3874l992-993 1123 1123 1086-1087-1122-1122 997-997 3215 3215-997 997-1302-1302-1087 1086 1302 1302-992 993-3215-3215m6811-6812l3215 3215-934 934-1765-1765 570 2960-942 942-3215-3215 939-938 1778 1779-574-2983 928-929m665-664l2658-2659 687 687-1661 1662 512 512 1540-1541 655 656-1540 1540 633 633 1711-1710 727 727-2707 2707-3215-3214m-21327 34200l2523-2524 3215 3215-426 427-2838-2838-1670 1670 2838 2838-427 427-3215-3215m6438-8l-3215-3215 1214-1214c213-213 387-366 520-459 184-132 367-214 547-248 181-33 371-15 568 52 198 67 376 181 535 340 273 273 417 591 431 954 16 363-205 772-660 1227l-824 825 1311 1311-427 427m-1262-2115l831-831c275-275 419-521 433-739 12-218-74-419-260-606-134-134-283-215-447-243-164-28-317-1-459 79-90 53-232 175-425 368l-822 822 1149 1150m2463-2216c-533-533-806-1094-821-1682-15-589 204-1109 657-1562 297-297 636-493 1016-591 379-96 759-81 1137 48 378 128 729 353 1050 674 325 325 551 683 676 1071 126 389 134 770 25 1143-109 374-304 701-583 980-303 303-647 500-1031 592-384 92-765 74-1140-56-375-129-704-335-986-617m448-433c387 387 795 588 1226 602 430 14 803-136 1117-450 320-320 471-695 453-1127-18-431-233-853-646-1266-261-261-534-445-817-552-283-106-563-128-840-65-278 64-522 201-734 413-301 300-457 663-467 1086-11 424 225 877 708 1359m1718-5033l1958-1958 2837 2838 288-287 1127 1127-377 377-750-750-2129 2128 750 750-377 377-1127-1127 247-247c-130-651-789-1571-1977-2758l-470-470m1908-1154l-1122 1122 164 165c274 274 624 674 1050 1198 427 524 720 1012 883 1462l1486-1487-2461-2460m566-1320l428-428 3029 923-1061-2891 419-420 1297 3706c163 463 244 791 244 984 0 193-90 379-269 559-109 109-269 217-479 326l-364-364c180-48 333-135 460-262 104-104 159-226 168-369 8-141-61-376-207-704l-3665-1060m3187-3188l427-426 1410 1410c194-194 292-369 295-523 4-155-77-437-241-847-123-300-199-523-227-668-30-145-21-301 27-467 47-165 135-313 264-442 164-164 252-249 263-255l369 369c-15 15-45 42-88 83-49 45-78 73-88 83-136 136-204 270-204 402-1 133 63 350 191 651 165 381 245 644 242 790-4 144-37 291-98 437 265-150 662-163 1190-39l1733 408-529 528-1410-331c-389-95-679-137-868-128-190 9-363 92-520 250l1504 1504-427 426-3215-3215m6639-208l-2838-2838-1059 1060-378-378 2546-2545 377 377-1059 1059 2838 2838-427 427m-1267-5163l427-427 1369 1370 766-766c502-502 925-739 1270-712 343 28 633 160 869 396 249 249 383 551 400 908 17 356-204 763-664 1224l-1222 1222-3215-3215m3278 2424l775-775c267-266 415-505 445-715 31-210-53-413-250-611-134-134-284-210-447-228-163-18-315 19-455 109-139 90-344 269-614 539l-568 568 1114 1113m-472-5231l427-426 3215 3215-427 426-3215-3215m-15537 29803l530-531c487-486 934-761 1341-825 408-64 792 86 1154 448 298 297 417 632 358 1005-59 373-289 761-694 1165l-1706 1706-3215-3215 2708-2707 651 651-1715 1715 588 588m1284 1284l508-508c311-311 354-578 129-804-197-196-451-140-762 171l-508 508 633 633m-28-5019l2658-2658 687 687-1661 1661 512 512 1540-1540 656 656-1540 1540 633 633 1710-1711 728 727-2708 2708-3215-3215m6727-3793c489-281 924-232 1306 150 314 314 451 693 410 1135-41 443-283 886-723 1326-755 755-1540 907-2355 457l868-1009c277 172 539 135 785-111 138-138 208-277 209-416 2-140-58-271-181-393-119-119-259-171-422-156-163 15-322 100-476 254l-269 270-575-575 212-213c127-126 194-259 199-398 6-139-50-268-169-386-173-173-369-152-586 66-226 225-256 456-92 693l-992 786c-412-701-257-1413 463-2134 400-399 790-635 1171-707 382-72 704 24 965 285 316 316 399 674 252 1076m875-3809l2524-2523 3214 3215-426 426-2838-2838-1670 1671 2838 2838-427 426-3215-3215m4743-1443c-533-532-807-1094-822-1682-15-588 205-1108 658-1562 297-297 636-493 1016-590 379-97 759-81 1137 48 378 128 728 352 1049 673 326 326 552 683 677 1072 126 389 134 770 25 1143-110 374-304 700-583 979-303 303-647 500-1032 593-383 92-764 74-1139-56-375-130-704-335-986-618m448-432c387 387 795 587 1225 602 431 14 803-136 1118-450 320-321 470-695 453-1127-18-431-233-853-646-1267-261-261-534-445-817-551-283-106-563-128-840-65-278 64-523 200-734 412-301 301-457 663-467 1087-11 423 225 876 708 1359m5902-5043l534-319c261 438 366 864 318 1279-48 414-238 789-573 1124-346 346-697 557-1056 632-358 77-727 37-1107-117-381-155-724-385-1031-692-334-334-563-690-684-1067-121-377-129-748-22-1113 106-366 301-690 584-973 322-321 674-510 1056-565 383-55 766 22 1148 232l-319 517c-307-160-587-222-834-187-249 35-480 160-695 375-246 246-393 512-440 795-48 284-5 560 127 826 133 267 305 506 517 718 273 273 551 472 834 596 284 125 559 154 828 87 269-66 500-197 695-393 238-238 370-507 398-809 26-302-66-617-278-946m2080 175l-3215-3215 1214-1214c214-213 387-366 520-459 184-131 367-214 547-247 181-33 371-16 568 51 198 68 376 181 535 341 273 272 417 590 432 953 15 363-205 772-661 1227l-824 825 1311 1311-427 427m-1261-2115l830-831c276-275 419-521 433-739 13-218-74-419-260-606-134-133-283-215-447-243-163-27-317-1-458 79-91 53-233 176-425 368l-823 822 1150 1150m4265-889l-3215-3215 2322-2321 377 377-1895 1895 988 987 1774-1773 377 377-1774 1774 1096 1095 1971-1971 377 377-2398 2398m63-6493l1958-1958 2838 2838 287-287 1127 1127-377 377-750-750-2128 2128 750 750-378 378-1127-1128 247-247c-130-651-789-1570-1977-2758l-470-470m1909-1154l-1123 1123 165 164c274 274 624 674 1050 1198 426 524 719 1012 882 1462l1486-1486-2460-2461m4073 1602l-3215-3215 426-426 1325 1324 1661-1661-1324-1324 426-427 3215 3215-426 426-1514-1513-1661 1662 1513 1513-426 426m19-6448l386-386 2546 2545-835-4257 421-421 3215 3215-386 386-2539-2539 832 4246-426 426-3214-3215m3227-3228l427-426 1410 1409c193-193 292-368 295-523 4-155-77-436-241-846-123-301-199-523-227-668-30-146-21-301 27-467 47-166 135-314 264-443 164-163 251-248 263-254l369 368c-15 15-45 43-88 83-49 46-78 74-88 84-136 136-204 269-204 401-1 133 63 350 191 652 165 380 245 644 242 790-4 144-37 291-98 437 265-151 662-164 1190-39l1733 408-529 528-1410-332c-389-94-679-137-868-128-190 9-363 92-521 250l1505 1505-427 426-3215-3215m4076-776c-532-533-806-1094-821-1682-15-588 204-1109 658-1562 297-297 635-493 1015-590 380-97 759-81 1138 47 378 128 728 353 1049 674 325 325 551 683 676 1071 126 390 134 771 25 1143-109 375-304 701-583 980-303 303-647 500-1031 593-384 92-764 74-1140-57-375-129-703-335-986-617m448-432c387 386 795 587 1226 601 430 14 803-135 1117-450 320-320 471-695 454-1127-18-431-234-853-647-1266-261-261-534-445-816-551-283-107-564-128-841-65-277 63-522 200-734 412-301 301-456 663-467 1086-10 424 225 877 708 1360m4722-1608l-3215-3215 1207-1206c245-246 474-410 688-494 213-83 430-99 649-47 219 50 402 149 551 298 137 137 229 303 276 499 47 195 33 405-43 631 252-138 498-190 740-157 242 32 457 142 644 329 151 152 259 324 325 517 65 193 86 371 63 535-24 163-88 334-193 510-105 178-260 369-465 574l-1227 1226m-1437-2290l695-695c189-189 312-337 369-443 76-141 104-276 83-406-20-129-86-250-199-363-107-107-226-176-359-205-132-31-262-14-387 51-125 65-303 213-533 444l-643 643 974 974m1486 1486l801-800c138-138 229-240 275-306 80-115 133-226 158-334 24-107 18-220-18-341-35-122-105-233-207-336-121-120-256-194-407-221-150-27-298-4-443 69-144 73-319 212-524 416l-744 744 1109 1109"/><path d="m96555 301067l-2-12338 5772-5772 3361 3361-7094 7094 2729 2729 6068-6068 3165 3165-6068 6067 6373 6374-4846 4846-9458-9458m28979-15214l-5471 5471 1790 3361-4930 4930-9745-21511 5285-5286 21486 9772-5057 5056-3358-1793m-4405-2361l-7323-3911 3903 7330 3420-3419m14409-2492l-15628-15628 8047-8047c1491-1492 2761-2507 3805-3034 1044-535 2157-695 3332-488 1179 211 2267 819 3264 1816 865 866 1429 1800 1687 2801 266 1000 266 2019 8 3063-164 658-524 1433-1077 2314 768-382 1375-612 1830-681 302-47 837-29 1593 51 753 84 1303 182 1644 298l6861 2169-5456 5456-7345-2186c-946-291-1637-400-2077-331-590 109-1106 386-1546 826l-426 426 6330 6329-4846 4846m-4431-14122l2041-2041c218-218 575-720 1066-1495 258-382 357-808 291-1273-62-470-262-874-604-1215-505-506-1055-735-1644-684-593 47-1328 513-2212 1397l-2124 2124 3186 3187m5672-18375l6370-6370 11935 7083-7075-11943 6340-6341 15629 15628-3951 3951-11914-11914 8865 14963-3579 3579-14955-8872 11914 11914-3951 3950-15628-15628m20841-20841l4845-4846 15629 15629-4846 4845-15628-15628m8298-8298l4823-4824 11787 11787 7552-7552 3842 3841-12376 12376-15628-15628m11302-11303l5363-5362 8421 2099-2113-8407 5333-5333 3016 15152 1297 1297-1 9690-6142-6142-15174-2994"/></g><path fill="#434242" stroke="#434242" stroke-width="76.2" d="m264388 396923l6369-5832 6369 5832 6369-5832 6369 5832 6369-5832 6369 5832 6369-5832 6369 5832 6369-5832 6369 5832 6369-5832 6369 5832 6369-5832 6369 5832 6369-5832 6369 5832v-272834h-101904z"/><path d="m308558 170207c4152 558 8414 573 12797 0v1898c0 272-210 472-464 494-4124 368-8074 353-11869 0-254-23-464-222-464-494 0-633 0-1266 0-1898" fill="#ebecec"/><g stroke-width="500"><path d="m309393 172616v4469c0 754 81 588-436 1134-670 709-1341 1417-2011 2125-2754 2910-2342 2119-2901 6071-2171 15355-5636 28911-5778 43372-9 979-301 6596 481 7069 2180 1321 2207 2671-72 4054-718 436-548 2612-548 3511 0 15547 0 31094 0 46640-892 1760-870 1538-870 3510 277 7129 1214 26504 11469 13782 4295 7534 8420 8042 12562 0 10343 12729 12137-6963 12142-13460 0-2503 198-1573-878-3832 0-15546 11-31093 21-46640 0-1131 219-3015-659-3577-2111-1351-2093-2588-407-3735 1325-900 863-5516 826-7322-290-14040-4067-28548-6421-43448-630-3988-285-3183-3078-6134l-1851-1956c-548-578-464-401-464-1200v-4433c-3753 340-7462 336-11127 0z" fill="none" stroke="#f5f5f5"/><path d="m304450 185360c-291-107-349 663-405 1055-2171 15355-5636 28911-5778 43372-9 979-301 6596 481 7069 2180 1321 2207 2671-72 4054-718 436-548 2612-548 3511 0 15547 0 31094 0 46640-892 1760-870 1538-870 3510 277 7129 1214 26504 11469 13782 4295 7534 8420 8042 12562 0 10343 12729 12137-6963 12142-13460 0-2503 198-1573-878-3832 0-15546 11-31093 21-46640 0-1131 219-3015-659-3577-2111-1351-2093-2588-407-3735 1325-900 863-5516 826-7322-290-14040-4068-28548-6421-43448-57-363-103-903-373-1017-3425-1444-6903-1339-10425 19-2355 907-4939 2127-10665 19z" fill="#ebecec" stroke="#fdfdfd"/><g fill="none" stroke="#b7cbd8"><path d="m319585 188902l2356 33638"/><path d="m301155 291879c4799 1169 9778 1821 14980 1833"/></g><g stroke="#434242"><path d="m308538 163488c4279-483 8558-483 12837 0 253 28 464 208 464 463v5955c0 255-211 435-464 464-4045 468-8309 498-12837 0-254-28-464-209-464-464v-5955c0-255 210-435 464-463z" fill="#ebecec"/><g fill="none"><g stroke-linecap="round"><path d="m309161 164385v841"/><path d="m310320 164296v1351"/><path d="m311479 164225v1843"/><path d="m313797 164147v2763"/><path d="m312638 164177v2356"/><path d="m314956 164138l1 3193"/><path d="m316115 164147l1 3605"/><path d="m317274 164177l1 4037"/><path d="m318433 164227l1 4367"/><path d="m320752 164386v5050"/><path d="m319593 164296v4719"/></g><path d="m319585 188919l2356 33638"/><path d="m301880 239321c4185 641 8639 1018 13460 1033"/><path d="m301155 291896c4799 1169 9778 1821 14980 1833"/></g></g></g><g stroke-width="76.2"><g fill="#96a7b1" stroke="#96a7b1"><path d="m254197 109656h122285v3386h-122285z"/><path d="m254197 107393c2185 0 3956 1771 3956 3956 0 2184-1771 3955-3956 3955-2184 0-3955-1771-3955-3955 0-2185 1771-3956 3955-3956z"/><path d="m376482 107393c2185 0 3956 1771 3956 3956 0 2184-1771 3955-3956 3955-2184 0-3955-1771-3955-3955 0-2185 1771-3956 3955-3956z"/></g><path fill="#434242" stroke="#434242" d="m264388 107624h101904v16465h-101904z"/></g><g fill="none" stroke="#fefefe" stroke-width="250"><g stroke-dasharray="1250 1250"><path d="m264388 124089h101904"/><path d="m265660 124089v270373"/><path d="m365020 124089v270373"/></g><g stroke-dasharray="1250 750"><path d="m265660 394462l5097-4643 6369 5832 6369-5832"/><path d="m283495 389819l6369 5832 6369-5832 6369 5832 6369-5832"/><path d="m308971 389819l6369 5832 6369-5832 6369 5832 6369-5832"/><path d="m334447 389819l6369 5832 6369-5832 6369 5832 6369-5832"/><path d="m359923 389819l5097 4643"/></g></g><path d="m319362 254425l178-106c87 146 122 288 106 426-16 138-80 263-191 375-115 115-233 185-352 210-119 26-242 13-369-39-127-51-241-128-344-230-111-112-187-230-228-356-40-126-43-249-7-371 35-122 100-230 195-324 107-107 224-170 352-189 127-18 255 8 382 78l-106 172c-103-53-196-74-278-62-83 11-160 53-232 125-82 82-131 170-147 265-15 94-1 186 43 275 44 89 102 169 172 239 91 91 184 158 278 199 95 42 187 51 276 29 90-22 167-66 232-131 79-79 123-169 132-270 9-100-21-205-92-315m-371-1021l142-142 457 457 255-256c167-167 308-246 423-237 115 9 212 53 290 132 83 83 128 184 133 303 6 118-67 254-221 407l-407 408-1072-1072m1093 808l258-258c89-89 139-168 149-238 10-70-18-138-84-204-45-45-95-70-149-76-54-6-105 6-152 36-46 30-114 90-204 180l-190 189 372 371m-157-1743l142-142 1071 1071-142 142-1071-1071m1453 689l-1071-1071 404-405c71-71 129-122 174-153 61-44 122-71 182-82 60-11 123-6 189 17 66 22 126 60 179 113 91 91 139 197 143 318 6 121-68 257-220 409l-274 275 437 437-143 142m-420-705l277-277c91-91 139-173 144-246 4-73-25-140-87-202-44-44-94-72-149-81-54-9-105 0-153 26-30 18-77 59-141 123l-274 274 383 383m821-738c-178-178-269-365-274-561-5-196 68-369 219-521 99-99 212-164 339-196 126-33 252-27 379 16 126 42 242 117 349 224 109 109 184 228 226 357 42 130 45 257 8 381-36 125-101 234-194 327-101 101-216 166-344 197-128 31-255 25-380-19-125-43-234-111-328-205m149-144c129 129 265 195 408 200 144 5 268-45 373-150 107-107 157-232 151-376-6-143-78-284-216-422-87-87-177-148-272-183-94-36-187-43-280-22-92 21-174 67-245 137-100 101-152 221-155 362-4 142 75 293 236 454m1583-545l-1072-1072 774-774 126 126-632 632 329 329 592-591 125 125-591 592 365 365 657-657 126 125-799 800m2379-2380l-373 373-406-146c-95-35-160-52-193-52-33 0-65 16-95 45l424 424-331 331-1072-1072 331-331 412 412c27-30 39-63 36-98-3-35-32-115-88-239-42-92-65-164-68-219-4-54 16-116 61-185 44-70 127-166 249-287l226 226-17 16c-57 57-88 109-93 158-6 49 6 106 37 172 30 65 47 120 51 164 3 44-6 90-27 139 64-32 132-47 206-44 74 3 171 25 292 66l438 147m-458-611c-175-175-263-360-263-555 0-195 87-379 262-553 178-179 363-268 555-269 193-1 375 85 547 258 126 125 207 248 245 371 38 122 39 245 4 369-35 125-112 246-231 365-121 121-240 202-358 243-117 40-243 44-375 10-132-34-261-114-386-239m331-330c108 108 206 165 293 172 88 7 167-24 236-93 71-71 103-150 96-235-7-86-71-188-191-308-100-101-194-154-281-160-88-5-166 27-236 96-67 67-97 145-90 233 6 87 64 186 173 295m1582-1679c163-93 308-77 435 50 105 105 151 231 137 379-14 147-94 295-241 442-252 251-513 302-785 152l289-336c93 57 180 44 262-38 46-46 69-92 70-138 0-47-20-90-61-131-39-40-86-57-140-52-55 5-108 33-159 85l-90 90-191-192 70-71c43-42 65-87 67-133 2-46-17-89-57-128-57-58-122-51-195 22-75 75-85 151-31 231l-330 261c-138-233-86-470 154-711 133-133 263-211 390-235 128-24 235 8 322 95 105 105 133 224 84 358m614-765l177-177c162-162 311-254 446-275 136-21 264 28 385 149 99 99 139 211 119 335-19 125-96 254-231 388l-569 569-1071-1071 331-331 413 413m428 428l169-170c104-103 118-192 43-267-66-66-150-47-254 56l-169 170 211 211m-15-1667l886-886 229 229-554 553 171 171 513-513 218 218-513 513 211 211 570-570 243 243-903 902-1071-1071m-31646 35543l2075-2075 3887 2307-2304-3890 2065-2065 5090 5090-1286 1287-3881-3881 2888 4874-1166 1166-4871-2890 3880 3880-1287 1287-5090-5090m9074-3977c-831-830-1247-1708-1245-2634 0-926 413-1802 1240-2629 847-847 1728-1273 2640-1277 914-4 1780 405 2599 1224 595 595 982 1181 1162 1762 180 580 186 1167 20 1757-167 591-533 1168-1098 1733-574 574-1140 958-1699 1152-560 192-1154 209-1784 46-628-161-1240-539-1835-1134m1575-1567c513 513 978 787 1393 820 416 32 789-116 1119-446 337-337 490-711 456-1115-34-406-335-892-905-1462-479-479-926-731-1339-758-416-28-788 124-1120 456-318 317-461 686-429 1102 31 417 307 885 825 1403m11766-6690l-1571 1571-3840-3839-1229 1230 1565 1565c643 643 1082 1151 1316 1520 234 371 295 753 185 1145-110 392-444 869-1005 1429-170 171-386 348-645 534l-1032-1032 235-235c212-213 315-411 310-592-6-181-134-397-384-647l-3368-3367 4372-4372 5091 5090m-1702-3382c-830-830-1246-1709-1245-2634 0-926 413-1802 1241-2629 847-847 1727-1273 2639-1277 914-4 1780 405 2599 1223 595 595 982 1182 1162 1762 180 581 186 1168 21 1758-168 591-534 1168-1099 1733-573 574-1140 958-1699 1152-559 192-1154 208-1783 46-628-161-1241-539-1836-1134m1575-1567c513 513 979 786 1393 820 416 31 790-117 1119-446 338-338 491-711 456-1115-34-407-335-892-905-1462-479-479-925-731-1339-759-416-27-788 125-1120 457-317 317-461 686-429 1102 31 417 307 885 825 1403m11716-6641l-1771 1772-1929-692c-455-168-761-251-920-249-157 1-308 74-449 215l2012 2011-1571 1572-5090-5091 1571-1571 1955 1955c129-143 187-298 173-464-13-167-154-545-419-1135-198-435-307-781-324-1040-18-257 79-551 289-881 211-332 606-786 1184-1364l1073 1074-79 79c-269 269-417 519-444 750-28 231 30 502 176 814 145 313 225 571 242 780 17 208-25 430-124 662 300-152 626-222 976-208 352 12 814 117 1387 311l2082 700m-2179-2904c-830-830-1246-1708-1245-2634 0-926 413-1802 1240-2629 848-847 1728-1273 2640-1277 914-4 1780 405 2599 1224 595 594 982 1181 1162 1761 180 581 186 1168 21 1758-168 591-534 1168-1099 1733-573 574-1140 958-1699 1152-559 192-1154 208-1783 46-628-161-1241-539-1836-1134m1575-1567c513 513 979 786 1393 820 416 32 790-117 1119-446 338-338 491-711 456-1115-34-406-335-892-905-1462-479-479-925-731-1339-758-416-28-788 124-1120 456-317 317-461 686-429 1102 31 417 307 885 825 1403m-24637 34643l-267 267-233-234-684 684 233 234-266 266-481-480 111-111c-111-235-275-461-493-678l-239-239 898-898 825 824 115-115 481 480m-927-34l-561-561-267 266 14 14c148 148 306 356 473 622l341-341m246-822c-175-175-262-360-262-555 0-195 87-379 261-553 179-179 364-268 556-269 192-1 375 85 547 257 125 126 207 249 245 371 38 123 39 246 4 370-35 125-112 246-231 365-121 121-240 202-358 243-118 40-243 44-375 9-133-33-262-113-387-238m332-330c108 108 206 165 293 172 88 7 166-24 235-93 71-72 104-150 97-235-8-86-71-188-191-308-101-101-195-154-282-160-88-5-166 27-236 96-67 67-97 145-90 232 6 88 65 187 174 296m417-1492l437-437 818 485-485-818 435-435 1072 1071-271 271-817-817 608 1026-246 246-1025-609 817 817-271 271-1072-1071m2970-1180l-375 375 123 230-338 338-669-1475 363-362 1473 670-347 347-230-123m-302-162l-502-268 268 502 234-234m2426-1609l-1441 1441-1072-1072 331-330 808 808 223-223-808-808 331-331 808 808 226-226-808-808 331-331 1071 1072m-852-1292l331-331 374 375 363-362-375-375 333-332 1071 1072-332 332-434-434-362 362 434 434-331 331-1072-1072m2271-2270l1072 1071-312 312-588-589 190 987-314 314-1072-1071 313-313 593 593-192-995 310-309m221-222l886-886 229 229-553 554 170 171 514-514 218 219-513 513 211 211 570-570 243 242-903 903-1072-1072m-7168 11460l841-841 1072 1071-143 142-945-946-557 557 946 946-142 142-1072-1071m2146-3l-1072-1072 405-404c71-71 129-122 173-153 62-44 123-71 183-83 60-11 123-5 189 17 66 23 125 61 178 114 91 91 139 197 144 318 5 121-68 257-220 409l-275 275 437 437-142 142m-421-705l277-277c92-92 140-174 144-246 5-73-24-140-86-202-45-45-94-72-149-81-55-9-106-1-153 26-30 18-78 59-142 123l-274 274 383 383m821-739c-177-177-269-364-274-560-5-196 68-370 220-521 99-99 211-164 338-197 127-32 253-27 379 16 126 43 243 118 350 225 109 108 184 227 226 357 41 130 44 257 8 381-37 125-102 233-195 326-101 101-215 167-343 198-128 31-255 25-380-19-125-43-235-112-329-206m149-144c129 129 266 196 409 201 143 4 268-45 373-150 106-107 156-232 151-376-6-144-78-284-216-422-87-87-178-148-272-184-94-35-188-42-280-21-93 21-174 66-245 137-100 100-152 221-156 362-3 141 76 292 236 453m573-1678l653-652 946 946 95-96 376 376-126 125-250-250-709 710 250 250-126 126-375-376 82-82c-43-217-263-524-659-920l-157-157m636-384l-374 374 55 55c91 91 208 224 350 399 142 175 240 337 294 487l495-495-820-820m189-440l143-143 1009 308-353-964 139-140 433 1235c54 155 81 264 81 329 0 64-30 126-90 186-36 36-89 72-160 109l-121-122c60-16 111-45 154-87 34-35 52-76 55-123 3-47-20-126-69-235l-1221-353m1062-1063l142-142 470 470c65-64 98-123 99-174 1-52-26-146-81-282-41-101-66-175-75-223-10-48-7-100 9-156 15-55 45-104 88-147 54-55 84-83 88-85l122 123c-5 5-14 14-29 27-16 16-26 25-29 28-45 46-68 90-68 134-1 45 21 117 63 217 55 127 82 215 81 264-1 48-12 97-32 145 88-50 220-54 396-13l578 136-176 176-471-110c-129-32-226-46-289-43-63 3-121 31-173 83l501 502-142 142-1072-1072m2213-69l-946-946-353 353-126-126 849-848 126 126-354 353 946 946-142 142m-422-1721l142-142 456 456 256-255c167-167 308-246 423-237 114 9 211 53 290 132 83 83 127 183 133 302 6 119-68 255-221 408l-408 408-1071-1072m1092 808l259-258c89-89 138-169 148-238 10-71-18-138-83-204-45-45-95-70-149-76-55-6-105 6-152 36-46 30-115 90-205 180l-189 189 371 371m-157-1743l142-143 1072 1072-142 142-1072-1071m-5179 9933l177-177c162-162 312-253 447-275 136-21 264 29 385 150 99 99 139 210 119 334-20 125-97 254-231 389l-569 569-1072-1072 903-902 217 217-572 571 196 196m428 428l170-169c103-104 118-193 43-268-66-66-151-47-254 57l-170 169 211 211m-9-1673l886-886 229 229-554 554 171 171 513-514 219 219-513 513 211 211 570-570 242 242-902 903-1072-1072m2242-1264c163-94 308-77 436 50 104 105 150 231 136 378-13 148-94 296-241 442-251 252-513 303-785 153l290-337c92 58 179 45 261-37 46-46 69-92 70-138 1-47-19-91-60-131-40-40-87-57-141-52-54 5-107 33-159 85l-89 89-192-191 71-71c42-42 64-87 66-133 2-46-17-89-56-129-58-57-123-50-196 22-75 76-85 152-30 231l-331 262c-138-233-86-471 154-711 134-133 264-212 391-236 127-24 234 8 321 95 106 106 133 225 84 359m292-1270l841-841 1072 1072-142 142-946-946-557 557 946 946-142 142-1072-1072m1581-480c-178-178-269-365-274-561-5-196 68-370 219-521 99-99 212-164 339-197 126-32 253-27 379 16 126 43 243 118 350 225 108 108 184 228 225 357 42 130 45 257 8 381-36 125-101 233-194 327-101 100-215 166-344 197-128 31-254 25-379-19-125-43-235-111-329-205m149-145c129 129 265 196 409 201 143 5 267-45 372-150 107-107 157-232 151-376-6-143-78-284-215-422-87-87-178-148-272-184-95-35-188-42-280-21-93 21-175 67-245 137-100 100-152 221-156 362-3 142 75 293 236 453m1968-1681l178-106c86 146 122 288 106 426-16 139-80 264-191 375-116 115-233 186-352 211-120 25-243 12-369-39-127-52-242-129-344-231-112-111-188-230-228-356-40-125-43-249-8-371 36-121 101-229 195-324 108-107 225-170 352-188 128-19 255 7 383 77l-106 172c-103-53-196-73-278-62-83 12-160 53-232 125-82 82-131 171-147 265-16 95-1 187 43 275 44 89 101 169 172 240 91 91 184 157 278 199 95 41 186 51 276 28 89-22 167-65 232-130 79-80 123-170 132-270 9-101-22-206-92-316m693 59l-1072-1072 405-405c71-71 129-121 173-152 62-44 123-72 183-83 60-11 123-5 189 17 66 23 125 61 178 114 91 91 139 197 144 318 5 121-68 257-220 409l-275 275 437 437-142 142m-421-705l277-277c92-92 140-174 144-247 5-72-24-139-86-201-45-45-94-72-149-81-55-10-106-1-153 26-30 18-78 58-142 123l-274 274 383 383m1422-297l-1071-1071 773-774 126 126-631 631 329 330 591-591 126 125-591 591 365 366 657-658 125 126-799 799m21-2164l653-652 946 946 95-96 376 375-126 126-250-250-709 710 250 250-126 125-375-375 82-83c-43-217-263-523-659-919l-157-157m636-384l-374 374 55 55c91 91 208 224 350 399 142 175 240 337 294 487l495-495-820-820m1358 534l-1072-1072 143-142 441 441 554-553-442-442 143-142 1071 1072-142 142-504-505-554 554 504 505-142 142m6-2150l129-128 849 848-279-1419 141-140 1071 1071-128 129-847-846 278 1415-142 142-1072-1072m1076-1076l142-142 470 470c65-65 98-123 99-174 1-52-26-146-81-282-41-101-66-175-75-223-10-48-7-100 9-156 15-55 45-104 88-147 54-55 83-83 87-85l123 123c-5 5-15 14-29 27-16 16-26 25-29 28-46 46-68 90-68 134-1 44 21 117 63 217 55 127 82 215 81 264-1 48-12 97-33 145 89-50 221-54 397-13l578 136-177 176-470-110c-130-32-226-46-289-43-63 3-121 31-173 83l501 502-142 142-1072-1072m1359-258c-178-178-269-365-274-561-5-196 68-369 219-521 99-99 212-164 339-196 126-33 253-27 379 16 126 42 243 117 350 224 108 109 183 228 225 357 42 130 45 257 8 381-36 125-101 234-194 327-101 101-216 166-344 197-128 31-254 25-380-19-125-43-234-111-328-205m149-144c129 129 265 195 409 200 143 5 267-45 372-150 107-107 157-232 151-376-6-143-78-284-215-422-87-87-178-148-273-183-94-36-187-43-280-22-92 21-174 67-244 137-101 101-152 221-156 362-3 142 75 293 236 454m1574-536l-1072-1072 403-402c81-82 158-137 229-165 71-27 143-33 216-15 73 16 134 50 184 99 46 46 76 101 92 166 16 65 11 135-14 211 84-46 166-64 246-53 81 11 153 48 215 110 50 51 86 108 108 172 22 65 29 124 21 179-8 54-29 111-64 170-35 59-87 122-155 191l-409 409m-479-764l232-231c63-63 104-113 123-148 25-47 34-92 27-135-6-43-28-84-66-121-36-36-75-59-120-69-44-10-87-4-129 17-41 22-101 71-177 148l-215 215 325 324m495 496l267-267c46-46 77-80 92-102 27-38 44-76 53-111 8-36 6-74-6-114-12-41-35-78-69-112-41-40-86-64-136-73-50-10-99-2-148 22-48 25-106 71-174 139l-248 248 369 370" fill="#434242"/><g fill="#ebecec"><path d="m293297 366188h2379v3031h-403v-2675h-1574v2675h-402v-3031m4215 3031v-3031h1144c201 0 355 10 461 29 149 25 274 72 375 141 101 70 182 168 243 292 62 125 92 263 92 413 0 257-82 475-246 653-164 178-461 267-890 267h-777v1236h-402m402-1591h783c259 0 443-48 552-145 109-97 163-232 163-408 0-126-31-235-96-325-64-90-149-150-253-179-68-18-193-27-374-27h-775v1084m3381 116c0-502 136-896 406-1180 270-285 619-426 1046-426 281 0 532 67 758 200 224 133 395 319 513 559 118 238 177 509 177 812 0 307-62 582-186 824-124 243-300 426-527 550-228 125-473 187-737 187-285 0-540-69-765-207-225-137-395-325-511-563-116-238-174-490-174-756m415 7c0 365 98 652 295 862 196 209 442 314 738 314 302 0 550-106 745-317 195-212 292-512 292-902 0-246-41-461-124-645-84-183-206-326-366-427-161-101-341-151-540-151-284 0-528 97-733 292-204 194-307 519-307 974m4186-1563h364v2401l1613-2401h398v3031h-365v-2394l-1609 2394h-401v-3031m4045 2176l381-97c29 147 107 293 232 440 127 147 293 220 501 220 212 0 379-54 502-163 122-109 183-241 183-396 0-166-64-299-193-397-128-99-304-149-525-149h-192v-351c184 0 324-11 422-32 97-21 183-75 258-163 75-87 112-186 112-297 0-132-51-247-153-344-102-97-240-146-414-146-152 0-282 38-389 115-107 77-181 178-223 305-41 126-61 221-61 283l-386-89c95-644 449-965 1062-965 296 0 529 82 702 246 173 165 260 357 260 577 0 282-133 501-400 656 154 43 283 131 388 262 104 132 156 289 156 473 0 261-101 479-303 654-202 176-469 264-802 264-573 0-946-302-1118-906m3882 855v-3031h1137c231 0 417 31 557 92 140 61 249 156 328 284 80 127 120 260 120 400 0 129-36 251-105 365-70 114-176 207-318 277 183 54 325 146 423 276 98 129 148 282 148 458 0 143-31 275-91 397-59 122-134 216-222 282-88 66-199 116-331 150-134 33-297 50-490 50h-1156m402-1756h655c178 0 306-12 383-36 102-30 179-81 230-151 52-71 78-159 78-266 0-101-24-190-73-266-48-77-117-130-206-158-90-28-244-42-461-42h-606v919m0 1401h755c130 0 221-5 273-15 92-16 170-44 232-83 62-38 113-95 153-169 40-74 60-159 60-256 0-114-29-212-88-296-57-84-138-142-241-176-102-34-250-51-443-51h-701v1046m3623 355v-3031h2188v356h-1786v931h1672v356h-1672v1033h1858v355h-2260m4266-3031h1846v2676h271v1062h-356v-707h-2006v707h-356v-1062h233c246-369 368-1113 368-2233v-443m1444 356h-1058v155c0 258-24 612-70 1060-46 448-138 816-273 1105h1401v-2320m2332 2675v-3031h2189v356h-1786v931h1672v356h-1672v1033h1858v355h-2261m4009 0v-3031h402v1249h1566v-1249h402v3031h-402v-1426h-1566v1426h-402m4093-1475c0-502 136-896 406-1180 270-285 619-426 1046-426 280 0 532 67 757 200 225 133 396 319 514 559 118 238 177 509 177 812 0 307-62 582-186 824-124 243-300 426-527 550-228 125-474 187-737 187-286 0-540-69-765-207-225-137-395-325-511-563-116-238-174-490-174-756m415 7c0 365 98 652 294 862 196 209 443 314 739 314 302 0 550-106 745-317 195-212 292-512 292-902 0-246-41-461-125-645-83-183-205-326-365-427-161-101-341-151-541-151-283 0-527 97-732 292-205 194-307 519-307 974m-45478 7445l593 182c-91 334-243 581-454 743-212 162-480 243-806 243-402 0-733-137-993-413-259-275-389-651-389-1128 0-505 131-897 391-1177 261-279 603-419 1028-419 371 0 673 110 904 330 138 130 241 316 310 559l-605 144c-36-156-111-281-224-372-115-91-253-136-415-136-225 0-408 81-548 242-140 161-210 422-210 783 0 383 69 656 207 818 138 163 317 244 538 244 163 0 304-51 421-155 117-104 201-266 252-488m2295 1117v-3031h2243v513h-1629v673h1515v512h-1515v821h1689v512h-2303m3991 0v-3031h919l544 2068 537-2068h921v3031h-567l-2-2386-598 2386h-590l-595-2386-2 2386h-567m4711 0v-3031h2244v513h-1630v673h1515v512h-1515v821h1689v512h-2303m4008-3031h572v2018l1227-2018h610v3031h-572v-1985l-1227 1985h-610v-3031m1567-876h283c-16 187-82 334-197 441-115 107-264 160-447 160-183 0-332-53-447-160-115-107-182-254-198-441h284c10 97 44 171 103 222 59 50 145 74 258 74 112 0 198-24 258-74 59-51 93-125 103-222m2644 3907v-3031h614v1194h1194v-1194h613v3031h-613v-1325h-1194v1325h-614m6964 0h-661l-262-690h-1216l-252 690h-649l1177-3031h649l1214 3031m-1122-1202l-421-1122-409 1122h830m4436 1202v-1265h-124c-194 0-330 29-410 86-79 58-215 230-407 518l-439 661h-732l370-591c145-235 261-399 348-493 86-95 195-179 325-253-282-45-485-143-610-295-125-153-187-335-187-547 0-185 46-349 139-491 93-143 216-239 369-287 152-49 380-74 683-74h1289v3031h-614m0-2518h-477c-243 0-402 5-479 16-76 11-142 48-197 112-55 63-83 146-83 248 0 107 27 192 80 254 53 63 121 102 203 117 81 15 249 23 500 23h453v-770m6559 2163v355h-601v-355c-485-18-826-138-1026-359-199-221-299-498-299-830 0-350 105-630 313-842 209-211 546-326 1012-344v-301h601v301c482 18 823 136 1024 355 201 219 301 497 301 833 0 334-100 610-300 830-200 220-541 339-1025 357m0-512c160 0 299-27 414-81 115-54 197-125 246-217 49-90 73-222 73-397 0-437-244-656-733-656v1351m-601 0v-1351c-259 0-445 57-560 172-115 115-172 289-172 521 0 438 244 658 732 658m3591 867v-3031h2244v513h-1630v673h1516v512h-1516v821h1689v512h-2303m4000 0v-3031h982c372 0 614 15 726 45 174 46 319 145 436 297 118 153 176 350 176 591 0 186-34 342-101 469-67 127-153 227-257 299-103 72-209 120-316 144-146 29-357 43-634 43h-398v1143h-614m614-2518v863h334c240 0 401-16 482-48 81-32 144-81 190-149 46-68 69-146 69-237 0-111-32-202-96-274-65-72-146-117-246-135-72-13-219-20-439-20h-294m3322 2518v-3031h919l544 2068 536-2068h922v3031h-567l-2-2386-598 2386h-590l-595-2386-2 2386h-567m7441 0h-661l-261-690h-1216l-252 690h-649l1177-3031h648l1214 3031m-1121-1202l-422-1122-409 1122h831"/><path d="m302419 336759v-561c134-490 642-605 689-1433 25-448 136-613 527-994-473-342-1131-944-878-1596 463-147 757 674 1524 906 812-1108 1451-3224 3200-3221-149 550-1601 1681-1852 2717 1230-333 1624-1729 3951-1729-88 975-3082 1291-3457 2840 1097-266 1699-1589 2469-1235 388 874-875 1429-1460 1895 509 1048 2252 2067 3553 2063 915-3 1922-95 2800 40 1047 161 1174 505 2393 453 1535-65 3334-486 4734-951 2235-742 3553 826 4691 247 287-860-435-1588-896-2233 581 95 1004 299 1471 659 659 507 748 453 1112 1408 236 396 21 840-299 1305-557 810-237 798-191 1665 60 1124-1204 2553 738 4684 893 981 276 171 771 1338 461 1083-101 355 78 1253 96 477 376 944 601 1330-482 1087-940 2140-2407 1111 130-825 1242-900 634-2609-315-888-918-1565-1664-2062-585 753-10 569-1069 1401-29 241 25 1122 50 1274 110 685 235 202-193 918-913 1526-1076 759-2112 739 88-1011 1509-1485 907-3004-236-593-1133-1006-1679-2418-1178 694-4558 1251-5987 1069-614-78-1420-326-2007-339-204 844-182 1860-307 2535-202 1089-444 1335 211 2435l-511 124c216 452 229 1614-1761 915l258-544c-676-74-441 116-607-279-479-182-75-456 128-855 506-992 422-2598 439-3611 13-776-490-1333-1030-1862-581-569-856-1104-1244-1553-904-1393-1252-848-1584-2409-658 68 298 145-409 395l-159-713c-230 419 75 198-307 337l-155-718c-354-104 210 26-366 226l-4-967h-865c-1 817 124 1058-34 1940-195 1083-326 495-213 1764-401-285-199-337-388-542-403-439 305 269-377-78 517-875-545-944-113-1805l-384 84 162-756c-461-253-827-10-1042-685-36-113-62-215-80-308m24571-725"/></g></svg>