<svg xmlns="http://www.w3.org/2000/svg" viewBox="0 0 402214 406275" shape-rendering="geometricPrecision" image-rendering="optimizeQuality" fill-rule="evenodd" clip-rule="evenodd"><path d="m293177 139151l-7484-19424-2087 14100 9571 5324m6649-33839l-7752 2497-6813 10811 432 1107 14133-14415m-27222 11633l-6753-897 2758 7118 3995-6221m11390 14056l-14759-7521 790 2572 13969 4949" fill="#6c98b1"/><path d="m267715 120863l-1864-4815-3190 6400 5054-1585m12403-15581l-11509 17884 15385 7835 1699-11274-5575-14445m17367-6056l-17367 6056 5143 13338 12224-19394" fill="#eb7e6d"/><g fill="#6c98b1"><path d="m113563 164505c-6014 13126-9583 25433-11058 36829 301 19039 5915 38330 15451 55100 3817 5089 8310 9819 13477 14079v-1c8567 6765 17367 12197 26389 16360 6171 2005 12664 3465 19380 4351 27639 3644 59053-2423 87330-20058 470-403 931-806 1390-1210 11495-14249 18751-28490 22514-42244 4606-19634 2726-39128-3942-56455-140-315-279-630-423-943-6372-13897-16423-25922-28732-35147-12311-9227-26878-15650-42274-18341-34255-5988-72644 6503-99502 47680m-10957 61132c367 2444 843 4829 1425 7152 3147 12563 9359 23361 17815 32171-1654-2441-3220-4952-4695-7522l-189-333c-7117-9503-11909-20233-14356-31468m262 7444c-1959-7826-2749-16325-2175-25444 6-3395 215-6801 628-10200 25-1098 66-2195 127-3289 1887-34110 21351-66300 66308-80727l20-6 34-8 69-15c18835-6448 37264-6528 53922-1864 14101 3948 26930 11295 37655 21049 1340 1217 2646 2473 3918 3764 10325 8320 18953 18268 25197 29225 8180 14355 12275 30448 10748 46890-1671 17999-10079 36404-27235 53387-1084 1510-2214 3014-3394 4509l-19 23c-3837 4383-8140 8273-12922 11654-32994 28176-65664 30759-92413 18901-14649-6494-27514-17326-37674-30657-10990-9679-19039-22198-22794-37192m23668 36364c1229 1079 2495 2124 3797 3131 5161 3993 10877 7412 17027 10226-5649-3256-11206-7032-16667-11345l-10-9c-2991-2465-5761-5086-8306-7842 1329 1993 2716 3941 4159 5839m50512 22967c-3448-454-6838-1060-10158-1810 10266 3722 20808 5881 31609 6561 15614-311 29122-2849 40632-7489 5795-2335 11084-5205 15883-8593 2145-1833 4292-3775 6438-5830 500-567 993-1135 1479-1702-27936 16735-58711 22446-85883 18863m-19677-4426c-10065-3282-19284-8002-27234-14050 9425 11157 20863 20211 33682 25893 24277 10762 53532 9422 83471-12613-2466 1302-5037 2494-7713 3573-11652 4697-25312 7263-41092 7574h-49c-11951-752-23587-3293-34887-7739-2070-815-4130-1695-6178-2638m118714-28089c13696-15317 20561-31602 22043-47549 1503-16183-2534-32034-10598-46184-4610-8090-10536-15624-17493-22347 5891 7313 10785 15482 14460 24240 377 900 741 1805 1092 2717 7539 16989 9687 36673 3960 57435-2520 10631-6921 21298-13464 31688m-13511-122663c-3133-2522-6425-4893-9855-7094-23702-15214-54008-22353-84468-15601-15784 5407-31864 15341-47418 30792-9789 12152-15374 26273-17427 41007 1966-7694 5002-15245 9116-22433l18-30c27164-41666 66031-54299 100727-48235 15587 2724 30331 9225 42789 18562 7635 5723 14415 12512 20006 20154-3867-6200-8398-11950-13488-17122m-9212-8106c319 205 636 412 953 619-9646-7783-20769-13685-32833-17062-13199-3695-27531-4371-42298-1193 26934-3079 53134 4129 74178 17636m-141796 117322c-4928-11042-8233-22842-9584-34738 156 3316 509 6614 1060 9876 1459 8647 4304 17043 8524 24862" fill-rule="nonzero"/><path d="m164076 96505l2752-7184 772 5203-3524 1981m-2451-12487l2853 940 2518 3961-168 402-5203-5303m10037 4296l2517-335-1040 2618-1477-2283m-4196 5170l5471-2753-302 940-5169 1812v1" fill-opacity=".102"/></g><g fill-opacity=".102"><path d="m173474 89758l705-1779 1175 2349-1880-570m-4565-5740l4230 6579-5673 2887-638-4162 2081-5304m-6411-2249l6411 2249-1913 4901-4498-7150" fill="#eb7e6d"/><path d="m193413 116947l-2753-7183-772 5203 3525 1980m2450-12487l-2853 940-2518 3961 168 403 5203-5304m-10036 4297l-2518-336 1041 2618 1477-2282m4196 5169l-5472-2753 302 940 5170 1813" fill="#6c98b1"/><path d="m184014 110200l-705-1779-1175 2350 1880-571m4565-5740l-4229 6579 5672 2887 638-4162-2081-5304m6411-2249l-6411 2249 1914 4901 4498-7150h-1" fill="#eb7e6d"/><path d="m205094 96505l2752-7184 773 5203-3525 1981m-2450-12487l2853 940 2517 3961-168 402-5202-5303m10036 4296l2518-335-1041 2618-1477-2283m-4196 5170l5471-2753-302 940-5169 1812v1" fill="#6c98b1"/><path d="m214493 89758l704-1779 1175 2349-1879-570m-4565-5740l4229 6579-5673 2887-638-4162 2082-5304m-6412-2249l6411 2249-1913 4901-4498-7150" fill="#eb7e6d"/><path d="m234431 116947l-2752-7183-773 5203 3525 1980m2450-12487l-2853 940-2517 3961 168 403 5202-5304m-10036 4297l-2518-336 1041 2618 1477-2282m4196 5169l-5471-2753 302 940 5169 1813" fill="#6c98b1"/><path d="m225032 110200l-704-1779-1175 2350 1879-571m4565-5740l-4229 6579 5673 2887 638-4162-2082-5304m6412-2249l-6411 2249 1913 4901 4498-7150" fill="#eb7e6d"/><path d="m246112 96505l2753-7184 772 5203-3525 1981m-2450-12487l2853 940 2518 3961-168 402-5203-5303m10036 4296l2518-335-1041 2618-1477-2283m-4196 5170l5472-2753-302 940-5170 1812v1" fill="#6c98b1"/><path d="m255511 89758l705-1779 1175 2349-1880-570m-4565-5740l4229 6579-5672 2887-638-4162 2081-5304m-6412-2249l6412 2249-1914 4901-4498-7150" fill="#eb7e6d"/><path d="m275449 116947l-2752-7183-772 5203 3524 1980m2451-12487l-2854 940-2517 3961 168 403 5203-5304m-10037 4297l-2517-336 1040 2618 1477-2282m4196 5169l-5471-2753 302 940 5169 1813" fill="#6c98b1"/><path d="m266051 110200l-705-1779-1175 2350 1880-571m4565-5740l-4230 6579 5673 2887 638-4162-2081-5304m6411-2249l-6411 2249 1913 4901 4498-7150" fill="#eb7e6d"/><path d="m287131 96505l2752-7184 772 5203-3524 1981m-2451-12487l2853 940 2518 3961-168 402-5203-5303m10037 4296l2517-335-1040 2618-1477-2283m-4196 5170l5471-2753-302 940-5169 1812v1" fill="#6c98b1"/><path d="m296529 89758l705-1779 1175 2349-1880-570m-4565-5740l4230 6579-5673 2887-638-4162 2081-5304m-6411-2249l6411 2249-1913 4901-4498-7150" fill="#eb7e6d"/><path d="m316468 116947l-2753-7183-772 5203 3525 1980m2450-12487l-2853 940-2518 3961 168 403 5203-5304m-10036 4297l-2518-336 1041 2618 1477-2282m4196 5169l-5472-2753 302 940 5170 1813" fill="#6c98b1"/><path d="m307069 110200l-705-1779-1175 2350 1880-571m4565-5740l-4229 6579 5672 2887 638-4162-2081-5304m6411-2249l-6411 2249 1914 4901 4498-7150h-1" fill="#eb7e6d"/><path d="m164075 137389l2753-7183 772 5203-3525 1980m-2450-12486l2853 939 2518 3961-168 403-5203-5303m10036 4296l2518-336-1041 2619-1477-2283m-4196 5169l5472-2752-302 939-5170 1813" fill="#6c98b1"/><path d="m173474 130642l705-1779 1175 2350-1880-571m-4565-5739l4229 6579-5672 2886-638-4162 2081-5303m-6411-2250l6411 2250-1914 4900-4498-7149 1-1" fill="#eb7e6d"/><path d="m193412 157831l-2752-7183-772 5203 3524 1980m2451-12486l-2853 940-2518 3960 168 403 5203-5303m-10037 4296l-2517-335 1040 2618 1477-2283m4196 5169l-5471-2752 302 940 5169 1812" fill="#6c98b1"/><path d="m184014 151085l-705-1780-1175 2350 1880-570m4565-5740l-4230 6579 5673 2887 638-4163-2081-5303m6411-2249l-6411 2249 1913 4901 4498-7150" fill="#eb7e6d"/><path d="m205094 137389l2752-7183 772 5203-3524 1980m-2451-12486l2854 939 2517 3961-168 403-5203-5303m10037 4296l2517-336-1040 2619-1477-2283m-4196 5169l5471-2752-302 939-5169 1813" fill="#6c98b1"/><path d="m214492 130642l705-1779 1175 2350-1880-571m-4565-5739l4230 6579-5673 2886-638-4162 2081-5303m-6411-2250l6411 2250-1913 4900-4498-7149v-1" fill="#eb7e6d"/><path d="m234431 157831l-2753-7183-772 5203 3525 1980m2450-12486l-2853 940-2518 3960 168 403 5203-5303m-10036 4296l-2518-335 1041 2618 1477-2283m4196 5169l-5472-2752 302 940 5170 1812" fill="#6c98b1"/><path d="m225032 151085l-705-1780-1175 2350 1880-570m4565-5740l-4229 6579 5672 2887 638-4163-2081-5303m6412-2249l-6412 2249 1914 4901 4498-7150" fill="#eb7e6d"/><path d="m246112 137389l2752-7183 773 5203-3525 1980m-2450-12486l2853 939 2517 3961-168 403-5202-5303m10036 4296l2518-336-1041 2619-1477-2283m-4196 5169l5471-2752-302 939-5169 1813" fill="#6c98b1"/><path d="m255511 130642l704-1779 1175 2350-1879-571m-4565-5739l4229 6579-5673 2886-638-4162 2082-5303m-6412-2250l6411 2250-1913 4900-4498-7149v-1" fill="#eb7e6d"/><path d="m275449 157831l-2752-7183-773 5203 3525 1980m2450-12486l-2853 940-2517 3960 168 403 5202-5303m-10036 4296l-2518-335 1041 2618 1477-2283m4196 5169l-5471-2752 302 940 5169 1812" fill="#6c98b1"/><path d="m266050 151085l-704-1780-1175 2350 1879-570m4565-5740l-4229 6579 5673 2887 638-4163-2082-5303m6412-2249l-6411 2249 1913 4901 4498-7150" fill="#eb7e6d"/><path d="m287130 137389l2753-7183 772 5203-3525 1980m-2450-12486l2853 939 2518 3961-168 403-5203-5303m10036 4296l2518-336-1041 2619-1477-2283m-4196 5169l5472-2752-302 939-5170 1813" fill="#6c98b1"/><path d="m296529 130642l705-1779 1175 2350-1880-571m-4565-5739l4229 6579-5672 2886-638-4162 2081-5303m-6411-2250l6411 2250-1914 4900-4498-7149 1-1" fill="#eb7e6d"/><path d="m316467 157831l-2752-7183-772 5203 3524 1980m2451-12486l-2853 940-2518 3960 168 403 5203-5303m-10037 4296l-2517-335 1040 2618 1477-2283m4196 5169l-5471-2752 302 940 5169 1812" fill="#6c98b1"/><path d="m307069 151085l-705-1780-1175 2350 1880-570m4565-5740l-4230 6579 5673 2887 638-4163-2081-5303m6411-2249l-6411 2249 1913 4901 4498-7150" fill="#eb7e6d"/><path d="m326017 99358l2753-7183 772 5203-3525 1980m-2450-12487l2853 940 2518 3961-168 403-5203-5304m10036 4297l2518-336-1041 2618-1477-2282m-4195 5169l5471-2753-302 940-5169 1813" fill="#6c98b1"/><path d="m335416 92611l705-1779 1175 2350-1880-571m-4565-5740l4229 6579-5672 2887-638-4162 2081-5304m-6411-2249l6411 2249-1913 4901-4499-7150h1" fill="#eb7e6d"/><path d="m355354 119800l-2752-7183-772 5203 3524 1980m2451-12486l-2853 939-2518 3961 168 403 5203-5303m-10037 4296l-2517-336 1041 2619 1476-2283m4196 5169l-5471-2752 302 940 5169 1812" fill="#6c98b1"/><path d="m345956 113053l-705-1779-1175 2350 1880-571m4565-5739l-4229 6579 5672 2886 638-4162-2081-5303m6411-2249l-6411 2249 1913 4900 4498-7149" fill="#eb7e6d"/><path d="m367036 99358l2752-7183 772 5203-3524 1980m-2451-12487l2854 940 2517 3961-168 403-5203-5304m10037 4297l2517-336-1040 2618-1477-2282m-4196 5169l5471-2753-302 940-5169 1813" fill="#6c98b1"/><path d="m376434 92611l705-1779 1175 2350-1880-571m-4565-5740l4230 6579-5673 2887-638-4162 2081-5304m-6411-2249l6411 2249-1913 4901-4498-7150" fill="#eb7e6d"/><path d="m396373 119800l-2753-7183-772 5203 3525 1980m2450-12486l-2853 939-2518 3961 168 403 5203-5303m-10036 4296l-2518-336 1041 2619 1477-2283m4196 5169l-5472-2752 302 940 5170 1812" fill="#6c98b1"/><path d="m386974 113053l-705-1779-1175 2350 1880-571m4565-5739l-4229 6579 5673 2886 637-4162-2081-5303m6412-2249l-6412 2249 1914 4900 4498-7149" fill="#eb7e6d"/><path d="m326017 140243l2753-7184 772 5203-3525 1981m-2450-12487l2853 940 2518 3960-168 403-5203-5303m10036 4296l2518-335-1041 2618-1477-2283m-4196 5170l5472-2753-303 940-5169 1812v1" fill="#6c98b1"/><path d="m335416 133496l705-1780 1175 2350-1880-570m-4565-5740l4229 6579-5673 2887-637-4163 2081-5303m-6412-2249l6412 2249-1914 4901-4498-7150" fill="#eb7e6d"/><path d="m355354 160685l-2752-7183-772 5202 3524 1981m2451-12487l-2854 940-2517 3961 168 403 5203-5304m-10037 4297l-2517-336 1040 2618 1477-2282m4196 5169l-5471-2753 302 940 5169 1813" fill="#6c98b1"/><path d="m345956 153938l-705-1779-1175 2349 1880-570m4565-5740l-4230 6579 5673 2887 638-4162-2081-5304m6411-2249l-6411 2249 1913 4901 4498-7150" fill="#eb7e6d"/><path d="m367035 140243l2753-7184 772 5203-3525 1981m-2450-12487l2853 940 2518 3960-168 403-5203-5303m10037 4296l2517-335-1041 2618-1476-2283m-4196 5170l5471-2753-302 940-5169 1812v1" fill="#6c98b1"/><path d="m376434 133496l705-1780 1175 2350-1880-570m-4565-5740l4229 6579-5672 2887-638-4163 2081-5303m-6411-2249l6411 2249-1914 4901-4497-7150" fill="#eb7e6d"/><path d="m396373 160685l-2753-7183-772 5202 3525 1981m2450-12487l-2853 940-2518 3961 168 403 5203-5304m-10037 4297l-2517-336 1041 2618 1476-2282m4196 5169l-5471-2753 302 940 5169 1813" fill="#6c98b1"/><path d="m386974 153938l-705-1779-1175 2349 1880-570m4565-5740l-4229 6579 5672 2887 638-4162-2081-5304m6411-2249l-6411 2249 1913 4901 4498-7150" fill="#eb7e6d"/><path d="m164075 178274l2753-7184 772 5203-3525 1981m-2450-12487l2853 940 2517 3961-167 402-5203-5303m10036 4296l2518-335-1041 2618-1477-2283m-4196 5170l5472-2753-303 940-5169 1812v1" fill="#6c98b1"/><path d="m173474 171527l705-1780 1175 2350-1880-570m-4565-5740l4229 6579-5673 2887-637-4163 2081-5303m-6412-2249l6412 2249-1914 4901-4498-7150" fill="#eb7e6d"/><path d="m193412 198716l-2752-7183-772 5202 3524 1981m2451-12487l-2854 940-2517 3961 168 403 5203-5304m-10037 4297l-2517-336 1040 2618 1477-2282m4196 5169l-5471-2753 302 940 5169 1813" fill="#6c98b1"/><path d="m184014 191969l-705-1779-1175 2350 1880-571m4565-5740l-4230 6579 5673 2887 638-4162-2081-5304m6411-2249l-6411 2249 1913 4901 4498-7150" fill="#eb7e6d"/><path d="m205093 178274l2753-7184 772 5203-3525 1981m-2450-12487l2853 940 2518 3961-168 402-5203-5303m10036 4296l2518-335-1041 2618-1477-2283m-4195 5170l5471-2753-302 940-5169 1812v1" fill="#6c98b1"/><path d="m214492 171527l705-1780 1175 2350-1880-570m-4565-5740l4229 6579-5672 2887-638-4163 2081-5303m-6411-2249l6411 2249-1914 4901-4498-7150h1" fill="#eb7e6d"/><path d="m234430 198716l-2752-7183-772 5202 3524 1981m2451-12487l-2853 940-2518 3961 168 403 5203-5304m-10037 4297l-2517-336 1041 2618 1476-2282m4196 5169l-5471-2753 302 940 5169 1813" fill="#6c98b1"/><path d="m225032 191969l-705-1779-1175 2350 1880-571m4565-5740l-4229 6579 5672 2887 638-4162-2081-5304m6411-2249l-6411 2249 1913 4901 4498-7150" fill="#eb7e6d"/><path d="m246112 178274l2752-7184 772 5203-3524 1981m-2451-12487l2854 940 2517 3961-168 402-5203-5303m10037 4296l2517-335-1040 2618-1477-2283m-4196 5170l5471-2753-302 940-5169 1812v1" fill="#6c98b1"/><path d="m255510 171527l705-1780 1175 2350-1880-570m-4565-5740l4230 6579-5673 2887-638-4163 2081-5303m-6411-2249l6411 2249-1913 4901-4498-7150" fill="#eb7e6d"/><path d="m275449 198716l-2753-7183-772 5202 3525 1981m2450-12487l-2853 940-2518 3961 168 403 5203-5304m-10036 4297l-2518-336 1041 2618 1477-2282m4196 5169l-5472-2753 302 940 5170 1813" fill="#6c98b1"/><path d="m266050 191969l-705-1779-1175 2350 1880-571m4565-5740l-4229 6579 5673 2887 637-4162-2081-5304m6412-2249l-6412 2249 1914 4901 4498-7150" fill="#eb7e6d"/><path d="m287130 178274l2753-7184 772 5203-3525 1981m-2450-12487l2853 940 2517 3961-167 402-5203-5303m10036 4296l2518-335-1041 2618-1477-2283m-4196 5170l5472-2753-303 940-5169 1812v1" fill="#6c98b1"/><path d="m296529 171527l705-1780 1174 2350-1879-570m-4565-5740l4229 6579-5673 2887-637-4163 2081-5303m-6412-2249l6411 2249-1913 4901-4498-7150" fill="#eb7e6d"/><path d="m316467 198716l-2752-7183-772 5202 3524 1981m2450-12487l-2853 940-2517 3961 168 403 5202-5304m-10036 4297l-2517-336 1040 2618 1477-2282m4196 5169l-5471-2753 302 940 5169 1813" fill="#6c98b1"/><path d="m307068 191969l-704-1779-1175 2350 1879-571m4566-5740l-4230 6579 5673 2887 638-4162-2081-5304m6411-2249l-6411 2249 1913 4901 4498-7150" fill="#eb7e6d"/><path d="m164075 219158l2752-7183 772 5203-3524 1980m-2451-12487l2854 940 2517 3961-168 403-5203-5304m10037 4297l2517-336-1040 2618-1477-2282m-4196 5169l5471-2753-302 940-5169 1813" fill="#6c98b1"/><path d="m173473 212411l705-1779 1175 2350-1880-571m-4565-5740l4230 6579-5673 2887-638-4162 2081-5303v-1m-6411-2249l6411 2249-1913 4901-4498-7149v-1" fill="#eb7e6d"/><path d="m193412 239600l-2753-7183-772 5203 3525 1980m2450-12486l-2853 939-2517 3961 167 403 5203-5303m-10036 4296l-2518-335 1041 2618 1477-2283m4196 5169l-5472-2752 303 940 5169 1812" fill="#6c98b1"/><path d="m184013 232853l-705-1779-1175 2350 1880-571m4565-5739l-4229 6579 5673 2887 637-4163-2081-5303m6412-2249l-6412 2249 1914 4900 4498-7149" fill="#eb7e6d"/><path d="m205093 219158l2753-7183 772 5203-3525 1980m-2450-12487l2853 940 2518 3961-168 403-5203-5304m10036 4297l2518-336-1041 2618-1477-2282m-4196 5169l5472-2753-303 940-5169 1813" fill="#6c98b1"/><path d="m214492 212411l705-1779 1174 2350-1879-571m-4565-5740l4229 6579-5673 2887-637-4162 2081-5303v-1m-6412-2249l6412 2249-1914 4901-4498-7149v-1" fill="#eb7e6d"/><path d="m234430 239600l-2752-7183-772 5203 3524 1980m2451-12486l-2854 939-2517 3961 168 403 5203-5303m-10037 4296l-2517-335 1040 2618 1477-2283m4196 5169l-5471-2752 302 940 5169 1812" fill="#6c98b1"/><path d="m225032 232853l-705-1779-1175 2350 1880-571m4565-5739l-4230 6579 5673 2887 638-4163-2081-5303m6411-2249l-6411 2249 1913 4900 4498-7149" fill="#eb7e6d"/><path d="m246111 219158l2753-7183 772 5203-3525 1980m-2450-12487l2853 940 2518 3961-168 403-5203-5304m10037 4297l2517-336-1041 2618-1476-2282m-4196 5169l5471-2753-302 940-5169 1813" fill="#6c98b1"/><path d="m255510 212411l705-1779 1175 2350-1880-571m-4565-5740l4229 6579-5672 2887-638-4162 2081-5303v-1m-6411-2249l6411 2249-1914 4901-4497-7149v-1" fill="#eb7e6d"/><path d="m275449 239600l-2753-7183-772 5203 3525 1980m2450-12486l-2853 939-2518 3961 168 403 5203-5303m-10037 4296l-2517-335 1041 2618 1476-2283m4196 5169l-5471-2752 302 940 5169 1812" fill="#6c98b1"/><path d="m266050 232853l-705-1779-1175 2350 1880-571m4565-5739l-4229 6579 5672 2887 638-4163-2081-5303m6411-2249l-6411 2249 1913 4900 4498-7149" fill="#eb7e6d"/><path d="m287130 219158l2752-7183 772 5203-3524 1980m-2451-12487l2854 940 2517 3961-168 403-5203-5304m10037 4297l2517-336-1040 2618-1477-2282m-4196 5169l5471-2753-302 940-5169 1813" fill="#6c98b1"/><path d="m296528 212411l705-1779 1175 2350-1880-571m-4565-5740l4230 6579-5673 2887-638-4162 2081-5303v-1m-6411-2249l6411 2249-1913 4901-4498-7149v-1" fill="#eb7e6d"/><path d="m316467 239600l-2753-7183-772 5203 3525 1980m2450-12486l-2853 939-2518 3961 168 403 5203-5303m-10036 4296l-2518-335 1041 2618 1477-2283m4196 5169l-5472-2752 302 940 5170 1812" fill="#6c98b1"/><path d="m307068 232853l-705-1779-1175 2350 1880-571m4565-5739l-4229 6579 5673 2887 637-4163-2081-5303m6412-2249l-6412 2249 1914 4900 4498-7149" fill="#eb7e6d"/><path d="m326017 181127l2752-7183 772 5203-3524 1980m-2450-12487l2853 940 2517 3961-168 403-5202-5304m10036 4297l2517-336-1040 2618-1477-2282m-4196 5169l5471-2753-302 940-5169 1813" fill="#6c98b1"/><path d="m335416 174380l704-1779 1175 2349-1879-570m-4566-5740l4230 6579-5673 2887-638-4162 2081-5304m-6411-2249l6411 2249-1913 4901-4498-7150" fill="#eb7e6d"/><path d="m355354 201569l-2753-7183-772 5203 3525 1980m2450-12486l-2853 939-2517 3961 167 403 5203-5303m-10036 4296l-2518-336 1041 2619 1477-2283m4196 5169l-5472-2752 303 939 5169 1813" fill="#6c98b1"/><path d="m345955 194822l-705-1779-1174 2350 1879-571m4565-5739l-4229 6579 5673 2886 637-4162-2081-5303m6412-2250l-6412 2250 1914 4900 4498-7149v-1" fill="#eb7e6d"/><path d="m367035 181127l2753-7183 772 5203-3525 1980m-2450-12487l2853 940 2518 3961-168 403-5203-5304m10036 4297l2518-336-1041 2618-1477-2282m-4196 5169l5472-2753-303 940-5169 1813" fill="#6c98b1"/><path d="m376434 174380l705-1779 1174 2349-1879-570m-4565-5740l4229 6579-5673 2887-637-4162 2081-5304m-6412-2249l6412 2249-1914 4901-4498-7150" fill="#eb7e6d"/><path d="m396372 201569l-2752-7183-772 5203 3524 1980m2451-12486l-2854 939-2517 3961 168 403 5203-5303m-10037 4296l-2517-336 1040 2619 1477-2283m4196 5169l-5471-2752 302 939 5169 1813" fill="#6c98b1"/><path d="m386974 194822l-705-1779-1175 2350 1880-571m4565-5739l-4230 6579 5673 2886 638-4162-2081-5303m6411-2250l-6411 2250 1913 4900 4498-7149v-1" fill="#eb7e6d"/><path d="m326017 222011l2752-7183 772 5203-3524 1980m-2451-12486l2853 940 2518 3960-168 403-5203-5303m10037 4296l2517-335-1040 2618-1477-2283m-4196 5169l5471-2752-302 940-5169 1812" fill="#6c98b1"/><path d="m335415 215265l705-1780 1175 2350-1880-570m-4565-5740l4230 6579-5673 2887-638-4163 2081-5303m-6411-2249l6411 2249-1913 4901-4498-7150" fill="#eb7e6d"/><path d="m355354 242454l-2753-7184-772 5203 3525 1981m2450-12487l-2853 940-2518 3961 168 402 5203-5303m-10036 4296l-2518-335 1041 2618 1477-2283m4196 5170l-5472-2753 302 940 5170 1813" fill="#6c98b1"/><path d="m345955 235707l-705-1779-1175 2349 1880-570m4565-5740l-4229 6579 5672 2887 638-4162-2081-5304m6411-2249l-6411 2249 1914 4901 4498-7150h-1" fill="#eb7e6d"/><path d="m367035 222011l2752-7183 773 5203-3525 1980m-2450-12486l2853 940 2517 3960-168 403-5202-5303m10036 4296l2518-335-1041 2618-1477-2283m-4196 5169l5471-2752-302 940-5169 1812" fill="#6c98b1"/><path d="m376434 215265l704-1780 1175 2350-1879-570m-4565-5740l4229 6579-5673 2887-638-4163 2082-5303m-6412-2249l6411 2249-1913 4901-4498-7150" fill="#eb7e6d"/><path d="m396372 242454l-2752-7184-773 5203 3525 1981m2450-12487l-2853 940-2517 3961 168 402 5202-5303m-10036 4296l-2518-335 1041 2618 1477-2283m4196 5170l-5471-2753 302 940 5169 1813" fill="#6c98b1"/><path d="m386973 235707l-704-1779-1175 2349 1879-570m4565-5740l-4229 6579 5673 2887 638-4162-2082-5304m6412-2249l-6411 2249 1913 4901 4498-7150" fill="#eb7e6d"/><path d="m164075 260042l2752-7183 772 5203-3524 1980m-2451-12486l2853 940 2518 3960-168 403-5203-5303m10037 4296l2517-335-1040 2618-1477-2283m-4196 5169l5471-2752-302 940-5169 1812" fill="#6c98b1"/><path d="m173473 253296l705-1780 1175 2350-1880-570m-4565-5740l4230 6579-5673 2887-638-4163 2081-5303m-6411-2249l6411 2249-1913 4901-4498-7150" fill="#eb7e6d"/><path d="m193412 280485l-2753-7183-772 5202 3525 1981m2450-12487l-2853 940-2518 3961 168 403 5203-5304m-10036 4296l-2518-335 1041 2618 1477-2283m4196 5170l-5472-2753 302 940 5170 1813" fill="#6c98b1"/><path d="m184013 273738l-705-1779-1175 2349 1880-570m4565-5740l-4229 6579 5672 2887 638-4162-2081-5304m6411-2249l-6411 2249 1914 4901 4498-7150h-1" fill="#eb7e6d"/><path d="m205093 260042l2752-7183 772 5203-3524 1980m-2450-12486l2853 940 2517 3960-168 403-5202-5303m10036 4296l2517-335-1040 2618-1477-2283m-4196 5169l5471-2752-302 940-5169 1812" fill="#6c98b1"/><path d="m214492 253296l704-1780 1175 2350-1879-570m-4566-5740l4230 6579-5673 2887-638-4163 2081-5303m-6411-2249l6411 2249-1913 4901-4498-7150" fill="#eb7e6d"/><path d="m234430 280485l-2753-7183-772 5202 3525 1981m2450-12487l-2853 940-2517 3961 167 403 5203-5304m-10036 4296l-2518-335 1041 2618 1477-2283m4196 5170l-5472-2753 303 940 5169 1813" fill="#6c98b1"/><path d="m225031 273738l-705-1779-1174 2349 1879-570m4565-5740l-4229 6579 5673 2887 637-4162-2081-5304m6412-2249l-6412 2249 1914 4901 4498-7150" fill="#eb7e6d"/><path d="m246111 260042l2753-7183 772 5203-3525 1980m-2450-12486l2853 940 2518 3960-168 403-5203-5303m10036 4296l2518-335-1041 2618-1477-2283m-4196 5169l5472-2752-303 940-5169 1812" fill="#6c98b1"/><path d="m255510 253296l705-1780 1174 2350-1879-570m-4565-5740l4229 6579-5673 2887-637-4163 2081-5303m-6412-2249l6412 2249-1914 4901-4498-7150" fill="#eb7e6d"/><path d="m275448 280485l-2752-7183-772 5202 3524 1981m2451-12487l-2854 940-2517 3961 168 403 5203-5304m-10037 4296l-2517-335 1040 2618 1477-2283m4196 5170l-5471-2753 302 940 5169 1813" fill="#6c98b1"/><path d="m266050 273738l-705-1779-1175 2349 1880-570m4565-5740l-4230 6579 5673 2887 638-4162-2081-5304m6411-2249l-6411 2249 1913 4901 4498-7150" fill="#eb7e6d"/><path d="m287130 260042l2752-7183 772 5203-3524 1980m-2451-12486l2853 940 2518 3960-168 403-5203-5303m10037 4296l2517-335-1041 2618-1476-2283m-4196 5169l5471-2752-302 940-5169 1812" fill="#6c98b1"/><path d="m296528 253296l705-1780 1175 2350-1880-570m-4565-5740l4229 6579-5672 2887-638-4163 2081-5303m-6411-2249l6411 2249-1914 4901-4497-7150" fill="#eb7e6d"/><path d="m316467 280485l-2753-7183-772 5202 3525 1981m2450-12487l-2853 940-2518 3961 168 403 5203-5304m-10036 4296l-2518-335 1041 2618 1477-2283m4195 5170l-5471-2753 302 940 5169 1813" fill="#6c98b1"/><path d="m307068 273738l-705-1779-1175 2349 1880-570m4565-5740l-4229 6579 5672 2887 638-4162-2081-5304m6411-2249l-6411 2249 1913 4901 4498-7150" fill="#eb7e6d"/><path d="m164074 300927l2753-7183 772 5203-3525 1980m-2450-12487l2853 940 2518 3961-168 403-5203-5304m10036 4297l2518-336-1041 2618-1477-2282m-4196 5169l5472-2753-302 940-5170 1813" fill="#6c98b1"/><path d="m173473 294180l705-1779 1175 2350-1880-571m-4565-5740l4229 6579-5672 2887-638-4162 2081-5304m-6411-2249l6411 2249-1914 4901-4498-7150h1" fill="#eb7e6d"/><path d="m193411 321369l-2752-7183-772 5203 3524 1980m2451-12486l-2853 939-2518 3961 168 403 5203-5303m-10037 4296l-2517-336 1040 2619 1477-2283m4196 5169l-5471-2752 302 940 5169 1812" fill="#6c98b1"/><path d="m184013 314622l-705-1779-1175 2350 1880-571m4565-5739l-4230 6579 5673 2886 638-4162-2081-5303m6411-2249l-6411 2249 1913 4900 4498-7149" fill="#eb7e6d"/><path d="m205093 300927l2752-7183 772 5203-3524 1980m-2451-12487l2853 940 2518 3961-168 403-5203-5304m10037 4297l2517-336-1040 2618-1477-2282m-4196 5169l5471-2753-302 940-5169 1813" fill="#6c98b1"/><path d="m214491 294180l705-1779 1175 2350-1880-571m-4565-5740l4230 6579-5673 2887-638-4162 2081-5304m-6411-2249l6411 2249-1913 4901-4498-7150" fill="#eb7e6d"/><path d="m234430 321369l-2753-7183-772 5203 3525 1980m2450-12486l-2853 939-2518 3961 168 403 5203-5303m-10036 4296l-2518-336 1041 2619 1477-2283m4196 5169l-5472-2752 302 940 5170 1812" fill="#6c98b1"/><path d="m225031 314622l-705-1779-1175 2350 1880-571m4565-5739l-4229 6579 5672 2886 638-4162-2081-5303m6411-2249l-6411 2249 1914 4900 4498-7149h-1" fill="#eb7e6d"/><path d="m246111 300927l2752-7183 773 5203-3525 1980m-2450-12487l2853 940 2517 3961-168 403-5202-5304m10036 4297l2518-336-1041 2618-1477-2282m-4196 5169l5471-2753-302 940-5169 1813" fill="#6c98b1"/><path d="m255509 294180l705-1779 1175 2350-1880-571m-4564-5740l4229 6579-5673 2887-638-4162 2082-5304m-6412-2249l6411 2249-1913 4901-4498-7150" fill="#eb7e6d"/><path d="m275448 321369l-2752-7183-773 5203 3525 1980m2450-12486l-2853 939-2517 3961 168 403 5202-5303m-10036 4296l-2518-336 1041 2619 1477-2283m4196 5169l-5471-2752 302 940 5169 1812" fill="#6c98b1"/><path d="m266049 314622l-704-1779-1175 2350 1879-571m4565-5739l-4229 6579 5673 2886 638-4162-2082-5303m6412-2249l-6411 2249 1913 4900 4498-7149" fill="#eb7e6d"/><path d="m287129 300927l2753-7183 772 5203-3525 1980m-2450-12487l2853 940 2518 3961-168 403-5203-5304m10036 4297l2518-336-1041 2618-1477-2282m-4196 5169l5472-2753-303 940-5169 1813" fill="#6c98b1"/><path d="m296528 294180l705-1779 1175 2350-1880-571m-4565-5740l4229 6579-5673 2887-637-4162 2081-5304m-6412-2249l6412 2249-1914 4901-4498-7150" fill="#eb7e6d"/><path d="m316466 321369l-2752-7183-772 5203 3524 1980m2451-12486l-2854 939-2517 3961 168 403 5203-5303m-10037 4296l-2517-336 1040 2619 1477-2283m4196 5169l-5471-2752 302 940 5169 1812" fill="#6c98b1"/><path d="m307068 314622l-705-1779-1175 2350 1880-571m4565-5739l-4230 6579 5673 2886 638-4162-2081-5303m6411-2249l-6411 2249 1913 4900 4498-7149" fill="#eb7e6d"/><path d="m326016 262896l2753-7183 772 5202-3525 1981m-2450-12487l2853 940 2518 3961-168 403-5203-5304m10036 4297l2518-336-1041 2618-1477-2282m-4196 5169l5472-2753-302 940-5170 1813" fill="#6c98b1"/><path d="m335415 256149l705-1779 1175 2349-1880-570m-4565-5740l4229 6579-5672 2887-638-4162 2081-5304m-6411-2249l6411 2249-1914 4901-4498-7150h1" fill="#eb7e6d"/><path d="m355353 283338l-2752-7183-772 5203 3524 1980m2451-12487l-2853 940-2518 3961 168 403 5203-5304m-10037 4297l-2517-336 1040 2618 1477-2282m4196 5169l-5471-2752 302 939 5169 1813" fill="#6c98b1"/><path d="m345955 276591l-705-1779-1175 2350 1880-571m4565-5740l-4230 6579 5673 2887 638-4162-2081-5303v-1m6411-2249l-6411 2249 1913 4901 4498-7149v-1" fill="#eb7e6d"/><path d="m367035 262896l2752-7183 772 5202-3524 1981m-2451-12487l2854 940 2517 3961-168 403-5203-5304m10037 4297l2517-336-1040 2618-1477-2282m-4196 5169l5471-2753-302 940-5169 1813" fill="#6c98b1"/><path d="m376433 256149l705-1779 1175 2349-1880-570m-4565-5740l4230 6579-5673 2887-638-4162 2081-5304m-6411-2249l6411 2249-1913 4901-4498-7150" fill="#eb7e6d"/><path d="m396372 283338l-2753-7183-772 5203 3525 1980m2450-12487l-2853 940-2518 3961 168 403 5203-5304m-10036 4297l-2518-336 1041 2618 1477-2282m4196 5169l-5472-2752 302 939 5170 1813" fill="#6c98b1"/><path d="m386973 276591l-705-1779-1175 2350 1880-571m4565-5740l-4229 6579 5672 2887 638-4162-2081-5303v-1m6412-2249l-6412 2249 1914 4901 4498-7149v-1" fill="#eb7e6d"/><path d="m326016 303780l2753-7183 772 5203-3525 1980m-2450-12486l2853 939 2517 3961-167 403-5203-5303m10036 4296l2518-336-1041 2619-1477-2283m-4196 5169l5472-2752-303 940-5169 1812" fill="#6c98b1"/><path d="m335415 297033l705-1779 1174 2350-1879-571m-4565-5739l4229 6579-5673 2887-637-4163 2081-5303m-6412-2249l6412 2249-1914 4900-4498-7149" fill="#eb7e6d"/><path d="m355353 324223l-2752-7184-772 5203 3524 1981m2451-12487l-2854 940-2517 3961 168 402 5203-5303m-10037 4296l-2517-335 1040 2618 1477-2283m4196 5170l-5471-2753 302 940 5169 1813" fill="#6c98b1"/><path d="m345954 317476l-704-1779-1175 2349 1879-570m4566-5740l-4230 6579 5673 2887 638-4162-2081-5304m6411-2249l-6411 2249 1913 4901 4498-7150" fill="#eb7e6d"/><path d="m367034 303780l2753-7183 772 5203-3525 1980m-2450-12486l2853 939 2518 3961-168 403-5203-5303m10036 4296l2518-336-1041 2619-1477-2283m-4195 5169l5471-2752-302 940-5169 1812" fill="#6c98b1"/><path d="m376433 297033l705-1779 1175 2350-1880-571m-4565-5739l4229 6579-5672 2887-638-4163 2081-5303m-6411-2249l6411 2249-1914 4900-4498-7149h1" fill="#eb7e6d"/><path d="m396371 324223l-2752-7184-772 5203 3524 1981m2451-12487l-2853 940-2518 3961 168 402 5203-5303m-10037 4296l-2517-335 1040 2618 1477-2283m4196 5170l-5471-2753 302 940 5169 1813" fill="#6c98b1"/><path d="m386973 317476l-705-1779-1175 2349 1880-570m4565-5740l-4230 6579 5673 2887 638-4162-2081-5304m6411-2249l-6411 2249 1913 4901 4498-7150" fill="#eb7e6d"/><path d="m5843 99358l2752-7183 772 5202-3524 1981m-2451-12487l2854 940 2517 3961-168 403-5203-5304m10037 4297l2517-336-1040 2618-1477-2282m-4196 5169l5471-2753-302 940-5169 1813" fill="#6c98b1"/><path d="m15241 92611l705-1779 1175 2349-1880-570m-4565-5740l4230 6579-5673 2887-638-4162 2081-5304m-6411-2249l6411 2249-1913 4901-4498-7150" fill="#eb7e6d"/><path d="m35180 119800l-2753-7183-772 5203 3525 1980m2450-12487l-2853 940-2518 3961 168 403 5203-5304m-10036 4297l-2518-336 1041 2618 1477-2282m4196 5169l-5472-2752 302 939 5170 1813" fill="#6c98b1"/><path d="m25781 113053l-705-1779-1175 2350 1880-571m4565-5740l-4229 6579 5673 2887 637-4162-2081-5303v-1m6412-2249l-6412 2249 1914 4901 4498-7149v-1" fill="#eb7e6d"/><path d="m46861 99358l2753-7183 772 5202-3525 1981m-2450-12487l2853 940 2517 3961-167 403-5203-5304m10036 4297l2518-336-1041 2618-1477-2282m-4196 5169l5472-2753-303 940-5169 1813" fill="#6c98b1"/><path d="m56260 92611l705-1779 1174 2349-1879-570m-4565-5740l4229 6579-5673 2887-637-4162 2081-5304m-6412-2249l6412 2249-1914 4901-4498-7150" fill="#eb7e6d"/><path d="m76198 119800l-2752-7183-772 5203 3524 1980m2450-12487l-2853 940-2517 3961 168 403 5202-5304m-10036 4297l-2517-336 1040 2618 1477-2282m4196 5169l-5471-2752 302 939 5169 1813" fill="#6c98b1"/><path d="m66799 113053l-704-1779-1175 2350 1879-571m4566-5740l-4230 6579 5673 2887 638-4162-2081-5303v-1m6411-2249l-6411 2249 1913 4901 4498-7149v-1" fill="#eb7e6d"/><path d="m87879 99358l2753-7183 772 5202-3525 1981m-2450-12487l2853 940 2518 3961-168 403-5203-5304m10036 4297l2518-336-1041 2618-1477-2282m-4196 5169l5472-2753-302 940-5170 1813" fill="#6c98b1"/><path d="m97278 92611l705-1779 1175 2349-1880-570m-4565-5740l4229 6579-5672 2887-638-4162 2081-5304m-6411-2249l6411 2249-1914 4901-4498-7150h1" fill="#eb7e6d"/><path d="m117216 119800l-2752-7183-772 5203 3524 1980m2451-12487l-2853 940-2518 3961 168 403 5203-5304m-10037 4297l-2517-336 1040 2618 1477-2282m4196 5169l-5471-2752 302 939 5169 1813" fill="#6c98b1"/><path d="m107818 113053l-705-1779-1175 2350 1880-571m4565-5740l-4230 6579 5673 2887 638-4162-2081-5303v-1m6411-2249l-6411 2249 1913 4901 4498-7149v-1" fill="#eb7e6d"/><path d="m128898 99358l2752-7183 772 5202-3524 1981m-2451-12487l2854 940 2517 3961-168 403-5203-5304m10037 4297l2517-336-1040 2618-1477-2282m-4196 5169l5471-2753-302 940-5169 1813" fill="#6c98b1"/><path d="m138296 92611l705-1779 1175 2349-1880-570m-4565-5740l4230 6579-5673 2887-638-4162 2081-5304m-6411-2249l6411 2249-1913 4901-4498-7150" fill="#eb7e6d"/><path d="m158235 119800l-2753-7183-772 5203 3525 1980m2450-12487l-2853 940-2518 3961 168 403 5203-5304m-10036 4297l-2518-336 1041 2618 1477-2282m4196 5169l-5472-2752 302 939 5170 1813" fill="#6c98b1"/><path d="m148836 113053l-705-1779-1175 2350 1880-571m4565-5740l-4229 6579 5672 2887 638-4162-2081-5303v-1m6412-2249l-6412 2249 1914 4901 4498-7149v-1" fill="#eb7e6d"/><path d="m5842 140242l2753-7183 772 5203-3525 1980m-2450-12486l2853 939 2518 3961-168 403-5203-5303m10037 4296l2517-336-1041 2619-1476-2283m-4196 5169l5471-2752-302 940-5169 1812" fill="#6c98b1"/><path d="m15241 133495l705-1779 1175 2350-1880-571m-4565-5739l4229 6579-5672 2887-638-4163 2081-5303m-6411-2249l6411 2249-1913 4900-4498-7149" fill="#eb7e6d"/><path d="m35180 160685l-2753-7184-772 5203 3525 1981m2450-12487l-2853 940-2518 3961 168 402 5203-5303m-10037 4296l-2517-335 1041 2618 1476-2283m4196 5170l-5471-2753 302 940 5169 1813" fill="#6c98b1"/><path d="m25781 153938l-705-1779-1175 2349 1880-570m4565-5740l-4229 6579 5672 2887 638-4162-2081-5304m6411-2249l-6411 2249 1913 4901 4498-7150" fill="#eb7e6d"/><path d="m46861 140242l2752-7183 772 5203-3524 1980m-2451-12486l2854 939 2517 3961-168 403-5203-5303m10037 4296l2517-336-1040 2619-1477-2283m-4196 5169l5471-2752-302 940-5169 1812" fill="#6c98b1"/><path d="m56259 133495l705-1779 1175 2350-1880-571m-4565-5739l4230 6579-5673 2887-638-4163 2081-5303m-6411-2249l6411 2249-1913 4900-4498-7149" fill="#eb7e6d"/><path d="m76198 160685l-2753-7184-772 5203 3525 1981m2450-12487l-2853 940-2518 3961 168 402 5203-5303m-10036 4296l-2518-335 1041 2618 1477-2283m4196 5170l-5472-2753 302 940 5170 1813" fill="#6c98b1"/><path d="m66799 153938l-705-1779-1175 2349 1880-570m4565-5740l-4229 6579 5673 2887 637-4162-2081-5304m6412-2249l-6412 2249 1914 4901 4498-7150" fill="#eb7e6d"/><path d="m87879 140242l2753-7183 772 5203-3525 1980m-2450-12486l2853 939 2517 3961-167 403-5203-5303m10036 4296l2518-336-1041 2619-1477-2283m-4196 5169l5472-2752-303 940-5169 1812" fill="#6c98b1"/><path d="m97278 133495l705-1779 1174 2350-1879-571m-4565-5739l4229 6579-5673 2887-637-4163 2081-5303m-6412-2249l6412 2249-1914 4900-4498-7149" fill="#eb7e6d"/><path d="m117216 160685l-2752-7184-772 5203 3524 1981m2451-12487l-2854 940-2517 3961 168 402 5203-5303m-10037 4296l-2517-335 1040 2618 1477-2283m4196 5170l-5471-2753 302 940 5169 1813" fill="#6c98b1"/><path d="m107818 153938l-705-1779-1175 2349 1880-570m4565-5740l-4230 6579 5673 2887 638-4162-2081-5304m6411-2249l-6411 2249 1913 4901 4498-7150" fill="#eb7e6d"/><path d="m128897 140242l2753-7183 772 5203-3525 1980m-2450-12486l2853 939 2518 3961-168 403-5203-5303m10036 4296l2518-336-1041 2619-1477-2283m-4195 5169l5471-2752-302 940-5169 1812" fill="#6c98b1"/><path d="m138296 133495l705-1779 1175 2350-1880-571m-4565-5739l4229 6579-5672 2887-638-4163 2081-5303m-6411-2249l6411 2249-1914 4900-4498-7149h1" fill="#eb7e6d"/><path d="m158234 160685l-2752-7184-772 5203 3524 1981m2451-12487l-2853 940-2518 3961 168 402 5203-5303m-10037 4296l-2517-335 1041 2618 1476-2283m4196 5170l-5471-2753 302 940 5169 1813" fill="#6c98b1"/><path d="m148836 153938l-705-1779-1175 2349 1880-570m4565-5740l-4229 6579 5672 2887 638-4162-2081-5304m6411-2249l-6411 2249 1913 4901 4498-7150" fill="#eb7e6d"/><path d="m5842 181127l2753-7183 772 5202-3525 1981m-2450-12487l2853 940 2518 3961-168 403-5203-5304m10036 4296l2518-335-1041 2618-1477-2283m-4196 5170l5472-2753-303 940-5169 1812v1" fill="#6c98b1"/><path d="m15241 174380l705-1779 1175 2349-1880-570m-4565-5740l4229 6579-5673 2887-637-4162 2081-5304m-6412-2249l6412 2249-1914 4901-4498-7150" fill="#eb7e6d"/><path d="m35179 201569l-2752-7183-772 5203 3524 1980m2451-12487l-2854 940-2517 3961 168 403 5203-5304m-10037 4297l-2517-336 1040 2618 1477-2282m4196 5169l-5471-2752 302 939 5169 1813" fill="#6c98b1"/><path d="m25781 194822l-705-1779-1175 2350 1880-571m4565-5740l-4230 6579 5673 2887 638-4162-2081-5304m6411-2249l-6411 2249 1913 4901 4498-7150" fill="#eb7e6d"/><path d="m46860 181127l2753-7183 772 5202-3525 1981m-2450-12487l2853 940 2518 3961-168 403-5203-5304m10037 4296l2517-335-1041 2618-1476-2283m-4196 5170l5471-2753-302 940-5169 1812v1" fill="#6c98b1"/><path d="m56259 174380l705-1779 1175 2349-1880-570m-4565-5740l4229 6579-5672 2887-638-4162 2081-5304m-6411-2249l6411 2249-1914 4901-4497-7150" fill="#eb7e6d"/><path d="m76198 201569l-2753-7183-772 5203 3525 1980m2450-12487l-2853 940-2518 3961 168 403 5203-5304m-10037 4297l-2517-336 1041 2618 1476-2282m4196 5169l-5471-2752 302 939 5169 1813" fill="#6c98b1"/><path d="m66799 194822l-705-1779-1175 2350 1880-571m4565-5740l-4229 6579 5672 2887 638-4162-2081-5304m6411-2249l-6411 2249 1913 4901 4498-7150" fill="#eb7e6d"/><path d="m87879 181127l2752-7183 772 5202-3524 1981m-2451-12487l2854 940 2517 3961-168 403-5203-5304m10037 4296l2517-335-1040 2618-1477-2283m-4196 5170l5471-2753-302 940-5169 1812v1" fill="#6c98b1"/><path d="m97277 174380l705-1779 1175 2349-1880-570m-4565-5740l4230 6579-5673 2887-638-4162 2081-5304m-6411-2249l6411 2249-1913 4901-4498-7150" fill="#eb7e6d"/><path d="m117216 201569l-2753-7183-772 5203 3525 1980m2450-12487l-2853 940-2518 3961 168 403 5203-5304m-10036 4297l-2518-336 1041 2618 1477-2282m4196 5169l-5472-2752 302 939 5170 1813" fill="#6c98b1"/><path d="m107817 194822l-705-1779-1175 2350 1880-571m4565-5740l-4229 6579 5673 2887 637-4162-2081-5304m6412-2249l-6412 2249 1914 4901 4498-7150" fill="#eb7e6d"/><path d="m128897 181127l2753-7183 772 5202-3525 1981m-2450-12487l2853 940 2517 3961-167 403-5203-5304m10036 4296l2518-335-1041 2618-1477-2283m-4196 5170l5472-2753-303 940-5169 1812v1" fill="#6c98b1"/><path d="m138296 174380l705-1779 1174 2349-1879-570m-4565-5740l4229 6579-5673 2887-637-4162 2081-5304m-6412-2249l6412 2249-1914 4901-4498-7150" fill="#eb7e6d"/><path d="m158234 201569l-2752-7183-772 5203 3524 1980m2451-12487l-2854 940-2517 3961 168 403 5203-5304m-10037 4297l-2517-336 1040 2618 1477-2282m4196 5169l-5471-2752 302 939 5169 1813" fill="#6c98b1"/><path d="m148835 194822l-704-1779-1175 2350 1879-571m4566-5740l-4230 6579 5673 2887 638-4162-2081-5304m6411-2249l-6411 2249 1913 4901 4498-7150" fill="#eb7e6d"/><path d="m5842 222011l2752-7183 772 5203-3524 1980m-2451-12486l2854 939 2517 3961-168 403-5203-5303m10037 4296l2517-336-1040 2619-1477-2283m-4196 5169l5471-2752-302 940-5169 1812" fill="#6c98b1"/><path d="m15241 215264l704-1779 1175 2350-1879-571m-4566-5739l4230 6579-5673 2886-638-4162 2081-5303m-6411-2249l6411 2249-1913 4900-4498-7149" fill="#eb7e6d"/><path d="m35179 242454l-2753-7184-772 5203 3525 1981m2450-12487l-2853 940-2517 3960 167 403 5203-5303m-10036 4296l-2518-335 1041 2618 1477-2283m4196 5170l-5472-2753 303 940 5169 1812v1" fill="#6c98b1"/><path d="m25780 235707l-705-1780-1174 2350 1879-570m4565-5740l-4229 6579 5673 2887 637-4163-2081-5303m6412-2249l-6412 2249 1914 4901 4498-7150" fill="#eb7e6d"/><path d="m46860 222011l2753-7183 772 5203-3525 1980m-2450-12486l2853 939 2518 3961-168 403-5203-5303m10036 4296l2518-336-1041 2619-1477-2283m-4196 5169l5472-2752-303 940-5169 1812" fill="#6c98b1"/><path d="m56259 215264l705-1779 1174 2350-1879-571m-4565-5739l4229 6579-5673 2886-637-4162 2081-5303m-6412-2249l6412 2249-1914 4900-4498-7149" fill="#eb7e6d"/><path d="m76197 242454l-2752-7184-772 5203 3524 1981m2451-12487l-2854 940-2517 3960 168 403 5203-5303m-10037 4296l-2517-335 1040 2618 1477-2283m4196 5170l-5471-2753 302 940 5169 1812v1" fill="#6c98b1"/><path d="m66799 235707l-705-1780-1175 2350 1880-570m4565-5740l-4230 6579 5673 2887 638-4163-2081-5303m6411-2249l-6411 2249 1913 4901 4498-7150" fill="#eb7e6d"/><path d="m87879 222011l2752-7183 772 5203-3524 1980m-2451-12486l2853 939 2518 3961-168 403-5203-5303m10037 4296l2517-336-1041 2619-1476-2283m-4196 5169l5471-2752-302 940-5169 1812" fill="#6c98b1"/><path d="m97277 215264l705-1779 1175 2350-1880-571m-4565-5739l4229 6579-5672 2886-638-4162 2081-5303m-6411-2249l6411 2249-1914 4900-4497-7149" fill="#eb7e6d"/><path d="m117216 242454l-2753-7184-772 5203 3525 1981m2450-12487l-2853 940-2518 3960 168 403 5203-5303m-10036 4296l-2518-335 1041 2618 1477-2283m4195 5170l-5471-2753 302 940 5169 1812v1" fill="#6c98b1"/><path d="m107817 235707l-705-1780-1175 2350 1880-570m4565-5740l-4229 6579 5672 2887 638-4163-2081-5303m6411-2249l-6411 2249 1913 4901 4498-7150" fill="#eb7e6d"/><path d="m128897 222011l2752-7183 772 5203-3524 1980m-2451-12486l2854 939 2517 3961-168 403-5203-5303m10037 4296l2517-336-1040 2619-1477-2283m-4196 5169l5471-2752-302 940-5169 1812" fill="#6c98b1"/><path d="m138295 215264l705-1779 1175 2350-1880-571m-4565-5739l4230 6579-5673 2886-638-4162 2081-5303m-6411-2249l6411 2249-1913 4900-4498-7149" fill="#eb7e6d"/><path d="m158234 242454l-2753-7184-772 5203 3525 1981m2450-12487l-2853 940-2518 3960 168 403 5203-5303m-10036 4296l-2518-335 1041 2618 1477-2283m4196 5170l-5472-2753 302 940 5170 1812v1" fill="#6c98b1"/><path d="m148835 235707l-705-1780-1175 2350 1880-570m4565-5740l-4229 6579 5673 2887 637-4163-2081-5303m6412-2249l-6412 2249 1914 4901 4498-7150" fill="#eb7e6d"/><path d="m5842 257415l2752-7183 772 5202-3524 1981m-2451-12487l2853 940 2518 3961-168 403-5203-5304m10037 4296l2517-335-1040 2618-1477-2283m-4196 5170l5471-2753-302 940-5169 1812v1" fill="#6c98b1"/><path d="m15240 250668l705-1779 1175 2349-1880-570m-4565-5740l4230 6579-5673 2887-638-4162 2081-5304m-6411-2249l6411 2249-1913 4901-4498-7150" fill="#eb7e6d"/><path d="m35179 277857l-2753-7183-772 5203 3525 1980m2450-12487l-2853 940-2518 3961 168 403 5203-5304m-10036 4297l-2518-336 1041 2618 1477-2282m4195 5169l-5471-2752 302 939 5169 1813" fill="#6c98b1"/><path d="m25780 271110l-705-1779-1175 2350 1880-571m4565-5740l-4229 6579 5672 2887 638-4162-2081-5304m6411-2249l-6411 2249 1913 4901 4499-7150h-1" fill="#eb7e6d"/><path d="m46860 257415l2752-7183 772 5202-3524 1981m-2451-12487l2854 940 2517 3961-168 403-5203-5304m10037 4296l2517-335-1040 2618-1477-2283m-4196 5170l5471-2753-302 940-5169 1812v1" fill="#6c98b1"/><path d="m56259 250668l704-1779 1175 2349-1879-570m-4566-5740l4230 6579-5673 2887-638-4162 2081-5304m-6411-2249l6411 2249-1913 4901-4498-7150" fill="#eb7e6d"/><path d="m76197 277857l-2753-7183-772 5203 3525 1980m2450-12487l-2853 940-2517 3961 167 403 5203-5304m-10036 4297l-2518-336 1041 2618 1477-2282m4196 5169l-5472-2752 303 939 5169 1813" fill="#6c98b1"/><path d="m66798 271110l-705-1779-1174 2350 1879-571m4565-5740l-4229 6579 5673 2887 637-4162-2081-5304m6412-2249l-6412 2249 1914 4901 4498-7150" fill="#eb7e6d"/><path d="m87878 257415l2753-7183 772 5202-3525 1981m-2450-12487l2853 940 2518 3961-168 403-5203-5304m10036 4296l2518-335-1041 2618-1477-2283m-4196 5170l5472-2753-303 940-5169 1812v1" fill="#6c98b1"/><path d="m97277 250668l705-1779 1174 2349-1879-570m-4565-5740l4229 6579-5673 2887-637-4162 2081-5304m-6412-2249l6412 2249-1914 4901-4498-7150" fill="#eb7e6d"/><path d="m117215 277857l-2752-7183-772 5203 3524 1980m2451-12487l-2854 940-2517 3961 168 403 5203-5304m-10037 4297l-2517-336 1040 2618 1477-2282m4196 5169l-5471-2752 302 939 5169 1813" fill="#6c98b1"/><path d="m107817 271110l-705-1779-1175 2350 1880-571m4565-5740l-4230 6579 5673 2887 638-4162-2081-5304m6411-2249l-6411 2249 1913 4901 4498-7150" fill="#eb7e6d"/><path d="m128896 257415l2753-7183 772 5202-3525 1981m-2450-12487l2853 940 2518 3961-168 403-5203-5304m10037 4296l2517-335-1041 2618-1476-2283m-4196 5170l5471-2753-302 940-5169 1812v1" fill="#6c98b1"/><path d="m138295 250668l705-1779 1175 2349-1880-570m-4565-5740l4229 6579-5672 2887-638-4162 2081-5304m-6411-2249l6411 2249-1914 4901-4497-7150" fill="#eb7e6d"/><path d="m158234 277857l-2753-7183-772 5203 3525 1980m2450-12487l-2853 940-2518 3961 168 403 5203-5304m-10037 4297l-2517-336 1041 2618 1476-2282m4196 5169l-5471-2752 302 939 5169 1813" fill="#6c98b1"/><path d="m148835 271110l-705-1779-1175 2350 1880-571m4565-5740l-4229 6579 5672 2887 638-4162-2081-5304m6411-2249l-6411 2249 1913 4901 4498-7150" fill="#eb7e6d"/><path d="m5841 298299l2753-7183 772 5203-3525 1980m-2450-12486l2853 939 2518 3961-168 403-5203-5303m10036 4296l2518-336-1041 2619-1477-2283m-4196 5169l5472-2752-302 940-5170 1812" fill="#6c98b1"/><path d="m15240 291552l705-1779 1175 2350-1880-571m-4565-5739l4229 6579-5672 2886-638-4162 2081-5303m-6412-2249l6412 2249-1914 4900-4498-7149" fill="#eb7e6d"/><path d="m35178 318742l-2752-7184-772 5203 3524 1981m2451-12487l-2854 940-2517 3960 168 403 5203-5303m-10037 4296l-2517-335 1040 2618 1477-2283m4196 5170l-5471-2753 302 940 5169 1812v1" fill="#6c98b1"/><path d="m25780 311995l-705-1780-1175 2350 1880-570m4565-5740l-4230 6579 5673 2887 638-4163-2081-5303m6411-2249l-6411 2249 1913 4901 4498-7150" fill="#eb7e6d"/><path d="m46860 298299l2752-7183 772 5203-3524 1980m-2451-12486l2853 939 2518 3961-168 403-5203-5303m10037 4296l2517-336-1040 2619-1477-2283m-4196 5169l5471-2752-302 940-5169 1812" fill="#6c98b1"/><path d="m56258 291552l705-1779 1175 2350-1880-571m-4565-5739l4230 6579-5673 2886-638-4162 2081-5303m-6411-2249l6411 2249-1913 4900-4498-7149" fill="#eb7e6d"/><path d="m76197 318742l-2753-7184-772 5203 3525 1981m2450-12487l-2853 940-2518 3960 168 403 5203-5303m-10036 4296l-2518-335 1041 2618 1477-2283m4196 5170l-5472-2753 302 940 5170 1812v1" fill="#6c98b1"/><path d="m66798 311995l-705-1780-1175 2350 1880-570m4565-5740l-4229 6579 5672 2887 638-4163-2081-5303m6411-2249l-6411 2249 1914 4901 4498-7150h-1" fill="#eb7e6d"/><path d="m87878 298299l2752-7183 772 5203-3524 1980m-2450-12486l2853 939 2517 3961-168 403-5202-5303m10036 4296l2517-336-1040 2619-1477-2283m-4196 5169l5471-2752-302 940-5169 1812" fill="#6c98b1"/><path d="m97276 291552l705-1779 1175 2350-1880-571m-4565-5739l4230 6579-5673 2886-638-4162 2081-5303m-6411-2249l6411 2249-1913 4900-4498-7149" fill="#eb7e6d"/><path d="m117215 318742l-2753-7184-772 5203 3525 1981m2450-12487l-2853 940-2517 3960 167 403 5203-5303m-10036 4296l-2518-335 1041 2618 1477-2283m4196 5170l-5472-2753 303 940 5169 1812v1" fill="#6c98b1"/><path d="m107816 311995l-705-1780-1174 2350 1879-570m4565-5740l-4229 6579 5673 2887 637-4163-2081-5303m6412-2249l-6411 2249 1913 4901 4498-7150" fill="#eb7e6d"/><path d="m128896 298299l2753-7183 772 5203-3525 1980m-2450-12486l2853 939 2518 3961-168 403-5203-5303m10036 4296l2518-336-1041 2619-1477-2283m-4196 5169l5472-2752-303 940-5169 1812" fill="#6c98b1"/><path d="m138295 291552l705-1779 1174 2350-1879-571m-4565-5739l4229 6579-5673 2886-637-4162 2081-5303m-6412-2249l6412 2249-1914 4900-4498-7149" fill="#eb7e6d"/><path d="m158233 318742l-2752-7184-772 5203 3524 1981m2451-12487l-2854 940-2517 3960 168 403 5203-5303m-10037 4296l-2517-335 1040 2618 1477-2283m4196 5170l-5471-2753 302 940 5169 1812v1" fill="#6c98b1"/><path d="m148835 311995l-705-1780-1175 2350 1880-570m4565-5740l-4230 6579 5673 2887 638-4163-2081-5303m6411-2249l-6411 2249 1913 4901 4498-7150" fill="#eb7e6d"/><path d="m164074 339241l2752-7183 773 5203-3525 1980m-2450-12486l2853 939 2517 3961-168 403-5202-5303m10036 4296l2518-336-1041 2619-1477-2283m-4196 5169l5471-2752-302 940-5169 1812" fill="#6c98b1"/><path d="m173473 332494l704-1779 1175 2350-1879-571m-4565-5739l4229 6579-5673 2886-638-4162 2082-5303m-6412-2249l6411 2249-1913 4900-4498-7149" fill="#eb7e6d"/><path d="m193411 359684l-2752-7184-773 5203 3525 1981m2450-12487l-2853 940-2517 3960 168 403 5202-5303m-10036 4296l-2518-335 1041 2618 1477-2283m4196 5170l-5471-2753 302 940 5169 1812v1" fill="#6c98b1"/><path d="m184012 352937l-704-1780-1175 2350 1879-570m4565-5740l-4229 6579 5673 2887 638-4163-2082-5303m6412-2249l-6411 2249 1913 4901 4498-7150" fill="#eb7e6d"/><path d="m205092 339241l2753-7183 772 5203-3525 1980m-2450-12486l2853 939 2518 3961-168 403-5203-5303m10036 4296l2518-336-1041 2619-1477-2283m-4196 5169l5472-2752-302 940-5170 1812" fill="#6c98b1"/><path d="m214491 332494l705-1779 1175 2350-1880-571m-4565-5739l4229 6579-5672 2886-638-4162 2081-5303m-6412-2249l6412 2249-1914 4900-4498-7149" fill="#eb7e6d"/><path d="m234429 359684l-2752-7184-772 5203 3524 1981m2451-12487l-2854 940-2517 3960 168 403 5203-5303m-10037 4296l-2517-335 1040 2618 1477-2283m4196 5170l-5471-2753 302 940 5169 1812v1" fill="#6c98b1"/><path d="m225031 352937l-705-1780-1175 2350 1880-570m4565-5740l-4230 6579 5673 2887 638-4163-2081-5303m6411-2249l-6411 2249 1913 4901 4498-7150" fill="#eb7e6d"/><path d="m246111 339241l2752-7183 772 5203-3524 1980m-2451-12486l2853 939 2518 3961-168 403-5203-5303m10037 4296l2517-336-1040 2619-1477-2283m-4196 5169l5471-2752-302 940-5169 1812" fill="#6c98b1"/><path d="m255509 332494l705-1779 1175 2350-1880-571m-4565-5739l4230 6579-5673 2886-638-4162 2081-5303m-6411-2249l6411 2249-1913 4900-4498-7149" fill="#eb7e6d"/><path d="m275448 359684l-2753-7184-772 5203 3525 1981m2450-12487l-2853 940-2518 3960 168 403 5203-5303m-10036 4296l-2518-335 1041 2618 1477-2283m4196 5170l-5472-2753 302 940 5170 1812v1" fill="#6c98b1"/><path d="m266049 352937l-705-1780-1175 2350 1880-570m4565-5740l-4229 6579 5672 2887 638-4163-2081-5303m6411-2249l-6411 2249 1914 4901 4498-7150h-1" fill="#eb7e6d"/><path d="m287129 339241l2752-7183 772 5203-3524 1980m-2450-12486l2853 939 2517 3961-168 403-5202-5303m10036 4296l2518-336-1041 2619-1477-2283m-4196 5169l5471-2752-302 940-5169 1812" fill="#6c98b1"/><path d="m296527 332494l705-1779 1175 2350-1880-571m-4565-5739l4230 6579-5673 2886-638-4162 2081-5303m-6411-2249l6411 2249-1913 4900-4498-7149" fill="#eb7e6d"/><path d="m316466 359684l-2753-7184-772 5203 3525 1981m2450-12487l-2853 940-2517 3960 167 403 5203-5303m-10036 4296l-2518-335 1041 2618 1477-2283m4196 5170l-5472-2753 303 940 5169 1812v1" fill="#6c98b1"/><path d="m307067 352937l-704-1780-1175 2350 1879-570m4565-5740l-4229 6579 5673 2887 637-4163-2081-5303m6412-2249l-6411 2249 1913 4901 4498-7150" fill="#eb7e6d"/><path d="m164074 380126l2752-7183 772 5202-3524 1981m-2451-12487l2854 940 2517 3961-168 403-5203-5304m10037 4297l2517-336-1040 2618-1477-2282m-4196 5169l5471-2753-302 940-5169 1813" fill="#6c98b1"/><path d="m173472 373379l705-1779 1175 2349-1880-570m-4565-5740l4230 6579-5673 2887-638-4162 2081-5304m-6411-2249l6411 2249-1913 4901-4498-7150" fill="#eb7e6d"/><path d="m193411 400568l-2753-7183-772 5203 3525 1980m2450-12487l-2853 940-2518 3961 168 403 5203-5304m-10036 4297l-2518-336 1041 2618 1477-2282m4196 5169l-5472-2752 302 939 5170 1813" fill="#6c98b1"/><path d="m184012 393821l-705-1779-1175 2350 1880-571m4565-5740l-4229 6579 5673 2887 637-4162-2081-5303v-1m6412-2249l-6412 2249 1914 4901 4498-7149v-1" fill="#eb7e6d"/><path d="m205092 380126l2752-7183 773 5202-3525 1981m-2450-12487l2853 940 2517 3961-168 403-5202-5304m10036 4297l2518-336-1041 2618-1477-2282m-4196 5169l5471-2753-302 940-5169 1813" fill="#6c98b1"/><path d="m214491 373379l704-1779 1175 2349-1879-570m-4565-5740l4229 6579-5673 2887-638-4162 2082-5304m-6412-2249l6411 2249-1913 4901-4498-7150" fill="#eb7e6d"/><path d="m234429 400568l-2752-7183-773 5203 3525 1980m2450-12487l-2853 940-2517 3961 168 403 5202-5304m-10036 4297l-2518-336 1041 2618 1477-2282m4196 5169l-5471-2752 302 939 5169 1813" fill="#6c98b1"/><path d="m225030 393821l-704-1779-1175 2350 1879-571m4565-5740l-4229 6579 5673 2887 638-4162-2082-5303v-1m6412-2249l-6411 2249 1913 4901 4498-7149v-1" fill="#eb7e6d"/><path d="m246110 380126l2753-7183 772 5202-3525 1981m-2450-12487l2853 940 2518 3961-168 403-5203-5304m10036 4297l2518-336-1041 2618-1477-2282m-4196 5169l5472-2753-302 940-5170 1813" fill="#6c98b1"/><path d="m255509 373379l705-1779 1175 2349-1880-570m-4565-5740l4229 6579-5672 2887-638-4162 2081-5304m-6411-2249l6411 2249-1914 4901-4498-7150h1" fill="#eb7e6d"/><path d="m275447 400568l-2752-7183-772 5203 3524 1980m2451-12487l-2853 940-2518 3961 168 403 5203-5304m-10037 4297l-2517-336 1040 2618 1477-2282m4196 5169l-5471-2752 302 939 5169 1813" fill="#6c98b1"/><path d="m266049 393821l-705-1779-1175 2350 1880-571m4565-5740l-4230 6579 5673 2887 638-4162-2081-5303v-1m6411-2249l-6411 2249 1913 4901 4498-7149v-1" fill="#eb7e6d"/><path d="m287129 380126l2752-7183 772 5202-3524 1981m-2451-12487l2853 940 2518 3961-168 403-5203-5304m10037 4297l2517-336-1040 2618-1477-2282m-4196 5169l5471-2753-302 940-5169 1813" fill="#6c98b1"/><path d="m296527 373379l705-1779 1175 2349-1880-570m-4565-5740l4230 6579-5673 2887-638-4162 2081-5304m-6411-2249l6411 2249-1913 4901-4498-7150" fill="#eb7e6d"/><path d="m316466 400568l-2753-7183-772 5203 3525 1980m2450-12487l-2853 940-2518 3961 168 403 5203-5304m-10036 4297l-2518-336 1041 2618 1477-2282m4196 5169l-5472-2752 302 939 5170 1813" fill="#6c98b1"/><path d="m307067 393821l-705-1779-1175 2350 1880-571m4565-5740l-4229 6579 5672 2887 638-4162-2081-5303v-1m6411-2249l-6411 2249 1914 4901 4498-7149-1-1" fill="#eb7e6d"/><path d="m326016 342095l2752-7184 772 5203-3524 1981m-2451-12487l2854 940 2517 3961-168 402-5203-5303m10037 4296l2517-335-1040 2618-1477-2283m-4196 5170l5471-2753-302 940-5169 1812v1" fill="#6c98b1"/><path d="m335414 335348l705-1779 1175 2349-1880-570m-4565-5740l4230 6579-5673 2887-638-4162 2081-5304m-6411-2249l6411 2249-1913 4901-4498-7150" fill="#eb7e6d"/><path d="m355353 362537l-2753-7183-772 5203 3525 1980m2450-12487l-2853 940-2518 3961 168 403 5203-5304m-10036 4297l-2518-336 1041 2618 1477-2282m4196 5169l-5472-2753 302 940 5170 1813" fill="#6c98b1"/><path d="m345954 355790l-705-1779-1175 2350 1880-571m4565-5740l-4229 6579 5673 2887 637-4162-2081-5304m6412-2249l-6412 2249 1914 4901 4498-7150" fill="#eb7e6d"/><path d="m367034 342095l2753-7184 772 5203-3525 1981m-2450-12487l2853 940 2517 3961-167 402-5203-5303m10036 4296l2518-335-1041 2618-1477-2283m-4196 5170l5472-2753-303 940-5169 1812v1" fill="#6c98b1"/><path d="m376433 335348l705-1779 1174 2349-1879-570m-4565-5740l4229 6579-5673 2887-637-4162 2081-5304m-6412-2249l6412 2249-1914 4901-4498-7150" fill="#eb7e6d"/><path d="m396371 362537l-2752-7183-772 5203 3524 1980m2450-12487l-2853 940-2517 3961 168 403 5202-5304m-10036 4297l-2517-336 1040 2618 1477-2282m4196 5169l-5471-2753 302 940 5169 1813" fill="#6c98b1"/><path d="m386972 355790l-704-1779-1175 2350 1879-571m4566-5740l-4230 6579 5673 2887 638-4162-2081-5304m6411-2249l-6411 2249 1913 4901 4498-7150" fill="#eb7e6d"/><path d="m326015 382979l2753-7183 772 5203-3525 1980m-2450-12487l2853 940 2518 3961-168 403-5203-5304m10037 4297l2517-336-1041 2619-1476-2283m-4196 5169l5471-2752-302 939-5169 1813" fill="#6c98b1"/><path d="m335414 376232l705-1779 1175 2350-1880-571m-4565-5740l4229 6580-5672 2886-638-4162 2081-5303v-1m-6411-2249l6411 2249-1913 4901-4498-7149v-1" fill="#eb7e6d"/><path d="m355353 403421l-2753-7183-772 5203 3525 1980m2450-12486l-2853 940-2518 3960 168 403 5203-5303m-10037 4296l-2517-335 1041 2618 1476-2283m4196 5169l-5471-2752 302 940 5169 1812" fill="#6c98b1"/><path d="m345954 396675l-705-1780-1175 2350 1880-570m4565-5740l-4229 6579 5672 2887 638-4163-2081-5303m6411-2249l-6411 2249 1913 4901 4498-7150" fill="#eb7e6d"/><path d="m367034 382979l2752-7183 772 5203-3524 1980m-2451-12487l2854 940 2517 3961-168 403-5203-5304m10037 4297l2517-336-1040 2619-1477-2283m-4196 5169l5471-2752-302 939-5169 1813" fill="#6c98b1"/><path d="m376432 376232l705-1779 1175 2350-1880-571m-4565-5740l4230 6580-5673 2886-638-4162 2081-5303v-1m-6411-2249l6411 2249-1913 4901-4498-7149v-1" fill="#eb7e6d"/><path d="m396371 403421l-2753-7183-772 5203 3525 1980m2450-12486l-2853 940-2518 3960 168 403 5203-5303m-10036 4296l-2518-335 1041 2618 1477-2283m4196 5169l-5472-2752 302 940 5170 1812" fill="#6c98b1"/><path d="m386972 396675l-705-1780-1175 2350 1880-570m4565-5740l-4229 6579 5673 2887 637-4163-2081-5303m6412-2249l-6412 2249 1914 4901 4498-7150" fill="#eb7e6d"/><path d="m5841 336614l2752-7184 773 5203-3525 1981m-2450-12487l2853 940 2517 3960-168 403-5202-5303m10036 4296l2518-335-1041 2618-1477-2283m-4196 5170l5471-2753-302 940-5169 1812v1" fill="#6c98b1"/><path d="m15240 329867l704-1780 1175 2350-1879-570m-4565-5740l4229 6579-5673 2887-638-4163 2082-5303m-6412-2249l6411 2249-1913 4901-4498-7150" fill="#eb7e6d"/><path d="m35178 357056l-2752-7183-773 5202 3525 1981m2450-12487l-2853 940-2517 3961 168 403 5202-5304m-10036 4297l-2518-336 1041 2618 1477-2282m4196 5169l-5471-2753 302 940 5169 1813" fill="#6c98b1"/><path d="m25779 350309l-704-1779-1175 2350 1879-571m4565-5740l-4229 6579 5673 2887 638-4162-2082-5304m6412-2249l-6411 2249 1913 4901 4498-7150" fill="#eb7e6d"/><path d="m46859 336614l2753-7184 772 5203-3525 1981m-2450-12487l2853 940 2518 3960-168 403-5203-5303m10036 4296l2518-335-1041 2618-1477-2283m-4196 5170l5472-2753-302 940-5170 1812v1" fill="#6c98b1"/><path d="m56258 329867l705-1780 1175 2350-1880-570m-4565-5740l4229 6579-5672 2887-638-4163 2081-5303m-6412-2249l6412 2249-1914 4901-4498-7150" fill="#eb7e6d"/><path d="m76196 357056l-2752-7183-772 5202 3524 1981m2451-12487l-2854 940-2517 3961 168 403 5203-5304m-10037 4297l-2517-336 1040 2618 1477-2282m4196 5169l-5471-2753 302 940 5169 1813" fill="#6c98b1"/><path d="m66798 350309l-705-1779-1175 2350 1880-571m4565-5740l-4230 6579 5673 2887 638-4162-2081-5304m6411-2249l-6411 2249 1913 4901 4498-7150" fill="#eb7e6d"/><path d="m87878 336614l2752-7184 772 5203-3524 1981m-2451-12487l2853 940 2518 3960-168 403-5203-5303m10037 4296l2517-335-1040 2618-1477-2283m-4196 5170l5471-2753-302 940-5169 1812v1" fill="#6c98b1"/><path d="m97276 329867l705-1780 1175 2350-1880-570m-4565-5740l4230 6579-5673 2887-638-4163 2081-5303m-6411-2249l6411 2249-1913 4901-4498-7150" fill="#eb7e6d"/><path d="m117215 357056l-2753-7183-772 5202 3525 1981m2450-12487l-2853 940-2518 3961 168 403 5203-5304m-10036 4297l-2518-336 1041 2618 1477-2282m4196 5169l-5472-2753 302 940 5170 1813" fill="#6c98b1"/><path d="m107816 350309l-705-1779-1175 2350 1880-571m4565-5740l-4229 6579 5672 2887 638-4162-2081-5304m6411-2249l-6411 2249 1914 4901 4498-7150h-1" fill="#eb7e6d"/><path d="m128896 336614l2752-7184 772 5203-3524 1981m-2450-12487l2853 940 2517 3960-168 403-5202-5303m10036 4296l2517-335-1040 2618-1477-2283m-4196 5170l5471-2753-302 940-5169 1812v1" fill="#6c98b1"/><path d="m138294 329867l705-1780 1175 2350-1880-570m-4565-5740l4230 6579-5673 2887-638-4163 2081-5303m-6411-2249l6411 2249-1913 4901-4498-7150" fill="#eb7e6d"/><path d="m158233 357056l-2753-7183-772 5202 3525 1981m2450-12487l-2853 940-2517 3961 167 403 5203-5304m-10036 4297l-2518-336 1041 2618 1477-2282m4196 5169l-5472-2753 303 940 5169 1813" fill="#6c98b1"/><path d="m148834 350309l-705-1779-1174 2350 1879-571m4565-5740l-4229 6579 5673 2887 637-4162-2081-5304m6412-2249l-6412 2249 1914 4901 4498-7150" fill="#eb7e6d"/><path d="m5841 377498l2752-7183 772 5203-3524 1980m-2451-12487l2854 940 2517 3961-168 403-5203-5304m10037 4297l2517-336-1040 2618-1477-2282m-4196 5169l5471-2753-302 940-5169 1813" fill="#6c98b1"/><path d="m15239 370751l705-1779 1175 2350-1880-571m-4565-5740l4230 6579-5673 2887-638-4162 2081-5303v-1m-6411-2249l6411 2249-1913 4901-4498-7149v-1" fill="#eb7e6d"/><path d="m35178 397940l-2753-7183-772 5203 3525 1980m2450-12486l-2853 939-2518 3961 168 403 5203-5303m-10036 4296l-2518-335 1041 2618 1477-2283m4196 5169l-5472-2752 302 940 5170 1812" fill="#6c98b1"/><path d="m25779 391193l-705-1779-1175 2350 1880-571m4565-5739l-4229 6579 5672 2886 638-4162-2081-5303m6412-2249l-6412 2249 1914 4900 4498-7149" fill="#eb7e6d"/><path d="m46859 377498l2752-7183 773 5203-3525 1980m-2450-12487l2853 940 2517 3961-168 403-5202-5304m10036 4297l2518-336-1041 2618-1477-2282m-4196 5169l5471-2753-302 940-5169 1813" fill="#6c98b1"/><path d="m56258 370751l704-1779 1175 2350-1879-571m-4565-5740l4229 6579-5673 2887-638-4162 2082-5303v-1m-6412-2249l6411 2249-1913 4901-4498-7149v-1" fill="#eb7e6d"/><path d="m76196 397940l-2752-7183-773 5203 3525 1980m2450-12486l-2853 939-2517 3961 168 403 5202-5303m-10036 4296l-2518-335 1041 2618 1477-2283m4196 5169l-5471-2752 302 940 5169 1812" fill="#6c98b1"/><path d="m66797 391193l-704-1779-1175 2350 1879-571m4565-5739l-4229 6579 5673 2886 638-4162-2082-5303m6412-2249l-6411 2249 1913 4900 4498-7149" fill="#eb7e6d"/><path d="m87877 377498l2753-7183 772 5203-3525 1980m-2450-12487l2853 940 2518 3961-168 403-5203-5304m10036 4297l2518-336-1041 2618-1477-2282m-4196 5169l5472-2753-302 940-5170 1813" fill="#6c98b1"/><path d="m97276 370751l705-1779 1175 2350-1880-571m-4565-5740l4229 6579-5672 2887-638-4162 2081-5303v-1m-6411-2249l6411 2249-1914 4901-4498-7149 1-1" fill="#eb7e6d"/><path d="m117214 397940l-2752-7183-772 5203 3524 1980m2451-12486l-2853 939-2518 3961 168 403 5203-5303m-10037 4296l-2517-335 1040 2618 1477-2283m4196 5169l-5471-2752 302 940 5169 1812" fill="#6c98b1"/><path d="m107816 391193l-705-1779-1175 2350 1880-571m4565-5739l-4230 6579 5673 2886 638-4162-2081-5303m6411-2249l-6411 2249 1913 4900 4498-7149" fill="#eb7e6d"/><path d="m128896 377498l2752-7183 772 5203-3524 1980m-2451-12487l2853 940 2518 3961-168 403-5203-5304m10037 4297l2517-336-1040 2618-1477-2282m-4196 5169l5471-2753-302 940-5169 1813" fill="#6c98b1"/><path d="m138294 370751l705-1779 1175 2350-1880-571m-4565-5740l4230 6579-5673 2887-638-4162 2081-5303v-1m-6411-2249l6411 2249-1913 4901-4498-7149v-1" fill="#eb7e6d"/><path d="m158233 397940l-2753-7183-772 5203 3525 1980m2450-12486l-2853 939-2518 3961 168 403 5203-5303m-10036 4296l-2518-335 1041 2618 1477-2283m4196 5169l-5472-2752 302 940 5170 1812" fill="#6c98b1"/><path d="m148834 391193l-705-1779-1175 2350 1880-571m4565-5739l-4229 6579 5672 2886 638-4162-2081-5303m6411-2249l-6411 2249 1914 4900 4498-7149h-1" fill="#eb7e6d"/><path d="m164076 20217l2753-7184 772 5203-3525 1981m-2450-12487l2853 940 2518 3961-168 402-5203-5303m10036 4296l2518-335-1041 2618-1477-2283m-4196 5170l5472-2753-302 940-5170 1812v1" fill="#6c98b1"/><path d="m173475 13470l705-1779 1175 2349-1880-570m-4565-5740l4229 6579-5672 2887-638-4162 2081-5304m-6411-2249l6411 2249-1914 4901-4498-7150h1" fill="#eb7e6d"/><path d="m193413 40659l-2752-7183-772 5203 3524 1980m2451-12487l-2853 940-2518 3961 168 403 5203-5304m-10037 4297l-2517-336 1040 2618 1477-2282m4196 5169l-5471-2753 302 940 5169 1813" fill="#6c98b1"/><path d="m184015 33912l-705-1779-1175 2350 1880-571m4565-5740l-4230 6579 5673 2887 638-4162-2081-5304m6411-2249l-6411 2249 1913 4901 4498-7150" fill="#eb7e6d"/><path d="m205095 20217l2752-7184 772 5203-3524 1981m-2451-12487l2854 940 2517 3961-168 402-5203-5303m10037 4296l2517-335-1040 2618-1477-2283m-4196 5170l5471-2753-302 940-5169 1812v1" fill="#6c98b1"/><path d="m214493 13470l705-1779 1175 2349-1880-570m-4565-5740l4230 6579-5673 2887-638-4162 2081-5304m-6411-2249l6411 2249-1913 4901-4498-7150" fill="#eb7e6d"/><path d="m234432 40659l-2753-7183-772 5203 3525 1980m2450-12487l-2853 940-2518 3961 168 403 5203-5304m-10036 4297l-2518-336 1041 2618 1477-2282m4196 5169l-5472-2753 302 940 5170 1813" fill="#6c98b1"/><path d="m225033 33912l-705-1779-1175 2350 1880-571m4565-5740l-4229 6579 5672 2887 638-4162-2081-5304m6412-2249l-6412 2249 1914 4901 4498-7150" fill="#eb7e6d"/><path d="m246113 20217l2752-7184 773 5203-3525 1981m-2450-12487l2853 940 2517 3961-168 402-5202-5303m10036 4296l2518-335-1041 2618-1477-2283m-4196 5170l5471-2753-302 940-5169 1812v1" fill="#6c98b1"/><path d="m255512 13470l704-1779 1175 2349-1879-570m-4565-5740l4229 6579-5673 2887-638-4162 2082-5304m-6412-2249l6411 2249-1913 4901-4498-7150" fill="#eb7e6d"/><path d="m275450 40659l-2752-7183-773 5203 3525 1980m2450-12487l-2853 940-2517 3961 168 403 5202-5304m-10036 4297l-2518-336 1041 2618 1477-2282m4196 5169l-5471-2753 302 940 5169 1813" fill="#6c98b1"/><path d="m266051 33912l-704-1779-1175 2350 1879-571m4565-5740l-4229 6579 5673 2887 638-4162-2082-5304m6412-2249l-6411 2249 1913 4901 4498-7150" fill="#eb7e6d"/><path d="m287131 20217l2753-7184 772 5203-3525 1981m-2450-12487l2853 940 2518 3961-168 402-5203-5303m10036 4296l2518-335-1041 2618-1477-2283m-4196 5170l5472-2753-302 940-5170 1812v1" fill="#6c98b1"/><path d="m296530 13470l705-1779 1175 2349-1880-570m-4565-5740l4229 6579-5672 2887-638-4162 2081-5304m-6411-2249l6411 2249-1914 4901-4498-7150h1" fill="#eb7e6d"/><path d="m316468 40659l-2752-7183-772 5203 3524 1980m2451-12487l-2853 940-2518 3961 168 403 5203-5304m-10037 4297l-2517-336 1040 2618 1477-2282m4196 5169l-5471-2753 302 940 5169 1813" fill="#6c98b1"/><path d="m307070 33912l-705-1779-1175 2350 1880-571m4565-5740l-4230 6579 5673 2887 638-4162-2081-5304m6411-2249l-6411 2249 1913 4901 4498-7150" fill="#eb7e6d"/><path d="m164076 61101l2753-7183 772 5203-3525 1980m-2450-12486l2853 939 2517 3961-167 403-5203-5303m10036 4296l2518-336-1041 2619-1477-2283m-4196 5169l5472-2752-303 939-5169 1813" fill="#6c98b1"/><path d="m173475 54354l705-1779 1175 2350-1880-571m-4565-5739l4229 6579-5673 2886-637-4162 2081-5303m-6412-2249l6412 2249-1914 4900-4498-7149" fill="#eb7e6d"/><path d="m193413 81543l-2752-7183-772 5203 3524 1980m2451-12486l-2854 940-2517 3960 168 403 5203-5303m-10037 4296l-2517-335 1040 2618 1477-2283m4196 5169l-5471-2752 302 940 5169 1812" fill="#6c98b1"/><path d="m184015 74797l-705-1780-1175 2350 1880-570m4565-5740l-4230 6579 5673 2887 638-4163-2081-5303m6411-2249l-6411 2249 1913 4901 4498-7150" fill="#eb7e6d"/><path d="m205094 61101l2753-7183 772 5203-3525 1980m-2450-12486l2853 939 2518 3961-168 403-5203-5303m10036 4296l2518-336-1041 2619-1477-2283m-4195 5169l5471-2752-302 939-5169 1813" fill="#6c98b1"/><path d="m214493 54354l705-1779 1175 2350-1880-571m-4565-5739l4229 6579-5672 2886-638-4162 2081-5303m-6411-2249l6411 2249-1914 4900-4498-7149h1" fill="#eb7e6d"/><path d="m234431 81543l-2752-7183-772 5203 3524 1980m2451-12486l-2853 940-2518 3960 168 403 5203-5303m-10037 4296l-2517-335 1040 2618 1477-2283m4196 5169l-5471-2752 302 940 5169 1812" fill="#6c98b1"/><path d="m225033 74797l-705-1780-1175 2350 1880-570m4565-5740l-4230 6579 5673 2887 638-4163-2081-5303m6411-2249l-6411 2249 1913 4901 4498-7150" fill="#eb7e6d"/><path d="m246113 61101l2752-7183 772 5203-3524 1980m-2451-12486l2854 939 2517 3961-168 403-5203-5303m10037 4296l2517-336-1040 2619-1477-2283m-4196 5169l5471-2752-302 939-5169 1813" fill="#6c98b1"/><path d="m255511 54354l705-1779 1175 2350-1880-571m-4565-5739l4230 6579-5673 2886-638-4162 2081-5303m-6411-2249l6411 2249-1913 4900-4498-7149" fill="#eb7e6d"/><path d="m275450 81543l-2753-7183-772 5203 3525 1980m2450-12486l-2853 940-2518 3960 168 403 5203-5303m-10036 4296l-2518-335 1041 2618 1477-2283m4196 5169l-5472-2752 302 940 5170 1812" fill="#6c98b1"/><path d="m266051 74797l-705-1780-1175 2350 1880-570m4565-5740l-4229 6579 5673 2887 637-4163-2081-5303m6412-2249l-6412 2249 1914 4901 4498-7150" fill="#eb7e6d"/><path d="m287131 61101l2753-7183 772 5203-3525 1980m-2450-12486l2853 939 2517 3961-167 403-5203-5303m10036 4296l2518-336-1041 2619-1477-2283m-4196 5169l5472-2752-303 939-5169 1813" fill="#6c98b1"/><path d="m296530 54354l705-1779 1174 2350-1879-571m-4565-5739l4229 6579-5673 2886-637-4162 2081-5303m-6412-2249l6411 2249-1913 4900-4498-7149" fill="#eb7e6d"/><path d="m316468 81543l-2752-7183-772 5203 3524 1980m2450-12486l-2853 940-2517 3960 168 403 5202-5303m-10036 4296l-2517-335 1040 2618 1477-2283m4196 5169l-5471-2752 302 940 5169 1812" fill="#6c98b1"/><path d="m307069 74797l-704-1780-1175 2350 1879-570m4566-5740l-4230 6579 5673 2887 638-4163-2081-5303m6411-2249l-6411 2249 1913 4901 4498-7150" fill="#eb7e6d"/><path d="m326018 23070l2753-7183 772 5203-3525 1980m-2450-12487l2853 940 2518 3961-168 403-5203-5304m10036 4297l2518-336-1041 2618-1477-2282m-4196 5169l5472-2753-303 940-5169 1813" fill="#6c98b1"/><path d="m335417 16323l705-1779 1175 2350-1880-571m-4565-5740l4229 6579-5673 2887-637-4162 2081-5303v-1m-6412-2249l6412 2249-1914 4901-4498-7150" fill="#eb7e6d"/><path d="m355355 43512l-2752-7183-772 5203 3524 1980m2451-12486l-2854 939-2517 3961 168 403 5203-5303m-10037 4296l-2517-335 1040 2618 1477-2283m4196 5169l-5471-2752 302 940 5169 1812" fill="#6c98b1"/><path d="m345957 36765l-705-1779-1175 2350 1880-571m4565-5739l-4230 6579 5673 2886 638-4162-2081-5303m6411-2249l-6411 2249 1913 4900 4498-7149" fill="#eb7e6d"/><path d="m367036 23070l2753-7183 772 5203-3525 1980m-2450-12487l2853 940 2518 3961-168 403-5203-5304m10037 4297l2517-336-1041 2618-1476-2282m-4196 5169l5471-2753-302 940-5169 1813" fill="#6c98b1"/><path d="m376435 16323l705-1779 1175 2350-1880-571m-4565-5740l4229 6579-5672 2887-638-4162 2081-5303v-1m-6411-2249l6411 2249-1914 4901-4497-7150" fill="#eb7e6d"/><path d="m396374 43512l-2753-7183-772 5203 3525 1980m2450-12486l-2853 939-2518 3961 168 403 5203-5303m-10037 4296l-2517-335 1041 2618 1476-2283m4196 5169l-5471-2752 302 940 5169 1812" fill="#6c98b1"/><path d="m386975 36765l-705-1779-1175 2350 1880-571m4565-5739l-4229 6579 5672 2886 638-4162-2081-5303m6411-2249l-6411 2249 1913 4900 4498-7149" fill="#eb7e6d"/><path d="m326018 63955l2752-7184 772 5203-3524 1981m-2451-12487l2854 940 2517 3961-168 402-5203-5303m10037 4296l2517-335-1040 2618-1477-2283m-4196 5170l5471-2753-302 940-5169 1812v1" fill="#6c98b1"/><path d="m335417 57208l704-1780 1175 2350-1879-570m-4566-5740l4230 6579-5673 2887-638-4163 2081-5303m-6411-2249l6411 2249-1913 4901-4498-7150" fill="#eb7e6d"/><path d="m355355 84397l-2753-7183-772 5202 3525 1981m2450-12487l-2853 940-2517 3961 167 403 5203-5304m-10036 4297l-2518-336 1041 2618 1477-2282m4196 5169l-5472-2753 303 940 5169 1813" fill="#6c98b1"/><path d="m345956 77650l-705-1779-1174 2350 1879-571m4565-5740l-4229 6579 5673 2887 637-4162-2081-5304m6412-2249l-6412 2249 1914 4901 4498-7150" fill="#eb7e6d"/><path d="m367036 63955l2753-7184 772 5203-3525 1981m-2450-12487l2853 940 2518 3961-168 402-5203-5303m10036 4296l2518-335-1041 2618-1477-2283m-4196 5170l5472-2753-303 940-5169 1812v1" fill="#6c98b1"/><path d="m376435 57208l705-1780 1174 2350-1879-570m-4565-5740l4229 6579-5673 2887-637-4163 2081-5303m-6412-2249l6412 2249-1914 4901-4498-7150" fill="#eb7e6d"/><path d="m396373 84397l-2752-7183-772 5202 3524 1981m2451-12487l-2854 940-2517 3961 168 403 5203-5304m-10037 4297l-2517-336 1040 2618 1477-2282m4196 5169l-5471-2753 302 940 5169 1813" fill="#6c98b1"/><path d="m386975 77650l-705-1779-1175 2350 1880-571m4565-5740l-4230 6579 5673 2887 638-4162-2081-5304m6411-2249l-6411 2249 1913 4901 4498-7150" fill="#eb7e6d"/><path d="m5843 17589l2753-7183 772 5203-3525 1980m-2450-12487l2853 940 2518 3961-168 403-5203-5304m10036 4297l2518-336-1041 2618-1477-2282m-4196 5169l5472-2753-302 940-5170 1813" fill="#6c98b1"/><path d="m15242 10842l705-1779 1175 2350-1880-571m-4565-5740l4229 6579-5672 2887-638-4162 2081-5304m-6411-2249l6411 2249-1914 4901-4498-7150h1" fill="#eb7e6d"/><path d="m35180 38031l-2752-7183-772 5203 3524 1980m2451-12486l-2853 939-2518 3961 168 403 5203-5303m-10037 4296l-2517-336 1040 2619 1477-2283m4196 5169l-5471-2752 302 939 5169 1813" fill="#6c98b1"/><path d="m25782 31284l-705-1779-1175 2350 1880-571m4565-5739l-4230 6579 5673 2886 638-4162-2081-5303m6411-2249l-6411 2249 1913 4900 4498-7149" fill="#eb7e6d"/><path d="m46862 17589l2752-7183 772 5203-3524 1980m-2451-12487l2853 940 2518 3961-168 403-5203-5304m10037 4297l2517-336-1040 2618-1477-2282m-4196 5169l5471-2753-302 940-5169 1813" fill="#6c98b1"/><path d="m56260 10842l705-1779 1175 2350-1880-571m-4565-5740l4230 6579-5673 2887-638-4162 2081-5304m-6411-2249l6411 2249-1913 4901-4498-7150" fill="#eb7e6d"/><path d="m76199 38031l-2753-7183-772 5203 3525 1980m2450-12486l-2853 939-2518 3961 168 403 5203-5303m-10036 4296l-2518-336 1041 2619 1477-2283m4196 5169l-5472-2752 302 939 5170 1813" fill="#6c98b1"/><path d="m66800 31284l-705-1779-1175 2350 1880-571m4565-5739l-4229 6579 5672 2886 638-4162-2081-5303m6412-2249l-6412 2249 1914 4900 4498-7149" fill="#eb7e6d"/><path d="m87880 17589l2752-7183 773 5203-3525 1980m-2450-12487l2853 940 2517 3961-168 403-5202-5304m10036 4297l2518-336-1041 2618-1477-2282m-4196 5169l5471-2753-302 940-5169 1813" fill="#6c98b1"/><path d="m97278 10842l705-1779 1175 2350-1880-571m-4564-5740l4229 6579-5673 2887-638-4162 2082-5304m-6412-2249l6411 2249-1913 4901-4498-7150" fill="#eb7e6d"/><path d="m117217 38031l-2752-7183-773 5203 3525 1980m2450-12486l-2853 939-2517 3961 168 403 5202-5303m-10036 4296l-2518-336 1041 2619 1477-2283m4196 5169l-5471-2752 302 939 5169 1813" fill="#6c98b1"/><path d="m107818 31284l-704-1779-1175 2350 1879-571m4565-5739l-4229 6579 5673 2886 638-4162-2082-5303m6412-2249l-6411 2249 1913 4900 4498-7149" fill="#eb7e6d"/><path d="m128898 17589l2753-7183 772 5203-3525 1980m-2450-12487l2853 940 2518 3961-168 403-5203-5304m10036 4297l2518-336-1041 2618-1477-2282m-4196 5169l5472-2753-302 940-5170 1813" fill="#6c98b1"/><path d="m138297 10842l705-1779 1175 2350-1880-571m-4565-5740l4229 6579-5672 2887-638-4162 2081-5304m-6412-2249l6412 2249-1914 4901-4498-7150" fill="#eb7e6d"/><path d="m158235 38031l-2752-7183-772 5203 3524 1980m2451-12486l-2853 939-2518 3961 168 403 5203-5303m-10037 4296l-2517-336 1040 2619 1477-2283m4196 5169l-5471-2752 302 939 5169 1813" fill="#6c98b1"/><path d="m148837 31284l-705-1779-1175 2350 1880-571m4565-5739l-4230 6579 5673 2886 638-4162-2081-5303m6411-2249l-6411 2249 1913 4900 4498-7149" fill="#eb7e6d"/><path d="m5843 58473l2753-7183 772 5203-3525 1980m-2450-12486l2853 940 2517 3960-167 403-5203-5303m10036 4296l2518-335-1041 2618-1477-2283m-4196 5169l5472-2752-303 940-5169 1812" fill="#6c98b1"/><path d="m15242 51727l705-1780 1174 2350-1879-570m-4565-5740l4229 6579-5673 2887-637-4163 2081-5303m-6412-2249l6412 2249-1914 4901-4498-7150" fill="#eb7e6d"/><path d="m35180 78916l-2752-7183-772 5202 3524 1981m2451-12487l-2854 940-2517 3961 168 403 5203-5304m-10037 4296l-2517-335 1040 2618 1477-2283m4196 5170l-5471-2753 302 940 5169 1813" fill="#6c98b1"/><path d="m25781 72169l-704-1779-1175 2349 1879-570m4566-5740l-4230 6579 5673 2887 638-4162-2081-5304m6411-2249l-6411 2249 1913 4901 4498-7150" fill="#eb7e6d"/><path d="m46861 58473l2753-7183 772 5203-3525 1980m-2450-12486l2853 940 2518 3960-168 403-5203-5303m10036 4296l2518-335-1041 2618-1477-2283m-4195 5169l5471-2752-302 940-5169 1812" fill="#6c98b1"/><path d="m56260 51727l705-1780 1175 2350-1880-570m-4565-5740l4229 6579-5672 2887-638-4163 2081-5303m-6411-2249l6411 2249-1914 4901-4498-7150h1" fill="#eb7e6d"/><path d="m76198 78916l-2752-7183-772 5202 3524 1981m2451-12487l-2853 940-2518 3961 168 403 5203-5304m-10037 4296l-2517-335 1040 2618 1477-2283m4196 5170l-5471-2753 302 940 5169 1813" fill="#6c98b1"/><path d="m66800 72169l-705-1779-1175 2349 1880-570m4565-5740l-4230 6579 5673 2887 638-4162-2081-5304m6411-2249l-6411 2249 1913 4901 4498-7150" fill="#eb7e6d"/><path d="m87880 58473l2752-7183 772 5203-3524 1980m-2451-12486l2854 940 2517 3960-168 403-5203-5303m10037 4296l2517-335-1040 2618-1477-2283m-4196 5169l5471-2752-302 940-5169 1812" fill="#6c98b1"/><path d="m97278 51727l705-1780 1175 2350-1880-570m-4565-5740l4230 6579-5673 2887-638-4163 2081-5303m-6411-2249l6411 2249-1913 4901-4498-7150" fill="#eb7e6d"/><path d="m117217 78916l-2753-7183-772 5202 3525 1981m2450-12487l-2853 940-2518 3961 168 403 5203-5304m-10036 4296l-2518-335 1041 2618 1477-2283m4196 5170l-5472-2753 302 940 5170 1813" fill="#6c98b1"/><path d="m107818 72169l-705-1779-1175 2349 1880-570m4565-5740l-4229 6579 5673 2887 637-4162-2081-5304m6412-2249l-6412 2249 1914 4901 4498-7150" fill="#eb7e6d"/><path d="m128898 58473l2752-7183 773 5203-3525 1980m-2450-12486l2853 940 2517 3960-168 403-5202-5303m10036 4296l2518-335-1041 2618-1477-2283m-4196 5169l5472-2752-303 940-5169 1812" fill="#6c98b1"/><path d="m138297 51727l704-1780 1175 2350-1879-570m-4565-5740l4229 6579-5673 2887-638-4163 2082-5303m-6412-2249l6411 2249-1913 4901-4498-7150" fill="#eb7e6d"/><path d="m158235 78916l-2752-7183-773 5202 3525 1981m2450-12487l-2853 940-2517 3961 168 403 5202-5304m-10036 4296l-2518-335 1041 2618 1477-2283m4196 5170l-5471-2753 302 940 5169 1813" fill="#6c98b1"/><path d="m148836 72169l-704-1779-1175 2349 1879-570m4565-5740l-4229 6579 5673 2887 638-4162-2082-5304m6412-2249l-6411 2249 1913 4901 4498-7150" fill="#eb7e6d"/></g></svg>