<?xml version="1.0" standalone="no"?>
<!DOCTYPE svg PUBLIC "-//W3C//DTD SVG 20010904//EN"
 "http://www.w3.org/TR/2001/REC-SVG-20010904/DTD/svg10.dtd">
<svg version="1.0" xmlns="http://www.w3.org/2000/svg"
 width="1000.000000pt" height="1000.000000pt" viewBox="0 0 1000.000000 1000.000000"
 preserveAspectRatio="xMidYMid meet">
<metadata>
Created by potrace 1.11, written by Peter Selinger 2001-2013
</metadata>
<g transform="translate(0.000000,1000.000000) scale(0.100000,-0.100000)"
fill="#000000" stroke="none">
<path d="M3750 9884 c-107 -63 -202 -118 -210 -122 -43 -20 -130 -74 -130 -80
0 -4 16 -33 35 -65 19 -31 49 -83 66 -115 18 -31 129 -226 247 -432 118 -206
229 -400 245 -430 17 -30 48 -83 69 -118 21 -34 38 -64 38 -66 0 -1 48 -86
106 -187 59 -101 116 -202 129 -224 12 -22 79 -140 149 -262 l127 -222 -122
-213 c-67 -117 -136 -238 -152 -268 -17 -30 -41 -72 -54 -92 -13 -21 -23 -40
-23 -43 0 -2 -17 -33 -38 -67 -21 -35 -56 -94 -77 -133 -21 -38 -74 -133 -118
-210 -68 -119 -208 -366 -267 -470 -9 -16 -66 -115 -125 -220 -59 -104 -172
-302 -250 -440 -316 -555 -359 -632 -388 -683 -16 -30 -56 -99 -88 -154 -32
-55 -59 -101 -59 -103 0 -2 -23 -42 -50 -90 -28 -48 -50 -89 -50 -91 0 -3 -8
-17 -19 -32 -10 -15 -62 -103 -114 -197 -52 -93 -103 -184 -114 -202 -46 -80
-149 -261 -166 -293 -11 -19 -56 -98 -100 -175 -44 -77 -94 -165 -110 -195
-16 -30 -33 -59 -37 -65 -4 -5 -18 -30 -32 -55 -22 -40 -186 -328 -446 -785
-47 -82 -99 -175 -115 -205 -16 -30 -33 -59 -37 -65 -4 -5 -130 -226 -280
-490 -150 -264 -282 -496 -293 -515 -11 -19 -31 -55 -45 -80 -14 -25 -135
-238 -270 -475 -134 -236 -247 -436 -249 -442 -4 -11 923 -13 4667 -13 3734 0
4671 3 4667 13 -2 6 -73 131 -157 277 -84 146 -162 283 -175 305 -24 44 -59
105 -440 770 -142 248 -272 475 -288 505 -16 30 -38 67 -48 82 -11 14 -19 29
-19 32 0 3 -22 43 -49 88 -48 82 -428 746 -471 823 -12 22 -26 45 -30 50 -4 6
-21 35 -37 65 -17 30 -109 193 -206 362 -97 168 -185 321 -195 340 -10 18 -83
146 -162 283 -79 138 -151 264 -161 281 -9 17 -69 121 -131 230 -63 109 -126
219 -140 244 -14 25 -39 69 -57 98 -17 29 -31 55 -31 57 0 2 -26 47 -58 102
-32 54 -72 123 -89 153 -17 30 -99 174 -183 320 -84 146 -161 281 -172 300
-40 70 -410 715 -419 730 -9 14 -296 518 -347 610 -14 25 -45 78 -69 118 -24
41 -43 75 -43 77 0 2 -29 53 -65 114 -36 61 -68 116 -71 124 -3 8 31 77 74
153 43 76 90 159 104 184 14 25 70 124 125 220 55 96 180 317 278 490 97 173
186 327 196 342 11 15 19 29 19 32 0 3 27 51 59 108 32 57 96 168 141 248 46
80 91 160 101 178 97 170 99 175 88 188 -6 8 -15 14 -19 14 -4 0 -68 34 -141
76 -74 42 -152 86 -174 99 -22 12 -76 43 -120 68 -44 25 -80 45 -81 44 -3 -5
-124 -216 -141 -247 -39 -70 -98 -175 -108 -192 -5 -9 -30 -52 -54 -95 -120
-213 -496 -874 -522 -916 -16 -27 -29 -50 -29 -52 0 -3 -18 -34 -40 -70 -22
-36 -40 -67 -40 -69 0 -10 -82 -146 -88 -146 -4 0 -35 51 -70 113 -34 61 -74
132 -89 157 -83 145 -469 820 -485 850 -11 19 -27 49 -37 65 -31 52 -213 367
-245 425 -17 30 -47 83 -66 117 -19 35 -37 62 -40 62 -3 -1 -93 -52 -200 -115z
m1270 -3017 c0 -4 18 -37 40 -73 22 -36 40 -67 40 -69 0 -3 73 -132 100 -175
16 -27 146 -255 184 -322 12 -21 104 -182 206 -360 102 -177 197 -342 211
-367 157 -276 194 -340 209 -366 76 -133 428 -749 448 -785 14 -25 28 -49 32
-55 4 -5 19 -30 32 -55 50 -90 70 -125 78 -135 4 -5 21 -35 37 -65 17 -30 98
-174 182 -318 83 -145 151 -268 151 -273 0 -5 5 -9 10 -9 6 0 10 -4 10 -10 0
-5 50 -95 110 -200 61 -105 110 -196 110 -201 0 -5 5 -9 10 -9 6 0 10 -4 10
-10 0 -5 14 -33 31 -62 18 -29 43 -73 57 -98 14 -25 95 -166 180 -315 85 -148
163 -286 174 -305 11 -19 73 -127 138 -240 64 -113 129 -225 142 -250 14 -25
103 -180 198 -345 94 -165 217 -379 272 -475 54 -96 105 -184 111 -195 7 -10
22 -36 35 -57 l22 -38 -848 0 -848 0 -42 78 c-78 143 -129 236 -294 537 -207
378 -237 431 -264 480 -133 244 -205 376 -227 415 -11 19 -32 58 -47 86 -15
28 -94 172 -175 320 -81 148 -164 298 -183 334 -19 36 -65 119 -102 185 -37
66 -70 127 -73 135 -4 8 -15 29 -25 45 -10 17 -42 75 -72 130 -29 55 -56 105
-60 110 -9 12 -45 77 -106 192 -24 45 -60 110 -79 145 -19 35 -63 114 -97 176
-34 62 -65 109 -69 105 -6 -7 -133 -237 -216 -393 -20 -36 -43 -78 -53 -95 -9
-16 -31 -55 -47 -85 -92 -170 -228 -418 -242 -440 -8 -14 -16 -27 -16 -30 0
-3 -14 -30 -31 -60 -18 -30 -73 -131 -124 -225 -51 -93 -101 -183 -110 -200
-9 -16 -45 -82 -80 -145 -103 -188 -122 -223 -140 -255 -9 -16 -36 -66 -60
-110 -23 -44 -75 -138 -115 -210 -62 -111 -364 -662 -458 -835 -16 -30 -42
-77 -57 -105 -50 -89 -110 -199 -132 -242 l-22 -43 -833 0 -834 0 12 23 c6 12
28 51 49 87 20 36 48 85 62 110 14 25 109 194 213 375 103 182 228 402 277
490 50 88 99 172 109 187 11 15 19 29 19 32 0 2 46 85 102 183 93 163 120 210
203 358 15 28 45 79 65 115 21 36 47 82 59 103 11 20 31 54 42 75 12 20 38 66
59 102 20 36 49 85 62 110 21 37 315 554 356 625 22 39 125 221 150 265 52 93
356 628 392 690 62 108 156 272 182 320 26 46 117 207 406 715 91 160 221 389
290 510 68 121 134 236 144 255 11 19 77 134 145 255 69 121 136 240 150 264
l26 44 18 -24 c10 -13 19 -27 19 -32z m17 -4162 c27 -49 69 -126 93 -170 24
-44 62 -114 85 -155 23 -41 58 -104 77 -140 20 -36 69 -126 110 -200 41 -74
90 -162 107 -195 18 -33 42 -78 55 -100 12 -22 41 -75 64 -118 24 -43 65 -118
92 -167 27 -49 68 -124 91 -167 23 -43 47 -87 54 -98 16 -27 96 -172 170 -310
21 -38 46 -83 55 -100 36 -61 80 -144 80 -149 0 -4 -533 -6 -1185 -6 -652 0
-1185 3 -1185 6 0 6 40 82 102 194 14 25 128 232 253 460 125 228 253 462 285
520 70 127 101 184 147 270 20 36 46 83 58 105 35 61 51 91 200 363 76 139
139 251 140 250 2 -2 25 -43 52 -93z"/>
</g>
</svg>
