<?xml version="1.0" standalone="no"?>
<!DOCTYPE svg PUBLIC "-//W3C//DTD SVG 20010904//EN"
 "http://www.w3.org/TR/2001/REC-SVG-20010904/DTD/svg10.dtd">
<svg version="1.0" xmlns="http://www.w3.org/2000/svg"
 width="700.000000pt" height="700.000000pt" viewBox="0 0 700.000000 700.000000"
 preserveAspectRatio="xMidYMid meet">
<metadata>
Created by potrace 1.11, written by Peter Selinger 2001-2013
</metadata>
<g transform="translate(0.000000,700.000000) scale(0.100000,-0.100000)"
fill="#000000" stroke="none">
<path d="M2684 6764 c-159 -40 -209 -251 -87 -366 67 -64 27 -61 907 -62 543
-1 813 2 842 10 66 16 111 53 140 111 58 116 13 242 -105 300 -33 16 -95 17
-845 18 -563 0 -822 -3 -852 -11z"/>
<path d="M2795 6160 c-43 -9 -86 -34 -117 -67 -15 -16 -77 -134 -136 -263 -60
-129 -122 -264 -139 -300 -58 -125 -295 -645 -308 -675 -40 -93 -97 -303 -128
-470 -26 -135 -27 -147 -34 -235 -9 -107 -8 -3311 0 -3365 30 -194 156 -369
337 -469 67 -36 134 -63 179 -71 14 -2 46 -8 71 -13 51 -9 1914 -8 1974 1 297
47 538 282 573 562 10 84 9 3265 -1 3380 -18 198 -77 464 -144 651 -22 60
-125 305 -230 544 -104 239 -214 490 -243 557 -29 67 -66 138 -82 158 -54 66
-135 92 -219 70 -101 -25 -161 -104 -161 -210 0 -55 12 -88 157 -420 187 -428
222 -507 246 -560 46 -104 105 -246 126 -305 43 -125 92 -347 110 -501 4 -35
8 -797 8 -1694 0 -1556 -1 -1632 -18 -1664 -32 -60 -93 -108 -161 -127 -51
-13 -1852 -13 -1907 1 -65 16 -124 60 -156 114 l-27 46 1 1615 c0 888 3 1647
7 1685 14 153 80 428 134 565 15 36 48 111 75 168 26 57 48 105 48 107 0 2 25
56 56 121 147 311 353 764 362 795 41 151 -101 302 -253 269z"/>
</g>
</svg>
