<?xml version="1.0" encoding="UTF-8"?>
<!DOCTYPE svg PUBLIC "-//W3C//DTD SVG 1.1//EN" "http://www.w3.org/Graphics/SVG/1.1/DTD/svg11.dtd">
<!-- Creator: CorelDRAW X7 -->
<svg xmlns="http://www.w3.org/2000/svg" xml:space="preserve" width="125px" height="125px" version="1.1" style="shape-rendering:geometricPrecision; text-rendering:geometricPrecision; image-rendering:optimizeQuality; fill-rule:evenodd; clip-rule:evenodd"
viewBox="0 0 7049 7049"
 xmlns:xlink="http://www.w3.org/1999/xlink">
 <defs>
  <style type="text/css">
   <![CDATA[
    .fil0 {fill:none}
    .fil3 {fill:#F6F6F7}
    .fil1 {fill:#EEEEEE}
    .fil2 {fill:#FFFBE6}
   ]]>
  </style>
 </defs>
 <g id="Слой_x0020_1">
  <metadata id="CorelCorpID_0Corel-Layer"/>
  <g id="_520396312">
   <rect class="fil0" width="7049" height="7049"/>
   <rect class="fil1" transform="matrix(0.318799 0.0453138 -0.0453138 0.318799 2537.02 1772.79)" width="12250" height="12250"/>
   <rect class="fil2" transform="matrix(0.319282 0.042605 -0.042605 0.319282 2881.74 2271.73)" width="9625" height="8750"/>
   <rect class="fil3" transform="matrix(0.321878 -0.000117195 0.000117195 0.321878 1552.03 1553.46)" width="12250" height="12250"/>
   <rect class="fil2" transform="matrix(0.322161 -0.00213417 0.00213417 0.322161 1969.55 2001.51)" width="9625" height="8750"/>
   <rect class="fil1" transform="matrix(0.316686 -0.0584306 0.0584306 0.316686 553.173 1482.97)" width="12250" height="12250"/>
   <rect class="fil2" transform="matrix(0.316686 -0.0584306 0.0584306 0.316686 1045.51 1821.93)" width="9625" height="8750"/>
   <path class="fil1" d="M2695 3469c-126,-684 410,-740 333,-1155 -19,-103 -88,-305 -357,-255 -291,54 -267,296 -258,348l-393 72c-20,-103 -74,-629 589,-751 674,-125 792,400 809,493 94,508 -452,684 -362,1170l-363 67 2 11zm63 513c-6,-31 -30,-219 177,-258 207,-38 262,145 268,176 12,62 7,213 -190,249 -186,35 -244,-105 -255,-167z"/>
  </g>
 </g>
</svg>
