<?xml version="1.0" standalone="no"?>
<!DOCTYPE svg PUBLIC "-//W3C//DTD SVG 20010904//EN"
 "http://www.w3.org/TR/2001/REC-SVG-20010904/DTD/svg10.dtd">
<svg version="1.0" xmlns="http://www.w3.org/2000/svg"
 width="700.000000pt" height="700.000000pt" viewBox="0 0 700.000000 700.000000"
 preserveAspectRatio="xMidYMid meet">
<metadata>
Created by potrace 1.11, written by Peter Selinger 2001-2013
</metadata>
<g transform="translate(0.000000,700.000000) scale(0.100000,-0.100000)"
fill="#000000" stroke="none">
<path d="M3488 6935 c-2 -1 -64 -5 -138 -8 -74 -4 -144 -8 -155 -11 -11 -2
-47 -7 -80 -11 -32 -3 -62 -8 -65 -10 -3 -2 -21 -6 -40 -9 -19 -3 -91 -21
-160 -41 -69 -19 -132 -37 -140 -39 -22 -6 -169 -65 -220 -88 -92 -42 -106
-49 -170 -85 -191 -106 -378 -245 -529 -393 -384 -378 -627 -850 -711 -1382
-24 -153 -33 -434 -19 -569 11 -97 20 -167 25 -193 2 -12 7 -37 10 -56 3 -19
7 -43 10 -52 3 -9 6 -25 8 -35 55 -276 239 -681 413 -903 131 -168 267 -314
383 -411 397 -334 853 -526 1370 -576 30 -3 165 -6 300 -6 243 -2 246 -2 301
-28 93 -44 143 -111 169 -225 11 -47 15 -226 7 -269 -3 -11 -8 -47 -11 -80 -4
-33 -14 -100 -22 -150 -8 -49 -17 -101 -19 -115 -2 -14 -11 -68 -20 -120 -9
-52 -18 -108 -21 -125 -3 -16 -21 -97 -41 -180 -51 -214 -52 -220 -49 -325 4
-113 9 -138 41 -208 98 -209 353 -245 522 -74 102 104 145 210 149 364 2 98
-1 118 -37 245 -22 76 -42 145 -43 153 -2 8 -13 53 -24 100 -52 215 -67 342
-67 555 0 198 5 239 42 360 46 146 112 244 247 363 27 24 89 80 139 125 386
353 459 425 560 557 23 30 45 57 48 60 15 14 105 150 155 237 139 241 241 519
288 783 13 77 18 114 31 235 13 117 5 388 -15 530 -17 116 -20 136 -47 245
-115 478 -385 926 -753 1249 -118 103 -137 117 -270 206 -353 235 -766 377
-1165 401 -49 3 -111 6 -137 8 -26 2 -48 3 -50 1z m151 -899 c152 -15 285 -47
426 -103 501 -201 858 -638 953 -1168 58 -322 12 -648 -133 -952 -40 -81 -78
-142 -205 -328 -19 -28 -40 -60 -47 -70 -6 -11 -40 -67 -74 -125 -153 -255
-263 -404 -349 -472 -122 -95 -150 -95 -464 11 -211 71 -401 120 -569 146
-134 21 -349 109 -507 206 -120 73 -305 238 -389 344 -299 382 -408 883 -291
1345 163 641 714 1112 1365 1167 39 3 71 6 72 7 4 4 146 -2 212 -8z"/>
</g>
</svg>
