<?xml version="1.0" encoding="iso-8859-1"?>
<!-- Generator: Adobe Illustrator 19.0.0, SVG Export Plug-In . SVG Version: 6.00 Build 0)  -->
<svg version="1.1" id="Layer_1" xmlns="http://www.w3.org/2000/svg" xmlns:xlink="http://www.w3.org/1999/xlink" x="0px" y="0px"
	 viewBox="0 0 512 512" style="enable-background:new 0 0 512 512;" xml:space="preserve">
<circle style="fill:#E4E7ED;" cx="256" cy="256" r="256"/>
<path style="fill:#5FDC68;" d="M357.526,116.565c-47.5-50.791,5.278-135.009,88.246-75.648c0,0-23.041-2.894-32.461,8.569
	C400.372,65.263,418.589,109.641,357.526,116.565z"/>
<path style="fill:#56BF5D;" d="M426.818,29.453c6.129,3.008,12.485,6.753,19.011,11.464c0,0-23.041-2.894-32.461,8.569
	c-3.575,4.37-4.767,10.839-5.902,18.16l0,0c-1.305-7.037,0.17-33.993,19.352-38.136V29.453z"/>
<path style="fill:#6C7678;" d="M408.261,31.894c-46.422-4.994-56.523,58.169-57.091,153.169l5.051,1.475
	c0.568-31.78-1.646-154.701,52.04-154.701V31.894z"/>
<path style="fill:#5FDC68;" d="M338.969,133.079c15.777-43.017-37.966-80.585-73.037-23.211c0,0,13.223-7.718,21.906-3.178
	c11.918,6.243,12.258,37.909,51.132,26.332V133.079z"/>
<path style="fill:#56BF5D;" d="M274.557,98.008c-2.951,3.405-5.845,7.321-8.569,11.861c0,0,13.223-7.718,21.906-3.178
	c3.292,1.703,5.675,5.335,8.229,9.477l0,0C295.101,111.571,287.269,95.567,274.557,98.008z"/>
<path style="fill:#6C7678;" d="M286.418,94.716c28.432-16.628,57.091,35.355,66.795,55.615l-0.681,8.967
	C339.593,132.058,309.742,83.706,286.418,94.716z"/>
<polygon style="fill:#FFFFFF;" points="339.026,153.963 371.43,153.963 371.43,186.765 339.026,186.765 "/>
<path style="fill:#75BD80;" d="M57.204,310.821c127.12,0,236.194,77.01,283.24,186.878c-26.446,9.25-54.821,14.244-84.444,14.244
	c-121.105,0-222.574-84.104-249.19-197.037c16.401-2.667,33.199-4.143,50.337-4.143L57.204,310.821z"/>
<path style="fill:#83CF8F;" d="M287.099,313.658c74.91,0,145.564,12.655,207.649,34.958C457.633,444.24,364.733,512,256,512
	c-100.164,0-186.878-57.545-228.93-141.308c73.321-35.923,163.1-57.091,260.029-57.091V313.658z"/>
<ellipse style="fill:#75BD80;" cx="256" cy="399.578" rx="167.129" ry="14.812"/>
<polygon style="fill:#FFFFFF;" points="124.907,210.43 258.951,127.631 387.15,206.911 387.15,404.118 124.907,404.118 "/>
<polygon style="fill:#DCE3DB;" points="368.536,153.963 371.43,153.963 371.43,186.765 368.536,186.765 "/>
<g>
	<circle style="fill:#EEF3F7;" cx="256" cy="217.41" r="32.688"/>
	<polygon style="fill:#EEF3F7;" points="387.15,208.557 387.15,229.271 258.951,150.104 124.907,232.903 124.907,212.189 
		254.298,132.228 258.951,129.39 263.548,132.228 	"/>
</g>
<polygon style="fill:#FF7069;" points="88.53,222.517 254.298,120.14 258.951,117.303 263.548,120.14 429.315,222.517 
	420.065,237.556 258.951,138.016 97.837,237.556 "/>
<polygon style="fill:#E4E7ED;" points="212.529,265.591 299.471,265.591 299.471,396.797 212.529,396.797 "/>
<path style="fill:#FEFEFE;" d="M131.263,79.904c15.72,0,28.489,12.542,28.943,28.148c0.227,0,0.454,0,0.681,0
	c8.399,0,15.152,6.81,15.152,15.152c0,8.399-6.81,15.152-15.152,15.152c-5.108,0-9.591-2.497-12.315-6.356
	c-4.824,3.632-10.839,5.732-17.309,5.732c-4.086,0-7.945-0.851-11.464-2.383c-3.689,4.597-9.364,7.548-15.72,7.548
	c-11.066,0-20.033-8.967-20.033-20.033c0-10.669,8.342-19.409,18.841-20.033c2.724-13.166,14.358-23.041,28.318-23.041
	L131.263,79.904z"/>
<polygon style="fill:#EEF3F7;" points="150.047,265.591 191.986,265.591 191.986,300.435 150.047,300.435 "/>
<polygon style="fill:#83CF8F;" points="152.147,267.634 189.886,267.634 189.886,298.336 152.147,298.336 "/>
<polygon style="fill:#EEF3F7;" points="150.047,305.883 191.986,305.883 191.986,340.728 150.047,340.728 "/>
<polygon style="fill:#83CF8F;" points="152.147,307.926 189.886,307.926 189.886,338.685 152.147,338.685 "/>
<polygon style="fill:#EEF3F7;" points="320.014,265.591 362.009,265.591 362.009,300.435 320.014,300.435 "/>
<polygon style="fill:#83CF8F;" points="322.114,267.634 359.853,267.634 359.853,298.336 322.114,298.336 "/>
<polygon style="fill:#EEF3F7;" points="320.014,305.883 362.009,305.883 362.009,340.728 320.014,340.728 "/>
<polygon style="fill:#83CF8F;" points="322.114,307.926 359.853,307.926 359.853,338.685 322.114,338.685 "/>
<circle style="fill:#5DA668;" cx="256" cy="217.41" r="28.262"/>
<path style="fill:#83CF8F;" d="M276.43,236.989c-5.164,5.335-12.372,8.683-20.373,8.683c-15.606,0-28.262-12.655-28.262-28.262
	c0-6.072,1.93-11.634,5.164-16.231c5.164-5.335,12.372-8.683,20.373-8.683c15.606,0,28.262,12.655,28.262,28.262
	C281.594,226.83,279.665,232.392,276.43,236.989z"/>
<g>
	<polygon style="fill:#EEF3F7;" points="252.992,187.162 259.008,187.162 259.008,247.431 252.992,247.431 	"/>
	<polygon style="fill:#EEF3F7;" points="225.922,220.304 225.922,214.289 286.134,214.289 286.134,220.304 	"/>
</g>
<g>
</g>
<g>
</g>
<g>
</g>
<g>
</g>
<g>
</g>
<g>
</g>
<g>
</g>
<g>
</g>
<g>
</g>
<g>
</g>
<g>
</g>
<g>
</g>
<g>
</g>
<g>
</g>
<g>
</g>
</svg>
