<?xml version="1.0" encoding="iso-8859-1"?>
<!-- Generator: Adobe Illustrator 18.0.0, SVG Export Plug-In . SVG Version: 6.00 Build 0)  -->
<!DOCTYPE svg PUBLIC "-//W3C//DTD SVG 1.1//EN" "http://www.w3.org/Graphics/SVG/1.1/DTD/svg11.dtd">
<svg version="1.1" id="Capa_1" xmlns="http://www.w3.org/2000/svg" xmlns:xlink="http://www.w3.org/1999/xlink" x="0px" y="0px"
	 viewBox="0 0 223.792 223.792" style="enable-background:new 0 0 223.792 223.792;" xml:space="preserve">
<g>
	<path d="M58.104,94.392v107.086c0,12.305,10.675,22.315,23.795,22.315h59.994c13.12,0,23.795-10.01,23.795-22.315V94.392
		c0-9.181-2.911-23.053-6.629-31.584L142.732,25.36c-1.655-3.797-6.072-5.532-9.872-3.88c-3.797,1.655-5.534,6.075-3.88,9.872
		l16.328,37.449c2.866,6.576,5.38,18.534,5.38,25.59v107.086c0,3.965-4.027,7.315-8.795,7.315H81.899
		c-4.768,0-8.795-3.35-8.795-7.315V94.392c0-7.012,2.624-18.85,5.616-25.331L96.061,31.5c1.736-3.761,0.095-8.217-3.666-9.953
		c-3.76-1.737-8.216-0.095-9.953,3.666L65.101,62.774C61.178,71.275,58.104,85.163,58.104,94.392z"/>
	<path d="M139.037,15c4.143,0,7.5-3.357,7.5-7.5s-3.357-7.5-7.5-7.5H86.121c-4.143,0-7.5,3.357-7.5,7.5s3.357,7.5,7.5,7.5H139.037z"
		/>
</g>
<g>
</g>
<g>
</g>
<g>
</g>
<g>
</g>
<g>
</g>
<g>
</g>
<g>
</g>
<g>
</g>
<g>
</g>
<g>
</g>
<g>
</g>
<g>
</g>
<g>
</g>
<g>
</g>
<g>
</g>
</svg>
