<?xml version="1.0" encoding="iso-8859-1"?>
<!-- Generator: Adobe Illustrator 19.0.0, SVG Export Plug-In . SVG Version: 6.00 Build 0)  -->
<svg version="1.1" id="Layer_1" xmlns="http://www.w3.org/2000/svg" xmlns:xlink="http://www.w3.org/1999/xlink" x="0px" y="0px"
	 viewBox="0 0 512.001 512.001" style="enable-background:new 0 0 512.001 512.001;" xml:space="preserve">
<path style="fill:#AEADB3;" d="M151.328,135.699c-43.214,0-63.728,15.521-83.568,30.53c-12.013,9.089-23.361,17.674-40.941,24.068
	l-19.489,7.089L19.468,214.2c1.041,1.441,10.651,14.396,27.507,25.287c15.306,9.889,31.65,14.888,48.265,14.887
	c8.943,0,17.966-1.448,26.945-4.362L151.328,135.699z"/>
<path style="fill:#727176;" d="M130.924,168.739c-19.182,3.523-30.624,12.179-44.25,22.488c-8.003,6.054-16.679,12.619-27.5,18.648
	c11.878,9.007,30.487,17.731,53.335,10.318L130.924,168.739z"/>
<path style="fill:#A0A1A5;" d="M360.674,135.699c43.214,0,63.728,15.521,83.568,30.53c12.013,9.089,23.361,17.674,40.941,24.068
	l19.489,7.089L492.534,214.2c-1.041,1.441-10.651,14.396-27.507,25.287c-15.306,9.889-31.65,14.888-48.265,14.887
	c-8.943,0-17.966-1.448-26.945-4.362L360.674,135.699z"/>
<path style="fill:#434347;" d="M381.078,168.739c19.182,3.523,30.624,12.179,44.25,22.488c8.003,6.054,16.679,12.619,27.5,18.648
	c-11.878,9.007-30.487,17.731-53.335,10.318L381.078,168.739z"/>
<path style="fill:#464548;" d="M124.721,124.379c-29.972,0.001-55.096-23.569-56.665-53.839
	c-1.913-36.923,26.57-68.517,63.492-70.43c43.985-2.287,81.642,31.659,83.922,75.656l0.021,0.811v43.375h-31.347V77.009
	c-1.579-26.552-24.35-46.989-50.974-45.595c-9.524,0.493-18.286,4.665-24.672,11.75s-9.631,16.229-9.138,25.754
	c0.725,14.003,12.708,24.81,26.711,24.079c9.476-0.491,16.785-8.6,16.295-18.076l31.305-1.622
	c1.384,26.738-19.242,49.617-45.979,51.003C126.698,124.354,125.706,124.379,124.721,124.379z"/>
<path style="fill:#323132;" d="M387.279,124.379c-0.986,0-1.975-0.025-2.971-0.077c-26.737-1.384-47.363-24.265-45.979-51.003
	l31.305,1.622c-0.491,9.476,6.819,17.585,16.295,18.076c14.008,0.732,25.985-10.076,26.711-24.079
	c0.493-9.524-2.751-18.67-9.138-25.754s-15.148-11.256-24.672-11.75c-26.603-1.372-49.395,19.044-50.974,45.595v42.941H296.51
	l0.021-44.186c2.28-43.995,39.911-77.928,83.922-75.656c36.921,1.913,65.405,33.508,63.492,70.43
	C442.377,100.808,417.25,124.378,387.279,124.379z"/>
<path style="fill:#D8D9DD;" d="M256,512c-51.009,0-63.245-23.18-78.736-52.528c-14.92-28.267-35.354-66.98-100.728-117.463
	L59.665,328.98l17.467-12.219c11.893-8.319,16.324-34.795,21.016-62.826c5.628-33.622,12.006-71.728,33.483-102.676
	c25.6-36.888,66.282-54.82,124.37-54.82s98.769,17.931,124.37,54.82c21.477,30.947,27.855,69.054,33.483,102.676
	c4.692,28.029,9.123,54.505,21.016,62.826l17.467,12.219l-16.871,13.029c-65.373,50.483-85.808,89.197-100.728,117.463
	C319.245,488.82,307.01,512,256,512z"/>
<path style="fill:#333333;" d="M183.268,220.081c0-11.513,9.229-20.835,20.569-20.835c11.355,0,20.582,9.324,20.582,20.835
	c0,11.511-9.227,20.843-20.582,20.843C192.497,240.923,183.268,231.592,183.268,220.081z"/>
<path style="fill:#AEADB3;" d="M240.327,511.142C245.114,511.696,250.303,512,256,512s10.886-0.304,15.673-0.859V383.991h-31.347
	V511.142z"/>
<path style="fill:#D37B93;" d="M256,401.578c-22.841,0-52.001-29.295-52.001-52.243c0-12.902,6.165-22.316,17.828-27.223
	c7.759-3.264,17.66-4.596,34.173-4.596s26.413,1.331,34.173,4.596c11.663,4.907,17.828,14.32,17.828,27.223
	C308.002,372.283,278.842,401.578,256,401.578z"/>
<g>
	<path style="fill:#D8D9DD;" d="M251.67,511.939c-0.971-0.027-1.912-0.072-2.853-0.118
		C249.76,511.865,250.698,511.912,251.67,511.939z"/>
	<path style="fill:#D8D9DD;" d="M247.681,511.77c-1.2-0.068-2.374-0.151-3.527-0.248
		C245.309,511.617,246.479,511.703,247.681,511.77z"/>
	<path style="fill:#D8D9DD;" d="M263.184,511.821c-0.94,0.046-1.883,0.09-2.853,0.118
		C261.303,511.912,262.241,511.865,263.184,511.821z"/>
</g>
<path style="fill:#A0A1A5;" d="M434.869,316.762c-11.893-8.319-16.324-34.795-21.016-62.826
	c-5.628-33.622-12.006-71.729-33.483-102.676c-25.6-36.888-66.282-54.82-124.37-54.82v221.074c16.513,0,26.413,1.331,34.173,4.596
	c11.663,4.907,17.828,14.32,17.828,27.223c0,17.88-17.704,39.611-36.328,48.337v113.47c-1.18,0.137-2.385,0.257-3.615,0.363
	c41.011-3.463,52.489-25.154,66.677-52.032c14.92-28.267,35.354-66.98,100.728-117.463l16.871-13.029L434.869,316.762z"/>
<path style="fill:#D8D9DD;" d="M267.846,511.522c-1.152,0.097-2.327,0.18-3.527,0.248
	C265.522,511.703,266.692,511.617,267.846,511.522z"/>
<g>
	<path style="fill:#AEADB3;" d="M268.058,511.505c-0.07,0.006-0.142,0.01-0.212,0.017
		C267.916,511.516,267.988,511.51,268.058,511.505z"/>
	<path style="fill:#AEADB3;" d="M256,512c-1.479,0-2.916-0.024-4.33-0.063C253.082,511.978,254.523,512,256,512z"/>
	<path style="fill:#AEADB3;" d="M260.331,511.939c-1.414,0.039-2.853,0.063-4.33,0.063C257.479,512,258.92,511.978,260.331,511.939z
		"/>
	<path style="fill:#AEADB3;" d="M248.817,511.821c-0.377-0.018-0.763-0.03-1.136-0.051
		C248.053,511.79,248.44,511.802,248.817,511.821z"/>
	<path style="fill:#AEADB3;" d="M264.32,511.77c-0.373,0.021-0.759,0.033-1.136,0.051C263.56,511.802,263.948,511.79,264.32,511.77z
		"/>
	<path style="fill:#AEADB3;" d="M244.154,511.522c-0.07-0.005-0.142-0.01-0.212-0.017
		C244.012,511.51,244.084,511.516,244.154,511.522z"/>
</g>
<path style="fill:#818186;" d="M271.674,397.672c-5.278,2.473-10.63,3.906-15.673,3.906V512c1.479,0,2.916-0.024,4.33-0.063
	c0.971-0.027,1.912-0.072,2.853-0.118c0.377-0.018,0.763-0.03,1.136-0.051c1.2-0.068,2.374-0.152,3.527-0.248
	c0.07-0.005,0.142-0.01,0.212-0.017c1.23-0.106,2.436-0.226,3.615-0.363v-113.47H271.674z"/>
<path style="fill:#D37B93;" d="M240.327,383.991v13.681c5.278,2.473,10.63,3.906,15.673,3.906v-17.587H240.327z"/>
<path style="fill:#9D5B6E;" d="M290.174,322.112c-7.759-3.264-17.66-4.596-34.173-4.596v66.475v17.587
	c5.044,0,10.396-1.433,15.673-3.906c18.624-8.727,36.328-30.457,36.328-48.337C308.002,336.433,301.837,327.019,290.174,322.112z"/>
<path style="fill:#333333;" d="M328.732,220.081c0-11.597-9.288-20.998-20.724-20.998c-11.45,0-20.738,9.401-20.738,20.998
	c0,11.597,9.288,20.998,20.738,20.998C319.445,241.079,328.732,231.678,328.732,220.081z"/>
<g>
</g>
<g>
</g>
<g>
</g>
<g>
</g>
<g>
</g>
<g>
</g>
<g>
</g>
<g>
</g>
<g>
</g>
<g>
</g>
<g>
</g>
<g>
</g>
<g>
</g>
<g>
</g>
<g>
</g>
</svg>
