<?xml version="1.0" encoding="iso-8859-1"?>
<!-- Generator: Adobe Illustrator 19.0.0, SVG Export Plug-In . SVG Version: 6.00 Build 0)  -->
<svg version="1.1" id="Layer_1" xmlns="http://www.w3.org/2000/svg" xmlns:xlink="http://www.w3.org/1999/xlink" x="0px" y="0px"
	 viewBox="0 0 512 512" style="enable-background:new 0 0 512 512;" xml:space="preserve">
<path style="fill:#A3C4B2;" d="M70.609,0h83.562l32.371,156.63c4.226,20.458,24.244,37.196,44.495,37.196c25.991,0,23.93,0,49.927,0
	c20.238,0,40.265-16.741,44.492-37.196L357.823,0h83.565l14.024,473.38c0.63,21.222-17.205,38.62-38.217,38.62H94.805
	c-21.012,0-38.851-17.388-38.217-38.62L70.609,0L70.609,0z"/>
<path style="fill:#97BAA8;" d="M455.413,473.38L441.389,0h-83.565l-32.368,156.63c-4.226,20.454-24.253,37.196-44.492,37.196
	c-12.997,0-18.981,0-24.963,0c0,0,0,282.001,0,299.253C256,510.332,238.554,512,238.554,512h178.641
	C438.207,512,456.043,494.602,455.413,473.38z"/>
<path style="fill:#677C0F;" d="M362.33,426.134c-4.418,8.275-14.708,8.356-26.622,8.449l-56.741,0.001
	c-0.253,0.02-0.508,0.03-0.765,0.03c-9.102,0.013-29.374,0.027-49.726,0.027c-21.131,0-42.348-0.014-51.259-0.058
	c-12.355-0.06-23.024-0.112-27.528-8.479c-4.361-8.104,0.952-16.345,6.578-25.069l30-45.578
	c12.275-18.725,41.02-62.574,49.092-74.671c3.257-4.886,5.966-8.697,8.593-11.41c4.099-4.236,8.567-6.165,13.262-5.754
	c8.312,0.742,13.42,8.341,18.827,16.385c3.082,4.586,1.881,10.812-2.682,13.909c-4.565,3.096-10.763,1.889-13.844-2.695
	c-1.39-2.069-2.577-3.768-3.553-5.092c-1.289,1.73-2.711,3.826-4.035,5.809c-8.028,12.033-36.743,55.835-49.004,74.538l-3.055,4.661
	l-26.915,40.871c-0.564,0.876-1.083,1.691-1.555,2.445c1.69,0.053,3.663,0.086,5.915,0.096c17.219,0.085,80.57,0.059,100.079,0.031
	c0.263-0.021,0.526-0.031,0.795-0.031h57.443c1.018-0.008,2.941-0.023,4.976-0.083c-0.591-0.945-1.257-1.987-1.996-3.124
	c-3.11-4.785-20.296-30.899-37.987-57.751l-4.857,24.882c-0.932,4.778-5.103,8.092-9.774,8.092c-0.637,0-1.281-0.061-1.93-0.188
	c-5.404-1.065-8.926-6.329-7.867-11.758l9.535-48.853c0.51-2.611,2.032-4.911,4.233-6.393c2.199-1.481,4.896-2.026,7.494-1.505
	l48.346,9.64c5.402,1.076,8.912,6.349,7.839,11.776c-1.072,5.427-6.324,8.957-11.721,7.876l-24.892-4.963
	c18.118,27.501,35.103,53.31,38.279,58.195C361.173,409.411,366.71,417.931,362.33,426.134z"/>
<g>
</g>
<g>
</g>
<g>
</g>
<g>
</g>
<g>
</g>
<g>
</g>
<g>
</g>
<g>
</g>
<g>
</g>
<g>
</g>
<g>
</g>
<g>
</g>
<g>
</g>
<g>
</g>
<g>
</g>
</svg>
