<?xml version="1.0" encoding="iso-8859-1"?>
<!-- Generator: Adobe Illustrator 19.0.0, SVG Export Plug-In . SVG Version: 6.00 Build 0)  -->
<svg version="1.1" id="Layer_1" xmlns="http://www.w3.org/2000/svg" xmlns:xlink="http://www.w3.org/1999/xlink" x="0px" y="0px"
	 viewBox="0 0 512 512" style="enable-background:new 0 0 512 512;" xml:space="preserve">
<polyline style="fill:#FCD577;" points="403.41,164.301 403.41,31.468 326.996,31.468 326.996,87.887 "/>
<polygon style="fill:#CFDCE5;" points="421.384,182.245 420.356,183.272 420.356,512 91.652,512 91.652,183.272 90.637,182.245 
	256.004,16.901 "/>
<polygon style="fill:#BAC6CC;" points="420.356,184.657 420.356,218.442 256.004,54.078 91.652,218.43 91.652,184.645 
	256.004,20.305 "/>
<g>
	<polygon style="fill:#FF6F52;" points="488.44,266.218 256.001,33.778 23.561,266.218 6.67,249.329 256.001,0 505.33,249.329 	"/>
	<path style="fill:#FF6F52;" d="M207.641,422.066c-38.722-28.808-71.111-66.613-71.111-105.015
		c0-43.158,29.724-78.148,66.377-78.148c29.319,0,53.094,27.997,53.094,62.519c0-34.522,23.775-62.519,53.094-62.519
		c21.43,0,40.471,11.941,52.603,30.492c8.657,13.199,13.774,29.724,13.774,47.656c0,53.947-63.947,106.699-119.471,135.08
		C239.987,443.964,223.291,433.751,207.641,422.066z"/>
</g>
<path id="SVGCleanerId_0" style="fill:#E25749;" d="M215.935,422.07c12.97,11.68,26.799,21.891,40.067,30.059
	c-16.015-8.169-32.71-18.379-48.355-30.059c-38.729-28.817-71.117-66.615-71.117-105.022c0-43.16,29.725-78.14,66.376-78.14
	c1.588,0,3.177,0.084,4.729,0.251c-28.328,3.165-50.624,36.831-50.624,77.889C157.011,355.456,183.857,393.254,215.935,422.07z"/>
<g>
	<path id="SVGCleanerId_0_1_" style="fill:#E25749;" d="M215.935,422.07c12.97,11.68,26.799,21.891,40.067,30.059
		c-16.015-8.169-32.71-18.379-48.355-30.059c-38.729-28.817-71.117-66.615-71.117-105.022c0-43.16,29.725-78.14,66.376-78.14
		c1.588,0,3.177,0.084,4.729,0.251c-28.328,3.165-50.624,36.831-50.624,77.889C157.011,355.456,183.857,393.254,215.935,422.07z"/>
</g>
<g>
</g>
<g>
</g>
<g>
</g>
<g>
</g>
<g>
</g>
<g>
</g>
<g>
</g>
<g>
</g>
<g>
</g>
<g>
</g>
<g>
</g>
<g>
</g>
<g>
</g>
<g>
</g>
<g>
</g>
</svg>
