<?xml version="1.0" encoding="utf-8"?>
<!-- Generator: Adobe Illustrator 16.0.0, SVG Export Plug-In . SVG Version: 6.00 Build 0)  -->
<!DOCTYPE svg PUBLIC "-//W3C//DTD SVG 1.1//EN" "http://www.w3.org/Graphics/SVG/1.1/DTD/svg11.dtd">
<svg xmlns="http://www.w3.org/2000/svg" xmlns:xlink="http://www.w3.org/1999/xlink" version="1.1" id="Layer_1" x="0px" y="0px" width="512px" height="512px" viewBox="0 0 512 512" enable-background="new 0 0 512 512" xml:space="preserve">
<g>
	<path d="M264.586,277.159c-10.843,0-21.689-1.245-32.232-3.702l-126.431-29.424v221.811c0,21.63,56.542,39.156,126.288,39.156   c69.778,0,126.32-17.526,126.32-39.156V253.235l-48.169,16.357C295.59,274.613,280.189,277.159,264.586,277.159z" fill="#b4d8f1"/>
	<path d="M411.084,193.229c-0.195-4.128-3.115-7.615-7.137-8.548l-78.77-18.339l11.91-31.333l36.852-96.947   c4.592-12.06-1.477-25.547-13.527-30.129c-5.79-2.206-12.213-2.02-17.873,0.52c-5.646,2.538-10.057,7.217-12.263,13.008   l-39.099,102.858l-11.912,31.335l-54.646-12.723c-8.142-1.894-16.435-2.838-24.715-2.838c-11.886,0-23.75,1.942-35.104,5.798   L59.648,181.608c-3.909,1.33-6.473,5.085-6.262,9.205c0.211,4.128,3.115,7.607,7.138,8.548l179.358,41.742   c8.135,1.894,16.423,2.838,24.703,2.838c11.881,0,23.737-1.942,35.084-5.799l105.152-35.708   C408.732,201.104,411.295,197.349,411.084,193.229z M232.227,212.734c-51.141,0-92.615-9.278-92.615-20.705   c0-11.444,41.475-20.722,92.615-20.722c14.448,0,28.121,0.74,40.307,2.06l-14.658,38.561   C249.73,212.453,241.127,212.734,232.227,212.734z M311.316,202.804l7.005-18.426c4.206,2.367,6.521,4.949,6.521,7.651   C324.842,195.975,319.896,199.664,311.316,202.804z" fill="#b4d8f1"/>
</g>
</svg>
