<svg xmlns="http://www.w3.org/2000/svg" xmlns:xlink="http://www.w3.org/1999/xlink">
	
	<symbol id="close" viewBox="0 0 24 24">
		<style>.ast0{fill:#fff}</style>
		<path class="ast0" d="M24 21l-9.2-9.1 9.1-9.2L21 0l-9.1 9.2L2.8 0 0 2.9 9.1 12 0 21.1 2.9 24l9.1-9.2 9.2 9.1L24 21z"/>
	</symbol>
	<symbol viewBox="0 0 935 195" id="logo">
		<path d="M25.2,114.2l6.5-32.7H0.4V46h38.5l9.2-46h36.6l-9.3,46h28.2l9.2-46h36.5l-9.2,46h17.8v35.5H133l-6.5,32.7h31.4v35.5h-38.5
			l-9.1,45.3H73.7l9.1-45.3H54.5L45.3,195H9l9.1-45.3H0.4v-35.5H25.2z M61.6,114.2h28.3l6.6-32.7H68.2L61.6,114.2z"/>
		<path d="M180.9,31.6h41.5v47h45.4v-47h41.7v134.3h-41.7v-54.3h-45.4v54.3h-41.5V31.6z"/>
		<path d="M419.6,143.7h-47.1l-6.5,22.2h-42.4L374,31.6h45.3l50.5,134.3h-43.5L419.6,143.7z M411,114.7l-14.8-48.3l-14.7,48.3H411z"/>
		<path d="M633.9,195.1h-33.4v-29.2h-85.8v29.2h-33.4v-60.2h13.8c7.8-21.7,11.6-46.1,11.6-73.4v-30h112.6v103.4h14.5V195.1z
			 M577.9,134.9V64.6h-33.4v1.7c0,18.6-3.1,41.4-9.4,68.6H577.9z"/>
		<path d="M645,98.8c0-21.9,6.1-39,18.3-51.2c12.2-12.2,29.2-18.3,51-18.3c22.4,0,39.6,6,51.7,18c12.1,12,18.1,28.8,18.1,50.4
			c0,15.7-2.6,28.6-7.9,38.6c-5.3,10-12.9,17.9-22.9,23.5s-22.4,8.4-37.3,8.4c-15.2,0-27.7-2.4-37.6-7.2c-9.9-4.8-18-12.5-24.1-22.9
			C648.1,127.6,645,114.5,645,98.8z M686.5,99c0,13.6,2.5,23.3,7.6,29.2c5,5.9,11.9,8.9,20.6,8.9c8.9,0,15.8-2.9,20.7-8.7
			c4.9-5.8,7.3-16.2,7.3-31.2c0-12.6-2.6-21.9-7.7-27.7c-5.1-5.8-12-8.8-20.8-8.8c-8.4,0-15.1,3-20.2,8.9
			C689,75.5,686.5,85.3,686.5,99z"/>
		<path d="M935.1,31.6v134.3h-39V92.1l-50.3,73.8h-39.2V31.6h39.1v74.3l50.5-74.3H935.1z"/>
</symbol>

<symbol viewBox="0 0 233.7 51" id="logo2">
	<path d="M30.7,27.9h5.5v9.6h-6.8L27.4,51H17l1.9-13.5H16L14,51H3.6l1.9-13.5H0v-9.6h6.8l0.7-4.8H2v-9.6h6.8L10.7,0h10.5l-1.9,13.5
		h3L24.2,0h10.4l-1.9,13.5h5.5v9.6h-6.8L30.7,27.9z M17.3,27.9h3l0.7-4.8h-3L17.3,27.9z"/>
	<path d="M87.9,48.5l0.3-32.6h-0.2L76,48.5h-7.8L56.5,15.9h-0.2l0.3,32.6H46.1v-46H62L72.4,32h0.3l10-29.5h16.1v46H87.9z"/>
	<path d="M104.2,19.9V2.5h11.2v17.4H104.2z"/>
	<path d="M120.9,48.5v-46h11.2v36.3h17.8v9.7H120.9z"/>
	<path d="M167.2,48.5l-17.1-21.2h-0.1v3.8h-10.9V2.5h10.9v18.7h0.2l16.4-18.7h13.9l-19.8,21.2l21,24.8H167.2z"/>
	<path d="M222.8,48.5l0.3-32.6h-0.2l-12,32.6h-7.8l-11.6-32.6h-0.2l0,0l-6.5,0l3.7-13.4h8.4L207.4,32h0.3l10-29.5h16.1v46H222.8z"/>
	<path d="M104.2,48.5V31.1h11.2v17.4H104.2z"/>
	<path d="M158.7,15.9 M186.1,2.5h7l7.3,9.7l-8.1,3.8h-0.8h-0.2l-8,21.8l-6.9-7.5 M174.8,32"/>
</symbol>

<symbol viewBox="0 0 307 51" id="logo3">
		<path d="M30.7,27.9h5.5v9.6h-6.8L27.4,51H17l1.9-13.5H16L14,51H3.6l1.9-13.5H0v-9.6h6.8l0.7-4.8H2v-9.6h6.8L10.7,0h10.5l-1.9,13.5
			h3L24.2,0h10.4l-1.9,13.5h5.5v9.6h-6.8L30.7,27.9z M17.3,27.9h3l0.7-4.8h-3L17.3,27.9z"/>
		<path d="M87.9,48.5l0.3-32.6h-0.2L76,48.5h-7.8L56.5,15.9h-0.2l0.3,32.6H46.1v-46H62L72.4,32h0.3l10-29.5h16.1v46H87.9z"/>
		<path d="M104.2,19.9V2.5h11.2v17.4H104.2z"/>
		<path d="M120.9,48.5v-46h11.2v36.3h17.8v9.7H120.9z"/>
		<path d="M183.2,48.5l-17.1-21.2h-0.1v21.2h-10.9v-46h10.9v18.7h0.2l16.4-18.7h13.9l-19.8,21.2l21,24.8H183.2z"/>
		<path d="M238.2,48.5l-3.6-9h-17.8l-3.4,9h-12.1l19.3-46h10.8l19.1,46H238.2z M225.9,14.8L220,30.6h11.6L225.9,14.8z"/>
		<path d="M296.1,48.5l0.3-32.6h-0.2l-12,32.6h-7.8l-11.6-32.6h-0.2l0.3,32.6h-10.5v-46h15.8L280.7,32h0.3l10-29.5H307v46H296.1z"/>
		<path d="M104.2,48.5V31.1h11.2v17.4H104.2z"/>
</symbol>

<symbol viewBox="0 0 297.5 297.5" id="right-arrow">
		<polygon points="297.5,148.25 148,33.25 148,100.25 0,100.25 0,199.25 148,199.25 148,264.25 " fill=""/>
</symbol>

<symbol viewBox="0 0 90 90" id="whatsapp-logo">
		<path id="WhatsApp" d="M90,43.841c0,24.213-19.779,43.841-44.182,43.841c-7.747,0-15.025-1.98-21.357-5.455L0,90l7.975-23.522
		c-4.023-6.606-6.34-14.354-6.34-22.637C1.635,19.628,21.416,0,45.818,0C70.223,0,90,19.628,90,43.841z M45.818,6.982
		c-20.484,0-37.146,16.535-37.146,36.859c0,8.065,2.629,15.534,7.076,21.61L11.107,79.14l14.275-4.537
		c5.865,3.851,12.891,6.097,20.437,6.097c20.481,0,37.146-16.533,37.146-36.857S66.301,6.982,45.818,6.982z M68.129,53.938
		c-0.273-0.447-0.994-0.717-2.076-1.254c-1.084-0.537-6.41-3.138-7.4-3.495c-0.993-0.358-1.717-0.538-2.438,0.537
		c-0.721,1.076-2.797,3.495-3.43,4.212c-0.632,0.719-1.263,0.809-2.347,0.271c-1.082-0.537-4.571-1.673-8.708-5.333
		c-3.219-2.848-5.393-6.364-6.025-7.441c-0.631-1.075-0.066-1.656,0.475-2.191c0.488-0.482,1.084-1.255,1.625-1.882
		c0.543-0.628,0.723-1.075,1.082-1.793c0.363-0.717,0.182-1.344-0.09-1.883c-0.27-0.537-2.438-5.825-3.34-7.977
		c-0.902-2.15-1.803-1.792-2.436-1.792c-0.631,0-1.354-0.09-2.076-0.09c-0.722,0-1.896,0.269-2.889,1.344
		c-0.992,1.076-3.789,3.676-3.789,8.963c0,5.288,3.879,10.397,4.422,11.113c0.541,0.716,7.49,11.92,18.5,16.223
		C58.2,65.771,58.2,64.336,60.186,64.156c1.984-0.179,6.406-2.599,7.312-5.107C68.398,56.537,68.398,54.386,68.129,53.938z"/>
</symbol>

<symbol viewBox="0 0 24 24" id="mail">
	<title>mail</title>
	<path d="M21.6 2.4H2.4A2.4 2.4 0 0 0 0 4.8v14.4a2.41 2.41 0 0 0 2.4 2.4h19.2a2.41 2.41 0 0 0 2.4-2.4V4.8a2.41 2.41 0 0 0-2.4-2.4zm0 4.8l-9.6 6-9.6-6V4.8l9.6 6 9.6-6z"/>
</symbol>
	<symbol id="next" viewBox="0 0 12 12">
		<style>.dst0{fill:#fff}</style>
		<title>Artboard 6</title>
		<path class="dst0" d="M9.7 6l-6 6-1.4-1.4L6.9 6 2.3 1.4 3.7 0z"/>
	</symbol>
	<symbol id="prev" viewBox="0 0 12 12">
		<style>.est0{fill:#fff}</style>
	<title>Artboard 6</title>
	<path class="est0" d="M2.3 6l6 6 1.4-1.4L5.1 6l4.6-4.6L8.3 0z"/>
</symbol>
<symbol viewBox="0 0 24 24" id="share">
	<path d="M6 2.4c1.3 0 2.4 1.1 2.4 2.4 0 1.3-1.1 2.4-2.4 2.4-1.3 0-2.4-1.1-2.4-2.4 0-1.3 1.1-2.4 2.4-2.4M6 0C3.3 0 1.2 2.1 1.2 4.8c0 2.7 2.1 4.8 4.8 4.8s4.8-2.1 4.8-4.8C10.8 2.1 8.7 0 6 0zm0 16.8c1.3 0 2.4 1.1 2.4 2.4S7.3 21.6 6 21.6c-1.3 0-2.4-1.1-2.4-2.4s1.1-2.4 2.4-2.4m0-2.4c-2.7 0-4.8 2.1-4.8 4.8C1.2 21.9 3.3 24 6 24s4.8-2.1 4.8-4.8c0-2.7-2.1-4.8-4.8-4.8zm12-4.8c1.3 0 2.4 1.1 2.4 2.4s-1.1 2.4-2.4 2.4c-1.3 0-2.4-1.1-2.4-2.4s1.1-2.4 2.4-2.4m0-2.4c-2.7 0-4.8 2.1-4.8 4.8s2.1 4.8 4.8 4.8 4.8-2.1 4.8-4.8-2.1-4.8-4.8-4.8z"/>
	<path d="M15.55 14.912L9.72 18.41l-1.234-2.058 5.83-3.5zM15.365 9.065l-1.253 2.047-5.885-3.601 1.252-2.047z"/>
</symbol>
<symbol viewBox="0 0 24 24" id="social--facebook">
	<path d="M22.675 0H1.325C.593 0 0 .593 0 1.325v21.351C0 23.407.593 24 1.325 24H12.82v-9.294H9.692v-3.622h3.128V8.413c0-3.1 1.893-4.788 4.659-4.788 1.325 0 2.463.099 2.795.143v3.24l-1.918.001c-1.504 0-1.795.715-1.795 1.763v2.313h3.587l-.467 3.622h-3.12V24h6.116c.73 0 1.323-.593 1.323-1.325V1.325C24 .593 23.407 0 22.675 0z"/>
</symbol>
<symbol viewBox="0 0 24 24" id="social--instagram">
	<path d="M12 2.163c3.204 0 3.584.012 4.85.07 3.252.148 4.771 1.691 4.919 4.919.058 1.265.069 1.645.069 4.849 0 3.205-.012 3.584-.069 4.849-.149 3.225-1.664 4.771-4.919 4.919-1.266.058-1.644.07-4.85.07-3.204 0-3.584-.012-4.849-.07-3.26-.149-4.771-1.699-4.919-4.92-.058-1.265-.07-1.644-.07-4.849 0-3.204.013-3.583.07-4.849.149-3.227 1.664-4.771 4.919-4.919 1.266-.057 1.645-.069 4.849-.069zM12 0C8.741 0 8.333.014 7.053.072 2.695.272.273 2.69.073 7.052.014 8.333 0 8.741 0 12c0 3.259.014 3.668.072 4.948.2 4.358 2.618 6.78 6.98 6.98C8.333 23.986 8.741 24 12 24c3.259 0 3.668-.014 4.948-.072 4.354-.2 6.782-2.618 6.979-6.98.059-1.28.073-1.689.073-4.948 0-3.259-.014-3.667-.072-4.947-.196-4.354-2.617-6.78-6.979-6.98C15.668.014 15.259 0 12 0zm0 5.838a6.162 6.162 0 1 0 0 12.324 6.162 6.162 0 0 0 0-12.324zM12 16a4 4 0 1 1 0-8 4 4 0 0 1 0 8zm6.406-11.845a1.44 1.44 0 1 0 0 2.881 1.44 1.44 0 0 0 0-2.881z"/>
</symbol>
<symbol viewBox="0 0 533.8 533.8" id="social--telegram">
		<path fill="#FFFFFF" d="M492.1,77l-77.8,392.4c0,0-10.9,27.2-40.8,14.1L193.8,345.8l-65.3-31.6l-109.9-37c0,0-16.9-6-18.5-19
			c-1.6-13.1,19-20.1,19-20.1l437-171.4C456.2,66.6,492.1,50.9,492.1,77z"/>
		<path fill="#D3E6F2" d="M180,465c0,0-5.2-0.5-11.8-21.2c-6.5-20.7-39.7-129.5-39.7-129.5l264-167.6c0,0,15.2-9.3,14.7,0
			c0,0,2.7,1.6-5.4,9.3c-8.2,7.6-207.4,186.7-207.4,186.7"/>
		<path fill="#B6D0E5" d="M262.7,398.6l-71,64.8c0,0-5.6,4.2-11.6,1.6l13.6-120.3"/>
</symbol>
<symbol viewBox="0 0 533.8 533.8" id="social--telegram-bg">
<g>
	<circle fill="#23A8DD" cx="266.9" cy="266.9" r="266.9"/>
	<g>
		<path fill="#FFFFFF" d="M396.7,153.5l-47.7,240.3c0,0-6.7,16.7-25,8.7l-110-84.3l-40-19.3l-67.3-22.7c0,0-10.3-3.7-11.3-11.7
			c-1-8,11.7-12.3,11.7-12.3l267.7-105C374.7,147.2,396.7,137.5,396.7,153.5z"/>
		<path fill="#D3E6F2" d="M205.6,391.2c0,0-3.2-0.3-7.2-13c-4-12.7-24.3-79.3-24.3-79.3l161.7-102.7c0,0,9.3-5.7,9,0c0,0,1.7,1-3.3,5.7
			c-5,4.7-127,114.3-127,114.3"/>
		<path fill="#B6D0E5" d="M256.3,350.5l-43.5,39.7c0,0-3.4,2.6-7.1,1l8.3-73.7"/>
	</g>
</g>
</symbol>
<symbol viewBox="0 0 578.106 578.106" id="social--phone">
		<path fill="#4bd963" d="M577.83,456.128c1.225,9.385-1.635,17.545-8.568,24.48l-81.396,80.781
			c-3.672,4.08-8.465,7.551-14.381,10.404c-5.916,2.857-11.729,4.693-17.439,5.508c-0.408,0-1.635,0.105-3.676,0.309
			c-2.037,0.203-4.689,0.307-7.953,0.307c-7.754,0-20.301-1.326-37.641-3.979s-38.555-9.182-63.645-19.584
			c-25.096-10.404-53.553-26.012-85.376-46.818c-31.823-20.805-65.688-49.367-101.592-85.68
			c-28.56-28.152-52.224-55.08-70.992-80.783c-18.768-25.705-33.864-49.471-45.288-71.299
			c-11.425-21.828-19.993-41.616-25.705-59.364S4.59,177.362,2.55,164.51s-2.856-22.95-2.448-30.294
			c0.408-7.344,0.612-11.424,0.612-12.24c0.816-5.712,2.652-11.526,5.508-17.442s6.324-10.71,10.404-14.382L98.022,8.756
			c5.712-5.712,12.24-8.568,19.584-8.568c5.304,0,9.996,1.53,14.076,4.59s7.548,6.834,10.404,11.322l65.484,124.236
			c3.672,6.528,4.692,13.668,3.06,21.42c-1.632,7.752-5.1,14.28-10.404,19.584l-29.988,29.988c-0.816,0.816-1.53,2.142-2.142,3.978
			s-0.918,3.366-0.918,4.59c1.632,8.568,5.304,18.36,11.016,29.376c4.896,9.792,12.444,21.726,22.644,35.802
			s24.684,30.293,43.452,48.653c18.36,18.77,34.68,33.354,48.96,43.76c14.277,10.4,26.215,18.053,35.803,22.949
			c9.588,4.896,16.932,7.854,22.031,8.871l7.648,1.531c0.816,0,2.145-0.307,3.979-0.918c1.836-0.613,3.162-1.326,3.979-2.143
			l34.883-35.496c7.348-6.527,15.912-9.791,25.705-9.791c6.938,0,12.443,1.223,16.523,3.672h0.611l118.115,69.768
			C571.098,441.238,576.197,447.968,577.83,456.128z"/>
</symbol>

<symbol viewBox="0 0 430.1 430.1" id="social--map">
	<path fill="#ffb347" d="M356.2,107.1c-1.5-5.7-4.6-11.9-6.9-17.2C321.7,23.7,261.6,0,213.1,0c-65,0-136.6,43.6-146.1,133.4
		v18.4c0,0.8,0.3,7.6,0.6,11.1c5.4,42.8,39.1,88.3,64.4,131.1c27.1,45.9,55.3,91,83.2,136.1c17.2-29.4,34.4-59.3,51.2-87.9
		c4.6-8.4,9.9-16.8,14.5-24.9c3.1-5.3,8.9-10.7,11.6-15.7c27.1-49.7,70.8-99.8,70.8-149.1v-20.3
		C363.2,126.9,356.6,108.2,356.2,107.1z M214.2,199.2c-19.1,0-40-9.6-50.3-35.9c-1.5-4.2-1.4-12.6-1.4-13.4V138
		c0-33.6,28.6-48.9,53.4-48.9c30.6,0,54.2,24.5,54.2,55.1C270.1,174.7,244.8,199.2,214.2,199.2z"/>
</symbol>

<symbol viewBox="0 0 14 14" id="social--mail">
		<path style="fill:#3a7bd5;" d="M7,9L5.268,7.484l-4.952,4.245C0.496,11.896,0.739,12,1.007,12h11.986
			c0.267,0,0.509-0.104,0.688-0.271L8.732,7.484L7,9z"/>
		<path style="fill:#3a7bd5;" d="M13.684,2.271C13.504,2.103,13.262,2,12.993,2H1.007C0.74,2,0.498,2.104,0.318,2.273L7,8
			L13.684,2.271z"/>
		<polygon style="fill:#3a7bd5;" points="0,2.878 0,11.186 4.833,7.079 		"/>
		<polygon style="fill:#3a7bd5;" points="9.167,7.079 14,11.186 14,2.875 		"/>
</symbol>

<symbol viewBox="0 0 24 24" id="social--pinterest-letter">
	<path d="M6.5 23.6c-.2-1.4-.2-2.9.1-4.3.3-1.2 1.8-7.5 1.8-7.5-.3-.7-.5-1.5-.5-2.2 0-2.1 1.2-3.7 2.7-3.7 1.1 0 1.9.8 1.9 1.9V8c0 1.3-.8 3.2-1.3 5-.3 1.2.4 2.4 1.6 2.7.2.1.4.1.6.1 2.7 0 4.8-2.8 4.8-6.9 0-3.6-2.6-6.2-6.3-6.2-3.6-.2-6.6 2.6-6.8 6.2v.4c0 1.2.4 2.5 1.1 3.5.1.1.1.3.1.4-.1.5-.4 1.5-.4 1.7-.1.2-.2.3-.5.2-1.9-.9-3.1-3.6-3.1-5.9 0-4.8 3.5-9.2 10-9.2 5.3 0 9.3 3.7 9.3 8.7 0 5.2-3.3 9.4-7.9 9.4-1.4 0-2.7-.6-3.5-1.7L9.4 20c-.4 1.4-1.1 2.8-1.9 4l-.5-.1c-.2-.1-.4-.2-.5-.3z"/>
</symbol>
<symbol viewBox="0 0 24 24" id="social--twitter">
	<path d="M24 4.557a9.83 9.83 0 0 1-2.828.775 4.932 4.932 0 0 0 2.165-2.724 9.864 9.864 0 0 1-3.127 1.195 4.916 4.916 0 0 0-3.594-1.555c-3.179 0-5.515 2.966-4.797 6.045A13.978 13.978 0 0 1 1.671 3.149a4.93 4.93 0 0 0 1.523 6.574 4.903 4.903 0 0 1-2.229-.616c-.054 2.281 1.581 4.415 3.949 4.89a4.935 4.935 0 0 1-2.224.084 4.928 4.928 0 0 0 4.6 3.419A9.9 9.9 0 0 1 0 19.54a13.94 13.94 0 0 0 7.548 2.212c9.142 0 14.307-7.721 13.995-14.646A10.025 10.025 0 0 0 24 4.557z"/>
</symbol>
<symbol viewBox="0 0 24 24" id="social--youtube">
	<path d="M19.615 3.184c-3.604-.246-11.631-.245-15.23 0C.488 3.45.029 5.804 0 12c.029 6.185.484 8.549 4.385 8.816 3.6.245 11.626.246 15.23 0C23.512 20.55 23.971 18.196 24 12c-.029-6.185-.484-8.549-4.385-8.816zM9 16V8l8 3.993L9 16z"/>
</symbol>
	<symbol viewBox="0 0 20 20" id="zoom">
		<title>zoom</title>
		<path d="M7.5 2A5.5 5.5 0 1 1 2 7.5 5.51 5.51 0 0 1 7.5 2m0-2A7.5 7.5 0 1 0 15 7.5 7.5 7.5 0 0 0 7.5 0zM13.445 14.853l1.414-1.414 5.148 5.148L18.592 20z"/>
	</symbol>
	</svg>