<?xml version="1.0" encoding="UTF-8"?>
<!DOCTYPE svg PUBLIC "-//W3C//DTD SVG 1.1//EN" "http://www.w3.org/Graphics/SVG/1.1/DTD/svg11.dtd">
<!-- Creator: CorelDRAW X7 -->
<svg xmlns="http://www.w3.org/2000/svg" xml:space="preserve" width="2832px" height="1500px" version="1.1" style="shape-rendering:geometricPrecision; text-rendering:geometricPrecision; image-rendering:optimizeQuality; fill-rule:evenodd; clip-rule:evenodd"
viewBox="0 0 28320000 15000969"
 xmlns:xlink="http://www.w3.org/1999/xlink">
 <defs>
  <style type="text/css">
   <![CDATA[
    .fil0 {fill:none}
    .fil13 {fill:#1AA19D}
    .fil2 {fill:#58585A}
    .fil1 {fill:#59595B}
    .fil5 {fill:#5A5A5C}
    .fil3 {fill:#606060}
    .fil4 {fill:#606062}
    .fil6 {fill:#616162}
    .fil9 {fill:#626264}
    .fil11 {fill:#636365}
    .fil7 {fill:#646466}
    .fil8 {fill:#6B6B6D}
    .fil10 {fill:#B7B7B9}
    .fil12 {fill:#E1E1E3}
    .fil14 {fill:#59595B;fill-rule:nonzero}
   ]]>
  </style>
 </defs>
 <g id="Слой_x0020_1">
  <metadata id="CorelCorpID_0Corel-Layer"/>
  <g id="_176097936">
   <polygon class="fil0" points="0,0 28320000,0 28320000,15000969 0,15000969 "/>
   <g>
    <path class="fil1" d="M3591517 6942464c64714,10230 33212,2115 50058,38087 -50163,12151 -47088,15016 -50058,-38087zm24392 -45108c-64490,-18812 -25052,6945 -30677,-36918 25396,16786 13546,3016 30677,36918zm38732 -116213c12931,15196 12556,-7980 29057,51769 7110,25741 5040,34352 7396,58428 -65735,-19711 -81666,-48003 -36453,-110197zm2161340 -84170l100266 -5281c30467,69965 102547,245971 102577,317826 15,51513 -1020,56524 -26672,89076 -42288,-46068 -54213,-139974 -76040,-209954 -49653,-159190 -77780,-98916 -100131,-191667l0 0zm1160250 -288859c67969,69425 -17191,83195 102156,303275 40548,74780 65735,236160 81306,329181 54453,325071 97926,268832 176381,631931 -109492,-321261 -121553,-54184 -235830,-636131 -50343,-256382 -249331,-506313 -157420,-607450 26821,-29506 -4546,-12285 33407,-20806zm-146005 20731c41748,92256 35643,160706 79280,254492 103282,221939 79056,193092 79011,477691 -75,176501 -31892,346897 -160211,400706 40203,-105712 83856,-105637 104077,-264977 35507,-279649 40248,-383065 -86661,-625646 -125168,-239235 -11025,-150160 -15496,-242266l0 0zm-2379708 82791c1035,-3255 4620,-5596 5430,-12451 825,-6945 3585,-8461 6420,-16501l114443 18856 -61219 23087c-9241,44477 -6556,35897 -26267,72814 -49563,92811 -2205,197728 -115192,151180l76385 -236985 0 0zm-776316 495587c18077,-139779 86361,-42993 161306,-246346 37982,-103087 2715,-101362 1260,-103567 -19111,61384 -39258,137004 -84471,169691 14071,-94611 23402,-75635 -4845,-109732l-28172 89271c-96816,-102892 127059,-173231 221070,-211724 144369,-59104 214453,-82685 400180,-103432l5191 24962c56178,228765 -81110,161936 -52549,230745 31622,58009 -10605,11881 60469,37367l61504 25232c42618,16381 75530,-2730 98542,-35792 61849,-88836 -14446,-202228 110092,-229470 6795,67579 -34637,89466 -56149,161725 -19111,64189 -14521,127659 -19576,192673 -101422,11866 -186252,-12526 -250171,-58774 -163061,-117968 -324141,20971 -432493,57589 -111727,37757 -94761,18676 -191188,109582l0 0zm4185436 -1116102c55593,-38958 55998,-14581 67339,-82086l4696 -28936c26386,37472 15331,13230 23656,67204 31847,206413 34607,111862 49293,194667 12781,72095 -7875,74270 27227,139974 24032,44988 38853,62795 58549,108067 53313,122513 42378,142615 19366,276123 -14806,85821 -17776,193288 -72020,257867 -13035,-29042 -255,-57214 11371,-105712 12421,-51798 16681,-76550 15856,-132413 -6615,-451485 -124238,-335302 -205333,-694755l0 0zm-4185436 1116102c79551,56598 343493,-169196 464520,-146395 52489,9886 122753,52294 148810,93846 -399866,-15721 -268622,47718 -626245,133974 -35238,8491 -53254,18901 -64295,57229 142330,48888 297635,-61429 463560,-69755 208859,-10485 256232,-104527 496922,-52473 35868,75335 17267,134499 49099,203713 36872,80195 102051,73475 67309,175196 -99561,-35252 -80735,-151209 -144054,-248671 -60859,-93651 -209954,-36422 -299615,-12046 -202288,55009 -466050,113078 -667288,91041 31052,105682 104557,101917 220920,84231 111232,-16891 205093,-1260 315035,-4245 229860,-6226 146559,-135129 357458,-55729 65284,24587 60169,14356 79340,83795 -87621,5716 -152065,10741 -231675,24677l-463575 55609c-86090,1215 -160195,-35958 -234720,-25337 36032,67669 21346,8790 24407,74435 6900,148749 137663,340897 150999,584167 7216,131964 -21736,166556 -35537,273348 179217,-148104 -77915,-748428 -66064,-842814 156385,52608 282843,24556 448274,15136 237270,-13516 450659,-130719 599648,46998 40323,48093 59089,113572 92586,164575 47839,72860 190438,231885 209459,312996 -25127,26956 -50598,25891 -85251,45452 43248,28487 258647,-47043 143545,86976l58669 -20551c-4816,-100972 -152695,-284254 -204404,-364689 -57288,-89121 -87515,-194532 -128543,-296014 -32132,-79445 -36992,-27392 -67789,-83555 -21632,-39468 -10006,-68885 -22712,-113678 -23851,-84200 -108847,-233940 -114547,-314795 -7906,-111832 138984,-401516 44613,-444824 66889,-7620 666688,99652 749988,121943 46563,52144 82565,129924 121103,199918 44928,81620 7935,208844 116648,216929 -40923,-159400 -12796,-138684 -54214,-203353 -33182,-51843 -51063,-139689 -64219,-204838l61114 11700c22966,72935 4125,116948 48903,193093 73310,124688 36092,49473 59974,197938 11986,74465 132503,258496 187947,313175 82355,-153700 -67039,-186207 -143034,-509643 -15481,-65869 -42828,-128468 -62209,-181677 68524,9706 72154,56374 109177,164336 112702,328761 165760,225719 165460,397901 -240,133703 4606,126983 45063,240330 19067,53389 11506,429553 -5310,499322 -54303,225255 -156895,240751 -251101,304205 2955,2595 7695,50763 93456,-5610 26582,-17491 49458,-43248 71194,-66350 87171,-92616 170621,-206803 205214,-340777 30332,-117472 -16501,-147399 -26912,-252031 -25547,-256696 -49533,-228060 -13861,-485431 44958,-324276 -52338,-284929 -71525,-448124l75290 -15421c103732,261167 55834,136314 71285,342457 3330,44553 17656,83765 23626,132969 10171,83870 -1155,185456 2251,277082 3465,92826 -24797,195133 -7696,269448 142809,-59269 98466,-652617 76040,-815228 -17356,-125858 -79310,-113572 -86391,-220904l76505 -11941c20117,75170 67490,118463 81801,175316 16441,65285 14521,144625 38012,216929 29972,92271 37713,129459 22277,233281 -24647,165625 -48064,265742 -113228,416561 -67774,156866 -65674,334777 -180596,470761 -40248,47643 -41823,18931 -52699,86450 88761,-46593 188667,-247441 234330,-343912 41793,-88310 37278,-133778 62824,-225569 19277,-69230 56044,-142975 80796,-206939 115657,-298939 63784,-240450 13605,-436048 -19741,-77000 -25861,-163645 -43712,-244741 -22487,-102216 -101692,-147969 -14416,-179831 32807,11640 16876,2355 39422,33497 40953,56568 51079,120353 57859,190347 8821,91101 26882,182172 69394,249286l7441 -22546c405,-2535 2100,-8146 2445,-11326 10576,-98196 -34457,-196138 -39752,-290824 -4576,-81950 -21407,-63379 29866,-104361 2371,2985 4516,4635 5041,10290l7965 22547c750,3840 1635,8430 2295,12870 270,1816 2236,48364 2866,57169 8625,122033 66214,186537 51798,315441 -25772,230534 -91191,394270 -169601,602453 -24452,64940 -60574,125769 -77990,179307 -29417,90396 -10126,106192 -62929,195163 -25442,42902 -84561,132233 -91956,165595 160375,-91896 479176,-948586 467310,-1198562 -3780,-79955 -49743,-253276 -72560,-334927 -17116,-61189 -6120,-22531 8716,-97326 80990,89841 101467,271818 135579,408656 74675,299555 -246106,737643 -330757,1020066 -23311,77720 -77315,125678 -110737,189688 144580,-67940 140844,-252347 220905,-366129 80315,-114157 136568,-239491 215654,-360383 98571,-150700 112537,-271668 83975,-488447 -30287,-229905 -163886,-339367 -118898,-419112 70235,7740 47733,58234 93186,127523 32612,49728 61309,73310 80060,148120 50179,200263 45213,199228 4201,394540 -37938,180762 -36663,212354 -124493,331027 -42288,57138 -184962,192522 -180762,271877 51108,-54483 104917,-138474 178121,-178976l-83015 141309c25652,41778 -12601,11281 33662,16156 58699,-55894 -4455,-26447 157946,-159640 136733,-112133 202138,-202604 197562,-446564 -1590,-85011 -37697,-221760 -9885,-285079 72289,403721 53238,373014 238230,731253 19066,36947 41463,63004 55519,110557 19291,65239 4530,79280 36722,119377 16021,-28576 20026,-54108 16111,-100086 -900,-1290 -5040,5820 -16741,-27767 -7381,-21211 -5220,-22216 -7636,-42798l41328 49354 1035 -67745c-14176,-70669 -39242,-93231 -59359,-153535 -21376,-64099 -7155,-124868 -32807,-180191 -17416,-37548 -17806,-11491 -37307,-68675 -62734,-184002 -53059,-448259 -154000,-603294 -57814,-88791 -71195,-240660 -84951,-362108l95257 -42948c102711,327381 66124,668968 194442,988279 32717,81425 31277,238095 110047,288153 115898,-82340 -27092,-396220 -68119,-676543 -12301,-84081 -12811,-313310 -42198,-369504 -38357,-73355 -116437,-137904 -133089,-291649l81876 -41148c16786,33273 39677,93441 57108,130599 69050,147189 95812,343327 106837,517053 17627,278148 137049,371409 77960,693840 40983,-14926 7216,3555 38028,-29672 51363,-55398 90561,-72455 133373,-138114 -39407,-62659 -45632,-40892 -47703,-147624 -3675,-189313 -62704,-667558 -180146,-796432 -51274,-56253 -49563,-32897 -69875,-127853 -13051,-60964 -30512,-115403 -18481,-159175 102847,-16756 107947,108787 167171,192582 53883,76265 86360,181752 108787,285514 87681,405656 48228,346402 64054,678268 82955,-45093 98436,-131333 115012,-256516 20732,-156640 -26866,-217829 -48678,-339052 -79115,-439544 -174896,-394496 -217859,-568237 69740,-64939 35388,46878 66290,-70234 200127,430797 101601,308795 203533,585277 87965,238591 30587,444449 -49234,658303 144370,-85806 74480,-310580 135549,-432988 32807,202543 -36047,216284 8446,279603 61204,-123983 41597,-462165 855,-615490 -30062,-113152 -64279,-160810 -97791,-251641 -32088,-87006 -103792,-156475 -121808,-249556l74359 -44763c2671,-1635 6481,-4155 9151,-5655 29777,-16861 -225,-9811 37712,-16786 24812,83150 38733,169016 59914,259381 52054,222120 148585,249391 106957,508788l-19261 224925c-6705,52548 -20776,21931 6750,59929 41193,-35403 34998,-76085 42708,-135504 40968,19171 37203,43728 78515,70339 54619,-34652 58054,-50388 87726,-114622 25112,-54363 48648,-89871 75605,-137484 44058,-77735 112117,-246166 33647,-329046 -12151,19441 -5790,-1215 -10801,33107 -3180,21841 -1740,20056 -2505,41628l-47403 227879c-33497,84351 -82490,187678 -136269,245251 -1665,-3150 -3180,-12226 -3345,-10170 -90,1065 -23356,-1230 25157,-106882 49263,-107302 13951,-160541 30377,-273798 8550,-58849 29237,-95001 30482,-157480 2640,-133539 -69335,-165026 -97657,-240886 -17506,-46908 -11265,-71404 -36197,-133253 -16681,-41403 -23237,-100897 -30302,-152035 -6375,-46068 -2760,-77840 79370,-63259 61249,10875 42783,33902 28127,96066 -78230,331851 124553,171776 97446,523849 -6915,89691 -66394,208693 -32537,285858 62119,-44583 37203,-157075 56284,-229635 84050,-319580 -94746,-308900 -99352,-451664 -2070,-63829 48529,-183912 88581,-213794 -53763,144565 -40217,204584 15916,336112 98377,230490 50463,132894 88266,302690l14731 40022c1485,3541 3960,8821 6930,12571 3390,-62494 -15556,-115192 -10410,-176516 6660,-79130 57873,-570 -59119,-174357 -55999,-83150 -89646,-172481 -33812,-268937 32327,-55849 22441,-54723 77810,-73370 -28112,80991 -51184,186492 -52129,274833 65734,-34667 36963,-90441 80570,-141204 77960,-90726 178677,-113332 148150,25727 -12466,56748 -14776,58593 -15586,119137 67594,-34232 4860,-165145 215114,-258721 -10096,192987 -155380,246106 -164411,321605 -15,225 37908,157316 43668,189643l76880 165145c32072,-85700 -15436,-94641 -37352,-177671 -21452,-81290 -20252,-110347 -55279,-174641 111457,-180987 187692,-112808 187557,-381745 -124973,-27317 -146379,41508 -224504,71975 -252827,-241306 -172331,-120923 -624191,-170456 -48063,187317 -49683,119152 -192807,202813 -116963,68374 -132249,83090 -266402,127673 -293929,97686 -301265,82355 -497402,305450 -107182,121912 -354638,180956 -523009,265427 -429358,215384 -909074,68989 -1352428,-465 -108742,-17026 -252766,-18991 -348997,-44838 -123698,-33212 -209459,-57619 -361554,-46683 -850555,61174 -984138,598148 -762484,615025l-34172 -54754c22576,10081 12766,11326 39693,11281l60183 -14716 0 0z"/>
    <path class="fil1" d="M4990267 6583475c50329,70460 60499,137394 42723,234556 132924,72289 83511,103461 346268,258766 75094,44403 160090,149245 226154,228105 23642,28202 38328,48303 66319,85626 90441,120577 114098,331206 90306,511908 -31127,236610 -203833,260071 -202618,388345 84786,-25892 96892,-44973 161621,-83211 197712,-116767 177221,-373884 160570,-606999 -5895,-82550 -5925,-139449 -58144,-195267 -98196,-104947 -144009,-196258 -225569,-289144 -37788,-43053 -112808,-72830 -157075,-100777l21886 -16741c3570,-2685 16831,-12346 20206,-14851 25712,-19141 3361,3991 26162,-19741 -5595,-105697 -68029,-87531 -99096,-175316 -19832,-56014 -15151,-178902 -93921,-125633 -16052,14025 -22982,18316 -4516,70009l85896 224445c-13816,-9316 -38028,-23702 -59629,-34653 -202753,-102756 -131259,-156715 -198268,-287688 -11341,-22172 21376,-43098 -149275,-51739l0 0z"/>
    <path class="fil2" d="M4717550 6559699c3810,23626 60589,-9796 7425,194847 -78875,303590 10321,196723 34488,318261 7080,35597 6315,99111 13305,143364 20117,127284 139194,234705 211319,376825 197833,389860 296344,336321 240061,608694 151329,41553 160735,-159295 146664,-220919 -14521,-63589 -17731,-38583 -61024,-77030 -75035,-66665 -261242,-412947 -308525,-479581 -103507,-145885 -105337,-188502 -176606,-338902 -45273,-95541 -7051,-145510 -6961,-257582 60,-88161 15976,-118882 -1500,-188547 -6285,-25082 -9870,-55189 -31922,-76475 -51678,-49863 -62449,-5880 -66724,-2940l0 -15z"/>
    <path class="fil3" d="M6614812 9015508c-47058,-14236 -53808,-26807 -74104,-64505 7140,3421 45573,19127 48453,21377 37472,29102 12886,-4486 25651,43128zm-198987 -214499l65899 82685c-73250,-14266 -71750,12946 -77690,19876 78515,39018 54648,6946 105817,73340 25111,32597 17101,21061 42467,48663 24032,26147 20627,9226 33333,45213 -52819,-28952 -112883,-132578 -190033,-106597 29477,64549 156625,78530 182082,163271 -100731,-6091 -68389,-102997 -168701,-82596 -85700,17417 -28817,5776 -53853,28052 65254,34623 75005,5956 124268,73535 -41268,-18061 -89616,-53973 -130554,-30737 26792,33962 158320,67114 205334,127673 -100087,-15406 -123863,-84875 -193033,-49533 46878,37758 137529,55594 170981,101242 -32237,15286 -37847,5355 -92301,11655l-64399 11116c-3120,750 -8521,2505 -10981,3135l-19981 6841c78965,61969 101557,-19772 170501,30302 -48708,78095 -104257,-7786 -174401,45468 37397,27451 100266,18136 149859,23851l-5820 59584c-51273,-19231 -90441,-38057 -143049,-7680l110977 45452c-73985,33918 -76385,-12645 -137949,15151 21841,71705 49023,41373 114892,60619 -39797,34683 -71554,-5595 -157345,22397 69710,30332 82791,-2625 142224,38207l-32747 13471c-93036,28802 80751,-19696 -23611,5761 -25847,6300 -6601,-7096 -41358,8715l66019 24302c3166,1140 10546,8535 12871,4800 2355,-3810 8971,2715 13066,5055l-54288 37083c8460,12135 9705,2280 -15031,15466 -48483,25816 -45723,24121 -103267,25066 14026,36003 -3030,7051 29402,28232 2085,1365 22756,7186 34562,13876 -25412,15046 29912,-18136 -22861,10606 -20147,10965 -20147,11310 -32132,21766l107316 5445c-81350,16862 -51243,85431 73880,57769l-94386 49743c62539,14656 126803,-22741 164996,-54408 165,-119663 -18661,-143364 4440,-280668 32522,-193378 143589,-624881 144099,-700906 -48318,-2970 -67969,-11745 -94896,-28141 35163,-26132 -12691,-2550 29792,-9361l80225 -11296c-3450,-2085 -8640,-3630 -11115,-4710 -2490,-1080 -8041,-3390 -11071,-4725 -66409,-29192 -134814,-79850 -222449,-93126l0 0z"/>
    <path class="fil4" d="M3507137 8367586c-20162,-27227 -21257,-34022 -16576,-84936l43322 -154600c3646,-9780 9241,-24901 13801,-33842 10651,-20866 15916,-24017 23012,-33737l-10126 277398c-23221,-53584 5565,-78590 -41778,-121373l-11655 151090zm187152 -180972c-17761,-78320 -46518,-154105 -67970,-235830 -23461,-89421 -27121,-155815 -46698,-241831l-53448 23732c-2130,630 -10366,1020 -14716,3570 12436,186852 1380,305150 -53644,482236 -44867,144399 -15796,363234 70625,432148l34592 -181857c35913,93006 65569,397091 48558,498842l-87020 26867c68884,45483 86060,15451 164680,-15106 81681,-31742 137709,-5790 178797,-45513l-219899 -12781c2160,-185712 14536,-223364 -15916,-415211 -21617,-136164 -40803,-264182 -29537,-405747 34082,101692 345,225225 49788,324456 34517,69275 6690,-40187 30077,67925 10726,49593 -2790,155455 36722,227444 13336,-28021 -7455,-456044 -24991,-533344l0 0z"/>
    <path class="fil2" d="M5388003 8250068c73040,5490 127313,-54033 171821,-97041 152185,-147130 77435,-624566 21647,-702886 -150235,-210883 -348263,-352267 -398996,-448949 -38298,-72979 -66169,-119572 -142074,-138429 -26582,144250 124163,252092 182486,325251 70850,88866 295010,343778 314091,459255 42378,256562 -120,414972 -148975,602799l0 0z"/>
    <path class="fil1" d="M5431506 7854208c67549,-114008 -73325,-282784 -118733,-347138l-270617 -364988c-20326,-37428 -26312,-42063 -46398,-75365 -54094,-89706 -43278,-114368 -15571,-207239 36797,-123398 -6676,-119812 -31382,-200218 -25952,-84470 37982,7741 9480,-47883 -17536,-34232 -66454,-30977 -106221,-28787 21451,97777 59508,70895 21916,202873 -78860,276828 51798,367569 261242,641292 28967,37862 69574,104047 102636,139959 143080,155425 52489,24482 134904,229635 20687,51498 19786,48753 58744,57859l0 0z"/>
    <path class="fil1" d="M3754293 7635478c121042,134304 470445,106507 674713,82026 226185,-27092 401081,287103 464610,299674 21572,-86571 -93366,-199948 -133118,-260372 -192508,-292609 -452520,-117412 -1006205,-121343l0 15z"/>
    <path class="fil1" d="M3934784 7888350c43128,-19066 122708,12496 182292,26686 73235,17447 138729,13606 223439,19187 81456,5370 167396,-6391 241786,1650 99397,10740 93981,56553 137049,90306 42348,-23777 41718,-17641 59599,-62059 -108427,-104782 -279888,-114053 -423268,-113888 -79730,90 -171446,7966 -248056,-2805 -91821,-12931 -133313,-39257 -233970,-16831 330,96966 40563,154720 116783,196198l328251 154735c0,0 337717,43728 380830,9870 -24872,-66469 -131214,-71659 -207389,-63184 -107677,11986 -143619,8011 -230610,-39182 -129743,-70415 -227114,-88506 -326736,-200683l0 0z"/>
    <path class="fil5" d="M8116860 7039820c55308,-58849 62404,-8941 97071,-81290 31937,-66680 30962,-136914 101856,-261377l71300 -98467 -161890 432568c-40698,18137 -69140,25022 -108337,8566l0 0zm433333 -413022c-1996,-69154 2145,-17476 -15316,-37862 -68480,41042 -106057,107302 -155996,170441 74015,-201658 89451,-138594 148705,-229815 90216,-138894 -16531,-199003 -5310,-309575 -74195,45588 -29147,86346 -11836,153100 22276,85925 18286,129023 -61609,151600 37007,-78395 4350,-230340 -17131,-260567 -88281,65899 3705,149049 -47673,243240 -65059,119258 -4291,-24421 -97072,191263 -26101,60694 -55488,147054 -83900,203878 -59449,118928 -146934,99951 -164006,107017 17582,64354 32163,52053 52324,110182 276258,-34037 136299,-51978 239085,-241141 49639,-91355 97747,-93261 219735,-251761z"/>
    <path class="fil5" d="M6797914 9663909c-51348,8461 -49728,-720 -83900,42738l100056 15151c-28952,73115 -36722,11761 -47448,87201 53404,-23372 65930,-36558 106837,-72035l-10201 -21331c-53688,-125618 -42752,-440984 -1800,-548586 45498,-119542 54454,-454589 20972,-592283 -26657,39828 -19036,103792 -19021,162131l-26282 7425c-4515,1305 -20957,5445 -25727,6990 -50223,16307 -10171,-17071 -45633,19892 62299,47598 88446,18826 99382,100101 -76970,-585 -99247,-70654 -126279,1965 49219,74780 130269,-32507 134799,112628 -51543,-17236 -109372,-57274 -133433,8595 43487,16426 110707,-26056 126023,57709 -26237,19921 360,12061 -37968,11626l-139119 -42873c-13621,24121 17101,16456 -30827,81440l-12796 14326c60139,34892 102367,26927 172302,55624 -42798,37547 -40638,7020 -107782,6780 30737,46593 10230,34997 44942,49308 41163,16981 10021,-15961 51004,8491 -40488,25442 -82611,-660 -114143,32402 49639,55474 82056,24287 107287,56974 44238,57303 -30827,47343 -61984,66304l59989 41433 -7725 90785c-24422,12211 28382,-11040 -15751,4186 -7351,2550 -14746,11160 -16306,6705 -1065,-3090 -6526,2580 -9586,4260 14116,17297 7861,9616 22576,27002l15917 18466c-3706,2821 -9151,5506 -11836,7426 -2550,1845 -8116,5340 -10981,7530 -2655,2010 -7335,5371 -9841,7381 -29446,23656 -1590,-11041 -20986,23116 2850,1155 32837,11956 33092,12076 27662,13201 13831,5685 32177,20941l0 0z"/>
    <path class="fil1" d="M8337749 7129811c61939,-120263 22036,-152440 127493,-238246 96831,-78770 224189,-36767 265337,16216 115928,149320 -254761,203309 -290794,231195 -60349,46713 -29057,76985 -68929,123473l-48588 -24286 3435 41432c57229,16411 49833,20627 95526,40698 23267,-143979 17626,-139989 151375,-171266l241771 -43833c44897,-104557 -134514,-373554 -288724,-338197 -122708,28127 -192778,261647 -202978,284434 -26102,58248 -52054,47733 -52879,103971l67955 -25591 0 0z"/>
    <path class="fil1" d="M6690132 7812730c-59134,40862 -119902,67909 -147864,133538 92511,8566 90441,-15601 133178,-56598l166571 -121343c22262,-18031 36317,-25772 51798,-39318 50584,-44252 37218,-59478 98407,-85475 131528,153250 147849,369909 181827,420012 65059,-118808 34802,-170681 -26492,-284673 -26447,-49174 -111187,-215264 -140184,-249946 -57904,17296 -124043,159670 -317241,283803l0 0z"/>
    <path class="fil1" d="M6853073 7874549c79445,1065 127958,83165 159955,149860 -50958,-16187 -126458,-102832 -159955,-149860zm-180042 109552c72890,-15886 31817,-26162 118418,-58804 146634,91566 -30737,62149 231075,146770 28067,57813 -7651,52758 45453,96171l18901 -98062c-14716,-95391 11281,4081 -40503,-69289 -43923,-62254 -27106,-77750 -108802,-180057 -19576,-24511 -13786,-6405 -28637,-40562l75515 -17041c34203,66904 60334,189522 148885,226559 -22802,-103071 -89526,-192642 -135279,-266237 -172091,17431 -172901,128948 -249961,177327 -57094,35822 -54828,10140 -75065,83225l0 0z"/>
    <path class="fil2" d="M8654839 7403473l63019 178557c80466,-3255 104287,-51648 143950,-97221 41642,-47868 93096,-89241 61339,-176862 -40308,-10530 -66500,3075 -139554,22592 -59104,15796 -83046,34097 -128754,72934l0 0z"/>
    <path class="fil2" d="M4643760 10255818c55969,33197 291409,-2835 384220,-28397 12886,-58624 -24662,-75635 -45453,-131544 -50328,2221 -140844,36603 -199183,53914 -118958,35267 -128408,45903 -139584,106027l0 0z"/>
    <path class="fil5" d="M4285777 8260974c-165776,-45483 -179967,-155140 -265847,-115028 4245,92661 342022,243511 591128,191068 55399,-11671 42258,-1050 45423,-54694 -52624,-19726 -265547,7501 -370704,-21346z"/>
    <path class="fil5" d="M6242098 10199039c21782,114472 241876,78485 342998,68404 6750,-58473 -1996,-107631 -15887,-153849 -185441,-4831 -228074,103806 -327111,85445z"/>
    <path class="fil1" d="M6817026 8115644c46307,-46863 48423,-49233 78740,0 -35838,18602 -48574,17927 -78740,0zm-128829 -33422c58474,-40637 73760,-83630 135204,-58474 -28217,60514 -53059,50284 -135204,58474zm-116482 78875c118627,46698 150879,2386 240720,-9450 32687,-4306 93381,-825 120953,8130 71510,23222 18001,26237 81680,39228 13081,-69095 -23011,-67385 -69559,-97266 -153685,-98617 -68330,-177927 -310400,-39243 1725,2355 4815,5580 5760,6630 74240,83061 -35462,12271 -69154,91971z"/>
    <path class="fil3" d="M6716954 8236252c124838,-24376 153895,-13261 270738,9226 -90486,-125873 -455010,-1470 -458040,240 30332,21856 120143,69784 166136,91776 40127,19216 173021,37517 211618,20581 -33377,-50838 15256,-17716 -51513,-31502 -68584,-14161 -103402,4065 -169106,-46803 106642,13081 170606,48513 239476,30512 2880,-750 8700,-1185 10695,-5940 1965,-4681 6706,-4441 9886,-6871l-58954 -20671c-89241,-14941 -90336,-5956 -150055,-28832l-20881 -11716 0 0z"/>
    <path class="fil1" d="M6631434 10024893c1320,56598 -14641,53478 46112,72454 40428,12631 255527,26477 300395,3271 30347,-258932 -206578,-58594 -234900,-52459 -51079,11041 -42138,-20146 -111607,-23266l0 0z"/>
    <path class="fil1" d="M3601763 10113699c58174,143064 384340,21556 397855,10500 -19321,-36302 -53763,-86735 -83360,-110662 -84335,19381 -83180,43503 -139509,84741 -65674,48093 -87141,12180 -174986,15406l0 15z"/>
    <path class="fil1" d="M8376961 7396783c127434,17071 49338,-123653 203878,-111352 77676,6180 53179,32087 126294,-14746 55083,-35267 81980,-30317 102441,-81245 -38972,450 -268427,17596 -294034,26026 -61744,20342 -26401,43713 -79790,86256 -53838,42903 -82400,-5221 -58789,95061l0 0z"/>
    <path class="fil1" d="M3857514 8284180c51559,133989 135624,85281 206609,163751 -71465,38192 -141895,-65779 -250052,-76595 18962,89421 131724,138324 223410,154390 43083,-39573 62749,-44358 72065,-125093 -35673,-18826 -89301,-31757 -135669,-54334 -59344,-28907 -63409,-50688 -116363,-62119l0 0z"/>
    <path class="fil1" d="M4115111 8326798c67639,182022 375699,140079 456164,112687 66200,-22531 19802,12751 45378,-35942 -31337,-24077 11101,-19396 -61684,-16066 -11940,540 -49368,11281 -65164,14071 -165116,29252 -236550,-55819 -374694,-74750z"/>
    <path class="fil5" d="M4065833 6659140l106987 -44793 -42498 117848c56539,-5940 41148,405 60469,-53943 4185,-11791 10410,-36888 14626,-45228 26656,-52774 3240,-13366 29042,-37383 3450,7486 10080,5026 9555,31907 -810,40998 -37337,90126 -51168,123353 104767,8761 123248,-110437 125093,-214919 -77135,-6555 -147445,17836 -217244,51769 -57304,27841 -39153,-19097 -34862,71389l0 0z"/>
    <path class="fil5" d="M6551403 8380982c-42152,-4786 735,-7261 -26146,7320 19801,28292 -14881,15961 50613,53328 120098,68525 146994,31938 203353,64160 -167696,16906 -147564,9240 -266222,-49384 -5505,74600 102426,100402 167591,91326 155950,-21706 191832,-11070 205108,-83585 -57079,-29867 -121253,7830 -213944,-28262 -62479,-24316 -83090,-50658 -120353,-54903l0 0z"/>
    <path class="fil5" d="M8337749 7129811l-43668 72739c-6045,-2130 -33392,-16501 -37502,-17296l-25277 1875c-1410,285 -5520,2551 -8056,4216 19337,50808 27347,43142 99022,46818 46203,-107002 135804,-152110 215504,-227130 97596,-15001 162625,31877 178091,-78275 -66964,1890 -27212,13306 -80405,6795 -155425,-19036 -76715,-9960 -187362,101437 -36992,37247 -64594,68854 -110347,88821z"/>
    <path class="fil3" d="M4309763 9086132c27182,-3945 128724,-43308 145690,-55038 -72110,-44478 -109297,-11161 -195523,-63230 -71329,-43067 -104797,-26476 -192147,-8805l-1215 19381c135,1155 780,5386 1035,6586 255,1275 1530,5505 1875,6780 11386,40128 4410,29702 140319,-2010 -18106,-1995 -19366,-5520 -42363,8700 -51378,31788 -26521,21692 -41702,49174 99066,-13651 112927,-62104 192822,-33047 78380,28501 3615,-3916 39573,27586 -76355,18526 -168551,7066 -230790,43188 23671,16051 149544,5505 182426,735l0 0z"/>
    <path class="fil5" d="M7295271 7962260c50119,-88806 -55728,-226290 -88595,-288874 -36723,-69950 -97447,-206143 -138699,-262292 -54004,82205 156235,332001 209053,508608 23897,79925 -32042,-28832 18241,42558z"/>
    <path class="fil1" d="M4120796 8589990c14956,72320 89136,149665 189223,149830 45542,75 86165,-24632 133703,-37023 128978,-33617 91776,-23251 105547,-56823 -63889,-36108 -152530,51453 -237375,43412 -114563,-10845 -76745,-119302 -191098,-99396l0 0z"/>
    <path class="fil6" d="M4646115 9749655c-21961,47748 -38612,76130 -74690,103627 26867,-43458 29507,-79370 74690,-103627zm0 0l17311 -51918 -163720 75575c-56764,23191 -23237,9855 -45513,27781l88491 10351 -49414 49458c43098,23387 26162,58774 37158,31697 1005,-2505 4530,5356 7080,7726 63214,-6106 68585,-8716 99412,-48633 22051,-28577 36602,-51019 49128,-90261l-39933 -11776z"/>
    <path class="fil5" d="M4504476 8036514c-109282,14401 -194172,-30182 -240780,-17761 21496,35732 -34458,7216 30932,52549 52833,36632 142914,7845 168355,3600 132024,-22022 151420,9825 250907,33437 -23717,-93771 -20372,-96726 -209414,-71825z"/>
    <path class="fil5" d="M4144318 8442111c18931,40022 4605,57288 58984,98331 25351,19141 67189,34472 108727,40667 79025,11806 218339,22772 258811,-47163 -114052,-23221 -155275,21737 -238185,12721 -141774,-15436 -89481,-76565 -188337,-104556l0 0z"/>
    <path class="fil5" d="M4090539 8729334c43098,36992 151480,110092 219540,103552 80465,-7726 168955,-38553 220934,-90336 -113738,-32102 -23567,58984 -258662,56794 -29972,-53284 -83900,-109657 -181812,-70010z"/>
    <path class="fil2" d="M5295042 6833242c7786,-17402 10171,-5881 3360,-38418 -2865,-13666 -11580,-28307 -14896,-45498 -9420,-48813 1110,-59539 -13020,-108217l-74360 -7995c-28082,105396 18151,214814 98916,200128l0 0z"/>
    <path class="fil1" d="M3842468 6829521c84981,-2475 89871,-9600 118238,-78950 22816,-55788 49113,-72139 57709,-131123 -80871,-840 -62944,19816 -105862,83495 -33677,49968 -49368,75665 -70085,126578z"/>
    <path class="fil5" d="M3674757 9752115c-16456,11476 22262,30 -32087,16936l-77015 10351c16201,14731 -26806,33302 92901,21901 28457,-2715 56104,-7635 85371,-10230 36317,-51679 15466,-18346 32147,-83466 -51633,-1890 -66349,14011 -105862,2640 -56899,-16366 -19621,-30962 -102246,-11250l106791 53118 0 0z"/>
    <path class="fil5" d="M6680847 8366056c-68435,-27692 -91431,-62614 -171821,-81951 -5101,65675 3975,59314 57858,78635 90501,32477 221370,59914 319506,58039 -69980,-63229 -90621,-8205 -205543,-54723z"/>
    <path class="fil1" d="M8565148 6520516c19202,54529 75095,105502 141730,79881l13185 -120983 -154915 41102 0 0z"/>
    <path class="fil5" d="M8328253 6022409c-4395,90831 -7605,126938 74255,123443 -26717,-63064 -37757,-23776 -44598,-111697 10051,2895 32747,11176 34727,11656 19502,4680 5086,4260 33437,5340 -55293,-128258 31248,-79550 68420,-170831 -112417,32057 -89781,73580 -166241,142089l0 0z"/>
    <path class="fil4" d="M6465268 8508970c25366,41703 4875,46908 61279,76430 55983,29297 138309,27152 194907,17266 107872,-18841 73010,-21436 90621,-39123 -97101,6556 -103011,24347 -199348,8656 -85175,-13861 -81485,-48978 -147459,-63229l0 0z"/>
    <path class="fil5" d="M4556544 9743640c6991,-25787 10696,-54739 29477,-79761 27467,-36557 10966,-2115 30482,-28996 12646,-17432 6346,3660 7186,-28727 -60049,24226 -48258,26476 -93306,63004 -44463,36047 -70550,20371 -108097,53268l16666 37323c62614,-18662 34397,-20342 117592,-16111l0 0z"/>
    <path class="fil3" d="M6644004 8705933c63829,-52114 77690,-23312 130644,-56614 -61279,-27167 -92691,9000 -161786,15301 -83270,7575 -90621,-34637 -155665,-66769 23237,74974 97417,116917 186807,108082l0 0z"/>
    <path class="fil5" d="M4203962 8857397c-110272,-15361 -52039,-21511 -124583,-40502l-17387 74540c390476,-330 75215,25801 254147,45422 -35852,-45077 -32372,-68344 -112177,-79460z"/>
    <path class="fil5" d="M8550193 6626798l6180 72590 109627 17416 36497 77210c1050,-1170 54334,5580 -420,-101332 -20386,-39782 -29492,-20311 -93186,-17641l-58698 -48243 0 0z"/>
    <path class="fil5" d="M3680413 8802239c38147,55863 4095,50073 98931,46818 65119,-2220 89661,1665 116648,-36408 -39588,-25141 -161756,-15106 -215579,-10410z"/>
    <path class="fil5" d="M6444641 8710313c16306,25877 -15496,-2760 22082,36797 150,165 24316,18991 25367,19832 20146,15676 30166,23431 53313,39512 119828,83255 119363,28742 127763,21361 -30572,-56073 -25981,28352 -111082,-52653 -43953,-41823 -47463,-54198 -117443,-64849l0 0z"/>
    <path class="fil1" d="M4564915 9984135c75815,10846 155680,-78665 163961,-136314 -49114,2956 -62614,22277 -91131,49924 -15166,14716 -26117,23536 -38928,36602 -38447,39227 -11986,-660 -33902,49788l0 0z"/>
    <path class="fil5" d="M4403970 9630892c51858,37938 71719,19307 107962,-10515l84365 -65255c-34997,-40652 -82655,-3090 -157975,53434l-17461 12211c-1620,1140 -7336,7770 -8521,5235 -1125,-2475 -5670,3120 -8370,4890z"/>
    <path class="fil5" d="M8462842 7528566c81185,-34007 26762,4336 52953,-119437 13621,-64354 41973,-37698 68600,-99592 -72215,7276 -42768,-6450 -85446,55999 -47328,69229 -18931,47973 -36107,163030z"/>
    <path class="fil5" d="M3850869 8682591c-79865,-18721 -42528,-28457 -107257,-50988 14221,106717 80720,96291 201943,101511 -19621,-53418 -36827,-36962 -94686,-50523z"/>
    <path class="fil5" d="M3733831 9145626c17041,-18436 22562,-23687 38643,-37652 -76280,-65645 -115628,-46623 -236100,-60784 15526,24901 -20987,21511 47223,39032 47148,12106 77075,-12271 123983,26102 12435,10185 24616,31037 26251,33302z"/>
    <path class="fil6" d="M4203467 9221771c88250,59449 57588,-54589 253021,-65869 -75620,-57724 -189282,18331 -253021,65869z"/>
    <path class="fil5" d="M3912688 8558773c-48063,-20506 -58744,-32162 -98812,-3705 30947,23881 -30061,2100 39123,31412 82745,35057 104542,44673 153310,19081 -27842,-30812 -7381,-12826 -52519,-30152 -16771,-6420 -25126,-9826 -41087,-16636l-15 0z"/>
    <path class="fil5" d="M4222113 9307951c48873,9196 91506,10621 128603,-15511 85116,-59988 64504,-27826 97911,-56568 -54078,-12511 -74869,-8836 -121477,17971 -36423,20941 -78710,33842 -105037,54108l0 0z"/>
    <path class="fil5" d="M3543004 9221771c10831,14686 126338,120368 204763,75770 -15661,-10051 11896,-510 -30557,-12316 -148914,-41403 -94296,-127118 -174206,-63454z"/>
    <path class="fil5" d="M6644004 8705933c-8415,4590 -35687,1560 -61024,46113 53524,39932 140664,5115 162836,-51574l-101812 5461z"/>
    <path class="fil3" d="M4268106 9388447c44148,19741 76550,8100 108397,-9121l82805 -54093c-55908,-32793 -141339,24196 -191202,63214z"/>
    <path class="fil7" d="M3733831 9145626c-81740,14056 -123533,-21541 -192417,-41103 19636,45228 57334,58954 102081,73025 73475,23087 112388,26777 90336,-31922z"/>
    <path class="fil3" d="M3773419 9622207c-188967,51093 -86691,-55069 -193033,5190 35058,30467 -10545,3510 33978,20416 135338,51334 131933,39618 159055,-25606z"/>
    <path class="fil5" d="M4674722 10054385c38688,16906 127583,-59644 149860,-109267 -63079,9900 -109867,39827 -143650,87485 -17596,24857 -10080,6856 -6210,21782z"/>
    <path class="fil5" d="M3628269 9352399c30617,84711 -20281,28427 70550,71825 44583,21301 32462,32552 78155,49503l-1695 -68284c-137454,-15736 -74090,-27887 -147010,-53044l0 0z"/>
    <path class="fil3" d="M4326820 9464217c38402,17146 83765,5130 118282,-16832 56254,-35807 55909,-57783 42468,-83900 -24647,19831 -39318,39183 -69725,57184l-91025 43548z"/>
    <path class="fil3" d="M4370637 9539971c12946,5071 169316,4486 164396,-85565 -96111,52128 -135549,42063 -164396,85565z"/>
    <path class="fil5" d="M3593632 9464217c16216,36452 97762,87080 100762,87665 93621,17941 20176,2790 49608,-20731 -84996,-21016 -83645,-91701 -150370,-66934l0 0z"/>
    <path class="fil5" d="M4650826 10014752c55383,-25922 22861,-10831 67504,-51153 51273,-46308 27092,-1230 53328,-67895 -82745,16997 -103521,36378 -120832,119048z"/>
    <path class="fil3" d="M4297463 8885074c57588,5611 156475,4590 195717,-42108 -39257,-19696 -177821,27857 -195717,42108z"/>
    <path class="fil5" d="M4009069 6767222c63319,-3945 88461,-32507 103147,-89210 -64624,6030 -93111,31577 -103147,89210z"/>
    <path class="fil5" d="M3659576 9024793c29792,17716 112643,44688 141310,30302 -1185,-1575 -6586,-34262 -69410,-44508 -77705,-12661 -71705,14071 -71900,14206z"/>
    <path class="fil8" d="M3522303 7478358c8715,-18841 14761,1665 7080,-39317l-13036 -35268c-7125,-41537 25022,-40997 -37007,-58503 1785,18226 7395,35552 7440,35927 14311,117578 -44118,81680 35523,97161l0 0z"/>
    <path class="fil3" d="M3476625 7191345c24811,40517 945,28292 75725,35867 -2401,-43428 14565,-43683 -20507,-60199 -42198,-19861 -54588,23972 -55218,24332z"/>
    <path class="fil3" d="M3569976 7130726c-3391,-54574 13891,-22127 -16831,-45918l-21047 -8506c-39482,-11265 -15376,-885 -32882,1035 6211,47328 28412,66185 70760,53389l0 0z"/>
    <path class="fil9" d="M8522276 6220002l16876 2070c-12916,-67834 -12841,-72560 -68075,-92346 16276,62554 16531,60934 51199,90276l0 0z"/>
    <path class="fil7" d="M4202087 9142236c-36303,6240 -29762,3240 -54709,15916 116092,54618 107782,-1665 114307,-12136l-59598 -3780 0 0z"/>
    <path class="fil10" d="M7382322 7782533l36947 -10516c4336,-58144 13816,-38957 -18946,-78425l-1035 67745 -41328 -49354c2416,20582 240,21587 7636,42798 11701,33587 15841,26477 16726,27752z"/>
    <path class="fil5" d="M3486120 7263229c-5595,45783 -2160,42648 51484,55294 -5221,-31562 8400,-28577 -15841,-52308 -43023,-42108 -35088,-3121 -35643,-2986z"/>
    <path class="fil3" d="M3519722 7672786c8881,-5386 40053,-2235 24527,-48408 -13411,-39888 -7965,-12541 -21946,-28037 -23732,38657 -32688,32282 -2581,76445z"/>
    <path class="fil11" d="M8539152 6222072l3645 91521c23222,-20311 32132,35192 26837,-45393 -2865,-43788 -2025,-16096 -30482,-46128l0 0z"/>
    <path class="fil5" d="M8594565 6469843c25982,-29177 20372,13711 23027,-36722 2550,-48633 -15616,-44748 -19201,-50659 -16426,31577 -16366,31877 -3826,87381z"/>
    <path class="fil12" d="M4646115 9749655c-45183,24257 -47823,60169 -74690,103627 36078,-27497 52729,-55879 74690,-103627z"/>
    <path class="fil5" d="M3507137 7574559c15151,-20986 19936,9481 14641,-32522 -4366,-34772 660,-8355 -16426,-27841 -27077,40937 -23297,22216 1785,60363l0 0z"/>
   </g>
   <g>
    <path class="fil13" d="M12449754 6060362c34173,60153 1561,555200 69665,875921 19021,89571 55729,169556 74180,256187 -139464,-54259 -63379,-184662 -174371,-275793l-6241 48678c33407,141189 194128,396746 262817,430498 14926,-154435 -54483,-215714 -104182,-333367 30917,-73369 83691,-92031 85626,-211618 1395,-86691 -27032,-173502 -38718,-257777 -47103,-339727 269178,-504723 14896,-952772 -53853,-94881 -200323,-287508 -225284,-374394 211423,49939 318095,358403 437548,555696 66199,109327 147160,144475 72515,478831 -15451,69200 -41823,85506 -66065,130299 -24691,45587 -2910,84740 1336,153759 19321,314436 -269598,755914 -32988,959747 -6600,-91160 -72364,-181631 -12390,-262861 45543,-61684 121432,-90516 156235,-177102 31547,-78470 32477,-180492 52023,-266162 22112,-96876 56749,-159415 67189,-265487 11971,-121433 2851,-163331 40863,-277593 132699,-398846 -48303,-379045 -170441,-698655 35267,35087 53974,54018 84921,92436 64534,80105 160105,142809 242370,302734 103012,200218 58714,398606 14431,626246 -98001,503642 -350152,609009 -389275,886452 -9436,66904 3315,97671 46668,145299 22741,-29042 12541,15421 9436,-39152 -375,-6721 -11431,-47703 -12451,-51739 262502,-131048 596918,-771724 629050,-1077924 31728,-302150 -299284,-643527 -454754,-817013l-216704 -227850c-39677,16921 -8685,-5430 -29207,20837 -1530,1965 -4635,6735 -6000,8775l-7456 19336c-51138,-105036 -368573,-295204 -547745,-346642 -31967,20086 -26072,31127 -62674,44508 -21076,-71765 15376,-67279 53058,-105187 -48333,-23266 -38717,-14221 -102126,-7500 17461,-19307 50358,-35883 66784,-68270 -37622,-21001 3240,-3660 -44073,-9840l-48738 -5311c28217,-34757 9511,-18871 89211,-35897 21166,-4530 26822,-4230 38042,-9556 -26746,-33452 -67399,-14686 -108787,-45453 47478,-76265 76565,23357 164591,-30317 -35387,-80615 -61309,-29522 -129504,-57723 65360,-69710 113408,12480 184407,-33182 -36902,-32658 -155680,-15121 -212863,-15061 -49459,151509 -79370,223754 -65165,407816l77855 7170c32538,164321 79101,287179 154105,409392 45918,74825 66005,76370 75935,198088 7186,88130 27467,197127 2460,278493l-15 0z"/>
    <path class="fil13" d="M13202893 7843872c43248,-162821 -35477,-77315 88896,-199933 43818,-43203 98751,-104317 143424,-159340 144940,-178527 379720,-507063 541400,-640062 51994,-42782 132489,-55668 191668,-96336 59478,-40848 118597,-94371 140424,-176111 -75980,-33047 -62914,-55924 -140829,-13306 -50539,-95526 -210794,-243601 -326257,-283263 11911,133628 143200,123773 173877,229394 43787,150700 -112208,185817 -144835,230175 4681,-135594 157660,-195852 -31952,-331941 -52803,-37878 -43143,-37878 -50388,-113528 -12211,-127748 -225885,-273437 -340312,-320870 95631,183957 193557,235005 223004,514308 5701,54123 3691,106672 14671,165671 8521,45693 30062,101061 34668,145719 11970,115658 -72770,164786 -139614,214154 -217529,160645 -274998,444284 -437039,653772 -30197,39063 -63289,53899 -39962,112837 13771,34758 48948,72545 99156,68660l0 0z"/>
    <path class="fil13" d="M16431972 6976801c255,-81365 33842,-134559 63574,-202213 66304,225 66544,1050 108172,26371l-96261 4756c-3391,51123 -13891,93396 -42213,135444 -25742,38207 -18511,22456 -33272,35642l0 0zm-592523 -4050c-826,77270 -52654,220574 -66410,320180 -12826,92856 -45528,267213 -22231,343417 35447,-75964 75860,-208723 105187,-290688 52728,63949 -28877,101016 6675,232035 28652,-12556 11791,-1665 33092,-25082 113317,-124628 233925,-619015 264872,-654042 35013,86615 -28667,105262 -42122,168761 -20597,97236 405,54678 16591,70819l37232 -101616c65209,124583 -52848,202528 -97596,256456 -59044,71195 -121988,153700 -117653,280038 18916,-68584 47358,-91806 70145,-147744l12390 74690c63530,-96247 161246,-138444 243016,-269748 72605,144010 -336937,209954 -234570,477136 67069,-170036 45408,-175406 198208,-304460 47703,-40307 48963,-42422 121703,-17341 207343,71525 314885,225120 444448,270663 -30902,-131394 -215699,-338932 -151689,-474526 12120,-25697 4530,-10831 20191,-27242 69649,122903 24106,294109 117382,365919l6601 -23057c615,-5010 780,-72424 -28322,-170816 -33722,-113977 -116692,-306724 -51318,-412751 65749,-106597 101901,-12301 70189,-160751l-37052 -69229c-223545,-14926 -367254,72710 -368889,287793 -67009,42018 10876,-15871 -56254,1246l38838 174416 21571 -139509 36408 86975c138639,-59718 17251,-267452 194037,-251821 -78740,55384 -108217,153025 -109597,281013 89841,-44358 31232,-143889 102127,-210898 35777,73084 -63694,176711 -50884,277218 73565,9660 555,-1785 33003,-6256 53793,-7440 -37563,-34907 17926,-240 -12931,99172 -15511,128378 1260,227355 -68510,-27647 -149845,-52413 -238831,-67414 -44732,-178887 -46383,-274593 -65449,-370509l-14851 -39393c6691,165176 -13936,282858 -143709,379840 -30122,22516 -4830,8835 -44853,26446 37562,-72979 78710,-104076 109477,-190062 30362,-84890 22232,-147925 31532,-241096 73835,-27826 86541,-180 69200,-73684 -2956,-1245 -7741,-1560 -9481,-1605 -1740,-45 -7335,-1050 -9511,-975l-214648 17806c-13726,93531 -21362,185667 -38793,280743 -13846,75440 -31367,155005 -81440,209383 -1995,2160 -8146,11161 -9646,8416 -1545,-2790 -6480,5835 -10096,8250 3331,-151284 137439,-424152 96667,-517683 -87381,109807 -33527,233625 -146875,352673 -23041,-147955 92871,-295579 111397,-430768 -106596,61264 -108832,147624 -168595,211319l0 0z"/>
    <path class="fil13" d="M14361688 7820110c20041,-61699 53043,-91491 105262,-118867 8745,11970 4740,2820 14806,29447 42783,113077 65794,132308 51513,200548l-171581 -111128 0 0zm347377 489887c8626,-98241 42243,-120113 -12465,-204343 -84276,-129744 -212579,-415437 -139764,-558951 110452,-217709 229229,-434608 344617,-651057 -30302,351937 -409557,682484 -194008,1093525 52549,100237 125273,249796 1620,320826zm52999 -1396230c-36737,110452 -247591,522949 -333727,728612 -98436,37052 -179591,-26402 -208333,94341 82715,-18421 43653,-32282 133584,-41718 -47659,178512 -331072,36048 -293299,282213 38552,-15916 28591,-26116 65464,-58983 175451,-156370 520233,141924 549530,305374 -132023,-87740 -251236,-212383 -405131,-295879 -52128,21032 -118283,64039 -152125,115703 302165,2775 339382,162655 552516,214124l-33212 103401c24496,11656 11701,11731 44403,9211 333591,-96186 -20042,-517789 73309,-913709 31743,-134604 85836,-154600 129069,-249106 7695,91386 -41838,354803 -44283,491536 -3165,176142 13216,339172 59524,493352 50373,-341587 -71720,-795231 69199,-1097426 23447,-50268 56659,-79400 43848,-124883 -23956,-84920 -36977,-43727 -11866,-150024l-179426 -42843c-23537,34832 -44313,104437 -59044,136704z"/>
    <path class="fil13" d="M13769735 8047465c10785,65284 -26132,34652 28142,40503 39062,-44283 13140,195 22621,-81486 25892,-223199 106687,-255256 293869,-524134 64849,-93171 119183,-164500 185487,-268592 43113,-67699 125033,-254161 173141,-300034l71375 -255827c-310625,-72814 -376164,267393 -556686,409812 -194728,153610 -474316,536044 -585788,747318 -44628,84605 52023,147805 111307,180267 92556,-121193 -51333,-217469 615145,-877752 80825,-80075 183072,-217709 247996,-271068 -41463,197863 -235095,443669 -335647,577403 -122513,162955 -247456,367748 -270962,623590z"/>
    <path class="fil13" d="M16689553 7733795c-25366,-45633 -4545,-5041 10441,-25517l20986 50943c-26356,-16081 -19111,-3240 -31427,-25426l0 0zm33678 71164c-25607,55279 -22937,44613 -77300,17266 -37578,-18901 -67085,-27796 -113513,-37697 -44418,-9466 -82910,-13486 -126128,-25517 -51468,-14341 -58894,-14836 -77435,-56463 131559,-25142 290824,28592 394376,102411l0 0zm-532475 14851l36798 -227969c32927,-17432 3255,-6226 50958,-20252 13906,-4080 47913,-8250 65524,-9720 134544,-11236 254057,-2085 303980,122153 -86766,-35658 -209369,-97402 -321726,-63260 -113107,34383 -98871,189013 -42693,288859 2295,-2595 5266,-10621 5956,-8505l35537 -112238c67054,12016 279393,76385 328521,106987 -55938,87696 -95811,45783 -180777,81395 -15031,111548 871,200293 77855,257372 125664,93186 379015,12511 371905,-247891 -4276,-156490 -43728,-158395 -118778,-232695 -98152,-97161 -227445,-246391 -399566,-297454 -253471,-75200 -322101,216254 -213494,363218l0 0z"/>
    <path class="fil13" d="M12353493 6766967l10591 53074c7275,5070 23836,29807 37127,-34113 10996,-52818 -11880,-115927 -42737,-157540l-66350 -65944c26267,-285408 -51468,-451184 -148239,-675029 -40893,-94581 -81291,-192102 -108127,-301639 -35058,-143034 22336,-287854 -68510,-354698 -141429,438838 224250,942976 189328,1185602 -1666,-14821 -393446,-1041068 -399461,-1048373l-50764 22501c-52023,135054 63020,184182 114953,274128 47118,81575 86825,213059 117802,306515l154555 481336c34368,62284 76985,47478 61024,122813 127104,9105 161906,77765 198808,191367l0 0z"/>
    <path class="fil13" d="M15254171 7954939c172076,-71825 71854,-194563 71854,-362123 0,-239701 152005,-479131 151420,-697005l-45 -15151c-345,-130539 -78065,-237061 -172106,-270723 186492,474601 -331881,954707 -51123,1345002z"/>
    <path class="fil13" d="M11297410 6127251c34127,104377 135114,269282 201853,389890 33722,60934 -6240,30227 49638,50778l22457 -145824c125183,30692 110752,129953 121493,265442l101541 -26612c34922,-17416 -8955,-1965 27947,-14281 65599,-253486 -245116,-313865 -275973,-600023 -7620,-70670 -2355,-150640 -51333,-207494 -16081,-18676 -9271,-10950 -25547,-23296 -129098,181767 23162,446084 75650,611379 -81110,-33707 -119558,-118702 -141384,-223604 -9901,-47568 -16396,-104707 -22682,-156760l-18901 -119828c-11941,-34007 -4245,-15676 -15586,-32162 -45978,90996 -57424,103282 -49173,232395l0 0z"/>
    <path class="fil13" d="M15025301 8078502c114892,-64834 58939,-197863 38627,-326376 -13395,-84786 -6120,-111562 30677,-167621 137784,-209998 198373,-606519 184932,-873161 -23836,58893 -31292,153010 -50283,219944 -37847,133464 -105877,300784 -110917,434008 -4125,108832 7260,157450 -74210,191697 -85370,-214004 129353,-594893 125753,-849700 -40442,38403 -52698,86601 -71989,138159 -20102,53689 -34608,95842 -50119,146560 -33182,108427 -58803,215729 -74764,335271 -36633,274503 -7201,499953 52293,751219l0 0z"/>
    <path class="fil13" d="M14479371 6950879c12435,117173 -137619,401366 -192598,476881 -74825,102802 -239670,273633 -270167,420807 67849,-75680 121103,-146319 191532,-212009 102412,-95541 153850,-53448 217799,-206083 37923,-90486 96306,-184017 143079,-265607 55234,-96336 77315,-198763 122603,-284283l9331 -168071c-90351,18991 -136299,75875 -172751,153085l-48828 85295 0 -15z"/>
    <path class="fil13" d="M11953912 6624818l81231 -26327c30842,-267782 -260777,-850705 -490682,-956386 36137,166405 230985,525784 312200,729902 32402,81425 51528,188247 97251,252811l0 0z"/>
    <path class="fil13" d="M15400790 7783133c143349,-164021 180207,-657088 265772,-978243 -50538,-69155 -155020,-215249 -250501,-240526 33827,142584 132534,123083 128438,239431 -6090,173216 -192777,550445 -143709,979338l0 0z"/>
    <path class="fil13" d="M12441489 6168564c-53058,-182277 -93921,-339052 -157060,-512193 -29867,-81891 -58069,-161591 -79730,-255182 -25982,-112327 -36948,-181977 -148960,-195793l202813 612625c99637,307865 91251,385480 90006,708256 40323,-37203 112162,-257327 92931,-357713l0 0z"/>
    <path class="fil13" d="M12438204 4582256c212368,-37067 271157,27107 462825,33287 -63484,-50118 -95752,-30317 -153445,-74120 157600,-5430 624190,28742 728207,-39707 -55009,-52443 -134094,-2880 -206249,-7861 -125678,-8655 -20791,-1275 -66064,-28681 -41477,-25112 -664693,-120398 -765274,117082l0 0z"/>
    <path class="fil13" d="M15831663 6971490c19351,-76279 63679,-155770 63814,-242430 135,-91221 -43728,-158515 -97101,-173186 125063,147639 33182,386350 -56149,507722l22652 -253591c-32537,30662 -38493,42918 -54409,103882 -10395,39812 -19801,80645 -29672,120923 -30242,123188 -138594,676573 -131543,737747 179951,-229185 173246,-682694 282408,-801067z"/>
    <path class="fil13" d="M13692555 9744480l70924 219419 281779 37457c-3751,-172736 -103852,-112342 -241516,-124268 46878,-52113 96966,-51303 176741,-55143 -17401,-63529 -63364,-134184 -117982,-156445 -53074,-21632 -48663,-4486 -133299,52143 -2805,1890 -6720,4305 -9405,6165 -20162,13906 -16352,10471 -27242,20672z"/>
    <path class="fil13" d="M9797283 6400914c38043,-116198 45768,-215174 88311,-331807l-183192 29867c-22501,222915 -63949,231405 -108337,404786 130583,12931 161245,-11655 203218,-102846l0 0z"/>
    <path class="fil13" d="M14360983 8943698c68239,20926 113332,-10561 162956,29102l-136404 36257c26341,107767 19561,27797 16681,137664 -1215,46323 172736,57379 226349,64624 -3120,-15031 -1995,-31997 -2445,-34607l-6630 -25382c-405,-1395 -1515,-5820 -3150,-8265 -77480,26297 -111953,4905 -187588,-5461 54829,-33407 118853,-28141 193543,-75019 -45513,-96232 6075,-126834 -48708,-200713l-213929 -20552c18841,74270 24137,26792 5565,74540 -10080,25922 -26206,-11986 -6240,27812l0 0z"/>
    <path class="fil13" d="M15793621 6448797c32012,135458 133358,37262 231930,95631l11790 -31427c420,-1365 1785,-6556 2100,-7711 330,-1170 795,-5385 1936,-7815 70279,30692 57258,62884 114262,58114 -6270,-63244 -15481,-24887 -48063,-78590 24076,4335 26522,6600 53643,5280 3736,-180 8131,-720 11941,-1065 3870,-360 8341,-1125 12106,-1605 3765,-465 8685,-1410 12091,-1920 3405,-510 9255,-1711 12015,-2161 2746,-450 7876,-2085 11926,-2325 25562,42453 53029,134349 77435,158051 60289,-83331 25712,-199918 100042,-241456 -196078,-26387 -432913,72665 -605154,59014l0 -15z"/>
    <path class="fil13" d="M14473730 9702102c30557,14506 48828,60 79520,-12601 -25036,80645 -43202,47418 -82580,85281l85191 106071c-17597,65555 -4561,102772 11415,159131l236371 -5041c-32658,-97191 -55279,-103956 -149500,-141759 47568,-53868 43668,1065 51093,-69019 -39527,-210 -53748,7185 -82505,-23027l-19531 -32957c-35328,24677 -20027,21767 -55879,32282l59284 -101271 -37473 -77765c-43862,47238 -53823,15061 -95406,80675z"/>
    <path class="fil13" d="M9910105 6416710l105067 -72590c76835,22981 74825,39588 167636,33707l-90 -95736 56809 59629c16396,-11911 62914,-34667 82235,-88911l-28247 -43248c-3660,-7545 -13231,-37577 -15196,-46638 -11431,-52653 720,-62074 -20941,-96786 -40083,47088 -36363,97626 -8371,154375 -36842,-22321 -31397,-75290 -32342,-119303 -68959,27782 -23626,36588 -45393,91431l-36977 -62764c-30842,21091 -26282,16291 -50868,42453 29626,53898 69424,59569 58683,137079 -118432,39242 -204553,-27467 -281208,86360 19246,30332 -39557,29267 49203,20942l0 0z"/>
    <path class="fil13" d="M10970299 5787209l-57769 245551c-16231,-77570 -14506,-107752 26432,-197998l31337 -47553zm-108277 -88521c46248,97177 -195,381205 16066,522679 36287,-40248 43803,-74315 63304,-126848 18556,-49953 34307,-94536 46428,-146830l50523 -181856c7651,-107242 10696,-19217 -13426,-57424l-54618 78800c2490,-20851 11761,-51873 12301,-62509 4650,-90321 6765,-28142 -13471,-54289l-40458 103192c-38642,-81725 29297,-91086 -19321,-153430 -60874,61144 -36152,2295 -47328,78515l0 0z"/>
    <path class="fil13" d="M14836124 10251122c59974,-218939 -213044,-233655 -288214,-165025 -79910,72949 21871,115537 90246,122573 126923,13051 118898,21211 197968,42452l0 0z"/>
    <path class="fil13" d="M13747983 9479338c-56163,6225 -86240,-8626 -121207,22696 20596,47628 16171,34232 73804,43653 -27946,17176 8956,10876 -36782,13921 -810,60 -51408,-4381 -51888,-4426 18766,115883 -114443,105787 193572,98377 -23521,-117278 -4200,-111382 14206,-217739l-170741 -28832c32747,60619 38702,49008 99036,72350l0 0z"/>
    <path class="fil13" d="M16629310 6486764c-1951,-1050 -4366,-6180 -4876,-4485l-23896 -24152c-22397,-20806 -19232,-13741 -44508,-33842 -63304,5565 -40233,41628 -65584,117623 -17222,51618 -38118,84275 -57109,134123 77015,-2505 178196,-34682 237090,-68119l-41117 -121148 0 0z"/>
    <path class="fil13" d="M14197352 8477333c60904,8055 61399,34112 136689,51963 71795,17011 136854,-1275 199078,-4680 30272,-61939 38598,-33392 65134,-107767l-307130 -24797c44538,73115 114023,55054 220350,66380 -79025,108982 -217889,-18152 -347363,-35103 8911,14596 8656,14761 19066,31742l14176 22262z"/>
    <path class="fil13" d="M11106193 6092719c-135,90366 6615,233490 55788,287928 12271,-201763 3465,-324231 36813,-522708 -82116,45362 -92466,125993 -92601,234780z"/>
    <path class="fil13" d="M9484543 6471388c50748,-45423 84980,-85520 129338,-144909 58519,-78335 67295,-117353 40608,-225060 -79760,52804 -162656,254942 -169946,369969l0 0z"/>
    <path class="fil13" d="M10996926 5991582c1335,4635 40757,309755 41177,318921 72200,-81050 -31667,-144745 83076,-496322 -101407,12150 -74465,47448 -107662,141864 -11296,32147 -8026,21301 -16591,35537z"/>
    <path class="fil13" d="M13887822 9167602c-62659,-6765 -55818,-28906 -95526,-67294 -52383,77060 29537,60529 56764,144099l-89916 -36017c102517,264812 332812,-166166 12226,-167516 41763,80015 -8371,7801 74930,51754 39662,20911 36212,22156 41522,74974z"/>
    <path class="fil13" d="M14527584 8532446c-11056,20582 18316,-5805 -14251,17747 -65689,47508 -28802,-10366 -110122,67654l-16441 14386c-64310,45918 -27632,-16966 -67265,59194l167306 -16021 93576 -29597c-38822,-103732 -9210,-59569 18736,-152815l-71539 39452 0 0z"/>
    <path class="fil13" d="M14528514 8292701c-40863,-74030 -185667,-122918 -277938,-150730 -120488,-36317 -96681,-8985 -107977,-3000l96516 31877 -99381 3615c54543,33932 301414,92586 388780,118238l0 0z"/>
    <path class="fil13" d="M15513312 6519841c60784,50794 79626,50614 129774,108202 41117,47223 64819,91656 107737,124673 9150,-153490 -80345,-284778 -237511,-232875z"/>
    <path class="fil13" d="M14482161 8697142c-37098,49668 -89301,46053 -157015,56824 32447,1875 72034,35537 115837,47523 82731,22651 96891,-4741 159340,-5956l2911 -36962c-4726,-285 -43818,-1785 -44718,-1920 -37083,-5611 -12241,-255 -33947,-12286 73414,-32402 55203,-18796 66814,-63709l-109222 16501 0 -15z"/>
    <path class="fil13" d="M9856477 6268635c46623,36842 41283,25097 96741,4515 41118,-15256 64339,-14146 92601,-28907 3645,-43217 6556,-89705 -59944,-124838l-129398 149230 0 0z"/>
    <path class="fil13" d="M10605625 5895816c17131,97431 84636,193707 55789,269507l975 27602c75230,-31472 53493,-94401 39138,-180837 -13261,-79805 -48469,-118432 -78051,-162865 -18136,22051 -20746,-35762 -17851,46593z"/>
    <path class="fil13" d="M14105441 8724474c42438,-97042 -99381,-213374 -173186,-235815 13201,62974 32927,95046 68360,131318 36992,37892 69949,69334 104826,104497z"/>
    <path class="fil13" d="M14195582 8288096c42423,93726 198613,64969 340252,61294l-129278 -45813c-89706,-20417 -124268,-18767 -210974,-15481z"/>
    <path class="fil13" d="M16428792 7280870c35267,25007 102171,16472 146079,18272 -21511,-81936 -64174,-117173 -156790,-130434 1860,58114 -18391,91536 10711,112162z"/>
    <path class="fil13" d="M13705156 9372411c20491,8565 36197,13260 61549,28231 60003,35433 -13276,22697 64414,24422 24376,-35072 12016,-35102 41162,-71150 -42737,-28906 -86225,-61939 -153805,-77915 1666,65510 -3660,34518 -13320,96412z"/>
    <path class="fil13" d="M13990054 8262504c113692,73700 53658,72755 99396,58624 14641,-41628 -9510,-36048 -41642,-76910 4935,690 43578,7740 43803,7725 39032,-2325 -1020,8341 25291,-13246 -30677,-30107 -31322,-37487 -69484,-59283 -111517,-63695 -91281,-11746 -97567,4275 11896,12616 7666,2235 21977,25996 28202,46864 12421,14686 18226,52819z"/>
    <path class="fil13" d="M10773096 6187000c8281,-8731 33767,12376 30737,-94221 -2595,-91011 -62404,-190333 -98901,-280458 -44388,116437 63814,181466 63229,281133 -390,66079 -27542,43578 4935,93546l0 0z"/>
    <path class="fil13" d="M11288679 6393683l-14220 -255571 -18797 -150190c-12450,73625 -49038,316250 -225,379314 22007,28427 13231,16111 33242,26447z"/>
    <path class="fil13" d="M16340406 7849482c-5670,75005 -1200,113603 45198,160976 36842,-47808 9480,-58099 4770,-128919 76490,2805 70070,29162 131604,52129 -810,-85551 -94972,-104482 -181572,-84186l0 0z"/>
    <path class="fil13" d="M14164740 8623112c165,-85325 -32762,-114472 -76040,-152245 -38987,-34037 -68419,-61519 -127418,-77750 40578,62164 46803,70610 91221,114503 34967,34562 65239,56958 83300,119437l28937 -3945 0 0z"/>
    <path class="fil13" d="M14017311 9018823c31502,-106477 -48228,-178062 -135099,-205273 14656,61503 23012,77150 54574,113032 49308,56103 36647,61324 80525,92241z"/>
    <path class="fil13" d="M10549837 6062417l-7201 109792c47658,-24767 21737,10261 52774,-61594 11700,-27092 20281,-43128 16486,-71075 -8416,-61744 -34548,-100866 -94311,-111607 12960,37277 36227,84306 32252,134484l0 0z"/>
    <path class="fil13" d="M12342348 4713845c42902,17641 124028,26056 157450,-28277l25456 -47358c-97251,-45 -153610,-3736 -182906,75635l0 0z"/>
    <path class="fil13" d="M10828930 6012239c30527,-112733 -8296,-203054 -85311,-240796 17866,82070 40578,183567 85311,240796z"/>
    <path class="fil13" d="M16027336 6658045c71629,38958 111352,22637 206833,21587 -23326,-65120 -113512,-63544 -159595,-52984 -64849,14851 -33077,15601 -47238,31397z"/>
    <path class="fil13" d="M14053238 8859858c24587,-112598 -60109,-190648 -133299,-217830 16322,71780 92706,140305 133299,217830z"/>
    <path class="fil13" d="M13960757 9055935c-10366,-84935 -90831,-99561 -186177,-112417 51843,46338 87366,106267 186177,112417z"/>
    <path class="fil13" d="M14448949 9501164l169376 -53268c-65585,-69500 -162176,-49579 -169376,53268z"/>
    <path class="fil13" d="M10335023 6244168l32162 5296c11251,-7876 19771,-35477 19816,-35522 -16861,-69185 -24526,-109178 -65194,-147670 -28397,66229 8746,86931 13216,177896l0 0z"/>
    <path class="fil13" d="M14612684 9287145c-57228,-53583 -73715,-73385 -185517,-67324 14851,43728 16531,40712 71615,53913 34307,8236 77900,12331 113902,13411z"/>
    <path class="fil13" d="M10471337 6188320l18736 -10396c-11386,-75470 15346,-113107 -50028,-151555 -19592,54454 -7861,116813 31292,161951z"/>
    <path class="fil13" d="M14446158 9373386l169421 -4291c-37127,-42407 -148194,-77570 -169421,4291z"/>
    <path class="fil13" d="M14470160 9620047c62224,-7081 106777,-55324 132924,-86481 -70400,-315 -110077,34772 -132924,86481z"/>
    <path class="fil13" d="M16431102 6746086c-8521,-80375 6510,-67744 -61249,-78440 -18331,65434 -5416,72545 61249,78440z"/>
    <path class="fil13" d="M10986230 6301157c13636,-37997 11566,-15331 -1965,-54018 -22007,-62899 -31622,-58819 -46743,-72965 2985,65089 930,104077 48693,126983l15 0z"/>
   </g>
   <g>
    <path class="fil1" d="M18758487 6942464c64699,10230 33197,2115 50043,38087 -50163,12151 -47073,15016 -50043,-38087zm24377 -45108c-64474,-18812 -25052,6945 -30677,-36918 25411,16786 13546,3016 30677,36918zm38732 -116213c12931,15196 12556,-7980 29057,51769 7111,25741 5040,34352 7396,58428 -65735,-19711 -81666,-48003 -36453,-110197zm2161355 -84170l100266 -5281c30452,69965 102547,245971 102562,317826 15,51513 -1020,56524 -26672,89076 -42287,-46068 -54213,-139974 -76040,-209954 -49653,-159190 -77765,-98916 -100116,-191667l0 0zm1160235 -288859c67969,69425 -17191,83195 102156,303275 40548,74780 65735,236160 81321,329181 54438,325071 97911,268832 176366,631931 -109492,-321261 -121553,-54184 -235830,-636131 -50343,-256382 -249331,-506313 -157420,-607450 26821,-29506 -4546,-12285 33407,-20806zm-145990 20731c41733,92256 35628,160706 79266,254492 103296,221939 79055,193092 79025,477691 -90,176501 -31892,346897 -160226,400706 40218,-105712 83856,-105637 104077,-264977 35507,-279649 40248,-383065 -86661,-625646 -125153,-239235 -11025,-150160 -15496,-242266l15 0zm-2379723 82791c1035,-3255 4620,-5596 5430,-12451 825,-6945 3585,-8461 6420,-16501l114443 18856 -61219 23087c-9241,44477 -6556,35897 -26267,72814 -49563,92811 -2205,197728 -115192,151180l76385 -236985 0 0zm-776316 495587c18077,-139779 86376,-42993 161306,-246346 37982,-103087 2715,-101362 1275,-103567 -19126,61384 -39273,137004 -84485,169691 14070,-94611 23416,-75635 -4846,-109732l-28172 89271c-96816,-102892 127059,-173231 221070,-211724 144384,-59104 214454,-82685 400181,-103432l5190 24962c56179,228765 -81095,161936 -52549,230745 31638,58009 -10605,11881 60484,37367l61489 25232c42618,16381 75530,-2730 98542,-35792 61849,-88836 -14446,-202228 110092,-229470 6795,67579 -34637,89466 -56149,161725 -19096,64189 -14506,127659 -19576,192673 -101422,11866 -186252,-12526 -250156,-58774 -163061,-117968 -324156,20971 -432508,57589 -111727,37757 -94761,18676 -191188,109582l0 0zm4185436 -1116102c55594,-38958 55999,-14581 67339,-82086l4696 -28936c26386,37472 15331,13230 23656,67204 31847,206413 34607,111862 49293,194667 12781,72095 -7875,74270 27242,139974 24017,44988 38838,62795 58534,108067 53313,122513 42378,142615 19366,276123 -14806,85821 -17776,193288 -72020,257867 -13035,-29042 -255,-57214 11371,-105712 12421,-51798 16681,-76550 15856,-132413 -6615,-451485 -124238,-335302 -205333,-694755l0 0zm-4185436 1116102c79551,56598 343508,-169196 464521,-146395 52488,9886 122752,52294 148824,93846 -399881,-15721 -268622,47718 -626245,133974 -35238,8491 -53269,18901 -64309,57229 142329,48888 297634,-61429 463559,-69755 208859,-10485 256232,-104527 496923,-52473 35867,75335 17266,134499 49098,203713 36872,80195 102051,73475 67309,175196 -99561,-35252 -80720,-151209 -144054,-248671 -60844,-93651 -209954,-36422 -299615,-12046 -202288,55009 -466050,113078 -667288,91041 31067,105682 104572,101917 220920,84231 111232,-16891 205093,-1260 315035,-4245 229860,-6226 146559,-135129 357458,-55729 65284,24587 60169,14356 79340,83795 -87621,5716 -152065,10741 -231660,24677l-463590 55609c-86090,1215 -160195,-35958 -234720,-25337 36032,67669 21361,8790 24407,74435 6900,148749 137679,340897 150999,584167 7231,131964 -21736,166556 -35537,273348 179232,-148104 -77915,-748428 -66064,-842814 156385,52608 282858,24556 448274,15136 237270,-13516 450674,-130719 599649,46998 40322,48093 59088,113572 92586,164575 47853,72860 190437,231885 209458,312996 -25127,26956 -50598,25891 -85250,45452 43247,28487 258646,-47043 143544,86976l58684 -20551c-4831,-100972 -152710,-284254 -204419,-364689 -57288,-89121 -87515,-194532 -128543,-296014 -32132,-79445 -36992,-27392 -67774,-83555 -21647,-39468 -10021,-68885 -22727,-113678 -23851,-84200 -108847,-233940 -114547,-314795 -7906,-111832 138984,-401516 44613,-444824 66889,-7620 666688,99652 749988,121943 46563,52144 82566,129924 121103,199918 44928,81620 7951,208844 116648,216929 -40923,-159400 -12796,-138684 -54214,-203353 -33182,-51843 -51063,-139689 -64219,-204838l61114 11700c22966,72935 4140,116948 48903,193093 73310,124688 36092,49473 59974,197938 11986,74465 132503,258496 187947,313175 82355,-153700 -67039,-186207 -143034,-509643 -15481,-65869 -42828,-128468 -62209,-181677 68524,9706 72169,56374 109177,164336 112717,328761 165761,225719 165461,397901 -240,133703 4605,126983 45062,240330 19067,53389 11506,429553 -5310,499322 -54288,225255 -156880,240751 -251086,304205 2955,2595 7695,50763 93441,-5610 26597,-17491 49458,-43248 71195,-66350 87170,-92616 170621,-206803 205213,-340777 30332,-117472 -16501,-147399 -26912,-252031 -25532,-256696 -49533,-228060 -13861,-485431 44958,-324276 -52338,-284929 -71524,-448124l75289 -15421c103732,261167 55834,136314 71285,342457 3345,44553 17671,83765 23627,132969 10170,83870 -1156,185456 2265,277082 3450,92826 -24812,195133 -7711,269448 142824,-59269 98467,-652617 76040,-815228 -17356,-125858 -79310,-113572 -86391,-220904l76505 -11941c20117,75170 67490,118463 81801,175316 16441,65285 14521,144625 38012,216929 29972,92271 37728,129459 22277,233281 -24647,165625 -48063,265742 -113213,416561 -67774,156866 -65689,334777 -180596,470761 -40263,47643 -41838,18931 -52714,86450 88761,-46593 188667,-247441 234330,-343912 41793,-88310 37278,-133778 62824,-225569 19277,-69230 56044,-142975 80796,-206939 115657,-298939 63784,-240450 13606,-436048 -19742,-77000 -25862,-163645 -43713,-244741 -22487,-102216 -101677,-147969 -14416,-179831 32807,11640 16876,2355 39422,33497 40953,56568 51079,120353 57859,190347 8836,91101 26882,182172 69395,249286l7440 -22546c405,-2535 2100,-8146 2445,-11326 10576,-98196 -34457,-196138 -39737,-290824 -4576,-81950 -21422,-63379 29852,-104361 2370,2985 4515,4635 5040,10290l7965 22547c750,3840 1635,8430 2296,12870 270,1816 2235,48364 2865,57169 8625,122033 66214,186537 51798,315441 -25772,230534 -91191,394270 -169601,602453 -24451,64940 -60574,125769 -77990,179307 -29417,90396 -10126,106192 -62914,195163 -25457,42902 -84575,132233 -91956,165595 160360,-91896 479161,-948586 467295,-1198562 -3780,-79955 -49743,-253276 -72559,-334927 -17117,-61189 -6121,-22531 8715,-97326 80990,89841 101467,271818 135579,408656 74675,299555 -246106,737643 -330756,1020066 -23297,77720 -77300,125678 -110738,189688 144580,-67940 140844,-252347 220905,-366129 80315,-114157 136583,-239491 215654,-360383 98571,-150700 112537,-271668 83975,-488447 -30272,-229905 -163886,-339367 -118898,-419112 70235,7740 47733,58234 93186,127523 32612,49728 61309,73310 80061,148120 50178,200263 45212,199228 4200,394540 -37938,180762 -36663,212354 -124493,331027 -42288,57138 -184962,192522 -180762,271877 51108,-54483 104917,-138474 178122,-178976l-83016 141309c25652,41778 -12601,11281 33662,16156 58699,-55894 -4455,-26447 157946,-159640 136733,-112133 202138,-202604 197562,-446564 -1590,-85011 -37697,-221760 -9885,-285079 72289,403721 53238,373014 238230,731253 19066,36947 41463,63004 55519,110557 19291,65239 4530,79280 36722,119377 16021,-28576 20026,-54108 16111,-100086 -900,-1290 -5040,5820 -16741,-27767 -7380,-21211 -5220,-22216 -7635,-42798l41327 49354 1035 -67745c-14176,-70669 -39242,-93231 -59359,-153535 -21376,-64099 -7155,-124868 -32807,-180191 -17416,-37548 -17806,-11491 -37307,-68675 -62734,-184002 -53059,-448259 -154000,-603294 -57814,-88791 -71195,-240660 -84951,-362108l95257 -42948c102711,327381 66124,668968 194442,988279 32717,81425 31277,238095 110047,288153 115898,-82340 -27091,-396220 -68119,-676543 -12301,-84081 -12811,-313310 -42198,-369504 -38357,-73355 -116437,-137904 -133088,-291649l81875 -41148c16786,33273 39677,93441 57109,130599 69049,147189 95811,343327 106836,517053 17627,278148 137049,371409 77960,693840 40983,-14926 7216,3555 38028,-29672 51363,-55398 90561,-72455 133374,-138114 -39408,-62659 -45633,-40892 -47704,-147624 -3675,-189313 -62704,-667558 -180146,-796432 -51273,-56253 -49563,-32897 -69875,-127853 -13051,-60964 -30512,-115403 -18481,-159175 102847,-16756 107947,108787 167171,192582 53883,76265 86361,181752 108787,285514 87681,405656 48228,346402 64054,678268 82955,-45093 98436,-131333 115013,-256516 20731,-156640 -26867,-217829 -48679,-339052 -79115,-439544 -174896,-394496 -217859,-568237 69740,-64939 35388,46878 66290,-70234 200128,430797 101601,308795 203533,585277 87965,238591 30587,444449 -49233,658303 144369,-85806 74479,-310580 135548,-432988 32807,202543 -36047,216284 8446,279603 61204,-123983 41598,-462165 855,-615490 -30062,-113152 -64279,-160810 -97791,-251641 -32087,-87006 -103792,-156475 -121808,-249556l74360 -44763c2670,-1635 6480,-4155 9150,-5655 29777,-16861 -225,-9811 37713,-16786 24811,83150 38732,169016 59913,259381 52054,222120 148585,249391 106957,508788l-19261 224925c-6705,52548 -20776,21931 6766,59929 41177,-35403 34982,-76085 42692,-135504 40968,19171 37203,43728 78515,70339 54619,-34652 58054,-50388 87726,-114622 25112,-54363 48648,-89871 75605,-137484 44058,-77735 112117,-246166 33662,-329046 -12151,19441 -5790,-1215 -10816,33107 -3180,21841 -1740,20056 -2505,41628l-47388 227879c-33512,84351 -82505,187678 -136284,245251 -1665,-3150 -3180,-12226 -3345,-10170 -90,1065 -23356,-1230 25157,-106882 49263,-107302 13951,-160541 30377,-273798 8550,-58849 29237,-95001 30482,-157480 2640,-133539 -69335,-165026 -97642,-240886 -17521,-46908 -11280,-71404 -36212,-133253 -16681,-41403 -23236,-100897 -30302,-152035 -6375,-46068 -2760,-77840 79370,-63259 61249,10875 42783,33902 28127,96066 -78230,331851 124553,171776 97446,523849 -6915,89691 -66394,208693 -32537,285858 62119,-44583 37203,-157075 56284,-229635 84050,-319580 -94746,-308900 -99352,-451664 -2070,-63829 48529,-183912 88581,-213794 -53763,144565 -40217,204584 15916,336112 98377,230490 50463,132894 88266,302690l14731 40022c1485,3541 3960,8821 6930,12571 3391,-62494 -15556,-115192 -10395,-176516 6645,-79130 57873,-570 -59134,-174357 -55999,-83150 -89631,-172481 -33812,-268937 32327,-55849 22441,-54723 77810,-73370 -28112,80991 -51184,186492 -52129,274833 65735,-34667 36963,-90441 80571,-141204 77960,-90726 178691,-113332 148149,25727 -12466,56748 -14776,58593 -15571,119137 67579,-34232 4845,-165145 215099,-258721 -10096,192987 -155380,246106 -164411,321605 -15,225 37908,157316 43668,189643l76895 165145c32057,-85700 -15451,-94641 -37352,-177671 -21467,-81290 -20267,-110347 -55294,-174641 111472,-180987 187692,-112808 187557,-381745 -124973,-27317 -146364,41508 -224504,71975 -252827,-241306 -172331,-120923 -624191,-170456 -48063,187317 -49683,119152 -192807,202813 -116963,68374 -132249,83090 -266402,127673 -293929,97686 -301265,82355 -497402,305450 -107182,121912 -354638,180956 -523009,265427 -429343,215384 -909074,68989 -1352428,-465 -108742,-17026 -252766,-18991 -348997,-44838 -123698,-33212 -209459,-57619 -361553,-46683 -850555,61174 -984139,598148 -762485,615025l-34172 -54754c22576,10081 12766,11326 39693,11281l60183 -14716 0 0z"/>
    <path class="fil1" d="M20157223 6583475c50328,70460 60498,137394 42722,234556 132924,72289 83511,103461 346268,258766 75095,44403 160090,149245 226154,228105 23642,28202 38328,48303 66320,85626 90440,120577 114097,331206 90320,511908 -31142,236610 -203848,260071 -202633,388345 84786,-25892 96892,-44973 161621,-83211 197713,-116767 177221,-373884 160570,-606999 -5895,-82550 -5925,-139449 -58144,-195267 -98196,-104947 -144009,-196258 -225569,-289144 -37788,-43053 -112807,-72830 -157075,-100777l21886 -16741c3570,-2685 16831,-12346 20206,-14851 25712,-19141 3361,3991 26162,-19741 -5595,-105697 -68029,-87531 -99096,-175316 -19832,-56014 -15151,-178902 -93921,-125633 -16051,14025 -22982,18316 -4501,70009l85881 224445c-13816,-9316 -38028,-23702 -59629,-34653 -202753,-102756 -131258,-156715 -198268,-287688 -11341,-22172 21377,-43098 -149274,-51739l0 0z"/>
    <path class="fil2" d="M19884505 6559699c3810,23626 60589,-9796 7425,194847 -78875,303590 10321,196723 34488,318261 7080,35597 6315,99111 13305,143364 20117,127284 139194,234705 211319,376825 197833,389860 296344,336321 240061,608694 151329,41553 160735,-159295 146664,-220919 -14521,-63589 -17731,-38583 -61024,-77030 -75035,-66665 -261242,-412947 -308525,-479581 -103506,-145885 -105337,-188502 -176606,-338902 -45273,-95541 -7051,-145510 -6961,-257582 60,-88161 15976,-118882 -1500,-188547 -6285,-25082 -9870,-55189 -31922,-76475 -51678,-49863 -62449,-5880 -66724,-2940l0 -15z"/>
    <path class="fil3" d="M21781768 9015508c-47044,-14236 -53809,-26807 -74105,-64505 7140,3421 45573,19127 48453,21377 37487,29102 12886,-4486 25652,43128zm-198988 -214499l65899 82685c-73250,-14266 -71750,12946 -77690,19876 78515,39018 54663,6946 105817,73340 25111,32597 17101,21061 42467,48663 24047,26147 20627,9226 33333,45213 -52819,-28952 -112883,-132578 -190033,-106597 29492,64549 156625,78530 182082,163271 -100716,-6091 -68389,-102997 -168701,-82596 -85700,17417 -28817,5776 -53853,28052 65254,34623 75005,5956 124268,73535 -41268,-18061 -89601,-53973 -130539,-30737 26777,33962 158306,67114 205319,127673 -100087,-15406 -123863,-84875 -193033,-49533 46893,37758 137529,55594 170981,101242 -32237,15286 -37847,5355 -92301,11655l-64399 11116c-3120,750 -8521,2505 -10981,3135l-19981 6841c78965,61969 101557,-19772 170501,30302 -48708,78095 -104257,-7786 -174401,45468 37397,27451 100266,18136 149859,23851l-5820 59584c-51273,-19231 -90426,-38057 -143049,-7680l110977 45452c-73985,33918 -76385,-12645 -137949,15151 21842,71705 49023,41373 114893,60619 -39783,34683 -71555,-5595 -157346,22397 69710,30332 82791,-2625 142225,38207l-32748 13471c-93036,28802 80766,-19696 -23611,5761 -25847,6300 -6601,-7096 -41358,8715l66020 24302c3165,1140 10545,8535 12870,4800 2355,-3810 8971,2715 13066,5055l-54288 37083c8460,12135 9705,2280 -15031,15466 -48483,25816 -45723,24121 -103267,25066 14026,36003 -3030,7051 29402,28232 2085,1365 22756,7186 34562,13876 -25411,15046 29912,-18136 -22861,10606 -20132,10965 -20147,11310 -32132,21766l107317 5445c-81351,16862 -51244,85431 73879,57769l-94386 49743c62539,14656 126803,-22741 164996,-54408 165,-119663 -18661,-143364 4440,-280668 32522,-193378 143589,-624881 144099,-700906 -48318,-2970 -67969,-11745 -94896,-28141 35163,-26132 -12690,-2550 29792,-9361l80225 -11296c-3450,-2085 -8640,-3630 -11115,-4710 -2490,-1080 -8041,-3390 -11071,-4725 -66409,-29192 -134814,-79850 -222449,-93126l0 0z"/>
    <path class="fil4" d="M18674107 8367586c-20177,-27227 -21272,-34022 -16591,-84936l43337 -154600c3631,-9780 9226,-24901 13786,-33842 10651,-20866 15916,-24017 23012,-33737l-10126 277398c-23206,-53584 5566,-78590 -41778,-121373l-11640 151090zm187137 -180972c-17761,-78320 -46503,-154105 -67955,-235830 -23476,-89421 -27136,-155815 -46713,-241831l-53448 23732c-2130,630 -10366,1020 -14716,3570 12436,186852 1380,305150 -53643,482236 -44868,144399 -15797,363234 70639,432148l34577 -181857c35913,93006 65570,397091 48558,498842l-87020 26867c68884,45483 86060,15451 164680,-15106 81681,-31742 137709,-5790 178797,-45513l-219899 -12781c2160,-185712 14536,-223364 -15916,-415211 -21617,-136164 -40803,-264182 -29537,-405747 34082,101692 345,225225 49788,324456 34517,69275 6691,-40187 30077,67925 10726,49593 -2790,155455 36722,227444 13336,-28021 -7455,-456044 -24991,-533344z"/>
    <path class="fil2" d="M20554958 8250068c73040,5490 127313,-54033 171821,-97041 152185,-147130 77435,-624566 21647,-702886 -150235,-210883 -348263,-352267 -398996,-448949 -38298,-72979 -66169,-119572 -142074,-138429 -26582,144250 124163,252092 182487,325251 70849,88866 295009,343778 314090,459255 42378,256562 -120,414972 -148975,602799z"/>
    <path class="fil1" d="M20598461 7854208c67549,-114008 -73325,-282784 -118733,-347138l-270617 -364988c-20326,-37428 -26312,-42063 -46383,-75365 -54109,-89706 -43293,-114368 -15586,-207239 36812,-123398 -6676,-119812 -31382,-200218 -25952,-84470 37982,7741 9480,-47883 -17536,-34232 -66454,-30977 -106221,-28787 21451,97777 59508,70895 21916,202873 -78860,276828 51798,367569 261242,641292 28967,37862 69574,104047 102637,139959 143079,155425 52503,24482 134903,229635 20687,51498 19787,48753 58744,57859l0 0z"/>
    <path class="fil1" d="M18921248 7635478c121042,134304 470445,106507 674713,82026 226185,-27092 401096,287103 464610,299674 21587,-86571 -93366,-199948 -133118,-260372 -192508,-292609 -452505,-117412 -1006205,-121343l0 15z"/>
    <path class="fil1" d="M19101739 7888350c43128,-19066 122723,12496 182307,26686 73220,17447 138714,13606 223425,19187 81470,5370 167395,-6391 241785,1650 99397,10740 93981,56553 137049,90306 42348,-23777 41718,-17641 59599,-62059 -108427,-104782 -279888,-114053 -423267,-113888 -79731,90 -171447,7966 -248057,-2805 -91820,-12931 -133313,-39257 -233970,-16831 330,96966 40563,154720 116783,196198l328251 154735c0,0 337717,43728 380830,9870 -24872,-66469 -131214,-71659 -207389,-63184 -107677,11986 -143619,8011 -230595,-39182 -129758,-70415 -227129,-88506 -326751,-200683l0 0z"/>
    <path class="fil5" d="M23283815 7039820c55308,-58849 62404,-8941 97071,-81290 31937,-66680 30962,-136914 101856,-261377l71300 -98467 -161890 432568c-40698,18137 -69140,25022 -108337,8566l0 0zm433333 -413022c-1996,-69154 2145,-17476 -15316,-37862 -68480,41042 -106057,107302 -155995,170441 74014,-201658 89450,-138594 148704,-229815 90216,-138894 -16531,-199003 -5310,-309575 -74195,45588 -29147,86346 -11836,153100 22276,85925 18286,129023 -61609,151600 37007,-78395 4350,-230340 -17131,-260567 -88281,65899 3705,149049 -47673,243240 -65059,119258 -4290,-24421 -97071,191263 -26102,60694 -55489,147054 -83901,203878 -59449,118928 -146934,99951 -164005,107017 17581,64354 32162,52053 52323,110182 276258,-34037 136299,-51978 239085,-241141 49639,-91355 97747,-93261 219735,-251761l0 0z"/>
    <path class="fil5" d="M21964869 9663909c-51348,8461 -49728,-720 -83900,42738l100056 15151c-28951,73115 -36722,11761 -47448,87201 53404,-23372 65930,-36558 106837,-72035l-10200 -21331c-53674,-125618 -42753,-440984 -1801,-548586 45498,-119542 54454,-454589 20972,-592283 -26657,39828 -19036,103792 -19021,162131l-26282 7425c-4515,1305 -20956,5445 -25727,6990 -50223,16307 -10170,-17071 -45633,19892 62299,47598 88446,18826 99382,100101 -76970,-585 -99247,-70654 -126278,1965 49218,74780 130268,-32507 134798,112628 -51543,-17236 -109372,-57274 -133433,8595 43487,16426 110707,-26056 126023,57709 -26237,19921 360,12061 -37968,11626l-139119 -42873c-13621,24121 17101,16456 -30827,81440l-12796 14326c60139,34892 102367,26927 172302,55624 -42798,37547 -40638,7020 -107782,6780 30737,46593 10230,34997 44958,49308 41147,16981 10005,-15961 50988,8491 -40488,25442 -82610,-660 -114143,32402 49639,55474 82056,24287 107287,56974 44238,57303 -30827,47343 -61984,66304l59989 41433 -7725 90785c-24422,12211 28382,-11040 -15736,4186 -7366,2550 -14761,11160 -16321,6705 -1065,-3090 -6526,2580 -9586,4260 14116,17297 7861,9616 22577,27002l15916 18466c-3706,2821 -9151,5506 -11836,7426 -2550,1845 -8116,5340 -10981,7530 -2655,2010 -7320,5371 -9841,7381 -29446,23656 -1590,-11041 -20986,23116 2850,1155 32837,11956 33092,12076 27662,13201 13831,5685 32177,20941l0 0z"/>
    <path class="fil1" d="M23504704 7129811c61939,-120263 22036,-152440 127493,-238246 96831,-78770 224190,-36767 265337,16216 115943,149320 -254761,203309 -290779,231195 -60363,46713 -29056,76985 -68944,123473l-48588 -24286 3435 41432c57229,16411 49833,20627 95526,40698 23267,-143979 17626,-139989 151375,-171266l241771 -43833c44898,-104557 -134514,-373554 -288724,-338197 -122708,28127 -192777,261647 -202978,284434 -26102,58248 -52053,47733 -52879,103971l67955 -25591 0 0z"/>
    <path class="fil1" d="M21857087 7812730c-59133,40862 -119902,67909 -147864,133538 92511,8566 90441,-15601 133178,-56598l166571 -121343c22277,-18031 36318,-25772 51799,-39318 50583,-44252 37217,-59478 98406,-85475 131528,153250 147849,369909 181827,420012 65059,-118808 34802,-170681 -26492,-284673 -26447,-49174 -111172,-215264 -140184,-249946 -57904,17296 -124043,159670 -317241,283803l0 0z"/>
    <path class="fil1" d="M22020028 7874549c79445,1065 127958,83165 159955,149860 -50958,-16187 -126443,-102832 -159955,-149860zm-180042 109552c72890,-15886 31817,-26162 118418,-58804 146634,91566 -30722,62149 231075,146770 28067,57813 -7651,52758 45453,96171l18901 -98062c-14716,-95391 11281,4081 -40503,-69289 -43922,-62254 -27106,-77750 -108802,-180057 -19576,-24511 -13786,-6405 -28636,-40562l75514 -17041c34203,66904 60334,189522 148885,226559 -22801,-103071 -89526,-192642 -135279,-266237 -172091,17431 -172901,128948 -249961,177327 -57094,35822 -54828,10140 -75050,83225l-15 0z"/>
    <path class="fil2" d="M23821794 7403473l63019 178557c80466,-3255 104287,-51648 143950,-97221 41642,-47868 93096,-89241 61339,-176862 -40293,-10530 -66485,3075 -139539,22592 -59119,15796 -83061,34097 -128769,72934l0 0z"/>
    <path class="fil2" d="M19810715 10255818c55969,33197 291409,-2835 384220,-28397 12886,-58624 -24662,-75635 -45453,-131544 -50328,2221 -140844,36603 -199183,53914 -118958,35267 -128408,45903 -139584,106027l0 0z"/>
    <path class="fil5" d="M19452732 8260974c-165776,-45483 -179952,-155140 -265847,-115028 4260,92661 342022,243511 591128,191068 55399,-11671 42258,-1050 45423,-54694 -52623,-19726 -265547,7501 -370704,-21346l0 0z"/>
    <path class="fil5" d="M21409053 10199039c21782,114472 241876,78485 342998,68404 6750,-58473 -1996,-107631 -15886,-153849 -185442,-4831 -228075,103806 -327112,85445z"/>
    <path class="fil1" d="M21983981 8115644c46308,-46863 48423,-49233 78740,0 -35838,18602 -48573,17927 -78740,0zm-128829 -33422c58474,-40637 73760,-83630 135204,-58474 -28217,60514 -53058,50284 -135204,58474zm-116482 78875c118627,46698 150879,2386 240720,-9450 32702,-4306 93381,-825 120953,8130 71510,23222 18001,26237 81680,39228 13081,-69095 -22996,-67385 -69559,-97266 -153685,-98617 -68330,-177927 -310400,-39243 1725,2355 4830,5580 5760,6630 74240,83061 -35462,12271 -69154,91971z"/>
    <path class="fil3" d="M21883909 8236252c124838,-24376 153895,-13261 270738,9226 -90471,-125873 -455010,-1470 -458040,240 30332,21856 120143,69784 166136,91776 40127,19216 173021,37517 211618,20581 -33377,-50838 15256,-17716 -51513,-31502 -68569,-14161 -103402,4065 -169106,-46803 106642,13081 170621,48513 239491,30512 2865,-750 8685,-1185 10680,-5940 1965,-4681 6706,-4441 9886,-6871l-58954 -20671c-89241,-14941 -90336,-5956 -150055,-28832l-20881 -11716 0 0z"/>
    <path class="fil1" d="M21798389 10024893c1320,56598 -14641,53478 46113,72454 40427,12631 255526,26477 300394,3271 30347,-258932 -206578,-58594 -234900,-52459 -51064,11041 -42138,-20146 -111607,-23266l0 0z"/>
    <path class="fil1" d="M18768718 10113699c58174,143064 384355,21556 397856,10500 -19322,-36302 -53764,-86735 -83361,-110662 -84335,19381 -83180,43503 -139509,84741 -65674,48093 -87141,12180 -174986,15406l0 15z"/>
    <path class="fil1" d="M23543916 7396783c127434,17071 49339,-123653 203879,-111352 77675,6180 53178,32087 126293,-14746 55083,-35267 81995,-30317 102441,-81245 -38972,450 -268412,17596 -294034,26026 -61744,20342 -26401,43713 -79790,86256 -53838,42903 -82400,-5221 -58789,95061l0 0z"/>
    <path class="fil1" d="M19024469 8284180c51559,133989 135639,85281 206609,163751 -71465,38192 -141894,-65779 -250036,-76595 18946,89421 131708,138324 223394,154390 43083,-39573 62749,-44358 72065,-125093 -35673,-18826 -89301,-31757 -135669,-54334 -59344,-28907 -63409,-50688 -116363,-62119l0 0z"/>
    <path class="fil1" d="M19282066 8326798c67639,182022 375699,140079 456164,112687 66200,-22531 19802,12751 45378,-35942 -31337,-24077 11101,-19396 -61684,-16066 -11940,540 -49368,11281 -65149,14071 -165130,29252 -236565,-55819 -374709,-74750z"/>
    <path class="fil5" d="M19232788 6659140l106987 -44793 -42498 117848c56539,-5940 41148,405 60469,-53943 4185,-11791 10426,-36888 14641,-45228 26642,-52774 3225,-13366 29027,-37383 3450,7486 10095,5026 9555,31907 -795,40998 -37337,90126 -51168,123353 104767,8761 123248,-110437 125093,-214919 -77135,-6555 -147429,17836 -217244,51769 -57289,27841 -39152,-19097 -34862,71389l0 0z"/>
    <path class="fil5" d="M21718373 8380982c-42167,-4786 720,-7261 -26161,7320 19801,28292 -14866,15961 50613,53328 120098,68525 146994,31938 203353,64160 -167681,16906 -147564,9240 -266222,-49384 -5505,74600 102442,100402 167591,91326 155950,-21706 191832,-11070 205108,-83585 -57079,-29867 -121253,7830 -213944,-28262 -62479,-24316 -83090,-50658 -120353,-54903l15 0z"/>
    <path class="fil5" d="M23504704 7129811l-43668 72739c-6045,-2130 -33392,-16501 -37502,-17296l-25277 1875c-1410,285 -5520,2551 -8056,4216 19337,50808 27347,43142 99022,46818 46203,-107002 135804,-152110 215504,-227130 97596,-15001 162640,31877 178091,-78275 -66964,1890 -27211,13306 -80390,6795 -155440,-19036 -76730,-9960 -187377,101437 -36992,37247 -64579,68854 -110347,88821z"/>
    <path class="fil3" d="M19476719 9086132c27181,-3945 128723,-43308 145689,-55038 -72110,-44478 -109297,-11161 -195508,-63230 -71344,-43067 -104811,-26476 -192162,-8805l-1215 19381c135,1155 780,5386 1035,6586 270,1275 1530,5505 1875,6780 11401,40128 4410,29702 140319,-2010 -18106,-1995 -19366,-5520 -42363,8700 -51378,31788 -26521,21692 -41702,49174 99066,-13651 112927,-62104 192822,-33047 78380,28501 3615,-3916 39588,27586 -76370,18526 -168566,7066 -230805,43188 23671,16051 149544,5505 182427,735l0 0z"/>
    <path class="fil5" d="M22462226 7962260c50119,-88806 -55728,-226290 -88595,-288874 -36723,-69950 -97447,-206143 -138699,-262292 -54004,82205 156250,332001 209053,508608 23897,79925 -32027,-28832 18241,42558l0 0z"/>
    <path class="fil1" d="M19287751 8589990c14971,72320 89136,149665 189223,149830 45558,75 86165,-24632 133703,-37023 128979,-33617 91776,-23251 105547,-56823 -63889,-36108 -152530,51453 -237360,43412 -114578,-10845 -76760,-119302 -191113,-99396l0 0z"/>
    <path class="fil6" d="M19813070 9749655c-21961,47748 -38612,76130 -74690,103627 26867,-43458 29507,-79370 74690,-103627zm0 0l17311 -51918 -163705 75575c-56779,23191 -23252,9855 -45528,27781l88491 10351 -49399 49458c43098,23387 26147,58774 37143,31697 1020,-2505 4530,5356 7080,7726 63214,-6106 68585,-8716 99412,-48633 22051,-28577 36602,-51019 49143,-90261l-39948 -11776z"/>
    <path class="fil5" d="M19671431 8036514c-109282,14401 -194172,-30182 -240780,-17761 21496,35732 -34458,7216 30932,52549 52833,36632 142914,7845 168355,3600 132024,-22022 151420,9825 250907,33437 -23717,-93771 -20372,-96726 -209414,-71825l0 0z"/>
    <path class="fil5" d="M19311273 8442111c18931,40022 4605,57288 58984,98331 25351,19141 67204,34472 108727,40667 79040,11806 218339,22772 258811,-47163 -114052,-23221 -155260,21737 -238185,12721 -141774,-15436 -89481,-76565 -188337,-104556l0 0z"/>
    <path class="fil5" d="M19257494 8729334c43113,36992 151495,110092 219540,103552 80465,-7726 168955,-38553 220949,-90336 -113752,-32102 -23582,58984 -258677,56794 -29972,-53284 -83900,-109657 -181812,-70010z"/>
    <path class="fil2" d="M20462012 6833242c7771,-17402 10156,-5881 3345,-38418 -2865,-13666 -11580,-28307 -14896,-45498 -9420,-48813 1111,-59539 -13020,-108217l-74360 -7995c-28082,105396 18151,214814 98916,200128l15 0z"/>
    <path class="fil1" d="M19009423 6829521c84981,-2475 89871,-9600 118238,-78950 22816,-55788 49113,-72139 57724,-131123 -80885,-840 -62959,19816 -105877,83495 -33677,49968 -49368,75665 -70085,126578z"/>
    <path class="fil5" d="M18841713 9752115c-16457,11476 22276,30 -32073,16936l-77015 10351c16187,14731 -26821,33302 92901,21901 28442,-2715 56089,-7635 85356,-10230 36317,-51679 15481,-18346 32147,-83466 -51633,-1890 -66334,14011 -105847,2640 -56898,-16366 -19636,-30962 -102261,-11250l106792 53118 0 0z"/>
    <path class="fil5" d="M21847802 8366056c-68435,-27692 -91416,-62614 -171821,-81951 -5101,65675 3975,59314 57858,78635 90501,32477 221370,59914 319521,58039 -69994,-63229 -90636,-8205 -205558,-54723z"/>
    <path class="fil1" d="M23732104 6520516c19201,54529 75094,105502 141729,79881l13186 -120983 -154915 41102 0 0z"/>
    <path class="fil5" d="M23495208 6022409c-4380,90831 -7605,126938 74255,123443 -26717,-63064 -37757,-23776 -44598,-111697 10066,2895 32762,11176 34742,11656 19502,4680 5071,4260 33423,5340 -55294,-128258 31247,-79550 68434,-170831 -112432,32057 -89796,73580 -166256,142089l0 0z"/>
    <path class="fil4" d="M21632223 8508970c25366,41703 4875,46908 61294,76430 55983,29297 138294,27152 194892,17266 107872,-18841 73010,-21436 90621,-39123 -97101,6556 -103011,24347 -199348,8656 -85175,-13861 -81485,-48978 -147459,-63229l0 0z"/>
    <path class="fil5" d="M19723500 9743640c6990,-25787 10695,-54739 29491,-79761 27452,-36557 10951,-2115 30467,-28996 12646,-17432 6346,3660 7186,-28727 -60049,24226 -48258,26476 -93306,63004 -44463,36047 -70550,20371 -108082,53268l16651 37323c62614,-18662 34397,-20342 117593,-16111z"/>
    <path class="fil3" d="M21810959 8705933c63830,-52114 77690,-23312 130644,-56614 -61279,-27167 -92691,9000 -161786,15301 -83270,7575 -90620,-34637 -155665,-66769 23252,74974 97417,116917 186807,108082l0 0z"/>
    <path class="fil5" d="M19370917 8857397c-110272,-15361 -52039,-21511 -124583,-40502l-17386 74540c390475,-330 75214,25801 254146,45422 -35852,-45077 -32372,-68344 -112177,-79460z"/>
    <path class="fil5" d="M23717148 6626798l6180 72590 109627 17416 36497 77210c1050,-1170 54349,5580 -420,-101332 -20386,-39782 -29477,-20311 -93186,-17641l-58698 -48243 0 0z"/>
    <path class="fil5" d="M18847368 8802239c38147,55863 4110,50073 98931,46818 65119,-2220 89661,1665 116648,-36408 -39588,-25141 -161756,-15106 -215579,-10410z"/>
    <path class="fil5" d="M21611597 8710313c16306,25877 -15481,-2760 22081,36797 165,165 24317,18991 25382,19832 20131,15676 30152,23431 53298,39512 119828,83255 119363,28742 127763,21361 -30572,-56073 -25981,28352 -111082,-52653 -43938,-41823 -47463,-54198 -117442,-64849l0 0z"/>
    <path class="fil1" d="M19731870 9984135c75815,10846 155680,-78665 163961,-136314 -49114,2956 -62614,22277 -91116,49924 -15181,14716 -26132,23536 -38943,36602 -38447,39227 -11986,-660 -33902,49788l0 0z"/>
    <path class="fil5" d="M19570925 9630892c51858,37938 71719,19307 107962,-10515l84365 -65255c-34997,-40652 -82655,-3090 -157975,53434l-17446 12211c-1635,1140 -7351,7770 -8521,5235 -1140,-2475 -5670,3120 -8385,4890z"/>
    <path class="fil5" d="M23629797 7528566c81185,-34007 26762,4336 52953,-119437 13621,-64354 41973,-37698 68600,-99592 -72200,7276 -42768,-6450 -85446,55999 -47328,69229 -18916,47973 -36107,163030z"/>
    <path class="fil5" d="M19017824 8682591c-79865,-18721 -42528,-28457 -107257,-50988 14221,106717 80720,96291 201943,101511 -19621,-53418 -36827,-36962 -94686,-50523z"/>
    <path class="fil5" d="M18900786 9145626c17041,-18436 22562,-23687 38643,-37652 -76280,-65645 -115628,-46623 -236100,-60784 15526,24901 -20987,21511 47223,39032 47148,12106 77075,-12271 123983,26102 12435,10185 24616,31037 26251,33302z"/>
    <path class="fil6" d="M19370422 9221771c88265,59449 57603,-54589 253021,-65869 -75620,-57724 -189282,18331 -253021,65869z"/>
    <path class="fil5" d="M19079658 8558773c-48078,-20506 -58744,-32162 -98826,-3705 30947,23881 -30062,2100 39122,31412 82745,35057 104542,44673 153310,19081 -27842,-30812 -7381,-12826 -52518,-30152 -16772,-6420 -25112,-9826 -41088,-16636l0 0z"/>
    <path class="fil5" d="M19389068 9307951c48873,9196 91521,10621 128603,-15511 85131,-59988 64504,-27826 97912,-56568 -54079,-12511 -74870,-8836 -121463,17971 -36438,20941 -78725,33842 -105052,54108l0 0z"/>
    <path class="fil5" d="M18709959 9221771c10831,14686 126338,120368 204763,75770 -15661,-10051 11896,-510 -30542,-12316 -148929,-41403 -94311,-127118 -174221,-63454z"/>
    <path class="fil5" d="M21810959 8705933c-8415,4590 -35687,1560 -61024,46113 53524,39932 140665,5115 162836,-51574l-101812 5461z"/>
    <path class="fil3" d="M19435061 9388447c44148,19741 76550,8100 108397,-9121l82805 -54093c-55908,-32793 -141339,24196 -191202,63214z"/>
    <path class="fil7" d="M18900786 9145626c-81740,14056 -123533,-21541 -192417,-41103 19636,45228 57334,58954 102082,73025 73474,23087 112387,26777 90335,-31922z"/>
    <path class="fil3" d="M18940374 9622207c-188967,51093 -86676,-55069 -193018,5190 35043,30467 -10560,3510 33963,20416 135338,51334 131933,39618 159055,-25606z"/>
    <path class="fil5" d="M19841677 10054385c38688,16906 127583,-59644 149860,-109267 -63079,9900 -109867,39827 -143634,87485 -17612,24857 -10081,6856 -6226,21782z"/>
    <path class="fil5" d="M18795225 9352399c30617,84711 -20282,28427 70564,71825 44568,21301 32447,32552 78155,49503l-1710 -68284c-137439,-15736 -74075,-27887 -147009,-53044l0 0z"/>
    <path class="fil3" d="M19493790 9464217c38402,17146 83750,5130 118267,-16832 56254,-35807 55909,-57783 42468,-83900 -24632,19831 -39317,39183 -69709,57184l-91026 43548z"/>
    <path class="fil3" d="M19537607 9539971c12931,5071 169301,4486 164381,-85565 -96111,52128 -135534,42063 -164381,85565z"/>
    <path class="fil5" d="M18760587 9464217c16216,36452 97762,87080 100777,87665 93606,17941 20161,2790 49593,-20731 -84995,-21016 -83645,-91701 -150370,-66934l0 0z"/>
    <path class="fil5" d="M19817781 10014752c55383,-25922 22861,-10831 67504,-51153 51273,-46308 27092,-1230 53328,-67895 -82745,16997 -103521,36378 -120832,119048z"/>
    <path class="fil3" d="M19464418 8885074c57588,5611 156475,4590 195732,-42108 -39272,-19696 -177821,27857 -195732,42108z"/>
    <path class="fil5" d="M19176024 6767222c63319,-3945 88461,-32507 103147,-89210 -64624,6030 -93111,31577 -103147,89210z"/>
    <path class="fil5" d="M18826532 9024793c29791,17716 112657,44688 141309,30302 -1185,-1575 -6571,-34262 -69410,-44508 -77705,-12661 -71704,14071 -71899,14206z"/>
    <path class="fil8" d="M18689258 7478358c8715,-18841 14761,1665 7080,-39317l-13036 -35268c-7125,-41537 25022,-40997 -37007,-58503 1800,18226 7395,35552 7440,35927 14311,117578 -44117,81680 35523,97161l0 0z"/>
    <path class="fil3" d="M18643595 7191345c24811,40517 930,28292 75710,35867 -2401,-43428 14566,-43683 -20507,-60199 -42197,-19861 -54573,23972 -55203,24332z"/>
    <path class="fil3" d="M18736931 7130726c-3390,-54574 13891,-22127 -16831,-45918l-21047 -8506c-39467,-11265 -15376,-885 -32882,1035 6211,47328 28427,66185 70760,53389l0 0z"/>
    <path class="fil9" d="M23689231 6220002l16876 2070c-12916,-67834 -12841,-72560 -68075,-92346 16277,62554 16532,60934 51199,90276l0 0z"/>
    <path class="fil7" d="M19369042 9142236c-36303,6240 -29762,3240 -54694,15916 116078,54618 107767,-1665 114292,-12136l-59598 -3780z"/>
    <path class="fil10" d="M22549292 7782533l36947 -10516c4321,-58144 13801,-38957 -18961,-78425l-1035 67745 -41327 -49354c2415,20582 255,21587 7635,42798 11701,33587 15841,26477 16741,27752z"/>
    <path class="fil5" d="M18653075 7263229c-5595,45783 -2160,42648 51484,55294 -5206,-31562 8400,-28577 -15841,-52308 -43023,-42108 -35073,-3121 -35643,-2986z"/>
    <path class="fil3" d="M18686678 7672786c8880,-5386 40067,-2235 24526,-48408 -13411,-39888 -7965,-12541 -21946,-28037 -23717,38657 -32687,32282 -2580,76445z"/>
    <path class="fil11" d="M23706107 6222072l3645 91521c23222,-20311 32132,35192 26852,-45393 -2880,-43788 -2040,-16096 -30497,-46128l0 0z"/>
    <path class="fil5" d="M23761520 6469843c25982,-29177 20372,13711 23027,-36722 2550,-48633 -15616,-44748 -19201,-50659 -16426,31577 -16366,31877 -3826,87381z"/>
    <path class="fil12" d="M19813070 9749655c-45183,24257 -47823,60169 -74690,103627 36078,-27497 52729,-55879 74690,-103627z"/>
    <path class="fil5" d="M18674107 7574559c15136,-20986 19921,9481 14641,-32522 -4381,-34772 645,-8355 -16441,-27841 -27077,40937 -23297,22216 1800,60363l0 0z"/>
   </g>
   <path class="fil14" d="M14813787 11064700c-7440,1230 -14461,1860 -20866,1860 -28697,0 -48843,-9406 -60289,-28202 -8896,-14356 -13441,-36542 -13636,-66589 0,-8266 300,-20446 930,-36347 615,-16831 930,-28922 930,-36348 0,-25711 -2385,-45018 -7020,-57933 -7441,-20132 -21482,-31908 -42033,-35103 20551,-3195 34592,-14866 42033,-34997 4635,-12916 7020,-32222 7020,-57829 0,-7440 -315,-19516 -930,-36242 -630,-15901 -930,-27977 -930,-36242 195,-30047 4740,-52144 13636,-66500 11446,-18691 31592,-28082 60289,-28082 6405,0 13426,616 20866,1861 -34697,8985 -52248,39542 -52668,91491 0,9495 525,23431 1545,41702 930,19216 1455,32942 1455,41418 0,24766 -2790,43353 -8476,55653 -7440,15902 -20746,25187 -39752,27767 19006,2580 32327,11881 39752,27872 5686,12496 8476,31187 8476,56074 0,8475 -525,21991 -1455,40682 -1020,18692 -1545,32837 -1545,42228 420,52143 17971,82715 52668,91806zm2269737 -258662c-20536,3210 -34577,14971 -42018,35103 -4650,12915 -7020,32222 -7020,57933 0,7426 300,19517 930,36348 615,15901 930,28081 930,36347 -210,30047 -4755,52248 -13636,66589 -11461,18796 -31592,28202 -60289,28202 -6405,0 -13426,-630 -20866,-1860 34697,-9091 52248,-39648 52668,-91791 0,-9406 -525,-23551 -1560,-42243 -930,-18691 -1440,-32207 -1440,-40682 0,-24887 2790,-43578 8460,-56059 7441,-16006 20762,-25307 39753,-27887 -18991,-2580 -32312,-11865 -39753,-27767 -5670,-12300 -8460,-30887 -8460,-55653 0,-8476 510,-22202 1440,-41418 1035,-18271 1560,-32207 1560,-41702 -420,-51949 -17971,-82506 -52668,-91491 7440,-1245 14461,-1861 20866,-1861 28697,0 48828,9391 60289,28082 8881,14356 13426,36453 13636,66500 0,8265 -315,20341 -930,36242 -630,16726 -930,28817 -930,36242 0,25607 2370,44913 7020,57829 7441,20131 21482,31802 42018,34997zm-1769784 83331c0,16501 -5191,31667 -15646,45618 -9991,13305 -22847,22996 -38568,28876 -16951,6511 -42813,9766 -77435,9766l-145284 0 0 -8835 11610 0c13021,0 22307,-4111 27737,-12241 3480,-5101 5266,-16336 5266,-33677l0 -198103c0,-18961 -2176,-30977 -6586,-35928 -5970,-6660 -14716,-9990 -26402,-9990l-11625 0 0 -8821 132818 0c24617,0 44523,1770 59629,5416 20521,5025 36932,13710 49173,26101 13636,13696 20447,30512 20447,50494 0,33677 -18437,56448 -55294,68374 21451,4575 37397,11851 48093,21841 14716,13936 22067,30977 22067,51109l0 0zm-61804 -143350c0,-21916 -9286,-38717 -27947,-50418 -15796,-9825 -35238,-14701 -58474,-14701 -15106,0 -28727,1695 -40893,5116l0 118087c11236,2100 25562,3180 42978,3180 38733,0 63889,-9675 75590,-29042 5805,-9840 8746,-20596 8746,-32222zm9300 147145c0,-28427 -13861,-48633 -41673,-60559 -14700,-6345 -32912,-9526 -54663,-9526 -19366,0 -32837,690 -40278,2011l0 126158c17656,4095 35013,6120 52204,6120 22921,0 42122,-4890 57453,-14566 17972,-11461 26957,-28037 26957,-49638zm351278 3330l-26492 77135 -236970 0 0 -8835 10921 0c7125,0 14010,-1696 20671,-5191 6270,-3180 10156,-9135 11626,-17881 615,-3180 930,-10696 930,-22621l0 -199243c0,-19607 -1935,-31607 -5896,-35943 -5340,-6030 -14401,-9060 -27331,-9060l-10921 0 0 -8821 236820 0 3405 67370 -8835 0c-2550,-13321 -5116,-22697 -7741,-28187 -4335,-9301 -10995,-15796 -19906,-19517 -5640,-2250 -16261,-3405 -31982,-3405l-84411 0 0 122198 67760 0c17581,0 29282,-2640 35237,-7905 7906,-6961 12241,-19202 13171,-36708l8821 0 0 106882 -8821 0c-2085,-15181 -4260,-24856 -6345,-28967 -5821,-11385 -19832,-17041 -42063,-17041l-67760 0 0 101917c0,10680 75,16486 240,17581 931,7125 3556,11926 7891,14401 3030,1770 8836,2715 17281,2715l52113 0c14941,0 25787,-780 32598,-2325 10605,-2400 19906,-7666 27886,-15721 9211,-9376 18812,-23627 28802,-42828l9301 0 0 0zm435283 -221639l-5880 0c-12391,0 -25007,6735 -37863,20131 -5430,5730 -13096,16261 -22921,31682l-74120 116468 0 76895c0,18826 2100,30587 6345,35237 5821,6345 14881,9526 27347,9526l9991 0 0 8835 -130569 0 0 -8835 10921 0c13006,0 22306,-3946 27722,-11776 3330,-4801 5025,-15796 5025,-32987l0 -72635 -84320 -128393c-9211,-14101 -15031,-22457 -17431,-25172 -5416,-5730 -13786,-11311 -24932,-16726 -3180,-1470 -7591,-2250 -13171,-2250l0 -8821 131034 0 0 8821 -6811 0c-7200,0 -13471,1470 -18751,4485 -6496,3645 -9751,8761 -9751,15421 0,5415 4651,15256 13861,29417l64279 98901 60244 -94551c9061,-14251 13561,-24781 13561,-31757 0,-8910 -4185,-15256 -12556,-19201 -4020,-1785 -10065,-2715 -18121,-2715l0 -8836 106882 0 0 8836 -15 0zm324411 143184c0,44688 -13936,82640 -41748,113767 -28802,32523 -65359,48784 -109492,48784 -44853,0 -81395,-15946 -109507,-47854 -26867,-30512 -40353,-68539 -40353,-114067 0,-48798 16652,-88671 49879,-119498 28877,-26716 63424,-40112 103611,-40112 42513,0 77990,16036 106567,48093 27332,30827 41043,67759 41043,110887zm-51573 6120c0,-41357 -6436,-74569 -19367,-99501 -16801,-32927 -43832,-49338 -81005,-49338 -27572,0 -49713,10230 -66439,30662 -20762,25486 -31127,62734 -31127,111832 0,50418 10756,89136 32282,116078 16426,20611 38252,30902 65509,30902 35942,0 62509,-15331 79700,-45918 13621,-24242 20447,-55759 20447,-94717l0 0zm400135 -149304l-11535 0c-11926,0 -21227,5025 -27887,15181 -3165,4800 -4710,15646 -4710,32597l0 124448c0,28352 -2251,49953 -6826,64744 -6660,20746 -19351,37638 -38252,50418 -17971,12226 -42363,18347 -73190,18347 -59854,0 -97566,-21452 -113287,-64280 -4876,-13230 -7276,-38477 -7276,-75574l0 -119963c0,-15631 -1710,-26627 -5040,-32822 -4875,-8761 -14326,-13096 -28352,-13096l-11686 0 0 -8821 133359 0 0 8821 -11926 0c-12781,0 -21916,4035 -27422,12001 -3795,5430 -5730,16816 -5730,34007l0 133958c0,36243 5115,61954 15256,77060 13171,19757 34772,29657 64819,29657 18196,0 35087,-3795 50493,-11295 17732,-8521 29897,-20372 36393,-35628 5805,-13561 8670,-36707 8670,-69304l0 -124448c0,-19216 -2085,-31217 -6345,-36018 -5880,-6660 -14641,-9990 -26252,-9990l-11536 0 0 -8821 108262 0 0 8821 0 0z"/>
  </g>
 </g>
</svg>
