<?xml version="1.0" encoding="UTF-8"?>
<!DOCTYPE svg PUBLIC "-//W3C//DTD SVG 1.1//EN" "http://www.w3.org/Graphics/SVG/1.1/DTD/svg11.dtd">
<!-- Creator: CorelDRAW X7 -->
<svg xmlns="http://www.w3.org/2000/svg" xml:space="preserve" width="2000px" height="2000px" version="1.1" style="shape-rendering:geometricPrecision; text-rendering:geometricPrecision; image-rendering:optimizeQuality; fill-rule:evenodd; clip-rule:evenodd"
viewBox="0 0 859372 859372"
 xmlns:xlink="http://www.w3.org/1999/xlink">
 <defs>
  <style type="text/css">
   <![CDATA[
    .fil6 {fill:none}
    .fil1 {fill:#EBECEC}
    .fil0 {fill:#F8F8F8}
    .fil5 {fill:#44718A}
    .fil2 {fill:#EB7D6C}
    .fil3 {fill:#44718A;fill-rule:nonzero}
    .fil4 {fill:#EB7D6C;fill-rule:nonzero}
   ]]>
  </style>
 </defs>
 <g id="Слой_x0020_1">
  <metadata id="CorelCorpID_0Corel-Layer"/>
  <g id="_431348112">
   <rect class="fil0" x="113472" y="113473" width="632427" height="632427"/>
   <polygon class="fil1" points="260696,547063 268734,531104 260655,523119 260810,479024 269123,479024 280149,490260 295852,479024 311678,495049 325052,479024 337500,491595 354170,479024 370068,495383 370068,479024 405108,479024 421058,495119 431938,479024 395755,442556 382830,423225 381631,376965 385776,350614 408853,328643 415344,334243 423572,342537 441551,340950 439928,315795 450933,326887 457819,317705 468328,328297 475320,325722 745900,598442 745898,745899 457972,745899 "/>
   <polygon class="fil2" points="113471,99159 760211,99159 745898,113472 113471,113472 113471,745899 99158,760212 99158,99159 "/>
   <g>
    <path class="fil3" d="M260810 479024l8313 0 0 29355 17860 -29355 8869 0 0 44095 -8315 0 0 -28883 -17858 28883 -8869 0 0 -44095zm50868 44095l0 -44095 13374 0 7902 30073 7810 -30073 13406 0 0 44095 -8253 0 -30 -34712 -8694 34712 -8580 0 -8653 -34712 -31 34712 -8251 0zm58390 -44095l35040 0 0 44095 -8929 0 0 -36642 -17182 0 0 36642 -8929 0 0 -44095zm50990 44095l0 -44095 32639 0 0 7453 -23709 0 0 9792 22046 0 0 7451 -22046 0 0 11947 24571 0 0 7452 -33501 0zm47920 0l0 -44095 14277 0c5408,0 8930,216 10571,657 2525,667 4639,2104 6344,4322 1703,2216 2555,5080 2555,8590 0,2711 -493,4978 -1467,6826 -986,1848 -2227,3295 -3738,4352 -1508,1047 -3047,1745 -4607,2083 -2125,421 -5194,637 -9218,637l-5788 0 0 16628 -8929 0zm8929 -36642l0 12563 4855 0c3500,0 5830,-237 7009,-699 1181,-461 2104,-1179 2773,-2176 667,-984 1005,-2123 1005,-3437 0,-1612 -473,-2936 -1406,-3984 -945,-1046 -2125,-1703 -3572,-1971 -1057,-194 -3182,-296 -6384,-296l-4280 0zm39113 -7453l8313 0 0 29355 17860 -29355 8869 0 0 44095 -8315 0 0 -28883 -17858 28883 -8869 0 0 -44095zm77348 44095l0 -18414 -1806 0c-2823,0 -4804,421 -5963,1262 -1161,832 -3132,3347 -5933,7525l-6385 9627 -10643 0 5379 -8601c2114,-3418 3807,-5810 5059,-7175 1263,-1376 2843,-2607 4732,-3685 -4095,-646 -7052,-2074 -8868,-4290 -1816,-2218 -2729,-4866 -2729,-7954 0,-2690 677,-5071 2031,-7144 1355,-2074 3141,-3470 5358,-4178 2217,-708 5532,-1068 9945,-1068l18753 0 0 44095 -8930 0zm0 -36642l-6949 0c-3531,0 -5850,82 -6959,235 -1108,165 -2072,708 -2874,1633 -800,923 -1201,2124 -1201,3613 0,1550 391,2781 1161,3694 770,914 1755,1478 2946,1705 1190,214 3622,327 7286,327l6590 0 0 -11207z"/>
    <path class="fil4" d="M276699 547063l-3480 0 -1377 -3633 -6403 0 -1325 3633 -3418 0 6196 -15959 3415 0 6392 15959zm-5905 -6331l-2219 -5907 -2154 5907 4373 0zm7626 6331l0 -15959 5167 0c1958,0 3232,77 3827,237 913,242 1679,762 2296,1565 615,801 925,1838 925,3109 0,980 -179,1801 -531,2470 -357,668 -808,1192 -1353,1574 -547,380 -1103,633 -1668,755 -770,153 -1880,230 -3336,230l-2095 0 0 6019 -3232 0zm3232 -13263l0 4547 1757 0c1267,0 2110,-85 2537,-253 428,-166 761,-426 1003,-787 242,-357 364,-769 364,-1244 0,-584 -171,-1063 -509,-1441 -342,-379 -768,-617 -1292,-714 -384,-71 -1152,-108 -2311,-108l-1549 0zm11679 -2696l3232 0 0 6797c717,-73 1204,-256 1456,-557 253,-296 647,-1125 1175,-2485 664,-1727 1337,-2805 2009,-3224 669,-420 1742,-631 3228,-631 74,0 230,-5 468,-12l0 2385 -457 -12c-661,0 -1143,82 -1448,246 -305,163 -550,412 -740,746 -189,335 -468,1022 -836,2063 -196,553 -408,1013 -638,1385 -226,372 -632,721 -1211,1048 717,200 1307,612 1775,1229 469,617 982,1486 1538,2612l2173 4369 -3789 0 -1913 -4110c-29,-58 -93,-170 -185,-337 -37,-56 -172,-308 -402,-750 -408,-788 -743,-1278 -1003,-1476 -264,-196 -662,-296 -1200,-303l0 6976 -3232 0 0 -15959zm17703 15959l0 -13263 -4725 0 0 -2696 12660 0 0 2696 -4704 0 0 13263 -3231 0zm10071 -15959l3009 0 0 10624 6465 -10624 3209 0 0 15959 -3008 0 0 -10455 -6465 10455 -3210 0 0 -15959zm15711 0l3231 0 0 3807c0,1234 45,2051 138,2452 88,405 361,754 810,1052 445,296 1106,445 1977,445 686,0 1299,-75 1837,-224 536,-147 1001,-367 1390,-656l0 -6876 3232 0 0 15959 -3232 0 0 -6431c-654,290 -1297,509 -1928,658 -631,148 -1252,222 -1861,222 -1590,0 -2919,-375 -3990,-1125 -1069,-750 -1604,-2051 -1604,-3900l0 -5383zm15930 15959l0 -15959 11814 0 0 2696 -8582 0 0 3544 7979 0 0 2698 -7979 0 0 4324 8894 0 0 2697 -12126 0zm25075 -5884l3120 957c-478,1758 -1277,3062 -2392,3916 -1115,850 -2526,1278 -4238,1278 -2122,0 -3864,-724 -5231,-2172 -1363,-1450 -2047,-3430 -2047,-5945 0,-2656 687,-4722 2058,-6193 1372,-1471 3176,-2207 5412,-2207 1955,0 3541,580 4759,1735 729,684 1271,1664 1635,2947l-3188 757c-189,-824 -582,-1478 -1181,-1958 -601,-479 -1329,-717 -2184,-717 -1185,0 -2147,423 -2883,1275 -739,846 -1107,2222 -1107,4124 0,2012 365,3451 1089,4305 729,857 1672,1285 2834,1285 859,0 1597,-271 2214,-817 617,-547 1062,-1401 1330,-2570zm5933 -10075l3231 0 0 6797c717,-73 1204,-256 1456,-557 253,-296 647,-1125 1175,-2485 664,-1727 1337,-2805 2010,-3224 668,-420 1742,-631 3227,-631 75,0 231,-5 468,-12l0 2385 -456 -12c-661,0 -1144,82 -1449,246 -305,163 -549,412 -740,746 -189,335 -468,1022 -836,2063 -196,553 -408,1013 -638,1385 -226,372 -631,721 -1211,1048 717,200 1307,612 1775,1229 469,617 982,1486 1539,2612l2172 4369 -3788 0 -1914 -4110c-29,-58 -93,-170 -185,-337 -37,-56 -171,-308 -402,-750 -408,-788 -742,-1278 -1003,-1476 -263,-196 -661,-296 -1200,-303l0 6976 -3231 0 0 -15959zm12891 8075c0,-1626 245,-2994 732,-4101 360,-813 858,-1545 1485,-2191 629,-647 1316,-1126 2063,-1441 995,-421 2142,-633 3444,-633 2354,0 4235,733 5649,2193 1413,1463 2118,3495 2118,6099 0,2582 -703,4603 -2102,6060 -1402,1460 -3277,2187 -5621,2187 -2375,0 -4265,-724 -5665,-2177 -1401,-1449 -2103,-3447 -2103,-5996zm3321 -107c0,1809 419,3180 1255,4116 836,932 1899,1400 3185,1400 1288,0 2343,-464 3171,-1389 825,-928 1237,-2318 1237,-4172 0,-1832 -401,-3199 -1206,-4098 -803,-903 -1870,-1352 -3202,-1352 -1331,0 -2405,458 -3218,1367 -813,914 -1222,2289 -1222,4128zm14729 -7968l3009 0 0 10624 6465 -10624 3209 0 0 15959 -3008 0 0 -10455 -6466 10455 -3209 0 0 -15959zm8248 -4615l1492 0c-84,985 -433,1761 -1039,2322 -605,561 -1389,843 -2351,843 -967,0 -1751,-282 -2356,-843 -606,-561 -955,-1337 -1041,-2322l1495 0c51,512 230,903 542,1167 312,263 764,393 1360,393 589,0 1043,-130 1355,-393 312,-264 491,-655 543,-1167zm13923 20574l0 -15959 5167 0c1958,0 3232,77 3827,237 914,242 1679,762 2296,1565 616,801 925,1838 925,3109 0,980 -179,1801 -531,2470 -356,668 -807,1192 -1353,1574 -546,380 -1103,633 -1667,755 -770,153 -1881,230 -3337,230l-2095 0 0 6019 -3232 0zm3232 -13263l0 4547 1758 0c1266,0 2110,-85 2536,-253 428,-166 761,-426 1004,-787 241,-357 363,-769 363,-1244 0,-584 -170,-1063 -508,-1441 -342,-379 -769,-617 -1293,-714 -383,-71 -1152,-108 -2311,-108l-1549 0zm11724 -2696l3232 0 0 6375 4305 0c1129,0 2103,156 2917,463 813,308 1493,859 2040,1654 542,794 813,1709 813,2742 0,1081 -282,2010 -848,2792 -568,781 -1195,1297 -1890,1551 -690,256 -1705,382 -3039,382l-7530 0 0 -15959zm3232 13262l3143 0c999,0 1698,-48 2095,-146 394,-96 748,-319 1055,-664 308,-346 461,-766 461,-1264 0,-706 -253,-1237 -754,-1589 -505,-353 -1416,-528 -2727,-528l-3273 0 0 4191zm11925 -13262l3232 0 0 15959 -3232 0 0 -15959zm6643 0l11924 0 0 2696 -8692 0 0 3700 4305 0c1185,0 2173,145 2953,435 785,289 1453,825 2007,1609 554,780 831,1698 831,2748 0,1078 -277,2003 -838,2773 -559,764 -1194,1292 -1910,1574 -714,282 -1732,424 -3050,424l-7530 0 0 -15959zm3232 13262l3132 0c999,0 1704,-48 2109,-146 405,-96 762,-315 1062,-661 301,-341 450,-765 450,-1267 0,-731 -264,-1262 -787,-1597 -529,-331 -1423,-497 -2694,-497l-3272 0 0 4168zm12811 -13262l3232 0 0 6375 4306 0c1129,0 2102,156 2917,463 813,308 1492,859 2039,1654 543,794 813,1709 813,2742 0,1081 -282,2010 -847,2792 -568,781 -1195,1297 -1891,1551 -690,256 -1704,382 -3038,382l-7531 0 0 -15959zm3232 13262l3144 0c998,0 1697,-48 2095,-146 394,-96 747,-319 1055,-664 307,-346 461,-766 461,-1264 0,-706 -254,-1237 -755,-1589 -505,-353 -1415,-528 -2726,-528l-3274 0 0 4191zm11926 -13262l3232 0 0 15959 -3232 0 0 -15959zm35103 0l3008 0 0 10624 6465 -10624 3209 0 0 15959 -3008 0 0 -10455 -6466 10455 -3208 0 0 -15959zm16022 0l3231 0 0 6797c717,-73 1204,-256 1456,-557 253,-296 647,-1125 1175,-2485 664,-1727 1337,-2805 2010,-3224 668,-420 1742,-631 3227,-631 75,0 231,-5 468,-12l0 2385 -456 -12c-661,0 -1144,82 -1449,246 -305,163 -549,412 -740,746 -189,335 -468,1022 -836,2063 -196,553 -408,1013 -638,1385 -226,372 -631,721 -1211,1048 717,200 1307,612 1775,1229 469,617 982,1486 1539,2612l2172 4369 -3788 0 -1914 -4110c-29,-58 -93,-170 -184,-337 -38,-56 -172,-308 -403,-750 -408,-788 -743,-1278 -1003,-1476 -263,-196 -661,-296 -1200,-303l0 6976 -3231 0 0 -15959zm13560 15959l0 -15959 5167 0c1958,0 3232,77 3827,237 913,242 1679,762 2296,1565 615,801 925,1838 925,3109 0,980 -179,1801 -532,2470 -356,668 -807,1192 -1352,1574 -547,380 -1104,633 -1668,755 -770,153 -1880,230 -3336,230l-2095 0 0 6019 -3232 0zm3232 -13263l0 4547 1757 0c1267,0 2110,-85 2537,-253 427,-166 761,-426 1003,-787 242,-357 363,-769 363,-1244 0,-584 -170,-1063 -508,-1441 -342,-379 -768,-617 -1292,-714 -384,-71 -1152,-108 -2312,-108l-1548 0zm11723 -2696l3232 0 0 6375 4306 0c1129,0 2102,156 2917,463 813,308 1492,859 2039,1654 543,794 813,1709 813,2742 0,1081 -282,2010 -847,2792 -569,781 -1195,1297 -1891,1551 -690,256 -1705,382 -3039,382l-7530 0 0 -15959zm3232 13262l3143 0c999,0 1698,-48 2096,-146 393,-96 747,-319 1055,-664 307,-346 461,-766 461,-1264 0,-706 -254,-1237 -755,-1589 -505,-353 -1415,-528 -2726,-528l-3274 0 0 4191zm11926 -13262l3232 0 0 15959 -3232 0 0 -15959zm-67920 14024l-1855 2358c-906,-442 -1779,-1052 -2615,-1828 -642,580 -1329,1007 -2053,1281 -725,275 -1587,413 -2590,413 -1983,0 -3478,-560 -4480,-1679 -777,-862 -1163,-1856 -1163,-2983 0,-1025 305,-1947 917,-2764 610,-817 1523,-1527 2738,-2128 -545,-647 -957,-1264 -1233,-1851 -278,-587 -416,-1141 -416,-1664 0,-965 387,-1787 1160,-2459 768,-673 1872,-1011 3297,-1011 1376,0 2452,354 3229,1055 776,707 1163,1564 1163,2582 0,647 -189,1259 -571,1839 -384,580 -1153,1237 -2312,1970l2196 2952c260,-460 483,-1066 672,-1809l2771 622c-275,980 -516,1700 -720,2154 -201,453 -421,836 -654,1140 342,319 783,669 1326,1051 542,384 940,635 1193,759zm-8326 -8694l822 -636c606,-471 906,-939 906,-1404 0,-394 -145,-727 -438,-1002 -290,-279 -684,-416 -1182,-416 -482,0 -862,123 -1137,363 -270,246 -408,529 -408,848 0,379 229,836 690,1374l747 873zm-1196 3329c-698,356 -1222,787 -1572,1288 -345,502 -519,1015 -519,1535 0,661 216,1203 647,1620 426,419 1002,628 1727,628 475,0 936,-93 1374,-283 443,-189 922,-501 1442,-939l-3099 -3849z"/>
    <path class="fil3" d="M421246 430977c-323,-1302 -566,-2597 -722,-3876 -161,-1309 -242,-2625 -242,-3938 0,-8920 3618,-17001 9463,-22853 5852,-5858 13930,-9481 22844,-9481 8913,0 16991,3623 22843,9481 5845,5852 9463,13933 9463,22853 0,5373 -1334,10573 -3782,15179 -2250,4236 -5446,7974 -9412,10887l-5 4c-342,251 -690,495 -1044,735l-20 -30c-4678,3046 -10134,5877 -15363,7476 -5631,1722 -11495,2613 -17404,2613 -16439,0 -31328,-6676 -42111,-17470 -10776,-10788 -17443,-25689 -17443,-42141 0,-7131 1254,-13970 3550,-20309 -1069,-11748 294,-21950 4351,-30438 4180,-8749 11159,-15594 21202,-20345l1439 -680 1300 926c3010,2143 5402,4632 7311,7388 1374,1983 2492,4096 3405,6313 5935,-1768 12904,-2780 19129,-2420 520,30 1038,63 1552,99l-1463 -22676 -159 -2479 1469 2004 8082 11024 7352 -9802 988 -1316 304 1618 2247 11905 12909 -4756 2040 -750 -1179 1825 -11363 17610c5187,1996 9655,4767 13204,8520l858 906 -122 1225c-1116,11234 -5163,19045 -11901,23708 -6529,4518 -15429,5918 -26490,4473 -6937,2253 -12782,6594 -16926,12200 -4245,5744 -6697,12826 -6697,20359 0,9458 3827,18018 10013,24210 6180,6186 14727,10013 24174,10013 3430,0 6801,-507 10003,-1487 3194,-978 6377,-2269 9210,-4178l17 -12 3 -1c3456,-2453 6234,-5657 8173,-9308 2034,-3828 3143,-8152 3143,-12622 0,-7430 -3006,-14154 -7864,-19017 -4852,-4857 -11565,-7862 -18986,-7862 -7422,0 -14135,3005 -18987,7862 -4858,4863 -7864,11587 -7864,19017l-4492 7814zm33905 -60654c-1764,0 -3370,-720 -4538,-1885l-5 -5 -5 -5c-1164,-1167 -1885,-2775 -1885,-4537 0,-1764 721,-3370 1885,-4538l5 -5 5 -5c1168,-1164 2774,-1884 4538,-1884 1762,0 3370,720 4537,1884l5 5 5 5c1165,1168 1885,2774 1885,4538 0,1762 -720,3370 -1885,4537l-5 5 -5 5c-1167,1165 -2775,1885 -4537,1885zm-20734 9298c-2362,-5763 -3453,-11542 -3211,-17337 232,-5339 1572,-10659 4089,-15962 -4357,204 -8580,922 -12607,2097l2 6 -2582 819c-7784,2703 -14759,7134 -20463,12834 -5019,5296 -9127,11838 -12483,19405 -2196,5893 -3396,12273 -3396,18933 0,14962 6056,28505 15845,38304 9710,9720 23107,15760 37920,15850 -6377,-1909 -12083,-5383 -16672,-9976 -7173,-7181 -11611,-17098 -11611,-28046 0,-8713 2850,-16923 7784,-23599 4344,-5876 10314,-10554 17385,-13328zm27427 -4679c5135,-3554 8336,-9655 9438,-18514 -3285,-3134 -7501,-5413 -12430,-7030 -5115,-1679 -10979,-2643 -17362,-3104 -2955,5399 -4511,10766 -4733,16104 -225,5383 895,10787 3292,16207 9273,1084 16599,-68 21795,-3663zm-74838 -5026c2816,-4707 6024,-8925 9673,-12591 5363,-5388 11653,-9563 19017,-12324 -743,-1746 -1633,-3405 -2707,-4954 -1279,-1846 -2830,-3551 -4715,-5077 -8082,4146 -13735,9872 -17161,17043 -2480,5189 -3824,11174 -4107,17903z"/>
    <path class="fil4" d="M452589 440204c-4704,0 -8966,-1908 -12049,-4992 -3083,-3083 -4992,-7345 -4992,-12049 0,-4704 1909,-8966 4992,-12049 3083,-3084 7345,-4992 12049,-4992 4704,0 8966,1908 12050,4992 3083,3083 4992,7345 4992,12049 0,4704 -1909,8966 -4992,12049 -3084,3084 -7346,4992 -12050,4992z"/>
   </g>
   <polygon class="fil5" points="745900,760213 99159,760213 113473,745900 745900,745900 745900,113473 760213,99160 760213,760213 "/>
  </g>
  <rect class="fil6" width="859372" height="859372"/>
 </g>
</svg>
