<?xml version="1.0" encoding="UTF-8"?>
<!DOCTYPE svg PUBLIC "-//W3C//DTD SVG 1.1//EN" "http://www.w3.org/Graphics/SVG/1.1/DTD/svg11.dtd">
<!-- Creator: CorelDRAW X7 -->
<svg xmlns="http://www.w3.org/2000/svg" xml:space="preserve" width="1470px" height="1000px" version="1.1" style="shape-rendering:geometricPrecision; text-rendering:geometricPrecision; image-rendering:optimizeQuality; fill-rule:evenodd; clip-rule:evenodd"
viewBox="0 0 1352159 919772"
 xmlns:xlink="http://www.w3.org/1999/xlink">
 <defs>
  <style type="text/css">
   <![CDATA[
    .str1 {stroke:#4E565A;stroke-width:2495.43}
    .str2 {stroke:#4E565A;stroke-width:2495.43;stroke-linecap:round}
    .str0 {stroke:#4E565A;stroke-width:2495.43;stroke-linecap:round;stroke-linejoin:round}
    .fil0 {fill:none}
    .fil1 {fill:#2B2A29;fill-rule:nonzero;fill-opacity:0.121569}
    .fil2 {fill:#4E565A}
   ]]>
  </style>
 </defs>
 <g id="Слой_x0020_1">
  <metadata id="CorelCorpID_0Corel-Layer"/>
  <rect class="fil0" width="1352159" height="919772"/>
  <path class="fil1" d="M532764 153446l247140 0 8838 0 0 8838 0 595203 0 8839 -8838 0 -247140 0 -8838 0 -105893 32899 0 -678678 105893 32899 8838 0zm238302 17677l-229463 0 0 577526 229463 0 0 -577526z"/>
  <polygon class="fil0 str0" points="564159,554553 581591,628504 609058,572513 587401,496977 "/>
  <polyline class="fil0 str0" points="581591,628504 587930,627976 614935,572513 593505,496970 587401,496977 609058,572513 614935,572513 "/>
  <polygon class="fil0 str0" points="597732,512128 595453,503956 712225,506928 714702,512296 "/>
  <line class="fil0 str0" x1="612229" y1="512148" x2="628072" y2= "562270" />
  <polygon class="fil0 str0" points="614202,569377 612021,562240 740057,562477 742698,568815 "/>
  <polygon class="fil0 str0" points="614935,572513 612624,577259 739529,574097 742698,568815 614202,569377 "/>
  <polygon class="fil0 str0" points="714702,512296 713117,518635 614133,518172 612229,512148 "/>
  <polygon class="fil0 str0" points="628072,562270 691195,562386 688766,557064 625952,555564 "/>
  <polygon class="fil0 str0" points="590392,623003 593380,616969 713381,614770 712589,618996 "/>
  <line class="fil0 str0" x1="608272" y1="616696" x2="628089" y2= "576801" />
  <polygon class="fil0 str0" points="608272,616696 612137,608915 711532,608960 713381,614770 "/>
  <path class="fil0 str1" d="M692637 349829c5393,27654 21576,41480 21576,55307 0,13827 -5394,27654 -21576,27654 -16182,0 -21575,-13827 -21575,-27654 0,-13827 16182,-27653 21575,-55307z"/>
  <line class="fil0 str1" x1="692637" y1="349829" x2="692381" y2= "171123" />
  <polyline class="fil0 str2" points="697296,299889 694074,309237 694074,344612 "/>
  <line class="fil0 str0" x1="689818" y1="310265" x2="696296" y2= "312999" />
  <line class="fil0 str0" x1="689818" y1="312801" x2="696296" y2= "315535" />
  <line class="fil0 str0" x1="689818" y1="315336" x2="696296" y2= "318070" />
  <line class="fil0 str0" x1="689818" y1="317871" x2="696296" y2= "320606" />
  <line class="fil0 str0" x1="689818" y1="320407" x2="696296" y2= "323141" />
  <line class="fil0 str0" x1="689818" y1="322942" x2="696296" y2= "325676" />
  <line class="fil0 str0" x1="689818" y1="325478" x2="696296" y2= "328212" />
  <line class="fil0 str0" x1="689818" y1="328013" x2="696296" y2= "330747" />
  <line class="fil0 str0" x1="689818" y1="330549" x2="696296" y2= "333283" />
  <line class="fil0 str0" x1="689818" y1="333084" x2="696296" y2= "335818" />
  <line class="fil0 str0" x1="689818" y1="335619" x2="696296" y2= "338354" />
  <line class="fil0 str0" x1="689818" y1="338155" x2="696296" y2= "340889" />
  <line class="fil0 str0" x1="689818" y1="340690" x2="696296" y2= "343425" />
  <line class="fil0 str0" x1="689818" y1="343226" x2="696296" y2= "345960" />
  <line class="fil0 str0" x1="612214" y1="294125" x2="513315" y2= "425035" />
  <line class="fil0 str0" x1="513315" y1="294125" x2="612214" y2= "425035" />
  <line class="fil0 str0" x1="478195" y1="294125" x2="478195" y2= "425035" />
  <line class="fil0 str0" x1="363923" y1="294125" x2="363923" y2= "425035" />
  <line class="fil0 str0" x1="240254" y1="294125" x2="240254" y2= "425035" />
  <line class="fil0 str0" x1="942325" y1="498382" x2="942325" y2= "629293" />
  <line class="fil0 str0" x1="890491" y1="498382" x2="994159" y2= "498382" />
  <path class="fil0 str0" d="M873938 534279c-17484,-61275 -114992,-49187 -113359,28583"/>
  <path class="fil0 str0" d="M873938 591446c-17484,61275 -114992,49186 -113359,-28583"/>
  <path class="fil0 str0" d="M363923 425035l47420 -157m-47420 -74989l8685 0 38302 167c58601,213 58601,74979 432,74822"/>
  <path class="fil0 str0" d="M240254 425035l47420 -157m-47420 -74989l8685 0 38303 167c58600,213 58600,74979 432,74822"/>
  <path class="fil0 str0" d="M240254 350056l38115 -117m-38115 -55814l6980 0 30787 124c47101,158 47101,55807 347,55690"/>
  <line class="fil0 str0" x1="1020923" y1="498382" x2="1020923" y2= "629293" />
  <path class="fil0 str0" d="M1020923 629293l47420 -157m-47420 -74989l8685 0 38303 167c58600,212 58600,74979 432,74822"/>
  <polyline class="fil0 str0" points="763104,447587 763104,425035 869047,425035 869047,447587 "/>
  <path class="fil0 str0" d="M778521 425035l75110 0 -103 -130910 -54935 0c2110,50052 -4683,93615 -20072,130910z"/>
  <line class="fil0 str0" x1="689818" y1="307902" x2="696296" y2= "310636" />
  <path class="fil2" d="M482772 902577l-432 -561c-599,-535 -384,-315 -818,-625 -5658,-4053 -4039,-12127 -1244,-16726 2416,-3976 2622,-3977 5598,-7109l1061 -1724c-1670,920 -2033,1197 -2827,2311 -82,115 -288,480 -371,595 -515,714 -233,294 -647,796 -1855,2243 -4232,5512 -5201,8375 -2061,6095 -951,13268 4881,14668z"/>
  <path class="fil2" d="M658720 790827c1937,978 23839,460 25996,440 110,-3520 -24,-9974 -2607,-12855 67,1813 1026,3322 1508,5544 600,2762 659,3648 659,6871l-25556 0z"/>
  <path class="fil2" d="M649242 813682c1054,-753 921,-1270 1905,-3756l6069 -10400c607,-635 2097,242 4410,242 -1419,-890 -2106,-864 -4168,-868 -2372,784 -3820,4434 -5099,6612 -818,1393 -3536,6967 -3117,8170z"/>
  <path class="fil2" d="M687633 827055c1627,-2738 2053,-8812 1969,-12244 -44,-1810 -431,-4578 -821,-6486 -371,-1814 -421,-4722 -1544,-5799 -43,1123 452,4850 698,5817 444,1742 806,4344 1013,6050 453,3732 -1505,9086 -1315,12662z"/>
  <path class="fil2" d="M545727 844715l1633 279c344,-341 -277,-359 1122,-814l4881 -765c5251,-926 10606,480 13852,4736 1024,1343 408,1461 2093,2143 -497,-2180 -2071,-3315 -3415,-4586 -1452,-1372 -3406,-2237 -5717,-2677 -4989,-951 -10935,-344 -14449,1684z"/>
  <path class="fil2" d="M657458 790871c-1356,-6082 -3340,-14560 3470,-16801 476,-156 695,-152 1064,-347 1803,-956 194,110 1112,-998 -11612,1203 -6561,15994 -6554,17711l908 435z"/>
  <path class="fil2" d="M550828 868187l-2047 -220 -7884 -8549c-3078,-3088 -1624,-2105 -3214,-2417 812,1817 201,46 2358,2805 1594,2037 6715,6689 8102,8755l2685 -374z"/>
  <path class="fil2" d="M670161 841272c5728,-466 12819,-4740 14281,-8393l-1712 1109c-3103,3328 -919,875 -3036,2611 -4421,3625 -7878,3420 -9533,4673z"/>
  <path class="fil2" d="M687237 802526l-579 -1395 -17908 -652c842,1502 563,459 4236,700l9884 466c2845,-24 2610,25 4367,881z"/>
  <path class="fil2" d="M533004 882831c1565,-698 1992,-2168 3011,-3577 1281,-1770 2371,-2091 2569,-4864l-2657 -1530c1519,4130 3592,604 -1875,7710 -209,272 -453,468 -624,787 -652,1218 -231,467 -424,1474z"/>
  <path class="fil2" d="M524531 891286c1867,-789 989,-539 2271,-1936 833,-908 1434,-1217 2245,-2034 1441,-1451 3067,-2511 3957,-4485 -957,252 -470,-59 -1296,570l-5398 5426c-2439,2376 -1470,1368 -1779,2459z"/>
  <path class="fil2" d="M655244 717138c2352,-697 10619,-9054 11261,-11490l-1048 -561 496 1018c-2882,2858 -4261,6025 -9361,9497 -1460,993 -1044,810 -1348,1536z"/>
  <path class="fil2" d="M534438 850367c2914,-6 4357,-2294 8761,-3943 3608,-1351 2049,-802 2528,-1709 -1793,373 -4234,1802 -5902,2533 -1357,594 -1571,818 -2735,1531 -1391,851 -1666,539 -2652,1588z"/>
  <path class="fil2" d="M527347 866594c-588,-1086 -772,-1338 -1775,-2194 -760,-647 -1712,-1079 -2392,-1853 -1395,-1589 -1261,-3170 -3854,-4160 521,1628 3976,5033 5338,6443 1265,1311 839,1360 2683,1764z"/>
  <path class="fil2" d="M620761 720410c-160,-2217 -813,-3306 -595,-4997 297,-2292 529,-3128 2006,-4118l-216 -1168c-1945,1603 -2818,5023 -2413,7626 406,2605 811,2321 1218,2657z"/>
  <path class="fil2" d="M517014 895991c1811,-429 2775,-1260 4048,-2069 1839,-1170 2275,-702 3469,-2636 -1785,-365 -308,-256 -3973,2141 -2332,1524 -2532,678 -3544,2564z"/>
  <path class="fil2" d="M566463 859831c1008,-617 2717,-2883 3213,-3886 948,-1914 571,-4052 -368,-5651 -369,2537 929,3024 -368,5405 -1698,3115 -2080,2191 -2477,4132z"/>
  <path class="fil2" d="M537683 857001c-238,-1141 101,-430 -541,-1358 -1223,-1769 -1929,-2769 -3419,-3167l715 -2109c-948,419 -279,-23 -927,463 -575,432 -388,350 -719,705 494,941 3902,4738 4891,5466z"/>
  <path class="fil2" d="M648762 820813c1420,269 510,-683 521,-1406 7,-499 -55,-1040 -80,-1600 -95,-2150 427,-1609 39,-4125 -1018,1426 -983,5778 -480,7131z"/>
  <path class="fil2" d="M490439 904002c-618,-1103 524,-424 -1403,-720 -621,-95 -1441,67 -2275,-69 -1559,-253 -1796,-952 -3989,-636 2407,1243 4186,1425 7667,1425z"/>
  <path class="fil2" d="M493262 904002c4112,0 5623,-444 8642,-1419l-7664 770c-1374,394 -92,-350 -978,649z"/>
  <path class="fil2" d="M663104 840794c-740,-739 503,69 -1089,-879 -499,-298 -1012,-494 -1573,-778 -1557,-786 -1408,-992 -3144,-1076 959,1232 3602,2478 5806,2733z"/>
  <path class="fil2" d="M672637 685412l7980 0c-1846,-918 -6142,-1172 -7980,0z"/>
  <path class="fil2" d="M684442 832879c1342,-949 123,41 1303,-1551l835 -1042c730,-1087 1247,-2225 1053,-3231 -509,533 -100,-188 -856,1102 -322,548 -450,949 -809,1540 -953,1569 -1068,1442 -1526,3182z"/>
  <path class="fil2" d="M662206 693464c-1468,-2159 -1814,-700 -2395,-2875 1967,-459 1560,-227 2352,-1601 -1366,389 -2881,1278 -3549,2071 727,684 2547,1969 3592,2405z"/>
  <path class="fil2" d="M491833 872166c2921,-450 3197,-2896 6604,-3690 485,-580 136,-852 173,-1242 -1261,804 -478,501 -1684,1138l-5093 3794z"/>
  <path class="fil2" d="M686628 695561c2120,-1252 3506,-3327 1716,-5770 -519,-708 -165,-230 -775,-743 329,1596 1056,2026 886,3339 -78,602 -423,1058 -783,1575 -685,983 -404,293 -1044,1599z"/>
  <path class="fil2" d="M561144 863455c2080,-512 3770,-2327 5319,-3624 -1804,342 -1446,473 -2820,1396 -1436,964 -1909,897 -2499,2228z"/>
  <path class="fil2" d="M498610 867234l1227 346c844,-1181 1946,-1775 3775,-1928 531,-634 89,-306 228,-1192 -2738,931 -3334,1733 -5230,2774z"/>
  <path class="fil2" d="M510908 899295c1410,-339 1970,-731 3212,-1484 872,-530 483,-303 1498,-831 1473,-767 432,268 1396,-989l-5053 2014c-1873,1203 -536,290 -1053,1290z"/>
  <path class="fil2" d="M486937 875832c1561,253 1470,-536 2753,-1516 1377,-1051 1268,-655 2143,-2150 -1148,508 -1813,1046 -2644,1659 -444,329 -552,396 -1037,799 -1243,1030 -210,-143 -1215,1208z"/>
  <path class="fil2" d="M652283 832465c-328,-1732 -562,-1630 -1122,-3339 -138,-421 -296,-1157 -425,-1456 -539,-1252 -141,-849 -1129,-1242 596,2122 1215,4366 2676,6037z"/>
  <path class="fil2" d="M649607 826428c563,-1350 129,-1962 4,-2795 -324,-2162 186,-1234 -849,-2820 -256,1067 32,1782 130,2562 255,2026 -218,1447 715,3053z"/>
  <path class="fil2" d="M509471 861888c1450,-268 1748,-508 3024,-998 390,-149 861,-240 1327,-543 810,-526 536,-381 1082,-1091 -1941,567 -3972,1311 -5433,2632z"/>
  <path class="fil2" d="M640521 723278c2349,-656 4571,-890 6043,-2100 -1118,100 -1834,325 -3033,655 -58,16 -1348,389 -1441,426 -2441,970 -575,26 -1569,1019z"/>
  <path class="fil2" d="M626582 705847c1056,-144 501,124 1535,-373 1193,-573 2816,-1723 3465,-2805 -1032,393 -1775,864 -2522,1400 -925,663 -1527,997 -2478,1778z"/>
  <path class="fil2" d="M664839 704707c-1280,-1270 -886,-481 -2456,-1131 -1681,-695 -1103,-941 -3043,-1347 520,551 -197,149 1022,990 863,595 228,176 1257,623 1035,450 1588,823 3220,865z"/>
  <path class="fil2" d="M644401 696706c1290,-119 3492,-417 5219,-674 -2035,-959 -3422,-741 -5219,674z"/>
  <path class="fil2" d="M505769 901250c2805,-663 3306,-1028 5139,-1955 -1568,-1 -1144,-8 -2784,518 -829,266 -713,72 -1421,460 -1346,738 -384,-247 -934,977z"/>
  <path class="fil2" d="M555469 866283c1409,-335 1975,-729 3033,-1235 358,-171 946,-451 1283,-636 1238,-677 447,-75 1359,-957l-4485 1605c-2178,1565 1320,-1302 -531,418 -658,611 -179,167 -659,805z"/>
  <path class="fil2" d="M535927 872860c-1130,-889 -1851,-1255 -2793,-1916 -1481,-1041 -1264,-1476 -3050,-2162 400,987 -55,469 902,1494l4941 2584z"/>
  <path class="fil2" d="M678755 774662c-849,-838 -2984,-1615 -4830,-1946 740,750 -65,179 886,739 2,1 1079,505 1309,598 1258,508 1400,537 2635,609z"/>
  <path class="fil2" d="M638535 699060c1260,-96 1617,-181 2760,-635 39,-15 952,-428 968,-438 1344,-847 409,-219 1081,-1005 -1915,335 -1564,420 -3512,1400l-1297 678z"/>
  <path class="fil2" d="M676277 700712c1211,-233 4027,-1458 4924,-1914 -1417,23 -1264,18 -2770,525 -333,112 -804,235 -1042,367 -859,476 -576,358 -1112,1022z"/>
  <path class="fil2" d="M670679 699101c-586,-775 -978,-962 -1790,-1593 -1257,-980 -837,-910 -2662,-1272 571,672 12,224 812,761 43,28 875,454 1199,676 1283,884 499,863 2441,1428z"/>
  <path class="fil2" d="M550828 868187l4641 -1904c-1456,-241 -1756,-63 -2803,432 -33,15 -799,398 -926,488 -826,584 -478,311 -912,984z"/>
  <path class="fil2" d="M662932 688706c1140,-226 1565,-354 2721,-740 366,-122 785,-214 1044,-360 900,-505 547,-326 1112,-1058l-3963 1502c-99,55 -230,138 -318,191l-596 465z"/>
  <path class="fil2" d="M654587 835620c-242,-1219 84,-678 -647,-1728 -864,-1240 -281,-556 -1417,-1182 631,2005 756,2032 2064,2910z"/>
  <path class="fil2" d="M681201 698798c1798,-468 2549,-1024 3450,-2121 -869,253 -1144,347 -1975,779 -851,442 -307,13 -892,522 -963,838 42,-305 -583,820z"/>
  <path class="fil2" d="M530084 868782c-870,-1222 -827,-1399 -2477,-1932 761,1472 733,1819 2477,1932z"/>
  <path class="fil2" d="M515555 859064c1672,-110 2038,-383 3771,-677 -770,-248 -1366,-610 -2768,-22 -755,317 -656,444 -1003,699z"/>
  <path class="fil2" d="M648519 720424l4409 -2070c-1422,102 -1318,98 -2404,598 -26,12 -910,476 -918,482 -1212,806 -438,239 -1087,990z"/>
  <path class="fil2" d="M658538 701883c-101,-76 -254,-316 -303,-224l-1197 -768c-720,-447 -969,-663 -1932,-1081 633,1101 -22,593 1212,1337 811,489 1296,547 2220,736z"/>
  <path class="fil2" d="M624451 707531l1941 -522c573,-617 95,-217 190,-1162 -812,342 -662,198 -1216,640 -1356,1081 -257,136 -915,1044z"/>
  <path class="fil2" d="M501904 902583l3865 -1333c-1361,-79 -885,-194 -2147,172 -256,75 -819,305 -999,421 -1123,720 40,-269 -719,740z"/>
  <path class="fil2" d="M672984 700692c-353,-621 -75,-688 -471,-1162l-1834 -429c820,1066 584,977 2305,1591z"/>
  <path class="fil2" d="M656304 837162c-284,-1446 69,-1262 -1717,-1542 718,1056 353,852 1717,1542z"/>
  <path class="fil2" d="M654207 699530l-2865 -2057c839,1555 891,1616 2865,2057z"/>
  <path class="fil2" d="M621956 710127c999,-275 345,367 1033,-362 994,-1051 221,180 595,-1455 -715,491 -305,34 -877,674 -304,340 -506,751 -751,1143z"/>
  <path class="fil2" d="M667884 686824c1415,-258 339,192 1501,-270 1083,-431 637,-215 1247,-881 -1741,345 -1495,119 -2748,1151z"/>
  <path class="fil2" d="M681140 777035c-503,-1209 -111,-838 -1359,-1492 362,1381 -400,982 1359,1492z"/>
  <path class="fil2" d="M664516 695061c-358,-645 -66,-694 -471,-1178l-1839 -419 2310 1597z"/>
  <path class="fil2" d="M625936 723740c-757,-828 1185,-680 -1411,-680 -649,-777 139,-246 -1330,-217l2741 897z"/>
  <path class="fil2" d="M623195 722843c446,-830 747,-724 -82,-724 -603,-723 109,-233 -1088,-289 564,756 132,535 1170,1013z"/>
  <polygon class="fil2" points="635741,700261 637222,700515 637698,699412 "/>
  <path class="fil2" d="M503840 864460l1175 290c503,-631 112,-392 294,-1206l-1469 916z"/>
  <path class="fil2" d="M685445 687096l-2110 -1077c487,1000 -786,805 941,805 619,742 -118,236 1169,272z"/>
  <path class="fil2" d="M632857 701883l2652 -1332c50,-62 158,-191 232,-290 -772,273 -652,175 -1453,568 -131,63 -533,255 -651,332 -808,524 -205,46 -780,722z"/>
  <path class="fil2" d="M682109 778412l-969 -1377 -183 1082c597,481 396,112 1152,295z"/>
  <path class="fil2" d="M651008 697177c-662,-1012 78,-571 -1388,-1145 44,120 75,199 120,367 42,158 119,272 179,316 562,404 31,240 1089,462z"/>
  <polygon class="fil2" points="653694,718040 655244,717138 654171,716911 "/>
  <path class="fil2" d="M686762 688236c-476,-648 277,-378 -1317,-1140 35,120 51,201 92,364 38,153 101,273 157,315 551,413 -4,236 1068,461z"/>
  <path class="fil2" d="M657298 838061c194,-781 408,-645 -310,-645 0,-989 117,-91 -684,-254 413,770 218,579 994,899z"/>
  <path class="fil2" d="M679781 775543c-424,-763 -240,-570 -1026,-881 -153,775 -362,635 345,635 0,990 -116,93 681,246z"/>
  <path class="fil2" d="M622025 721830c-285,-1104 92,-654 -990,-1123 487,1437 -444,505 990,1123z"/>
  <path class="fil2" d="M684651 696677l1686 -912c-1592,321 -684,-244 -1686,912z"/>
  <path class="fil2" d="M505309 863544l3217 -1137c66,-66 179,-203 262,-309l-3479 1446z"/>
 </g>
</svg>
