<?xml version="1.0" encoding="UTF-8"?>
<!DOCTYPE svg PUBLIC "-//W3C//DTD SVG 1.1//EN" "http://www.w3.org/Graphics/SVG/1.1/DTD/svg11.dtd">
<!-- Creator: CorelDRAW X7 -->
<svg xmlns="http://www.w3.org/2000/svg" xml:space="preserve" width="2499px" height="1394px" version="1.1" style="shape-rendering:geometricPrecision; text-rendering:geometricPrecision; image-rendering:optimizeQuality; fill-rule:evenodd; clip-rule:evenodd"
viewBox="0 0 30936565 17251476"
 xmlns:xlink="http://www.w3.org/1999/xlink">
 <defs>
  <style type="text/css">
   <![CDATA[
    .str8 {stroke:#727271;stroke-width:51560.9}
    .str2 {stroke:#727271;stroke-width:51560.9;stroke-linecap:round;stroke-linejoin:round}
    .str10 {stroke:#727271;stroke-width:51560.9;stroke-linecap:round;stroke-linejoin:round}
    .str7 {stroke:#83CFE9;stroke-width:51560.9;stroke-linecap:round;stroke-linejoin:round}
    .str6 {stroke:#AB74AD;stroke-width:51560.9;stroke-linecap:round;stroke-linejoin:round}
    .str0 {stroke:#ADB991;stroke-width:51560.9;stroke-linecap:round;stroke-linejoin:round}
    .str4 {stroke:#E4EA88;stroke-width:51560.9;stroke-linecap:round;stroke-linejoin:round}
    .str5 {stroke:#F16B8E;stroke-width:51560.9;stroke-linecap:round;stroke-linejoin:round}
    .str3 {stroke:#F8C180;stroke-width:51560.9;stroke-linecap:round;stroke-linejoin:round}
    .str1 {stroke:#727271;stroke-width:20624.4;stroke-linecap:round;stroke-linejoin:round}
    .str9 {stroke:#727271;stroke-width:20624.4;stroke-linecap:round;stroke-linejoin:round}
    .str11 {stroke:#83CFE9;stroke-width:20624.4;stroke-linecap:round;stroke-linejoin:round}
    .fil0 {fill:none}
    .fil1 {fill:#FEFEFE}
    .fil3 {fill:#FEFEFE}
    .fil2 {fill:#727271}
   ]]>
  </style>
 </defs>
 <g id="Слой_x0020_1">
  <metadata id="CorelCorpID_0Corel-Layer"/>
  <path class="fil0 str0" d="M13105657 13335082c-220382,160046 -440784,320070 -301724,275470 139059,-44600 637571,-293846 623155,-228260 -14448,65595 -541813,446022 -375189,384355 166583,-61656 1027136,-565386 1042893,-537832 15726,27534 -813333,586382 -785768,630982 27533,44601 911710,-425027 968108,-405341 56407,19655 -714944,528665 -627053,511629 87890,-17066 1035044,-560178 1153108,-557539 118065,2620 -592950,550950 -548350,568006 44600,17046 844836,-497181 970779,-541782 125922,-44621 -422429,380427 -372569,404042 49839,23605 697877,-354203 742477,-318770 44601,35412 -514217,484054 -459129,495882 55098,11797 724132,-413251 867121,-446043 142978,-32793 -240058,326659 -204646,338466 35412,11808 489324,-324050 600830,-358152 111495,-34103 -119384,233519 -116765,292567 2619,59016 238758,-90531 474886,-240089"/>
  <path class="fil0 str0" d="M25043881 13335082c220382,160046 440784,320070 301724,275470 -139059,-44600 -637571,-293846 -623155,-228260 14448,65595 541813,446022 375189,384355 -166583,-61656 -1027136,-565386 -1042893,-537832 -15726,27534 813333,586382 785769,630982 -27534,44601 -911711,-425027 -968109,-405341 -56407,19655 714944,528665 627054,511629 -87891,-17066 -1035045,-560178 -1153109,-557539 -118065,2620 592950,550950 548350,568006 -44600,17046 -844836,-497181 -970779,-541782 -125922,-44621 422429,380427 372569,404042 -49839,23605 -697877,-354203 -742477,-318770 -44601,35412 514217,484054 459129,495882 -55098,11797 -724132,-413251 -867121,-446043 -142978,-32793 240058,326659 204646,338466 -35412,11808 -489324,-324050 -600830,-358152 -111495,-34103 119384,233519 116765,292567 -2619,59016 -238758,-90531 -474886,-240089"/>
  <path class="fil0 str1" d="M21363822 7208003c596447,1122451 555806,2121661 1296088,4271597"/>
  <g id="_365515016">
   <path class="fil1 str2" d="M21363832 7208013c-3457841,-2119082 1281506,-3187848 0,0z"/>
   <polygon class="fil1 str2" points="21320934,7319880 21363822,7207993 21254286,7265885 "/>
  </g>
  <polygon class="fil2 str2" points="21545420,8471504 21525167,8396266 21489724,8468606 "/>
  <polygon class="fil2 str2" points="20667904,8650431 20629151,8506514 20561359,8644893 "/>
  <path class="fil1 str2" d="M20629151 8506514c-5349953,-2554010 1872343,-4668091 0,0z"/>
  <path class="fil0 str1" d="M20629151 8506514c971480,812940 1374377,2406730 2030759,2973086"/>
  <g id="_365515784">
   <path class="fil3 str2" d="M21529828 8396276c-2521980,-3383604 2808854,-1484367 0,0z"/>
   <polygon class="fil3 str2" points="22118623,7652231 22087470,7536518 22032959,7647777 "/>
  </g>
  <path class="fil0 str1" d="M21529838 8396266c429926,940379 674675,2033543 1130072,3083334"/>
  <path class="fil1 str2" d="M22087470 7536518c-2924434,-3752151 3448612,-1844417 0,0z"/>
  <path class="fil0 str1" d="M22087470 7536518c-41404,1793744 333681,1354651 572440,3943082"/>
  <g id="_365516792">
   <path class="fil0 str1" d="M22214640 12883800c300332,-573863 57098,-1025165 445270,-1404200"/>
   <path class="fil0 str1" d="M22974967 12698851c-281914,-274654 -210028,-812837 -315057,-1219251"/>
   <path class="fil0 str1" d="M22769477 12705709c-143866,-284720 -73052,-817416 -109567,-1226109"/>
   <path class="fil0 str1" d="M22536576 12952294c143865,-518301 82219,-981793 123334,-1472694"/>
   <path class="fil0 str1" d="M22481777 12500228c-67029,-478557 180391,-468091 178133,-1020628"/>
  </g>
  <path class="fil0 str1" d="M22639471 8307891c-178143,1502465 13622,2114483 20439,3171709"/>
  <path class="fil1 str2" d="M22639471 8307891c3110836,-4087576 -3446725,-1855545 0,0z"/>
  <polygon class="fil2 str2" points="22741592,8409785 22639460,8307891 22649597,8456706 "/>
  <path class="fil0 str3" d="M23184264 6259694c-321937,-100451 -643852,-200902 -547959,-146093 95914,54799 609636,264869 539977,256877 -69628,-7992 -722637,-234035 -692958,-198644 29678,35381 742065,332207 706673,344768 -35402,12550 -818550,-259146 -746643,-207760 71927,51365 998952,425801 913329,423522 -85622,-2279 -1183880,-381314 -1182746,-357328 1145,23986 1101682,450942 1059433,496614 -42238,45673 -1227253,-289978 -1189572,-252308 37670,37681 1298057,448673 1256942,497780 -41094,49086 -1383679,-263735 -1417936,-255743 -34237,7992 1239834,336786 1286651,383593 46807,46807 -1133660,-188373 -1153067,-168388 -19408,19985 1122224,295135 1082274,323123 -39960,27956 -1261531,-191271 -1319743,-168429 -58223,22831 1046893,287720 1137651,376199 90757,88478 -832823,546 -902482,21109 -69628,20541 714686,149557 829430,194663 114744,45105 -440114,6280 -590806,38815 -150702,32514 102720,136379 210028,190600 107330,54211 68494,58779 29679,63337"/>
  <path class="fil0 str4" d="M22293507 5505884c-301384,38815 -602799,77630 -479506,103895 123313,26255 671292,39949 598220,60512 -73041,20552 -767185,47931 -708963,79909 58243,31957 868792,68493 849394,93614 -19407,25100 -868781,38815 -966973,68493 -98172,29679 554837,75341 570820,86778 15995,11415 -605078,-11437 -648461,7971 -43373,19407 490912,81064 502327,102751 11437,21686 -500038,3433 -529716,26842 -29679,23398 422408,88458 500038,124994 77620,36536 -219186,44528 -516022,52520"/>
  <path class="fil0 str5" d="M21392428 6606091c-225775,47199 -451571,94418 -391636,105834 59945,11415 405609,-12963 378643,3393 -26967,16344 -426523,73422 -396246,105772 30277,32359 490448,39959 481868,53087 -8549,13127 -485849,31792 -474474,45693 11395,13870 511443,23007 515527,29472 4073,6456 -487798,10271 -503122,23007 -15324,12735 445920,34422 425842,59914 -20067,25502 -521425,54830 -493459,66926 27977,12086 585258,6971 589249,44084 4001,37104 -545308,116425 -552073,142329 -6755,25915 529005,-1588 561065,22584 32061,24141 -439598,99966 -444816,137307 -5218,37350 456026,36206 479424,61914 23409,25677 -391028,78177 -391688,91129 -670,12942 412436,-13695 455809,13148 43394,26822 -282935,107102 -299404,134131 -16458,27007 276955,742 275232,15014 -1711,14272 -298548,69071 -272396,74598 26183,5507 375353,-38227 406754,-24522 31401,13695 -254979,84838 -227889,100204 27111,15365 367691,-25059 364247,-10787 -3413,14262 -350841,83230 -358441,114857 -7600,31628 324607,25935 381025,48014 56438,22058 -162943,71927 -382314,121776"/>
  <path class="fil0 str6" d="M19305406 5942852c-291855,194849 -583742,389687 -370063,298744 213700,-90943 932913,-467688 817612,-348944 -115290,118714 -1065135,732929 -971521,702106 93614,-30834 1230687,-706684 1198709,-642749 -31957,63936 -1232966,867637 -1129071,848229 103885,-19407 1512684,-861923 1500114,-779714 -12550,82177 -1446460,1089121 -1424773,1099392 21707,10271 1498979,-976121 1554923,-964695 55944,11416 -1309452,1020618 -1301378,1057835 8106,37217 1389692,-897563 1413657,-861027 23976,36526 -1309658,1044378 -1292932,1098042 16737,53665 1383875,-846837 1426104,-827429 42249,19407 -1240361,958765 -1262913,1015163 -22532,56397 1215002,-770176 1280083,-774734 65069,-4569 -1042315,812858 -1089122,889343 -46807,76486 966963,-587949 1052585,-601633 85623,-13716 -756894,623320 -794461,721244 -37577,97904 729804,-343292 777745,-343292 47952,0 -623536,441196 -677088,500863 -53561,59666 510794,-262229 639810,-257650 129005,4558 -177349,335589 -259084,462213 -81724,126633 61183,48879 133100,40887 71927,-7992 72876,53789 73814,115548"/>
  <path class="fil0 str7" d="M20943487 5301506c-328814,60522 -657649,121014 -532655,114187 125014,-6857 703837,-81064 633622,-61656 -70216,19397 -789450,132418 -797452,144411 -7992,11973 695279,-77063 735238,-60511 39950,16540 -583381,138719 -550949,147082 32442,8353 720678,-97089 731505,-70246 10859,26822 -655680,185908 -648739,208378 6960,22470 687369,-91717 719904,-68865 32535,22821 -582794,182650 -624465,219763 -41672,37093 490314,-48529 554796,-17830 64471,30669 -338570,177679 -387718,257774 -49127,80064 255680,93222 335631,136173 79940,42960 -64936,115672 -209833,188414"/>
  <g id="_365518568">
   <path class="fil0 str2" d="M22659930 11479590c188713,425790 446209,633251 825697,453458"/>
   <path class="fil0 str2" d="M24198344 12931773c20335,771733 -66648,797245 -248225,798050"/>
   <path class="fil0 str2" d="M23714372 13034090c20336,587042 -66648,606439 -248225,607058"/>
   <path class="fil0 str8" d="M23054939 11167615c227373,66978 454746,-32844 682110,-402443 -510495,15365 -870009,-44745 -798061,-320596 171657,-1044274 1716402,-1164628 2036101,-105720 479630,1570608 -1579694,1848500 -1920150,828759z"/>
   <path class="fil0 str2" d="M23999690 9601049c-229498,-143226 -316203,-278532 -300126,-408135"/>
   <path class="fil0 str2" d="M23853380 9607082c-229982,-110505 -350171,-257609 -416426,-422697"/>
   <path class="fil0 str2" d="M23859856 10250202c-63781,41651 -107875,97068 -126190,170532"/>
   <path class="fil0 str2" d="M23500043 10135974c-63780,41650 -107875,97068 -126190,170532"/>
   <path class="fil0 str2" d="M23577364 11896274c-133625,710417 -129562,945504 -72216,1073870 299146,64957 621598,-9910 948134,-109144 24491,-366959 1680,-686771 -55676,-1035539"/>
   <path class="fil0 str2" d="M24509617 11815685c418221,141679 649379,402309 595807,843959"/>
  </g>
  <path class="fil0 str4" d="M24326751 12014060c-108000,-115960 -215999,-231931 -184165,-166562 31833,65369 203500,312067 162571,290473 -40918,-21604 -294444,-311500 -269437,-251813 25018,59687 328557,468947 284782,440526 -43765,-28420 -434834,-494531 -414942,-441093 19892,53427 450766,626393 419500,606501 -31267,-19892 -524664,-632663 -549114,-636066 -24440,-3413 420077,602531 410415,615039 -9663,12509 -473505,-568428 -478053,-548526 -4547,19893 450200,640604 450200,654824 0,14211 -454747,-578091 -442806,-549660 11942,28421 490551,677552 489417,701425 -1135,23873 -482023,-577524 -495099,-580927 -13076,-3413 441671,591157 459852,663919 18190,72763 -400165,-376302 -447353,-418365 -47179,-42063 276830,322875 295011,383696 18190,60821 -269427,-182474 -302972,-193838 -33536,-11375 187021,209182 214297,278532 27286,69339 -138688,-12509 -304673,-94367"/>
  <g id="_365520152">
   <path class="fil0 str9" d="M7083091 3881095c3126233,2493590 382119,5773897 6057442,8791873"/>
   <path class="fil0 str9" d="M8219598 4394209c44311,464925 143050,929860 293856,1394693 -123499,-342479 -325484,-655639 -682059,-910732"/>
   <path class="fil1 str10" d="M6403405 4595575c1216230,-723637 2299267,-1160286 3262859,-1340162 -1427547,677398 -1726085,1740791 -2534551,2359873 -26512,-504658 -293949,-825646 -728308,-1019711z"/>
   <path class="fil1 str10" d="M5587618 3663343c843362,-350759 2325347,-441403 3830947,-539008 -1413368,448632 -2660607,818778 -3277399,1150779 51355,-292444 -138472,-494253 -553548,-611771z"/>
  </g>
  <g id="_365520608">
   <path class="fil0 str8" d="M15191018 11180938c-227373,66978 -454746,-32844 -682110,-402443 510495,15365 870009,-44745 798061,-320596 -171657,-1044274 -1716402,-1164627 -2036101,-105720 -479630,1570608 1579694,1848501 1920150,828759z"/>
   <path class="fil0 str2" d="M14246267 9614373c229498,-143226 316203,-278532 300126,-408136"/>
   <path class="fil0 str2" d="M14392577 9620405c229982,-110505 350171,-257608 416426,-422696"/>
   <path class="fil0 str2" d="M14386101 10263525c63781,41651 107875,97069 126190,170533"/>
   <path class="fil0 str2" d="M14745914 10149297c63780,41651 107875,97068 126190,170533"/>
   <path class="fil0 str2" d="M14668593 11909598c133625,710417 129562,945504 72216,1073870 -299146,64956 -621598,-9910 -948134,-109144 -24491,-366960 -1680,-686772 55676,-1035540"/>
   <path class="fil0 str2" d="M14808519 11794472c555940,113012 817447,-102791 810136,-618824"/>
   <path class="fil0 str2" d="M13736340 11829008c-418221,141679 -649379,402309 -595807,843960"/>
   <path class="fil0 str2" d="M13948524 13078721c-505782,187765 -729258,244832 -480383,528170"/>
   <path class="fil0 str2" d="M14479477 13211130c385377,504462 316399,420892 630415,411972"/>
  </g>
  <path class="fil0 str3" d="M13916989 12039913c107999,-115961 215999,-231932 184165,-166563 -31833,65369 -203500,312068 -162571,290474 40918,-21604 294444,-311500 269436,-251813 -25017,59687 -328556,468947 -284781,440526 43765,-28420 434834,-494531 414942,-441093 -19892,53427 -450766,626393 -419500,606501 31267,-19893 524664,-632663 549114,-636066 24440,-3414 -420078,602530 -410415,615039 9663,12509 473505,-568428 478052,-548526 4548,19892 -450199,640604 -450199,654824 0,14210 454747,-578091 442806,-549660 -11942,28420 -490551,677552 -489417,701425 1134,23872 482023,-577524 495099,-580927 13075,-3414 -441671,591156 -459852,663919 -18191,72763 400165,-376302 447353,-418365 47178,-42064 -276830,322874 -295011,383695 -18191,60822 269427,-182474 302972,-193838 33535,-11374 -187022,209183 -214297,278532 -27286,69340 138688,-12508 304673,-94366"/>
  <path class="fil0 str11" d="M6746347 4518007c316966,392657 633921,785304 600406,700950 -33514,-84364 -417488,-645739 -380829,-656773 36650,-11044 493964,528283 520766,508566 26812,-19706 -376890,-598447 -360329,-630776 16562,-32328 453365,481755 487282,478610 33896,-3156 -335105,-523550 -320111,-551145 14974,-27596 413932,437587 457171,433895 43228,-3692 -269293,-476268 -263425,-515238 5847,-39001 330083,355606 355440,339591 25358,-16025 -248111,-442672 -237417,-481734 10704,-39083 305581,309427 344499,303199 38918,-6229 -178112,-367176 -156230,-395091 21883,-27905 282709,277253 324999,275593 42280,-1650 -133945,-310118 -102214,-372095 31730,-61986 271417,122509 321359,127273 49911,4765 -89923,-170233 -57192,-258547 32710,-88313 238005,-89943 443280,-91582"/>
  <path class="fil0 str11" d="M6014790 3619434c159261,261764 318533,523529 319317,445466 784,-78064 -156900,-495944 -127727,-480167 29173,15768 245214,465183 279904,440753 34690,-24439 -111960,-522755 -84364,-533006 27595,-10260 229446,467555 260197,467555 30751,0 -109588,-477805 -94088,-501152 15499,-23367 186836,407703 236510,406919 49673,-794 -22326,-433442 3310,-443341 25636,-9910 148887,402938 186733,411611 37846,8672 -9714,-386831 16231,-417933 25946,-31122 125397,302158 160097,303735 34680,1578 4599,-328556 36093,-344860 31493,-16314 124550,281214 176596,293825 52035,12612 63059,-259681 117631,-302910 54582,-43229 152744,142587 208110,168677 55377,26079 67999,-107556 134420,-174338 66400,-66782 186609,-66699 306818,-66617"/>
  <rect class="fil0" x="-1" y="-5" width="30936568" height="17251484"/>
 </g>
</svg>
