<?xml version="1.0" encoding="utf-8"?>
<!-- Generator: Adobe Illustrator 16.0.0, SVG Export Plug-In . SVG Version: 6.00 Build 0)  -->
<!DOCTYPE svg PUBLIC "-//W3C//DTD SVG 1.1//EN" "http://www.w3.org/Graphics/SVG/1.1/DTD/svg11.dtd">
<svg version="1.1" id="Layer_1" xmlns="http://www.w3.org/2000/svg" xmlns:xlink="http://www.w3.org/1999/xlink" x="0px" y="0px"
	 width="708.661px" height="935.433px" viewBox="0 0 708.661 935.433" enable-background="new 0 0 708.661 935.433"
	 xml:space="preserve">
<g id="Слой_x0020_1">
	<path fill="#E6E7E8" d="M419.189,346.465c-8.254-21.072,84.286-101.286,96.037-90.217c15.798,14.896-49.688,41.515-68.298,71.551
		C445.808,329.575,423.397,349.443,419.189,346.465L419.189,346.465z"/>
	<rect x="0" y="-0.683" fill="none" width="548.569" height="763.604"/>
	<path fill="#73746C" d="M156.464,431.269c-0.082-31.865-15.141-46.406-37.113-9.346
		C138.617,411.81,144.138,413.095,156.464,431.269z"/>
	<path fill="#00AFEF" d="M421.294,115.251c-7.599,3.034-16.917-0.738-24.379,1.23c-2.214,0.547-3.662,7.188-5.849,7.789
		c-2.87,0.765-6.942-3.088-9.784-2.542c-2.021,0.382-3.8,4.81-5.794,5.192c-3.335,0.683-6.148-4.181-9.456-3.935
		c-11.232,0.82-22.712,4.673-34.162,2.35l34.653-61.056l13.338,9.292l10.275-7.051L421.294,115.251L421.294,115.251z"/>
	<path fill="#6899DE" d="M421.294,115.251c-7.599,3.034-16.917-0.738-24.379,1.23c-2.214,0.547-3.662,7.188-5.849,7.789
		c-2.87,0.765-6.942-3.088-9.784-2.542c-2.021,0.382-3.8,4.81-5.794,5.192c-3.335,0.683-6.148-4.181-9.456-3.935
		c-11.232,0.82-22.712,4.673-34.162,2.35l34.653-61.056l13.338,9.292l10.275-7.051L421.294,115.251L421.294,115.251z"/>
	<polygon fill="#EDEDEE" points="407.629,93.879 388.934,84.614 380.844,94.699 373.385,89.506 361.686,104.237 354.882,84.779 
		366.523,64.281 379.861,73.573 390.136,66.522 	"/>
	<path fill="#B6D2DE" d="M397.735,136.214c-0.027,3.99,3.197,5.849,6.204,6.368c1.748,0.246,1.175,5.849,2.979,6.04
		c2.378,0.273,5.574-4.509,8.115-4.564c2.296,0,6.942,8.8,9.293,8.8c5.712,0,10.413-6.478,15.66-8.117
		c2.569-0.792,5.192,1.886,7.816,2.132c4.291,0.41,12.98,1.913,12.653-0.438l-13.01-46.461c0,0-2.433-5.903-4.51-5.548
		c-2.049,0.355-4.673,4.127-6.859,4.865c-2.186,0.738-2.269-5.029-4.346-5.166c-1.968-0.109-3.115,4.455-5.548,5.466
		c-1.396,0.52-1.694-7.816-5.22-2.405L397.735,136.214z"/>
	<path fill="#EDEDEE" d="M414.324,108.337c-0.026,3.607-0.573-3.197,8.146-2.214c2.403,0.274,0.929,5.001,3.471,4.975
		c2.296-0.027,5.794-2.132,8.146-2.132c5.738,0,2.979,3.252,8.197,1.64c2.598-0.82,1.75,4.428,4.373,4.673
		c4.265,0.41,3.8-3.389,3.472-5.739l-2.679-9.565c0,0-2.433-5.903-4.51-5.548c-2.049,0.355-4.673,4.127-6.859,4.865
		c-2.186,0.738-2.269-5.029-4.346-5.166c-1.968-0.109-3.115,4.455-5.548,5.466c-1.396,0.52-1.694-7.816-5.22-2.405L414.324,108.337
		L414.324,108.337z"/>
	<path fill="#6899DE" d="M191.857,515.037c1.995,0.684,5.712-2.705,8.172-2.27c2.241,0.355,3.279,4.619,5.029,4.072
		c2.296-0.738,2.731-4.48,4.837-4.234c2.952,0.381,7.188,6.941,9.92,7.352c4.235,0.629,4.673-7.625,8.253-8.582
		c1.667-0.438,3.553,3.334,5.521,3.525c2.323,0.246,2.516-4.182,4.429-4.482c1.365-0.246,3.36,2.953,4.863,3.416
		c2.159,0.658,3.8-1.365,4.811-2.156l-25.744-41.98l-10.877-1.775L191.857,515.037L191.857,515.037z"/>
	<polygon fill="#EDEDEE" points="201.477,491.478 208.828,484.072 213.475,501.562 218.395,484.755 235.339,491.503 
		221.948,469.697 211.071,467.919 	"/>
	<path fill="#6793A7" d="M172.644,613.396c-4.62,1.613-13.282-3.879-19.897-2.65c-4.974,0.932-7.733,8.912-12.572,8.256
		c-6.367-0.902-11.588-8.336-16.261-7.598c-8.145,1.256-5.984,14.184-14.43,13.609c-5.001-0.33-5.275-9.457-10.413-10.604
		c-8.199-1.887-21.372,3.471-30.036-1.014l27.604-69.607c2.596-1.857,5.492,2.707,7.844,1.668c2.896-1.258,5.22-7.953,7.761-8.064
		c2.925-0.107,2.815,6.533,5.275,7.871c1.967,1.039,6.613-3.416,8.309-1.475L172.644,613.396z"/>
	<path fill="#EDEDEE" d="M138.535,562.673c-4.618,1.586-5.165,12.461-11.806,13.664c-4.947,0.93-1.065,5.549-5.875,4.893
		c-6.368-0.9-0.273-12.572-4.976-11.834c-8.089,1.258-2.76,16.563-11.205,16.045c-4.974-0.357-0.055-23.889-5.191-25.037
		c-8.199-1.885-2.434,8.664-11.096,4.184l8.254-20.799c2.596-1.857,5.492,2.707,7.844,1.668c2.896-1.258,5.22-7.953,7.761-8.064
		c2.925-0.107,2.815,6.533,5.275,7.871c1.967,1.039,6.613-3.416,8.309-1.475L138.535,562.673L138.535,562.673z"/>
	<path fill="#73746C" d="M53.266,277.975c22.329-44.248,38.397-50.67,58.978-4.209C88.248,254.799,76.114,249.552,53.266,277.975z"
		/>
	<path fill="#73746C" d="M50.643,300.14C83.302,273.302,96.53,260.347,100,324.381C97.213,285.519,81.908,274.859,50.643,300.14z"/>
	<path fill="#73746C" d="M99.973,287.814c19.294-42.143,19.322-42.744,48.646-4.154C130.747,264.583,114.403,264.283,99.973,287.814
		z"/>
	<path fill="#73746C" d="M80.514,223.616c19.731-27.604,20.716-25.417,31.292,1.585C104.428,211.645,93.878,209.541,80.514,223.616z
		"/>
	<path fill="#73746C" d="M110.933,238.592c5.52-33.425,18.256-16.261,23.229,1.612C128.888,229.929,118.612,223.67,110.933,238.592z
		"/>
	<path fill="#73746C" d="M200.248,518.89c-15.934-18.994-14.978-19.842-29.49-6.559c0.603-0.604,2.297,0.109,2.844-0.439
		C183.822,502.546,186.036,515.583,200.248,518.89L200.248,518.89z"/>
	<path fill="#73746C" d="M159.115,522.306c6.478-23.531,21.509-11.451,27.385,1.121
		C177.891,511.541,165.456,506.427,159.115,522.306z"/>
	<path fill="#40949F" d="M436.789,156.766c-1.146,2.022,0.902,5.411,2.543,5.931c1.559,0.465,4.592-2.979,5.795-2.077
		c2.049,1.503,2.649,3.662,5.819,4.182c3.198,0.492,4.564-4.619,8.582-4.673c1.313-0.028,0.711,7.325,2.24,7.57
		c2.461,0.437,2.433-6.396,5.604-7.188c1.34-0.328,2.597,2.351,4.317,2.651c1.504,0.3,2.651-3.499,4.237-3.444
		c2.924,0.027,7.434,6.231,8.034,3.389l-17.602-32.468c-1.83-1.94-4.455,0.492-5.465-1.148c-3.636-5.875-7.653-2.596-12.654,4.919
		L436.789,156.766L436.789,156.766z"/>
	<path fill="#EDEDEE" d="M445.863,139.083c-1.147,1.995,1.749,0.219,3.391,0.71c1.528,0.465,1.174,3.362,2.377,4.264
		c2.05,1.503,4.838-10.249,7.543-8.5c5.794,3.772,3.252,6.833,7.379,6.887c2.87,0.055,2.051-3.689,2.65-6.559l-2.843-5.248
		c-1.83-1.939-4.455,0.492-5.465-1.147c-3.636-5.875-7.653-2.596-12.654,4.919L445.863,139.083L445.863,139.083z"/>
	<polygon fill="#2761A1" points="172.07,602.902 165.428,592 120.99,664.888 156.464,662.949 175.568,685.931 188.823,673.851 
		216.099,673.851 239.493,683.992 248.841,675.437 200.138,595.878 192.704,599.406 183.767,583.417 	"/>
	<polygon fill="#EDEDEE" points="172.07,602.902 165.428,592 149.195,618.646 168.161,614.599 173.218,627.472 187.265,614.218 
		194.618,629.414 208.857,610.119 200.138,595.878 192.704,599.406 183.767,583.417 	"/>
	<path fill="#EDEDEE" d="M428.808,80.625l2.324,16.753l7.543-12.763c6.34,1.476,11.014,0.93,7.814-9.319
		c11.507-7.078,1.177-33.588-7.707-16.125c-2.788-9.838-18.393-13.583-15.604,4.51C409.297,60.291,413.149,94.344,428.808,80.625
		L428.808,80.625z"/>
	<g id="_794333312">
		<path fill="#90413A" d="M44.958,347.776c2.077,9.374,4.975,14.676,9.238,13.473l-1.367-8.827l12.791-0.547l-0.11,9.101
			c4.265-0.164,5.658-3.17,7.106-10.987c-0.354-6.04,2.87-7.735,9.375-5.439c1.476-0.109,4.373-2.733,3.936-3.744
			c-0.437-1.011-1.857-1.312-2.515-2.405c-0.546-0.984-0.3-2.815-0.982-3.389c-0.957-0.765-2.077-0.246-2.979-0.902
			c-1.066-0.792-0.984-2.433-2.514-2.624c-1.642-0.191-3.608,1.476-5.985,1.749c-7.926-2.268-20.826-0.082-26.21,9.976
			c-0.983,1.831-2.733,1.722-2.76,2.924C41.924,347.229,43.372,347.066,44.958,347.776L44.958,347.776z"/>
		<path fill="#4B4B4D" d="M80.022,336.762c-2.377-0.383,0.984,3.908,0.737,0.219C80.733,336.79,80.323,336.817,80.022,336.762z"/>
	</g>
	<ellipse fill="#00AFEF" cx="97.213" cy="233.81" rx="13.337" ry="3.854"/>
	<path fill="#D2D3D5" d="M84.094,233.126c3.497-1.421,3.389-1.011,3.607-0.382c0.082,0.3,0.219,0.71,1.722,0.737
		c0.138,0,0.438-0.164,0.793-0.382c1.147-0.71,2.979-1.804,5.166-0.109c0.465,0.41,0.71,0.137,1.039-0.191
		c0.656-0.738,1.53-1.667,4.208-0.027c1.066,0.684,1.724,0.219,2.378-0.246c1.039-0.738,2.187-1.503,4.756,0.655
		c0.573,0.493,1.693,0.301,2.322,0.192c0.22-0.027,0.301-0.027,0.382-0.027l0,0c-0.081,0-1.558,1.421-3.006,0.191
		c-2.295-1.94-3.279-1.257-4.209-0.628c-0.792,0.547-1.53,1.066-2.87,0.246c-2.351-1.476-3.089-0.656-3.635-0.055
		c-0.493,0.519-0.847,0.902-1.667,0.246c-1.913-1.503-3.581-0.52-4.619,0.136c-0.438,0.246-0.792,0.465-1.039,0.465
		c-1.804-0.055-2.021-0.628-2.158-1.039C87.156,232.58,87.156,231.896,84.094,233.126L84.094,233.126L84.094,233.126z"/>
	<path fill="#D2D3D5" d="M84.641,235.094c1.447-1.148,2.131-0.902,2.814-0.438c0.655,0.492,1.53,1.093,4.236-0.219
		c0.574-0.273,0.875,0.055,1.257,0.411c0.546,0.519,1.257,1.202,3.389-0.301c1.34-0.929,2.269-0.492,3.279-0.054
		c0.929,0.437,1.858,0.901,3.279,0.027c1.449-0.902,2.433-0.355,3.498,0.246c0.684,0.41,1.586,0.957,2.46,0.957l0,0
		c-1.012,0-1.968-0.137-2.68-0.546c-0.957-0.546-1.803-1.039-3.033-0.273c-1.641,0.984-2.705,0.492-3.717,0.027
		c-0.875-0.437-1.694-0.792-2.842,0c-2.433,1.695-3.307,0.875-3.936,0.246c-0.247-0.246-0.492-0.465-0.767-0.328
		c-2.95,1.421-3.936,0.737-4.699,0.191c-0.521-0.383-1.313-0.902-2.488,0L84.641,235.094L84.641,235.094z"/>
	<path fill="#D2D3D5" d="M89.861,237.007c2.132-1.531,2.733-1.367,3.416-0.902c0.574,0.383,1.367,0.902,4.127,0.027
		c1.339-0.41,3.498,0.519,4.7,1.011l0.329,0.218l0,0c-1.148-0.519-3.718-1.175-4.893-0.792c-2.979,0.902-3.854,0.328-4.509-0.082
		C92.485,236.133,91.747,235.641,89.861,237.007L89.861,237.007L89.861,237.007z"/>
	<path fill="#D2D3D5" d="M86.772,231.432c0.438-0.027,0.793-0.109,1.147,0c0.766,0.274,1.559,0.547,3.334-0.957
		c0.521-0.464,0.875-0.218,1.366,0.109c0.738,0.492,1.886,1.285,5.084-0.382c0.93-0.52,1.694-0.164,2.487,0.246
		c0.956,0.464,2.104,1.148,3.744,0.027l0,0c-1.832,1.257-2.87,0.875-3.937,0.355c-0.711-0.328-1.366-0.628-2.077-0.246
		c-3.443,1.804-4.729,0.93-5.548,0.383c-0.328-0.246-0.574-0.41-0.847-0.164c-1.968,1.694-2.87,1.367-3.771,1.066
		C87.456,231.76,87.128,231.432,86.772,231.432L86.772,231.432z"/>
	<ellipse fill="#FFCC00" cx="216.181" cy="531.517" rx="1.421" ry="1.531"/>
	<path fill="#AA8326" d="M217.192,546.248c0.055,1.832,12.298-0.627,6.941-9.129c-1.994-3.143-13.173-3.416-16.615-2.516
		c-2.377,0.658-11.396,8.721-0.028,8.721C211.535,543.324,217.056,542.859,217.192,546.248L217.192,546.248z"/>
	<path fill="#59BBAC" d="M214.705,544.007c3.252,2.758,0.409,2.842,7.078,0.928c1.914-0.518,6.368-9.047-5.52-9.047
		c-4.265,0-14.268-0.053-13.146,6.67C203.636,545.81,213.749,543.185,214.705,544.007L214.705,544.007z"/>
	<path fill="#FFCC00" d="M222.494,535.125c-8.854,0-2.842,0.684-7.079,3.391c-0.901,0.602-3.635,0.055-2.268-3.279
		c0.765-1.859-8.773,0.465-2.214-2.051c1.476-0.547,4.317,1.119,8.39,0.438C220.143,533.486,221.92,535.125,222.494,535.125
		L222.494,535.125z"/>
	<path fill="#EDEDEE" d="M211.371,537.914c0.246,1.967,5.575,1.803,6.258,0.438c0.191,0.164-2.24,2.104-3.936,2.131
		C211.097,540.535,211.371,537.914,211.371,537.914L211.371,537.914z"/>
	<path fill="#EDEDEE" d="M208.884,538.294c-0.983,1.969,3.689,2.158-0.137,1.939c-0.683-0.055-0.71-1.01,0.082-1.857
		L208.884,538.294L208.884,538.294z"/>
	<path fill="#EDEDEE" d="M220.143,531.761c0.602-6.477-0.22-1.855-1.448-4.727c-0.848-1.996,1.776-2.543,1.749-2.869
		c-0.054-4.02,4.045-3.855,3.688-0.629c-0.218,1.855,1.148-0.547,3.145,0.982c0.902,0.684,0.683,5.084-2.514,5.604
		c-3.444,0.574-0.957-0.793-4.265,1.529L220.143,531.761L220.143,531.761z"/>
	<path fill="#EDEDEE" d="M211.398,531.408c-0.983-1.912-1.065-0.52,0.219-2.133c0.683-0.846-0.765-0.545,0.027-1.693
		c0.711-1.039-0.82-0.711-0.93-1.064c-0.711-2.406-2.24-0.875-2.322-0.932c-0.303-0.244-1.941,0.137-0.411,1.832
		c0,0.027-1.913,1.887,0.272,2.078c0.055,0-0.491,0.711,0.546,1.502c1.148,0.93,0.273-1.422,2.297,0.383
		C211.152,531.435,211.371,531.38,211.398,531.408z"/>
	<ellipse fill="#FFCC00" cx="151.518" cy="418.944" rx="1.447" ry="1.558"/>
	<path fill="#AA8326" d="M150.507,434.138c-0.082,1.889-12.681-0.654-7.16-9.43c2.05-3.223,13.556-3.496,17.082-2.541
		c2.459,0.629,11.752,8.965,0.082,8.965C156.301,431.132,150.643,430.64,150.507,434.138L150.507,434.138z"/>
	<path fill="#59BBAC" d="M153.076,431.816c-3.362,2.871-0.438,2.951-7.325,0.984c-1.939-0.547-6.531-9.318,5.685-9.318
		c4.428,0,14.677-0.082,13.557,6.857C164.445,433.703,154.032,430.998,153.076,431.816z"/>
	<path fill="#FFCC00" d="M145.013,422.689c9.128,0,2.979,0.711,7.296,3.496c0.957,0.602,3.771,0.057,2.351-3.389
		c-0.765-1.912,9.02,0.492,2.241-2.104c-1.477-0.574-4.4,1.146-8.582,0.438C147.446,420.994,145.615,422.689,145.013,422.689
		L145.013,422.689z"/>
	<path fill="#EDEDEE" d="M156.464,425.583c-0.246,1.996-5.712,1.832-6.422,0.41c-0.191,0.164,2.323,2.188,4.072,2.215
		C156.765,428.236,156.464,425.531,156.464,425.583z"/>
	<path fill="#EDEDEE" d="M159.06,425.941c1.012,2.051-3.798,2.215,0.137,1.994c0.684-0.025,0.738-1.037-0.082-1.912L159.06,425.941
		L159.06,425.941z"/>
	<path fill="#EDEDEE" d="M158.105,419.546c0.628-6.643-0.247-1.914-1.531-4.865c-0.875-2.051,1.832-2.625,1.832-2.926
		c-0.028-4.154,4.181-3.963,3.771-0.654c-0.191,1.885,1.202-0.574,3.252,1.01c0.93,0.711,0.711,5.223-2.597,5.768
		c-3.553,0.574-0.983-0.846-4.345,1.559C158.459,419.462,158.105,419.546,158.105,419.546L158.105,419.546z"/>
	<path fill="#EDEDEE" d="M162.942,421.429c2.021-0.928,1.203,0.273,1.203-1.855c0-1.121,0.957,0.055,1.064-1.396
		c0.083-1.283,1.121-0.025,1.422-0.271c2.104-1.477,2.377,0.736,2.459,0.736c0.41,0,1.477,1.396-0.848,1.777
		c0,0,0.355,2.707-1.53,1.475c-0.027-0.025-0.055,0.875-1.394,0.875c-1.531,0,0.683-1.34-2.104-1.145
		C163.133,421.625,162.969,421.404,162.942,421.429L162.942,421.429z"/>
	<path fill="#AA4730" d="M189.862,653.246c-1.885,5.465,14.212,16.699,25.144,8.908c5.057-3.605,12.025-4.699,6.149-12.354
		c-3.936-5.055-14.786-13.42-21.427-6.941C196.558,645.949,191.174,649.417,189.862,653.246L189.862,653.246z"/>
	<path fill="#EDEDEE" d="M201.832,656.796c0.684-1.119-4.017-4.672,2.434-9.045c1.585-1.039,1.447-3.416-0.164-5.002
		c-1.148-1.146-4.019-1.395-3.145-2.787c1.913-3.008-6.914-10.795-7.815,0.271c0,0.273-7.899-1.064-6.668,7.627
		c0.982,6.752,6.887,2.787,13.992,8.225C200.684,656.251,201.832,656.796,201.832,656.796L201.832,656.796z"/>
	<path fill="#EDEDEE" d="M208.392,652.097c5.328-19.213,4.017-4.699,7.761-12.08c1.613-3.17-3.034-1.586,1.147-4.781
		c2.979-2.271-1.448-9.047-3.963-6.807c0.957-4.482-12.298-4.291-8.417,1.914c0.027,0-4.974,2.295-0.902,4.865
		c0.165,0.107-3.907,3.086,1.75,5.957c1.558,0.764,1.914-1.203,2.405,5.303C208.2,647.013,208.501,651.714,208.392,652.097z"/>
	<path fill="#EDEDEE" d="M209.785,658.218c10.604-6.449,4.264,0.629,9.977-1.748c4.291-1.805-0.383-2.295,4.099-2.486
		c4.563-0.219-0.219-4.1,1.995-6.479c3.116-3.334-3.662-2.787-3.936-3.58c-0.655-1.939-5.494-3.58-5.931,2.352
		c-0.027,0.162-4.755-2.707-3.553,3.416c0.957,4.891,2.65-1.283-2.705,7.16C209.047,657.947,209.02,658.218,209.785,658.218z"/>
	<g id="_794340288">
		<path fill="#90413A" d="M507.683,121.811c-2.104,9.347-5.001,14.648-9.292,13.474l1.395-8.855l-12.791-0.546l0.109,9.128
			c-4.264-0.191-5.657-3.198-7.079-10.986c0.355-6.04-2.896-7.762-9.401-5.439c-1.447-0.109-4.372-2.761-3.936-3.771
			c0.41-1.011,1.858-1.312,2.515-2.405c0.574-0.984,0.302-2.815,1.013-3.362c0.929-0.792,2.049-0.273,2.979-0.929
			c1.039-0.792,0.957-2.405,2.486-2.596c1.64-0.191,3.635,1.476,6.014,1.722c7.897-2.269,20.798-0.083,26.183,9.975
			c0.982,1.831,2.705,1.722,2.761,2.924C510.663,121.264,509.269,121.073,507.683,121.811L507.683,121.811z"/>
		<path fill="#4B4B4D" d="M472.594,110.797c2.377-0.41-0.985,3.854-0.711,0.191C471.883,110.797,472.292,110.824,472.594,110.797z"
			/>
	</g>
	<path fill="#73746C" d="M102.707,315.718c16.506-27.221,20.497-40.476,42.088-8.581
		C128.888,293.444,115.305,296.341,102.707,315.718z"/>
	<path fill="#FFCC00" d="M357.424,251.465c1.804,4.1,18.42-0.082,10.631-12.599c-4.372-7.051-21.781-1.148-10.769,12.436
		C357.342,251.355,357.424,251.465,357.424,251.465z"/>
	<path fill="#63372E" d="M364.2,265.349c3.69-4.018-12.324-1.667-4.728-0.027C360.457,265.54,363.599,266.004,364.2,265.349z"/>
	<path fill="#63372E" d="M351.302,265.076c-0.737-3.034,0.026-2.296-5.385-2.296C345.042,265.84,351.519,266.004,351.302,265.076z"
		/>
	<path fill="#63372E" d="M361.633,261.96c0.818-7.571-10.741-15.579-6.971-22.083c4.894-8.363-16.37-7.843-10.467,0.219
		c3.39,4.591-6.259,5.686,1.284,14.021c3.471,3.88-6.04,7.98,5.985,7.98C352.832,262.096,361.577,262.342,361.633,261.96
		L361.633,261.96z"/>
	<path fill="#D2D3D5" d="M350.344,248.021c1.529,0.465,3.115,0.93,3.826,1.804c0.765,0.983,0.572,2.187-1.423,3.771l0,0
		c-0.9,0.71-2.649,0.738-4.263,0.765c-1.202,0.027-2.515,0.137-2.624,0.273c-0.164-0.273-0.52-0.628-0.874-1.066
		c0.546-0.738,1.885-0.628,3.471-0.656c1.395-0.027,2.869-0.027,3.39-0.437l0,0c1.175-0.93,1.421-1.449,1.175-1.75
		c-0.409-0.52-1.776-0.929-3.089-1.312c-1.994-0.574-3.907-1.148-3.907-2.624C347.83,246.819,348.46,247.475,350.344,248.021z"/>
	<path fill="#FFCC00" d="M349.963,242.692c-10.358-6.586,5.685-12.517,0.465-0.956C350.208,242.255,350.098,242.747,349.963,242.692
		z"/>
	<path fill="#63372E" d="M362.205,240.97c-3.278-0.109-12.271,12.437-4.398,8.5C365.95,245.425,362.642,240.97,362.205,240.97z"/>
	<path fill="#D2D3D5" d="M354.443,248.404c-0.573-0.328-0.271,4.318,1.832,2.077C357.342,249.36,354.443,248.404,354.443,248.404z"
		/>
	<path fill="#5CA47A" d="M32.713,328.536v-7.543c-0.464,0.328-0.956,0.629-1.393,0.929c-0.547,0.355-3.444,1.995-3.608,2.132
		l-0.9-1.066c0.246-0.273,3.087-1.913,3.716-2.295c0.738-0.492,1.613-1.039,2.186-1.585v-4.345c-0.382,0.328-0.792,0.71-1.146,1.065
		c-0.684,0.602-2.842,2.269-3.226,2.651l-1.12-1.339c0.41-0.383,2.678-1.776,3.334-2.377c0.766-0.765,1.612-1.503,2.158-2.022
		v-6.286c-0.328,0.355-0.546,0.628-0.765,0.957c-0.546,0.792-1.175,1.667-3.417,3.197l-0.82-1.202
		c1.995-1.394,2.542-2.159,3.062-2.87c0.437-0.656,0.683-1.722,1.939-2.624v-0.082l0.083,0.027h0.027l0.027,0.027l0.901,0.382
		c1.776,0.766,2.98,2.515,4.101,4.127c0.41,0.601,0.819,1.202,1.229,1.694l-1.121,0.929c-0.491-0.546-0.901-1.148-1.339-1.776
		c-0.738-1.093-1.503-2.213-2.433-2.979v6.478c0.737,0.656,1.394,1.039,1.913,1.339c0.901,0.52,2.515,1.722,3.197,2.87l-0.601,1.065
		c-0.492-0.792-2.597-2.268-3.307-2.651c-0.355-0.219-0.767-0.438-1.203-0.738v4.045c1.585,0.246,2.706,1.831,3.499,2.924
		c0.271,0.355,2.814,2.596,2.896,2.651l-0.875,0.984c-0.272-0.191-2.896-2.323-3.225-2.76c-0.573-0.82-1.421-1.968-2.296-2.269
		v8.336H32.713L32.713,328.536z"/>
	<path fill="#5CA47A" d="M504.541,198.963v-7.542c-0.438,0.355-0.929,0.655-1.365,0.956c-0.547,0.355-3.472,1.968-3.607,2.104
		l-0.93-1.039c0.272-0.273,3.115-1.913,3.717-2.323c0.737-0.465,1.612-1.039,2.188-1.585v-4.346
		c-0.355,0.355-0.766,0.711-1.148,1.066c-0.655,0.602-2.815,2.268-3.197,2.651l-1.146-1.312c0.409-0.382,2.678-1.776,3.334-2.405
		c0.793-0.738,1.612-1.475,2.159-1.995v-6.285c-0.302,0.328-0.521,0.601-0.738,0.929c-0.574,0.792-1.202,1.667-3.416,3.225
		l-0.848-1.23c2.022-1.366,2.568-2.159,3.062-2.842c0.465-0.656,0.684-1.722,1.94-2.624v-0.109l0.108,0.055l0.027-0.027l0.027,0.055
		l0.874,0.355c1.804,0.792,2.979,2.514,4.128,4.126c0.408,0.629,0.818,1.229,1.201,1.722l-1.12,0.929
		c-0.465-0.546-0.874-1.175-1.313-1.804c-0.738-1.066-1.503-2.213-2.46-2.951v6.477c0.766,0.656,1.395,1.012,1.94,1.313
		c0.9,0.519,2.515,1.721,3.196,2.896l-0.601,1.039c-0.491-0.792-2.598-2.241-3.308-2.624c-0.354-0.218-0.766-0.437-1.229-0.765
		v4.072c1.585,0.246,2.705,1.831,3.498,2.897c0.272,0.382,2.814,2.596,2.896,2.651l-0.875,1.011
		c-0.271-0.219-2.896-2.323-3.196-2.788c-0.573-0.792-1.421-1.94-2.323-2.268v8.335H504.541L504.541,198.963z"/>
	<path fill="#5CA47A" d="M322.03,102.953V95.41c-0.465,0.328-0.956,0.656-1.394,0.957c-0.546,0.328-3.444,1.968-3.607,2.104
		l-0.901-1.066c0.272-0.274,3.089-1.886,3.717-2.296c0.737-0.465,1.611-1.039,2.187-1.585v-4.345
		c-0.354,0.355-0.792,0.71-1.146,1.065c-0.685,0.602-2.843,2.269-3.198,2.651l-1.147-1.312c0.41-0.383,2.68-1.804,3.335-2.405
		c0.766-0.738,1.611-1.503,2.158-1.995v-6.286c-0.328,0.301-0.547,0.601-0.736,0.929c-0.574,0.792-1.202,1.667-3.444,3.198
		l-0.819-1.203c1.995-1.394,2.541-2.159,3.063-2.842c0.437-0.656,0.683-1.722,1.938-2.624v-0.109l0.082,0.055l0.027-0.027
		l0.027,0.055l0.901,0.355c1.776,0.766,2.979,2.515,4.1,4.127c0.41,0.628,0.819,1.229,1.229,1.721l-1.12,0.929
		c-0.492-0.574-0.901-1.175-1.34-1.803c-0.738-1.093-1.503-2.214-2.432-2.979v6.505c0.736,0.656,1.393,1.011,1.912,1.312
		c0.901,0.52,2.542,1.722,3.197,2.87l-0.602,1.066c-0.492-0.793-2.597-2.241-3.307-2.651c-0.355-0.191-0.766-0.438-1.202-0.738
		v4.072c1.585,0.246,2.705,1.831,3.498,2.897c0.272,0.382,2.813,2.596,2.896,2.651l-0.875,1.011
		c-0.272-0.219-2.896-2.323-3.224-2.788c-0.574-0.793-1.422-1.94-2.296-2.269v8.336H322.03L322.03,102.953z"/>
	<path fill="#5CA47A" d="M128.943,194.564v-7.543c-0.464,0.328-0.93,0.628-1.367,0.929c-0.546,0.355-3.471,1.995-3.606,2.131
		l-0.931-1.065c0.246-0.273,3.115-1.886,3.717-2.323c0.738-0.437,1.612-1.039,2.188-1.585v-4.345
		c-0.382,0.354-0.767,0.738-1.175,1.093c-0.629,0.602-2.815,2.269-3.17,2.651l-1.147-1.313c0.41-0.409,2.65-1.803,3.334-2.432
		c0.792-0.711,1.612-1.476,2.159-1.968v-6.286c-0.3,0.3-0.52,0.601-0.738,0.901c-0.574,0.82-1.202,1.695-3.416,3.226l-0.848-1.23
		c2.022-1.367,2.568-2.132,3.034-2.815c0.492-0.683,0.711-1.749,1.968-2.624v-0.109l0.108,0.027h0.028v0.027l0.902,0.383
		c1.804,0.765,2.979,2.487,4.099,4.127c0.411,0.629,0.849,1.23,1.23,1.694l-1.148,0.957c-0.438-0.574-0.875-1.175-1.311-1.831
		c-0.711-1.066-1.504-2.214-2.434-2.952v6.505c0.766,0.628,1.366,0.983,1.94,1.312c0.9,0.519,2.486,1.694,3.197,2.87l-0.602,1.066
		c-0.492-0.82-2.624-2.241-3.334-2.651c-0.354-0.219-0.738-0.438-1.202-0.738v4.044c1.584,0.246,2.705,1.832,3.498,2.924
		c0.273,0.383,2.815,2.569,2.897,2.651l-0.875,0.983c-0.272-0.191-2.897-2.295-3.197-2.76c-0.601-0.82-1.421-1.968-2.323-2.269
		v8.336h-1.477V194.564z"/>
	<path fill="#5CA47A" d="M230.884,429.193v-7.543c-0.49,0.328-0.956,0.629-1.394,0.93c-0.546,0.354-3.47,1.994-3.607,2.131
		l-0.929-1.066c0.246-0.271,3.115-1.912,3.716-2.295c0.738-0.492,1.613-1.064,2.214-1.584v-4.346
		c-0.408,0.328-0.792,0.709-1.175,1.066c-0.654,0.6-2.842,2.268-3.196,2.623l-1.147-1.313c0.41-0.383,2.65-1.777,3.334-2.406
		c0.792-0.736,1.612-1.475,2.187-1.967v-6.313c-0.355,0.354-0.547,0.627-0.793,0.955c-0.547,0.793-1.175,1.666-3.417,3.197
		l-0.819-1.23c2.022-1.365,2.568-2.131,3.034-2.842c0.491-0.654,0.684-1.721,1.994-2.623v-0.082l0.082,0.025v-0.025l0.028,0.055
		l0.902,0.383c1.775,0.766,2.979,2.514,4.099,4.127c0.41,0.602,0.848,1.23,1.23,1.693l-1.148,0.93
		c-0.464-0.52-0.874-1.146-1.312-1.777c-0.738-1.092-1.503-2.213-2.433-2.979v6.506c0.738,0.627,1.366,1.01,1.94,1.313
		c0.901,0.52,2.488,1.723,3.17,2.867l-0.602,1.068c-0.465-0.795-2.596-2.27-3.307-2.652c-0.354-0.219-0.738-0.438-1.202-0.736v4.045
		c1.584,0.246,2.705,1.83,3.498,2.924c0.273,0.354,2.815,2.596,2.897,2.652l-0.875,0.98c-0.272-0.217-2.897-2.322-3.197-2.758
		c-0.602-0.822-1.421-1.971-2.323-2.271v8.338H230.884L230.884,429.193z"/>
	<path fill="#5CA47A" d="M118.831,450.345v-7.541c-0.464,0.326-0.957,0.654-1.394,0.93c-0.521,0.354-3.443,1.992-3.58,2.131
		l-0.929-1.066c0.245-0.271,3.115-1.887,3.717-2.324c0.71-0.436,1.585-1.037,2.186-1.557v-4.373
		c-0.383,0.355-0.792,0.738-1.146,1.094c-0.684,0.604-2.844,2.27-3.227,2.652l-1.12-1.314c0.41-0.408,2.679-1.803,3.308-2.432
		c0.792-0.711,1.64-1.477,2.186-1.969v-6.285c-0.328,0.301-0.52,0.602-0.765,0.902c-0.546,0.818-1.148,1.693-3.416,3.223
		l-0.82-1.229c2.022-1.365,2.542-2.133,3.034-2.814c0.491-0.682,0.683-1.721,1.967-2.625v-0.107l0.082,0.027h0.028l0.026,0.027
		l0.902,0.383c1.776,0.764,2.979,2.484,4.101,4.125c0.408,0.631,0.819,1.23,1.229,1.695l-1.12,0.955
		c-0.493-0.572-0.902-1.176-1.339-1.83c-0.738-1.064-1.503-2.188-2.433-2.951v6.504c0.737,0.629,1.394,0.984,1.939,1.313
		c0.875,0.52,2.487,1.693,3.17,2.869l-0.601,1.066c-0.464-0.82-2.596-2.242-3.308-2.65c-0.354-0.191-0.737-0.438-1.202-0.738v4.045
		c1.586,0.246,2.732,1.83,3.498,2.926c0.273,0.381,2.814,2.566,2.897,2.65l-0.875,0.982c-0.273-0.191-2.87-2.295-3.226-2.76
		c-0.574-0.82-1.395-1.969-2.296-2.27v8.334h-1.475V450.345z"/>
	<path fill="#6CBCDF" d="M264.336,187.922c1.642-8.308-15.496-20.333-31.922-37.524c-21.126-22.11-43.209-48.593-39.271-68.052
		c-7.79,27.357,38.453,71.659,55.425,85.789c33.616,27.986-10.632,40.585,16.89,56.218c3.772,2.159-4.919,20.279,3.938,26.565
		c0.848,0.601,4.045-1.612,3.39-0.793c-6.45,7.816,0.792,22.411,12.763,26.647c1.805,0.655,12.817,9.292,14.76,11.451
		c-1.585,1.011-3.253,1.858-5.001,2.459c-33.426,11.233-8.855-5.193-21.593,27.33c0.41-1.858,10.934-0.191,13.118,1.613
		c29.024,23.859-28.887-4.673-1.229,46.516c6.121,11.26,37.771,9.866,37.223,5.411c-2.813-22.903-7.542-7.653-17.6-14.239
		c-23.832-15.66,33.23,2.351,34.244,2.023c46.379-13.748,9.429,34.544,10.085,35.009c28.858,20.854-2.979,14.541,0.219,22.604
		c0,7.27-7.789,6.75-9.265,11.424c-10.796,34.518-33.453,9.646-36.24,21.344c-10.084,42.525,58.05,43.291,41.296,56.273
		c-17.081,13.256-3.881,5.549-8.691,17.217c-8.418,20.389-23.039,30.092-43.974,14.76c-49.495-36.295-12.216,10.439-13.747,14.295
		c-6.531,16.451,19.131,32.223,19.459,32.223c30.063-0.9,18.53,31.482,18.421,31.619c-14.54,17.82,21.699,33.182-19.295,33.182
		c-0.055,0.105,0.929,21.373-12.189,28.395c-21.044,11.232-2.321,8.336-1.913,8.117c33.233-17.438,24.406-29.814,38.646-11.043
		c0.589,0.779-29.025,35.136-10.441,45.923c5.983,3.473,11.63,7.819,16.805,13.021c23.141,23.263-46.76,21.622-39.859,33.763
		c6.244,10.988-33.355,32.438-20.5,36c27.422,7.6,4.637,22.379-13,36c-9.054,6.993-22.296,20.055-20,23c23,29.5-2.319,17.567,1,32.5
		c2.008,9.03-26.787,37.838-6.5,35.5c54.112-6.236,203.418,7.869,318.783-161.5c90.049-132.203,164.821-504.861,146.884-608.5
		c-3-17.333-53.237,60.13-53.625,54c-0.602-9.52-10.331-15.553-10.542-15.498c-2.983,0.149,25.741-32.717-0.833-28.002
		c-10.334,1.833-15.57,30.465-19.3,31.517c-68.264,19.249-159.088,109.613-172.006,120.896
		c-22.027,19.241-45.504,71.276-55.753,35.748c-2.188-7.598-21.976-40.148-10.249-34.245c2.486,1.257,1.477,5.138,3.225,6.04
		c11.017,5.603,15.605,2.651,11.998-3.361c-0.246-0.41-3.799,0.082-4.044,0c-4.865-2.159-9.594-10.932-11.808-17.956
		c-8.801-27.576-22.301-30.446-27.934-37.634c-12.271-15.742-19.896-10.167-27.737-1.038c-2.241-3.062-8.393-6.041-10.224-7.38
		c-4.728-3.389-20.579,2.569-32.851-2.35c-7.16-11.396,12.872-13.337-3.69-14.567c-9.265-0.683,9.266-17.546-11.669-31.867
		C256.465,213.421,261.876,207.792,264.336,187.922L264.336,187.922z M305.167,284.315c-3.143-2.732-10.058-6.504-15.77-10.002
		c3.744-1.777,12.763,3.662,15.496,5.438c0.137,0.082,0.93,1.695,1.667,3.17C306.096,283.414,305.631,283.851,305.167,284.315z
		 M309.049,280.216c-0.272-1.148-0.382-2.214,0.272-2.022c0.438,0.137,0.874,0.246,1.229,0.328
		C310.058,279.096,309.566,279.669,309.049,280.216L309.049,280.216z M311.726,277.1c-1.094-1.038-2.761-2.514-4.51-4.345
		c-5.439-5.793-14.649-3.28-18.995-6.204c4.291,0.109,8.744-0.273,11.834-1.148c6.313-1.776,11.753,6.286,12.873,10.222
		C312.548,276.117,312.108,276.608,311.726,277.1z M285.871,272.126c-6.039-4.018-5.818-3.197-7.813-6.013
		c0.629,0.52,7.27,0.328,8.36,0.383l0,0c3.443,6.423,10.986-0.82,20.145,8.773c0.328,0.328,0.491,1.148,0.656,1.94
		c-1.23-0.164-3.802-0.464-8.256-3.061C293.579,271.006,290.49,272.044,285.871,272.126L285.871,272.126z"/>
	<path fill="#FEFEFE" d="M206.78,506.837c0.71-0.082,0.902,1.641-1.858,1.666c-0.301,0-1.229,0.111-1.175-0.326
		c0.219-0.084,1.503,0.109,2.187-0.084C207.517,507.628,206.67,507.166,206.78,506.837L206.78,506.837z M203.117,508.558
		c-0.41,0.221-1.121-0.271-1.339-0.602c-0.219-0.354-0.219-1.365,0.329-1.229c0.054,0.355-0.465,0.684,0.082,1.201
		C202.515,508.232,203.145,508.232,203.117,508.558z M206.888,505.308c-0.191-1.643,0.601-3.525,0.983-5.086
		c0.328-1.201,0-1.117,0.929-2.156c0.547-0.602,1.449,0.08,1.94,0.49c1.913,1.586-0.847,0.818,0.465,4.51
		c0.602,1.668-0.109,1.23-0.219,2.297c-0.055,0.684,0.765,1.256,0.738,2.268c-0.329-0.244-0.384-0.875-1.941-1.666
		C208.392,505.224,208.282,505.5,206.888,505.308L206.888,505.308z M206.123,511.128v-0.273c-0.055-0.41,1.23-0.354,1.914-0.711
		c2.787-1.641,0.875-4.018-1.065-4.182c3.389,2.051,0.491,3.717-2.159,3.826c-1.175,0.027-2.623-0.164-3.608-0.875
		c-1.53-1.121-0.519-1.912,0.11-2.787c-1.148,0.164-2.022,1.666-1.093,2.762c1.093,1.313,3.114,1.064,3.144,1.584
		c-0.52,0.547-3.034-0.738-3.553-1.447c-0.875-1.313-0.165-2.65,1.175-3.172c-0.547,0.057-1.367,0.492-1.776,0.82
		c-0.737,0.602-0.629,1.666-0.902,1.75c-0.738-0.383,0.52-2.021,1.065-2.377c1.094-0.686,2.049-0.438,3.062-0.711
		c0.3-0.711,3.006-6.779,3.88-6.041l0.083,0.053l-0.985,1.805l0.082,0.166l0.11-0.029c0.189-0.301,0.957-2.076,1.202-2.076
		c0.272,0.193-0.355,0.848-0.438,1.23v0.219l0.219-0.055c0.247-0.246,0.411-1.365,0.767-1.396c0.164,0.193-0.465,1.422-0.574,1.723
		c-0.766,1.994-0.93,2.762-1.121,4.92c-0.055,0.301,0.027,0.93-0.272,0.875c-0.355-0.383,0.519-4.455,0.819-5.109
		c-0.219-0.137,0,0.025-0.137-0.219l-0.274,0.189c-0.246,0.246-0.736,1.969-0.819,2.377c-0.109,0.439-0.219,0.875-0.301,1.313
		c-0.136,0.768-0.054,1.23-0.382,1.203c-0.354-0.572,0.957-4.1,0.983-4.51c-0.301-0.164-0.027-0.109-0.191-0.246l-1.886,4.701
		c-0.792-0.656,2.214-5.74,2.488-6.449c-0.738,0.629-2.104,3.498-2.46,4.482c-1.175,3.195-0.355,1.611-0.191,2.404
		c0.11,0.627,0.684,0.219,1.148,0.301c0.437,0.082-0.056,0.271,0.49,0.326c0.355,0.027,0.41-0.219,0.656-0.025
		c0.056,0.52-1.12,0.49-1.312-0.111c-0.328,0.248-1.065,0.303-1.229-0.105c-0.273-0.549,0-0.111-0.411-0.412
		c-0.3-0.246-0.082-0.436-0.189-0.627c-1.094,0.354-2.023,1.229-0.931,2.268c1.258,1.23,5.221,1.258,6.479,0.027
		c0.902-0.875-0.301-2.021-1.148-2.24c0.056,0.383,0.247,1.012-0.137,1.283c-0.19,0.164-0.957,0.41-1.039-0.109l0.849-0.189
		c0.026-0.082-0.11-3.473,0.19-4.51c0.11-0.465,0.984-3.498,1.313-3.527c0.273,0.33-1.449,4.785-1.147,6.369
		c0.874,0.109,1.503-0.328,3.361,0.793c0.52,0.301,2.433,1.941,1.476,2.488c-0.246-0.057-0.301-0.82-0.438-1.096
		c-0.492-0.848-2.188-1.721-2.897-1.803c0.984,0.764,2.214,1.174,1.585,2.951c-0.41,1.012-1.667,1.887-2.732,1.967
		c-0.191,0.057-0.521,0.057-0.628,0.191L206.123,511.128L206.123,511.128z"/>
	<path fill="#FEFEFE" d="M164.089,650.292c1.641-0.137,2.105,3.799-4.208,3.854c-0.684,0-2.787,0.193-2.624-0.793
		c0.438-0.162,3.39,0.275,4.921-0.162C165.839,652.152,163.87,651.003,164.089,650.292L164.089,650.292z M155.754,654.203
		c-0.901,0.545-2.486-0.574-3.007-1.34c-0.574-0.793-0.574-3.115,0.738-2.814c0.082,0.875-1.093,1.559,0.164,2.789
		C154.387,653.544,155.863,653.492,155.754,654.203L155.754,654.203z M162.614,660.107l0.028-0.658
		c-0.138-0.9,2.787-0.738,4.317-1.611c6.341-3.689,2.022-9.102-2.404-9.484c7.733,4.646,1.12,8.42-4.921,8.664
		c-2.704,0.109-5.957-0.355-8.198-1.994c-3.498-2.541-1.256-4.318,0.247-6.285c-2.651,0.301-4.646,3.744-2.516,6.258
		c2.516,2.951,7.106,2.434,7.161,3.58c-1.175,1.258-6.887-1.641-8.063-3.307c-1.995-2.951-0.438-5.984,2.623-7.16
		c-1.202,0.082-3.115,1.064-4.046,1.857c-1.667,1.365-1.393,3.771-2.021,3.963c-1.694-0.9,1.148-4.592,2.433-5.412
		c2.487-1.584,4.674-1.037,6.942-1.611c0.082-0.52,2.487-9.238,8.854-13.746l0.22,0.107l-2.269,4.127l0.164,0.355l0.301-0.082
		c0.409-0.656,2.104-4.729,2.679-4.701c0.655,0.438-0.82,1.912-0.93,2.734v0.518l0.465-0.107c0.546-0.547,0.982-3.115,1.803-3.172
		c0.354,0.465-1.093,3.227-1.366,3.938c-1.776,4.535-2.132,6.313-2.569,11.232c-0.082,0.654,0.082,2.104-0.601,1.939
		c-0.792-0.875,1.146-10.141,1.914-11.617c-0.521-0.299-0.055,0.027-0.355-0.518l-0.629,0.492c-0.546,0.52-1.64,4.428-1.885,5.355
		c-0.246,1.012-0.464,1.996-0.628,3.033c-0.329,1.695-0.165,2.76-0.903,2.68c-0.792-1.285,2.132-9.293,2.242-10.223
		c-0.711-0.383-0.028-0.271-0.438-0.602l-4.318,10.713c-1.777-1.447,5.083-13.035,5.658-14.676
		c-1.667,1.449-4.783,7.98-5.604,10.223c-2.678,7.27-0.765,3.662-0.41,5.492c0.273,1.395,1.53,0.438,2.624,0.656
		c0.957,0.191-0.164,0.572,1.094,0.738c0.819,0.08,0.983-0.467,1.503-0.027c0.137,1.146-2.542,1.119-2.952-0.246
		c-0.765,0.52-2.434,0.654-2.87-0.273c-0.601-1.285,0.055-0.246-0.874-0.957c-0.684-0.518-0.219-0.955-0.465-1.393
		c-2.515,0.791-4.563,2.787-2.077,5.164c1.695,1.668,5.057,2.076,7.325,2.104c2.214,0.027,5.74-0.41,7.434-2.021
		c2.049-1.994-0.655-4.699-2.65-5.139c0.082,0.875,0.573,2.352-0.274,2.953c-0.492,0.354-2.241,0.875-2.404-0.33l1.94-0.381
		c0.082-0.164-0.246-7.871,0.383-10.25c0.328-1.121,2.295-7.979,3.006-8.063c0.655,0.738-3.279,10.879-2.596,14.484
		c1.994,0.275,3.47-0.736,7.679,1.832c1.148,0.711,5.493,4.453,3.39,5.686c-0.574-0.137-0.711-1.859-1.065-2.516
		c-1.066-1.912-4.947-3.879-6.533-4.127c2.188,1.832,5.029,2.68,3.526,6.723c-0.875,2.379-3.689,4.291-6.204,4.537
		c-0.41,0.082-1.093,0.111-1.421,0.412L162.614,660.107L162.614,660.107z"/>
	<path fill="#00AFEF" d="M118.421,242.856c-1.039-0.109-1.339,2.405,2.679,2.432c0.438,0,1.775,0.137,1.667-0.492
		c-0.272-0.109-2.159,0.164-3.144-0.109C117.328,244.031,118.585,243.32,118.421,242.856L118.421,242.856z M123.723,245.343
		c0.573,0.328,1.585-0.383,1.913-0.875c0.354-0.492,0.382-1.968-0.465-1.776c-0.055,0.547,0.684,0.984-0.109,1.776
		C124.597,244.906,123.669,244.878,123.723,245.343z M119.35,249.087v-0.41c0.082-0.574-1.776-0.492-2.761-1.066
		c-4.045-2.323-1.283-5.767,1.559-6.012c-4.947,2.952-0.738,5.384,3.116,5.521c1.693,0.054,3.798-0.219,5.191-1.257
		c2.241-1.613,0.793-2.761-0.137-4.019c1.667,0.191,2.952,2.405,1.613,3.99c-1.641,1.886-4.537,1.531-4.564,2.295
		c0.71,0.793,4.373-1.066,5.111-2.132c1.284-1.858,0.272-3.798-1.667-4.537c0.765,0.028,1.995,0.683,2.596,1.175
		c1.065,0.875,0.902,2.405,1.257,2.515c1.093-0.574-0.711-2.924-1.531-3.444c-1.585-1.011-2.95-0.656-4.427-1.011l-3.007-6.478
		c-0.273-0.683-1.722-3.061-2.623-2.268l-0.137,0.055l1.448,2.624l-0.109,0.219l-0.192-0.028c-0.271-0.41-1.339-3.034-1.693-2.979
		c-0.438,0.273,0.519,1.175,0.601,1.722l-0.027,0.328l-0.301-0.082c-0.354-0.355-0.628-1.968-1.12-2.023
		c-0.219,0.301,0.684,2.077,0.848,2.515c1.147,2.897,1.366,4.017,1.667,7.133c0.026,0.438-0.082,1.367,0.354,1.257
		c0.521-0.547-0.738-6.45-1.203-7.407c0.329-0.191,0.028,0.028,0.22-0.3l0.383,0.3c0.354,0.328,1.064,2.788,1.202,3.417
		c0.19,0.628,0.301,1.257,0.438,1.913c0.191,1.093,0.082,1.749,0.546,1.694c0.52-0.792-1.339-5.903-1.421-6.504
		c0.438-0.246,0.027-0.164,0.273-0.382l2.731,6.833c1.148-0.93-3.224-8.281-3.58-9.347c1.066,0.929,3.034,5.083,3.554,6.505
		c1.722,4.619,0.491,2.35,0.272,3.471c-0.19,0.929-0.983,0.3-1.667,0.437c-0.601,0.137,0.082,0.383-0.71,0.465
		c-0.519,0.082-0.601-0.273-0.957,0c-0.082,0.738,1.641,0.71,1.913-0.164c0.464,0.328,1.503,0.41,1.804-0.191
		c0.383-0.792-0.026-0.109,0.574-0.601c0.409-0.301,0.109-0.601,0.272-0.875c1.586,0.493,2.897,1.777,1.339,3.308
		c-1.093,1.039-3.226,1.313-4.673,1.313c-1.421,0.027-3.662-0.273-4.729-1.285c-1.312-1.257,0.438-2.979,1.667-3.279
		c-0.026,0.574-0.354,1.503,0.192,1.886c0.3,0.219,1.421,0.574,1.53-0.191l-1.229-0.247c-0.055-0.137,0.137-5.029-0.247-6.532
		c-0.189-0.711-1.476-5.056-1.912-5.138c-0.438,0.492,2.077,6.942,1.667,9.238c-1.284,0.191-2.214-0.492-4.892,1.175
		c-0.738,0.437-3.526,2.815-2.188,3.58c0.384-0.082,0.465-1.175,0.685-1.558c0.71-1.23,3.143-2.487,4.181-2.651
		c-1.394,1.147-3.224,1.695-2.268,4.291c0.546,1.503,2.377,2.733,3.962,2.87c0.246,0.055,0.683,0.055,0.901,0.273L119.35,249.087
		L119.35,249.087z"/>
	<path fill="#EDEDEE" d="M423.397,456.222l-0.054,21.264l-14.158-1.449c-0.354-4.043-0.245-6.941,0.821-10.713
		c1.912-6.561,6.804-16.018,13.309-18.857L423.397,456.222z M439.577,480.792c0.521,7.379-1.667,4.291-6.75,5.383
		c-6.122,1.314-5.385-1.748-11.123-0.574c-6.066,1.26-3.882,1.369-10.25-0.406c-3.523-0.984-4.728-3.938-5.355-8.281
		L439.577,480.792L439.577,480.792z M437.42,479.343l-12.601-1.641l-0.165-19.295c1.56,1.857,1.75,2.625,3.444,4.619
		c1.531,1.775,2.404,2.924,4.044,4.592C434.986,470.542,436.981,474.535,437.42,479.343L437.42,479.343z"/>
	<path id="way1" display="none" fill="none" stroke="#D2D3D5" stroke-width="17.63" stroke-dasharray="107.52,161.28" d="
		M451.549,222.632c5.355,3.225-1.913,35.229,17.792,45.04c2.485,1.229,12.052,9.265,12.299,9.374 M158.951,563.986
		c1.804,24.541,36.158,3.088,66.057,35.01c17.519,18.666,32.934,50.533,9.511,69.525 M177.454,519.656
		c4.864,5.629,17.709,6.969,24.542,6.395 M246.326,253.487c-15.933,13.556,11.698,9.21-23.832,34.217
		c-7.188,5.083-0.711,11.834-15.277,26.483c-4.291,4.318,7.625,8.691-5.192,20.033c-0.711,0.628-8.938,11.889-8.8,13.392
		c-0.521,0.683-3.28,26.428-16.836,37.196c-2.323,1.831-9.757,20.689-9.757,23.313c9.647,12.189,7.078,16.262,6.478,34.465
		c0,0.109,22.219,10.904,25.635,19.268c2.979,7.324,3.389,21.592-13.719,32.523c-36.351,23.23,21.81,8.746-7.57,25.279
		c-6.341,3.553-12.764,36.541-20.278,46.486c-1.75,2.324-3.608,5.605-5.493,2.516c-70.486-115.906-128.809,54.033-62.725,32.799
		 M308.939,222.413c3.443-3.307-14.104-11.889-9.074-16.507c2.733-2.542,2.077-1.449,4.646-3.334
		c0-6.504-18.448-29.188,13.229-30.391c2.597-0.109,43.399-17.136,48.894-21.973c22.931-20.088,23.23,10.413,51.489-17.71
		 M298.991,208.202c-10.495-7.461-4.756-18.448-39.191-25.444c-16.836-3.417-29.243-54.469-85.979-53.567
		c-34.928,0.547-11.452,21.399-57.913,25.089c-34.108,2.706-76.005,32.413-41.624,83.302 M340.697,252.886
		c-12.299,1.093-23.477-8.854-24.896-20.552c-0.247-1.859-6.833-9.757-6.86-9.921c-7.844,3.416-37.087,17.901-39.603,26.1
		c-3.498,1.339-22.247,4.373-23.012,4.974 M365.731,257.614c8.281,1.995,12.763,8.609,15.059,16.617
		c1.694,5.849,32.167-0.41,35.938-2.296c13.584-6.859,2.952-7.516,1.777-23.668c-0.438-5.985-11.042-12.298,1.312-14.813
		c2.434-0.492,29.571-9.539,31.73-10.823c-0.492-4.155-16.426-10.577-15.688-24.98c0.847-16.726,26.346-37.388,19.814-48.511"/>
	<path fill="#73746C" d="M117.984,199.1c-19.733-27.603-20.716-25.39-31.293,1.613C95.737,187.485,106.013,186.173,117.984,199.1z"
		/>
	<g id="_794338976">
		<path fill="#84716B" d="M44.848,546.359c-0.082,0.381-0.409,0.709-0.246,1.064c0.301,0.109,6.204,0.137,6.724,0.025l0.027-1.146
			c0.082-0.383-0.027-0.246,0.19-0.355c-0.027-1.559,1.585-4.373,3.58-3.553c2.459,1.012,1.886,3.553,2.352,5.221h7.297
			c0.766-2.541-2.269-5.141-3.472-7.08c-0.765-1.311-0.982-2.541-1.64-3.797c-1.064-2.16-3.143,0.217-3.471,0.189
			c-0.52-0.547-1.257-5.055-3.771-3.854c-2.05,1.064-2.269,5.139-2.65,5.467c-1.559,0.328-2.542-1.34-3.416,2.623
			C45.832,543.513,45.559,544.199,44.848,546.359L44.848,546.359z"/>
		<path fill="#84716B" d="M44.848,546.359c-0.328,0.137-0.573,0.953-0.301,1.201c0.247,0.137,6.368,0.164,6.942,0.055l0.055-1.668
			c-0.218,0.109-0.108-0.025-0.19,0.355l-0.027,1.146c-0.52,0.109-6.423,0.084-6.724-0.025
			C44.439,547.068,44.766,546.74,44.848,546.359z"/>
	</g>
	<path fill="#EDEDEE" d="M109.292,521.705l-2.296,16.727l-7.515-12.762c-6.341,1.502-11.042,0.955-7.871-9.293
		c-11.479-7.08-3.362-21.455,7.762-16.125c1.858-17.109,18.365-13.582,15.578,4.51C120.58,509.025,120.771,521.078,109.292,521.705
		L109.292,521.705z"/>
	<path id="Ocean_1_" fill="#91D8F7" d="M490.356,320.883c-9.374,7.133-10.932-2.268-21.81-0.628
		c-3.607,0.547-4.399,1.558-6.996,2.706c0.819-4.564,7.569-4.619,10.167-7.406c1.831-2.022,0.683-4.892-0.685-6.177
		c-2.649-2.405-4.346-1.066-6.396,0.328c0.766-7.816,10.304-7.844,13.556-0.984c1.995,4.209,2.27,8.882,7.436,10.714
		c0.792,0.301,1.558,0.438,2.433,0.601C489.046,320.2,489.674,320.228,490.356,320.883L490.356,320.883z M476.691,304.458
		c-0.819-0.765-1.722-2.323-3.389-2.104c-2.132,0.301-1.147,1.339-3.116,0.492c-1.147-0.492-1.395-0.902-1.12-2.269
		C469.886,296.724,476.527,298.227,476.691,304.458z M482.131,316.155c-0.603-1.585-1.585-3.525-0.792-5.712
		c1.913-5.521,9.21-0.055,3.58,1.612c-1.039,0.328-1.559,0.137-2.022,1.257C482.704,314.188,482.594,315.445,482.131,316.155
		L482.131,316.155z M464.885,316.155c-4.783,2.077-5.576-6.477-1.013-8.472c-1.612,6.641,3.089,4.373,2.077,7.297
		C465.732,315.636,465.54,315.854,464.885,316.155L464.885,316.155z"/>
	<g id="_794309824">
		<path fill="#BDBFC1" d="M393.362,336.598c5.356,1.886,3.854,4.756-9.156,1.531c-2.623-0.656-7.926,1.23-11.561,1.23
			c-0.355,0-12.299,0.464-9.511-1.914c0.465-0.382,8.555-1.558,4.071-2.022c-0.736-0.083-9.839-0.875-1.257-1.804
			c3.636-0.383,1.339-3.308-1.421-4.072c-2.132-0.602-2.87-2.323-1.121-3.499c1.969-1.312,2.214-4.728,7.652,0.792
			c6.368,6.478,9.073,0.027,14.321,7.051c0.793,1.066,13.993,0.055,10.495,1.995C395.412,336.134,392.678,336.379,393.362,336.598
			L393.362,336.598z"/>
		<path fill="#848688" d="M366.222,325.967c-0.354,0-0.684,0.246-0.684,0.519c0,0.274,0.328,0.52,0.684,0.52
			c0.384,0,0.711-0.246,0.711-0.52C366.933,326.213,366.606,325.967,366.222,325.967z"/>
	</g>
	<g id="_794341056">
		<path fill="#D32639" d="M412.903,512.63c7.897-5.438,14.539-4.975,20.114,0.492c0.957,0.875,0.766,0.656-0.137,1.639l-0.848,0.932
			l0.711,0.957c0.71,1.012,0.983,0.848,0.027,1.529c-6.123,4.428-12.955,3.443-20.115-0.438l-5.631,3.471
			c3.28-4.865,2.762-8.635,0.574-11.943L412.903,512.63z"/>
		<path fill="#B6D2DE" d="M436.243,508.667l5.521,5.029v0.025c0.793,0.82,0.848,1.941,0.465,2.871
			c-0.137,0.381-0.383,0.738-0.629,1.039c-0.273,0.301-0.603,0.574-0.929,0.738c-0.738,0.354-1.612,0.354-2.352-0.248v-0.025
			l-3.688-3.199l4.071,1.039l-0.438,0.631l0.793,0.682l0,0c0.354,0.273,0.765,0.273,1.12,0.109c0.19-0.109,0.409-0.273,0.574-0.465
			c0.189-0.191,0.326-0.438,0.438-0.711c0.219-0.572,0.219-1.229-0.219-1.693l-5.493-5.027L436.243,508.667L436.243,508.667z
			 M434.412,505.171c0.684,0,1.313,0.301,1.776,0.764c0.464,0.467,0.765,1.094,0.765,1.777c0,0.711-0.301,1.365-0.765,1.83l0,0
			c-0.465,0.438-1.094,0.738-1.776,0.738c-0.71,0-1.34-0.303-1.804-0.738h-0.028l0,0c-0.438-0.465-0.71-1.119-0.71-1.83
			c0-0.684,0.272-1.313,0.71-1.777l0,0C433.072,505.472,433.702,505.171,434.412,505.171z M435.395,506.728
			c-0.272-0.246-0.628-0.41-0.983-0.41c-0.409,0-0.766,0.164-1.012,0.41l0,0c-0.246,0.273-0.409,0.629-0.409,0.984
			c0,0.41,0.163,0.766,0.409,1.012l0,0c0.246,0.271,0.603,0.408,1.012,0.408c0.355,0,0.711-0.137,0.983-0.408l0,0
			c0.246-0.246,0.41-0.602,0.41-1.012C435.805,507.357,435.641,507.001,435.395,506.728z"/>
		<path fill="#FEFEFE" d="M427.088,512.66c0.602,0,1.12,0.49,1.12,1.094c0,0.602-0.52,1.119-1.12,1.119
			c-0.602,0-1.094-0.52-1.094-1.119C425.994,513.15,426.486,512.66,427.088,512.66z"/>
	</g>
	<g id="_794310688">
		<polygon fill="#C86254" points="347.885,315.39 306.672,315.335 312.384,319.845 342.063,319.927 		"/>
		<g>
			<path fill="#A62720" d="M318.915,314.297l4.154,0.137l0.438-3.99c1.12,1.449,2.268,2.269,3.498,2.433l1.093-1.339
				c-2.405-1.011-2.897-4.482-4.783-6.04C320.527,303.201,319.161,310.744,318.915,314.297L318.915,314.297z"/>
			<ellipse fill="#FFCC00" cx="324.025" cy="302.162" rx="2.27" ry="2.132"/>
			<path fill="#394380" d="M334.467,301.971c-1.941,2.022-2.897,3.99-2.814,5.876l-11.396,13.665
				c-2.104,0.137-3.662,1.749-5.11,3.744l2.979,2.788c1.94-2.022,2.897-3.99,2.843-5.849l11.37-13.665
				c2.104-0.164,3.661-1.749,5.109-3.744L334.467,301.971z"/>
			<ellipse fill="#FFCC00" cx="328.289" cy="312.739" rx="0.737" ry="0.656"/>
			<path fill="#A62720" d="M326.485,301.725l-4.127-1.312c1.831-1.066,3.854-1.202,4.099,0.875l1.587,0.464l-0.138,0.41
				L326.485,301.725L326.485,301.725z"/>
		</g>
	</g>
</g>
<g id="trail-path" display="none">
	<path id="Ocean" display="inline" fill="none" stroke="#000000" stroke-width="2" stroke-miterlimit="10" d="M355.349,270.687
		c2.344-1.274,19.719,1.304,25.167,8.456c1.318,1.73,2.474,4.095,3.619,6.075c2.075,3.581,3.832,11.652,8.426,13.263
		c2.98,1.046,7.832,0.301,11.004,0.301c4.322,0,7.052-0.434,11.253-1.25c3.236-0.629,8.799-1.965,12.13-2.769
		c3.079-0.743,6.699-0.837,9.12-3.231c4.943-4.896,2.299-8.978,0.75-14.75c-1.341-4.988-3.111-6.817-4.288-11.853
		c-0.563-2.401-3.718-7.155-3.712-9.647c0.007-3.97,2.721-6.01,6.449-7.258c3.969-1.327,7.771-2.297,11.854-3.256
		c4.646-1.092,3.241-29.202,3.206-32.474c-0.036-3.543-3.042-17,3.434-29.333c3.642-15.242-3.434-32.322,6.446-32.322
		c6.447,0,6.117,6.181,5.078,21.99c-0.772,11.77-3.741,20.725-5.078,32.333c-1.651,14.37-0.675,34.947,0,36.008
		c0.26,18.659,13.658,22.626,15.854,42.414"/>
</g>
<g id="camera-path" display="none">
	<path id="Avacha_1_" display="inline" fill="none" stroke="#3FFF00" stroke-miterlimit="10" d="M355.101,270.738
		c15.769,0.55,29.319,10.157,41.647,18.794c7.952,5.571,20.781,5.904,30.276,5.461c4.471-0.208,8.45-2.449,12.035-4.967
		c8.02-5.632,9.354-15.474,10.751-24.669c1.265-8.326,0.537-17.131,0.537-25.534c0-10.209-0.21-20.445,0.002-30.652
		c0.198-9.562,2.539-19.466,4.624-28.809c1.143-5.112-1.852-22.97,0.914-27.504c6.755-11.068,10.23-4.797,13.313,4.227
		c2.871,8.402-4.789,56.14-4.583,67.753c0.15,8.475,6.727,53.635,11.442,58.545"/>
</g>
<g id="points" display="none">
	<circle id="Pacific_Ocean" display="inline" fill="#405B54" cx="476.062" cy="283.383" r="6.447"/>
	<circle id="v.Kozelskiy" display="inline" fill="#405B54" cx="460.208" cy="150.638" r="6.447"/>
	<circle id="start" display="inline" fill="#405B54" cx="355.349" cy="270.687" r="4.001"/>
</g>
<text transform="matrix(1 0 0 1 375.2683 241.5142)" fill="#C6C6C6" font-family="'Arial'" font-size="8.7955">Petropavlovsk</text>
<text transform="matrix(1 0 0 1 375.2683 252.0679)" fill="#C6C6C6" font-family="'Arial'" font-size="8.7955">Kamchatsky</text>
</svg>
