<svg xmlns="http://www.w3.org/2000/svg" width="1000" height="900" viewBox="0 0 10441 9397" shape-rendering="geometricPrecision" image-rendering="optimizeQuality" fill-rule="evenodd" clip-rule="evenodd"><g stroke="#333"><g stroke-width="22.519"><path d="m2850 2676c323 150 712 290 885 464" fill="none" stroke-linecap="round"/><path d="m4671 2863l2766 2766c98 99 85 66 85 205 0 152 18 119-89 225l-1002 1002c-97 98-70 79-210 79-142 0-109 15-209-86l-2740-2739c-199-199-159-144-159-430 0-299-14-227 200-441l519-520c208-207 139-194 429-194 258 0 231-45 410 133zm-828 434c44 44 44 115 0 160-44 44-115 44-160 0-44-45-44-116 0-160 45-44 116-44 160 0z" fill="#fefefe"/></g><g fill="none"><path stroke-width="49.766" d="m4663.66 3242.91h-3111.66v721h-1552z"/><path stroke-width="53.37" d="m4663.66 3242.91h-3111.66v268h-1552z"/></g><path fill="#333" stroke-width="53.37" d="m6226.43 5704.41h-5874.43v352h-352z"/><g fill="none"><path stroke-width="52.1" d="m4214.3 3692.28h-3013.3v185h-1201z"/><path stroke-width="45.08" d="m4478.94 4546.08h-3277.94v185h-1201z"/><path stroke-width="37.416" d="m3919.72 3986.86h-2718.72v185h-1201z"/></g></g><g fill-rule="nonzero"><g fill="#333"><path d="m3843 4348l-28-28 105-105c-20-1-39-6-57-15l25-25c10 5 22 8 38 10 15 2 28 0 40-6l23 23-146 146"/><path d="m3919 4357l30 24c-5 6-7 12-7 17 0 6 2 11 7 15 6 6 13 8 22 7 10-2 23-10 41-26-15 1-28-3-38-14-12-11-17-25-17-43 1-17 8-32 22-46 15-15 31-23 49-23 18 0 34 6 47 20 15 15 21 33 19 53-2 21-16 45-42 71-27 27-51 41-72 43-22 2-41-5-56-21-12-11-18-23-19-36-1-13 4-27 14-41m124 2c9-9 14-18 15-27 0-9-2-17-7-22-5-5-12-8-19-7-8 1-16 6-25 15-10 9-15 18-15 26-1 8 1 15 7 21 5 5 12 7 20 7 8-1 16-5 24-13"/><path d="m4032 4470l30 24c-5 6-7 12-7 17 0 6 2 11 7 15 6 6 13 8 22 7 10-2 23-10 41-26-15 1-28-3-38-14-12-11-17-25-17-43 1-17 8-32 22-46 15-15 31-23 49-23 18 0 34 6 47 20 15 15 21 33 19 53-2 21-16 45-42 71-27 27-51 41-72 43-22 2-41-5-56-21-12-11-18-23-19-36-1-13 4-27 14-41m124 2c9-9 14-18 15-27 0-10-2-17-7-22-6-5-12-8-19-7-8 1-16 6-25 15-10 9-15 18-15 26-1 8 1 15 7 21 5 5 12 7 20 7 8-1 16-5 24-13"/><path d="m4182 4687l-28-28 105-105c-20-1-39-6-57-15l25-25c10 4 22 8 37 10 16 2 29 0 41-6l23 23-146 146"/></g><g fill="#d9534f"><path d="m4534 4694l52 53-63 63 7 6-29 30-13-13 16-17-47-47-17 16-12-12 29-30 6 7c10-4 20-9 29-17 10-7 21-17 34-31l8-8m2 28c-23 23-42 37-57 44l29 28 50-50-22-22"/><path d="m4562 4799c8-8 15-13 23-16 5-2 11-3 17-3 6-1 12 0 17 3 7 2 13 7 19 13 11 11 17 23 17 37-1 14-7 27-19 39-13 12-25 19-39 19-14 0-26-5-37-16-11-12-17-24-17-38 1-13 7-26 19-38m16 15c-9 9-13 17-14 26 0 8 3 15 9 21 6 7 13 9 22 9 8-1 17-5 25-14 9-9 14-17 14-25 1-8-2-15-9-22-6-6-13-9-22-9-8 1-16 5-25 14"/><path d="m4610 4922l75-76 23 23-38 65 65-38 23 23-75 76-14-14 59-60-74 45-15-15 45-75-60 60z"/><path d="m4766 5078l-16-16 11-24-31-30-23 11-17-17 106-46 16 16-46 106m2-58l18-38-38 17 20 21"/><path d="m4851 5011l15 15-63 63 22 22 63-63 15 15-63 63 23 23 63-63 15 15-76 76-90-90z"/><path d="m4881 5193l76-76 15 15-30 30 30 30 30-30 15 16-76 75-15-15 33-33-30-30-33 33z"/><path d="m5033 5194l15 14-51 51 81-20 16 15-76 76-15-14 50-50-80 19-15-15z"/><path d="m5033 5345l76-75 56 56-12 13-41-41-17 17 38 38-13 12-38-38-20 21 42 42-13 13z"/><path d="m5209 5370l61 60-76 76-15-15 63-63-30-30-63 63-15-15z"/><path d="m5210 5522l75-76 25 24c9 10 15 16 17 20 3 5 4 11 3 18 0 7-4 13-10 19-5 5-9 8-14 9-5 2-10 2-14 1-5 0-8-2-12-4-4-3-10-8-17-15l-10-10-28 29-15-15m78-48l-22 22 9 8c6 6 10 10 13 11 3 1 6 1 8 1 3-1 6-2 8-4 3-3 4-6 4-10 1-3 0-6-2-9-2-2-5-6-11-12l-7-7"/><path d="m5313 5550c8-8 15-13 23-16 6-2 11-3 17-3 7 0 12 1 17 3 7 3 13 7 19 13 12 11 17 24 17 37 0 14-7 27-19 39-12 13-25 19-39 19-13 0-26-5-37-16-11-11-17-24-16-37 0-14 6-27 18-39m16 15c-8 9-13 18-13 26-1 8 2 16 8 22 6 6 14 9 22 8 8 0 17-5 26-14 8-8 13-17 13-25 1-8-2-15-8-22-7-6-14-9-22-8-8 0-17 5-26 13"/><path d="m5442 5602l52 52-63 63 7 7-30 29-12-12 16-17-48-47-16 16-13-13 29-29 7 6c10-3 19-8 29-16 9-7 21-18 34-31l8-8m1 28c-22 22-41 37-56 43l29 29 50-50-23-22"/><path d="m5504 5665l18 17-22 57 54-24 16 16-83 32c-9 3-16 5-23 6-6 0-11-2-16-7-4-4-7-8-9-11l11-12c2 3 4 5 6 6 3 4 6 6 9 6 3 0 7-1 13-4l26-82"/><path d="m5578 5739l16 15-33 32c4 3 7 5 10 5 3-1 8-3 17-7 12-5 20-7 25-5 5 1 11 5 18 12 1 0 2 1 3 2l-12 11-2-2c-3-3-6-5-8-5-2-1-4-1-7 0-2 0-7 2-14 5-3 2-6 3-9 4-3 1-7 0-11-1 3 5 3 9 3 14-1 6-3 12-5 20l-11 31-18-18 11-28c0-1 0-2 0-3 0 0 1-2 2-5 2-6 3-10 2-12 0-2-2-5-4-7l-33 33-16-15 76-76"/><path d="m5587 5899l63-63-23-23 13-13 60 60-13 13-22-22-63 63z"/><path d="m5710 5871l16 15-31 30 21 21c5 5 9 11 12 16 2 5 3 11 1 18-1 6-4 12-9 16-5 6-11 9-17 10-6 1-12 0-16-2-5-2-10-6-17-13l-35-35 75-76m-47 78l15 15c4 5 8 8 10 9 3 2 5 2 9 2 3 0 5-1 8-4 3-3 4-7 4-11-1-4-5-9-11-15l-15-16-20 20m119-6l16 15-76 76-15-15 75-76"/><path d="m4401 4800l68 69-15 15-50-50-21 22 24 24c7 7 12 14 15 20 3 6 3 13 2 21-1 7-5 14-11 20-6 6-13 10-21 11-7 1-14 1-20-2-5-2-12-7-20-15l-43-43 92-92m-58 95l18 18c6 6 10 10 13 11 3 2 6 3 10 3 4-1 7-2 10-5 4-4 6-9 5-14-2-5-6-11-13-18l-19-19-24 24"/><path d="m4401 4984l91-92 68 68-15 15-50-49-20 20 46 46-16 16-45-46-25 25 51 51-16 15z"/><path d="m4566 5015l-14-22c19-11 37-7 55 11 11 10 17 21 18 31 0 10-2 19-9 25-4 4-9 7-15 8-6 1-13 1-21-2 4 8 6 16 5 23-1 7-4 13-10 18-8 9-17 12-28 11-11-1-22-7-34-19-10-9-16-19-18-27-2-9 0-19 6-31l22 12c-4 7-5 13-4 17 1 5 4 9 9 13 5 6 11 9 16 9 5 1 10-1 13-4 4-4 5-9 4-14 0-5-4-11-10-17l-4-4 14-14 2 2c6 6 11 9 17 9 5 1 10-1 14-5 4-4 5-8 5-12 0-5-2-10-7-14-8-8-16-9-26-4"/><path d="m4694 5093l72 73-91 92-19-19 76-76-35-36-76 76-19-18z"/><path d="m4735 5228c10-10 19-16 28-20 7-2 14-4 21-4 7 0 14 1 20 4 8 3 16 8 24 16 13 13 20 28 19 45 0 16-8 32-22 47-15 15-31 22-47 23-17 0-32-7-45-20-14-14-20-29-20-45 0-16 8-32 22-46m20 18c-11 10-16 21-17 31 0 10 3 19 11 26 7 8 16 11 26 10 10 0 20-6 31-16 10-11 16-21 17-31 0-10-3-18-11-26-8-8-17-11-26-11-10 1-21 6-31 17"/><path d="m4886 5401l12 23c-13 8-25 11-36 9-11-1-22-7-32-17-12-12-18-26-17-42 0-17 8-32 22-46 15-15 31-23 47-24 17-1 31 6 44 18 11 12 17 24 17 38 1 8-2 17-7 26l-23-14c4-6 5-12 5-18-1-6-4-12-9-17-6-6-14-10-24-9-9 1-19 7-30 17-11 12-17 22-18 31-1 10 2 17 9 24 5 5 11 8 17 8 7 0 14-2 23-7"/><path d="m4886 5469l91-92 30 30c11 11 18 19 21 23 3 7 5 14 4 22-1 8-5 16-13 23-5 6-11 10-17 11-6 2-11 3-17 2-5-1-10-3-14-6-5-3-12-9-20-17l-12-12-35 34-18-18m94-58l-26 26 10 10c8 7 13 12 16 13 4 2 7 2 11 2 3-1 6-3 9-6 3-3 5-7 5-11 0-4-1-8-3-11-2-3-6-7-13-14l-9-9"/><path d="m4971 5554l92-92 67 68-15 16-49-50-21 21 46 45-15 16-46-46-25 25 51 51-15 15z"/><path d="m5155 5555l64 63-77 76 9 8-36 36-15-16 20-20-58-57-20 20-15-16 35-35 8 8c12-4 23-11 35-20 11-9 25-21 41-37l9-10m3 33c-28 28-51 46-69 53l35 35 61-61-27-27"/><path d="m5148 5730l91-91 19 18-36 36 36 36 36-36 18 19-91 92-19-19 40-40-36-36-40 40z"/><path d="m5332 5731l17 18-61 61 98-24 19 18-92 92-17-17 60-60-97 22-19-18z"/><path d="m5424 5823l18 19-39 39c5 4 9 5 12 5 3 0 10-3 21-7 14-7 24-9 30-7 6 1 14 6 22 15 0 0 1 1 3 2l-14 14-2-3c-4-4-7-6-10-7-3-1-6-1-9 0-3 1-8 3-16 7-5 2-9 4-12 5-3 0-8 0-13-1 3 5 4 11 3 17-1 6-3 14-6 24l-13 37-21-21 12-35c0-1 1-2 1-3 0-1 1-3 2-7 2-7 3-11 3-14 0-3-2-5-5-9l-40 41-19-19 92-92"/><path d="m5451 5944c10-10 19-16 28-20 7-2 14-4 21-4 8 0 14 1 20 4 8 3 16 9 24 16 13 14 20 29 20 45-1 17-8 32-23 47-15 15-31 23-47 23-17 0-31-6-45-20-14-13-20-28-20-45 0-16 8-32 22-46m20 18c-10 11-16 21-16 31-1 10 3 19 10 26 7 8 16 11 26 11 10-1 20-7 31-17 11-11 16-21 17-31 0-10-3-18-11-26-8-8-16-11-26-10-10 0-20 6-31 16"/><path d="m5601 6001l37 36c7 8 12 13 15 17 3 5 5 9 6 14 1 5 1 9-1 15-1 5-4 9-8 13-4 4-9 7-15 8-6 2-12 1-17-1 4 7 5 14 4 21-1 7-4 13-9 18-4 5-9 8-15 10-6 2-12 2-18 1-5-1-11-3-16-8-4-3-11-10-23-21l-31-32 91-91m3 34l-21 21 12 12c8 7 12 11 14 13 4 3 7 4 11 4 4 0 7-1 10-4 3-3 4-6 4-10 0-3-1-6-3-10-2-2-7-7-16-16l-11-10m-36 36l-24 24 17 18c6 6 11 10 13 12 3 2 7 3 10 3 4 0 7-2 11-5 2-3 4-6 5-9 0-4 0-7-2-10-1-4-7-10-15-18l-15-15"/></g><g fill="#333"><path d="m4212 4029l18 35c-19 11-37 15-54 13-17-2-33-11-47-25-19-19-27-40-27-64 1-24 12-47 34-69 23-23 46-35 71-35 24-1 46 8 65 27 17 17 26 36 27 56 0 12-4 25-12 39l-34-20c6-9 8-18 7-27-1-10-5-18-13-25-10-11-22-15-35-14-14 1-29 9-45 26-18 17-27 33-28 46-1 14 3 26 13 36 8 7 16 11 26 12 10 0 21-3 34-11"/><path d="m4212 4130l137-137 102 102-23 23-74-74-31 30 69 69-23 23-69-68-37 37 76 76-23 24z"/><path d="m4339 4258l138-138 41 42-69 118 118-69 42 42-137 137-26-26 108-108-135 81-27-26 81-136-108 108z"/><path d="m4500 4418l137-137 102 101-24 23-73-73-31 30 69 69-23 23-69-69-37 38 76 76-23 23z"/><path d="m4765 4409l26 26-91 91 147-36 27 28-137 137-26-25 90-90-145 34-28-28 137-137m111 31l13 13c-9 8-19 11-29 11-10 0-19-5-28-13-8-8-12-17-13-27 0-10 4-20 11-29l13 12c-4 5-6 10-5 15 0 5 3 10 8 15 5 5 10 8 15 9 5 0 10-2 15-6"/><path d="m4765 4684l138-138 28 28-54 54 54 54 54-54 28 28-138 137-28-27 60-60-54-54-60 60z"/><path d="m5028 4946l-30-30 19-43-55-55-43 20-29-30 191-84 29 30-82 192m3-105l32-70-69 32 37 38"/><path d="m5125 5043l57-57-6-6c-8-9-16-14-22-15-6-1-20 1-42 5l-50 10-33-33 43-10c18-4 30-6 39-6 8-1 17 0 26 3-11-15-16-29-15-41 2-13 7-24 17-33 8-9 18-14 28-16 11-3 21-1 30 3 9 5 21 14 34 28l59 58-138 138-27-28m114-114l-22-22c-11-11-18-18-22-21-4-3-9-4-14-4-6 1-11 3-15 8-5 5-8 10-8 15-1 5 1 10 4 14 3 5 10 13 21 24l21 21 35-35"/><path d="m5331 5217l-16 17-27-28 16-16c-21-23-31-43-30-63 1-19 9-36 24-51 16-16 33-24 52-24 19 0 40 10 62 31l13-14 28 27-14 14c21 22 31 43 30 62-1 19-9 36-24 52-15 15-32 23-51 24-19 1-40-9-63-31m24-23c7 7 14 13 22 15 8 3 15 4 21 2 6-2 13-7 21-15 20-20 19-41-3-63l-61 61m-28-27l61-61c-11-12-22-18-33-18-10 0-21 5-31 16-20 20-19 41 3 63"/><path d="m5397 5316l138-138 101 102-23 23-74-74-30 31 69 69-24 23-68-69-38 37 77 77-23 23z"/><path d="m5525 5444l138-138 44 45c17 17 27 28 31 35 6 10 8 21 6 33-1 12-8 24-18 35-9 8-17 14-26 16-9 3-17 4-25 2-8-1-15-4-21-8-8-5-18-14-31-26l-18-18-52 51-28-27m142-87l-39 39 15 16c11 11 19 17 24 19 5 3 11 3 16 2 5-1 9-3 14-7 5-5 7-11 8-17 0-6-2-12-5-17-3-4-9-11-19-21l-14-14"/><path d="m5650 5569l138-138 41 42-69 118 118-69 42 42-137 137-26-26 108-108-135 81-27-27 81-135-108 108z"/><path d="m5934 5853l-30-30 20-43-55-56-43 20-29-29 190-84 30 29-83 193m4-106l32-70-70 33 38 37"/></g><g fill="#d9534f"><path d="m4740 3495l219 219-62 62-130-130-50 50 111 111-58 58-111-111-117 117-89-89z"/><path d="m4919 4154l-101-101-61 33-90-91 394-179 97 97-179 395-93-93 33-61m44-81l71-135-134 72 63 63"/><path d="m5022 4351l287-287 148 147c27 28 46 51 55 70 10 20 13 40 9 62-4 21-15 41-33 59-16 16-33 27-51 31-19 5-37 5-56 0-12-3-27-9-43-19 7 14 11 25 13 33 1 6 0 16-1 30-2 13-3 24-5 30l-41 126-100-100 40-135c6-18 8-30 6-39-2-10-7-20-15-28l-8-8-116 117-89-89m260-82l37 37c4 4 13 11 27 20 7 5 15 7 24 5 8-1 16-4 22-11 9-9 13-19 13-30-1-11-10-24-26-40l-39-39-58 58"/><path d="m5632 4387l116 116-129 220 219-130 117 116-287 287-73-72 219-219-275 163-65-66 162-275-218 219-73-72z"/><path d="m6028 4783l89 89-287 287-89-89z"/><path d="m6194 4949l89 89-217 216 139 138-71 71-227-227z"/><path d="m6415 5170l98 98-39 155 155-39 98 98-278 55-121 120-88-89 120-120z"/></g><g fill="#333"><path d="m6503 5832l28-28 28 27-28 28z"/><path d="m6585 5913l-27-27 105-105 25 25-15 15c12-2 20-3 26-2 6 1 11 4 15 9 7 6 11 14 13 23l-33 16c-1-8-4-14-8-18-4-3-8-6-13-6-5-1-11 1-18 5-7 4-19 15-37 33l-33 32"/><path d="m6705 6033l16-15c-9 2-19 1-28-2-10-3-18-7-25-14-7-7-11-15-14-24-2-8-2-17 1-25 3-8 10-17 20-27l67-67 27 28-48 48c-15 15-24 25-26 29-2 4-3 9-3 13 1 5 4 9 8 14 4 4 10 7 16 8 7 1 12 1 18-2 5-2 15-11 30-26l44-45 28 28-105 105-26-26"/></g></g><path fill="#333" d="m6791.65 5543.39h-6656.84v15.583h-134.81z" stroke-width="2.475"/><g stroke-width="22.519"><g fill="none"><g stroke="#333"><path d="m3061 2465c150 323 289 713 463 886" stroke-linecap="round"/><path d="m3524 3351c129 129 287 47 279-79"/></g><path d="m6348 6320l62-62c122-120-21-271-148-147l-62 61" stroke="#fefefe"/></g><g stroke="#fefefe"><g fill="#333"><path d="m6216 6156c9 9 9 24 0 33-8 8-23 8-32 0-9-9-9-24 0-33 9-9 24-9 32 0z"/><path d="m6364 6304c9 9 9 23 0 32-9 9-23 9-32 0-9-9-9-23 0-32 9-9 23-9 32 0z"/></g><g fill="none"><path d="m6208 6020c-78 59-208 161-286 220-75 56-44 106 11 160l91 92"/><path d="m6495 6307c-58 78-161 209-219 287-57 74-107 43-161-11l-91-91"/><path d="m6486 6320c-44-45-137-64-182-109-51-51-58-130-109-181"/></g></g></g></svg>