<svg xmlns="http://www.w3.org/2000/svg" width="1000" height="900" viewBox="0 0 118664 106797" shape-rendering="geometricPrecision" image-rendering="optimizeQuality" fill-rule="evenodd" clip-rule="evenodd"><g fill="#d6f0c8"><path d="m40358 59838h-23177c-3059 0-5562-2503-5562-5562v-618c0-3059 2503-5562 5562-5562h23177c3059 0 5562 2503 5562 5562v618c0 3059-2503 5562-5562 5562"/><path d="m99441 78158h-23177c-3059 0-5562-2503-5562-5562v-618c0-3060 2503-5563 5562-5563h23177c3059 0 5562 2503 5562 5563v618c0 3059-2503 5562-5562 5562"/><path d="m76311 36953h-6026c-3059 0-5562-2503-5562-5562v-618c0-3060 2503-5563 5562-5563h6026c3060 0 5563 2503 5563 5563v618c0 3059-2503 5562-5563 5562"/></g><g stroke="#333" stroke-width="131.39"><g fill="#fefefe"><path d="m69923 27706h-45526c-1856 0-3375 1519-3375 3376v31171c0 1857 1519 3375 3375 3375h45526c1857 0 3375-1518 3375-3375v-31171c0-1857-1518-3376-3375-3376zm-44356 12014h-128c-1165 0-2119 954-2119 2119v9434c0 1166 954 2119 2119 2119h128c1165 0 2119-953 2119-2119v-9434c0-1165-954-2119-2119-2119zm8087 22224c-64-676 78-1345-275-1967-792 480-959 1605-406 2369 363 500 451 243 1072 381 2227 410 736-19-241-306-87-25-81-19 5-29 1794-202 2272-240 34-240-115 0-120 10-13-43 1360-682 2008-943-131-121-52 20-39 17-45-44zm-3039-44c64-676-79-1345 275-1967 792 480 959 1605 406 2369-363 500-451 243-1073 381-2226 410-735-19 242-305 87-26 81-20-5-29-1794-203-2272-241-35-241 115 0 120 10 14-43-1361-682-2008-943 130-121 52 20 40 17 46-44zm2642 1159c-456-742-878-587-831-1838 41-1074 684-1086 788-1730 94-583 478-1067 584-1951 65-549 93-1702-161-2182-1468 834-916 2352-1174 3426-449 147-197 146-647-3-261-1047 296-2596-1172-3422-722 1364 347 3762 425 4205 98 550 787 536 789 1775 1 1089-334 1054-880 1683 187 381 540 890 989 862 119-784-295-488-358-1036 350 6 261 22 528 303 280-286 178-306 538-291-58 531-476 236-363 1026 418 20 813-444 945-827z" stroke-linejoin="round" stroke-linecap="round"/><path d="m59332 53399c-4777-7801-9142-16097-15567-21912 1533 6895 7140 15642 11996 24048 1190-712 2380-1424 3571-2136z"/></g><path d="m44716 32381c-312-304-629-602-951-894 1533 6895 7140 15642 11996 24048l2443-1462-1581 946c-4854-8405-9827-15433-11907-22638z" fill="none"/><g fill="#eee"><path d="m72475 41275c109 24 1333 200 1333 125 0-80 50-483-32-483-212 0-745-21-927-97-152-63 161 127 40 209-78 54-455 237-414 246z"/><path d="m48552 55517c-6 14 739 2062 1010 1729 80-98 440-42 401-221-24-114-42-546-92-961-54-445-301-1236-479-1233-13 1-752 578-744 678l-96 8z"/><path d="m46487 55238c-1 14 1380 1700 1526 1297 43-119 401-186 305-342-61-99-221-501-406-876-198-402-693-1067-860-1004-12 4-518 794-477 886l-88 39z"/></g><path d="m72573 41367c-53 5-106 9-159 13-5908 490-6243-505-7807-1363-5916 6407-11057 10560-14032 9334-625 981-2049 182-3077-125-329-99-783 74-1112-53 1387 2867 3608 2451 3285 5665-21 218 5 471-101 705-295 653-327 373-623 483-130 49-235-197-395-308-500 9-421 91-759-263-480-504-296-510-815-175-1531 986-1104-749-3888-522-1284-95-2311-1059-3481-1113-3421-155-6380-1931-8125-4838-561-1041-621-1829 710-2930 5368-3672 11317-5091 16176-6471 121-35 216-128 324-192 4150-2464 8173-5130 12068-7163 625-1076 1566-1950 4212-1740l2655 2106c839 993 1114 2074 1099 3983-534 2054 1256 3294 4217 4265 118 39 222 232 112 295-365 209-237 332-484 407z" fill="#f6c5c6"/><g fill="none"><path d="m32535 47384c2703 3435 6254 4637 10300 4532 2376 68 3690 1376 4600 3153"/><path d="m46386 49173c-1157-2895-3007-4778-5751-5353"/><path d="m64607 40017c719-2484 405-4289-830-5491"/></g><path d="m71956 36435c215 317 1453-358 889 530-115 182 196 295-469 265-99-4-188 117-256 125-282 36-104-35-89-397 8-180 1-411-75-523z" fill="#eee"/><path d="m68698 36400c-82 539-95 1052 252 1844 909-286 1931-652 2828-697 138-6 712-1107-39-1226-10-2-21 3-31 5-10 1-20 3-30 4-720 108-1568 209-2541 325-197 14-351-56-439-255z" fill="#f6c5c6"/><path d="m59258 53277c-1242 742-2486 1488-3649 2347-895 661-614 985 507 664 2501-716 6654 8456 7956 10628 1331 1158 2256 113 3204-802-2648-4239-5370-8598-8018-12837z" fill="#fefefe"/></g><g fill="#333" fill-rule="nonzero"><path d="m62444 76191h1212v1757h178v699h-233v-465h-1319v465h-233v-699h153c161-242 242-731 242-1466v-291m948 233h-695v102c0 170-16 402-46 697-30 294-91 536-180 725h921v-1524"/><path d="m64065 77213c0-330 89-589 267-776 178-186 407-280 687-280 184 0 350 44 498 132 147 88 260 210 337 367 78 157 117 335 117 534 0 201-41 382-123 541-81 160-197 280-346 362-150 82-311 122-484 122-188 0-355-45-503-135-147-91-260-214-335-371-77-156-115-321-115-496m273 4c0 240 64 429 193 566 129 138 291 207 486 207 198 0 361-69 489-208 128-139 192-337 192-593 0-162-27-303-82-423-55-121-135-215-240-281-106-66-224-100-355-100-187 0-347 64-481 192-135 128-202 342-202 640"/><path d="m66304 78182v-1991h395l471 1409c43 132 75 230 95 295 22-72 58-179 106-319l480-1385h352v1991h-253v-1666l-581 1666h-237l-575-1696v1696h-253"/><path d="m68408 78182l764-1991h289l811 1991h-300l-230-603h-839l-216 603h-279m573-818h678l-207-552c-63-167-110-306-143-415-27 129-64 257-110 383l-218 584"/><path d="m70487 76191h264v1757h659v-1757h264v1757h659v-1757h265v1991h-2111z"/><path d="m73041 78182v-1991h264v820h1030v-820h264v1991h-264v-937h-1030v937z"/><path d="m75044 78182v-1991h1438v233h-1174v612h1099v234h-1099v678h1221v234z"/><path d="m76899 78182v-1991h1438v233h-1174v612h1099v234h-1099v678h1221v234z"/><path d="m76889 66815h1563v1992h-264v-1758h-1035v1758h-264z"/><path d="m78667 68807l764-1992h289l811 1992h-300l-230-604h-839l-216 604h-279m573-818h678l-207-552c-63-168-110-306-143-416-27 130-64 257-110 383l-218 585"/><path d="m80740 68807v-1992h752c132 0 233 7 303 19 98 17 180 48 246 93 67 46 120 110 160 192 41 82 61 172 61 271 0 169-54 312-162 429-108 117-303 176-585 176h-511v812h-264m264-1046h515c171 0 291-32 363-95 71-64 107-153 107-268 0-83-21-154-63-214-42-59-98-98-166-117-45-12-127-18-246-18h-510v712"/><path d="m82606 68807v-1992h265v821h1029v-821h264v1992h-264v-938h-1029v938z"/><path d="m84523 67837c0-330 89-588 267-775 177-187 406-280 687-280 184 0 350 44 497 132 148 87 261 210 338 367 77 156 116 334 116 533 0 202-41 383-122 542-82 159-197 280-346 361-150 82-311 123-484 123-188 0-355-45-503-136-148-90-260-213-336-370-76-156-114-322-114-497m273 5c0 240 64 428 193 566 129 138 291 207 485 207 199 0 361-70 490-209 128-139 192-336 192-592 0-162-28-303-82-424-55-120-135-214-240-280-106-67-224-100-356-100-186 0-346 64-481 192-134 128-201 341-201 640"/><path d="m86773 68807v-1992h1438v234h-1174v612h1098v233h-1098v679h1221v234z"/><path d="m89378 68807v-1992h604l357 1358 353-1358h605v1992h-373l-1-1568-393 1568h-387l-391-1568-1 1568z"/><path d="m92891 68807v-832h-82c-127 0-217 19-269 57-52 38-141 151-268 340l-288 435h-481l243-389c95-154 172-262 228-324 57-62 129-118 214-166-185-29-318-94-400-194-82-100-124-220-124-359 0-122 31-229 92-323 61-93 142-156 242-188 100-32 250-49 449-49h847v1992h-403m0-1655h-314c-159 0-264 4-314 11-50 7-94 31-130 73-36 42-54 96-54 163 0 70 17 126 52 167 35 41 79 67 133 77 54 10 164 15 329 15h298v-506"/><path d="m94973 68072l390 120c-60 219-160 382-299 489-139 106-315 159-529 159-264 0-482-90-652-271-170-181-256-428-256-742 0-331 86-589 257-772 171-184 396-276 676-276 243 0 441 72 593 217 91 85 159 207 204 367l-397 95c-24-103-73-185-148-245-75-59-166-89-272-89-148 0-268 53-360 159-92 106-138 277-138 515 0 251 45 430 136 537 90 107 208 160 353 160 107 0 200-34 277-102 76-68 132-175 165-321"/><path d="m95556 67823c0-203 30-374 91-512 45-101 107-193 185-273 79-81 164-141 258-180 124-52 267-79 429-79 294 0 529 91 705 274 176 182 265 436 265 761 0 322-88 574-263 756-175 182-409 273-701 273-296 0-532-91-707-272-175-181-262-430-262-748m414-13c0 225 52 396 157 513 104 117 237 175 397 175 161 0 292-58 396-173 103-116 154-290 154-521 0-228-50-399-150-511-101-113-234-169-400-169-166 0-300 57-401 171-102 114-153 285-153 515"/><path d="m62046 69796h1096v2305c243-25 409-86 494-189 86-100 219-381 398-842 226-586 454-952 682-1094 227-142 591-214 1095-214 25 0 78-1 159-4v809l-155-4c-225 0-388 28-492 83-103 56-186 140-250 253-65 114-159 347-284 700-67 187-139 344-217 470-76 126-214 244-410 355 243 68 443 208 602 417 159 209 332 504 521 886l737 1481h-1285l-648-1393c-11-20-32-58-63-115-13-19-58-104-137-254-138-267-251-434-340-500-89-67-224-101-407-104v2366h-1096v-5412"/><path d="m66645 75208v-5412h1752c664 0 1097 26 1298 80 310 82 570 259 779 531 209 272 313 624 313 1054 0 333-60 611-180 838-121 227-273 405-458 534-186 129-375 215-566 256-261 52-638 78-1131 78h-711v2041h-1096m1096-4497v1542h596c430 0 716-29 860-86 145-57 259-145 341-267 82-121 123-261 123-422 0-198-58-361-173-489-115-129-260-209-438-242-130-24-391-36-784-36h-525"/><path d="m71361 72535c0-552 83-1016 248-1391 122-276 291-524 504-743 213-220 446-382 699-489 338-143 727-214 1168-214 799 0 1436 248 1916 743 479 496 719 1185 719 2069 0 875-239 1561-714 2055-475 495-1111 742-1906 742-805 0-1446-246-1921-739-475-491-713-1169-713-2033m1126-37c0 614 142 1079 426 1396 283 317 644 475 1080 475 437 0 795-157 1076-471 279-315 419-786 419-1415 0-621-136-1085-409-1389-272-307-634-459-1086-459-451 0-815 155-1091 464-276 310-415 776-415 1399"/><path d="m77669 69796h3791v5412h-1096v-4497h-1625v2310c0 662-23 1124-67 1385-44 262-151 467-323 613-171 147-438 220-802 220-129 0-360-13-698-37v-848l244 4c228 0 383-30 461-92 80-62 119-213 119-454l-4-929v-3087"/><path d="m82599 69796h1021v3603l2192-3603h1088v5412h-1020v-3545l-2192 3545h-1089z"/><path d="m88033 69796h1096v2305c243-25 408-86 494-189 86-100 219-381 398-842 226-586 454-952 682-1094 227-142 591-214 1095-214 25 0 78-1 158-4v809l-155-4c-224 0-388 28-491 83-103 56-186 140-251 253-64 114-158 347-283 700-67 187-139 344-217 470-77 126-214 244-411 355 244 68 444 208 603 417 158 209 332 504 521 886l737 1481h-1285l-649-1393c-10-20-31-58-63-115-12-19-58-104-136-254-138-267-252-434-340-500-89-67-224-101-407-104v2366h-1096v-5412"/><path d="m97508 75208h-1181l-467-1232h-2171l-450 1232h-1159l2101-5412h1158l2169 5412m-2004-2147l-752-2003-731 2003h1483"/></g></svg>