<?xml version="1.0" standalone="no"?>
<!DOCTYPE svg PUBLIC "-//W3C//DTD SVG 20010904//EN"
 "http://www.w3.org/TR/2001/REC-SVG-20010904/DTD/svg10.dtd">
<svg version="1.0" xmlns="http://www.w3.org/2000/svg"
 width="700.000000pt" height="700.000000pt" viewBox="0 0 700.000000 700.000000"
 preserveAspectRatio="xMidYMid meet">
<metadata>
Created by potrace 1.11, written by Peter Selinger 2001-2013
</metadata>
<g transform="translate(0.000000,700.000000) scale(0.100000,-0.100000)"
fill="#000000" stroke="none">
<path d="M1143 5653 c-3 -16 1 -62 10 -105 13 -67 14 -82 2 -106 -13 -24 -12
-37 4 -102 10 -41 26 -88 35 -105 9 -16 16 -50 16 -75 0 -25 7 -58 16 -75 8
-16 15 -48 14 -70 -3 -73 0 -83 44 -142 57 -76 94 -150 122 -243 12 -41 31
-101 43 -132 12 -32 21 -69 21 -83 0 -52 32 -165 57 -202 l26 -38 -17 -86
c-19 -100 -21 -171 -5 -202 6 -12 27 -38 46 -58 26 -27 38 -53 52 -112 10 -42
23 -83 30 -91 9 -11 9 -15 -1 -18 -10 -4 -11 -12 -1 -39 6 -19 15 -51 19 -71
3 -21 11 -38 16 -38 6 0 8 -25 3 -68 -6 -60 -4 -70 15 -95 12 -15 44 -39 70
-52 27 -14 51 -28 54 -33 3 -5 12 -42 20 -83 11 -52 27 -90 53 -127 39 -57
202 -213 280 -269 51 -36 106 -51 126 -35 8 7 18 7 27 2 32 -20 94 -11 151 24
90 54 430 214 484 227 69 17 194 70 274 117 42 25 96 45 148 57 l83 18 77 -38
c60 -30 98 -58 163 -124 47 -47 91 -99 96 -116 36 -105 64 -195 70 -230 8 -50
35 -104 66 -132 29 -27 369 -232 423 -255 22 -9 61 -26 86 -36 37 -16 56 -33
89 -82 51 -75 107 -112 203 -135 95 -23 145 -53 187 -112 49 -70 258 -291 282
-299 11 -3 55 -30 97 -58 42 -29 112 -65 156 -81 44 -15 127 -46 185 -68 117
-44 187 -63 196 -54 33 32 -108 132 -261 184 -83 28 -264 127 -355 194 -85 62
-214 195 -232 239 -25 60 -114 114 -265 164 -94 31 -126 53 -149 101 -18 40
-61 69 -128 89 -26 8 -109 55 -184 104 -75 49 -158 96 -184 106 -52 19 -108
70 -108 98 0 10 -20 59 -45 108 -25 50 -45 104 -45 121 0 48 -38 114 -107 189
-56 60 -73 71 -171 114 -61 26 -125 49 -144 53 -67 10 -196 -24 -353 -95 -55
-24 -156 -64 -225 -87 -121 -42 -474 -205 -530 -245 -26 -19 -28 -19 -32 -2
-4 12 -25 23 -65 35 -36 10 -78 31 -104 52 -56 45 -129 117 -129 127 0 4 -18
19 -41 33 -50 32 -66 68 -78 175 -5 45 -13 86 -18 90 -4 5 -35 24 -68 42 -65
37 -62 29 -81 173 -3 22 -11 54 -18 70 -8 17 -16 57 -20 89 -4 33 -11 65 -16
71 -6 7 -7 25 -4 41 7 37 -36 99 -97 140 -45 31 -61 54 -36 54 8 0 18 7 21 16
10 26 7 79 -5 91 -9 9 -7 10 9 6 29 -7 42 25 18 43 -14 10 -15 15 -5 32 10 16
9 33 -9 93 -12 41 -27 112 -34 159 -8 65 -28 125 -80 253 -81 200 -88 214
-145 293 -33 48 -39 61 -26 60 27 -2 29 57 3 117 -16 36 -21 62 -17 91 5 37 2
45 -28 76 -18 19 -40 54 -48 77 -13 39 -13 43 5 55 18 13 18 15 -6 109 -22 88
-49 159 -61 159 -3 0 -8 -12 -12 -27z m757 -2424 c0 -6 -4 -7 -10 -4 -5 3 -10
11 -10 16 0 6 5 7 10 4 6 -3 10 -11 10 -16z"/>
</g>
</svg>
