<?xml version="1.0" encoding="UTF-8"?>
<!DOCTYPE svg PUBLIC "-//W3C//DTD SVG 1.1//EN" "http://www.w3.org/Graphics/SVG/1.1/DTD/svg11.dtd">
<!-- Creator: CorelDRAW X7 -->
<svg xmlns="http://www.w3.org/2000/svg" xml:space="preserve" width="100%" height="100%" version="1.1" style="shape-rendering:geometricPrecision; text-rendering:geometricPrecision; image-rendering:optimizeQuality; fill-rule:evenodd; clip-rule:evenodd"
viewBox="0 0 17639 17639"
 xmlns:xlink="http://www.w3.org/1999/xlink">
 <defs>
  <style type="text/css">
   <![CDATA[
    .str0 {stroke:#ABD7EF;stroke-width:200;stroke-linecap:round}
    .fil0 {fill:none}
    .fil2 {fill:#5B5B5B}
    .fil4 {fill:#FEFEFE;fill-rule:nonzero}
    .fil1 {fill:#5B5B5B;fill-rule:nonzero}
    .fil3 {fill:#ABD7EF;fill-rule:nonzero}
   ]]>
  </style>
 </defs>
 <g id="Слой_x0020_1">
  <metadata id="CorelCorpID_0Corel-Layer"/>
  <g id="_724008256">
   <rect class="fil0" width="17639" height="17639"/>
   <path class="fil1" d="M10538 11814c-40,-20 -75,-46 -74,-133l0 -1 1 -30 -1 0 0 -8156c0,-449 -184,-858 -480,-1154 -296,-297 -705,-481 -1155,-481 -449,0 -858,184 -1154,481 -296,296 -480,705 -480,1154l0 8156 -1 0 0 34 1 0c0,85 -36,111 -75,131 -320,254 -583,579 -765,952 -176,363 -276,771 -276,1203 0,759 308,1447 806,1944 498,498 1185,806 1944,806 760,0 1447,-308 1945,-806 498,-497 805,-1185 805,-1944 0,-432 -99,-840 -276,-1203 -182,-373 -445,-699 -765,-953zm226 -201c338,277 616,626 809,1022 196,404 306,856 306,1335 0,842 -341,1604 -893,2156 -552,552 -1314,894 -2157,894 -842,0 -1604,-342 -2156,-894 -552,-552 -894,-1314 -894,-2156 0,-478 111,-931 307,-1334 193,-397 470,-745 809,-1023l0 -8119c0,-532 217,-1016 568,-1367 351,-350 834,-568 1366,-568 533,0 1016,218 1367,568 351,351 568,835 568,1367l0 8119z"/>
   <path class="fil2" d="M9939 11981c696,389 1167,1134 1167,1989 0,1257 -1019,2277 -2277,2277 -1257,0 -2276,-1020 -2276,-2277 0,-855 471,-1600 1167,-1989l0 -2771 2219 -2053 0 4824z"/>
   <path class="fil1" d="M3079 11391c614,0 1171,249 1573,652 403,402 652,959 652,1573 0,615 -249,1171 -652,1573 -402,403 -959,652 -1573,652 -614,0 -1171,-249 -1573,-652 -403,-402 -652,-958 -652,-1573 0,-614 249,-1171 652,-1573 402,-403 959,-652 1573,-652zm1467 758c-375,-376 -894,-608 -1467,-608 -573,0 -1092,232 -1467,608 -376,375 -608,894 -608,1467 0,573 232,1092 608,1467 375,376 894,608 1467,608 573,0 1092,-232 1467,-608 376,-375 608,-894 608,-1467 0,-573 -232,-1092 -608,-1467z"/>
   <path class="fil1" d="M14563 709c615,0 1171,250 1573,652 403,403 652,959 652,1573 0,615 -249,1171 -652,1574 -402,402 -958,652 -1573,652 -614,0 -1171,-250 -1573,-652 -403,-403 -652,-959 -652,-1574 0,-614 249,-1170 652,-1573 402,-402 959,-652 1573,-652zm1467 758c-375,-375 -894,-608 -1467,-608 -573,0 -1092,233 -1467,608 -376,376 -608,894 -608,1467 0,573 232,1092 608,1468 375,375 894,608 1467,608 573,0 1092,-233 1467,-608 376,-376 608,-895 608,-1468 0,-573 -232,-1091 -608,-1467z"/>
   <polygon class="fil1" points="13105,4524 4758,12264 4554,12045 12901,4304 "/>
   <g>
    <g>
     <g>
      <line class="fil0 str0" x1="3079" y1="12166" x2="3079" y2= "13616" />
      <line class="fil0 str0" x1="2673" y1="12247" x2="3079" y2= "12439" />
      <line class="fil0 str0" x1="3485" y1="12247" x2="3079" y2= "12439" />
     </g>
     <g>
      <line class="fil0 str0" x1="3079" y1="15066" x2="3079" y2= "13616" />
      <line class="fil0 str0" x1="2673" y1="14985" x2="3079" y2= "14794" />
      <line class="fil0 str0" x1="3485" y1="14985" x2="3079" y2= "14794" />
     </g>
    </g>
    <g>
     <g>
      <line class="fil0 str0" x1="2054" y1="12591" x2="3079" y2= "13616" />
      <line class="fil0 str0" x1="1824" y1="12935" x2="2246" y2= "12784" />
      <line class="fil0 str0" x1="2398" y1="12361" x2="2246" y2= "12784" />
     </g>
     <g>
      <line class="fil0 str0" x1="4104" y1="14641" x2="3079" y2= "13616" />
      <line class="fil0 str0" x1="3760" y1="14871" x2="3912" y2= "14449" />
      <line class="fil0 str0" x1="4334" y1="14297" x2="3912" y2= "14449" />
     </g>
    </g>
    <g>
     <g>
      <line class="fil0 str0" x1="4104" y1="12591" x2="3079" y2= "13616" />
      <line class="fil0 str0" x1="3760" y1="12361" x2="3912" y2= "12784" />
      <line class="fil0 str0" x1="4334" y1="12935" x2="3912" y2= "12784" />
     </g>
     <g>
      <line class="fil0 str0" x1="2054" y1="14641" x2="3079" y2= "13616" />
      <line class="fil0 str0" x1="1824" y1="14297" x2="2246" y2= "14449" />
      <line class="fil0 str0" x1="2398" y1="14871" x2="2246" y2= "14449" />
     </g>
    </g>
    <g>
     <g>
      <line class="fil0 str0" x1="1629" y1="13616" x2="3079" y2= "13616" />
      <line class="fil0 str0" x1="1710" y1="14022" x2="1902" y2= "13616" />
      <line class="fil0 str0" x1="1710" y1="13210" x2="1902" y2= "13616" />
     </g>
     <g>
      <line class="fil0 str0" x1="4529" y1="13616" x2="3079" y2= "13616" />
      <line class="fil0 str0" x1="4448" y1="14022" x2="4256" y2= "13616" />
      <line class="fil0 str0" x1="4448" y1="13210" x2="4256" y2= "13616" />
     </g>
    </g>
   </g>
   <polygon class="fil3" points="1623,10468 1623,10228 2095,10228 2095,10468 "/>
   <path id="1" class="fil3" d="M2995 9856l-233 26c-6,-48 -20,-84 -44,-106 -24,-23 -55,-34 -93,-34 -51,0 -94,22 -129,68 -35,45 -57,140 -66,284 60,-70 134,-106 223,-106 100,0 186,38 257,115 72,77 107,175 107,296 0,129 -37,232 -112,309 -76,78 -172,117 -290,117 -126,0 -230,-50 -312,-148 -81,-99 -122,-260 -122,-485 0,-230 43,-396 127,-497 85,-102 196,-153 331,-153 95,0 174,27 236,81 63,53 102,131 120,233zm-545 524c0,78 19,139 54,181 36,43 77,64 123,64 45,0 82,-17 112,-52 29,-35 44,-92 44,-171 0,-82 -16,-142 -48,-180 -32,-38 -72,-57 -119,-57 -47,0 -86,18 -118,55 -32,36 -48,89 -48,160z"/>
   <path id="2" class="fil3" d="M3103 9848c0,-102 27,-181 81,-237 54,-56 125,-85 215,-85 89,0 161,29 215,85 54,57 81,136 81,237 0,101 -27,179 -81,236 -53,56 -125,85 -215,85 -90,0 -161,-28 -215,-85 -54,-56 -81,-135 -81,-236zm181 1c0,63 10,108 31,134 21,27 49,40 82,40 33,0 61,-13 82,-40 21,-26 32,-71 32,-134 0,-63 -11,-107 -32,-134 -21,-27 -49,-40 -82,-40 -33,0 -61,13 -82,39 -21,27 -31,72 -31,135z"/>
   <path id="3" class="fil3" d="M4429 10470l150 21c-17,103 -59,184 -127,242 -68,59 -151,88 -250,88 -124,0 -224,-40 -299,-121 -76,-81 -113,-198 -113,-349 0,-98 16,-183 48,-257 33,-73 82,-128 149,-164 66,-37 138,-55 216,-55 98,0 179,24 242,74 62,50 103,121 120,213l-149 22c-14,-61 -39,-106 -76,-137 -36,-31 -79,-46 -131,-46 -77,0 -140,27 -189,83 -49,55 -73,143 -73,263 0,122 24,210 70,265 47,56 108,83 183,83 61,0 111,-18 152,-55 40,-37 66,-94 77,-170z"/>
   <polygon class="fil3" points="13085,6885 13085,6645 13557,6645 13557,6885 "/>
   <path id="1" class="fil3" d="M14114 7219l0 -252 -511 0 0 -209 542 -797 202 0 0 796 155 0 0 210 -155 0 0 252 -233 0zm0 -462l0 -428 -286 428 286 0z"/>
   <path id="2" class="fil3" d="M14566 6265c0,-102 27,-181 80,-237 54,-56 126,-85 216,-85 89,0 160,29 214,85 54,57 81,136 81,237 0,101 -27,179 -80,236 -54,56 -126,84 -215,84 -90,0 -162,-28 -216,-84 -53,-56 -80,-135 -80,-236zm180 1c0,63 11,108 32,134 21,27 48,40 81,40 34,0 61,-13 82,-40 22,-26 33,-71 33,-134 0,-63 -11,-108 -33,-134 -21,-27 -48,-40 -82,-40 -33,0 -60,13 -81,39 -21,27 -32,72 -32,135z"/>
   <path id="3" class="fil3" d="M15891 6886l150 21c-16,104 -58,185 -126,243 -68,59 -152,88 -251,88 -124,0 -224,-40 -299,-121 -75,-81 -113,-198 -113,-349 0,-98 16,-183 49,-257 32,-73 81,-128 148,-164 66,-37 138,-56 216,-56 99,0 179,25 242,75 63,50 103,121 120,212l-148 23c-15,-61 -40,-107 -76,-137 -36,-31 -80,-47 -132,-47 -77,0 -140,28 -189,84 -48,55 -72,143 -72,263 0,122 23,210 70,265 47,55 107,83 182,83 61,0 112,-18 152,-55 40,-37 66,-94 77,-171z"/>
   <g>
    <g>
     <g>
      <line class="fil0 str0" x1="14563" y1="1484" x2="14563" y2= "2934" />
      <line class="fil0 str0" x1="14157" y1="1566" x2="14563" y2= "1757" />
      <line class="fil0 str0" x1="14969" y1="1566" x2="14563" y2= "1757" />
     </g>
     <g>
      <line class="fil0 str0" x1="14563" y1="4384" x2="14563" y2= "2934" />
      <line class="fil0 str0" x1="14157" y1="4303" x2="14563" y2= "4112" />
      <line class="fil0 str0" x1="14969" y1="4303" x2="14563" y2= "4112" />
     </g>
    </g>
    <g>
     <g>
      <line class="fil0 str0" x1="13538" y1="1909" x2="14563" y2= "2934" />
      <line class="fil0 str0" x1="13308" y1="2254" x2="13731" y2= "2102" />
      <line class="fil0 str0" x1="13882" y1="1679" x2="13731" y2= "2102" />
     </g>
     <g>
      <line class="fil0 str0" x1="15588" y1="3960" x2="14563" y2= "2934" />
      <line class="fil0 str0" x1="15244" y1="4190" x2="15396" y2= "3767" />
      <line class="fil0 str0" x1="15818" y1="3615" x2="15396" y2= "3767" />
     </g>
    </g>
    <g>
     <g>
      <line class="fil0 str0" x1="15588" y1="1909" x2="14563" y2= "2934" />
      <line class="fil0 str0" x1="15244" y1="1679" x2="15396" y2= "2102" />
      <line class="fil0 str0" x1="15818" y1="2254" x2="15396" y2= "2102" />
     </g>
     <g>
      <line class="fil0 str0" x1="13538" y1="3960" x2="14563" y2= "2934" />
      <line class="fil0 str0" x1="13308" y1="3615" x2="13731" y2= "3767" />
      <line class="fil0 str0" x1="13882" y1="4190" x2="13731" y2= "3767" />
     </g>
    </g>
    <g>
     <g>
      <line class="fil0 str0" x1="13113" y1="2934" x2="14563" y2= "2934" />
      <line class="fil0 str0" x1="13194" y1="3341" x2="13386" y2= "2934" />
      <line class="fil0 str0" x1="13194" y1="2528" x2="13386" y2= "2934" />
     </g>
     <g>
      <line class="fil0 str0" x1="16013" y1="2934" x2="14563" y2= "2934" />
      <line class="fil0 str0" x1="15932" y1="3341" x2="15741" y2= "2934" />
      <line class="fil0 str0" x1="15932" y1="2528" x2="15741" y2= "2934" />
     </g>
    </g>
   </g>
   <polygon class="fil4" points="9062,12956 8508,12716 8508,12582 9062,12343 9062,12499 8675,12647 9062,12800 "/>
   <path id="1" class="fil4" d="M8601 14309l-154 0 0 -585c-57,53 -123,92 -200,118l0 -141c40,-13 84,-38 131,-75 48,-37 80,-80 98,-129l125 0 0 812z"/>
   <path id="2" class="fil4" d="M9356 14166l0 143 -542 0c5,-55 23,-106 52,-155 30,-49 88,-113 174,-194 70,-65 113,-109 128,-132 22,-32 32,-64 32,-95 0,-35 -9,-61 -27,-80 -19,-19 -44,-28 -77,-28 -32,0 -58,10 -77,30 -19,19 -30,51 -33,97l-154 -16c9,-85 38,-146 86,-184 49,-37 109,-55 182,-55 80,0 142,21 188,64 45,43 68,97 68,161 0,37 -6,71 -19,104 -13,33 -34,68 -62,104 -19,24 -53,58 -102,103 -49,45 -80,75 -93,90 -13,14 -24,29 -32,43l308 0z"/>
   <polygon id="3" class="fil4" points="7834,14984 8027,14984 8171,15392 8317,14984 8508,14984 8508,15569 8376,15569 8376,15184 8235,15569 8102,15569 7966,15184 7966,15569 7834,15569 "/>
   <path id="4" class="fil4" d="M9002 15384l155 26c-20,57 -51,100 -94,129 -43,30 -97,45 -161,45 -101,0 -177,-34 -225,-100 -39,-53 -58,-121 -58,-202 0,-97 25,-173 76,-228 50,-55 114,-83 192,-83 87,0 155,29 206,87 50,57 74,145 72,264l-387 0c1,46 13,82 37,107 24,26 54,39 89,39 24,0 44,-7 61,-20 16,-13 29,-35 37,-64zm9 -157c-1,-45 -12,-79 -34,-102 -22,-24 -49,-35 -81,-35 -33,0 -61,12 -83,37 -22,24 -33,58 -32,100l230 0z"/>
   <path id="5" class="fil4" d="M9786 15157l-152 27c-5,-30 -17,-53 -35,-68 -18,-15 -42,-23 -71,-23 -38,0 -69,13 -92,40 -23,27 -34,71 -34,134 0,70 11,119 34,147 24,29 55,43 94,43 29,0 54,-8 72,-25 19,-16 32,-45 40,-86l152 26c-16,70 -46,122 -91,158 -44,36 -104,54 -180,54 -85,0 -153,-27 -204,-81 -51,-54 -77,-129 -77,-225 0,-97 26,-172 77,-226 51,-54 120,-81 207,-81 71,0 128,16 170,46 42,31 72,78 90,140z"/>
  </g>
 </g>
</svg>
