<?xml version="1.0" encoding="UTF-8"?>
<!DOCTYPE svg PUBLIC "-//W3C//DTD SVG 1.1//EN" "http://www.w3.org/Graphics/SVG/1.1/DTD/svg11.dtd">
<!-- Creator: CorelDRAW X7 -->
<svg xmlns="http://www.w3.org/2000/svg" xml:space="preserve" width="100%" height="100%" version="1.1" style="shape-rendering:geometricPrecision; text-rendering:geometricPrecision; image-rendering:optimizeQuality; fill-rule:evenodd; clip-rule:evenodd"
viewBox="0 0 16873 16873"
 xmlns:xlink="http://www.w3.org/1999/xlink">
 <defs>
  <style type="text/css">
   <![CDATA[
    .fil0 {fill:none}
    .fil2 {fill:#FEFEFE}
    .fil3 {fill:#EBECEC}
    .fil1 {fill:#EB7D6C}
    .fil4 {fill:#FFFBE6;fill-rule:nonzero}
   ]]>
  </style>
 </defs>
 <g id="Слой_x0020_1">
  <metadata id="CorelCorpID_0Corel-Layer"/>
  <g id="_179027768">
   <rect class="fil0" width="16873" height="16873"/>
   <circle class="fil1" cx="4848" cy="8436" r="3229"/>
   <circle class="fil1" cx="12024" cy="8436" r="3229"/>
   <path class="fil2" d="M12314 5457c-1149,-49 -1868,656 -2189,2054 435,-875 1180,-1548 2189,-2054z"/>
   <circle class="fil1" cx="8436" cy="8436" r="3588"/>
   <path class="fil2" d="M8258 5414c-1457,-63 -2368,831 -2775,2603 551,-1108 1496,-1962 2775,-2603z"/>
   <path class="fil2" d="M4584 5720c-1149,-50 -1867,655 -2188,2053 434,-874 1180,-1548 2188,-2053z"/>
   <path class="fil3" d="M6301 5552c-1952,1278 -2136,4251 0,5769 -1824,-1530 -2087,-4081 0,-5769z"/>
   <path class="fil3" d="M10571 5552c1952,1278 2136,4251 0,5769 1824,-1530 2087,-4081 0,-5769z"/>
   <polygon class="fil4" points="6649,9072 5499,8573 5499,8296 6649,7798 6649,8124 5847,8430 6649,8749 "/>
   <path id="1" class="fil4" d="M7135 8357c-83,-35 -143,-83 -181,-144 -38,-62 -56,-129 -56,-202 0,-125 43,-229 130,-310 87,-82 212,-123 372,-123 159,0 283,41 371,123 87,81 131,185 131,310 0,78 -20,147 -60,208 -41,60 -98,106 -171,138 93,38 164,93 213,164 48,73 72,155 72,249 0,156 -49,282 -148,379 -98,97 -229,146 -393,146 -152,0 -279,-40 -380,-121 -120,-94 -179,-225 -179,-390 0,-91 22,-174 67,-250 45,-77 116,-135 212,-177zm67 -323c0,64 18,115 54,151 36,35 84,53 144,53 61,0 109,-18 146,-54 36,-37 54,-87 54,-151 0,-60 -18,-109 -54,-145 -36,-36 -83,-55 -142,-55 -62,0 -111,19 -147,55 -37,37 -55,86 -55,146zm-30 719c0,90 22,159 68,209 45,50 101,75 169,75 66,0 121,-24 164,-72 43,-48 65,-118 65,-208 0,-79 -22,-143 -66,-191 -44,-48 -100,-72 -168,-72 -78,0 -136,27 -175,82 -38,54 -57,113 -57,177z"/>
   <polygon id="2" class="fil4" points="8240,8049 8641,8049 8939,8896 9243,8049 9641,8049 9641,9264 9367,9264 9367,8464 9072,9264 8796,9264 8514,8464 8514,9264 8240,9264 "/>
   <polygon id="3" class="fil4" points="9973,8049 10373,8049 10672,8896 10975,8049 11373,8049 11373,9264 11099,9264 11099,8464 10805,9264 10529,9264 10247,8464 10247,9264 9973,9264 "/>
  </g>
 </g>
</svg>
