<?xml version="1.0" encoding="UTF-8"?>
<!DOCTYPE svg PUBLIC "-//W3C//DTD SVG 1.1//EN" "http://www.w3.org/Graphics/SVG/1.1/DTD/svg11.dtd">
<!-- Creator: CorelDRAW X7 -->
<svg xmlns="http://www.w3.org/2000/svg" xml:space="preserve" width="100%" height="100%" version="1.1" style="shape-rendering:geometricPrecision; text-rendering:geometricPrecision; image-rendering:optimizeQuality; fill-rule:evenodd; clip-rule:evenodd"
viewBox="0 0 8853 5578"
 xmlns:xlink="http://www.w3.org/1999/xlink">
 <defs>
  <style type="text/css">
   <![CDATA[
    .fil0 {fill:#FEFEFE}
   ]]>
  </style>
 </defs>
 <g id="Слой_x0020_1">
  <metadata id="CorelCorpID_0Corel-Layer"/>
  <path class="fil0" d="M7091 1279c-192,408 -381,810 -331,1364 59,653 426,976 508,1201 -675,445 -1744,411 -2573,208 -587,-144 -1863,-709 -2334,-694 -203,-530 -219,-712 -124,-1352 624,-41 1532,-614 2241,-813 771,-216 1910,-273 2613,86z"/>
  <path class="fil0" d="M2289 3400c-841,78 -1184,946 -2067,919 -478,-15 -48,-367 42,-461 274,-290 538,-926 466,-1496 -70,-564 -581,-1202 -569,-1403 431,-70 1105,512 1512,776 120,78 417,202 483,254 -134,586 -95,906 133,1411z"/>
  <path class="fil0" d="M7213 1334c349,88 1434,841 1640,1295 -369,122 -522,193 -901,26 142,268 502,211 808,151l-1347 911c-237,-147 -565,-655 -579,-1099 -12,-346 216,-1060 379,-1284z"/>
  <path class="fil0" d="M2662 1830c-245,-200 -197,-295 55,-428 416,-220 986,-730 1329,-1039 597,-539 872,-480 1433,192 143,171 290,244 404,379 -660,-15 -1220,104 -1798,296 -240,79 -1402,599 -1423,600z"/>
  <path class="fil0" d="M6172 4285c-129,296 -1105,1386 -1457,1286 -118,-277 -49,-1117 90,-1370 82,-12 477,84 640,96 259,18 483,-18 727,-12z"/>
  <path class="fil0" d="M2844 4671c-116,-241 -260,-1181 222,-1081 47,10 378,203 523,254 223,78 527,110 613,178 -310,98 -886,706 -1358,649z"/>
 </g>
</svg>
