<?xml version="1.0" encoding="UTF-8"?>
<!DOCTYPE svg PUBLIC "-//W3C//DTD SVG 1.1//EN" "http://www.w3.org/Graphics/SVG/1.1/DTD/svg11.dtd">
<!-- Creator: CorelDRAW X7 -->
<svg xmlns="http://www.w3.org/2000/svg" xml:space="preserve" width="100%" height="100%" version="1.1" style="shape-rendering:geometricPrecision; text-rendering:geometricPrecision; image-rendering:optimizeQuality; fill-rule:evenodd; clip-rule:evenodd"
viewBox="0 0 17639 17639"
 xmlns:xlink="http://www.w3.org/1999/xlink">
 <defs>
  <style type="text/css">
   <![CDATA[
    .fil1 {fill:none}
    .fil0 {fill:#4e4e4f;fill-rule:nonzero}
   ]]>
  </style>
 </defs>
 <g id="Слой_x0020_1">
  <metadata id="CorelCorpID_0Corel-Layer"/>
  <polygon class="fil0" points="3250,5260 3914,4257 3312,3336 3765,3336 4144,3909 4523,3336 4978,3336 4374,4258 5037,5260 4570,5260 4144,4609 3717,5260 "/>
  <path id="1" class="fil0" d="M5224 3866l344 0 0 204c45,-70 105,-126 181,-169 76,-43 161,-65 253,-65 162,0 299,64 412,191 113,127 170,304 170,531 0,233 -57,414 -171,543 -114,130 -252,194 -414,194 -77,0 -147,-15 -210,-46 -62,-30 -128,-83 -197,-157l0 698 -368 0 0 -1924zm363 676c0,157 30,273 93,348 62,75 137,112 226,112 85,0 157,-34 214,-103 56,-69 85,-182 85,-339 0,-147 -29,-256 -88,-327 -58,-71 -131,-107 -217,-107 -90,0 -165,35 -224,105 -60,70 -89,173 -89,311z"/>
  <path id="2" class="fil0" d="M7150 4296l-333 -60c38,-136 103,-236 194,-302 92,-65 229,-98 410,-98 164,0 287,19 368,58 80,39 137,89 169,149 33,60 50,169 50,330l-6 430c0,122 6,212 18,271 11,58 33,120 66,186l-366 0c-9,-24 -21,-60 -35,-107 -6,-22 -11,-36 -13,-43 -63,62 -130,108 -202,139 -72,31 -148,46 -229,46 -143,0 -256,-39 -338,-117 -82,-77 -124,-176 -124,-295 0,-78 19,-148 57,-210 37,-62 90,-109 158,-142 68,-32 165,-61 293,-86 172,-32 291,-62 358,-90l0 -37c0,-72 -18,-123 -53,-154 -35,-31 -101,-46 -199,-46 -65,0 -116,13 -153,40 -37,26 -67,72 -90,138zm495 298c-47,16 -122,34 -225,56 -102,22 -169,44 -200,64 -48,35 -72,78 -72,130 0,52 19,97 57,134 39,38 88,57 147,57 67,0 130,-22 191,-66 44,-33 74,-74 87,-122 10,-31 15,-91 15,-180l0 -73z"/>
  <polygon id="3" class="fil0" points="8355,3866 8723,3866 8723,4376 9255,4376 9255,3866 9623,3866 9623,5260 9255,5260 9255,4675 8723,4675 8723,5260 8355,5260 "/>
  <polygon id="4" class="fil0" points="9983,3866 10338,3866 10338,4742 10905,3866 11268,3866 11268,5260 10913,5260 10913,4371 10338,5260 9983,5260 "/>
  <polygon id="5" class="fil0" points="11479,3866 12740,3866 12740,4164 12294,4164 12294,5260 11926,5260 11926,4164 11479,4164 "/>
  <path id="6" class="fil0" d="M12970 3866l368 0 0 580 370 0c145,0 257,10 335,31 77,22 142,67 193,136 52,70 78,150 78,242 0,135 -46,236 -138,304 -93,67 -231,101 -415,101l-791 0 0 -1394zm368 1158l345 0c107,0 176,-18 207,-52 30,-35 45,-76 45,-124 0,-67 -26,-113 -78,-138 -52,-26 -145,-38 -278,-38l-241 0 0 352z"/>
  <polygon id="7" class="fil0" points="4530,7750 4530,7381 5256,7381 5256,7750 "/>
  <path id="8" class="fil0" d="M6111 8263l0 -387 -785 0 0 -321 832 -1224 310 0 0 1222 239 0 0 323 -239 0 0 387 -357 0zm0 -710l0 -657 -440 657 440 0z"/>
  <polygon id="9" class="fil0" points="11476,7750 11476,7381 12202,7381 12202,7750 "/>
  <path id="10" class="fil0" d="M13583 6810l-357 39c-9,-73 -31,-127 -68,-162 -37,-35 -84,-53 -143,-53 -78,0 -144,35 -198,105 -53,70 -87,216 -101,437 92,-109 206,-163 342,-163 154,0 286,59 396,176 110,118 164,269 164,455 0,197 -57,356 -173,475 -116,119 -264,179 -445,179 -194,0 -354,-76 -479,-227 -125,-152 -187,-399 -187,-744 0,-354 65,-609 195,-765 131,-156 300,-234 508,-234 146,0 267,41 363,123 96,82 157,202 183,359zm-835 805c0,120 27,213 82,278 55,66 118,98 189,98 69,0 125,-26 171,-80 45,-53 68,-141 68,-263 0,-126 -24,-217 -73,-276 -50,-58 -110,-87 -184,-87 -71,0 -131,27 -180,83 -49,56 -73,138 -73,247z"/>
  <path id="11" class="fil0" d="M1055 7565c0,-257 72,-448 216,-572 119,-103 266,-155 438,-155 192,0 348,63 470,189 122,125 182,298 182,519 0,179 -26,320 -80,422 -54,103 -132,182 -235,239 -103,57 -215,85 -337,85 -195,0 -353,-62 -473,-187 -121,-125 -181,-305 -181,-540zm242 1c0,178 39,312 117,400 79,89 177,133 295,133 118,0 215,-44 294,-134 78,-89 117,-224 117,-407 0,-172 -40,-302 -118,-390 -79,-89 -176,-133 -293,-133 -118,0 -216,44 -295,132 -78,88 -117,221 -117,399z"/>
  <polygon id="12" class="fil0" points="2456,6868 3585,6868 3585,7064 3139,7064 3139,8263 2902,8263 2902,7064 2456,7064 "/>
  <path id="13" class="fil0" d="M7879 6868l973 0 0 1201 150 0 0 589 -193 0 0 -395 -1099 0 0 395 -194 0 0 -589 124 0c166,-226 246,-626 239,-1201zm196 196c-17,453 -87,788 -209,1005l749 0 0 -1005 -540 0z"/>
  <path id="14" class="fil0" d="M9173 7565c0,-257 72,-448 216,-572 119,-103 266,-155 438,-155 191,0 348,63 470,189 121,125 182,298 182,519 0,179 -27,320 -80,422 -54,103 -133,182 -236,239 -102,57 -215,85 -336,85 -195,0 -353,-62 -473,-187 -121,-125 -181,-305 -181,-540zm242 1c0,178 39,312 117,400 78,89 176,133 295,133 117,0 215,-44 293,-134 78,-89 117,-224 117,-407 0,-172 -39,-302 -117,-390 -79,-89 -176,-133 -293,-133 -119,0 -217,44 -295,132 -78,88 -117,221 -117,399z"/>
  <path id="15" class="fil0" d="M13799 6691l60 -186c139,49 239,91 302,127 -16,-158 -25,-267 -26,-326l191 0c-3,87 -13,195 -31,325 90,-46 193,-88 309,-126l60 186c-110,36 -219,61 -325,73 53,46 128,129 224,248l-156 111c-51,-69 -111,-163 -180,-281 -65,123 -122,217 -171,281l-154 -111c101,-125 174,-208 217,-248 -112,-22 -219,-46 -320,-73z"/>
  <path id="16" class="fil0" d="M16339 7588l255 64c-53,210 -149,369 -287,478 -139,110 -308,165 -508,165 -207,0 -376,-42 -505,-127 -130,-84 -229,-206 -297,-366 -67,-160 -101,-332 -101,-516 0,-200 38,-374 114,-524 77,-149 186,-262 327,-340 141,-77 297,-116 466,-116 192,0 354,49 485,147 131,98 223,236 274,413l-250 59c-44,-139 -109,-241 -194,-305 -84,-64 -191,-96 -320,-96 -147,0 -271,35 -370,106 -99,71 -168,166 -208,286 -41,119 -61,242 -61,369 0,164 24,306 71,428 48,123 122,214 222,274 100,60 209,90 326,90 142,0 262,-41 361,-123 98,-82 165,-204 200,-366z"/>
  <polygon id="17" class="fil0" points="3383,9871 3619,9871 3619,10451 4275,10451 4275,9871 4512,9871 4512,11265 4275,11265 4275,10647 3619,10647 3619,11265 3383,11265 "/>
  <path id="18" class="fil0" d="M5818 10814l245 32c-38,142 -110,253 -214,331 -103,79 -236,118 -398,118 -203,0 -364,-63 -483,-188 -120,-125 -179,-301 -179,-527 0,-234 60,-416 180,-545 121,-130 277,-194 469,-194 186,0 338,63 456,190 118,127 177,305 177,535 0,14 -1,35 -2,62l-1038 0c9,153 52,271 130,352 77,81 174,121 290,121 87,0 161,-22 222,-68 61,-46 109,-119 145,-219zm-774 -379l777 0c-10,-117 -40,-205 -89,-264 -75,-91 -173,-137 -292,-137 -109,0 -200,37 -274,109 -73,73 -114,170 -122,292z"/>
  <path id="19" class="fil0" d="M8124 9295l210 3c-10,94 -31,159 -63,196 -31,37 -72,60 -122,71 -50,10 -149,15 -295,15 -195,0 -327,19 -398,57 -71,37 -122,97 -153,180 -30,83 -47,189 -51,319 60,-89 129,-155 209,-199 79,-45 169,-66 268,-66 183,0 335,62 455,188 119,125 179,295 179,509 0,163 -30,296 -90,400 -61,104 -132,185 -215,242 -83,57 -196,85 -338,85 -166,0 -294,-38 -386,-113 -92,-76 -162,-173 -212,-291 -48,-117 -73,-323 -73,-616 0,-367 62,-615 186,-743 124,-127 316,-191 574,-191 161,0 251,-3 273,-8 22,-5 36,-18 42,-38zm-8 1267c0,-145 -35,-264 -103,-356 -69,-93 -165,-139 -290,-139 -131,0 -231,49 -302,147 -71,97 -106,228 -106,391 0,161 39,285 117,371 78,85 175,128 289,128 118,0 213,-50 286,-149 73,-99 109,-230 109,-393z"/>
  <path id="20" class="fil0" d="M8559 10568c0,-258 72,-448 215,-573 120,-103 267,-154 439,-154 191,0 348,63 470,188 121,125 182,298 182,519 0,179 -27,320 -80,423 -54,102 -133,182 -236,239 -102,57 -215,85 -336,85 -195,0 -353,-62 -474,-187 -120,-125 -180,-305 -180,-540zm242 0c0,179 39,312 117,400 78,89 176,133 295,133 117,0 215,-44 293,-133 78,-89 117,-225 117,-407 0,-172 -39,-303 -118,-391 -78,-89 -176,-133 -292,-133 -119,0 -217,44 -295,132 -78,89 -117,222 -117,399z"/>
  <path id="21" class="fil0" d="M10199 9871l1099 0 0 1393 -236 0 0 -1197 -627 0 0 694c0,161 -5,268 -15,320 -11,51 -40,96 -87,135 -47,38 -115,57 -204,57 -56,0 -119,-3 -191,-10l0 -197 104 0c48,0 83,-4 104,-15 21,-10 35,-26 43,-48 6,-22 10,-93 10,-213l0 -919z"/>
  <path id="22" class="fil0" d="M12603 10814l244 32c-38,142 -109,253 -213,331 -104,79 -236,118 -398,118 -203,0 -365,-63 -484,-188 -119,-125 -178,-301 -178,-527 0,-234 60,-416 180,-545 121,-130 277,-194 469,-194 186,0 338,63 456,190 117,127 176,305 176,535 0,14 0,35 -1,62l-1039 0c9,153 52,271 130,352 78,81 175,121 291,121 86,0 160,-22 221,-68 62,-46 110,-119 146,-219zm-774 -379l777 0c-11,-117 -41,-205 -90,-264 -74,-91 -172,-137 -292,-137 -108,0 -199,37 -273,109 -73,73 -114,170 -122,292z"/>
  <path id="23" class="fil0" d="M14098 10814l244 32c-38,142 -109,253 -213,331 -104,79 -237,118 -398,118 -204,0 -365,-63 -484,-188 -119,-125 -179,-301 -179,-527 0,-234 60,-416 181,-545 120,-130 277,-194 469,-194 186,0 337,63 455,190 118,127 177,305 177,535 0,14 0,35 -1,62l-1039 0c9,153 52,271 130,352 78,81 175,121 291,121 86,0 160,-22 221,-68 61,-46 110,-119 146,-219zm-774 -379l776 0c-10,-117 -40,-205 -89,-264 -75,-91 -172,-137 -292,-137 -108,0 -199,37 -273,109 -74,73 -114,170 -122,292z"/>
  <path id="24" class="fil0" d="M5552 14268l-369 0 0 -1393c-134,126 -293,220 -475,280l0 -336c96,-31 200,-91 313,-179 113,-88 190,-190 232,-307l299 0 0 1935z"/>
  <path id="25" class="fil0" d="M7350 13926l0 342 -1293 0c14,-130 56,-253 126,-369 70,-116 208,-270 415,-462 166,-155 267,-260 305,-315 51,-77 76,-152 76,-227 0,-82 -22,-145 -66,-190 -44,-44 -105,-66 -182,-66 -77,0 -138,23 -184,70 -45,46 -71,123 -78,231l-369 -37c22,-203 91,-349 206,-438 116,-88 260,-132 434,-132 189,0 339,51 447,154 109,102 163,230 163,383 0,87 -16,169 -47,248 -30,78 -80,160 -147,246 -45,58 -126,140 -242,247 -117,107 -191,178 -222,213 -31,35 -56,69 -76,102l734 0z"/>
  <polygon id="26" class="fil0" points="7689,12873 8149,12873 8491,13845 8840,12873 9296,12873 9296,14268 8982,14268 8982,13350 8644,14268 8327,14268 8004,13350 8004,14268 7689,14268 "/>
  <path id="27" class="fil0" d="M10473 13827l368 62c-47,135 -122,237 -224,308 -102,70 -230,106 -382,106 -243,0 -422,-80 -538,-238 -92,-127 -138,-288 -138,-482 0,-231 60,-412 181,-543 120,-131 273,-197 458,-197 206,0 370,69 490,206 120,137 177,347 172,630l-922 0c2,110 32,195 89,256 56,60 127,91 211,91 58,0 106,-16 145,-47 40,-31 69,-82 90,-152zm21 -374c-3,-107 -30,-188 -82,-244 -53,-56 -116,-83 -192,-83 -80,0 -146,29 -199,88 -52,59 -77,139 -77,239l550 0z"/>
  <path id="28" class="fil0" d="M12340 13287l-362 64c-13,-72 -40,-126 -84,-163 -43,-36 -99,-54 -168,-54 -92,0 -165,31 -220,95 -55,64 -82,170 -82,319 0,166 28,283 83,351 56,69 130,103 223,103 70,0 128,-20 172,-60 45,-40 76,-109 94,-206l363 61c-37,167 -110,293 -216,378 -107,85 -250,128 -429,128 -204,0 -366,-65 -487,-193 -122,-129 -182,-308 -182,-536 0,-230 61,-409 182,-538 122,-129 286,-193 493,-193 170,0 305,37 405,110 100,73 171,184 215,334z"/>
  <polygon id="29" class="fil0" points="12618,14268 12618,13900 12986,13900 12986,14268 "/>
  <rect class="fil1" width="17639" height="17639"/>
 </g>
</svg>
