<?xml version="1.0" encoding="UTF-8"?>
<!DOCTYPE svg PUBLIC "-//W3C//DTD SVG 1.1//EN" "http://www.w3.org/Graphics/SVG/1.1/DTD/svg11.dtd">
<!-- Creator: CorelDRAW X7 -->
<svg xmlns="http://www.w3.org/2000/svg" xml:space="preserve" width="100%" height="100%" version="1.1" style="shape-rendering:geometricPrecision; text-rendering:geometricPrecision; image-rendering:optimizeQuality; fill-rule:evenodd; clip-rule:evenodd"
viewBox="0 0 16873 16873"
 xmlns:xlink="http://www.w3.org/1999/xlink">
 <defs>
  <style type="text/css">
   <![CDATA[
    .fil0 {fill:none}
    .fil2 {fill:#FEFEFE}
    .fil3 {fill:#EBECEC}
    .fil1 {fill:#EB7D6C}
    .fil4 {fill:#FEFEFE;fill-rule:nonzero}
   ]]>
  </style>
 </defs>
 <g id="Слой_x0020_1">
  <metadata id="CorelCorpID_0Corel-Layer"/>
  <g id="_716363328">
   <rect class="fil0" width="16873" height="16873"/>
   <circle class="fil1" cx="4848" cy="8436" r="3229"/>
   <circle class="fil1" cx="12024" cy="8436" r="3229"/>
   <path class="fil2" d="M12314 5457c-1149,-49 -1868,656 -2189,2054 435,-875 1180,-1548 2189,-2054z"/>
   <circle class="fil1" cx="8436" cy="8436" r="3588"/>
   <path class="fil2" d="M8258 5414c-1457,-63 -2368,831 -2775,2603 551,-1108 1496,-1962 2775,-2603z"/>
   <path class="fil2" d="M4584 5720c-1149,-50 -1867,655 -2188,2053 434,-874 1180,-1548 2188,-2053z"/>
   <path class="fil3" d="M6301 5552c-1952,1278 -2136,4251 0,5769 -1824,-1530 -2087,-4081 0,-5769z"/>
   <path class="fil3" d="M10571 5552c1952,1278 2136,4251 0,5769 1824,-1530 2087,-4081 0,-5769z"/>
   <path class="fil4" d="M6838 7999l320 -34c10,73 37,131 82,173 45,43 97,64 156,64 67,0 124,-27 170,-82 47,-56 70,-138 70,-249 0,-104 -23,-181 -69,-233 -46,-52 -106,-78 -181,-78 -92,0 -175,41 -249,122l-260 -38 164 -871 851 0 0 300 -607 0 -50 285c71,-35 144,-53 219,-53 143,0 264,52 363,156 100,104 149,239 149,405 0,139 -40,262 -120,371 -109,148 -261,223 -454,223 -155,0 -282,-42 -379,-125 -98,-84 -156,-196 -175,-336z"/>
   <polygon id="1" class="fil4" points="8168,7982 8168,7661 8801,7661 8801,7982 "/>
   <path id="2" class="fil4" d="M9193 7522c-83,-35 -144,-83 -181,-145 -38,-61 -57,-128 -57,-201 0,-126 44,-229 131,-311 87,-81 211,-122 372,-122 159,0 282,41 370,122 88,82 132,185 132,311 0,77 -20,146 -61,207 -40,61 -97,107 -170,139 93,38 164,92 212,164 49,72 73,155 73,249 0,156 -49,282 -148,379 -98,97 -230,146 -394,146 -152,0 -278,-41 -380,-121 -119,-95 -179,-225 -179,-390 0,-91 23,-175 68,-251 45,-76 115,-134 212,-176zm67 -323c0,64 18,114 54,150 36,36 84,54 144,54 61,0 109,-18 145,-54 37,-37 55,-87 55,-151 0,-61 -18,-109 -54,-145 -36,-37 -84,-55 -143,-55 -61,0 -110,18 -147,55 -36,37 -54,86 -54,146zm-31 719c0,89 23,159 68,209 46,50 102,75 169,75 67,0 121,-24 165,-72 43,-48 64,-118 64,-208 0,-80 -21,-143 -66,-191 -44,-48 -100,-72 -167,-72 -79,0 -137,27 -175,81 -39,55 -58,114 -58,178z"/>
   <polygon id="3" class="fil4" points="6913,8914 7313,8914 7612,9761 7915,8914 8313,8914 8313,10130 8039,10130 8039,9330 7745,10130 7469,10130 7187,9330 7187,10130 6913,10130 "/>
   <polygon id="4" class="fil4" points="8645,8914 9045,8914 9344,9761 9648,8914 10046,8914 10046,10130 9772,10130 9772,9330 9477,10130 9201,10130 8919,9330 8919,10130 8645,10130 "/>
  </g>
 </g>
</svg>
