<?xml version="1.0" encoding="UTF-8"?>
<!DOCTYPE svg PUBLIC "-//W3C//DTD SVG 1.1//EN" "http://www.w3.org/Graphics/SVG/1.1/DTD/svg11.dtd">
<!-- Creator: CorelDRAW X7 -->
<svg xmlns="http://www.w3.org/2000/svg" xml:space="preserve" width="100%" height="100%" version="1.1" style="shape-rendering:geometricPrecision; text-rendering:geometricPrecision; image-rendering:optimizeQuality; fill-rule:evenodd; clip-rule:evenodd"
viewBox="0 0 16873 16873"
 xmlns:xlink="http://www.w3.org/1999/xlink">
 <defs>
  <style type="text/css">
   <![CDATA[
    .fil0 {fill:none}
    .fil2 {fill:#FEFEFE}
    .fil3 {fill:#EBECEC}
    .fil1 {fill:#EB7D6C}
    .fil4 {fill:#FEFEFE;fill-rule:nonzero}
   ]]>
  </style>
 </defs>
 <g id="Слой_x0020_1">
  <metadata id="CorelCorpID_0Corel-Layer"/>
  <g id="_716417464">
   <rect class="fil0" width="16873" height="16873"/>
   <circle class="fil1" cx="4848" cy="8436" r="3229"/>
   <circle class="fil1" cx="12024" cy="8436" r="3229"/>
   <path class="fil2" d="M12314 5457c-1149,-49 -1868,656 -2189,2054 435,-875 1180,-1548 2189,-2054z"/>
   <circle class="fil1" cx="8436" cy="8436" r="3588"/>
   <path class="fil2" d="M8258 5414c-1457,-63 -2368,831 -2775,2603 551,-1108 1496,-1962 2775,-2603z"/>
   <path class="fil2" d="M4584 5720c-1149,-50 -1867,655 -2188,2053 434,-874 1180,-1548 2188,-2053z"/>
   <path class="fil3" d="M6301 5552c-1952,1278 -2136,4251 0,5769 -1824,-1530 -2087,-4081 0,-5769z"/>
   <path class="fil3" d="M10571 5552c1952,1278 2136,4251 0,5769 1824,-1530 2087,-4081 0,-5769z"/>
   <path class="fil4" d="M6824 7984l311 -37c10,79 36,140 80,182 43,42 95,64 157,64 66,0 121,-26 166,-76 45,-51 68,-118 68,-204 0,-81 -22,-146 -65,-193 -43,-47 -96,-71 -158,-71 -41,0 -90,8 -147,24l35 -260c87,2 153,-17 199,-57 45,-40 68,-94 68,-160 0,-57 -17,-102 -50,-136 -34,-33 -79,-50 -134,-50 -55,0 -102,19 -141,57 -39,38 -62,94 -71,168l-295 -51c21,-102 51,-184 93,-245 42,-61 100,-109 174,-144 74,-35 158,-52 250,-52 157,0 284,50 379,151 79,83 118,177 118,281 0,147 -80,266 -242,354 96,20 173,66 231,138 57,72 86,159 86,260 0,147 -54,273 -161,377 -108,104 -241,156 -401,156 -152,0 -277,-44 -377,-132 -100,-87 -157,-202 -173,-344z"/>
   <polygon id="1" class="fil4" points="8168,7982 8168,7661 8801,7661 8801,7982 "/>
   <path id="2" class="fil4" d="M10005 7163l-312 34c-7,-64 -27,-111 -59,-142 -32,-30 -74,-45 -125,-45 -68,0 -125,30 -172,91 -47,61 -76,188 -88,381 80,-95 179,-142 298,-142 134,0 249,51 345,153 95,103 143,235 143,397 0,172 -50,310 -151,414 -101,104 -230,156 -388,156 -169,0 -308,-66 -417,-198 -109,-132 -164,-348 -164,-649 0,-308 57,-530 171,-666 114,-136 261,-204 443,-204 127,0 232,36 316,107 83,72 137,176 160,313zm-729 702c0,104 24,185 72,242 48,57 103,86 165,86 59,0 109,-24 149,-70 39,-47 59,-124 59,-230 0,-109 -21,-189 -64,-240 -43,-51 -96,-76 -160,-76 -62,0 -114,24 -157,73 -42,48 -64,120 -64,215z"/>
   <polygon id="3" class="fil4" points="6913,8914 7313,8914 7612,9761 7915,8914 8313,8914 8313,10130 8039,10130 8039,9330 7745,10130 7469,10130 7187,9330 7187,10130 6913,10130 "/>
   <polygon id="4" class="fil4" points="8645,8914 9045,8914 9344,9761 9648,8914 10046,8914 10046,10130 9772,10130 9772,9330 9477,10130 9201,10130 8919,9330 8919,10130 8645,10130 "/>
  </g>
 </g>
</svg>
