<?xml version="1.0" encoding="UTF-8"?>
<!DOCTYPE svg PUBLIC "-//W3C//DTD SVG 1.1//EN" "http://www.w3.org/Graphics/SVG/1.1/DTD/svg11.dtd">
<!-- Creator: CorelDRAW X7 -->
<svg xmlns="http://www.w3.org/2000/svg" xml:space="preserve" width="100%" height="100%" version="1.1" style="shape-rendering:geometricPrecision; text-rendering:geometricPrecision; image-rendering:optimizeQuality; fill-rule:evenodd; clip-rule:evenodd"
viewBox="0 0 17639 17639"
 xmlns:xlink="http://www.w3.org/1999/xlink">
 <defs>
  <style type="text/css">
   <![CDATA[
    .fil0 {fill:none}
    .fil3 {fill:#F5B2B6}
    .fil2 {fill:#4E4E4F}
    .fil1 {fill:#E1DFD3}
    .fil4 {fill:#4E4E4F;fill-rule:nonzero}
   ]]>
  </style>
 </defs>
 <g id="Слой_x0020_1">
  <metadata id="CorelCorpID_0Corel-Layer"/>
  <g id="_520384696">
   <rect class="fil0" width="17639" height="17639"/>
   <path class="fil1" d="M8062 8745l-20 -413 38 2 -18 411zm7551 -5187l62 0 36 20 17 265c111,30 283,47 362,128l-408 321 -47 -45 -14 206 -216 60c87,121 245,-12 310,201 79,259 -107,194 -151,305l680 -179c47,160 -13,508 -28,689l-156 32 -86 376 -296 105 -92 -167 -31 -31 -539 469 3 56 671 440 47 421c-175,66 -234,-321 -381,67 -29,74 89,591 128,672l169 -14 -180 412c-41,15 -283,-227 -327,215 -10,110 -342,368 -434,463 -151,156 -78,524 -89,773 -4,89 -57,809 -52,799l479 47 28 -266c288,-233 596,248 675,451 216,548 288,102 388,930 49,408 164,817 79,1253 -151,776 -541,583 -778,-64 104,-81 184,-38 271,-98l-245 -827c-95,62 -335,422 -419,536 -110,-58 -77,-44 -185,-231 -392,-91 -409,215 -666,-46 -120,-123 -313,-340 -452,-423 -158,-95 -539,1 -674,132 -156,153 -28,302 9,490 190,967 -463,500 -760,736 -182,145 -200,337 -470,422 -339,106 -414,-104 -663,-118 -238,-12 -379,213 -600,37 -176,-141 -376,-347 -625,-193 -191,118 88,394 -143,509 -275,136 -464,-87 -672,-150 -401,-121 -613,522 -1131,294 -135,-59 -261,-288 -423,-379 -159,-90 -417,-7 -519,-140 -299,-388 -28,-904 -622,-809 -431,69 -393,-541 -711,-564 -279,-20 -428,76 -749,5 -163,-36 -399,-140 -397,81 2,167 -292,41 -268,276 17,166 48,419 -249,232 -300,-189 -110,-169 -523,-312 -269,-92 -219,-278 -386,-458 -215,-231 -358,-91 -591,-40 -196,43 -266,-119 -455,34 -223,181 -60,372 -24,572 59,327 -228,258 -425,310 -384,102 -179,1054 -573,921l-97 -565c-84,-205 -160,-8 -279,-291 -90,-214 -157,-199 -251,-358 -174,-299 -96,-52 -186,-424 -38,-160 -94,-287 -100,-469l399 -48 -14 -83 216 49 -54 -145c292,-167 17,282 490,-111 152,-127 -34,-389 -125,-530 -123,-191 -182,-252 -113,-529 25,-101 148,-118 78,-230 -61,-100 -176,-82 -230,-173l112 -192c82,-11 178,85 205,-1 32,-103 -31,-171 50,-308 63,-105 179,-132 151,-245 -28,-108 -103,-125 -93,-262 13,-174 213,-416 351,-512 326,-227 288,-160 499,-1l-36 -284 662 -55 -57 -68 978 -1189 418 128 -51 138c231,42 396,849 182,980 -456,279 -542,-559 -626,-671 -12,131 36,314 -54,417 -106,123 -141,69 -172,277 -8,50 -6,401 124,259 80,-86 -148,-210 78,-266l177 341 109 -231 426 16 43 170c58,-95 288,-519 362,-549l151 302c-93,90 -195,-2 -273,53l75 178 874 -71 -140 146 668 151 40 -184c341,-73 429,631 655,545l-113 -321 124 -334c57,-99 338,-351 338,-439l250 152c12,69 -124,310 -159,386l40 21 293 -406 -57 398 235 153 -193 -249 251 -89 281 169 -150 -481 550 -46c29,-129 -173,-201 170,-440 71,-49 360,-228 437,-234l164 -18 114 -114 -43 -22 173 -351 68 14 204 289 102 -93c156,-30 326,97 368,248 62,224 -86,312 -132,476l121 20 269 654 -140 407 -174 167 190 1261 298 42 424 705 17 491 385 -168 21 47c209,-302 95,-699 469,-322l167 -15 389 491c24,-19 396,-144 666,-73 155,40 463,-123 593,-215 524,-366 -161,-523 -8,-1081 99,-143 445,-334 372,-542 -46,-134 -194,-85 -165,-291 32,-220 -43,-306 -24,-387l447 -199c-8,-141 -138,-248 -212,-342 -173,-221 29,-249 34,-375 17,-380 430,-38 144,-623 -221,-452 359,-396 86,-647 -109,-100 -283,2 -328,-198 -26,-120 158,-231 104,-411l-244 -106 238 -487 287 -73 -12 -85 -268 -66c-39,-131 377,-667 498,-759 132,-100 250,-152 378,-271 250,-234 400,105 449,-133 -177,-36 -164,-14 -232,-87l335 -312zm-5595 4003c8,82 129,240 -179,301l179 -301zm21 -20l-21 20 21 -20zm-854 -447l0 0zm6543 -3251l0 0z"/>
   <path class="fil1" d="M12538 6545l0 0zm20 -20l-20 20 20 -20zm0 0l-358 131 -23 193 178 145 -140 61 21 79 -402 167 62 264c-324,76 -336,-403 -503,-425l-407 90c25,70 90,176 64,247l-890 84 269 654 -140 407 -174 167 190 1261 298 42 424 705 17 491 385 -168 21 47c209,-302 95,-699 469,-322l167 -15 389 491c24,-19 396,-144 666,-73 155,40 463,-123 593,-215 524,-366 -161,-523 -8,-1081 99,-143 445,-334 372,-542 -46,-134 -194,-85 -165,-291 32,-220 -43,-306 -24,-387l447 -199c-8,-141 -138,-248 -212,-342 -173,-221 29,-249 34,-375 17,-380 430,-38 144,-623 -221,-452 359,-396 86,-647 -109,-100 -283,2 -328,-198 -26,-120 158,-231 104,-411l-244 -106 134 201c-77,-9 -454,-165 -537,-158 -282,24 -210,351 -334,461l-550 12c-30,63 -1,219 4,295l-99 -117z"/>
   <path class="fil2" d="M17456 8943l0 71 -21 10c-48,2 -664,-298 -752,-345 -412,-220 -329,-322 -518,-601 -58,-85 -158,-606 -226,-808 -52,-152 -27,-379 -103,-466 -101,-32 -114,-20 -146,5l-671 -440 -3 -56 539 -469 31 31 92 167 296 -105 86 -376 156 -32 235 686c-104,73 -191,-15 -242,165 -53,188 64,159 70,303l-119 -59 -28 305 303 490 64 -165 421 245c-56,42 -97,64 -125,111l327 243c-9,134 -133,76 -61,261 60,155 142,104 210,183l-101 182 72 -9 214 473z"/>
   <path class="fil1" d="M16770 11712l-39 -229 184 4c-24,-92 -715,-191 -518,-580l222 27c-8,-68 -566,-323 -703,-472 -236,-255 -586,-450 -292,7 187,290 371,231 582,617 34,61 519,626 564,626z"/>
   <polygon class="fil3" points="2487,8777 2630,9220 3096,9220 2718,9493 2863,9935 2487,9661 2110,9935 2255,9493 1878,9220 2344,9220 "/>
   <g>
    <path class="fil4" d="M3366 7343l-1 63 312 19 -39 116 -311 105 -109 388 -5 13 -4 13 -3 12 -3 10 -2 10 -2 10 -1 8 -1 8 0 7 0 6 0 5 1 6 1 4 2 4 2 4 2 3 3 2 3 3 3 2 4 2 4 1 3 2 5 1 4 1 5 1 4 1 5 1 5 1 5 1 6 2 5 1 5 2 0 0 6 2 5 1 5 2 6 1 5 2 6 1 6 1 5 1 6 1 6 1 6 1 5 1 6 1 6 0 7 1 6 0 6 1 6 1 7 0 6 1 7 0 6 1 7 0 7 1 7 0 7 0 7 1 8 0 7 1 8 1 7 0 8 1 0 0 588 -57 -45 134 -2 5 -4 5 -5 6 -6 5 -7 4 -8 5 -8 5 -10 5 -10 4 -10 4 -11 5 -11 4 -12 3 -12 4 -12 4 -12 3 -12 4 -12 3 -11 3 -11 2 -11 3 -11 2 -9 2 -10 2 -8 2 -7 1 -7 2 -6 1 -4 1 -4 0 -2 1 0 0 0 0 -39 115 -3 8 -4 8 -4 7 -4 6 -4 6 -5 5 -4 5 -5 3 -5 4 -5 2 -5 2 -5 1 -5 1 -5 0 -5 0 -5 -1 -4 -1 -5 -2 -4 -2 -3 -3 -4 -3 -3 -4 -3 -4 -2 -4 -2 -5 -2 -5 -1 -5 0 -6 0 -6 1 -7 1 -6 2 -7 0 0 20 -59 -191 64 -26 77 -2 13 -3 11 -4 10 -4 9 -4 8 -4 7 -5 6 -5 6 -5 4 -5 4 -5 2 -6 2 -5 1 -5 1 -5 -1 -6 -1 -5 -1 -4 -2 -5 -3 -4 -3 -4 -4 -4 -4 -3 -5 -3 -5 -2 -5 -2 -6 -1 -6 -1 -6 0 -7 0 -7 2 -7 2 -7 0 0 12 -36 -285 94 -135 335 -13 22 -13 19 -13 17 -12 14 -11 12 -11 10 -10 8 -10 6 -10 5 -8 2 -8 1 -8 -1 -7 -2 -7 -3 -6 -5 -5 -6 -5 -6 -5 -8 -4 -8 -3 -9 -3 -10 -3 -10 -1 -11 -2 -11 0 -11 -1 -11 0 -11 1 -11 1 -10 2 -10 2 -10 3 -10 0 0 97 -348 -172 -248 -19 55 -4 4 -3 5 -4 3 -5 3 -4 3 -4 3 -5 1 -4 2 -5 1 -4 1 -4 0 -5 -1 -4 0 -4 -1 -4 -2 -4 -2 -3 -2 -3 -3 -3 -3 -3 -4 -3 -4 -2 -5 -2 -4 -1 -6 -1 -6 0 -6 0 -6 0 -7 1 -7 1 -8 3 -8 2 -9 0 0 32 -95 -114 -168 -14 39 -2 7 -3 7 -4 6 -4 5 -4 6 -4 4 -5 5 -5 3 -5 4 -5 3 -5 2 -5 2 -5 1 -5 1 -5 0 -5 0 -4 -1 -4 -1 -5 -2 -3 -3 -4 -3 -3 -4 -2 -4 -2 -5 -2 -6 -1 -6 0 -7 0 -8 1 -8 2 -9 2 -10 3 -11 0 0 33 -96 -71 -106 -3 -7 -4 -7 -4 -7 -3 -6 -4 -7 -4 -6 -3 -6 -4 -6 -4 -6 -3 -6 -3 -6 -4 -6 -3 -5 -3 -6 -3 -6 -2 -6 -3 -6 -2 -6 -2 -6 -2 -6 -1 -6 -1 -7 -1 -7 -1 -6 0 -7 0 -8 1 -7 1 -8 1 -8 2 -8 3 -8 2 -9 0 0 26 -75 418 397 138 89 14 10 13 9 12 7 11 7 10 5 9 4 9 3 8 2 7 2 6 0 6 0 5 -1 5 -1 4 -2 3 -3 4 -3 3 -4 2 -4 3 -4 2 -5 2 -4 2 -5 2 -5 1 -5 2 -5 2 -5 2 -5 1 -4 3 -5 2 -4 2 -3 3 -4 0 0 180 -406 -184 -272 39 -116 258 174 39 -51 19 7zm-287 628l143 48 -112 279 -142 -48 111 -279zm495 -942l128 78 -121 176 -37 69 -136 -63 45 -84 121 -176zm684 -814l108 104 -143 133 -63 73 -119 -91 74 -86 143 -133zm839 -652l84 124 -171 105 -73 55 -96 -115 84 -64 172 -105zm945 -484l61 137 -186 75 -84 41 -72 -131 94 -47 187 -75zm1007 -330l40 145 -173 41 -111 35 -51 -141 122 -38 173 -42zm1040 -197l22 149 -129 15 -164 28 -30 -147 172 -30 129 -15zm1055 -83l5 150 -63 0 -233 14 -13 -149 241 -15 63 0zm1053 16l-2 150 -300 -11 2 -150 300 11zm1051 108l-16 149 -298 -38 16 -149 298 38zm1038 194l-28 147 -294 -63 29 -147 293 63zm1018 281l-41 144 -287 -89 41 -144 287 89zm990 380l-62 137 -23 -11 -250 -104 55 -140 257 107 23 11zm927 510l-78 129 -183 -121 -66 -37 69 -133 75 42 183 120zm795 710l-111 101 -123 -153 -68 -66 99 -113 80 78 123 153z"/>
   </g>
  </g>
 </g>
</svg>
