<?xml version="1.0" encoding="UTF-8"?>
<!DOCTYPE svg PUBLIC "-//W3C//DTD SVG 1.1//EN" "http://www.w3.org/Graphics/SVG/1.1/DTD/svg11.dtd">
<!-- Creator: CorelDRAW X7 -->
<svg xmlns="http://www.w3.org/2000/svg" xml:space="preserve" width="100%" height="100%" version="1.1" style="shape-rendering:geometricPrecision; text-rendering:geometricPrecision; image-rendering:optimizeQuality; fill-rule:evenodd; clip-rule:evenodd"
viewBox="0 0 16658 17723"
 xmlns:xlink="http://www.w3.org/1999/xlink">
 <defs>
  <style type="text/css">
   <![CDATA[
    .fil0 {fill:#FEFEFE}
   ]]>
  </style>
 </defs>
 <g id="Слой_x0020_1">
  <metadata id="CorelCorpID_0Corel-Layer"/>
  <path class="fil0" d="M8117 8326c1172,0 2127,-23 2974,659 739,594 1362,2172 1713,3121 53,144 110,269 152,412 285,986 -1170,1798 -1876,2299 -727,516 -1220,1036 -1799,1446 -419,298 -647,318 -1129,318 -523,0 -1153,-621 -1492,-907 -670,-567 -973,-780 -1683,-1280 -590,-417 -1497,-1034 -1283,-1848 149,-568 988,-2487 1344,-2960 93,-124 127,-183 229,-300 121,-138 99,-147 259,-270 250,-192 352,-293 675,-419 529,-205 1198,-271 1916,-271zm-3627 -8326l223 0c297,38 375,343 242,613 -191,389 -763,1611 -789,1927 273,-183 820,-840 1066,-1121 302,-346 747,-1220 1163,-650 329,450 494,1444 524,2019 9,180 -31,256 -37,422 -23,742 -329,1653 -755,2243 -373,516 -1055,1071 -1673,1326 -98,40 -192,85 -288,135 40,487 70,142 70,918 254,59 649,408 777,599 105,-70 214,-161 322,-242 817,-620 2173,-604 3170,-604 1180,0 2163,62 3039,770 108,87 165,178 277,253 70,-298 455,-573 706,-706 -97,-202 -36,-648 -36,-917 -252,-21 -1023,-411 -1228,-536 -759,-460 -1258,-1090 -1653,-1874 -271,-539 -573,-1433 -577,-2070 -7,-897 420,-1037 735,-734 75,72 162,157 223,235l445 438c304,292 1483,1183 1773,1260 -100,-430 -1081,-1584 -1402,-1949 -173,-196 -455,-325 -464,-629 -7,-224 152,-360 352,-383 1215,-135 1916,182 2901,728 306,169 590,402 845,637l370 370c558,547 1155,1606 1118,2522 -35,854 -185,632 -37,1265 279,1195 -114,2163 -1159,2715 -245,130 -162,60 -247,317 -179,539 -856,1239 -1430,1286 4,169 61,225 121,373 47,116 79,236 126,333 740,0 1377,-100 1828,-394 380,-247 280,-364 483,-646 293,-408 1082,20 376,905 -509,638 -1515,876 -2405,876 328,619 107,1007 71,1446 564,47 1044,385 1828,170 150,-41 263,-84 406,-158 654,-337 900,150 701,453 -103,157 -504,312 -708,387 -265,96 -547,135 -923,136 -480,2 -1355,-157 -1763,-353 -119,178 -293,283 -450,432 -81,78 -143,118 -236,188 -93,70 -153,123 -231,192 365,30 1120,455 1371,639 394,291 720,600 978,1033 671,1128 -414,1477 -545,722 -62,-354 -314,-679 -580,-902 -363,-305 -785,-556 -1281,-730 -127,-44 -664,-214 -772,-182 -164,49 -1448,1217 -1965,1529 -125,76 -180,103 -330,164 -248,100 -492,162 -827,162 -914,0 -1401,-495 -2046,-989 -174,-133 -910,-862 -1129,-875 -99,-6 -659,168 -771,210 -459,170 -904,422 -1249,727 -308,272 -487,557 -565,951 -154,775 -1574,195 -89,-1393 90,-97 164,-131 266,-229 319,-307 1183,-800 1632,-837 -86,-75 -156,-136 -252,-207 -228,-169 -507,-368 -666,-605 -436,209 -1296,354 -1799,353 -381,0 -653,-45 -938,-156 -356,-138 -944,-375 -637,-820 232,-336 820,91 1115,166 771,197 1248,-132 1801,-178 -37,-441 -258,-826 70,-1446 -2488,0 -3253,-1854 -2310,-1923 332,-24 336,370 502,556 476,538 1244,626 2090,626 110,-229 197,-548 318,-776 -600,-50 -1295,-740 -1430,-1322 -78,-335 -65,-221 -327,-378 -227,-136 -384,-277 -563,-461 -445,-458 -637,-1100 -575,-1757 36,-379 -39,-347 -134,-567 -670,-1549 -6,-3342 1115,-4449 480,-475 920,-906 1537,-1215 340,-170 765,-336 1195,-364zm8213 9913c-403,-761 -419,-495 -212,-953 169,-372 612,-469 882,-599 -115,-496 -141,-638 -141,-1164 160,3 140,35 318,35 451,0 704,28 1129,-140 118,-47 152,-59 263,-126 141,-86 163,-130 266,-157 0,942 -272,1285 -1161,1626 -106,40 -156,38 -196,157 -70,209 40,355 -275,783 -205,276 -531,458 -873,538zm-11183 -2928c106,25 105,39 202,81 418,179 1040,217 1493,129 285,-56 245,-87 245,460 0,280 -70,407 -70,671 405,94 802,278 1035,622l43 63c3,4 10,14 15,20 -181,272 -335,512 -494,812 -151,-73 -284,-99 -447,-188 -489,-267 -646,-713 -646,-1259 -584,-136 -1147,-542 -1307,-1128 -26,-98 -28,-198 -69,-283zm10689 -3281l0 0zm-2328 -705l0 0zm-5715 -459l0 0zm5715 459c236,157 355,291 528,424 62,46 116,85 183,135 449,337 2014,1493 2559,1158 467,-287 -324,-1524 -476,-1760 -256,-395 -488,-744 -791,-1113 -130,-158 -246,-256 -275,-361 192,91 496,-10 1538,614 890,533 1670,1367 1949,2391 352,1295 -423,2355 -2061,1884 -823,-237 -1536,-563 -2087,-1158 -432,-466 -1067,-1678 -1067,-2214zm-6703 317c0,456 313,574 730,377 433,-204 802,-558 1113,-898 158,-172 355,-332 485,-502 80,-104 383,-499 494,-529 5,207 141,489 141,1094 0,820 -253,1500 -562,2013 -561,934 -2350,1870 -3438,1528 -636,-200 -1009,-858 -1009,-1672 0,-817 339,-1494 776,-2116 355,-506 961,-1064 1481,-1412 273,-182 359,-173 565,-282 -25,107 -66,170 -111,277l-348 852c-106,265 -317,921 -317,1270z"/>
 </g>
</svg>
