<?xml version="1.0" encoding="UTF-8"?>
<!DOCTYPE svg PUBLIC "-//W3C//DTD SVG 1.1//EN" "http://www.w3.org/Graphics/SVG/1.1/DTD/svg11.dtd">
<!-- Creator: CorelDRAW X7 -->
<svg xmlns="http://www.w3.org/2000/svg" xml:space="preserve" width="100%" height="100%" version="1.1" style="shape-rendering:geometricPrecision; text-rendering:geometricPrecision; image-rendering:optimizeQuality; fill-rule:evenodd; clip-rule:evenodd"
viewBox="0 0 17639 17639"
 xmlns:xlink="http://www.w3.org/1999/xlink">
 <defs>
  <style type="text/css">
   <![CDATA[
    .fil0 {fill:none}
    .fil1 {fill:#4E4E4F;fill-rule:nonzero}
   ]]>
  </style>
 </defs>
 <g id="Слой_x0020_1">
  <metadata id="CorelCorpID_0Corel-Layer"/>
  <rect class="fil0" width="17639" height="17639"/>
  <path class="fil1" d="M2160 5699l355 110c-54,200 -145,349 -272,446 -127,97 -288,146 -483,146 -242,0 -441,-83 -597,-248 -155,-165 -233,-391 -233,-677 0,-303 79,-539 235,-706 156,-168 362,-252 617,-252 222,0 403,66 542,198 83,78 145,190 186,336l-363 86c-22,-94 -67,-168 -135,-223 -68,-55 -151,-82 -249,-82 -135,0 -244,49 -328,146 -84,96 -126,253 -126,469 0,230 41,394 124,491 83,98 190,147 323,147 98,0 182,-31 252,-94 70,-62 121,-159 152,-293z"/>
  <path id="1" class="fil1" d="M2818 5052l325 0 0 193c42,-66 99,-119 171,-160 72,-41 152,-61 240,-61 152,0 282,60 389,180 107,120 160,288 160,502 0,220 -54,391 -161,514 -108,122 -238,183 -391,183 -73,0 -139,-14 -198,-44 -59,-28 -122,-78 -187,-148l0 659 -348 0 0 -1818zm343 639c0,148 29,258 88,329 58,71 130,106 214,106 80,0 148,-32 202,-98 53,-65 80,-171 80,-320 0,-139 -28,-242 -83,-309 -55,-67 -124,-101 -205,-101 -85,0 -156,33 -212,99 -56,66 -84,164 -84,294z"/>
  <path id="2" class="fil1" d="M5142 5953l348 59c-45,127 -116,224 -212,291 -96,67 -217,100 -361,100 -229,0 -399,-75 -509,-225 -86,-120 -130,-272 -130,-455 0,-218 57,-390 171,-513 114,-124 258,-186 433,-186 195,0 350,65 463,194 113,130 167,328 162,596l-871 0c3,103 31,184 84,241 54,58 121,86 200,86 55,0 100,-14 137,-44 38,-30 65,-77 85,-144zm20 -353c-3,-101 -29,-178 -78,-230 -50,-53 -110,-79 -181,-79 -76,0 -138,27 -188,83 -49,55 -73,131 -73,226l520 0z"/>
  <path id="3" class="fil1" d="M6882 6370l-998 0 0 348 -282 0 0 -632 142 0c59,-67 108,-170 147,-311 38,-141 62,-382 69,-723l1064 0 0 1034 142 0 0 632 -284 0 0 -348zm-203 -284l1 -747 -423 0c-14,364 -72,613 -173,747l595 0z"/>
  <polygon id="4" class="fil1" points="7389,5052 7737,5052 7737,5534 8240,5534 8240,5052 8588,5052 8588,6370 8240,6370 8240,5816 7737,5816 7737,6370 7389,6370 "/>
  <polygon id="5" class="fil1" points="8929,5052 9264,5052 9264,5880 9800,5052 10143,5052 10143,6370 9808,6370 9808,5530 9264,6370 8929,6370 "/>
  <path id="6" class="fil1" d="M10490 5052l335 0 0 828 536 -828 343 0 0 1318 -335 0 0 -840 -544 840 -335 0 0 -1318zm831 -531l170 0c-10,112 -50,201 -119,265 -69,63 -158,96 -268,96 -110,0 -199,-33 -268,-96 -69,-64 -109,-153 -119,-265l170 0c6,58 27,103 62,133 36,30 87,45 155,45 67,0 119,-15 155,-45 35,-30 56,-75 62,-133z"/>
  <path id="7" class="fil1" d="M12770 5052l763 0c157,0 274,28 352,85 78,57 116,144 116,259 0,74 -21,138 -63,193 -43,54 -97,91 -161,109 91,22 158,64 203,125 45,61 67,128 67,201 0,103 -37,186 -113,250 -75,64 -187,96 -334,96l-830 0 0 -1318zm348 548l226 0c109,0 188,-13 236,-41 49,-27 73,-70 73,-129 0,-56 -22,-95 -68,-119 -45,-24 -125,-36 -241,-36l-226 0 0 325zm0 547l276 0c100,0 173,-12 219,-36 46,-25 68,-67 68,-130 0,-64 -26,-109 -78,-133 -52,-24 -154,-37 -306,-37l-179 0 0 336z"/>
  <path id="8" class="fil1" d="M15057 5953l348 59c-45,127 -115,224 -211,291 -97,67 -218,100 -362,100 -229,0 -399,-75 -508,-225 -87,-120 -131,-272 -131,-455 0,-218 57,-390 171,-513 114,-124 259,-186 433,-186 195,0 350,65 463,194 113,130 168,328 163,596l-872 0c3,103 31,184 85,241 53,58 120,86 199,86 55,0 101,-14 138,-44 37,-30 65,-77 84,-144zm20 -353c-2,-101 -28,-178 -78,-230 -49,-53 -109,-79 -180,-79 -76,0 -139,27 -188,83 -50,55 -74,131 -73,226l519 0z"/>
  <path id="9" class="fil1" d="M16822 5443l-343 61c-11,-68 -37,-119 -78,-154 -42,-34 -94,-52 -160,-52 -86,0 -156,30 -208,90 -51,60 -77,161 -77,302 0,156 26,267 79,332 52,64 123,97 211,97 66,0 120,-19 162,-57 42,-38 72,-103 89,-195l343 59c-36,157 -104,276 -205,356 -100,81 -235,121 -405,121 -192,0 -346,-61 -460,-182 -115,-122 -172,-291 -172,-506 0,-218 57,-388 172,-509 115,-122 270,-182 466,-182 160,0 288,35 383,104 94,69 162,174 203,315z"/>
  <polygon id="10" class="fil1" points="5048,7889 6239,7889 6239,8171 5818,8171 5818,9208 5470,9208 5470,8171 5048,8171 "/>
  <path id="11" class="fil1" d="M6345 7889l371 0 316 936 309 -936 360 0 -465 1269 -83 229c-31,77 -61,135 -88,176 -28,40 -60,73 -96,98 -36,25 -81,45 -133,59 -53,14 -113,21 -179,21 -67,0 -133,-7 -198,-21l-30 -272c54,11 104,16 148,16 81,0 141,-24 180,-71 39,-48 69,-109 90,-183l-502 -1321z"/>
  <polygon id="12" class="fil1" points="7915,7889 8235,7889 8235,8926 8641,8926 8641,7889 8961,7889 8961,8926 9368,8926 9368,7889 9688,7889 9688,9208 7915,9208 "/>
  <path id="13" class="fil1" d="M10027 7889l348 0 0 539c58,-7 99,-25 123,-53 24,-29 53,-92 87,-190 45,-130 94,-212 147,-249 53,-36 122,-54 209,-54 26,0 72,2 138,6l1 230c-92,0 -151,8 -177,26 -26,18 -53,72 -83,162 -41,121 -100,196 -176,224 110,31 203,127 280,288 3,9 8,17 13,26l195 364 -375 0 -173 -383c-36,-77 -67,-126 -93,-148 -26,-22 -65,-33 -116,-33l0 564 -348 0 0 -1319z"/>
  <polygon id="14" class="fil1" points="11303,7889 11639,7889 11639,8718 12175,7889 12517,7889 12517,9208 12182,9208 12182,8367 11639,9208 11303,9208 "/>
  <polygon id="15" class="fil1" points="5959,12651 6411,10771 6673,10771 6218,12651 "/>
  <polygon id="16" class="fil1" points="13901,11302 14792,11302 14792,11584 14249,11584 14249,12620 13901,12620 "/>
  <path id="17" class="fil1" d="M14964 11302l325 0 0 193c42,-66 99,-119 171,-160 72,-41 152,-61 239,-61 153,0 283,60 390,180 107,120 160,288 160,502 0,220 -54,392 -161,514 -108,122 -238,183 -392,183 -72,0 -138,-14 -198,-43 -59,-29 -121,-79 -186,-149l0 660 -348 0 0 -1819zm343 639c0,148 29,258 88,329 58,71 130,106 213,106 81,0 149,-32 202,-97 54,-66 81,-172 81,-321 0,-139 -28,-242 -83,-309 -55,-67 -124,-101 -206,-101 -85,0 -155,33 -211,99 -56,66 -84,164 -84,294z"/>
  <polygon id="18" class="fil1" points="16523,12620 16523,12272 16871,12272 16871,12620 "/>
  <path id="19" class="fil1" d="M816 12092l422 -47c10,87 37,151 80,192 43,42 100,62 170,62 90,0 165,-41 228,-124 62,-83 102,-256 119,-517 -109,127 -246,191 -410,191 -179,0 -333,-69 -463,-207 -129,-138 -194,-318 -194,-539 0,-231 68,-416 205,-557 137,-141 312,-212 524,-212 230,0 419,90 567,268 148,179 222,472 222,882 0,416 -77,717 -230,901 -154,184 -354,276 -600,276 -178,0 -321,-47 -430,-142 -109,-95 -180,-238 -210,-427zm981 -954c0,-140 -32,-249 -97,-326 -64,-77 -139,-116 -223,-116 -81,0 -147,32 -200,95 -54,64 -80,168 -80,311 0,147 29,254 87,323 57,69 129,103 216,103 84,0 154,-33 211,-99 57,-66 86,-163 86,-291z"/>
  <path id="20" class="fil1" d="M3304 10334c220,0 392,79 516,237 148,186 222,496 222,927 0,432 -75,742 -223,930 -124,156 -295,233 -515,233 -221,0 -400,-85 -535,-255 -136,-171 -203,-475 -203,-912 0,-429 74,-738 223,-926 123,-156 295,-234 515,-234zm0 362c-52,0 -99,17 -139,51 -40,33 -72,94 -94,181 -30,113 -45,303 -45,570 0,268 13,452 40,552 26,100 60,166 100,200 40,33 86,49 138,49 52,0 98,-16 139,-50 40,-34 72,-94 94,-181 30,-112 45,-302 45,-570 0,-267 -14,-451 -40,-551 -26,-100 -60,-167 -100,-200 -40,-34 -86,-51 -138,-51z"/>
  <path id="21" class="fil1" d="M5070 10334c220,0 392,79 516,237 148,186 222,496 222,927 0,432 -75,742 -223,930 -124,156 -295,233 -515,233 -221,0 -400,-85 -535,-255 -136,-171 -203,-475 -203,-912 0,-429 74,-738 223,-926 123,-156 295,-234 515,-234zm0 362c-52,0 -99,17 -139,51 -41,33 -72,94 -95,181 -29,113 -44,303 -44,570 0,268 13,452 40,552 26,100 59,166 100,200 40,33 86,49 138,49 52,0 98,-16 139,-50 40,-34 72,-94 94,-181 30,-112 45,-302 45,-570 0,-267 -14,-451 -40,-551 -27,-100 -60,-167 -100,-200 -40,-34 -86,-51 -138,-51z"/>
  <path id="22" class="fil1" d="M7917 12620l-434 0 0 -1646c-159,150 -347,260 -562,332l0 -397c113,-37 237,-108 369,-212 134,-104 225,-225 275,-363l352 0 0 2286z"/>
  <path id="23" class="fil1" d="M10042 12217l0 403 -1527 0c16,-153 66,-298 149,-435 82,-137 246,-319 489,-546 196,-184 317,-308 361,-373 60,-90 90,-179 90,-267 0,-98 -26,-172 -78,-225 -52,-52 -124,-78 -216,-78 -91,0 -163,28 -217,83 -53,54 -84,145 -92,273l-435 -44c26,-240 107,-412 243,-517 137,-104 307,-157 512,-157 224,0 400,61 529,182 128,121 192,272 192,453 0,102 -18,200 -55,293 -36,92 -95,189 -175,291 -52,68 -148,164 -285,291 -138,126 -226,210 -262,252 -37,41 -67,82 -90,121l867 0z"/>
  <path id="24" class="fil1" d="M11073 10334c220,0 392,79 516,237 148,186 222,496 222,927 0,432 -75,742 -223,930 -124,156 -295,233 -515,233 -221,0 -400,-85 -535,-255 -136,-171 -203,-475 -203,-912 0,-429 74,-738 223,-926 123,-156 295,-234 515,-234zm0 362c-52,0 -99,17 -139,51 -40,33 -72,94 -94,181 -30,113 -45,303 -45,570 0,268 13,452 40,552 26,100 60,166 100,200 40,33 86,49 138,49 52,0 98,-16 139,-50 40,-34 72,-94 94,-181 30,-112 45,-302 45,-570 0,-267 -14,-451 -40,-551 -26,-100 -60,-167 -100,-200 -40,-34 -86,-51 -138,-51z"/>
  <path id="25" class="fil1" d="M12839 10334c220,0 392,79 516,237 148,186 222,496 222,927 0,432 -75,742 -223,930 -124,156 -295,233 -515,233 -221,0 -400,-85 -535,-255 -136,-171 -203,-475 -203,-912 0,-429 74,-738 223,-926 123,-156 295,-234 515,-234zm0 362c-52,0 -99,17 -139,51 -41,33 -72,94 -95,181 -29,113 -44,303 -44,570 0,268 13,452 40,552 26,100 59,166 100,200 40,33 86,49 138,49 52,0 98,-16 139,-50 40,-34 72,-94 94,-181 30,-112 45,-302 45,-570 0,-267 -14,-451 -40,-551 -27,-100 -60,-167 -100,-200 -40,-34 -86,-51 -138,-51z"/>
 </g>
</svg>
