<?xml version="1.0" encoding="UTF-8"?>
<!DOCTYPE svg PUBLIC "-//W3C//DTD SVG 1.1//EN" "http://www.w3.org/Graphics/SVG/1.1/DTD/svg11.dtd">
<!-- Creator: CorelDRAW X7 -->
<svg xmlns="http://www.w3.org/2000/svg" xml:space="preserve" width="100%" height="100%" version="1.1" style="shape-rendering:geometricPrecision; text-rendering:geometricPrecision; image-rendering:optimizeQuality; fill-rule:evenodd; clip-rule:evenodd"
viewBox="0 0 17639 17639"
 xmlns:xlink="http://www.w3.org/1999/xlink">
 <defs>
  <style type="text/css">
   <![CDATA[
    .fil0 {fill:none}
    .fil1 {fill:#4e4e4f;fill-rule:nonzero}
   ]]>
  </style>
 </defs>
 <g id="Слой_x0020_1">
  <metadata id="CorelCorpID_0Corel-Layer"/>
  <rect class="fil0" width="17639" height="17639"/>
  <polygon class="fil1" points="2664,4211 3878,4211 3878,5758 3673,5758 3673,4393 2869,4393 2869,5758 2664,5758 "/>
  <path id="1" class="fil1" d="M4191 6188l0 -1551 173 0 0 147c41,-57 87,-100 138,-128 51,-29 114,-43 187,-43 96,0 180,24 253,74 73,49 128,118 165,207 38,90 56,188 56,295 0,114 -20,217 -61,309 -41,91 -101,162 -180,210 -78,49 -160,74 -247,74 -63,0 -120,-14 -170,-40 -50,-27 -91,-61 -124,-101l0 547 -190 0zm173 -984c0,144 29,250 87,319 58,68 129,103 212,103 84,0 156,-36 216,-107 60,-71 90,-181 90,-331 0,-142 -29,-249 -88,-320 -59,-71 -129,-106 -210,-106 -81,0 -152,38 -214,113 -62,76 -93,185 -93,329z"/>
  <path id="2" class="fil1" d="M6125 5617c-71,61 -139,103 -204,128 -65,24 -135,37 -210,37 -123,0 -218,-30 -284,-90 -66,-60 -99,-137 -99,-230 0,-55 12,-105 37,-150 25,-46 58,-82 99,-109 40,-27 86,-48 136,-62 38,-10 94,-19 170,-29 153,-18 266,-40 339,-65 0,-26 1,-42 1,-49 0,-77 -18,-132 -54,-163 -49,-43 -121,-64 -217,-64 -90,0 -156,15 -198,47 -43,31 -74,87 -95,166l-186 -25c17,-80 45,-144 84,-193 39,-49 95,-87 168,-113 73,-27 159,-40 255,-40 96,0 174,11 234,34 60,22 104,51 132,85 28,34 48,77 60,129 6,33 9,91 9,175l0 252c0,176 4,287 12,334 8,48 23,93 46,136l-198 0c-19,-40 -32,-87 -37,-141zm-15 -421c-69,28 -173,52 -311,71 -79,12 -134,24 -167,38 -32,14 -57,35 -74,61 -18,27 -27,57 -27,90 0,51 19,93 58,126 38,34 94,51 168,51 73,0 138,-16 196,-48 56,-32 99,-76 125,-131 21,-43 31,-106 31,-189l1 -69z"/>
  <path id="3" class="fil1" d="M6592 4637l190 0 0 484c61,0 103,-12 127,-35 25,-23 60,-91 108,-203 37,-88 67,-147 91,-175 23,-28 50,-47 80,-57 30,-9 79,-14 146,-14l38 0 0 156 -53 -1c-50,0 -82,8 -96,23 -15,15 -38,61 -68,138 -29,73 -55,124 -79,152 -24,28 -61,54 -111,77 82,22 162,98 242,228l208 348 -209 0 -205 -347c-42,-70 -78,-116 -108,-138 -31,-22 -68,-34 -111,-34l0 519 -190 0 0 -1121z"/>
  <polygon id="4" class="fil1" points="7464,4637 8371,4637 8371,4794 8013,4794 8013,5758 7823,5758 7823,4794 7464,4794 "/>
  <polygon id="5" class="fil1" points="8553,4637 8743,4637 8743,5492 9271,4637 9475,4637 9475,5758 9285,5758 9285,4908 8758,5758 8553,5758 "/>
  <path id="6" class="fil1" d="M9688 4637l190 0 0 211c0,92 6,158 17,199 11,41 37,77 79,108 41,30 93,45 156,45 72,0 165,-19 280,-56l0 -507 190 0 0 1121 -190 0 0 -453c-117,37 -227,55 -328,55 -86,0 -161,-21 -226,-64 -65,-44 -109,-97 -133,-159 -23,-63 -35,-132 -35,-207l0 -293z"/>
  <path id="7" class="fil1" d="M11650 5395l196 26c-30,114 -87,203 -171,266 -84,63 -190,95 -320,95 -164,0 -293,-51 -389,-152 -96,-100 -144,-242 -144,-423 0,-188 49,-335 146,-438 96,-104 222,-156 376,-156 150,0 272,51 367,153 94,101 142,245 142,429 0,12 -1,29 -1,51l-835 0c7,123 42,217 104,282 63,65 141,98 234,98 69,0 129,-18 178,-55 49,-37 88,-95 117,-176zm-622 -305l624 0c-8,-94 -32,-165 -72,-212 -60,-73 -138,-110 -234,-110 -88,0 -161,30 -220,88 -59,58 -92,136 -98,234z"/>
  <path id="8" class="fil1" d="M12819 5347l186 26c-21,128 -73,228 -157,300 -84,73 -187,109 -309,109 -153,0 -276,-50 -369,-151 -93,-100 -140,-243 -140,-429 0,-121 20,-227 60,-318 40,-90 101,-158 183,-203 82,-45 171,-68 268,-68 121,0 221,31 298,92 77,62 127,149 148,262l-183 28c-18,-75 -49,-132 -94,-170 -45,-37 -99,-57 -162,-57 -96,0 -173,35 -234,103 -59,69 -89,177 -89,325 0,151 29,260 86,328 58,68 133,102 226,102 75,0 137,-23 187,-68 50,-46 82,-116 95,-211z"/>
  <path id="9" class="fil1" d="M13164 4637l191 0 0 484c60,0 103,-12 127,-35 24,-23 60,-91 107,-203 38,-88 68,-147 91,-175 23,-28 50,-47 80,-57 31,-9 80,-14 146,-14l38 0 0 156 -53 -1c-50,0 -82,8 -96,23 -15,15 -37,61 -67,138 -29,73 -56,124 -80,152 -23,28 -60,54 -111,77 82,22 163,98 242,228l209 348 -209 0 -206 -347c-41,-70 -77,-116 -108,-138 -31,-22 -68,-34 -110,-34l0 519 -191 0 0 -1121z"/>
  <polygon id="10" class="fil1" points="14112,4637 14302,4637 14302,5492 14830,4637 15034,4637 15034,5758 14844,5758 14844,4908 14317,5758 14112,5758 "/>
  <path id="11" class="fil1" d="M3040 6588l201 0c-6,89 -29,156 -70,202 -40,46 -140,69 -299,69 -19,0 -38,-1 -57,-1l-38 0c-95,0 -171,10 -230,31 -60,21 -108,61 -146,121 -37,60 -57,156 -58,289 43,-82 100,-143 169,-184 69,-41 152,-61 248,-61 147,0 271,58 374,172 102,115 153,248 153,399 0,157 -54,292 -161,405 -108,113 -248,169 -421,169 -119,0 -224,-28 -314,-85 -90,-57 -154,-135 -193,-234 -39,-99 -58,-263 -58,-492 0,-270 49,-463 148,-581 99,-117 272,-176 519,-176l150 0c42,0 69,-14 83,-43zm-596 1032c0,102 26,184 77,243 50,60 112,90 186,90 79,0 144,-31 195,-93 51,-62 76,-141 76,-239 0,-100 -26,-180 -77,-242 -52,-61 -115,-91 -191,-91 -73,0 -136,30 -188,90 -52,60 -78,141 -78,242z"/>
  <path id="12" class="fil1" d="M4180 7817l296 50c-37,108 -98,190 -179,247 -82,57 -185,85 -308,85 -195,0 -339,-63 -432,-191 -74,-102 -111,-231 -111,-387 0,-186 49,-332 145,-437 97,-105 220,-158 368,-158 167,0 298,55 395,166 96,110 142,279 137,506l-741 0c3,88 26,156 72,205 46,49 102,74 170,74 47,0 85,-13 117,-38 31,-25 55,-66 71,-122zm18 -300c-2,-86 -24,-152 -67,-197 -42,-45 -93,-67 -153,-67 -65,0 -118,24 -160,71 -42,47 -63,112 -62,193l442 0z"/>
  <path id="13" class="fil1" d="M5034 7713l0 -192c52,0 89,-3 112,-10 23,-7 45,-23 66,-49 21,-26 32,-56 32,-89 0,-35 -13,-68 -39,-98 -26,-31 -64,-46 -115,-46 -39,0 -75,9 -106,26 -31,16 -59,56 -84,119l-250 -54c25,-98 79,-171 162,-220 83,-49 177,-74 283,-74 135,0 240,31 314,93 74,62 111,140 111,234 0,59 -16,107 -48,146 -32,38 -82,74 -151,107 82,23 144,57 185,103 41,45 62,102 62,171 0,87 -41,162 -122,225 -82,63 -199,94 -352,94 -267,0 -430,-104 -490,-313l270 -50c44,110 116,165 216,165 56,0 100,-15 134,-44 33,-30 50,-64 50,-103 0,-44 -17,-78 -52,-103 -35,-25 -81,-38 -137,-38l-51 0z"/>
  <path id="14" class="fil1" d="M6395 7050l296 0 0 458c49,-6 84,-21 104,-45 21,-25 45,-79 74,-161 38,-111 80,-181 125,-212 45,-31 104,-46 178,-46 22,0 61,1 117,5l1 195c-78,0 -128,8 -150,22 -22,16 -46,62 -71,139 -35,103 -85,166 -149,190 93,26 172,108 237,245 3,7 7,14 12,22l165 309 -318 0 -148 -325c-30,-65 -56,-108 -79,-126 -22,-19 -55,-28 -98,-28l0 479 -296 0 0 -1121z"/>
  <path id="15" class="fil1" d="M7391 7597c0,-99 24,-194 73,-286 49,-93 117,-163 206,-212 89,-48 188,-73 298,-73 170,0 308,55 417,166 108,110 162,249 162,418 0,169 -55,310 -164,422 -109,111 -247,167 -413,167 -102,0 -200,-23 -294,-70 -93,-46 -163,-114 -212,-204 -49,-90 -73,-199 -73,-328zm305 16c0,111 26,196 79,255 53,60 117,89 195,89 77,0 142,-29 194,-89 52,-59 78,-145 78,-257 0,-110 -26,-195 -78,-254 -52,-59 -117,-89 -194,-89 -78,0 -142,30 -195,89 -53,59 -79,145 -79,256z"/>
  <path id="16" class="fil1" d="M9728 7383l-292 52c-9,-58 -32,-102 -67,-132 -35,-29 -80,-43 -135,-43 -74,0 -133,25 -177,76 -44,51 -66,137 -66,257 0,133 23,227 67,282 45,55 105,82 180,82 56,0 102,-16 137,-48 36,-32 62,-87 76,-166l292 50c-30,134 -88,235 -174,304 -86,68 -200,102 -345,102 -163,0 -294,-52 -391,-155 -98,-104 -146,-247 -146,-430 0,-186 49,-330 146,-433 98,-103 230,-155 397,-155 136,0 244,30 325,88 80,59 138,148 173,269z"/>
  <polygon id="17" class="fil1" points="9819,7050 10832,7050 10832,7290 10474,7290 10474,8171 10178,8171 10178,7290 9819,7290 "/>
  <path id="18" class="fil1" d="M10913 7597c0,-99 24,-194 73,-286 48,-93 117,-163 206,-212 89,-48 188,-73 298,-73 170,0 308,55 416,166 109,110 163,249 163,418 0,169 -55,310 -164,422 -109,111 -247,167 -413,167 -103,0 -200,-23 -294,-70 -93,-46 -164,-114 -212,-204 -49,-90 -73,-199 -73,-328zm305 16c0,111 26,196 79,255 53,60 117,89 195,89 77,0 142,-29 194,-89 52,-59 78,-145 78,-257 0,-110 -26,-195 -78,-254 -52,-59 -117,-89 -194,-89 -78,0 -142,30 -195,89 -53,59 -79,145 -79,256z"/>
  <path id="19" class="fil1" d="M12214 7050l300 0 0 268c0,61 5,107 16,137 11,30 34,56 70,77 35,21 80,32 134,32 53,0 112,-12 177,-36l0 -478 296 0 0 1121 -296 0 0 -448c-115,31 -203,46 -264,46 -90,0 -172,-19 -244,-58 -73,-39 -122,-89 -149,-150 -27,-61 -40,-142 -40,-243l0 -268z"/>
  <path id="20" class="fil1" d="M14150 7817l296 50c-38,108 -98,190 -179,247 -83,57 -185,85 -308,85 -195,0 -339,-63 -432,-191 -74,-102 -111,-231 -111,-387 0,-186 48,-332 145,-437 97,-105 220,-158 368,-158 167,0 298,55 394,166 97,110 143,279 138,506l-741 0c3,88 26,156 72,205 45,49 102,74 170,74 46,0 85,-13 117,-38 31,-25 55,-66 71,-122zm18 -300c-3,-86 -25,-152 -67,-197 -42,-45 -93,-67 -153,-67 -65,0 -118,24 -160,71 -42,47 -63,112 -62,193l442 0z"/>
  <path id="21" class="fil1" d="M14691 7050l296 0 0 458c49,-6 84,-21 104,-45 21,-25 45,-79 74,-161 38,-111 80,-181 125,-212 45,-31 104,-46 178,-46 22,0 61,1 117,5l1 195c-78,0 -128,8 -150,22 -22,16 -46,62 -71,139 -35,103 -85,166 -149,190 93,26 172,108 237,245 3,7 7,14 12,22l165 309 -318 0 -148 -325c-30,-65 -56,-108 -79,-126 -22,-19 -55,-28 -98,-28l0 479 -296 0 0 -1121z"/>
  <path id="22" class="fil1" d="M1858 10014l303 93c-47,170 -124,297 -232,380 -108,82 -245,123 -411,123 -206,0 -375,-70 -507,-210 -132,-141 -198,-332 -198,-576 0,-258 66,-458 199,-600 133,-143 308,-214 525,-214 189,0 343,56 461,168 70,66 123,161 158,285l-309 74c-18,-80 -56,-143 -114,-190 -58,-46 -129,-69 -212,-69 -115,0 -208,41 -279,123 -72,82 -108,215 -108,400 0,195 36,334 106,417 71,83 162,125 275,125 83,0 154,-27 214,-80 60,-53 103,-135 129,-249z"/>
  <path id="23" class="fil1" d="M2507 9463l991 0 0 1122 -296 0 0 -882 -402 0 0 505c0,128 -14,218 -44,270 -30,51 -63,85 -99,101 -35,17 -93,25 -173,25 -47,0 -110,-7 -187,-19l0 -218c6,0 23,1 50,3 31,2 55,3 72,3 40,0 65,-14 74,-40 9,-26 14,-100 14,-220l0 -650z"/>
  <path id="24" class="fil1" d="M4019 9809l-267 -48c30,-109 82,-190 156,-243 74,-52 183,-78 329,-78 132,0 231,15 296,46 64,32 110,71 136,120 26,48 40,136 40,265l-5 346c0,98 5,171 14,217 10,47 27,97 53,151l-294 0c-7,-20 -17,-49 -28,-87 -5,-18 -8,-29 -10,-34 -51,49 -105,86 -162,111 -58,25 -119,38 -184,38 -115,0 -206,-32 -272,-94 -67,-63 -100,-142 -100,-238 0,-63 15,-119 46,-169 30,-49 72,-87 127,-114 54,-26 133,-49 235,-69 139,-26 235,-50 288,-72l0 -30c0,-58 -14,-99 -42,-124 -29,-24 -82,-37 -160,-37 -53,0 -94,11 -124,32 -29,21 -53,58 -72,111zm398 240c-38,12 -98,28 -180,45 -83,18 -137,35 -162,52 -38,27 -58,62 -58,104 0,42 16,77 47,108 31,30 70,45 118,45 53,0 104,-18 153,-53 35,-27 59,-59 70,-98 8,-25 12,-73 12,-144l0 -59z"/>
  <path id="25" class="fil1" d="M5843 9001l201 0c-7,89 -30,156 -70,202 -41,46 -141,69 -300,69 -19,0 -38,0 -57,-1l-38 0c-94,0 -171,11 -230,31 -59,21 -108,61 -145,121 -38,60 -57,157 -59,290 44,-83 100,-144 170,-184 69,-41 152,-61 247,-61 147,0 272,57 374,172 102,114 153,247 153,398 0,157 -53,292 -161,405 -107,113 -247,170 -421,170 -119,0 -223,-29 -313,-86 -90,-57 -155,-135 -194,-234 -38,-99 -58,-263 -58,-492 0,-269 50,-463 149,-580 99,-118 272,-177 518,-177l151 0c41,0 69,-14 83,-43zm-596 1032c0,103 25,184 76,244 51,59 113,89 186,89 79,0 145,-31 195,-93 51,-61 76,-141 76,-239 0,-100 -25,-180 -77,-241 -51,-61 -115,-92 -190,-92 -74,0 -137,30 -188,90 -52,60 -78,141 -78,242z"/>
  <path id="26" class="fil1" d="M6266 10010c0,-98 24,-194 72,-286 49,-93 118,-163 207,-211 89,-49 188,-73 298,-73 169,0 308,55 416,165 108,110 162,249 162,418 0,170 -54,311 -163,422 -110,112 -247,168 -413,168 -103,0 -201,-24 -294,-70 -93,-47 -164,-115 -213,-205 -48,-89 -72,-199 -72,-328zm304 16c0,111 27,197 79,256 53,59 118,89 195,89 77,0 142,-30 194,-89 53,-59 79,-145 79,-258 0,-110 -26,-194 -79,-254 -52,-59 -117,-88 -194,-88 -77,0 -142,29 -195,88 -52,60 -79,145 -79,256z"/>
  <path id="27" class="fil1" d="M8602 9796l-291 52c-10,-58 -32,-102 -67,-131 -35,-29 -80,-44 -136,-44 -73,0 -132,25 -176,77 -44,51 -66,136 -66,256 0,133 22,227 67,282 44,55 104,83 179,83 56,0 102,-17 138,-49 36,-32 61,-87 76,-165l292 49c-31,134 -89,236 -174,304 -86,68 -201,103 -345,103 -164,0 -294,-52 -392,-156 -97,-103 -146,-247 -146,-430 0,-185 49,-329 147,-433 97,-103 229,-154 396,-154 136,0 245,29 325,88 81,58 138,148 173,268z"/>
  <path id="28" class="fil1" d="M8758 10010c0,-98 24,-194 73,-286 49,-93 117,-163 206,-211 89,-49 188,-73 298,-73 170,0 308,55 417,165 108,110 162,249 162,418 0,170 -55,311 -164,422 -109,112 -247,168 -413,168 -102,0 -200,-24 -294,-70 -92,-47 -163,-115 -212,-205 -49,-89 -73,-199 -73,-328zm305 16c0,111 26,197 79,256 53,59 117,89 195,89 77,0 142,-30 194,-89 52,-59 78,-145 78,-258 0,-110 -26,-194 -78,-254 -52,-59 -117,-88 -194,-88 -78,0 -142,29 -195,88 -53,60 -79,145 -79,256z"/>
  <path id="29" class="fil1" d="M10173 9463l992 0 0 1122 -296 0 0 -882 -402 0 0 505c0,128 -15,218 -44,270 -30,51 -63,85 -99,101 -36,17 -94,25 -173,25 -47,0 -110,-7 -187,-19l0 -218c6,0 23,1 49,3 31,2 55,3 72,3 41,0 65,-14 75,-40 9,-26 13,-100 13,-220l0 -650z"/>
  <path id="30" class="fil1" d="M12085 10230l296 50c-37,108 -98,191 -179,248 -82,56 -185,85 -308,85 -195,0 -339,-64 -432,-192 -74,-102 -111,-231 -111,-387 0,-185 49,-331 145,-436 97,-106 220,-158 368,-158 167,0 298,55 395,165 96,110 142,279 137,506l-740 0c2,88 25,157 71,206 46,49 102,73 170,73 47,0 85,-12 117,-38 31,-25 55,-66 71,-122zm18 -300c-2,-86 -24,-152 -67,-196 -42,-45 -93,-68 -153,-68 -65,0 -118,24 -160,71 -42,48 -63,112 -62,193l442 0z"/>
  <polygon id="31" class="fil1" points="12626,9463 12922,9463 12922,9874 13350,9874 13350,9463 13645,9463 13645,10585 13350,10585 13350,10114 12922,10114 12922,10585 12626,10585 "/>
  <path id="32" class="fil1" d="M13946 9463l296 0 0 467 298 0c117,0 206,8 268,25 61,16 113,52 156,108 43,55 64,121 64,196 0,108 -37,189 -112,244 -74,54 -186,82 -336,82l-634 0 0 -1122zm296 931l276 0c72,0 124,-11 157,-33 32,-22 48,-59 48,-109 0,-54 -20,-91 -63,-111 -42,-19 -117,-30 -226,-30l-192 0 0 283zm955 -931l295 0 0 1122 -295 0 0 -1122z"/>
  <path id="33" class="fil1" d="M15780 9463l285 0 0 705 456 -705 291 0 0 1122 -285 0 0 -715 -462 715 -285 0 0 -1122zm706 -451l145 0c-8,95 -42,171 -101,225 -59,54 -135,82 -228,82 -93,0 -169,-28 -228,-82 -59,-54 -93,-130 -101,-225l145 0c5,50 22,87 52,113 31,25 75,38 132,38 57,0 101,-13 132,-38 30,-26 47,-63 52,-113z"/>
  <path id="34" class="fil1" d="M1574 12998l0 -1547 580 0c118,0 213,16 284,47 72,31 127,80 168,145 40,64 61,133 61,204 0,66 -18,128 -54,186 -36,59 -90,106 -162,142 94,27 166,74 216,140 50,66 75,144 75,234 0,73 -15,140 -46,203 -30,62 -68,110 -113,144 -45,33 -102,59 -170,76 -68,17 -151,26 -249,26l-590 0zm205 -897l334 0c91,0 156,-6 195,-18 53,-15 92,-41 118,-77 26,-36 40,-81 40,-135 0,-52 -13,-97 -37,-136 -25,-39 -60,-66 -106,-81 -46,-14 -124,-21 -235,-21l-309 0 0 468zm0 715l385 0c66,0 113,-2 140,-7 46,-8 86,-22 118,-42 31,-20 57,-49 78,-87 20,-37 31,-81 31,-130 0,-58 -15,-108 -45,-151 -30,-43 -71,-73 -123,-90 -52,-18 -128,-26 -226,-26l-358 0 0 533z"/>
  <path id="35" class="fil1" d="M3764 12635l197 26c-31,114 -88,203 -172,266 -83,63 -190,95 -320,95 -163,0 -293,-51 -389,-152 -95,-100 -143,-242 -143,-423 0,-188 48,-334 145,-438 97,-104 222,-156 377,-156 149,0 271,51 366,153 95,101 142,245 142,429 0,12 0,29 -1,51l-835 0c7,123 42,217 104,282 63,65 141,98 234,98 70,0 129,-18 178,-55 49,-37 88,-95 117,-176zm-622 -305l624 0c-8,-94 -32,-165 -71,-212 -61,-73 -139,-110 -235,-110 -87,0 -160,30 -220,88 -59,58 -92,136 -98,234z"/>
  <path id="36" class="fil1" d="M4933 12587l186 26c-21,128 -73,228 -156,300 -84,73 -188,109 -310,109 -153,0 -276,-50 -369,-150 -93,-101 -139,-244 -139,-430 0,-121 20,-227 60,-318 40,-90 101,-158 183,-203 81,-45 170,-68 267,-68 121,0 221,31 298,92 77,62 127,149 149,262l-184 28c-18,-75 -49,-131 -94,-170 -44,-37 -98,-57 -162,-57 -95,0 -173,35 -233,103 -60,69 -90,177 -90,325 0,151 29,260 86,328 58,68 134,102 226,102 75,0 137,-23 187,-68 50,-46 82,-116 95,-211z"/>
  <polygon id="37" class="fil1" points="13809,11877 14455,11877 14455,12034 13999,12034 13999,12998 13809,12998 "/>
  <path id="38" class="fil1" d="M14597 13428l0 -1551 173 0 0 147c40,-57 86,-100 138,-128 51,-29 113,-43 186,-43 96,0 180,24 254,74 73,49 128,118 165,207 37,90 56,188 56,295 0,114 -21,217 -62,309 -41,91 -100,162 -179,211 -78,48 -160,73 -247,73 -63,0 -120,-14 -170,-40 -51,-27 -92,-60 -124,-101l0 547 -190 0zm173 -984c0,144 29,250 87,319 58,69 129,103 212,103 84,0 156,-36 216,-107 60,-71 90,-181 90,-331 0,-142 -30,-249 -88,-320 -59,-71 -129,-106 -210,-106 -81,0 -152,38 -214,113 -62,76 -93,185 -93,329z"/>
  <polygon id="39" class="fil1" points="15852,12998 15852,12782 16068,12782 16068,12998 "/>
  <path id="40" class="fil1" d="M6410 12998l0 -311 -630 0 0 -258 668 -984 250 0 0 983 192 0 0 259 -192 0 0 311 -288 0zm0 -570l0 -529 -353 529 353 0z"/>
  <path id="41" class="fil1" d="M7533 11443c150,0 267,53 351,160 101,127 151,338 151,632 0,293 -51,504 -152,632 -84,106 -200,159 -350,159 -151,0 -272,-58 -364,-174 -92,-116 -138,-323 -138,-620 0,-292 50,-503 152,-631 83,-106 200,-158 350,-158zm0 246c-35,0 -67,11 -94,34 -28,23 -50,64 -65,123 -20,77 -30,207 -30,389 0,182 9,307 27,375 18,68 41,113 68,136 27,23 59,34 94,34 35,0 67,-12 95,-35 27,-23 49,-64 64,-123 20,-76 30,-205 30,-387 0,-182 -9,-307 -27,-375 -18,-68 -41,-114 -68,-137 -27,-23 -59,-34 -94,-34z"/>
  <path id="42" class="fil1" d="M8734 11443c150,0 267,53 352,160 100,127 151,338 151,632 0,293 -51,504 -152,632 -84,106 -201,159 -351,159 -150,0 -271,-58 -364,-174 -92,-116 -138,-323 -138,-620 0,-292 51,-503 152,-631 84,-106 201,-158 350,-158zm0 246c-35,0 -67,11 -94,34 -28,23 -49,64 -64,123 -21,77 -31,207 -31,389 0,182 9,307 27,375 18,68 41,113 68,136 28,23 59,34 94,34 36,0 67,-12 95,-35 27,-23 49,-64 64,-123 20,-76 30,-205 30,-387 0,-182 -9,-307 -27,-375 -18,-68 -40,-114 -68,-137 -27,-23 -58,-34 -94,-34z"/>
  <polygon id="43" class="fil1" points="9464,12585 9464,12289 10047,12289 10047,12585 "/>
  <path id="44" class="fil1" d="M10157 12601l296 -31c9,67 34,120 75,160 42,39 90,58 144,58 62,0 115,-25 157,-76 43,-50 65,-127 65,-229 0,-95 -21,-167 -64,-215 -43,-48 -98,-72 -167,-72 -85,0 -162,38 -229,113l-240 -35 151 -803 784 0 0 276 -559 0 -47 263c66,-32 134,-49 203,-49 132,0 243,48 335,144 92,96 137,220 137,374 0,128 -37,241 -110,342 -101,137 -241,205 -420,205 -142,0 -259,-39 -349,-115 -90,-77 -144,-180 -162,-310z"/>
  <path id="45" class="fil1" d="M11857 11443c149,0 266,53 351,160 100,127 151,338 151,632 0,293 -51,504 -152,632 -84,106 -201,159 -350,159 -151,0 -272,-58 -364,-174 -93,-116 -139,-323 -139,-620 0,-292 51,-503 152,-631 84,-106 201,-158 351,-158zm0 246c-36,0 -67,11 -95,34 -27,23 -49,64 -64,123 -20,77 -30,207 -30,389 0,182 9,307 27,375 18,68 40,113 68,136 27,23 58,34 94,34 35,0 67,-12 94,-35 28,-23 49,-64 64,-123 21,-76 31,-205 31,-387 0,-182 -9,-307 -27,-375 -18,-68 -41,-114 -68,-137 -28,-23 -59,-34 -94,-34z"/>
  <path id="46" class="fil1" d="M13058 11443c150,0 267,53 351,160 101,127 151,338 151,632 0,293 -50,504 -152,632 -84,106 -200,159 -350,159 -150,0 -272,-58 -364,-174 -92,-116 -138,-323 -138,-620 0,-292 51,-503 152,-631 84,-106 200,-158 350,-158zm0 246c-35,0 -67,11 -94,34 -28,23 -50,64 -65,123 -20,77 -30,207 -30,389 0,182 9,307 27,375 18,68 41,113 68,136 27,23 59,34 94,34 35,0 67,-12 95,-35 27,-23 49,-64 64,-123 20,-76 30,-205 30,-387 0,-182 -9,-307 -27,-375 -18,-68 -41,-114 -68,-137 -27,-23 -59,-34 -94,-34z"/>
 </g>
</svg>
