<?xml version="1.0" encoding="UTF-8"?>
<!DOCTYPE svg PUBLIC "-//W3C//DTD SVG 1.1//EN" "http://www.w3.org/Graphics/SVG/1.1/DTD/svg11.dtd">
<!-- Creator: CorelDRAW X7 -->
<svg xmlns="http://www.w3.org/2000/svg" xml:space="preserve" width="100%" height="100%" version="1.1" style="shape-rendering:geometricPrecision; text-rendering:geometricPrecision; image-rendering:optimizeQuality; fill-rule:evenodd; clip-rule:evenodd"
viewBox="0 0 17639 17639"
 xmlns:xlink="http://www.w3.org/1999/xlink">
 <defs>
  <style type="text/css">
   <![CDATA[
    .fil0 {fill:none}
    .fil1 {fill:#4E4E4F;fill-rule:nonzero}
   ]]>
  </style>
 </defs>
 <g id="Слой_x0020_1">
  <metadata id="CorelCorpID_0Corel-Layer"/>
  <rect class="fil0" width="17639" height="17639"/>
  <polygon class="fil1" points="2393,3483 3625,3483 3625,3790 2761,3790 2761,5301 2393,5301 "/>
  <path id="1" class="fil1" d="M3705 4403c0,-185 28,-341 84,-467 41,-93 97,-176 169,-250 71,-74 150,-128 235,-164 113,-48 244,-72 392,-72 269,0 483,83 644,249 161,167 241,399 241,696 0,294 -80,524 -239,690 -160,166 -374,249 -641,249 -270,0 -486,-82 -645,-248 -160,-165 -240,-393 -240,-683zm379 -12c0,206 47,362 143,469 95,106 216,159 362,159 147,0 268,-53 362,-158 94,-106 141,-264 141,-475 0,-209 -46,-365 -138,-467 -91,-103 -213,-154 -365,-154 -151,0 -273,52 -366,155 -93,105 -139,261 -139,471z"/>
  <path id="2" class="fil1" d="M6920 4631l356 109c-55,200 -146,349 -273,446 -127,97 -288,146 -483,146 -241,0 -440,-83 -596,-248 -155,-165 -233,-391 -233,-677 0,-303 78,-538 234,-706 157,-167 362,-251 617,-251 223,0 404,66 543,197 83,78 144,190 186,336l-363 86c-22,-94 -67,-168 -135,-223 -69,-54 -152,-81 -249,-81 -135,0 -245,48 -328,145 -85,96 -127,253 -127,470 0,229 42,393 124,490 83,98 191,147 323,147 98,0 182,-31 253,-93 70,-62 121,-160 151,-293z"/>
  <polygon id="3" class="fil1" points="7937,5301 7937,3790 7399,3790 7399,3483 8841,3483 8841,3790 8305,3790 8305,5301 "/>
  <path id="4" class="fil1" d="M10598 5301l-348 0 0 -1316c-127,119 -277,208 -449,265l0 -318c91,-29 189,-86 296,-169 106,-83 179,-180 219,-290l282 0 0 1828z"/>
  <path id="5" class="fil1" d="M11124 4834l348 -36c11,79 40,142 88,188 50,46 106,69 170,69 73,0 134,-30 185,-89 50,-60 76,-150 76,-270 0,-112 -25,-196 -76,-253 -50,-56 -115,-84 -195,-84 -101,0 -191,44 -270,132l-282 -41 177 -944 922 0 0 325 -657 0 -55 309c77,-38 157,-58 238,-58 155,0 286,56 394,169 108,113 162,260 162,440 0,150 -44,284 -131,402 -118,161 -282,241 -492,241 -168,0 -306,-45 -411,-135 -107,-91 -170,-212 -191,-365z"/>
  <path id="6" class="fil1" d="M12537 4834l348 -36c10,79 39,142 88,188 49,46 106,69 169,69 73,0 135,-30 185,-89 51,-60 76,-150 76,-270 0,-112 -25,-196 -75,-253 -50,-56 -115,-84 -196,-84 -100,0 -190,44 -270,132l-282 -41 178 -944 922 0 0 325 -657 0 -55 309c77,-38 157,-58 238,-58 155,0 286,56 394,169 108,113 161,260 161,440 0,150 -43,284 -130,402 -119,161 -283,241 -493,241 -168,0 -305,-45 -411,-135 -106,-91 -169,-212 -190,-365z"/>
  <path id="7" class="fil1" d="M14836 5301l-348 0 0 -1316c-127,119 -277,208 -449,265l0 -318c91,-29 189,-86 296,-169 106,-83 179,-180 219,-290l282 0 0 1828z"/>
  <polygon id="8" class="fil1" points="3487,10260 3920,9607 3528,9008 3823,9008 4069,9381 4316,9008 4612,9008 4219,9607 4650,10260 4347,10260 4069,9836 3791,10260 "/>
  <path id="9" class="fil1" d="M4772 9352l224 0 0 134c29,-46 68,-83 117,-111 50,-28 105,-42 165,-42 105,0 195,42 268,124 74,83 110,198 110,346 0,152 -37,269 -111,353 -74,85 -163,127 -269,127 -50,0 -95,-10 -136,-30 -41,-20 -84,-54 -129,-103l0 454 -239 0 0 -1252zm236 440c0,103 20,178 60,227 41,49 90,73 148,73 55,0 102,-22 139,-67 37,-45 55,-119 55,-221 0,-95 -19,-166 -57,-213 -38,-46 -85,-69 -142,-69 -58,0 -107,23 -145,68 -39,46 -58,113 -58,202z"/>
  <path id="10" class="fil1" d="M6025 9632l-217 -38c25,-89 67,-154 127,-197 59,-42 148,-64 266,-64 107,0 187,13 239,38 52,25 89,58 111,97 21,39 32,110 32,214l-4 280c0,80 4,139 12,176 7,38 22,79 43,122l-238 0c-6,-16 -14,-39 -23,-70 -4,-14 -7,-24 -9,-28 -41,40 -84,70 -131,90 -47,20 -96,31 -149,31 -93,0 -166,-26 -220,-76 -53,-51 -80,-115 -80,-192 0,-51 12,-97 36,-137 25,-40 59,-71 103,-92 44,-22 108,-40 191,-56 112,-21 190,-41 233,-59l0 -24c0,-47 -12,-80 -34,-100 -23,-20 -66,-30 -130,-30 -43,0 -76,8 -100,25 -24,17 -43,47 -58,90zm322 194c-31,11 -79,23 -146,37 -67,14 -110,28 -131,42 -31,22 -47,50 -47,84 0,34 13,63 38,87 25,25 57,37 95,37 44,0 85,-14 124,-42 29,-22 48,-49 57,-80 7,-20 10,-59 10,-117l0 -48z"/>
  <polygon id="11" class="fil1" points="6809,9352 7048,9352 7048,9685 7394,9685 7394,9352 7634,9352 7634,10260 7394,10260 7394,9879 7048,9879 7048,10260 6809,10260 "/>
  <polygon id="12" class="fil1" points="7868,9352 8099,9352 8099,9923 8468,9352 8704,9352 8704,10260 8473,10260 8473,9681 8099,10260 7868,10260 "/>
  <polygon id="13" class="fil1" points="8841,9352 9661,9352 9661,9547 9371,9547 9371,10260 9132,10260 9132,9547 8841,9547 "/>
  <path id="14" class="fil1" d="M9811 9352l240 0 0 378 241 0c94,0 166,7 217,21 51,13 93,43 126,88 34,45 50,97 50,157 0,88 -30,154 -90,198 -60,44 -149,66 -269,66l-515 0 0 -908zm240 754l224 0c70,0 115,-11 135,-34 19,-22 29,-49 29,-80 0,-44 -17,-74 -51,-91 -34,-16 -94,-24 -181,-24l-156 0 0 229z"/>
  <polygon id="15" class="fil1" points="11356,9352 12162,9352 12162,10260 11923,10260 11923,9547 11596,9547 11596,10260 11356,10260 "/>
  <path id="16" class="fil1" d="M12416 9352l223 0 0 134c29,-46 69,-83 118,-111 50,-28 105,-42 165,-42 105,0 195,42 268,124 74,83 110,198 110,346 0,152 -37,269 -111,353 -74,85 -164,127 -269,127 -50,0 -96,-10 -136,-30 -41,-20 -84,-54 -129,-103l0 454 -239 0 0 -1252zm236 440c0,103 20,178 60,227 40,49 90,73 147,73 56,0 102,-22 139,-67 37,-45 56,-119 56,-221 0,-95 -19,-166 -57,-213 -38,-46 -85,-69 -142,-69 -58,0 -107,23 -145,68 -39,46 -58,113 -58,202z"/>
  <polygon id="17" class="fil1" points="13484,9352 13714,9352 13714,9923 14083,9352 14319,9352 14319,10260 14089,10260 14089,9681 13714,10260 13484,10260 "/>
  <path id="18" class="fil1" d="M6589 11306l0 190 -165 0 0 368c0,74 2,118 5,130 3,12 10,23 22,31 11,8 24,12 40,12 22,0 55,-8 97,-23l20 186c-56,24 -119,36 -189,36 -43,0 -82,-7 -117,-22 -34,-14 -60,-33 -76,-56 -16,-24 -27,-55 -34,-95 -5,-28 -7,-84 -7,-169l0 -398 -110 0 0 -190 110 0 0 -180 239 -142 0 322 165 0z"/>
  <polygon id="19" class="fil1" points="8085,12234 8397,10940 8577,10940 8264,12234 "/>
  <path id="20" class="fil1" d="M11058 11752l244 75c-37,138 -100,240 -187,307 -88,67 -198,100 -333,100 -166,0 -303,-57 -410,-170 -107,-114 -161,-269 -161,-467 0,-208 54,-370 162,-485 107,-116 249,-173 424,-173 154,0 278,45 374,136 57,53 99,130 128,231l-250 59c-15,-64 -46,-116 -93,-153 -47,-38 -104,-57 -171,-57 -93,0 -169,34 -226,100 -58,67 -87,175 -87,324 0,158 28,271 85,338 57,67 131,100 223,100 67,0 125,-21 173,-64 49,-43 84,-110 105,-201z"/>
  <path id="21" class="fil1" d="M7596 10954c122,0 216,44 285,131 81,102 122,273 122,510 0,238 -41,409 -123,512 -68,86 -162,129 -284,129 -121,0 -220,-47 -294,-141 -75,-94 -112,-261 -112,-502 0,-236 41,-406 123,-510 68,-86 162,-129 283,-129zm0 200c-28,0 -54,9 -76,28 -22,18 -40,51 -52,99 -17,62 -25,167 -25,314 0,148 8,249 22,304 15,55 33,92 55,110 22,19 48,28 76,28 29,0 55,-10 77,-28 22,-19 40,-52 52,-100 16,-61 24,-166 24,-314 0,-147 -7,-248 -22,-303 -14,-55 -32,-92 -55,-110 -22,-19 -47,-28 -76,-28z"/>
  <polygon id="22" class="fil1" points="8672,11879 8672,11640 9145,11640 9145,11879 "/>
  <path id="23" class="fil1" d="M9437 11536c-62,-26 -107,-62 -135,-108 -28,-46 -42,-96 -42,-150 0,-94 33,-171 98,-232 65,-61 157,-92 277,-92 119,0 211,31 277,92 65,61 98,138 98,232 0,58 -15,109 -45,155 -30,45 -73,79 -128,103 70,28 123,69 159,123 36,54 54,115 54,186 0,116 -36,210 -110,282 -74,73 -172,109 -294,109 -114,0 -208,-30 -284,-90 -89,-71 -134,-168 -134,-291 0,-68 17,-130 51,-187 33,-57 86,-101 158,-132zm50 -241c0,48 14,85 40,112 28,27 63,40 108,40 45,0 82,-13 109,-40 27,-27 40,-65 40,-113 0,-45 -13,-81 -40,-108 -27,-27 -62,-41 -106,-41 -46,0 -83,14 -110,41 -27,27 -41,64 -41,109zm-22 537c0,66 16,118 50,156 34,37 76,56 126,56 50,0 91,-18 123,-54 32,-36 48,-88 48,-156 0,-59 -16,-106 -49,-142 -33,-36 -74,-54 -125,-54 -58,0 -102,20 -131,61 -28,41 -42,85 -42,133z"/>
  <polygon id="24" class="fil1" points="2673,13259 2913,13259 2913,13591 3259,13591 3259,13259 3498,13259 3498,14167 3259,14167 3259,13785 2913,13785 2913,14167 2673,14167 "/>
  <path id="25" class="fil1" d="M4264 13880l240 40c-31,88 -79,154 -146,200 -66,46 -149,69 -249,69 -157,0 -274,-51 -349,-155 -60,-82 -90,-187 -90,-313 0,-150 39,-268 117,-353 79,-86 178,-128 298,-128 135,0 241,44 319,134 78,89 116,225 112,410l-600 0c2,71 21,126 58,166 37,39 83,59 138,59 37,0 69,-10 94,-30 26,-21 45,-54 58,-99zm14 -243c-2,-70 -19,-123 -53,-159 -34,-37 -76,-55 -125,-55 -52,0 -95,20 -129,58 -34,38 -51,90 -50,156l357 0z"/>
  <path id="26" class="fil1" d="M5880 12885l162 0c-5,72 -24,126 -56,164 -33,37 -114,55 -243,55 -15,0 -30,0 -46,-1l-31 0c-76,0 -138,9 -186,26 -48,16 -87,49 -117,97 -31,49 -47,127 -48,235 35,-67 81,-116 137,-149 56,-33 123,-49 200,-49 120,0 220,46 303,139 83,93 124,200 124,322 0,127 -43,237 -130,328 -87,91 -201,137 -341,137 -96,0 -181,-23 -254,-69 -73,-46 -125,-109 -156,-190 -32,-80 -47,-212 -47,-398 0,-218 40,-374 120,-469 80,-96 220,-143 420,-143l121 0c34,0 56,-12 68,-35zm-483 835c0,83 21,149 62,197 41,49 91,73 151,73 64,0 117,-25 158,-75 41,-50 61,-115 61,-194 0,-81 -21,-146 -62,-195 -42,-50 -94,-75 -155,-75 -59,0 -110,25 -152,74 -42,48 -63,113 -63,195z"/>
  <path id="27" class="fil1" d="M6222 13702c0,-80 19,-157 59,-232 39,-75 95,-132 167,-171 72,-39 152,-59 241,-59 137,0 249,44 337,134 88,89 131,202 131,338 0,137 -44,251 -132,342 -89,90 -200,135 -335,135 -83,0 -162,-19 -237,-56 -75,-38 -133,-93 -172,-166 -40,-72 -59,-161 -59,-265zm246 13c0,90 22,159 64,206 43,49 96,72 158,72 63,0 115,-23 157,-72 43,-47 64,-117 64,-208 0,-89 -21,-158 -64,-205 -42,-48 -94,-72 -157,-72 -62,0 -115,24 -158,72 -42,47 -64,116 -64,207z"/>
  <path id="28" class="fil1" d="M7367 13259l803 0 0 908 -240 0 0 -714 -325 0 0 408c0,104 -12,177 -36,219 -24,42 -51,69 -80,82 -29,14 -76,20 -140,20 -38,0 -89,-5 -151,-15l0 -176c5,0 18,0 40,2 25,1 44,2 58,2 33,0 52,-11 60,-32 7,-21 11,-81 11,-179l0 -525z"/>
  <path id="29" class="fil1" d="M8915 13880l239 40c-30,88 -79,154 -145,200 -67,46 -150,69 -249,69 -158,0 -274,-51 -350,-155 -60,-82 -90,-187 -90,-313 0,-150 40,-268 118,-353 78,-86 178,-128 298,-128 134,0 241,44 319,134 78,89 115,225 112,410l-600 0c2,71 21,126 58,166 37,39 83,59 137,59 38,0 69,-10 95,-30 25,-21 45,-54 58,-99zm14 -243c-2,-70 -20,-123 -54,-159 -34,-37 -75,-55 -124,-55 -52,0 -96,20 -130,58 -34,38 -50,90 -50,156l358 0z"/>
  <path id="30" class="fil1" d="M9887 13880l240 40c-31,88 -80,154 -146,200 -66,46 -149,69 -249,69 -157,0 -274,-51 -350,-155 -59,-82 -89,-187 -89,-313 0,-150 39,-268 117,-353 79,-86 178,-128 298,-128 135,0 241,44 319,134 78,89 115,225 112,410l-600 0c2,71 21,126 58,166 37,39 83,59 138,59 37,0 69,-10 94,-30 26,-21 45,-54 58,-99zm14 -243c-2,-70 -19,-123 -53,-159 -35,-37 -76,-55 -125,-55 -52,0 -95,20 -129,58 -34,38 -51,90 -50,156l357 0z"/>
  <path id="31" class="fil1" d="M11580 13944l0 223 -841 0c9,-85 36,-165 82,-240 45,-76 135,-176 269,-301 108,-101 174,-169 199,-205 33,-50 49,-99 49,-147 0,-54 -14,-95 -43,-124 -28,-29 -68,-43 -118,-43 -50,0 -90,15 -120,45 -29,30 -46,81 -51,151l-239 -24c14,-132 59,-227 134,-285 75,-58 169,-86 281,-86 124,0 221,33 292,100 70,67 106,150 106,249 0,57 -11,110 -31,161 -20,51 -52,105 -96,161 -29,37 -81,90 -157,160 -76,70 -124,116 -144,139 -21,22 -37,45 -50,66l478 0z"/>
  <polygon id="32" class="fil1" points="11800,13259 12099,13259 12322,13891 12549,13259 12846,13259 12846,14167 12641,14167 12641,13569 12422,14167 12216,14167 12005,13569 12005,14167 11800,14167 "/>
  <path id="33" class="fil1" d="M13611 13880l240 40c-31,88 -80,154 -146,200 -66,46 -149,69 -249,69 -157,0 -274,-51 -350,-155 -59,-82 -89,-187 -89,-313 0,-150 39,-268 117,-353 79,-86 178,-128 298,-128 135,0 241,44 319,134 78,89 115,225 112,410l-600 0c2,71 21,126 58,166 37,39 83,59 138,59 37,0 69,-10 94,-30 26,-21 45,-54 58,-99zm14 -243c-2,-70 -19,-123 -54,-159 -34,-37 -75,-55 -124,-55 -52,0 -95,20 -129,58 -34,38 -51,90 -51,156l358 0z"/>
  <path id="34" class="fil1" d="M14826 13528l-236 42c-8,-47 -26,-82 -54,-106 -28,-23 -65,-35 -110,-35 -59,0 -107,20 -143,62 -35,41 -53,110 -53,207 0,108 18,184 54,229 36,44 85,66 145,66 46,0 83,-13 112,-39 29,-26 49,-70 61,-134l236 41c-24,108 -71,190 -140,245 -70,56 -163,83 -279,83 -133,0 -239,-42 -317,-125 -79,-84 -119,-200 -119,-349 0,-150 40,-266 119,-350 79,-83 186,-125 321,-125 110,0 198,24 263,71 65,48 112,120 140,217z"/>
  <polygon id="35" class="fil1" points="15007,14167 15007,13927 15246,13927 15246,14167 "/>
 </g>
</svg>
