<?xml version="1.0" encoding="UTF-8"?>
<!DOCTYPE svg PUBLIC "-//W3C//DTD SVG 1.1//EN" "http://www.w3.org/Graphics/SVG/1.1/DTD/svg11.dtd">
<!-- Creator: CorelDRAW X7 -->
<svg xmlns="http://www.w3.org/2000/svg" xml:space="preserve" width="100%" height="100%" version="1.1" style="shape-rendering:geometricPrecision; text-rendering:geometricPrecision; image-rendering:optimizeQuality; fill-rule:evenodd; clip-rule:evenodd"
viewBox="0 0 20108 20108"
 xmlns:xlink="http://www.w3.org/1999/xlink">
 <defs>
  <style type="text/css">
   <![CDATA[
    .str5 {stroke:#4A4B4F;stroke-width:7.62}
    .str6 {stroke:#FEFEFE;stroke-width:100;stroke-linecap:round}
    .str1 {stroke:#FEFEFE;stroke-width:16.31}
    .str0 {stroke:#4A4B4F;stroke-width:16.31}
    .str4 {stroke:#4A4B4F;stroke-width:8.14;stroke-linejoin:round}
    .str3 {stroke:#FEFEFE;stroke-width:16.31;stroke-linejoin:round}
    .str2 {stroke:#4A4B4F;stroke-width:16.31;stroke-linejoin:round}
    .fil1 {fill:none}
    .fil2 {fill:#FEFEFE}
    .fil3 {fill:#E31E24}
    .fil0 {fill:#4A4B4F}
    .fil4 {fill:#FEFEFE;fill-rule:nonzero}
   ]]>
  </style>
 </defs>
 <g id="Слой_x0020_1">
  <metadata id="CorelCorpID_0Corel-Layer"/>
  <path class="fil0 str0" d="M1038 13749c0,14 -7,28 -28,28 -28,0 -35,-35 -55,-35 -7,0 -56,97 -56,111 0,28 35,14 35,42 0,42 0,69 0,132 -56,14 -77,35 -77,83l0 0 0 14 0 0c-20,49 -41,62 -90,62 -69,0 -27,-76 -104,-76 -48,0 -132,42 -132,97 -27,-7 -69,-76 -76,-83 -21,-14 -35,-14 -49,0 -13,-35 -20,-62 -27,-90 -21,-111 0,-181 -35,-271 -28,-62 -62,-48 -49,-90 49,-42 -48,-153 -48,-229 0,-56 0,-139 -35,-167l0 0 63 -41 83 118 0 0c28,28 69,48 118,-49 35,-69 194,35 194,35 42,-63 0,-104 -48,-153 34,-7 6,-132 83,-41 21,20 69,41 125,55 7,0 21,7 27,7 0,21 -6,62 0,97 63,-7 181,35 181,90 0,42 -49,56 -49,118 0,63 77,77 77,125 0,35 -14,63 -14,97l0 0 -14 14 0 0z"/>
  <path class="fil0 str0" d="M1163 14610c14,-21 21,-21 28,-35 -28,-21 -56,-35 -77,-62 -76,41 -104,-84 -201,-98 7,-48 -21,-76 -21,-111 0,-41 56,-20 56,-62 0,-62 -91,-69 -91,-132 0,-48 21,-69 77,-83 0,-63 0,-90 0,-132 0,-28 -35,-14 -35,-42 0,-14 49,-111 56,-111 20,0 27,35 55,35 42,0 21,-42 63,-42 27,0 41,14 62,42 0,28 28,62 56,62 27,0 27,-13 55,-20 7,76 42,48 97,69 21,14 14,28 21,49 28,62 111,76 111,145 0,42 -21,49 -21,77 0,132 146,194 146,305 0,21 0,28 0,49 -49,34 -111,34 -194,34l0 0 34 63 0 0c-20,7 -41,7 -41,27 0,56 -21,42 0,91l0 0 -14 -14 0 0c-7,0 -21,0 -35,0 -14,0 -21,-28 -48,-28 -7,0 -28,0 -56,7 -14,-42 -35,-69 -76,-69l0 0 -7 -14 0 0z"/>
  <path class="fil0 str0" d="M8837 15651l-6 7 0 0c20,-35 76,-21 76,-77 0,-41 -83,-41 -83,-83 0,-35 215,-125 242,-139 28,-14 35,-28 63,-28 62,-13 187,-13 187,-76 0,-48 -34,-48 -34,-104 0,-35 41,-49 83,-56l0 0 -21 -55 0 0c0,-28 14,-21 14,-49 0,-34 -49,-41 -49,-76 0,-21 35,-35 35,-62 -97,0 -90,-132 -146,-174 -48,-42 -125,-69 -145,-139 -49,21 -35,77 -84,84 -41,7 -90,-21 -145,0 -7,0 -21,27 -35,27 -21,0 -35,0 -69,0 0,0 -49,139 -105,139 -27,0 -111,-76 -111,-104 0,-21 0,-21 0,-49 -48,-13 -55,-97 -111,-97 -118,0 -152,97 -242,125 -70,14 -146,-21 -195,35 -14,-7 -34,-35 -55,-35 -35,0 -28,35 -70,49l0 0 250 749 0 0c0,14 14,35 28,35 69,0 55,-118 118,-118 21,0 76,28 76,49 0,62 42,48 42,131 21,-7 69,0 104,0 90,0 146,-41 215,-41 76,0 132,76 153,132l0 0 20 0 0 0z"/>
  <path class="fil0 str0" d="M17761 14186c35,0 77,0 77,-41 0,-35 -28,-49 -28,-97 0,-35 48,-111 83,-111 111,0 298,-7 298,-139 0,-35 -48,-63 -48,-97 0,-28 76,-42 97,-84l0 0 0 -111 0 0c-42,-20 -35,0 -83,0 -14,0 -125,-55 -125,-55l0 0 118 -167 0 0c14,0 146,63 146,77 13,21 -7,97 27,97 21,0 35,-21 63,-28 7,76 34,181 90,305 0,424 42,923 0,1118 -28,104 -118,430 -319,430 -84,0 -49,-125 -139,-56 -56,42 -35,91 -42,257 -118,49 -118,49 -41,146 -91,-63 -153,-132 -28,-201 0,-42 -42,-146 -49,-160 -125,-229 -180,-222 -256,-305 -7,-7 41,-132 41,-229 63,-21 188,-21 250,-42 -14,-229 -83,-375 -132,-513l0 0 0 6 0 0z"/>
  <path class="fil0 str0" d="M9073 10516l-7 -21 0 0 7 21 -7 0 0 0c0,27 -20,76 -48,97 -21,7 -63,0 -63,34 0,0 35,209 49,236 35,42 62,28 62,98 0,69 0,97 0,187 0,83 70,111 125,146l0 0 7 131 0 0c-7,7 -27,35 -27,56 0,49 124,83 173,83 0,42 14,84 14,139 0,125 -125,97 -125,215 0,42 49,70 49,132 0,62 -77,76 -91,132 -7,35 0,69 -20,83 -21,14 -28,0 -49,7 0,118 62,215 173,215 21,153 -222,104 -222,215 0,56 49,63 49,118 0,49 0,90 0,111 0,14 7,56 42,56 62,0 97,-21 159,-21 118,0 90,90 181,97 7,28 34,83 55,104 42,28 104,14 104,77 0,62 -90,104 -90,201 0,118 187,55 187,166 0,91 -104,91 -104,167 0,21 0,139 0,180 0,63 97,97 97,208 0,77 -83,49 -83,111l0 0 0 0 0 0 0 0c0,28 83,118 118,118 42,0 63,-13 97,-13 42,0 56,27 84,48 131,76 90,278 187,375 0,28 28,41 28,69 0,35 -49,49 -56,70 -14,41 7,62 -21,90 -41,62 -145,76 -145,194 0,0 48,56 55,63l0 0 118 0 0 0c21,27 56,34 90,34 188,0 271,-180 326,-326 14,-28 49,-28 63,-41 21,-21 0,-98 28,-112 69,-41 215,-62 284,-62 7,-14 14,-35 0,-49 -48,0 -90,-104 -132,-131 -7,-7 -34,-14 -34,-35 0,-14 69,-76 83,-76 55,0 83,0 83,-63 0,-28 -21,-48 -21,-76 0,-35 28,-56 28,-104 0,-42 -28,-63 -28,-97 0,-21 35,-70 42,-111 55,-14 97,-84 97,-139 0,-70 -76,-97 -76,-160 0,-97 34,-201 97,-201 28,0 49,0 90,0 83,0 97,-118 153,-118 90,0 55,167 152,167 28,0 0,-63 0,-105 0,-20 21,-124 35,-131 14,-7 35,7 42,-14 7,-28 0,-42 21,-63 27,-34 97,-76 97,-125 0,-20 -21,-20 -28,-34 0,0 0,-7 0,-28 0,-14 0,-28 14,-35 14,-28 48,-41 76,-41 21,0 21,34 35,55 0,0 139,83 166,83 49,0 63,-27 63,-48 0,0 0,-28 0,-49 0,-28 28,-41 28,-62 0,-7 0,-14 0,-35 -14,-42 -91,-69 -91,-97 0,-63 77,-69 77,-125 0,-35 -21,-56 -28,-76l0 0 -125 0 0 0c-21,-21 -28,-91 -28,-146 0,-69 28,-69 35,-125 -14,0 -21,-7 -28,-28 42,-21 42,-48 84,-76 7,-14 27,-21 27,-49 0,-48 49,-69 49,-125 0,-20 -28,-27 -28,-62 0,-21 28,-42 28,-69 0,-70 -90,-70 -90,-146 0,-49 41,-63 41,-90 0,-35 -41,-42 -41,-104 0,-104 138,-63 166,-139l0 0 0 -28 0 0c0,0 -21,0 -14,0 -34,0 -62,14 -97,0 -41,-14 -55,-28 -83,-28 -42,0 -83,14 -125,0 0,-118 0,-83 0,-159 0,-63 62,-90 62,-125 0,-90 -117,-139 -131,-229 -14,-49 20,-83 7,-125 -7,-35 -70,-42 -111,-49 13,-69 104,-62 104,-132 0,-235 -91,-451 -202,-631 63,-28 118,-132 160,-146 49,-21 111,21 111,-48 0,-35 -35,-56 -35,-90l0 0 97 -250 0 0c28,-28 118,-42 118,-111 0,-56 -62,-63 -83,-91 -35,-55 -7,-124 -48,-173 -56,-69 -125,-83 -167,-167 -42,-69 -7,-111 -90,-138 14,-49 35,-70 35,-97 0,-21 13,-28 13,-84l0 0 -20 0 0 0c-14,-7 -28,-14 -49,-27 -208,62 56,124 -14,166 -69,153 -243,174 -305,257 -7,-167 416,-555 416,-888 0,-125 -208,-354 -326,-354 -42,0 -125,0 -166,27 -14,125 -77,105 -118,105 -42,0 208,-229 -174,-167 -42,-28 160,-42 49,-146 -91,-41 -146,-27 -153,7 -42,42 -76,153 -125,208 -48,63 97,146 -48,209 0,0 -202,-63 -14,111 -77,-35 -84,-21 -104,-21 -7,0 -84,111 -125,104 -42,-7 69,-118 -7,-118 -91,76 -146,62 -202,76 -138,0 14,63 -34,97 -35,28 -167,35 -236,91 -125,83 -194,173 -257,263 -69,84 187,424 -28,250 -194,42 -270,21 -388,21 -167,0 -195,69 -111,222 27,49 -84,166 55,222 49,-35 35,146 90,104 63,83 91,118 -7,222 0,0 77,174 56,222 -90,160 -90,104 -111,63 111,-243 14,-313 -56,-49 0,-42 42,-236 70,-277 146,-250 -56,-63 -97,-167 -49,-111 -90,-111 -181,-208 0,7 -14,14 -34,14 -14,20 -7,27 -7,48 0,77 125,42 132,125 13,125 -98,70 -98,139 0,62 98,97 98,208 0,181 -195,104 -195,278 0,69 125,187 195,187 41,0 34,-14 55,-7 28,42 90,56 90,139 0,42 0,62 -34,83l0 0 6 35 7 21 0 0 0 0z"/>
  <path class="fil0 str0" d="M16977 13833l0 0 7 0 0 0c-111,0 -104,-195 -208,-195 -21,0 -14,0 -42,0 -28,0 -34,-27 -41,-48 -77,21 -91,-49 -91,-125 0,-56 28,-83 42,-118 -21,-7 -49,-21 -49,-56 0,-41 91,-90 98,-159 0,-7 0,-21 0,-42 0,-62 69,-76 69,-125 0,-55 -83,-21 -83,-90 0,-14 14,-35 27,-42l0 0 111 0 0 0c28,-14 84,-20 84,-62 0,-56 -104,-250 -146,-250 -49,0 -62,56 -90,76 -28,28 -63,21 -83,56 -28,35 -21,104 -63,139 -21,14 -48,14 -69,41 -21,14 -21,49 -56,49 -83,0 -69,-83 -152,-83 -35,0 -42,34 -84,34 -34,0 -69,-20 -69,-55 0,-49 48,-70 48,-118 0,-28 -27,-35 -27,-70 0,-20 27,-27 34,-48 21,-70 49,-146 49,-222 0,-56 -14,-77 -76,-77 -91,0 -132,63 -181,118l0 0 -48 0 0 0c-21,-104 -21,-201 -21,-277 0,-97 -167,-63 -167,-125 0,-28 21,-42 35,-62l0 0 0 -105 0 0c-83,-13 -104,-6 -146,-62 21,-21 70,-42 70,-83 0,-70 -35,-125 -35,-202 0,-249 229,-145 229,-353 0,-77 76,-42 125,-63 76,-28 62,-104 62,-173 0,-35 49,-35 49,-63 0,-166 -222,-187 -222,-347 0,-21 7,-34 0,-48 21,-56 48,-91 48,-153 0,-83 -83,-215 -83,-271 0,-48 56,-62 97,-62 49,0 70,0 97,0 7,0 56,28 98,7 55,-28 48,-146 159,-146 56,0 28,21 70,0 34,-14 0,-97 13,-132 28,-20 84,-97 111,-97 98,0 257,104 257,215 0,28 -28,42 -28,77 0,55 21,83 70,83 55,0 41,-49 83,-49 35,0 42,14 70,14 34,0 41,0 62,0 42,0 35,77 83,90 -48,42 -69,77 -28,139 -124,-14 -222,125 -222,125 -55,153 -180,83 -180,271 0,263 76,485 0,659 -14,21 42,201 21,472 -14,229 -188,555 -21,534 305,-284 229,7 312,83 42,-34 -14,-125 14,-166 7,-111 63,264 187,69 77,-41 -20,-104 -20,-257 187,-208 291,-48 361,-48 367,-49 20,118 152,125 208,35 243,277 319,444 104,215 299,347 396,576 62,139 -21,208 21,437 -28,7 -42,21 -63,21 -34,0 -14,-76 -27,-97 0,-14 -132,-77 -146,-77l0 0 -118 167 0 0c0,0 111,55 125,55 48,0 41,-20 83,0l0 0 0 111 0 0c-21,42 -97,56 -97,84 0,34 48,62 48,97 0,132 -187,139 -298,139 -35,0 -83,76 -83,111 0,48 28,62 28,97 0,41 -42,41 -77,41l0 0 0 -6 0 0c-34,-105 -55,-209 -28,-341 -76,-6 -90,-69 -124,-104 -7,-13 -21,-27 -42,-27 -76,62 -111,208 -174,319 -97,180 -291,326 -353,201 -77,-139 -49,-166 -139,-180 28,-35 34,-56 34,-97 0,-21 0,-14 0,-35 0,-49 35,-35 42,-83l0 0 0 6 0 -6 0 0z"/>
  <line class="fil1 str0" x1="2037" y1="12306" x2="2037" y2= "12306" />
  <path class="fil0 str0" d="M5944 11522c-49,111 -104,236 -167,340 -34,69 -55,125 -111,166 -41,28 -145,21 -145,91 0,69 41,76 41,124 0,35 -41,49 -41,84 0,21 27,34 27,62 0,63 -76,97 -132,97 -83,0 -27,111 -90,111 -14,0 -34,-13 -62,-13 -63,0 -76,76 -104,111 -21,20 -49,0 -77,6 -48,14 -97,112 -97,167 0,56 139,146 202,146 13,0 27,-21 55,-21 69,0 132,69 167,104 41,35 90,7 145,28 28,7 42,62 84,62 55,0 55,-48 97,-48 76,0 187,111 236,111 34,0 48,-49 83,-49 28,0 48,21 76,21 42,-35 0,-132 0,-132 35,-55 42,-90 83,-118l0 0 160 0 0 0c42,-62 35,-118 42,-201 0,0 -21,-146 -42,-201 -21,-70 -125,-49 -146,-118 -7,-28 14,-56 14,-70 0,-21 0,-83 0,-125 0,-76 -21,-138 -21,-215 0,-41 21,-69 21,-111 0,-48 -41,-76 -62,-111 -42,-125 -153,-132 -194,-270 0,-7 -35,-28 -35,-42l0 0 -7 14 0 0z"/>
  <path class="fil0 str0" d="M3952 8371c0,35 0,49 0,70 0,41 63,48 125,48 0,-20 0,-41 0,-55 49,-319 42,90 125,215 56,271 201,493 430,493 229,0 327,-181 292,-410 -14,-125 -111,-201 -90,-499 -91,-97 -42,-111 -118,-215 -382,-42 69,-28 -84,-111 -20,-292 70,41 104,-21 -41,-77 -20,-174 -124,-167 -56,35 -160,-69 -216,-83 -235,-35 -319,55 -312,257 14,187 -152,111 -250,166 -27,28 -48,70 -62,111 0,0 180,111 180,201l0 0 0 0z"/>
  <path class="fil0 str0" d="M2641 9156c-83,0 -153,-7 -215,-28 -21,62 -49,125 -49,180 -21,90 111,111 56,222 -49,91 -49,-90 -77,-132 -62,-27 -97,-27 -118,-41 -76,-70 -90,14 -111,0l0 0 0 62 0 0c-69,0 -90,-7 -90,63 0,76 49,69 49,139 0,41 -21,62 -21,104 0,34 0,76 28,76 27,0 41,-42 62,-42 35,0 28,28 42,35 41,14 83,-7 125,7 20,7 34,35 69,35 21,0 35,-21 49,-21 97,0 34,132 111,132 27,0 14,-14 34,0 42,0 42,76 56,131 21,105 83,118 173,118 14,0 104,-48 111,-62 14,-49 -27,-76 7,-111 63,-62 202,-139 285,-174l0 0 0 0 0 0c-70,-55 -125,-166 -201,-215 -7,28 -7,77 -21,77 -63,0 -188,-35 -208,-97 -21,-56 -14,-105 -42,-160 -35,-76 -97,-180 -97,-298l0 0 -7 0 0 0z"/>
  <path class="fil0 str0" d="M2037 9433l-118 0 0 0c-35,70 -83,76 -118,125 -21,28 -21,63 -48,90 -21,14 -77,-7 -104,14 -35,28 6,70 0,111 -7,7 -84,35 -84,35 -48,41 -48,132 -76,180 -14,28 -49,28 -49,70 0,69 63,76 63,125 0,34 -49,41 -49,76 0,14 104,48 111,76 14,42 0,111 42,111 14,0 21,-21 35,-21 13,0 20,35 41,35 35,0 132,-76 132,-111 0,-21 0,-28 0,-48 0,-28 14,-63 21,-105 14,0 28,-6 42,0 0,-20 0,-48 0,-48 0,-63 152,-132 152,-201 0,-28 -28,-42 -28,-77 0,-62 21,-83 70,-83 -7,-14 -7,-42 -7,-62 0,-42 21,-63 21,-104 0,-70 -49,-63 -49,-139 0,-28 0,-42 7,-49l0 0 -7 0 0 0z"/>
  <path class="fil0 str0" d="M2759 10460c0,-35 28,-97 0,-139 0,-7 -70,-14 -70,-34 0,-35 28,-56 28,-111 -41,-21 -62,-56 -76,-98 -21,-55 -14,-131 -56,-131 -20,-14 -7,0 -34,0 -77,0 -14,-132 -111,-132 -14,0 -28,21 -49,21 -35,0 -49,-28 -69,-35 -42,-14 -84,7 -125,-7 -14,-7 -7,-35 -42,-35 -21,0 -28,42 -55,42 -7,0 -21,-7 -28,-14 -49,0 -70,21 -70,83 0,35 28,49 28,77 0,69 -152,138 -152,201 0,0 0,21 0,42 41,6 34,62 62,69 111,35 139,7 229,42 28,13 35,48 62,48 77,0 132,-69 181,-69 83,0 55,104 97,104 14,0 35,-21 49,-21 7,28 20,49 41,49 14,0 21,-21 35,-21 35,0 62,55 118,55l0 0 7 14 0 0z"/>
  <path class="fil0 str0" d="M13979 12577l0 0 0 0c104,97 104,291 285,312 0,0 -42,62 14,97 62,28 34,0 76,28 42,27 76,7 35,55 -42,56 21,104 83,42 56,-63 83,-56 104,-7 28,49 49,69 76,35 28,-28 49,-14 77,48 34,56 48,90 34,118 -13,21 14,28 49,56 35,27 56,48 14,62 -42,14 -42,35 0,70 35,34 35,55 69,76 35,21 56,69 56,69 -104,77 -201,201 -215,354 21,97 256,-132 180,181 -41,166 -41,194 -41,353 0,139 124,188 69,223 -111,76 -104,277 -292,242 -97,-13 -124,-48 -201,-48 -41,0 -90,69 -139,76 -90,21 -235,-76 -270,0 -56,153 -333,562 -770,576 -243,7 -278,-139 -278,-139 14,-76 111,-111 118,-187 -21,-7 -104,-7 -104,-56 0,-48 35,-76 55,-111 -13,-13 -41,-27 -41,-62 0,-42 76,-49 132,-49 62,0 55,-83 125,-83 41,0 90,7 117,-21 21,-21 0,-48 21,-76 70,-69 111,-90 139,-208 76,0 146,-77 187,-125 49,-42 91,-63 91,-139 0,-97 -125,-97 -125,-180 0,-49 62,-49 83,-84 42,-90 83,-242 167,-291 41,-28 97,-35 97,-118 0,-55 -42,-69 -84,-97 -48,-42 -76,-14 -138,-35 0,0 -49,-104 -56,-125 -21,-55 -48,-90 -83,-145 -7,-14 -35,-21 -35,-56 0,-28 -7,-69 28,-69 35,0 42,27 83,27 77,0 97,-97 146,-111 -7,-20 -21,-55 -21,-69 0,-28 14,-28 21,-49 -63,-13 -139,-20 -139,-76 0,-55 0,-146 0,-187 0,-28 42,-28 49,-28 21,0 55,0 83,0 49,0 62,-28 97,-56l0 0 -28 -13 0 0z"/>
  <path class="fil0 str0" d="M7706 13139c21,0 21,34 21,62 0,28 -48,35 -48,83 0,42 41,91 55,118l0 0 0 118 0 0c21,28 42,56 42,97 0,77 -63,111 -63,167 0,14 21,21 21,42 0,76 -83,27 -125,55 -48,35 -21,83 -48,125 -21,28 -42,62 -42,104 0,90 56,111 56,181 0,27 -21,20 -28,34 -49,125 -56,111 -167,153 -48,7 -69,48 -118,48 -27,0 -41,-34 -76,-34 -28,0 0,0 -28,0 -7,0 -34,0 -34,-28 0,-55 69,-28 69,-76 0,-21 -49,-14 -63,-14 -6,0 -55,-63 -55,-63 -14,21 -21,28 -42,28 -41,0 -21,-104 -76,-104 -28,0 -42,28 -69,28 -21,0 -42,-21 -77,-21l0 0 0 -42 0 0c42,-27 63,-55 63,-118 0,-14 -56,-180 -63,-180 28,-35 35,-97 35,-146 0,-55 42,-34 62,-48 21,-21 7,-91 21,-111 42,-63 201,-42 160,-118 -28,-56 -28,-125 -77,-125 -27,0 -20,28 -34,28 -28,0 -35,-35 -35,-49 0,-49 76,-49 35,-139 21,-48 83,-159 139,-159 20,0 27,27 27,48 0,28 -27,35 -27,49 0,27 194,104 236,104 27,0 48,-21 76,-21 62,0 97,49 152,35 63,-21 77,-28 98,-70l0 0 27 -41 0 0z"/>
  <path class="fil0 str0" d="M6520 13812c-35,14 -56,27 -97,14 -7,27 -21,41 -49,41 0,0 -243,0 -264,0 -27,0 -41,14 -48,21 -14,-14 -28,-55 -70,-55 -34,0 -55,41 -90,41 -7,0 -14,-7 -14,-14l0 0 -55 0 0 0c-83,28 -146,-41 -229,-41l0 0 -7 -49 0 0c14,-35 28,-48 28,-83 0,-14 0,-28 0,-35 -49,0 -91,7 -91,-48 -20,7 -34,7 -62,0 21,-111 167,-153 167,-278 0,-42 -7,-104 -14,-146 0,0 14,7 14,7 55,0 55,-48 97,-48 76,0 187,111 236,111 34,0 48,-49 83,-49 21,0 35,7 55,14 0,42 0,62 0,90 0,56 28,42 56,97 14,28 -14,63 14,77 48,34 83,7 139,27 48,21 62,84 90,125 21,28 62,28 76,49 14,35 0,97 35,118l0 0 0 14 0 0z"/>
  <path class="fil0 str0" d="M3487 9988c-34,56 -69,111 -69,202 0,117 118,76 118,173 0,49 56,21 83,35 35,14 14,90 56,90 34,0 41,0 55,0 49,0 77,76 146,83 0,42 7,56 21,76l0 0 118 0 0 0c41,28 55,49 83,77 7,28 7,48 35,48 48,0 41,-41 76,-41 14,0 42,14 42,21 14,27 -7,41 -7,69 7,49 76,49 97,90 -104,83 -187,278 -326,312 -83,21 -195,-41 -222,-104 -77,-76 -153,-97 -222,-187 -21,-28 -7,-56 -35,-83 -21,14 -21,55 -49,55 -34,0 -62,-34 -97,-34 -48,0 -55,41 -111,41 -125,0 -62,-264 -180,-264 -14,0 -21,28 -28,28 -55,0 -62,-76 -118,-76 -35,0 -62,14 -62,-28 -7,-35 14,-111 -35,-111 -28,0 -42,35 -76,35 -14,0 -21,-14 -21,-35 0,-35 28,-97 0,-139 0,-7 -70,-14 -70,-34 0,-35 28,-56 28,-111 28,20 63,20 97,20 14,0 104,-48 111,-62 14,-49 -27,-76 7,-111 63,-62 202,-139 285,-174 62,42 125,7 194,35 21,14 42,83 69,97l0 0 7 7 0 0z"/>
  <path class="fil0 str0" d="M7769 13569c7,14 7,28 7,48 0,77 -63,111 -63,167 0,14 21,21 21,42 0,76 -83,27 -125,55 -48,35 -21,83 -48,125 -21,28 -42,62 -42,104 0,90 56,111 56,181 0,27 -21,20 -28,34 -21,63 -49,97 -77,111 91,-7 132,-48 216,-48 20,0 41,0 48,0 0,48 -28,62 -69,62l0 0 0 49 0 0c55,76 125,125 166,215l0 0 0 0 0 0c42,-14 35,-49 70,-49 21,0 41,28 55,35 49,-56 125,-21 195,-35 90,-28 124,-125 242,-125 56,0 63,84 111,97 0,28 0,28 0,49 0,28 84,104 111,104 56,0 105,-139 105,-139 34,0 48,0 69,0 14,0 28,-27 35,-27 55,-21 104,7 145,0 49,-7 35,-63 84,-84 -7,-20 -14,-41 -14,-62 0,-21 21,-21 21,-49 0,-48 -42,-118 -42,-152 0,-7 0,-7 0,-35 0,-42 -7,-62 -21,-90l0 0 0 -77 0 14 0 0c-76,0 -139,28 -146,97l0 0 -41 0 0 0c0,-27 14,-48 14,-76 0,-35 -35,-42 -35,-69 0,-28 21,-42 21,-63 0,-21 -7,-41 -35,-41 -49,0 -76,34 -125,34 -83,0 -125,-69 -180,-76 -35,0 -104,7 -125,-7 -42,-42 -21,-111 -77,-146 -62,-34 -138,-83 -229,-97 -27,-7 -194,-28 -201,-55l0 0 -69 -21 0 0 0 0z"/>
  <path class="fil0 str0" d="M9594 15213c62,-34 125,-69 125,-145 0,-56 -49,-118 -49,-188 0,-90 97,-118 97,-194 0,-55 -34,-69 -104,-62 -21,0 -48,13 -48,-21 0,-49 41,-97 41,-153 0,-41 -41,-62 -41,-111 0,-28 34,-28 55,-42 0,-62 83,-34 83,-111 0,-111 -97,-145 -97,-208 0,-14 -7,-48 -7,-76 -83,0 -69,69 -131,69 -28,0 -35,-20 -49,-27l0 0 -49 0 0 27 -34 0 0 0c-14,-7 -28,-34 -49,-34 -42,0 -55,20 -90,20 -49,0 -70,91 -139,91 -42,0 -69,20 -111,27l0 0 0 77 0 0c14,28 21,48 21,90 0,28 0,28 0,35 0,34 42,104 42,152 0,28 -21,28 -21,49 0,111 97,159 159,201 56,42 49,174 146,174 0,27 -35,41 -35,62 0,35 49,42 49,76 0,28 -14,21 -14,49 0,139 271,35 243,167l0 0 7 6 0 0z"/>
  <path class="fil0 str0" d="M12113 11508c21,14 14,0 14,35 0,41 -28,48 -35,83 97,14 146,42 173,118 35,55 14,104 49,166 21,35 104,21 104,84 0,55 0,62 0,76 0,97 69,153 174,201 -7,56 -35,90 -35,153 0,139 0,194 0,326 0,49 0,111 83,111 146,0 187,-201 305,-201 35,0 49,76 111,76 14,-97 105,-146 132,-250 49,-187 -14,-298 208,-298 153,0 112,187 243,187 49,0 56,-20 63,-62l0 0 69 0 0 0c49,35 42,76 63,139 20,48 111,90 145,125l0 0 0 0 28 13 0 0c-35,28 -48,56 -97,56 -28,0 -62,0 -83,0 -7,0 -49,0 -49,28 0,41 0,132 0,187 0,56 76,63 139,76 -7,21 -21,21 -21,49 0,14 14,49 21,69 -49,14 -69,111 -146,111 -41,0 -48,-27 -83,-27l0 0 21 -49 0 -35 0 0c-146,-14 -125,202 -236,243 -14,7 -7,70 -56,70 -21,0 -48,-21 -55,-21 -28,0 -42,21 -70,21 -48,0 -48,-42 -69,-56 -21,28 -62,42 -104,42 -21,0 -63,-42 -69,-42 -28,14 -21,97 -28,104 -63,21 -139,-7 -167,14 -41,28 -7,63 -34,90 -42,42 -139,28 -139,111 0,56 90,91 118,111 -42,35 -63,70 -63,132 0,49 28,111 63,125 27,69 7,139 76,167 -28,125 -55,367 -55,374 0,7 -84,153 -153,209 -83,62 -139,131 -146,215 -21,145 -166,111 -166,187 0,28 13,42 13,69 -34,28 -90,28 -97,84 -41,-7 -7,-28 -27,-56 -28,-55 -42,-35 -91,-35 -41,0 -41,-41 -55,-69 -35,-62 -104,-55 -139,-118 -28,14 -42,0 -55,0 -77,0 -91,-55 -167,-83 -55,-21 -111,-14 -146,-56 -27,-27 -7,-111 -62,-111 -63,0 -76,77 -111,125 -28,0 -63,-7 -76,-35 -28,7 -35,21 -70,21 -83,0 -132,-48 -194,-83 -35,-21 -28,-62 -90,-62 -21,0 -35,20 -56,20 -48,0 -97,-111 -139,-138 -7,-7 -34,-14 -34,-35 0,-14 69,-76 83,-76 55,0 83,0 83,-63 0,-28 -21,-48 -21,-76 0,-35 28,-56 28,-104 0,-42 -28,-63 -28,-97 0,-21 35,-70 42,-111 55,-14 97,-84 97,-139 0,-70 -76,-97 -76,-160 0,-97 34,-201 97,-201 28,0 49,0 90,0 83,0 97,-118 153,-118 90,0 55,167 152,167 28,0 0,-63 0,-105 0,-20 21,-124 35,-131 14,-7 35,7 42,-14 7,-28 0,-42 21,-63 27,-34 97,-76 97,-125 0,-20 -21,-20 -28,-34 0,0 0,-7 0,-28 0,-49 49,-76 90,-76 21,0 21,34 35,55 0,0 139,83 166,83 49,0 63,-27 63,-48 0,0 0,-28 0,-49 0,-28 28,-41 28,-62 0,-7 0,-14 0,-35 -14,-42 -91,-69 -91,-97 0,-63 77,-69 77,-125 0,-35 -21,-56 -28,-76l0 0 -125 0 0 0c-21,-21 -28,-91 -28,-146 0,-69 28,-69 35,-125 -14,0 -21,-7 -28,-28 42,-21 42,-48 84,-76 7,-14 27,-21 27,-49 0,-48 49,-69 49,-125 0,-20 -28,-27 -28,-62 0,-21 28,-42 28,-69 0,-70 -90,-70 -90,-146 0,-49 41,-63 41,-90 0,-35 -41,-42 -41,-104 0,-104 166,-70 173,-167l0 0 49 14 0 0z"/>
  <path class="fil0 str0" d="M4861 14173c0,-56 160,-7 160,-7 28,-63 14,-181 90,-181 70,0 97,63 167,63 21,0 27,-14 27,-35 0,-28 -90,-69 -104,-97l0 0 0 -35 0 0c35,0 49,0 63,-14 -14,-21 -63,-28 -63,-55 0,-35 35,-77 77,-77 21,0 138,63 159,84 91,0 118,0 167,0l0 0 -7 -49 0 0c14,-35 28,-48 28,-83 0,-14 0,-28 0,-35 -49,0 -91,7 -91,-48 -20,7 -34,7 -62,0 21,-111 167,-153 167,-278 0,-42 -7,-104 -21,-146 -28,-14 -35,-48 -63,-55 -55,-21 -104,7 -145,-28 -35,-35 -98,-104 -167,-104 -7,0 -7,0 -14,7 0,62 -35,76 -35,139 0,41 7,55 21,76 -27,35 -118,21 -152,21 -7,34 -14,55 -42,55 -35,0 -42,-41 -49,-55 -27,0 -34,14 -62,0 14,-35 42,-35 42,-70 0,-34 -42,-34 -70,-34 -62,0 -90,27 -90,90 0,111 28,166 111,166 42,0 56,28 104,28 56,0 104,-14 125,-28l0 0 35 0 0 0c0,21 -77,195 -97,195 -21,0 -42,-21 -63,-21 -28,0 -118,69 -125,83 -55,70 -7,90 -62,167 -35,48 -84,69 -84,132 0,27 21,41 42,41 14,0 28,0 49,0 20,0 104,28 104,77 0,6 -49,48 -63,62l0 0 0 28 -7 21 0 0z"/>
  <path class="fil0 str0" d="M3411 13486c69,13 49,111 139,111 35,0 55,-14 83,0 28,20 7,76 14,104 14,41 125,21 125,90 0,55 35,201 90,229 56,7 56,35 63,69 7,56 55,97 111,97 55,0 97,-41 159,-41 97,0 77,90 139,118l0 0 118 0 0 0c76,62 49,250 180,250 28,0 42,-28 77,-28 62,0 62,104 132,104 118,0 166,-42 194,-125 0,-76 -63,-55 -83,-90 -7,-14 7,-35 -7,-49 -7,-21 -63,-21 -63,-41 0,-14 21,-28 21,-42 0,-42 -42,-35 -42,-69l0 0 7 -49 0 0c14,-14 63,-56 63,-62 0,-49 -84,-77 -104,-77 -21,0 -35,0 -49,0 -21,0 -35,7 -35,-14 -41,28 -97,118 -145,118 -63,0 -63,-69 -118,-69 -28,0 -35,21 -63,21 -21,0 -97,-49 -97,-56 0,-48 35,-34 35,-83 0,-42 -42,-49 -42,-76 0,-35 77,-28 77,-70 0,-28 -42,-69 -56,-69 -21,0 -28,28 -56,28 -20,0 -20,-28 -20,-56 0,-7 0,-42 0,-62 0,-174 -111,-209 -111,-396 0,-21 -14,-48 -14,-69 -14,-21 -49,-35 -49,-70 0,-27 28,-34 35,-62 -35,-7 -49,-42 -83,-42 -56,0 -28,77 -49,104 -28,42 -69,35 -90,70 -42,41 -56,132 -139,132 -69,0 -118,97 -153,124 -55,42 -166,14 -180,84l0 0 -14 14 0 0z"/>
  <path class="fil0 str0" d="M3279 12216c0,-42 97,-56 111,-90 35,-70 -14,-132 97,-132 0,-7 -27,-84 -27,-91 0,-76 69,-117 138,-117 35,0 56,27 84,41l0 0 0 -7 0 0c0,-34 62,-104 111,-104 27,0 34,28 62,28 28,0 42,-35 83,-35l0 0 0 -35 0 0c-20,-20 -118,-138 -118,-152 -27,0 -90,-14 -111,-28 -27,-14 -6,-90 -62,-90 -42,0 -62,69 -125,69 -35,0 -90,-7 -118,-14l0 0 -76 0 0 0c0,63 -28,91 -83,91 -28,0 -35,-49 -63,-49 -28,0 -42,56 -83,56 -21,180 -340,76 -340,229 0,48 21,55 55,62l0 0 0 28 0 0c-7,14 -20,21 -20,34 0,49 83,63 111,63 62,0 62,125 62,166 0,49 35,98 76,98 49,0 118,-77 181,-77 0,14 55,63 55,63l0 0 0 -7 0 0z"/>
  <path class="fil0 str0" d="M4174 11105c-48,56 -97,105 -159,118 -83,21 -195,-41 -222,-104 -77,-76 -153,-97 -222,-187 -21,-28 -7,-56 -35,-83 -21,14 -21,55 -49,55 -34,0 -62,-34 -97,-34 -48,0 -55,41 -111,41 -21,70 -90,111 -173,111 -7,97 -118,49 -118,118 0,28 97,70 132,70 48,0 55,-35 76,-56 14,28 14,69 28,90 27,35 83,35 104,77 -14,7 -21,13 -35,0l0 0 0 41 0 0c49,56 125,7 139,97 28,7 62,14 90,14 63,0 83,-69 125,-69 56,0 35,76 62,90 21,14 84,28 111,28 0,-7 21,-21 35,-28 21,-14 21,-49 49,-55 41,-7 215,41 215,-42 0,-125 48,-180 62,-305l0 0 -7 13 0 0z"/>
  <path class="fil0 str0" d="M2988 11140c0,-69 111,-21 118,-118 83,0 152,-41 173,-111 -125,0 -62,-264 -180,-264 -14,0 -21,28 -28,28 -55,0 -62,-76 -118,-76 -21,0 -42,14 -48,0 -14,14 -28,21 -35,21 -21,0 -42,0 -56,0 0,97 -69,76 -69,145 0,35 21,49 49,49 0,14 0,35 0,35 0,97 -160,97 -160,222 0,41 35,111 76,111 56,0 70,-63 118,-63 56,0 97,21 153,21l0 0 7 0 0 0z"/>
  <path class="fil0 str0" d="M1683 10460c35,0 132,-76 132,-111 0,-21 0,-28 0,-48 0,-28 14,-63 21,-105 14,0 28,-6 42,0 41,14 34,56 62,63 111,35 139,7 229,42 28,13 35,48 62,48 77,0 132,-69 181,-69 83,0 55,104 97,104 14,0 35,-21 49,-21 7,28 20,49 41,49 14,0 21,-21 35,-21 35,0 62,55 118,55l0 0 7 14 0 0c0,21 7,35 21,35 34,0 48,-35 76,-35 49,0 28,76 35,111 0,14 7,28 14,28 -14,14 -28,21 -35,21 -21,0 -42,0 -56,0 0,97 -69,76 -69,145 0,35 21,49 49,49 0,14 0,35 0,35 0,83 -125,90 -153,180 -21,-48 -35,-97 -111,-97 -28,0 -49,28 -70,28 -27,0 -27,-28 -48,-42 -76,-42 -104,14 -132,-104 -28,7 -35,42 -56,42 -20,0 -41,0 -62,0 -104,0 -62,-146 -180,-146 -7,0 -28,0 -56,0 -118,0 -243,-250 -243,-250l0 0 0 0z"/>
  <path class="fil0 str0" d="M1683 10460c-21,0 -28,-35 -41,-35 -14,0 -21,21 -35,21 -14,35 -35,35 -69,49 -49,28 -21,104 -132,104 -14,76 -35,118 -49,180 -7,42 21,56 7,91 -14,20 -49,13 -62,13 0,49 55,56 55,111 0,21 -14,35 -14,56 0,42 35,35 70,35 118,0 222,-84 291,-104 21,34 28,69 56,90 13,-7 20,-14 27,-21 28,14 35,42 56,42 35,0 21,-28 48,-35 153,-28 146,-111 243,-208 -69,-28 -48,-139 -152,-139 -7,0 -28,0 -56,0 -118,0 -180,-201 -257,-264l0 0 14 14 0 0z"/>
  <path class="fil0 str0" d="M2759 11786c0,-153 319,-49 340,-229 -21,-7 -49,-35 -90,-35 0,-83 -63,-70 -91,-118 -20,-35 7,-70 -41,-83 -28,-14 -90,7 -90,-49 0,-28 20,-28 20,-62 0,-28 -20,-42 -27,-63 -21,21 -35,35 -70,35 -41,0 -76,-63 -76,-111 0,-7 0,-35 7,-42l0 0 -7 21 0 0c-28,62 -97,83 -97,167 0,104 111,152 111,242 0,28 -7,49 -14,63 0,48 0,55 0,76 0,35 35,56 55,63 14,48 49,83 77,97l0 0 -7 28 0 0z"/>
  <path class="fil0 str0" d="M2641 11029c-21,-48 -35,-97 -111,-97 -28,0 -49,28 -70,28 -27,0 -27,-28 -48,-42 -76,-42 -104,14 -132,-104 -28,7 -35,42 -56,42 -20,0 -41,0 -62,0 -14,0 -28,-7 -35,-14 -69,76 -76,146 -145,187 76,14 83,42 111,90 20,42 104,28 104,132 0,28 -28,49 -28,83 0,98 90,84 90,181 0,28 -41,35 -41,69 0,21 13,28 27,28 21,0 28,-35 49,-35 42,0 48,0 62,0 28,0 56,-20 97,-20 35,0 49,20 91,20 76,0 104,-41 104,-118 0,-90 -111,-138 -111,-242 0,-84 69,-105 97,-167l0 0 7 -21 0 0z"/>
  <path class="fil0 str0" d="M3432 11466c-7,-7 -21,-7 -28,-7l0 0 -76 0 0 0c0,63 -28,91 -83,91 -28,0 -35,-49 -63,-49 -28,0 -42,56 -83,56 -21,-7 -49,-35 -90,-35 0,-83 -63,-70 -91,-118 -20,-35 7,-70 -41,-83 -28,-14 -90,7 -90,-49 0,-28 20,-28 20,-62 0,-28 -20,-42 -27,-63 14,-14 27,-28 48,-28 56,0 104,21 160,21 0,28 97,70 132,70 48,0 55,-35 76,-56 14,28 14,69 28,90 27,35 83,35 104,77 -14,7 -21,13 -35,0l0 0 0 41 0 0c49,56 104,7 139,90l0 0 0 14 0 0z"/>
  <path class="fil0 str0" d="M3002 12861c0,49 222,97 277,97 14,-7 0,-7 0,-28l0 0 0 0 0 0 0 0c0,56 -48,42 -48,84 0,69 83,111 111,145 48,70 62,202 118,271 -21,7 -28,21 -35,42 -7,0 -28,7 -35,7 -76,0 -111,34 -180,34 -28,0 -49,-20 -70,-20 -48,0 -76,34 -131,34 -125,0 -70,160 -174,160 -28,0 -62,-21 -76,-28 0,-118 -21,-153 0,-194 -21,0 -14,-7 -21,-7 -7,-21 -90,-160 -90,-160 0,0 -21,0 -42,0 -55,0 -28,-104 -55,-104 -7,0 -21,0 -49,0 -21,0 -49,-14 -49,-41 0,-42 56,-49 56,-91 0,-111 -125,-111 -167,-180 -27,-56 -131,-14 -131,-111 0,-42 20,-70 20,-97 0,0 0,-28 0,-56l0 0 132 -90 0 0c28,-7 42,-21 70,-21 48,0 104,77 125,111 34,42 138,7 145,77 21,131 243,41 299,152l0 0 0 14 0 0z"/>
  <path class="fil0 str0" d="M3002 12861c0,-62 125,-90 125,-166 0,-35 -35,-28 -35,-63 0,-42 35,-48 35,-104 0,-42 -7,-69 -35,-76l0 0 0 -42 0 0c-63,-7 -90,-83 -153,-83 -34,0 -41,48 -69,48 -90,0 -14,-208 -118,-208 -21,0 -35,21 -63,21 -34,0 -97,-56 -104,-97 -34,14 -55,41 -55,76 0,83 0,125 0,222 0,70 -77,83 -97,118l0 0 0 0 0 0c48,0 104,77 125,111 34,42 138,7 145,77 21,131 243,41 299,152l0 0 0 14 0 0z"/>
  <path class="fil0 str0" d="M2724 13465c-35,0 -35,34 -62,41 -63,21 -181,28 -195,105 -14,104 -90,111 -145,138 -21,-27 -7,-104 -77,-104 -27,0 -34,14 -69,14 -49,0 -63,-14 -111,-14 -49,0 -63,42 -97,42 -35,0 -42,-70 -56,-90 -14,7 -21,83 -48,83 -35,0 -49,-28 -97,-28 -35,0 -49,21 -84,21 -34,0 -97,-69 -97,-111 0,-42 21,-63 21,-104 0,-49 -56,-56 -56,-90 0,-35 63,-77 98,-77 34,0 55,21 90,21 55,0 41,-48 41,-97 0,-14 0,-56 0,-83 0,-77 84,-70 84,-160 0,-48 -42,-76 -42,-118 0,-62 97,-125 111,-201 69,0 97,0 146,0 34,0 76,76 125,83 0,14 7,21 7,35 0,97 104,55 131,111 42,69 167,69 167,180 0,42 -56,49 -56,91 0,27 28,41 49,41 28,0 42,0 49,0 27,0 0,104 55,104 21,0 42,0 42,0 0,0 83,139 90,160 7,0 0,7 21,7 0,0 0,0 0,0l0 0 -35 0 0 0z"/>
  <path class="fil0 str0" d="M2224 11584l0 0 0 0c0,28 7,28 21,28 21,0 28,-35 49,-35 42,0 48,0 62,0 28,0 56,-20 97,-20 35,0 49,20 91,20 48,0 76,-20 90,-48 0,41 0,48 0,69 0,35 35,56 55,63 14,48 49,83 77,97l0 0 -7 28 0 0c0,48 21,55 55,62l0 0 0 28 0 0c-7,14 -20,21 -20,34 13,98 -146,146 -216,181 -34,-21 -41,-63 -90,-63 -48,0 -21,42 -76,42 -49,0 -56,-83 -90,-83 -21,0 -28,21 -49,21 -62,0 -14,-125 -62,-125 -7,0 -21,0 -49,0 -28,0 -42,-14 -42,-42 0,-111 104,-257 104,-257l0 0 0 0z"/>
  <path class="fil0 str0" d="M2162 11334c-7,7 -42,35 -62,35 -21,0 -21,-21 -42,-21 -28,0 -21,49 -56,49 -41,0 -48,-56 -97,-56 -76,0 -76,91 -159,91 -97,0 -160,-35 -160,-132 0,-35 35,-56 35,-90 0,-35 -56,-42 -56,-77 0,-21 35,-41 0,-83 56,-28 97,-56 139,-69 21,34 28,69 56,90 13,-7 20,-14 27,-21 28,14 35,42 56,42 35,0 21,-28 48,-35 42,-7 63,-14 91,-28 76,14 83,42 111,90 20,42 104,28 104,132 0,28 -28,49 -28,83l0 0 -7 0 0 0z"/>
  <path class="fil0 str0" d="M2585 12091c-34,14 -55,41 -55,76 0,83 0,125 0,222 0,70 -77,83 -97,118 -28,0 -42,14 -70,21l0 0 -132 90 0 0c14,-83 -55,-21 -76,-69 -28,-104 -69,-153 -118,-243 63,0 63,-35 63,-90 0,-56 0,-70 0,-97 0,-49 90,-111 138,-139 7,14 14,28 35,28 21,0 28,-21 49,-21 34,0 41,83 90,83 55,0 28,-42 76,-42 49,0 56,42 90,63l0 0 7 0 0 0z"/>
  <path class="fil0 str0" d="M2231 12674c0,0 0,-28 0,-56 14,-83 -55,-21 -76,-69 -28,-104 -69,-153 -118,-243 -48,0 -118,-49 -132,-90 -14,-42 21,-63 -27,-84 -35,-13 -49,-62 -84,-69 -41,-7 -48,7 -83,-7 -7,49 -90,139 -90,153 0,14 7,21 7,34 -14,14 -28,14 -28,35 0,0 42,42 49,42 -7,28 -49,41 -49,55 0,14 14,21 14,42 0,104 -146,125 -146,243 0,21 35,132 49,153 0,-14 0,-21 21,-21 69,0 76,69 152,69 42,0 63,-21 97,-21 14,0 35,14 35,14 0,-62 97,-125 111,-201 69,0 97,0 146,0 34,0 76,83 132,97 0,0 20,-49 20,-76l0 0 0 0z"/>
  <path class="fil0 str0" d="M1780 11432c21,48 7,104 28,152 21,42 83,56 83,118 0,28 0,0 0,28 0,14 0,28 7,42 -48,34 -76,69 -90,138 -7,77 -118,14 -118,84l0 0 -14 -7 0 0c-83,-70 -48,-160 -90,-250 -14,-28 -83,-28 -83,-42 -14,-69 -28,-132 -111,-132 55,-27 104,-41 111,-118 21,0 35,14 62,14 28,0 28,-48 56,-62 28,28 69,35 125,35 14,0 21,0 34,-7l0 0 0 7 0 0z"/>
  <path class="fil0 str0" d="M1336 11071c-21,7 -14,34 -34,34 -91,0 -111,-124 -181,-124 -35,0 -21,55 -21,69 0,69 -138,76 -138,173 0,49 20,63 55,63 28,0 42,-14 49,-28 27,35 48,83 69,111 42,35 132,14 132,90 0,35 -28,70 -35,91l0 0 7 62 0 0c7,-14 21,-28 42,-42 0,7 7,14 28,14 27,0 55,-14 90,-14 41,-34 97,-48 104,-125 21,0 35,14 62,14 28,0 28,-48 56,-62 -21,-21 -35,-56 -35,-97 0,-35 35,-56 35,-90 0,-35 -56,-42 -56,-77 0,-21 42,-48 7,-90 -48,21 -97,42 -159,42 -35,0 -70,7 -70,-35l0 0 0 0 -7 21 0 0z"/>
  <path class="fil0 str0" d="M1905 11779c7,27 35,69 63,76l0 0 48 0 0 0c0,-76 63,-69 118,-69 -7,20 -14,34 -14,55 0,28 14,42 42,42 28,0 42,0 49,0 34,0 20,55 27,97 -48,28 -138,90 -138,139 0,27 0,41 0,97 0,55 0,90 -63,90 -48,0 -118,-49 -132,-90 -14,-42 21,-63 -27,-84 -35,-13 -49,-62 -84,-69 -41,-7 -69,7 -90,-21 -14,-21 -14,-21 -14,-48 0,-70 111,-7 118,-84 14,-69 42,-104 83,-138l0 0 14 7 0 0z"/>
  <path class="fil0 str0" d="M3446 13437c41,-28 118,-21 159,-49 35,-27 84,-124 153,-124 83,0 97,-91 139,-132 21,-35 62,-28 90,-70 21,-27 -7,-104 49,-104 -35,-48 -70,-125 -104,-194 -28,7 -35,21 -35,49 -14,0 -28,0 -49,0 -34,0 -76,-28 -104,-77 -7,63 -48,118 -111,118 -48,0 -166,-104 -243,-104 -21,0 -34,28 -34,49 -28,0 -49,-7 -63,-14 -14,14 -28,34 -28,69 0,35 14,49 14,76 0,56 -48,42 -48,84 0,69 83,111 111,145 48,70 62,195 111,264l0 0 -7 14 0 0z"/>
  <path class="fil0 str0" d="M3279 12958c-55,0 -277,-48 -277,-97 0,-62 125,-90 125,-166 0,-35 -35,-28 -35,-63 0,-42 35,-48 35,-104 0,-42 -7,-69 -35,-76l0 0 0 -42 0 0c14,0 14,0 35,0 41,0 55,35 104,35 48,0 48,-70 48,-118 0,14 42,62 77,97 20,21 34,35 41,35 49,20 83,0 118,13 28,21 14,84 70,91 27,0 69,-7 83,-7 41,0 21,34 28,69 0,28 20,76 48,111 -7,63 -48,118 -111,118 -48,0 -166,-104 -243,-104 -21,0 -34,28 -34,49 -28,0 -49,-7 -63,-14 -14,14 -28,34 -28,69 0,35 14,49 14,76 0,21 14,21 0,28l0 0 0 0z"/>
  <path class="fil0 str0" d="M1780 11432c21,48 7,104 28,152 21,42 83,56 83,118 0,28 0,0 0,28 0,42 35,104 77,125l0 0 48 0 0 0c0,-76 63,-69 118,-69 21,-91 49,-132 49,-132l0 0 41 -70 0 0c0,28 0,28 0,0 0,-27 35,-41 35,-69 0,-97 -90,-83 -90,-181l0 0 -7 0 0 0c-7,7 -42,35 -62,35 -21,0 -21,-21 -42,-21 -28,0 -21,49 -56,49 -41,0 -48,-56 -97,-56 -62,0 -76,63 -125,84l0 0 0 7 0 0z"/>
  <path class="fil0 str0" d="M2315 13902c-14,-14 -49,-28 -49,-69 0,-42 28,-63 56,-84 -21,-27 -7,-104 -77,-104 -27,0 -34,14 -69,14 -49,0 -63,-14 -111,-14 -28,0 -35,7 -49,21 14,97 56,125 56,250 0,69 7,97 69,104l0 0 0 42 0 0c-21,27 -41,41 -41,62 0,49 20,76 20,125 0,21 -76,55 -90,55 -21,0 -21,-20 -41,-20 -21,0 -28,20 -28,41 0,28 28,49 28,77 0,62 -98,48 -98,111 0,34 63,41 70,55l0 0 28 7 0 0c48,0 90,28 138,28 77,-14 153,-14 222,-7 -20,-21 -13,-21 -34,-42l0 0 0 -132 0 0c48,14 48,42 90,56 21,-63 14,-90 14,-167 0,-76 14,-152 -42,-201 -35,-28 -111,-7 -111,-76 0,-56 49,-63 70,-111l0 0 -21 -21 0 0z"/>
  <path class="fil0 str0" d="M1787 12840c-34,0 -55,21 -97,21 -76,0 -83,-69 -152,-69 -42,0 -14,27 -21,62 -28,42 -84,35 -139,35 0,35 21,41 21,69 -56,7 -63,-21 -97,0 0,28 0,28 0,42 0,48 -49,132 -118,132 -56,0 -84,-111 -153,-111 -7,0 -14,20 -28,20 -34,0 -48,-41 -83,-41 -42,0 -90,55 -111,83 55,49 118,49 139,63 69,55 34,83 -91,62 0,21 -6,62 0,97 63,-7 181,35 181,90 0,42 -49,56 -49,118 0,63 77,77 77,125 0,35 -14,63 -14,97 0,-7 7,0 21,0 27,0 41,14 62,42 0,-28 28,-42 49,-42 27,0 41,28 69,28 28,0 28,-35 42,-55l0 0 27 0 0 0c0,83 84,118 104,173 14,42 0,83 49,83 28,0 42,21 63,21 27,0 34,-14 34,-41 14,-14 0,-42 28,-49 90,-35 187,-35 187,-146 0,-7 0,-14 0,-27l0 0 -34 0 0 0c-14,13 -7,20 -35,20 -21,0 -21,-20 -21,-27 0,0 -7,7 -7,-14l0 0 -7 -28 0 0c-34,0 -97,-69 -97,-111 0,-42 21,-63 21,-104 0,-49 -56,-56 -56,-90 0,-35 63,-77 98,-77 34,0 55,21 90,21 55,0 41,-48 41,-97 0,-14 0,-56 0,-83 0,-77 84,-70 84,-160 0,-48 -42,-76 -42,-118 0,0 -21,-14 -35,-14l0 0 0 0z"/>
  <path class="fil0 str0" d="M1468 12660c0,-118 146,-139 146,-243 0,-21 -14,-28 -14,-42 0,-14 42,-27 49,-55 -7,0 -49,-42 -49,-42 0,-21 14,-21 28,-35 0,-13 -7,-20 -7,-34 0,-7 21,-35 41,-77 -83,-41 -166,-41 -263,-83 -49,-14 -49,-104 -104,-104 -28,0 -42,0 -49,0 -35,0 -35,-28 -55,-48 -28,20 -28,55 -42,76 -14,28 -63,35 -63,69 0,70 56,49 77,77 28,48 0,90 35,118 27,20 117,20 117,55 0,21 0,63 0,76 0,35 -13,56 7,91 14,34 56,13 70,48 28,56 76,153 76,153l0 0 0 0z"/>
  <path class="fil0 str0" d="M4861 11473c7,97 139,77 139,167 0,97 -146,90 -146,187 0,49 0,83 0,139l0 0 -7 14 0 0c-27,7 -55,35 -69,76 -55,-28 -173,-139 -229,-139 -90,0 -69,202 -166,202 -28,0 -21,-28 -49,-28 -7,0 -56,21 -56,28 -13,27 -6,83 -20,124 -14,56 -91,49 -91,132 0,28 7,49 0,84 -48,-14 -118,-181 -118,-222 0,-35 35,-49 35,-70 0,-21 -28,-48 -28,-62 0,-14 0,-21 0,-49 -48,0 -20,-55 -41,-69 -7,0 -21,0 -28,0 -21,0 -21,-28 -42,-42 -27,-28 -76,-7 -125,-28 -41,-7 -41,-27 -90,-48 -14,0 -48,-35 -48,-49 0,-34 62,-104 111,-104 27,0 34,28 62,28 28,0 42,-35 83,-35l0 0 0 -35 0 0c-20,-20 -118,-138 -118,-152 0,-7 21,-21 35,-28 21,-14 21,-49 49,-55 41,-7 215,41 215,-42 0,-125 48,-180 62,-305 56,-70 104,-139 160,-181 14,42 83,-14 104,21 35,42 7,90 28,118 -49,55 -56,153 -83,201 -14,28 -49,28 -49,70 0,27 35,34 49,41l0 0 -35 83 0 0c35,21 21,98 69,98 42,0 56,-84 125,-84 28,0 49,14 83,14 35,0 42,-14 70,-21 0,28 7,63 34,63 35,0 49,-42 91,-42l0 0 34 0 0 0z"/>
  <path class="fil0 str0" d="M8997 14075c42,-7 69,-27 111,-27 69,0 90,-91 139,-91 35,0 48,-20 90,-20 21,0 35,27 49,34l0 0 34 0 0 -27 49 0 0 0c14,7 21,27 49,27 62,0 55,-55 138,-55 0,-49 0,-104 0,-118 0,-76 104,-76 104,-167 0,-111 -187,-48 -187,-166 0,-97 90,-139 90,-201 0,-63 -62,-49 -104,-77 -21,-21 -48,-76 -55,-104 -91,-7 -63,-97 -181,-97 -62,0 -97,21 -159,21 -35,0 -42,-42 -42,-56 0,-21 0,-62 0,-111 0,-55 -49,-62 -49,-118 -48,0 -69,-62 -118,-62 -90,0 -118,104 -180,104 -97,0 -111,-83 -222,-83 -69,0 -125,-7 -174,-49l0 0 -117 0 0 0c-28,-7 -70,-35 -118,-35 -111,0 -132,216 -181,285 -35,62 -111,35 -146,104 -27,42 -27,90 -62,146l0 0 -49 -7 21 48 0 0c14,0 0,0 0,28 0,28 -48,35 -48,83 0,42 41,91 55,118l0 0 0 118 0 0c14,14 21,28 35,49l0 0 69 21 0 0c7,27 174,48 201,55 91,14 167,63 229,97 56,35 35,104 77,146 21,14 90,7 125,7 55,7 97,76 180,76 49,0 76,-34 125,-34 28,0 35,20 35,41 0,21 -21,35 -21,63 0,27 35,34 35,69 0,28 -14,49 -14,76l0 0 41 0 0 0c7,-69 70,-97 146,-97l0 0 0 -14 0 0z"/>
  <path class="fil0 str0" d="M1690 11994c0,27 0,27 14,48 0,7 7,7 7,14 0,21 -21,56 -42,83 -90,-41 -173,-48 -270,-90 -49,-14 -49,-104 -104,-104 -28,0 -42,0 -49,0 -35,0 -42,-21 -62,-42 -7,-20 14,-62 -14,-90 -21,-27 -70,-41 -70,-97 0,-35 56,-83 91,-97 0,0 13,21 20,21 21,0 42,-49 70,-70 0,7 7,14 28,14 27,0 55,-14 83,-14 90,0 97,49 111,125 0,14 69,14 83,42 42,90 7,180 90,250l0 0 14 7 0 0z"/>
  <path class="fil0 str0" d="M17928 12132c-42,-55 -42,-83 -84,-138 -27,-139 -277,-264 -173,-264 153,7 35,-83 49,-160 249,98 256,188 437,389 125,132 333,236 520,312 118,49 118,97 292,174 -125,41 -285,-125 -320,-7l0 0 -7 152 0 0c70,63 56,160 118,216 111,235 458,83 535,312 -77,-21 -97,-56 -146,-56 -49,0 -76,28 -111,63 -28,34 76,159 83,236 -277,-146 -291,-472 -576,-583 -104,-257 -381,-625 -583,-646l0 0 -34 0 0 0z"/>
  <path class="fil0 str0" d="M16457 7511l0 0 0 0c7,14 48,42 48,62 0,35 -41,49 -41,84 0,34 0,48 0,76 -14,7 -35,0 -63,0 -35,0 -14,35 -35,63 -34,62 -138,62 -138,138 0,49 55,35 62,77 -14,7 -48,41 -48,62 0,63 62,42 83,76 21,35 14,111 14,146 14,42 104,49 104,118 0,14 21,28 21,49 -91,41 -28,222 -132,222 -42,0 -42,-21 -77,-21 -20,0 -20,48 -27,62 -21,56 -104,63 -104,118 0,35 69,35 69,91 0,48 -14,27 -56,41 -48,21 -90,97 -90,160 0,145 77,180 125,270 21,42 104,35 104,91 0,20 0,48 0,48 0,35 42,49 42,104l0 0 35 0 0 0c34,-21 97,-104 124,-104 98,0 257,104 257,215 0,28 -28,42 -28,77 0,55 21,83 70,83 55,0 41,-49 83,-49 35,0 42,14 70,14 34,0 41,0 62,0 42,0 35,77 83,90l0 0 0 0 0 7 0 0c56,-48 146,-97 222,-187 0,0 -104,-97 -69,-160 48,-76 229,-125 333,-222 62,7 -69,222 35,174 48,-139 159,-167 125,-326 55,-84 118,-125 124,-229 0,-70 -152,159 -187,104 -62,-111 -90,-507 -153,-576 -111,-104 7,-250 49,-389 139,42 49,-152 90,-132 49,35 132,264 167,202 62,-132 83,48 132,20 97,-48 -125,-235 -70,-374 21,-42 14,-84 7,-118 -14,14 -35,41 -62,41 -21,0 -49,-20 -49,-41 -21,0 -21,21 -48,21 -35,0 -21,-132 -91,-139 -83,-14 -145,14 -145,-97l0 0 -125 -104 0 0c-42,0 -97,0 -104,-42 0,-35 20,-83 -14,-97 -28,-7 -84,0 -104,-7l0 0 7 0 -7 0 0 0c-7,-14 0,-42 0,-63 0,-104 34,-69 90,-111 21,-14 0,-48 14,-69 55,-49 104,-69 139,-125 69,-104 152,-146 277,-180 35,-14 42,-63 90,-63 70,0 28,201 125,201 35,0 83,-48 104,-62 77,-42 243,7 243,-118 0,-35 0,-49 0,-69 0,-77 35,-125 56,-188 14,-55 0,-104 34,-145 21,13 28,27 56,27 42,0 55,-34 104,-34 -28,-111 -49,-243 -76,-375 -21,-63 159,-132 159,-236 0,-62 -55,-146 -194,-125 -222,42 -375,-69 -479,180 -83,98 -201,0 -125,-55 77,-69 181,-76 160,-222 -42,-361 -299,-174 -368,-312 -14,-167 326,48 257,-209 -21,-152 55,-124 104,-117 222,34 125,-132 215,-146 139,-21 187,-201 139,-236 -208,111 -153,-153 -347,-42 -104,56 180,-187 -97,-333 -174,104 -340,139 -347,410 0,0 118,-35 201,20 -7,98 0,118 -104,118 -63,0 -125,-104 -312,-27 -236,256 -569,347 -771,631 -55,83 -104,222 -166,319 -97,153 -187,257 -153,285 111,83 111,41 215,55 91,-48 104,104 104,104 -41,35 14,118 -138,63 -56,90 -132,69 -209,21 -62,-35 7,111 -27,222 -35,118 -222,145 -222,312 0,7 0,21 7,35l0 0 0 0 0 0c34,-7 41,7 55,7 76,0 243,90 243,173 0,69 -42,69 -49,104 -13,28 7,49 0,76 -27,84 -111,125 -111,222 0,56 28,63 77,56 14,28 7,49 7,69 0,21 48,56 104,56 34,0 62,-21 97,-21 104,0 62,111 125,125l0 0 14 0 0 0z"/>
  <path class="fil0 str0" d="M16977 13833l0 0 0 0c-97,-21 -97,-195 -201,-195 -21,0 -14,0 -42,0 -28,0 -34,-27 -41,-48 -77,21 -91,-49 -91,-125 0,-56 28,-83 42,-118 -21,-7 -49,-21 -49,-56 0,-41 91,-90 98,-159 0,-7 0,-21 0,-42 0,-62 69,-76 69,-125 0,-55 -83,-21 -83,-90 0,-14 14,-35 27,-42l0 0 111 0 0 0c28,-14 84,-20 84,-62 0,-56 -104,-250 -146,-250 -49,0 -62,56 -90,76 -28,28 -63,21 -83,56 -28,35 -21,104 -63,139 -21,14 -48,14 -69,41 -21,14 -21,49 -56,49 -83,0 -69,-83 -152,-83 -35,0 -42,34 -84,34 -34,0 -69,-20 -69,-55 0,-49 48,-70 48,-118 0,-28 -27,-35 -27,-70 0,-20 27,-27 34,-48 21,-70 49,-146 49,-222 0,-56 -14,-77 -76,-77 -91,0 -132,63 -181,118l0 0 -48 0 0 0c-132,49 -146,160 -264,236 -42,35 -125,21 -160,56 -48,48 -97,125 -194,125 -104,0 -153,62 -243,62 -83,0 -104,-76 -173,-76 -63,0 -104,35 -153,35 -118,0 -118,0 -271,0 -76,0 -118,48 -145,90 -14,0 -7,-7 -14,-7 0,0 -49,69 7,104 62,28 34,0 76,28 42,27 76,7 35,55 -42,56 21,104 83,42 56,-63 83,-56 104,-7 28,49 49,69 76,35 28,-28 49,-14 77,48 34,56 48,90 34,118 -13,21 14,28 49,56 35,27 56,48 14,62 -42,14 -42,35 0,70 35,34 35,55 69,76 35,21 56,69 56,69 90,-69 180,-104 222,-111 277,-14 284,-69 326,-62 305,34 666,597 847,673 111,48 180,-97 305,-97 118,0 201,7 250,7l0 0 28 -63 13 -97 28 -35 0 0c-7,0 14,-20 7,-20l0 0 0 0z"/>
  <path class="fil0 str0" d="M9122 12299c21,-7 28,0 49,-14 20,-14 13,-48 20,-83 14,-56 91,-70 91,-132 0,-62 -49,-90 -49,-132 0,-118 125,-90 125,-215 0,-55 -14,-97 -14,-139 -49,0 -173,-34 -173,-83 0,-21 20,-49 27,-56l0 0 -7 -131 0 0c-55,-35 -125,-63 -125,-146 0,-90 0,-118 0,-187 0,-70 -27,-56 -62,-98 -14,-27 -49,-236 -49,-236 0,-34 42,-27 63,-34 28,-21 48,-70 48,-97l0 0 7 0 -7 -14 0 0c0,-14 -6,-35 -6,-42 34,-21 34,-41 34,-83 0,-83 -62,-97 -90,-139 -21,-7 -14,7 -55,7 -70,0 -195,-118 -195,-187 0,-174 195,-97 195,-278 0,-111 -98,-146 -98,-208 0,-69 111,-14 98,-139 -7,-83 -132,-48 -132,-125 0,-21 -7,-28 7,-48 -42,7 -98,14 -104,41 124,132 13,132 -118,14 -28,42 -139,118 97,229 0,0 104,139 41,174 -41,-21 -48,-84 -90,-118 -97,0 -166,-91 -173,-125 -7,-104 48,-167 83,-250 0,0 21,-90 0,-194 -90,-77 -42,263 -118,249 -160,35 -160,91 -174,160 -27,118 91,298 -6,340 -35,97 -70,174 -70,243 0,125 -28,180 201,118 98,21 146,118 167,236 21,118 -76,83 -90,159 -7,91 152,139 145,160 -83,7 -173,-49 -173,-111 0,-62 21,-111 62,-208 -69,-56 -48,-187 -201,-167 -125,14 -139,91 -104,347 -139,70 -104,70 -139,139 -104,180 -215,42 -256,201 -105,-111 -250,-55 -250,-152 0,-49 -125,-104 21,-98 83,7 34,160 159,160 97,-7 146,-229 299,-333 34,-215 187,7 34,-305 -69,-132 77,-410 139,-535 62,-131 -69,-104 -28,-263 42,-139 104,-35 153,-236 21,-104 -7,-132 -132,-181 -118,-55 -118,-131 -194,0 -28,42 -90,340 -326,347 -139,132 83,160 -42,243 -21,153 -215,194 -69,278 90,48 41,139 90,194 0,0 28,139 -56,146 -97,14 -166,-229 -263,-389 -21,42 -77,63 -77,111 0,49 56,77 56,139 0,83 -77,83 -77,153 0,27 49,48 49,90 0,125 -201,194 -284,222 -146,48 -216,125 -340,173 -105,28 -139,132 -243,132 -7,0 -14,-28 -14,-34 -28,0 -21,0 -35,0 -104,0 -132,124 -153,222 0,27 -83,97 -104,124 -69,84 -62,181 -104,292 -14,35 -62,69 -62,111 0,14 35,35 35,42 41,138 152,145 194,270 21,35 62,63 62,111 0,42 -21,70 -21,111 0,77 21,139 21,215 0,42 0,104 0,125 0,14 -21,42 -14,70 21,69 125,48 146,118 21,62 42,201 42,201 -7,83 0,139 -42,201l0 0 -160 0 0 0c-41,28 -48,63 -83,118 0,0 42,97 0,132 -7,0 -14,0 -21,-7 0,42 0,62 0,90 0,56 28,42 56,97 14,28 -14,63 14,77 48,34 83,7 139,27 48,21 62,84 90,125 21,28 62,28 76,49 14,35 0,125 42,125 55,0 83,0 139,34 41,21 55,84 111,84 62,0 69,-97 69,-167 0,-55 42,-34 62,-48 21,-21 7,-91 21,-111 42,-63 201,-42 160,-118 -28,-56 -28,-125 -77,-125 -27,0 -20,28 -34,28 -28,0 -35,-35 -35,-49 0,-49 76,-49 35,-139 21,-48 83,-159 139,-159 20,0 27,27 27,48 0,28 -27,35 -27,49 0,27 194,104 236,104 27,0 48,-21 76,-21 62,0 97,49 152,35 77,-28 105,-56 132,-118l0 0 42 0 0 0c35,-56 35,-104 62,-146 35,-69 111,-42 146,-104 49,-69 70,-285 181,-285 48,0 90,28 118,35l0 0 117 0 0 0c49,42 105,49 174,49 111,0 125,83 222,83 62,0 90,-104 180,-104 49,0 70,62 118,62 0,-118 243,-62 222,-215 -111,0 -173,-97 -173,-215l0 0 0 7 0 0z"/>
  <path class="fil0 str0" d="M5257 11515c-69,0 -69,-76 -118,-76 -21,0 0,0 -28,0 -14,0 -14,-35 -14,-49 0,-83 -83,-56 -138,-56 -21,0 -14,0 -35,0 -14,0 -49,-13 -49,0 0,42 14,56 14,105 0,27 -28,34 -42,34l0 0 14 0 0 0c7,97 139,77 139,167 0,97 -146,90 -146,187 0,49 0,83 0,139l0 0 -20 14 0 0c-91,35 -98,257 -118,347 -7,34 -21,104 -35,125 -35,20 -104,27 -104,76 0,56 41,62 76,62 7,56 28,105 77,111 27,7 76,0 83,21 21,56 14,14 69,49 35,21 -28,90 49,90 28,0 41,21 55,0 0,-48 49,-146 97,-160 28,-6 56,14 77,-6 28,-35 41,-111 104,-111 28,0 48,13 62,13 63,0 7,-111 90,-111 56,0 132,-34 132,-97 0,-28 -27,-41 -27,-62 0,-35 41,-49 41,-84 0,-48 -41,-55 -41,-124 0,-70 104,-63 145,-91 56,-41 77,-97 111,-166 49,-76 91,-167 132,-257l0 0 7 -14 0 0c-194,49 -243,-104 -382,-104 -34,0 -41,28 -83,28 -76,0 -125,-7 -194,-7l0 0 0 7 0 0z"/>
  <path class="fil0 str0" d="M5382 9808c28,14 55,14 90,14 132,0 236,0 340,-42 97,-35 146,111 236,167 173,104 673,340 715,354 229,27 312,-243 548,-243l0 0 -7 14 0 0c7,-14 14,-28 14,-49 0,-62 -56,-90 -56,-139 0,-48 56,-69 77,-111 -7,-14 -21,-41 -28,-55 -63,-97 -236,-132 -312,-236 0,0 -28,-7 -91,21 -41,20 14,90 -7,131 42,222 -104,56 -138,111 27,98 -104,181 -91,35 0,-69 125,-55 63,-159 -208,55 -243,48 -375,-56 -152,118 -118,35 -159,21 -111,-35 -167,-70 -35,-90 -14,-77 271,-98 48,-118 -41,0 -76,0 -111,0 -27,69 -76,138 -117,0 -42,7 -160,14 -216,14 -201,0 -249,-91 -423,131 -35,49 -83,-41 -132,-76 21,-90 -27,-201 -27,-201 55,-14 27,-90 215,-14 104,35 76,-167 48,-236 -90,-56 -166,-208 -166,-153 -7,118 55,132 -153,257 -201,125 83,146 -90,264 0,7 -21,-14 -70,28 -13,20 -41,55 -69,104 21,-111 -194,-56 7,-125 -28,-63 -76,-139 -118,-132 -139,90 -250,7 -326,7 -188,0 -83,236 -160,291 -83,-55 -173,-229 -159,-361 7,-34 -188,-131 -195,118 146,98 42,160 -7,167 -76,-7 -111,-42 -118,-90 -20,14 -34,34 -62,34 -7,0 -28,-27 -35,-34l0 0 -34 0 0 0c0,132 -84,152 -84,277 0,42 42,28 42,63 0,48 -49,34 -56,76 -27,160 -180,208 -180,403 0,117 118,76 118,173 0,49 56,21 83,35 35,14 14,90 56,90 34,0 41,0 55,0 49,0 77,76 146,83 0,42 7,56 21,76l0 0 118 0 0 0c41,28 55,49 83,77 7,28 7,48 35,48 48,0 41,-41 76,-41 14,0 42,14 42,21 14,27 -7,41 -7,69 7,49 76,49 97,90 14,42 83,-14 104,21 35,42 7,97 28,125l0 0 0 -7 0 0c14,-21 41,-35 76,-35 42,0 104,-14 146,-34 62,-21 -21,-91 0,-111 14,-14 48,-21 62,-42 28,-35 146,-111 146,-139 0,-28 -56,-76 -97,-76 -42,0 -49,76 -83,76 -42,0 -125,-35 -125,-62 0,-49 55,-139 83,-153 14,-7 83,-7 83,-42 0,-20 -21,-27 -21,-55 0,-56 35,-76 35,-139 0,-76 -48,-111 -48,-160 0,-27 -14,-20 0,-41 90,35 159,55 242,111 35,35 21,69 91,69 20,0 34,0 69,0 0,14 14,35 28,35 14,0 28,-14 34,-28 28,28 28,77 84,77 21,0 34,-14 34,-49 0,-49 7,-104 -13,-167 -7,-34 -49,-7 -49,-62 0,-90 104,-125 139,-215l0 0 -7 0 0 0z"/>
  <path class="fil2 str1" d="M18649 9607c0,0 209,222 458,326 195,83 556,270 764,368 -7,-195 -42,-334 -97,-445 -42,-118 -91,-48 -181,-152 -35,-42 -7,-188 35,-201 208,-84 -139,-21 -201,-278 -21,-104 -42,-104 7,-153 222,-201 -174,-222 -223,-312 -242,-430 98,63 35,-250 -35,-28 -83,-48 -173,-34 -84,-14 -132,-21 -167,-70l0 0 7 7 -7 -7 0 0c-14,-21 -28,-55 -35,-111 0,0 -48,-69 -104,35 -27,35 70,139 -27,125 -91,-28 -250,-382 -375,-514 -76,-83 -7,-132 83,-145 14,-42 0,-63 -55,-105l0 0 0 -159 0 0c27,-63 104,97 145,97 84,-21 -90,-160 -90,-236 7,-395 347,-257 312,-305 -76,-97 -180,-368 -284,-784 -49,0 -69,34 -111,34 -28,0 -35,-14 -56,-27 -34,41 -20,90 -34,145 -21,63 -56,111 -56,188 0,20 0,34 0,69 0,125 -166,76 -243,118 -21,14 -69,62 -104,62 -97,0 -55,-201 -125,-201 -48,0 -55,49 -90,63 -125,34 -208,76 -277,180 -35,56 -84,76 -139,125 -14,21 7,55 -14,69 -56,42 -90,7 -90,111 0,21 -7,49 0,63 20,7 76,0 104,7 34,14 14,62 14,97 7,42 62,42 104,42l0 0 125 104 0 0c0,111 62,83 145,97 70,7 56,139 91,139 27,0 27,-21 48,-21 0,21 28,41 49,41 27,0 48,-27 62,-41 -41,-118 -208,-181 -208,-188 0,-55 76,-249 167,-236 -146,299 194,334 235,431 91,215 -13,284 132,610 42,84 97,243 132,375 97,312 -118,291 76,423 112,77 -20,188 236,424l0 0 0 0 0 0z"/>
  <path class="fil0 str2" d="M3480 9981c-27,-14 -48,-83 -69,-97 -69,-28 -132,7 -194,-35 -70,-55 -125,-166 -201,-215 -7,28 -7,77 -21,77 -63,0 -188,-35 -208,-97 -21,-56 -14,-105 -42,-160 -35,-76 -97,-180 -97,-298 229,0 492,-49 492,-49 28,0 91,-69 63,-326 104,0 153,7 153,-160 55,0 90,-14 83,-145 90,0 76,-105 104,-98 125,21 173,-97 229,-208 0,0 180,111 180,201 0,35 0,49 0,70 0,41 63,41 125,41 7,223 49,320 -145,396 -77,153 -112,187 -98,271 0,48 -14,145 0,222 -20,14 -41,34 -69,34 -7,0 -28,-27 -35,-34l0 0 -34 0 0 0c0,132 -84,152 -84,277 0,42 42,28 42,63 0,48 -49,34 -56,76 -13,90 -69,139 -111,201l0 0 -7 -7 0 0z"/>
  <path class="fil0 str2" d="M4736 13944c0,-63 49,-84 84,-132 55,-77 14,-97 62,-167 14,-14 104,-83 132,-83 21,0 35,21 56,21 20,0 97,-174 97,-195l0 0 -35 0 0 0c-21,14 -69,28 -125,28 -48,0 -62,-28 -104,-28 -83,0 -111,-55 -111,-166 0,-63 28,-90 90,-90 28,0 70,0 70,34 0,35 -28,35 -42,70 28,14 35,0 62,0 7,14 14,55 49,55 28,0 35,-21 42,-55 34,0 125,14 152,-21 -14,-21 -21,-35 -21,-76 0,-63 35,-77 35,-139 7,-7 7,-7 14,-7 -28,0 -42,21 -55,21 -63,0 -202,-97 -202,-153 -14,21 -27,0 -55,0 -77,0 -14,-69 -49,-90 -55,-35 -48,7 -69,-49 -7,-21 -56,-14 -83,-21 -49,-6 -70,-55 -77,-111 -7,0 -7,0 -21,0 -48,35 -111,91 -187,70 -7,55 35,62 35,104 0,55 -160,69 -222,69 0,28 27,42 27,77 0,76 -104,104 -124,152 -28,42 -14,84 -14,139 0,187 111,222 111,396 0,20 0,55 0,62 0,28 0,56 20,56 28,0 35,-28 56,-28 14,0 56,41 56,69 0,42 -77,35 -77,70 0,27 42,34 42,76 0,49 -35,35 -35,83 0,7 76,56 97,56 28,0 35,-21 63,-21 55,0 55,69 118,69 48,0 104,-90 145,-118l0 0 -7 -27 0 0z"/>
  <path class="fil0 str2" d="M2794 11917c-21,91 -139,146 -209,174 7,41 70,97 104,97 28,0 42,-21 63,-21 104,0 28,208 118,208 28,0 35,-48 69,-48 63,0 83,83 146,90l0 0 28 0 0 0c14,0 -7,-7 14,-7 41,0 55,35 104,35 48,0 48,-70 48,-118 0,-21 42,-28 42,-49 0,-28 -28,-21 -28,-41 0,0 -69,-63 -69,-77 -63,0 -132,77 -181,77 -41,0 -76,-49 -76,-98 0,-41 0,-166 -62,-166 -28,0 -111,-14 -111,-63l0 0 0 0 0 7 0 0z"/>
  <path class="fil0 str2" d="M8837 15651c0,7 -13,20 -13,27 0,77 69,84 118,104 34,21 13,63 13,98 7,62 91,69 146,69 0,35 21,49 49,49 62,0 62,-77 132,-84 0,35 0,56 0,84 0,41 41,55 55,90 0,0 111,21 160,-42 21,-111 152,-55 215,-90 35,-21 69,-49 97,-69 -14,-14 -49,-49 -49,-91 0,-27 14,-55 42,-62l0 0 35 0 0 0c0,-83 -132,-111 -146,-194 -7,-56 -21,-91 -42,-118 -14,13 -34,55 -62,55 -28,0 -83,-21 -83,-42 0,-20 7,-34 14,-55l0 0 0 -28 0 0c0,0 -21,-7 -21,-21 0,-55 48,-90 97,-118 14,-111 -174,-55 -229,-118 -42,7 -83,21 -83,56 0,56 34,56 34,104 0,63 -125,63 -187,76 -28,0 -35,14 -63,28 -27,14 -242,104 -242,139 0,42 83,42 83,83 0,56 -56,42 -76,77l0 0 6 -7 0 0z"/>
  <path class="fil0 str2" d="M12994 15449l0 7 0 0c14,-83 111,-111 118,-187 -21,-7 -104,-7 -104,-56 0,-48 35,-76 55,-111 -13,-13 -41,-27 -41,-62 0,-42 76,-49 132,-49 62,0 55,-83 125,-83 41,0 90,7 117,-21 21,-21 0,-48 21,-76 70,-69 111,-90 139,-208 76,0 146,-77 187,-125 49,-42 91,-63 91,-139 0,-97 -125,-97 -125,-180 0,-49 62,-49 83,-84 42,-90 83,-242 167,-291 41,-28 97,-35 97,-118 0,-55 -42,-69 -84,-97 -48,-42 -76,-14 -138,-35 0,0 -49,-104 -56,-125 -21,-55 -48,-90 -83,-145 -7,-14 -35,-21 -35,-56 0,-28 0,-76 35,-76l0 0 14 -42 0 -35 0 0c-146,-14 -125,202 -236,243 -14,7 -7,70 -56,70 -21,0 -48,-21 -55,-21 -28,0 -42,21 -70,21 -48,0 -48,-42 -69,-56 -21,28 -62,42 -104,42 -21,0 -63,-42 -69,-42 -28,14 -21,97 -28,104 -63,21 -139,-7 -167,14 -41,28 -7,63 -34,90 -42,42 -139,28 -139,111 0,56 90,91 118,111 -42,35 -63,70 -63,132 0,49 28,111 63,125 27,69 7,139 76,167 -28,125 -55,367 -55,374 0,7 -84,153 -153,209 -83,62 -139,131 -146,215 -21,145 -166,111 -166,187 0,28 13,42 13,69 -34,28 -90,28 -97,84 -41,-7 -7,-28 -27,-56 -28,-55 -42,-35 -91,-35 -41,0 -41,-41 -55,-69 -35,-62 -104,-55 -139,-118 -28,14 -42,0 -55,0 -77,0 -91,-55 -167,-83 -55,-21 -111,-14 -146,-56 -27,-27 -7,-111 -62,-111 -90,0 -90,202 -201,167 -7,28 34,62 0,76 0,14 -14,28 -14,56 0,48 55,76 69,97 174,41 396,76 562,125 118,34 70,270 264,270 236,0 229,-166 506,-166 105,0 181,83 236,62 14,-7 28,-7 35,-7l0 0 7 -7 0 0z"/>
  <path class="fil0 str2" d="M16318 9648c0,-55 -42,-69 -42,-104 0,0 0,-28 0,-48 0,-56 -83,-49 -104,-91 -48,-90 -125,-125 -125,-270 0,-63 42,-139 90,-160 42,-14 56,7 56,-41 0,-56 -69,-56 -69,-91 0,-55 83,-62 104,-118 7,-14 7,-62 27,-62 35,0 35,21 77,21 104,0 41,-181 132,-222 0,-21 -21,-35 -21,-49 0,-69 -90,-76 -104,-118 0,-35 7,-111 -14,-146 -21,-34 -83,-13 -83,-76 0,-21 34,-55 48,-62 -7,-42 -62,-28 -62,-77 0,-76 104,-76 138,-138 21,-28 0,-63 35,-63 28,0 49,7 63,0 0,-28 0,-42 0,-76 0,-35 41,-49 41,-84 0,-20 -41,-48 -48,-62 -77,-7 -28,-125 -139,-125 -35,0 -63,21 -97,21 -56,0 -104,-35 -104,-56 0,-20 7,-41 -7,-69 -49,7 -77,0 -77,-56 0,-97 84,-138 111,-222 7,-27 -13,-48 0,-76 7,-35 49,-35 49,-104 0,-83 -167,-173 -243,-173 -14,0 -21,-14 -55,-7 20,83 97,173 138,208 104,187 -208,-167 -305,-49 -76,83 -14,-62 -236,-104 -208,-35 -347,208 -347,305 0,56 -28,334 -250,222 -173,35 -236,139 -236,84 0,-56 70,-188 -166,-84 -194,63 14,327 -83,361 -14,28 -21,-194 -56,-159 -28,27 -62,48 -97,76 -56,-35 90,-76 55,-139 -131,28 -277,236 -437,208 160,132 -7,98 -21,285 132,7 84,-180 153,76 167,56 83,125 -48,84 -105,90 173,215 -49,152 -201,0 -118,-34 -236,153 -111,97 -180,-83 -180,14 0,83 173,368 -35,312 -139,-35 -236,-104 -236,-271 -14,-55 -139,-7 -125,-104 -62,-62 14,-152 -264,-125 -13,153 -242,7 -305,104 -48,28 56,132 69,167 63,139 -138,118 -256,167 -208,90 -125,-146 -188,-105l0 0 -222 49 0 0c-41,35 -145,118 -173,69 -49,-90 -35,56 -181,21 0,56 -13,63 -13,84 0,27 -21,48 -35,97 83,27 48,69 90,138 42,84 111,98 167,167 41,49 13,118 48,173 21,28 83,35 83,91 0,69 -90,83 -118,111l0 0 -97 250 0 0c0,34 35,55 35,90 0,69 -62,27 -111,48 -42,14 -97,125 -160,153 111,180 202,389 202,624 0,70 -91,63 -104,132 41,7 104,14 111,49 13,42 -21,76 -7,125 14,90 131,139 131,229 0,35 -62,62 -62,125 0,76 0,41 0,159 42,14 83,0 125,0 28,0 42,14 83,28 70,21 181,-28 181,49 0,41 -28,48 -35,83 97,14 146,42 173,118 35,55 14,104 49,166 21,35 104,21 104,84 0,55 0,62 0,76 0,97 69,153 174,201 -7,56 -35,90 -35,153 0,139 0,194 0,326 0,49 0,111 83,111 146,0 187,-201 305,-201 35,0 49,76 111,76 14,-97 105,-146 132,-250 49,-187 -14,-298 208,-298 153,0 112,187 243,187 49,0 56,-20 63,-62l0 0 69 0 0 0c49,35 42,76 63,139 20,48 111,90 145,125 111,97 98,312 306,312 27,-42 69,-90 145,-90 153,0 153,0 271,0 49,0 90,-35 153,-35 69,0 90,76 173,76 90,0 139,-62 243,-62 97,0 146,-77 194,-125 35,-35 118,-21 160,-56 118,-76 132,-187 264,-236 -14,-104 -21,-201 -21,-277 0,-97 -167,-63 -167,-125 0,-28 21,-42 35,-62l0 0 0 -105 0 0c-83,-13 -104,-6 -146,-62 21,-21 70,-42 70,-83 0,-70 -35,-125 -35,-202 0,-249 229,-145 229,-353 0,-77 76,-42 125,-63 76,-28 62,-104 62,-173 0,-35 49,-35 49,-63 0,-166 -222,-187 -222,-347 0,-21 7,-34 0,-48 21,-56 48,-91 48,-153 0,-83 -83,-215 -83,-271 0,-48 56,-62 97,-62 49,0 70,0 97,0 7,0 56,28 98,7 55,-28 48,-146 159,-146 56,0 28,21 70,0 34,-14 6,-125 13,-125l0 0 -48 0 0 0z"/>
  <path class="fil0 str2" d="M5951 11508c0,-42 48,-76 62,-111 42,-111 35,-208 104,-292 21,-27 104,-97 104,-124 21,-98 49,-222 153,-222 14,0 7,0 35,0 0,6 7,34 14,34 104,0 138,-104 243,-132 124,-48 194,-125 340,-173 83,-28 284,-97 284,-222 0,-42 -49,-63 -49,-90 0,-56 49,-63 63,-104l0 0 7 -14 0 0c-236,0 -319,270 -548,243 -42,-14 -542,-250 -715,-354 -90,-56 -139,-202 -236,-167 -104,42 -208,42 -340,42 -35,0 -56,-7 -83,-14 -35,90 -139,125 -139,215 0,55 42,28 49,62 20,63 13,118 13,167 0,35 -13,49 -34,49 -56,0 -56,-49 -84,-77 -6,14 -20,28 -34,28 -14,0 -28,-21 -28,-35 -35,0 -49,0 -69,0 -70,0 -56,-34 -91,-69 -83,-56 -152,-76 -242,-111 -14,21 0,14 0,41 0,49 48,84 48,160 0,63 -35,83 -35,139 0,28 21,35 21,55 0,35 -69,35 -83,42 -28,14 -83,104 -83,153 0,27 83,62 125,62 34,0 41,-76 83,-76 41,0 97,48 97,76 0,28 -118,104 -146,139 -14,21 -48,28 -62,42 -21,20 62,90 0,111 -42,20 -104,34 -146,34 -125,0 -118,167 -159,236 -14,28 -49,28 -49,70 0,27 35,34 49,41l0 0 -35 83 0 0c35,21 21,98 69,98 42,0 56,-84 125,-84 28,0 49,14 83,14 35,0 42,-14 70,-21 0,28 7,63 34,63 35,0 49,-42 91,-42 7,0 14,0 20,0 14,0 42,-7 42,-34 0,-49 -14,-63 -14,-105 0,-13 35,0 49,0 21,0 14,0 35,0 55,0 138,-27 138,56 0,14 0,49 14,49 28,0 7,0 28,0 49,0 55,76 125,76 69,0 111,0 187,0 42,0 49,-28 83,-28 139,0 188,153 382,104l0 0 35 -83 0 0z"/>
  <path class="fil0 str2" d="M3682 11827c-28,-14 -49,-41 -84,-41 -69,0 -138,41 -138,117 0,7 27,84 27,91 42,0 146,0 160,34 28,42 -7,84 49,91 0,41 0,69 20,90 14,7 28,14 63,14 35,0 55,-42 90,-42 28,0 49,28 69,28 21,0 21,-21 42,-21 14,0 28,28 42,35l0 0 27 0 0 14 0 0 0 0c0,-35 35,-49 35,-70 0,-21 -28,-48 -28,-62 0,-14 0,-21 0,-49 -48,0 -20,-55 -41,-69 -7,0 -21,0 -28,0 -21,0 -21,-28 -42,-42 -27,-28 -76,-7 -125,-28 -41,-7 -41,-27 -90,-48 -14,0 -48,-35 -48,-49l0 0 0 7 0 0z"/>
  <path class="fil0 str2" d="M4049 12223l-27 0 0 0c-14,-7 -28,-35 -42,-35 -21,0 -21,21 -42,21 -20,0 -41,-28 -69,-28 -35,0 -55,42 -90,42 -35,0 -49,-7 -63,-14 -41,28 -159,62 -159,118 0,34 0,34 0,48 0,14 -21,42 -63,42 -27,0 -48,-35 -62,-42 -28,21 -56,21 -76,49 20,21 34,35 41,35 49,20 83,0 118,13 28,21 14,84 70,91 27,0 69,-7 83,-7 41,0 21,34 28,69 13,70 76,181 145,181 14,0 42,7 56,7 0,-28 7,-42 35,-49 34,69 69,146 104,194 34,0 48,35 83,42 -7,28 -35,35 -35,62 0,35 35,63 63,77 0,-28 0,-56 14,-77 20,-48 124,-76 124,-152 0,-35 -27,-49 -27,-77 62,0 222,-14 222,-69 0,-42 -49,-49 -42,-104 -21,7 -21,14 -48,0l0 0 0 -28 0 0c27,-7 62,-21 62,-55l0 0 -62 0 0 0c0,-28 13,-42 34,-63l0 0 0 -42 -41 0 0 0c-14,7 -42,14 -42,28 0,21 7,21 14,42 -35,21 -77,0 -111,0 -35,0 -90,-14 -90,-63 0,-7 13,-13 13,-20 -48,-14 -118,-181 -118,-222l0 0 0 -14 0 0z"/>
  <path class="fil0 str2" d="M3723 12209c-41,28 -166,62 -166,118 0,34 0,34 0,48 0,14 -21,42 -63,42 -27,0 -48,-35 -62,-42 -28,21 -56,21 -76,49 -35,-35 -77,-83 -77,-97 0,-21 42,-28 42,-49 0,-28 -42,-35 -42,-62 0,-42 97,-56 111,-90 35,-70 -14,-132 97,-132 42,0 146,0 160,34 28,42 -7,84 49,91 0,41 0,69 20,90l0 0 7 0 0 0z"/>
  <path class="fil0 str2" d="M9809 15893c146,-104 250,-208 368,-242 159,-56 465,7 451,76 -14,125 166,118 312,118 250,0 396,-14 396,-201 0,-42 -105,-77 -105,-160 0,-132 112,-229 153,-312 -14,-21 -69,-49 -69,-97 0,-28 14,-42 14,-56 34,-14 -7,-48 0,-76 48,14 76,-14 97,-49 -28,0 -70,0 -83,-28 -28,7 -35,21 -70,21 -83,0 -132,-48 -194,-83 -35,-21 -28,-62 -90,-62 -21,0 -42,13 -63,13 14,14 7,35 0,49 -69,0 -215,21 -284,62 -28,14 -7,91 -28,112 -14,13 -49,13 -63,41 -55,146 -138,326 -326,326 -34,0 -69,-7 -90,-34l0 0 -118 0 0 0c-7,-7 -55,-70 -55,-70 -28,0 -49,-7 -70,7 -14,14 -7,42 -7,70 -7,48 -104,117 -173,76l0 0 -56 0 0 35 0 0c14,27 28,55 35,111 14,83 146,111 146,194l0 0 -35 0 0 0c-28,7 -42,35 -42,62 0,42 35,70 49,91l0 0 0 6 0 0z"/>
  <path class="fil0 str2" d="M9670 14297l0 0 0 0c-28,14 -55,14 -55,42 0,49 41,70 41,111 0,56 -41,104 -41,153 0,34 27,21 48,21 70,-7 104,7 104,62 0,76 -97,104 -97,194 0,70 49,132 49,188 0,139 -222,139 -222,263 0,14 21,21 21,21l0 0 0 28 0 0c-7,21 -14,35 -14,55 0,21 55,42 83,42 28,0 48,-42 62,-55l0 0 7 -28 56 0 0 0c69,41 166,-28 173,-76 0,-28 -7,-56 7,-70 21,-14 42,0 70,0 0,-118 104,-132 145,-194 28,-28 7,-49 21,-90 7,-21 56,-35 56,-70 0,-28 -28,-41 -28,-69 -97,-97 -56,-299 -187,-375 -28,-21 -42,-48 -84,-48 -34,0 -55,13 -97,13 -35,0 -118,-90 -118,-118l0 0 0 0 0 0z"/>
  <path class="fil0 str2" d="M767 13888c14,0 0,-28 0,-42 0,-69 -76,-166 -139,-166 -55,0 -83,-42 -111,-69l0 0 -27 0 0 48 0 0c14,35 62,90 111,90 7,0 27,-14 41,-14 21,0 28,35 28,49 0,28 -83,76 -111,76 0,49 14,104 -28,111 -7,-20 -14,-34 -27,-34 -14,0 -49,14 -49,34 0,63 28,111 76,111 63,0 125,-125 146,-187 21,7 28,0 35,0 0,28 7,83 21,83 34,0 7,-90 34,-90l0 0 0 0z"/>
  <path class="fil0 str2" d="M1690 13701c0,21 7,14 7,14 0,7 0,27 21,27 28,0 21,-7 35,-20l0 0 34 0 0 0c0,13 0,20 0,27 0,111 -97,111 -187,146 -28,7 -14,35 -28,49 0,27 -7,41 -34,41 -21,0 -35,-21 -63,-21 -49,0 -35,-41 -49,-83 -20,-55 -104,-90 -104,-173l0 0 -27 0 0 0c-14,20 -14,55 -42,55 -28,0 -42,-28 -69,-28 -21,0 -49,14 -49,42 0,28 28,62 56,62 27,0 27,-13 55,-20 7,76 42,48 97,69 21,14 14,28 21,49 28,62 111,76 111,145 0,42 -21,49 -21,77 0,132 146,194 146,305 0,21 0,28 0,49 0,48 76,69 118,111 21,20 14,69 28,83l0 0 0 14 0 0c41,-7 104,-21 152,-84 28,-41 56,-55 91,-62 -14,-7 -98,-28 -98,-62 0,-63 98,-49 98,-111 0,-28 -28,-49 -28,-77 0,-21 7,-41 28,-41 20,0 20,20 41,20 14,0 90,-34 90,-55 0,-49 -20,-76 -20,-125 0,-21 20,-35 41,-62l0 0 0 -42 0 0c-62,-7 -69,-35 -69,-104 0,-125 -42,-153 -56,-250 -14,7 -34,21 -48,21 -35,0 -42,-70 -56,-90 -14,7 -21,83 -48,83 -35,0 -49,-28 -97,-28 -35,0 -49,21 -84,21l0 0 7 28 0 0z"/>
  <path class="fil0 str2" d="M1746 14721c-28,7 -49,7 -56,28 -41,69 -35,117 14,187 56,83 -90,159 -104,201 -118,111 -14,215 -42,333 14,70 21,125 14,181 -21,20 -41,13 -69,13 -35,0 -49,0 -90,0 -35,0 -42,35 -84,35 -34,0 -69,-48 -76,-76l0 0 0 -153 0 0c-35,-41 -35,-97 -55,-152 -7,-49 -77,-35 -77,-111 0,-84 83,-125 174,-125 20,0 41,20 62,20 63,0 56,-62 76,-124 0,0 63,-63 70,-70 7,-7 83,-55 48,-55 -90,-14 -111,-42 -152,-125 -21,-49 0,-35 0,-91 0,-20 21,-20 41,-27l0 0 -34 -63 0 0c83,0 145,0 194,-34 0,48 76,69 118,111 21,20 14,69 28,83l0 0 0 14 0 0z"/>
  <path class="fil0 str2" d="M1385 14714c-7,0 -21,0 -35,0 -14,0 -21,-28 -48,-28 -28,0 -181,21 -181,69 0,21 14,42 14,70 0,41 -7,69 -35,69 -20,0 -34,-14 -41,-28 -14,28 -7,14 -7,42 0,42 62,35 97,83 21,28 14,84 42,118l0 0 7 0 0 0c27,-20 55,-27 97,-27 20,0 41,20 62,20 63,0 56,-62 76,-124 0,0 63,-63 70,-70 7,-7 83,-55 48,-55 -90,-14 -111,-42 -152,-125l0 0 -14 -14 0 0z"/>
  <path class="fil0 str2" d="M857 14124c-20,49 -41,62 -90,62 -69,0 -27,-76 -104,-76 -48,0 -132,42 -132,97 0,97 139,250 209,285 0,-35 104,-77 159,-77 0,0 7,0 14,0 7,-48 -21,-76 -21,-111 0,-41 56,-20 56,-62 0,-62 -91,-69 -91,-132l0 0 0 14 0 0z"/>
  <path class="fil0 str2" d="M1163 14610c14,-21 21,-21 28,-35 -28,-21 -56,-35 -77,-62 -76,48 -111,-98 -215,-98 -55,0 -166,42 -166,77 0,14 34,34 34,34 21,28 56,174 90,188 0,-21 91,-35 125,-35 14,0 21,21 35,21 14,0 28,-14 35,-21 14,14 14,21 41,21 49,0 42,-76 77,-76l0 0 -7 -14 0 0z"/>
  <path class="fil0 str2" d="M1066 14873c7,7 20,21 34,21 28,0 35,-28 35,-69 0,-28 -14,-49 -14,-70 0,-34 70,-55 125,-62 -14,-42 -35,-69 -76,-69 -35,0 -28,76 -77,76 -27,0 -27,-7 -41,-21 -7,7 -21,21 -35,21 -14,0 -21,-21 -35,-21 -34,0 -125,14 -125,35 0,35 42,48 42,76 0,14 -21,21 -21,35 0,55 125,55 174,55l0 0 14 -7 0 0z"/>
  <path class="fil0 str2" d="M4445 12660c76,21 132,-35 180,-70 -27,-6 -48,-20 -48,-62 0,-49 69,-56 104,-76 14,-21 28,-91 35,-125 20,-63 20,-195 62,-271 -55,-28 -173,-139 -229,-139 -90,0 -69,202 -166,202 -28,0 -21,-28 -49,-28 -7,0 -56,21 -56,28 -13,27 -6,83 -20,124 -14,56 -91,49 -91,132 0,28 7,49 0,84 0,7 -13,13 -13,20 0,49 55,63 90,63 34,0 76,21 111,0 -7,-21 -14,-21 -14,-42 0,-14 28,-21 42,-28l0 0 41 0 0 42 0 0c-21,21 -34,35 -34,63l0 0 62 0 0 0c0,34 -35,48 -62,55l0 0 0 28 0 0c27,14 27,7 48,0l0 0 7 0 0 0z"/>
  <path class="fil0 str2" d="M10010 10807c-62,125 -132,187 -180,312 -14,35 -83,28 -83,77 0,21 27,27 27,55 0,42 -76,56 -76,118 0,56 69,49 69,97 0,42 -20,63 -20,104 0,63 90,84 124,91 98,27 174,69 222,159 14,28 35,35 35,63 0,41 -35,69 -48,104 -14,34 7,69 -7,111 -14,34 -70,111 -91,159 -13,42 -76,28 -76,98 0,69 49,90 63,131 13,35 0,63 0,98 13,69 34,201 104,201 48,0 97,-63 111,-118 27,7 20,7 34,7 14,-7 21,-21 21,-35 0,-21 -21,-35 -21,-55l0 0 42 0 0 0c49,20 56,90 111,90 56,0 69,-35 118,-35 62,0 90,56 90,118 0,97 -41,125 -41,194 0,132 124,132 242,132 63,0 77,-35 105,-55 41,-28 76,-14 131,-28 70,-7 132,-83 167,-139 62,35 153,63 208,90 0,0 187,0 194,0 35,0 35,90 56,125 14,-28 48,-41 76,-41 21,0 21,34 35,55 0,0 139,83 166,83 49,0 63,-27 63,-48 0,0 0,-28 0,-49 0,-28 28,-41 28,-62 0,-7 0,-14 0,-35 -14,-42 -91,-69 -91,-97 0,-63 77,-69 77,-125 0,-35 -21,-56 -28,-76l0 0 -125 0 0 0c-21,-21 -28,-91 -28,-146 0,-69 28,-69 35,-125 -14,0 -21,-7 -28,-28 42,-21 42,-48 84,-76 7,-14 27,-21 27,-49 0,-48 49,-69 49,-125 0,-20 -28,-27 -28,-62 0,-21 28,-42 28,-69 0,-70 -90,-70 -90,-146 0,-49 41,-63 41,-90 0,-35 -41,-42 -41,-104 0,-104 138,-63 166,-139l0 0 0 -28 0 0c0,0 -21,0 -14,0 -34,0 -62,14 -97,0 -41,-14 -55,-28 -83,-28 -42,0 -83,14 -125,0 0,-118 0,-83 0,-159 0,-63 62,-90 62,-125 0,-90 -117,-139 -131,-229 -14,-49 20,-83 7,-125 -7,-35 -70,-42 -111,-49 13,-69 104,-62 104,-132 0,-235 -91,-451 -202,-631 -41,21 -27,83 -76,83 -21,0 -42,-27 -69,-27 -21,0 -35,41 -49,48 -42,28 -69,0 -104,0 -90,0 -104,-35 -180,-35 -42,0 -49,28 -84,28 -34,0 -34,-90 -83,-90 -69,0 -62,76 -97,76 -21,0 -28,-14 -49,-14 -125,0 -208,139 -291,181 -14,7 -90,166 -97,180 -14,35 -7,90 -42,90 -21,0 -28,0 -42,0 -69,0 -104,153 -194,271l0 0 0 0 0 0z"/>
  <path class="fil0 str2" d="M9073 10516c21,76 118,326 188,326 76,0 55,-195 173,-195 132,0 49,195 174,195 104,0 222,-49 381,7 7,-21 7,-21 21,-42 90,-118 125,-271 194,-271 14,0 21,0 42,0 35,0 28,-55 42,-90 7,-14 83,-173 97,-180 83,-42 166,-181 291,-181 21,0 28,14 49,14 35,0 28,-76 97,-76 49,0 49,90 83,90 35,0 42,-28 84,-28 76,0 90,35 180,35 35,0 62,28 104,0 14,-7 28,-48 49,-48 27,0 48,27 69,27 49,0 35,-62 76,-83 63,-28 118,-132 160,-146 49,-21 111,21 111,-48 0,-35 -35,-56 -35,-90l0 0 97 -250 0 0c28,-28 118,-42 118,-111 0,-56 -62,-63 -83,-91 -35,-55 -7,-124 -48,-173 -56,-69 -125,-83 -167,-167 -42,-69 -7,-111 -90,-138 14,-49 35,-70 35,-97 0,-21 13,-28 13,-84l0 0 -20 0 0 0c-14,-7 -28,-14 -49,-27 -208,62 56,124 -14,166 -69,153 -243,174 -305,257 -7,-167 416,-555 416,-888 0,-125 -208,-354 -326,-354 -42,0 -125,0 -166,27 -14,125 -77,105 -118,105 -42,0 208,-229 -174,-167 -42,-28 160,-42 49,-146 -91,-41 -146,-27 -153,7 -42,42 -76,153 -125,208 -48,63 97,146 -48,209 0,0 -202,-63 -14,111 -77,-35 -84,-21 -104,-21 -7,0 -84,111 -125,104 -42,-7 69,-118 -7,-118 -91,76 -146,62 -202,76 -138,0 14,63 -34,97 -35,28 -167,35 -236,91 -125,83 -194,173 -257,263 -69,84 187,424 -28,250 -194,42 -270,21 -388,21 -167,0 -195,69 -111,222 27,49 -84,166 55,222 49,-35 35,146 90,104 63,83 91,118 -7,222 0,0 77,174 56,222 -90,160 -90,104 -111,63 111,-243 14,-313 -56,-49 0,-42 42,-236 70,-277 146,-250 -56,-63 -97,-167 -49,-111 -90,-111 -181,-208 0,7 -14,14 -34,14 -14,20 -7,27 -7,48 0,77 125,42 132,125 13,125 -98,70 -98,139 0,62 98,97 98,208 0,181 -195,104 -195,278 0,69 125,187 195,187 41,0 34,-14 55,-7 28,42 90,56 90,139 0,42 0,62 -34,83l0 0 6 35 7 21 0 0z"/>
  <path class="fil0 str2" d="M7713 13132l42 0 0 0c35,-56 35,-104 62,-146 35,-69 111,-42 146,-104 49,-69 70,-285 181,-285 48,0 90,28 118,35l0 0 117 0 0 0c49,42 105,49 174,49 111,0 125,83 222,83 62,0 90,-104 180,-104 49,0 70,62 118,62 0,-118 243,-62 222,-215 -111,0 -173,-97 -173,-215 -35,-14 -49,-49 -83,-62 -35,-14 -63,7 -97,-21 -28,-21 -21,-63 -63,-83 -42,-14 -76,41 -111,-7 -28,-21 -48,-104 -97,-104 -76,0 -83,117 -167,117 -48,0 -90,-13 -138,-13 -160,0 -146,-139 -264,-202 -63,-27 -201,-27 -278,-69 -48,-28 -76,-62 -118,-111l0 0 -131 0 0 0c-49,-42 -21,-104 -63,-160 -14,-27 -28,-69 -28,-90 0,-14 0,-28 0,-55 0,-28 -131,-111 -159,-111 -21,0 -35,34 -63,34 -21,0 -27,-7 -34,-21 -35,7 -63,35 -98,35 -118,0 -55,-236 -159,-236 -42,0 -104,0 -174,0 -62,0 -118,-7 -118,-76 -34,-7 -69,-28 -69,-76 0,-70 69,-98 69,-174 0,-48 0,-42 0,-104 0,-21 -7,-21 -13,-42 -105,28 -139,132 -243,132 -7,0 -14,-28 -14,-34 -28,0 -21,0 -35,0 -104,0 -132,124 -153,222 0,27 -83,97 -104,124 -69,84 -62,181 -104,292 -14,35 -62,69 -62,111 0,14 35,35 35,42 41,138 152,145 194,270 21,35 62,63 62,111 0,42 -21,70 -21,111 0,77 21,139 21,215 0,42 0,104 0,125 0,14 -21,42 -14,70 21,69 125,48 146,118 21,62 42,201 42,201l0 0 7 0 0 0c14,14 27,28 62,28 70,0 76,-42 111,-70 63,-34 174,7 215,-28 21,-6 28,-55 42,-55 28,-21 55,0 83,-21 28,-14 14,-69 56,-69 27,0 125,69 145,83 42,21 77,7 118,35 70,55 98,118 111,222 0,0 63,97 70,104 34,76 201,97 277,132l0 0 0 0 0 0z"/>
  <path class="fil0 str2" d="M4861 11473c7,97 139,77 139,167 0,97 -146,90 -146,187 0,49 0,83 0,139 0,104 153,90 257,90 49,0 104,7 104,-28 0,-41 -76,-48 -76,-111 0,-97 97,-138 97,-256 0,-56 14,-91 21,-146 -69,0 -69,-76 -118,-76 -21,0 0,0 -28,0 -14,0 -14,-35 -14,-49 0,-83 -83,-56 -138,-56 -21,0 -14,0 -35,0 -14,0 -49,-13 -49,0 0,42 14,56 14,105 0,27 -28,34 -42,34l0 0 14 0 0 0z"/>
  <path class="fil0 str2" d="M9122 12292l0 7 0 0c21,-7 28,0 49,-14 20,-14 13,-48 20,-83 14,-56 91,-70 91,-132 0,-62 -49,-90 -49,-132 0,-118 125,-90 125,-215 0,-55 -14,-97 -14,-139 -49,0 -173,-34 -173,-83 0,-21 20,-49 27,-56l0 0 -7 -131 0 0c-55,-35 -125,-63 -125,-146 0,-90 0,-118 0,-187 0,-70 -27,-56 -62,-98 -14,-27 -49,-236 -49,-236 0,-34 42,-27 63,-34 28,-21 48,-70 48,-97l0 0 7 0 -7 -14 0 0c0,-14 -6,-35 -6,-42 34,-21 34,-41 34,-83 0,-83 -62,-97 -90,-139 -21,-7 -14,7 -55,7 -70,0 -195,-118 -195,-187 0,-174 195,-97 195,-278 0,-111 -98,-146 -98,-208 0,-69 111,-14 98,-139 -7,-83 -132,-48 -132,-125 0,-21 -7,-28 7,-48 -42,7 -98,14 -104,41 124,132 13,132 -118,14 -28,42 -139,118 97,229 0,0 104,139 41,174 -41,-21 -48,-84 -90,-118 -97,0 -166,-91 -173,-125 -7,-104 48,-167 83,-250 0,0 21,-90 0,-194 -90,-77 -42,263 -118,249 -160,35 -160,91 -174,160 -27,118 91,298 -6,340 -35,97 -70,174 -70,243 0,125 -28,180 201,118 98,21 146,118 167,236 21,118 -76,83 -90,159 -7,91 152,139 145,160 -83,7 -173,-49 -173,-111 0,-62 21,-111 62,-208 -69,-56 -48,-187 -201,-167 -125,14 -139,91 -104,347 -139,70 -104,70 -139,139 -104,180 -215,42 -256,201 -105,-111 -250,-55 -250,-152 0,-49 -125,-104 21,-98 83,7 34,160 159,160 97,-7 146,-229 299,-333 34,-215 187,7 34,-305 -69,-132 77,-410 139,-535 62,-131 -69,-104 -28,-263 42,-139 104,-35 153,-236 21,-104 -7,-132 -132,-181 -118,-55 -118,-131 -194,0 -28,42 -90,340 -326,347 -139,132 83,160 -42,243 -21,153 -215,194 -69,278 90,48 41,139 90,194 0,0 28,139 -56,146 -97,14 -166,-229 -263,-389 -21,42 -77,63 -77,111 0,49 56,77 56,139 0,83 -77,83 -77,153 0,27 49,48 49,90 0,125 -201,194 -284,222 -146,48 -216,125 -340,173 6,21 13,21 13,42 0,62 0,56 0,104 0,76 -69,104 -69,174 0,48 35,69 69,76 0,69 56,76 118,76 70,0 132,0 174,0 104,0 41,236 159,236 35,0 63,-28 98,-35 7,14 13,21 34,21 28,0 42,-34 63,-34 28,0 159,83 159,111 0,27 0,41 0,55 0,21 14,63 28,90 42,56 14,118 63,160l0 0 131 0 0 0c42,49 70,83 118,111 77,42 215,42 278,69 118,63 104,202 264,202 48,0 90,13 138,13 84,0 91,-117 167,-117 49,0 69,83 97,104 35,48 69,-7 111,7 42,20 35,62 63,83 34,28 62,7 97,21 34,13 48,48 83,62l0 0 0 0 0 0z"/>
  <path class="fil0 str2" d="M7311 10058c-236,0 -319,270 -548,243 -42,-14 -542,-250 -715,-354 -90,-56 -139,-202 -236,-167 -104,42 -208,42 -340,42 -69,0 -118,-7 -146,-63 -41,0 -76,35 -118,35 -48,0 -55,-69 -76,-111 -42,-104 -153,-139 -160,-291 49,-42 70,-21 70,-28 173,-118 -111,-139 90,-264 208,-125 146,-139 153,-257 0,-55 76,97 166,153 28,69 56,271 -48,236 -188,-76 -160,0 -215,14 0,0 48,111 27,201 49,35 97,125 132,76 174,-222 222,-131 423,-131 56,0 174,-7 216,-14 41,138 90,69 117,0 35,0 70,0 111,0 223,20 -62,41 -48,118 -132,20 -76,55 35,90 41,14 7,97 159,-21 132,104 167,111 375,56 62,104 -63,90 -63,159 -13,146 118,63 91,-35 34,-55 180,111 138,-111 21,-41 -34,-111 7,-131 63,-28 91,-21 91,-21 76,104 249,139 312,236 7,14 21,41 28,55 -21,42 -77,63 -77,111 0,49 56,77 56,139 0,21 -7,35 -14,49l0 0 7 -14 0 0z"/>
  <path class="fil0 str2" d="M17144 7303c-7,-21 -7,-42 -7,-63 0,-104 34,-69 90,-111 21,-14 0,-48 14,-69 55,-49 104,-69 139,-125 69,-104 145,-146 270,-180 35,-7 49,-63 97,-63 70,0 28,201 125,201 35,0 83,-48 104,-62 77,-42 243,7 243,-118 0,-35 0,-49 0,-69 0,-77 35,-125 56,-188 14,-55 0,-104 34,-145 21,13 28,27 56,27 42,0 55,-34 104,-34 -28,-111 -49,-243 -76,-375 -21,-63 159,-132 159,-236 0,-62 -55,-146 -194,-125 -222,42 -375,-69 -479,180 -83,98 -201,0 -125,-55 77,-69 181,-76 160,-222 -42,-361 -299,-174 -368,-312 -14,-167 326,48 257,-209 -21,-152 55,-124 104,-117 222,34 125,-132 215,-146 139,-21 187,-201 139,-236 -208,111 -153,-153 -347,-42 -104,56 180,-187 -97,-333 -174,104 -340,139 -347,410 0,0 118,-35 201,20 -7,98 0,118 -104,118 -63,0 -125,-104 -312,-27 -236,256 -569,347 -771,631 -55,83 -104,222 -166,319 -97,153 -187,257 -153,285 111,83 111,41 215,55 91,-48 104,104 104,104 -41,35 14,118 -138,63 -56,90 -132,69 -209,21 -62,-35 7,111 -27,222 -35,118 -222,145 -222,312 0,7 0,21 7,35l0 0 0 0 0 0c34,-7 41,7 55,7 76,0 243,90 243,173 0,69 -42,69 -49,104 -13,28 7,49 0,76 -27,84 -111,125 -111,222 0,56 28,63 77,56 14,28 7,49 7,69 0,21 48,56 104,56 34,0 62,-21 97,-21 111,0 62,118 139,125 34,-7 34,-21 62,-35 35,28 56,84 118,84 76,0 83,-42 132,-63 28,-7 48,7 83,0 28,0 77,-55 90,-62 70,-49 118,-14 181,-70 21,-14 14,-27 14,-62l0 0 7 0 0 0z"/>
  <path class="fil2 str3" d="M18691 9586c49,-42 146,-139 146,-215 0,-125 -70,-174 -70,-278 0,-48 35,-83 35,-139 0,-83 -104,-159 -104,-263 0,-63 83,-84 125,-118 48,-35 62,-104 83,-167l0 0 7 7 -7 -7 0 0c-14,-21 -28,-55 -35,-111 0,0 -48,-69 -104,35 -27,35 70,139 -27,125 -91,-28 -250,-382 -375,-514 -76,-83 -7,-132 83,-145 14,-42 0,-63 -55,-105l0 0 0 -159 0 0c27,-63 104,97 145,97 84,-21 -90,-160 -90,-236 7,-395 347,-257 312,-305 -76,-97 -180,-368 -284,-784 -49,0 -69,34 -111,34 -28,0 -35,-14 -56,-27 -34,41 -20,90 -34,145 -21,63 -56,111 -56,188 0,20 0,34 0,69 0,125 -166,76 -243,118 -21,14 -69,62 -104,62 -97,0 -55,-201 -125,-201 -48,0 -55,49 -90,63 -125,34 -208,76 -277,180 -35,56 -84,76 -139,125 -14,21 7,55 -14,69 -56,42 -90,7 -90,111 0,21 -7,49 0,63 20,7 76,0 104,7 34,14 14,62 14,97 7,42 62,42 104,42l0 0 125 104 0 0c0,111 62,83 145,97 70,7 56,139 91,139 27,0 27,-21 48,-21 0,21 28,41 49,41 27,0 48,-27 62,-41 -41,-118 -208,-181 -208,-188 0,-55 76,-249 167,-236 -146,299 194,334 235,431 91,215 -13,284 132,610 42,84 97,243 132,375 97,312 -118,291 76,423 112,77 -20,188 236,424l0 0 42 -21 0 0z"/>
  <path class="fil0 str2" d="M17609 13735c-7,-13 -21,-27 -42,-27 -76,62 -111,208 -174,319 -97,180 -291,326 -353,201 -77,-139 -49,-166 -139,-180 28,-35 34,-56 34,-97 0,-21 0,-14 0,-35 0,-49 35,-35 42,-83l0 0 21 6 0 0c21,0 35,-13 48,-20 0,-28 0,-49 0,-56 0,-62 49,-14 111,-28 14,0 21,-27 35,-27 83,0 146,41 229,41 63,0 49,-34 63,-83 7,-28 69,-14 104,-21l0 0 27 0 0 0c0,49 -6,63 0,90l0 0 -6 0 0 0 0 0z"/>
  <line class="fil1 str4" x1="3217" y1="9849" x2="3217" y2= "9849" />
  <path class="fil1 str4" d="M3217 9849c-14,-13 -28,-27 -35,-41"/>
  <path class="fil1 str4" d="M12814 14055c13,48 13,97 62,111 -28,125 -55,367 -55,374 0,7 -84,153 -153,209 -83,62 -139,131 -146,215 -21,145 -166,111 -166,187 0,14 7,28 7,42"/>
  <path class="fil1 str4" d="M2828 9662c-21,-14 -34,-28 -41,-48 -21,-56 -14,-105 -42,-160 -28,-56 -69,-132 -90,-215"/>
  <path class="fil1 str4" d="M3113 9898c34,-21 76,-42 104,-49 28,21 62,21 90,21"/>
  <polygon class="fil3 str5" points="2597,11540 2351,11409 2103,11537 2151,11262 1952,11066 2228,11027 2353,10778 2476,11029 2752,11070 2551,11264 "/>
  <path class="fil4" d="M3172 4053l315 0 0 662c70,-7 117,-25 142,-54 24,-29 63,-110 114,-242 65,-168 130,-273 196,-314 65,-41 169,-62 314,-62 7,0 22,0 46,-1l0 232 -45 -1c-64,0 -111,8 -141,24 -30,16 -53,40 -72,73 -18,32 -46,99 -81,201 -19,54 -40,98 -63,135 -22,36 -61,70 -117,102 69,19 127,59 172,119 46,60 96,145 150,255l212 425 -369 0 -186 -400c-3,-6 -9,-17 -18,-33 -4,-6 -17,-30 -40,-73 -39,-77 -72,-125 -97,-144 -26,-19 -65,-29 -117,-29l0 679 -315 0 0 -1554z"/>
  <path id="1" class="fil4" d="M5892 5607l-339 0 -134 -354 -623 0 -129 354 -333 0 603 -1554 333 0 622 1554zm-575 -616l-216 -575 -210 575 426 0z"/>
  <polygon id="2" class="fil4" points="6055,5607 6055,4053 6526,4053 6805,5113 7080,4053 7552,4053 7552,5607 7262,5607 7261,4384 6954,5607 6652,5607 6347,4384 6346,5607 "/>
  <path id="3" class="fil4" d="M7841 4053l315 0 0 371c0,120 4,199 13,239 9,39 35,73 79,102 43,29 108,43 192,43 67,0 127,-7 179,-21 52,-15 98,-36 136,-64l0 -670 314 0 0 1554 -314 0 0 -626c-64,28 -127,49 -188,64 -62,14 -122,22 -181,22 -155,0 -285,-37 -389,-110 -104,-73 -156,-200 -156,-380l0 -524z"/>
  <path id="4" class="fil4" d="M10792 5607l-339 0 -134 -354 -624 0 -129 354 -332 0 603 -1554 332 0 623 1554zm-575 -616l-216 -575 -210 575 426 0z"/>
  <polygon id="5" class="fil4" points="11200,5607 11200,4316 10740,4316 10740,4053 11973,4053 11973,4316 11515,4316 11515,5607 "/>
  <path id="6" class="fil4" d="M12181 4053l314 0 0 662c70,-7 118,-25 142,-54 25,-29 63,-110 114,-242 65,-168 131,-273 196,-314 65,-41 170,-62 314,-62 8,0 23,0 46,-1l0 232 -45 -1c-64,0 -111,8 -141,24 -29,16 -53,40 -72,73 -18,32 -45,99 -81,201 -19,54 -40,98 -62,135 -22,36 -62,70 -118,102 70,19 127,59 173,119 45,60 95,145 150,255l211 425 -369 0 -186 -400c-3,-6 -9,-17 -18,-33 -4,-6 -17,-30 -39,-73 -40,-77 -72,-125 -98,-144 -25,-19 -64,-29 -117,-29l0 679 -314 0 0 -1554z"/>
  <path id="7" class="fil4" d="M14900 5607l-338 0 -135 -354 -623 0 -129 354 -333 0 604 -1554 332 0 622 1554zm-575 -616l-216 -575 -209 575 425 0z"/>
  <polyline class="fil1 str6" points="2852,5957 15078,5957 18111,7263 "/>
  <rect class="fil1" width="20108" height="20108"/>
 </g>
</svg>
