<?xml version="1.0" encoding="UTF-8"?>
<!DOCTYPE svg PUBLIC "-//W3C//DTD SVG 1.1//EN" "http://www.w3.org/Graphics/SVG/1.1/DTD/svg11.dtd">
<!-- Creator: CorelDRAW X7 -->
<svg xmlns="http://www.w3.org/2000/svg" xml:space="preserve" width="100%" height="100%" version="1.1" style="shape-rendering:geometricPrecision; text-rendering:geometricPrecision; image-rendering:optimizeQuality; fill-rule:evenodd; clip-rule:evenodd"
viewBox="0 0 17639 17639"
 xmlns:xlink="http://www.w3.org/1999/xlink">
 <defs>
  <style type="text/css">
   <![CDATA[
    .fil1 {fill:none}
    .fil0 {fill:#FEFEFE;fill-rule:nonzero}
   ]]>
  </style>
 </defs>
 <g id="Слой_x0020_1">
  <metadata id="CorelCorpID_0Corel-Layer"/>
  <path class="fil0" d="M4974 2355l452 0 462 1028 396 -1028 418 0 -672 1509c-73,163 -147,288 -223,373 -76,86 -173,128 -293,128 -119,0 -211,-8 -278,-23l0 -299c57,4 108,6 154,6 93,0 159,-17 199,-51 40,-34 79,-108 116,-220l-731 -1423z"/>
  <path id="1" class="fil0" d="M6940 2355l1390 0 0 1985 -402 0 0 -1650 -596 0 0 848c0,242 -8,412 -24,508 -16,96 -56,171 -119,225 -62,53 -160,80 -294,80 -47,0 -132,-4 -256,-13l0 -311 90 1c83,0 140,-11 169,-34 29,-22 43,-78 43,-166l-1 -341 0 -1132z"/>
  <path id="2" class="fil0" d="M8660 3359c0,-202 30,-372 91,-510 44,-101 106,-192 184,-272 79,-81 164,-140 257,-180 124,-52 267,-78 428,-78 293,0 527,91 703,272 176,182 264,435 264,759 0,321 -88,573 -262,754 -174,182 -407,272 -699,272 -295,0 -531,-90 -705,-271 -174,-180 -261,-428 -261,-746zm413 -13c0,225 52,396 156,512 104,116 236,174 396,174 160,0 292,-57 395,-172 102,-116 154,-289 154,-519 0,-228 -50,-398 -151,-510 -99,-113 -232,-168 -398,-168 -165,0 -299,56 -400,170 -101,113 -152,284 -152,513z"/>
  <path id="3" class="fil0" d="M10900 2355l794 0c157,0 274,6 351,19 78,14 147,41 208,82 61,42 112,97 152,165 41,69 61,147 61,232 0,93 -25,178 -75,256 -49,77 -117,135 -203,174 121,35 213,95 278,180 65,85 97,185 97,300 0,91 -20,179 -63,264 -42,86 -99,154 -172,205 -72,51 -162,83 -269,95 -66,7 -228,11 -483,13l-676 0 0 -1985zm402 330l0 457 262 0c156,0 253,-2 291,-7 68,-8 122,-31 162,-70 39,-40 58,-91 58,-155 0,-61 -17,-111 -51,-149 -33,-38 -84,-61 -150,-69 -40,-5 -154,-7 -342,-7l-230 0zm0 787l0 533 371 0c144,0 236,-5 275,-12 60,-11 108,-38 146,-80 37,-42 56,-98 56,-169 0,-60 -14,-110 -43,-152 -29,-42 -71,-72 -126,-91 -54,-19 -173,-29 -355,-29l-324 0z"/>
  <path id="4" class="fil0" d="M4560 10419l0 896 -3394 0c36,-341 147,-663 330,-968 184,-304 547,-709 1088,-1213 436,-407 703,-683 802,-828 133,-200 200,-397 200,-594 0,-216 -58,-382 -174,-498 -115,-117 -275,-174 -479,-174 -202,0 -362,61 -482,183 -119,121 -187,323 -206,607l-966 -97c57,-534 237,-917 541,-1150 303,-231 682,-348 1137,-348 498,0 890,135 1176,405 284,269 427,604 427,1005 0,228 -41,445 -123,652 -81,205 -210,421 -388,646 -116,151 -329,366 -635,647 -307,281 -501,467 -582,560 -82,92 -148,182 -199,269l1927 0z"/>
  <path id="5" class="fil0" d="M6850 6235c490,0 872,175 1148,526 328,414 493,1102 493,2061 0,959 -166,1648 -496,2066 -274,346 -655,519 -1145,519 -491,0 -887,-189 -1188,-568 -302,-379 -452,-1055 -452,-2026 0,-954 166,-1641 496,-2059 274,-346 655,-519 1144,-519zm0 805c-115,0 -218,37 -308,112 -90,74 -161,209 -210,403 -66,250 -99,673 -99,1267 0,595 29,1003 88,1226 59,222 133,370 222,444 90,74 192,111 307,111 116,0 219,-38 310,-113 89,-74 160,-208 209,-402 66,-249 99,-671 99,-1266 0,-594 -30,-1002 -88,-1224 -59,-222 -133,-372 -223,-446 -89,-75 -191,-112 -307,-112z"/>
  <path id="6" class="fil0" d="M11611 11315l-967 0 0 -3657c-353,332 -769,577 -1249,736l0 -882c253,-82 527,-238 822,-470 296,-231 499,-500 609,-807l785 0 0 5080z"/>
  <path id="7" class="fil0" d="M13072 10018l967 -100c28,219 109,393 244,521 137,128 293,192 471,192 202,0 374,-83 514,-248 140,-166 210,-415 210,-748 0,-313 -69,-547 -209,-703 -139,-157 -320,-234 -543,-234 -279,0 -530,122 -751,366l-783 -112 494 -2625 2561 0 0 903 -1826 0 -153 860c215,-107 436,-161 662,-161 431,0 795,156 1094,470 300,313 449,720 449,1220 0,418 -121,790 -362,1118 -329,446 -786,670 -1369,670 -467,0 -848,-126 -1142,-376 -295,-252 -470,-588 -528,-1013z"/>
  <path id="8" class="fil0" d="M1443 13335l402 0 0 846c89,-10 149,-32 181,-70 31,-37 80,-140 146,-309 83,-215 166,-349 250,-401 83,-52 217,-79 401,-79 10,0 29,0 59,-1l0 297 -57 -2c-82,0 -143,10 -180,31 -38,20 -69,51 -92,93 -24,41 -59,127 -104,256 -25,69 -51,126 -80,173 -28,46 -78,89 -151,130 90,25 163,76 221,153 59,77 122,185 192,325l270 543 -471 0 -238 -511c-4,-7 -12,-21 -23,-42 -5,-7 -22,-38 -50,-93 -51,-98 -93,-159 -125,-184 -33,-24 -82,-37 -149,-38l0 868 -402 0 0 -1985z"/>
  <path id="9" class="fil0" d="M4918 15320l-433 0 -172 -452 -796 0 -165 452 -425 0 771 -1985 425 0 795 1985zm-735 -787l-276 -735 -268 735 544 0z"/>
  <polygon id="10" class="fil0" points="5126,15320 5126,13335 5729,13335 6084,14689 6436,13335 7040,13335 7040,15320 6668,15320 6667,13757 6275,15320 5889,15320 5499,13757 5498,15320 "/>
  <path id="11" class="fil0" d="M7408 13335l403 0 0 474c0,153 5,255 17,305 11,50 44,93 100,130 56,37 138,56 246,56 86,0 162,-9 229,-28 67,-18 124,-46 173,-82l0 -855 402 0 0 1985 -402 0 0 -800c-81,36 -161,64 -240,82 -79,19 -156,28 -232,28 -197,0 -363,-47 -496,-140 -133,-94 -200,-255 -200,-486l0 -669z"/>
  <path id="12" class="fil0" d="M11179 15320l-433 0 -172 -452 -796 0 -165 452 -425 0 771 -1985 424 0 796 1985zm-735 -787l-276 -735 -268 735 544 0z"/>
  <polygon id="13" class="fil0" points="11701,15320 11701,13670 11113,13670 11113,13335 12688,13335 12688,13670 12103,13670 12103,15320 "/>
  <path id="14" class="fil0" d="M12954 13335l402 0 0 846c89,-10 150,-32 181,-70 32,-37 81,-140 146,-309 83,-215 167,-349 250,-401 83,-52 217,-79 402,-79 9,0 28,0 58,-1l0 297 -57 -2c-82,0 -142,10 -180,31 -38,20 -68,51 -92,93 -24,41 -58,127 -104,256 -25,69 -51,126 -80,173 -28,46 -78,89 -150,130 89,25 163,76 221,153 58,77 122,185 191,325l270 543 -471 0 -238 -511c-4,-7 -12,-21 -23,-42 -5,-7 -21,-38 -50,-93 -51,-98 -92,-159 -125,-184 -33,-24 -82,-37 -149,-38l0 868 -402 0 0 -1985z"/>
  <path id="15" class="fil0" d="M16429 15320l-433 0 -171 -452 -797 0 -165 452 -425 0 771 -1985 425 0 795 1985zm-735 -787l-275 -735 -269 735 544 0z"/>
  <rect class="fil1" width="17639" height="17639"/>
 </g>
</svg>
