<?xml version="1.0" encoding="UTF-8"?>
<!DOCTYPE svg PUBLIC "-//W3C//DTD SVG 1.1//EN" "http://www.w3.org/Graphics/SVG/1.1/DTD/svg11.dtd">
<!-- Creator: CorelDRAW X7 -->
<svg xmlns="http://www.w3.org/2000/svg" xml:space="preserve" width="100%" height="100%" version="1.1" style="shape-rendering:geometricPrecision; text-rendering:geometricPrecision; image-rendering:optimizeQuality; fill-rule:evenodd; clip-rule:evenodd"
viewBox="0 0 17484 17484"
 xmlns:xlink="http://www.w3.org/1999/xlink">
 <defs>
  <style type="text/css">
   <![CDATA[
    .fil0 {fill:none}
    .fil1 {fill:#A2D9F7}
    .fil2 {fill:#FEFEFE;fill-rule:nonzero}
   ]]>
  </style>
 </defs>
 <g id="Слой_x0020_1">
  <metadata id="CorelCorpID_0Corel-Layer"/>
  <g id="_724464632">
   <rect class="fil0" width="17484" height="17484"/>
   <path class="fil1" d="M7684 11651c-3696,-113 -6347,-951 -7403,-2894 1214,-2161 4034,-2789 7403,-2895 1179,-793 2746,-903 4732,-278l-1169 947c1924,1780 3923,1020 5955,-836 -1162,2132 -988,4159 0,6123 -1913,-1832 -3869,-2734 -5955,-835l1169 947c-1714,502 -3329,576 -4732,-279zm-4991 -3976c0,-172 -139,-312 -312,-312 -172,0 -312,140 -312,312 0,172 140,312 312,312 173,0 312,-140 312,-312zm1442 -681c245,612 218,1351 26,2007 -210,715 -618,1335 -1086,1590l-73 -133c433,-235 814,-821 1013,-1500 184,-626 211,-1329 -20,-1907l140 -57z"/>
   <path class="fil2" d="M4526 9038l0 -374c122,-130 265,-195 427,-195 60,0 116,6 167,18 51,12 142,44 275,96 131,52 221,78 268,78 54,0 116,-16 187,-49 70,-32 139,-84 207,-155l0 390c-45,45 -107,88 -186,128 -79,40 -161,60 -245,60 -48,0 -95,-5 -141,-17 -45,-11 -118,-38 -217,-80 -148,-63 -263,-94 -348,-94 -135,0 -266,64 -394,194z"/>
   <polygon id="1" class="fil2" points="8003,9784 8003,9380 8407,9380 8407,9784 "/>
   <path id="2" class="fil2" d="M8742 9242l404 -42c12,92 46,164 102,218 57,54 123,80 197,80 85,0 156,-34 215,-104 58,-69 88,-173 88,-312 0,-131 -29,-229 -88,-294 -58,-65 -133,-98 -227,-98 -116,0 -221,51 -313,154l-328 -48 207 -1096 1070 0 0 377 -763 0 -64 359c90,-44 182,-67 277,-67 180,0 332,65 457,196 125,131 187,301 187,510 0,175 -50,330 -151,467 -138,187 -328,280 -572,280 -195,0 -354,-52 -477,-157 -123,-105 -197,-246 -221,-423z"/>
   <path id="3" class="fil2" d="M6963 7661c205,0 364,74 480,220 137,173 206,460 206,861 0,401 -70,689 -208,864 -114,144 -273,216 -478,216 -205,0 -371,-79 -497,-237 -125,-158 -188,-441 -188,-847 0,-398 69,-685 207,-860 114,-144 274,-217 478,-217zm0 336c-48,0 -91,16 -129,48 -37,31 -67,87 -88,168 -27,104 -41,281 -41,529 0,249 12,419 37,512 25,93 56,155 93,186 37,31 80,46 128,46 48,0 91,-15 129,-47 38,-31 67,-87 88,-168 27,-104 41,-280 41,-529 0,-248 -12,-418 -37,-511 -24,-93 -55,-155 -93,-186 -37,-32 -80,-48 -128,-48z"/>
   <path id="4" class="fil2" d="M10447 8254l404 0 0 625c67,-8 115,-29 143,-62 27,-33 61,-107 101,-220 52,-150 108,-246 170,-289 61,-42 142,-63 242,-63 31,0 84,3 160,7l2 267c-107,0 -176,10 -205,30 -30,21 -62,84 -97,189 -47,140 -115,227 -204,260 128,35 236,147 325,334 4,10 9,20 15,30l226 422 -435 0 -201 -444c-41,-89 -77,-147 -108,-172 -30,-26 -75,-38 -134,-38l0 654 -404 0 0 -1530z"/>
   <polygon id="5" class="fil2" points="11922,8254 12957,8254 12957,8581 12326,8581 12326,9784 11922,9784 "/>
  </g>
 </g>
</svg>
