<?xml version="1.0" encoding="UTF-8"?>
<!DOCTYPE svg PUBLIC "-//W3C//DTD SVG 1.1//EN" "http://www.w3.org/Graphics/SVG/1.1/DTD/svg11.dtd">
<!-- Creator: CorelDRAW X7 -->
<svg xmlns="http://www.w3.org/2000/svg" xml:space="preserve" width="100%" height="100%" version="1.1" style="shape-rendering:geometricPrecision; text-rendering:geometricPrecision; image-rendering:optimizeQuality; fill-rule:evenodd; clip-rule:evenodd"
viewBox="0 0 17484 17484"
 xmlns:xlink="http://www.w3.org/1999/xlink">
 <defs>
  <style type="text/css">
   <![CDATA[
    .fil0 {fill:none}
    .fil1 {fill:#A2D9F7}
    .fil2 {fill:#FEFEFE;fill-rule:nonzero}
   ]]>
  </style>
 </defs>
 <g id="Слой_x0020_1">
  <metadata id="CorelCorpID_0Corel-Layer"/>
  <g id="_732017312">
   <rect class="fil0" width="17484" height="17484"/>
   <g>
    <path class="fil1" d="M7684 11651c-3696,-113 -6347,-951 -7403,-2894 1214,-2161 4034,-2789 7403,-2895 1179,-793 2746,-903 4732,-278l-1169 947c1924,1780 3923,1020 5955,-836 -1162,2132 -988,4159 0,6123 -1913,-1832 -3869,-2734 -5955,-835l1169 947c-1714,502 -3329,576 -4732,-279zm-4991 -3976c0,-172 -139,-312 -312,-312 -172,0 -312,140 -312,312 0,172 140,312 312,312 173,0 312,-140 312,-312zm1442 -681c245,612 218,1351 26,2007 -210,715 -618,1335 -1086,1590l-73 -133c433,-235 814,-821 1013,-1500 184,-626 211,-1329 -20,-1907l140 -57z"/>
    <path class="fil2" d="M6714 9410l0 374 -1418 0c15,-142 61,-277 138,-404 76,-128 228,-297 454,-507 183,-170 294,-286 335,-346 56,-84 84,-166 84,-249 0,-90 -24,-159 -73,-208 -48,-48 -115,-73 -200,-73 -84,0 -151,26 -201,77 -50,51 -78,135 -86,254l-404 -41c24,-223 99,-383 226,-480 127,-97 285,-146 475,-146 208,0 372,57 491,169 119,113 179,253 179,420 0,96 -17,186 -51,273 -34,86 -88,176 -163,270 -48,63 -137,153 -265,270 -128,118 -209,195 -243,234 -34,38 -62,76 -83,113l805 0z"/>
    <polygon id="1" class="fil2" points="7027,9221 7027,8817 7823,8817 7823,9221 "/>
    <path id="2" class="fil2" d="M7973 9242l404 -42c12,92 46,164 102,218 57,54 123,80 197,80 84,0 156,-34 214,-104 59,-69 88,-173 88,-312 0,-131 -29,-229 -87,-294 -58,-65 -134,-98 -227,-98 -116,0 -221,51 -314,154l-327 -48 207 -1096 1070 0 0 377 -763 0 -64 359c90,-44 182,-67 276,-67 180,0 333,65 457,196 126,131 188,301 188,510 0,175 -50,330 -151,467 -138,187 -328,280 -572,280 -195,0 -354,-52 -477,-157 -124,-105 -197,-246 -221,-423z"/>
    <path id="3" class="fil2" d="M9678 8254l404 0 0 625c67,-8 115,-29 143,-62 27,-33 61,-107 100,-220 52,-150 109,-246 171,-289 61,-42 142,-63 242,-63 31,0 84,3 160,7l2 267c-107,0 -176,10 -205,30 -30,21 -63,84 -97,189 -47,140 -115,227 -204,260 128,35 236,147 324,334 5,10 10,20 16,30l226 422 -435 0 -201 -444c-41,-89 -77,-147 -108,-172 -30,-26 -75,-38 -134,-38l0 654 -404 0 0 -1530z"/>
    <polygon id="4" class="fil2" points="11153,8254 12188,8254 12188,8581 11557,8581 11557,9784 11153,9784 "/>
   </g>
  </g>
 </g>
</svg>
