<?xml version="1.0" encoding="UTF-8"?>
<!DOCTYPE svg PUBLIC "-//W3C//DTD SVG 1.1//EN" "http://www.w3.org/Graphics/SVG/1.1/DTD/svg11.dtd">
<!-- Creator: CorelDRAW X7 -->
<svg xmlns="http://www.w3.org/2000/svg" xml:space="preserve" width="100%" height="100%" version="1.1" style="shape-rendering:geometricPrecision; text-rendering:geometricPrecision; image-rendering:optimizeQuality; fill-rule:evenodd; clip-rule:evenodd"
viewBox="0 0 17639 17639"
 xmlns:xlink="http://www.w3.org/1999/xlink">
 <defs>
  <style type="text/css">
   <![CDATA[
    .fil0 {fill:none}
    .fil6 {fill:#F5B2B6}
    .fil2 {fill:#4E4E4F}
    .fil5 {fill:#5E5D5D}
    .fil4 {fill:#7F7F80}
    .fil1 {fill:#E1DFD3}
    .fil3 {fill:#E1DFD3}
    .fil7 {fill:#4E4E4F;fill-rule:nonzero}
   ]]>
  </style>
 </defs>
 <g id="Слой_x0020_1">
  <metadata id="CorelCorpID_0Corel-Layer"/>
  <rect class="fil0" width="17639" height="17639"/>
  <path class="fil1" d="M2318 11908l0 0zm5921 2318l-37 0c-6,-1 -11,-2 -15,-3 -46,-17 -79,-85 -79,-134l-35 34c-12,10 -24,18 -42,20 -47,7 -63,-22 -80,-47 -150,0 -123,-82 -123,-143 -48,-26 -98,-25 -118,-87 -18,-55 -14,-95 -73,-132 -49,-31 -120,1 -166,12 -35,9 -51,9 -94,8 -43,0 -63,4 -96,7 0,-67 -4,-52 -27,-103 -17,-37 2,-60 -62,-61 -20,38 -34,114 -100,102 -48,-9 -57,-92 -70,-130l-125 -373c-54,-152 -51,-208 -161,-332 -51,-58 -56,-52 -56,-142l-127 37c-22,8 -37,16 -59,24 -91,30 -128,77 -180,44 -40,-25 -11,-10 -63,-18 -31,-5 -29,-11 -50,-25 0,-52 0,-59 27,-83 -32,-8 -23,-23 -44,-30 -35,-12 -13,13 -54,-1 -33,-12 -36,-61 -52,-92 -23,13 -39,33 -73,27 -32,-6 -29,-20 -84,-20l0 -75c92,-61 42,-113 20,-205 -40,0 -61,-5 -84,-25 -20,-19 -26,-37 -49,-53 -99,-69 -204,22 -244,29 -63,10 -140,2 -204,1 -77,-1 -40,10 -82,21 -18,-14 -31,-40 -48,-55 -32,8 -41,28 -73,35 -27,7 -34,-12 -83,-7 -82,10 -97,-19 -165,-35 -47,-10 -158,8 -199,-13 -50,-24 -77,-62 -143,-62 -10,15 -15,20 -20,41 30,7 45,24 61,48 -14,21 -22,31 -54,34 18,27 46,31 70,60 20,23 23,63 -4,82 -59,41 -123,-46 -189,-46 -18,26 -20,28 -26,63 -9,55 -12,105 -78,89 -33,-8 -33,-9 -74,-9 17,26 45,38 20,89 74,17 28,57 73,85 13,8 19,6 31,17 17,15 26,45 18,81 -17,81 -103,120 -190,119 -80,-2 -67,-57 -116,-90 -42,4 -44,31 -101,19 -93,-19 -100,-145 -138,-217 -87,0 -118,14 -153,-46 -32,-54 -41,-76 -124,-46 -56,21 -87,41 -150,5 -42,-23 -61,-67 -66,-125 -57,-5 -80,-45 -98,-93 -17,-42 -31,-98 -31,-153 -21,-5 -23,-8 -47,-15 -14,-4 -31,-8 -44,-18 -26,-21 -19,-59 -19,-104 -52,0 -88,13 -121,-15 -77,-63 -8,-113 -177,-65 -72,21 -58,9 -116,-5 -34,-8 -68,18 -110,25 -59,11 -58,10 -79,65 -15,37 -30,68 -68,76 -54,11 -78,-18 -115,-26 0,-33 -5,-139 -14,-158 -27,19 -16,21 -58,31 -42,10 -98,15 -125,46 -19,22 -11,33 -22,60 -28,75 -88,69 -142,111 -22,18 -22,23 -22,60 23,15 47,32 62,55 -16,68 -62,47 -62,123 38,9 78,16 100,43 54,66 41,301 10,367 -31,-15 -40,-15 -69,-34 0,46 -6,57 19,84 18,20 35,30 50,53 -39,0 -48,-7 -89,-7 -151,-1 -145,18 -256,-11 -73,-19 -79,18 -115,57 -62,67 -161,48 -181,100 -11,29 -10,48 2,75 19,41 61,73 26,137 -27,50 -72,82 -107,125 -53,63 -25,111 -19,187 2,31 -2,62 2,94 33,253 -14,162 -158,187 -46,8 -75,58 -133,1 -12,-12 -30,-41 -35,-61 -18,-66 15,-82 -20,-171 -22,-55 -9,-89 -57,-128 -59,-48 -47,-136 12,-175 -9,-19 -9,-36 -17,-59 -8,-24 -11,-27 -29,-39 -46,-30 -46,-15 -71,-66 -43,0 -84,-8 -114,-23 -39,-19 -42,-57 -22,-87 -11,-15 -14,-17 -26,-36 -9,-16 -14,-23 -24,-37 -23,-37 -30,-88 -51,-127 -21,-40 -134,-113 -192,-218 -13,-24 -23,-64 -34,-82 -14,-21 -42,-38 -49,-67 -33,9 -8,12 -41,20 -64,-120 -28,-218 -62,-327 -18,-57 -31,-44 -48,-76 -28,-53 24,-37 -1,-101 -12,-31 -25,-53 -37,-87 -23,-68 12,-176 -57,-195 14,-21 77,-58 102,-75 26,19 77,130 110,130 50,0 18,-151 225,-41 -5,-57 -56,-77 -82,-116 72,-6 27,-38 64,-67 34,-26 59,11 78,27 39,36 119,53 193,53 -13,-18 -15,-14 -41,-20 -48,-13 -80,-47 -109,-55 2,-27 14,-36 32,-56 71,-80 105,-62 159,-26 40,-9 55,-23 94,9 42,34 83,130 139,39 20,-33 20,-56 20,-109 34,-8 19,-14 68,-14l0 -55c57,0 85,7 123,-13 -2,-30 -12,-44 -21,-68 -32,-88 -18,-77 -70,-183 -16,-35 -8,-31 -42,-46 -75,-35 -44,-113 -44,-189 -109,-25 -128,-35 -130,-143 -60,-5 -106,-72 -60,-122 22,-25 33,-12 50,-52 9,-18 23,-60 20,-77 -7,-37 -146,-104 -28,-198 23,-19 32,-30 72,-30 0,-80 28,-67 28,-137 -104,-54 -82,14 -151,-116 -45,4 -89,12 -109,-27 -33,-62 13,-122 59,-153 109,-75 10,-33 78,-134 57,0 73,10 100,43 24,28 38,57 78,66 4,-17 13,-29 20,-49 24,-71 -41,-34 -41,-149l55 0c-7,-77 -10,-61 10,-133 13,-43 21,-77 31,-120 65,0 63,3 86,-43 16,-31 31,-49 71,-53 -26,-112 -2,-96 -116,-157 0,-67 11,-45 41,-89 -16,-30 -17,-23 -36,-47 -61,-77 17,-115 33,-154 17,-39 19,-80 40,-118 21,-39 46,-46 93,-57 -13,-27 -23,-77 1,-101 30,-29 64,-16 101,-15 24,-45 22,-73 64,-108 30,-25 69,-49 80,-90 30,0 66,1 96,0 40,-2 38,-14 81,-14l0 -75c52,35 49,-25 115,8 32,16 64,36 104,40 0,-55 4,-83 17,-128l38 -105c51,4 104,26 157,28 95,2 182,-3 268,-13 42,-5 214,-18 231,-35 14,-30 27,-79 28,-123l-7 -144c42,-29 42,-20 109,-20 44,-66 12,-54 29,-115 12,-44 62,3 72,-64 4,-23 -4,-52 5,-71 11,-25 22,-11 44,-24 15,-9 44,-65 55,-82 49,1 55,13 99,-17 47,-33 77,-111 99,-161 15,-32 23,-58 46,-84 90,-98 234,29 225,-157 -5,-101 36,-207 142,-234 170,-45 200,30 301,70 60,23 123,-39 159,87l30 93c-22,32 -49,34 -77,2l-16 -19c0,-2 -2,-3 -3,-4 2,29 20,38 34,55 -6,25 -11,33 -27,48 87,0 83,40 122,137 23,58 50,46 49,122 -3,244 98,324 89,506 -5,98 -46,184 -107,229 -67,51 -167,76 -270,46 -171,-50 -258,-209 -304,-373 -19,-67 -45,-124 -60,-193l-12 -50c-6,-18 -1,-6 -6,-14 0,89 27,223 -9,299 -20,43 -43,59 -81,83 -45,27 -38,15 -64,59 -6,12 -5,8 -12,22 -18,30 -43,76 -48,116 -4,26 5,32 2,70 -2,26 -7,33 -7,68 0,72 -4,165 81,154 66,-9 49,-66 -26,-105 2,-102 34,-194 143,-185 98,8 74,65 87,132 15,74 48,174 112,217 0,-25 5,-93 9,-121 6,-35 16,-73 36,-93 23,-22 54,-34 98,-33 45,1 68,13 103,21 170,39 175,-104 277,37 20,28 29,50 44,79 28,-18 29,-22 63,-32 107,-33 -21,-92 21,-171 21,-38 59,-54 94,-77 159,-105 71,-87 102,-219 67,-15 86,49 128,98 67,76 65,16 87,152 12,73 -2,160 -78,154 -25,-2 -60,-21 -90,-28 -61,-14 -39,10 -81,21 19,40 32,108 21,157 26,18 41,52 75,61 6,-24 9,-18 25,-36 88,-93 117,-118 271,-96 86,12 173,11 259,-3 84,-14 24,29 80,67 7,-24 20,-33 28,-68 63,0 206,-13 220,32 12,36 -29,45 -61,59 -35,16 -59,18 -50,59 -17,4 -40,5 -55,14 19,4 47,13 62,20 36,17 17,17 41,35 40,-22 60,-38 96,-62 8,11 49,42 64,52 104,68 171,12 278,3 17,26 41,58 20,102 52,0 49,14 96,14 0,-45 -11,-109 -14,-151 -2,-38 13,-45 1,-69 -2,-5 -30,-40 -35,-47 -60,-79 -63,-81 2,-148 29,-29 10,-18 25,-50l55 41c47,32 21,51 48,88 6,8 13,14 18,24 14,25 9,44 9,79 23,7 27,16 43,33 91,93 208,91 274,225l49 94c30,66 59,130 97,191 24,39 35,52 84,52 18,-75 -8,-109 -19,-179 -14,-87 -63,-60 -95,-117 -31,-54 28,-99 58,-136 39,-48 36,-85 52,-105 8,-8 12,-5 25,-23 -17,-73 -76,-87 -9,-173 46,-58 145,4 239,-171 29,-55 71,-186 114,-214 21,-14 37,-11 48,-34 9,-18 13,-38 30,-52 36,-31 74,-26 138,-26l0 68 21 0 0 89c-32,-8 -82,-29 -103,0 39,9 121,49 141,78 34,49 21,112 2,167 -32,88 -46,65 -97,115 -34,34 -49,121 -5,153 3,-146 61,-189 191,-219 14,-60 19,-132 35,-198 -26,-3 -32,-10 -48,-21l0 -82c53,4 54,27 123,27 -3,29 -8,23 -14,48 34,9 32,27 38,65 22,149 -38,185 -52,243 15,-11 39,-44 48,-62 43,29 83,73 123,82 -37,-55 -41,-33 -34,-68 -59,0 -61,-17 -61,-75 64,-43 64,-18 68,-55 39,0 61,1 85,18 30,22 19,42 4,64 35,-8 27,-7 27,-48 42,28 76,80 119,114 37,28 82,84 93,132l55 0c-46,-68 8,-55 -68,-95 -93,-50 -42,-143 -41,-179 0,-28 -12,-41 -20,-61 -101,-239 180,-187 292,-189 7,0 24,-2 35,-2 128,-3 140,-39 198,0 -11,-50 -68,-148 -43,-214 6,-16 41,-62 53,-77 30,-38 90,-105 127,-133 25,-19 49,-37 75,-55 31,-20 51,-25 92,-38 34,-11 71,-16 100,-30 -17,-25 -28,-23 -28,-68 27,-18 20,-22 63,-27 33,-3 49,-3 79,-9 23,-5 44,-15 63,-26 1,0 103,-92 103,34 31,-20 34,-45 75,-54 -6,-24 -19,-31 -12,-59 20,-73 144,20 140,-63 -3,-77 -66,-46 12,-163 28,-42 42,-87 77,-141 20,-29 41,-55 90,-52 37,2 88,19 108,42 9,9 25,34 27,48 3,20 -7,33 -11,53 131,0 155,57 102,157 32,-8 33,-28 39,-57 8,-33 -7,-14 16,-32 28,-23 150,-40 205,-20 52,19 130,79 164,123 16,20 27,29 43,53 66,100 83,152 42,292 -35,122 -111,228 -119,256 51,-12 13,-10 84,21l-53 193c23,29 38,10 54,51 11,30 10,45 26,75 71,131 150,68 171,239 14,105 59,69 90,125 -6,52 -47,51 -84,77 -31,22 -80,175 -96,218 -27,72 22,67 18,121 -137,23 -99,22 -182,112 -80,88 -73,-1 24,206 55,117 99,246 99,381 1,87 -108,64 -87,155 24,12 68,17 94,27 6,67 -29,91 10,162 25,45 61,68 85,107 40,65 -19,65 -36,128 -8,31 -9,155 0,179 11,14 3,13 32,18 47,9 85,-13 131,6 80,32 103,9 176,22 -1,51 -58,91 -1,111 77,26 105,14 139,114 13,40 9,78 27,116 20,40 51,36 92,58 10,73 -10,119 33,180 29,43 71,60 118,93 -10,102 -25,20 -25,246 0,64 -14,216 21,257 51,63 150,18 193,-19 46,-39 85,-121 153,-129 37,32 47,76 118,63 47,-129 81,-128 113,-207 28,-71 19,-212 70,-252 29,-22 94,-31 133,-17 78,27 63,145 162,159 95,13 75,-48 108,-54 55,-10 47,111 95,152 56,48 95,52 137,116 68,106 89,260 269,240 36,-67 76,-78 175,-78 76,1 171,10 239,-13 121,-42 96,4 175,39 77,34 142,-14 206,-34 97,-30 105,9 190,-63 23,-19 44,-53 63,-66 77,-52 100,29 238,-145 23,-28 39,-45 62,-68 29,-28 52,-26 78,-51 4,-52 -13,-182 -16,-247 -3,-96 -72,-87 -147,-117 6,-34 26,-28 30,-68 13,-135 -12,-95 -115,-127 12,-26 7,-11 24,-29 9,-10 16,-19 20,-36 9,-33 0,-68 -9,-100 -51,-195 2,-197 121,-278 80,-54 41,-96 71,-148 41,-24 90,-4 131,-47 36,-38 28,-94 28,-151 77,-46 36,-132 -14,-185 -38,-40 -123,-82 -137,-150 -19,-96 58,-130 36,-241 -12,-58 -74,-171 -67,-211 33,-37 126,-23 170,-14 75,17 98,-18 122,-65 41,-79 49,-60 122,-59 62,1 65,-72 57,-125 -6,-18 -10,-7 -18,-16l-19 -26c-9,-9 -3,2 -16,-19 -35,-55 -18,-38 -28,-103 -6,-36 -29,-46 -62,-60 -45,-18 -36,-30 -63,-67 -52,-72 -119,-171 -47,-269 34,-47 39,-20 86,-43 16,-23 18,-56 5,-81 -17,-32 -43,-25 -52,-58 18,-18 36,-24 61,-46 28,-26 23,-52 41,-76 157,68 123,-77 160,-154 32,-69 52,0 18,-112 -16,-51 -47,-65 -90,-87 -1,-200 -20,-129 -86,-187 4,-34 23,-29 41,-61 -7,-60 -23,-34 -53,-68 13,-77 112,-41 132,-157l71 -3c8,-32 1,-66 7,-91 8,-29 30,-28 34,-64 2,-33 -18,-49 -33,-64 -17,-18 -39,-23 -52,-44 -28,-48 -21,-90 -101,-90 -70,0 -85,43 -153,-5 -9,-30 0,-44 -18,-84 -55,-10 -114,4 0,-151 17,-24 40,-54 38,-93 -4,-80 15,-43 36,-99 32,-84 -45,-140 -89,-169 -50,-32 -143,-70 -211,-53 -16,-35 17,-105 46,-134 50,-51 56,-47 100,-85 139,-122 -39,-339 112,-260 68,37 131,18 146,-36 29,7 53,20 88,21 16,-23 36,-66 29,-96 -12,-46 -27,-63 -71,-57 -135,16 -136,-3 -210,-53 0,-58 22,-81 46,-117 113,-169 98,-144 181,-311 46,-91 63,-126 130,-199 50,-54 115,-102 175,-146 63,-47 131,-86 198,-130 33,-23 64,-44 96,-68 42,-32 141,-132 177,-144 143,-48 189,36 268,36 77,0 55,-33 68,-90 -136,-72 -183,42 -178,-60 6,-121 73,-199 169,-256 63,-37 132,-89 169,-69 53,28 101,90 99,152 0,12 -11,59 -15,73 -9,25 -19,32 -25,58 70,-37 114,-27 163,22 47,48 67,57 152,12 57,86 -19,188 -78,217 -64,31 -57,-12 -89,82 -30,89 -115,61 -183,56 -97,-6 -31,124 -44,174 -29,116 -237,8 -235,100 30,112 243,-13 310,202 10,34 18,72 18,113 1,143 -172,148 -164,211 3,25 75,82 130,-27 80,-161 194,-116 328,-123 70,-4 130,-30 198,0 70,30 111,116 19,210 -97,99 -102,35 -64,225 13,65 24,126 38,187l28 3c-53,1 -52,7 -91,24 -45,20 -43,-8 -80,-22 -63,67 -26,92 -57,171 -31,81 -42,91 -42,194 0,128 -125,45 -221,117 -22,17 -39,40 -75,37 -48,-53 -17,-185 -110,-175 -53,7 -46,42 -86,58 -137,57 -150,39 -255,177 -23,30 -47,45 -76,67 -39,29 -47,32 -49,93 -35,17 -69,21 -81,57 -10,28 -14,97 -3,123 20,27 72,17 106,18 -1,62 -16,102 45,119 30,8 44,1 68,15 13,8 32,28 48,40 64,46 23,69 60,104 29,27 102,20 142,29 54,151 33,111 94,116 35,3 43,49 113,-1l9 -7c0,119 -45,96 17,233 29,66 102,143 18,188 -26,-14 -19,-6 -38,-32 -11,-15 -17,-27 -31,-37 -28,19 -25,25 -41,55 -32,-3 -39,-14 -53,-35 -13,-20 -19,-30 -31,-52 -16,-29 -43,-82 -66,-98 6,76 25,116 -75,116 -3,33 -24,70 -36,101 -90,224 -15,141 31,300 22,75 31,147 47,227l53 213c34,-2 92,-60 118,-87 64,-66 85,19 -29,162 -49,63 -15,36 -23,100 -5,43 -19,73 -38,99 -19,27 -38,51 -56,80 -22,35 -12,62 -67,63 -19,-36 -11,-44 0,-89 19,-78 25,-78 -41,-34 -57,38 -122,65 -180,101 -113,72 -54,109 2,193 -52,60 -131,108 -155,137 -1,0 -2,2 -3,3l-68 79c5,53 31,53 41,96 -103,-24 -158,18 -207,73 -24,27 -27,55 -57,86 -29,30 -55,37 -83,61 -65,58 -14,291 -8,388 20,288 -33,231 -13,396 23,200 19,326 -31,524 -24,96 -38,136 -38,235 44,-1 85,-54 139,-86 68,-39 126,-13 141,52l14 0c3,-33 6,-47 34,-54 32,0 59,105 96,129 42,-11 27,-38 61,-47 0,-48 -13,-59 -24,-99 -24,-85 -34,-114 41,-172 120,-95 158,-49 264,-10 69,25 112,-35 205,28 0,70 -22,50 -35,95 73,2 129,60 163,105 105,141 91,299 283,516 85,95 169,197 212,322 36,107 -35,243 30,468 23,79 58,123 58,210 -1,54 7,83 7,129l6 390c-1,155 26,319 -26,486 -37,120 -91,268 -206,327 -34,18 -105,37 -144,0 -1,-1 -2,-2 -3,-3 -15,-16 -13,-24 -31,-37 -61,16 -41,132 -41,225 -22,15 -66,26 -82,48 5,18 24,39 36,56l-36 33c-31,-17 -79,-57 -91,-93 -27,-78 42,-93 50,-119 -2,-89 -113,-255 -166,-299 -23,-19 -41,-33 -65,-52 -76,-62 5,-134 5,-271 21,-2 40,-9 57,-12 21,-4 34,-6 53,-8 37,-4 76,-11 109,-14 -12,-143 -49,-279 -104,-395 -43,-90 -62,-225 -39,-323 -42,-10 -92,-62 -103,-103 -51,14 -82,126 -103,171 -28,63 -56,123 -98,175 -69,87 -237,236 -314,81 -50,-101 -26,-134 -141,-133 -99,2 -158,-28 -244,16 -54,27 -117,93 -195,68 -106,-34 -209,-174 -288,-253 -111,-111 -223,-245 -368,-315 -105,-50 -90,-28 -197,-1 -148,38 -182,-1 -326,85 -104,62 -221,186 -221,318 53,0 81,-22 123,-6 143,52 -107,410 39,603 59,78 27,73 -20,126 -96,107 -77,261 -329,175 -141,-47 -91,-8 -191,37 -69,32 -165,-19 -237,-19 -12,23 -20,48 -33,70 -88,152 -197,274 -349,369 -37,24 -94,49 -140,65 -160,53 -354,65 -456,-87 -87,21 -119,-33 -186,-46 -68,-12 -149,1 -202,27 -83,39 -216,166 -363,100 -59,-26 -79,-78 -105,-140 -40,-94 -35,-80 -141,-106 -64,-16 -347,-63 -397,-88 -31,58 -171,202 -107,292 14,19 37,37 54,55 56,56 1,175 -68,210 -82,41 -467,74 -558,-8 -69,-61 18,-85 -93,-119 -114,-34 -264,-36 -363,15 -89,47 -162,123 -246,178 -195,127 -85,58 -239,89 -41,8 -31,23 -50,53 -14,22 -39,35 -66,43 -8,2 -24,5 -41,6zm-1573 -4738l0 0zm0 0c-36,-3 -28,-7 -36,-38 -7,-25 -12,-31 -26,-50 34,0 34,5 44,31 7,19 14,39 18,57zm472 -355c0,53 3,108 13,150 -119,28 -88,112 -165,176 -39,32 -82,22 -127,45 -44,22 -37,53 -51,39 -6,-6 -2,-9 24,-32 31,-29 49,-63 72,-99 27,-44 70,-110 109,-144 20,-17 34,-18 44,-45 7,-19 7,-43 22,-60 12,-15 40,-20 59,-30zm314 62l21 -42c-1,23 0,39 -21,42zm-123 -240c55,0 67,17 93,51 23,30 34,66 44,106 -48,-35 -34,-104 -111,-142 -9,-4 -5,-1 -14,-6 -15,-9 -4,-2 -12,-9zm704 -212l0 0zm7 -13l-7 13 7 -13zm0 0c3,-38 20,-48 21,-89 22,34 4,70 -21,89zm-2187 -82c0,-45 -10,-59 27,-69 0,51 5,46 -27,69zm1292 177c0,65 -13,128 54,144 -9,34 -17,6 -48,68 -1,3 -5,13 -6,14l-7 14c-11,-125 -170,-102 52,-543l27 -55c1,-2 4,-7 5,-9l5 -9c3,36 13,52 13,96 0,48 -15,-3 -59,126 -16,47 -36,95 -36,154zm868 -287l0 -20 13 0c-6,27 -13,19 -13,20zm-376 -54c0,-1 2,1 2,2l-2 -2zm-7 -14l2 2c0,0 -3,-1 -2,-2zm417 -14l0 0zm-424 0c1,0 2,1 2,2l-2 -2zm431 -13l-7 13 7 -13zm-438 0l0 0zm438 0c4,-18 0,-8 6,-21 6,-11 7,-13 14,-21 -2,28 -4,29 -20,42zm-848 -89l8 13 -8 -13zm-5161 -35c8,13 8,-15 6,14 -1,15 -1,6 -6,14l0 -28zm5571 124c-71,-48 -71,-12 -125,-60 -41,-37 -54,-86 -25,-132 0,153 132,124 150,192zm-5578 -137l2 2c0,0 -3,-2 -2,-2zm2215 -21c7,-18 0,-14 27,-20 -13,26 4,20 -27,20zm3213 -48l2 2c0,0 -3,-1 -2,-2zm-5476 -6l0 0zm5489 -14l-3 15 3 -15zm2400 -362c12,-47 109,-173 137,-226l63 60c-27,39 -37,64 -84,97 -30,22 -82,50 -116,69zm-793 -705l0 0z"/>
  <path class="fil2" d="M14056 5975l0 0zm-69 -169c-25,42 50,141 69,169 -35,-10 -111,-75 -180,-51 -30,11 -26,23 -53,30 -18,-68 -166,-130 -271,-100 -103,30 -164,102 -207,189 -29,58 -25,82 -35,156 -14,91 -56,165 -151,132 -47,-16 -62,-24 -149,19 -19,10 -50,30 -69,35 4,-42 14,-86 -37,-100 -51,-15 -186,37 -218,76 -30,36 -25,73 -25,133 -19,-9 -8,-9 -27,0 0,-33 -3,-33 -14,-55 -116,0 -234,165 -350,183 -34,6 -47,-4 -74,9 -28,58 43,35 48,102 -2,25 -73,71 -75,178 24,16 31,22 66,13 37,-10 38,-23 64,-40 0,165 39,80 82,143 -93,0 -95,-27 -125,12 -38,52 1,88 9,118 -29,-13 -130,-14 -158,0 -58,29 -67,206 -169,143 -17,-11 -93,-70 -86,32 7,103 119,259 18,249 -78,-8 -177,-61 -199,-152 -24,-102 16,-95 -89,-123 -30,-7 -20,-4 -31,-37l-22 -46c-20,-49 -30,-73 -84,-87 -33,-8 -152,-21 -174,12 -21,34 10,53 -100,51 -65,-2 -96,-19 -148,16 -106,71 39,151 45,229 -11,45 -153,53 -216,78 -33,12 -41,18 -84,18 -42,-61 -5,-52 -48,-116 -31,0 -61,11 -97,19 -114,26 -114,13 -182,64 -21,16 -52,37 -84,40 -11,-42 -43,-54 -77,-22 -41,39 -37,29 -112,29l-53 193c23,29 38,10 54,51 11,30 10,45 26,75 71,131 150,68 171,239 14,105 59,69 90,125 -6,52 -47,51 -84,77 -31,22 -80,175 -96,218 -27,72 22,67 18,121 -137,23 -99,22 -182,112 -80,88 -73,-1 24,206 55,117 99,246 99,381 1,87 -108,64 -87,155 24,12 68,17 94,27 6,67 -29,91 10,162 25,45 61,68 85,107 40,65 -19,65 -36,128 -8,31 -9,155 0,179 11,14 3,13 32,18 47,9 85,-13 131,6 80,32 103,9 176,22 -1,51 -58,91 -1,111 77,26 105,14 139,114 13,40 9,78 27,116 20,40 51,36 92,58 10,73 -10,119 33,180 29,43 71,60 118,93 -10,102 -25,20 -25,246 0,64 -14,216 21,257 51,63 150,18 193,-19 46,-39 85,-121 153,-129 37,32 47,76 118,63 47,-129 81,-128 113,-207 28,-71 19,-212 70,-252 29,-22 94,-31 133,-17 78,27 63,145 162,159 95,13 75,-48 108,-54 55,-10 47,111 95,152 56,48 95,52 137,116 68,106 89,260 269,240 36,-67 76,-78 175,-78 76,1 171,10 239,-13 121,-42 96,4 175,39 77,34 142,-14 206,-34 97,-30 105,9 190,-63 23,-19 44,-53 63,-66 77,-52 100,29 238,-145 23,-28 39,-45 62,-68 29,-28 52,-26 78,-51 4,-52 -13,-182 -16,-247 -3,-96 -72,-87 -147,-117 6,-34 26,-28 30,-68 13,-135 -12,-95 -115,-127 12,-26 7,-11 24,-29 9,-10 16,-19 20,-36 9,-33 0,-68 -9,-100 -51,-195 2,-197 121,-278 80,-54 41,-96 71,-148 41,-24 90,-4 131,-47 36,-38 28,-94 28,-151 77,-46 36,-132 -14,-185 -38,-40 -123,-82 -137,-150 -19,-96 58,-130 36,-241 -12,-58 -74,-171 -67,-211 33,-37 126,-23 170,-14 75,17 98,-18 122,-65 41,-79 49,-60 122,-59 62,1 65,-72 57,-125 -6,-18 -10,-7 -18,-16l-19 -26c-9,-9 -3,2 -16,-19 -35,-55 -18,-38 -28,-103 -6,-36 -29,-46 -62,-60 -45,-18 -36,-30 -63,-67 -52,-72 -119,-171 -47,-269 34,-47 39,-20 86,-43 16,-23 18,-56 5,-81 -17,-32 -43,-25 -52,-58 18,-18 36,-24 61,-46 28,-26 23,-52 41,-76 157,68 123,-77 160,-154 32,-69 52,0 18,-112 -16,-51 -47,-65 -90,-87 -1,-200 -20,-129 -86,-187 4,-34 23,-29 41,-61 -7,-60 -23,-34 -53,-68 13,-77 112,-41 132,-157l71 -3c8,-32 1,-66 7,-91 8,-29 30,-28 34,-64 2,-33 -18,-49 -33,-64 -17,-18 -39,-23 -52,-44 -28,-48 -21,-90 -101,-90 -70,0 -85,43 -153,-5 -9,-30 0,-44 -18,-84 -55,-10 -114,4 0,-151 17,-24 40,-54 38,-93 -4,-80 15,-43 36,-99 32,-84 -45,-140 -89,-169 -50,-32 -143,-70 -211,-53z"/>
  <path class="fil3" d="M16913 7595l-7 -7 7 7zm-7 -7l0 0zm-1135 -735c26,-26 29,-29 8,-65 -37,-62 -119,-129 -172,-143 10,-43 22,-77 45,-113l24 -31c-12,141 -1,178 142,268 83,52 100,43 123,164 9,52 6,78 8,136 6,194 136,398 200,654 34,135 22,125 -9,241 -25,94 87,119 110,164 20,41 4,114 67,213 40,64 94,108 136,151 95,96 205,182 330,244l673 326c33,13 71,37 100,44 0,-195 -34,-337 -99,-469 -43,-85 -137,-56 -159,-129 -9,-33 7,-101 21,-117 8,-9 147,-64 41,-108 -70,-29 -103,-33 -162,-98 -28,-32 -36,-76 -48,-124 -14,-60 -2,-36 54,-113 74,-101 -33,-160 -104,-191 -112,-48 -104,-28 -154,-106 -13,-20 -27,-33 -33,-56 23,2 29,10 53,6 26,-5 32,-13 39,-31 8,-21 13,-98 -28,-121 -24,-14 -42,-22 -74,-28 -49,-9 -192,29 -223,-86 -25,-95 -23,-96 -109,-89l-68 -61c10,36 38,45 48,82 -9,31 -25,27 -28,61 -3,34 8,50 14,75 -71,-19 -217,-333 -306,-425 -21,-22 -36,-32 -36,-74 27,-18 52,-33 96,-34 5,-60 23,-66 -22,-107 -20,-19 -25,-16 -26,-50 -2,-22 0,-52 0,-75 27,18 104,142 144,61 13,-26 7,-45 -10,-72 -59,-96 -100,-97 -72,-221 31,-141 126,-151 253,-151l19 -22c-5,-25 -57,-101 -83,-161 -49,-114 -93,-252 -126,-372l-56 -201c-53,1 -52,7 -91,24 -45,20 -43,-8 -80,-22 -63,67 -26,92 -57,171 -31,81 -42,91 -42,194 0,128 -125,45 -221,117 -22,17 -39,40 -75,37 -48,-53 -17,-185 -110,-175 -53,7 -46,42 -86,58 -137,57 -150,39 -255,177 -23,30 -47,45 -76,67 -39,29 -47,32 -49,93 -35,17 -69,21 -81,57 -10,28 -14,97 -3,123 20,27 72,17 106,18 -1,62 -16,102 45,119 30,8 44,1 68,15 13,8 32,28 48,40 64,46 23,69 60,104 29,27 102,20 142,29 54,151 33,111 94,116 35,3 43,49 113,-1l9 -7z"/>
  <path class="fil1" d="M5688 7738l0 -75c20,14 12,5 17,39 6,38 12,24 -17,36zm1429 -977c-32,-1 -24,-7 -68,-7 -49,0 -60,27 -110,27 -68,0 -84,-61 -191,-61l0 34c-165,0 -100,-13 -226,54 -22,12 -20,7 -27,35 -28,-8 -24,-23 -58,-3 -4,2 -11,7 -12,8 -14,7 3,3 -11,3 -5,1 -83,-28 -83,12l0 48 -34 0c4,16 6,20 7,41l-41 0 0 62c-28,0 -54,-4 -55,48 -25,-3 -20,-7 -55,-7 -43,0 -130,38 -130,75 0,34 -2,40 28,48l0 13c-30,8 -28,13 -28,48 -26,-14 -57,-33 -95,-34 -3,33 -18,38 -21,75 -19,-1 -123,-38 -123,7 0,50 -2,41 21,75 -31,15 -46,8 -62,76 -16,-11 -32,-35 -55,-35 -77,0 -128,126 -75,205 -68,16 -18,91 -14,138 5,47 12,40 62,40 -24,52 41,122 86,154 27,18 140,86 167,86 58,0 55,3 49,-34 -4,-21 -6,-30 -11,-53 -29,-146 -42,-310 77,-414 29,-26 137,-113 145,-142 35,17 94,16 96,-62l47 0c2,-65 53,-4 55,-89 53,-1 63,-33 89,-82 43,24 57,14 75,-20 25,0 42,1 65,-4 26,-5 34,-10 44,-24 18,-27 -8,-34 82,-61 39,-12 67,-16 113,-24 44,-9 76,-17 127,-17 129,0 138,14 246,-34 186,-83 164,-294 0,-294 -44,0 -80,58 -96,89z"/>
  <path class="fil1" d="M5244 8019c0,-12 -12,-34 -19,-43 -10,-11 -52,-37 -70,-115 -60,0 -104,19 -135,50 -31,30 -49,89 -35,140 19,66 78,32 124,24 39,-7 135,18 135,-56z"/>
  <path class="fil1" d="M7719 8012c0,60 74,68 136,68 0,-109 5,-71 -15,-101 -19,-27 -5,12 -5,-56 -51,1 -116,40 -116,89z"/>
  <polygon class="fil4" points="16496,7178 16496,7171 16488,7177 "/>
  <polygon class="fil5" points="16503,7185 16496,7178 "/>
  <polygon class="fil6" points="2312,9536 2408,9831 2717,9830 2466,10011 2562,10306 2312,10123 2063,10306 2159,10011 1908,9830 2217,9831 "/>
  <path class="fil0" d="M12254 8900c-3707,-2409 -6626,-2371 -9346,441"/>
  <g>
   <path class="fil7" d="M12115 9068l-1 -1 -1 0 -1 -1 -1 -1 -1 -1 -2 0 -1 -1 -1 -1 -1 -1 -1 0 -1 -1 -1 -1 -1 -1 -1 0 -1 -1 -1 -1 -1 -1 -1 -1 -1 0 -1 -1 0 -1 -1 -1 -1 -1 -1 -1 -1 0 -1 -1 -1 -1 -1 -1 -1 -1 -1 -1 -1 -1 -1 0 0 -1 -1 -1 -1 -1 -1 -1 -1 -1 -1 -1 -1 -1 0 -1 -1 0 -1 -1 -1 -1 -1 -1 -1 -1 0 -1 -1 -1 -1 -1 -1 -1 -1 -1 0 -1 -1 -1 -1 -1 -1 -1 0 -1 -1 -1 -1 -1 0 -1 -1 -1 -1 -1 -1 -1 0 -1 -1 -1 -1 -1 0 -1 -1 -1 -1 -1 0 -1 -1 -1 -1 -1 0 -1 -1 -1 -1 -1 0 -1 -1 -1 0 -1 -1 -1 -1 -1 0 -1 -1 -1 0 -1 -1 -1 0 -1 -1 -1 -1 -2 0 -1 -1 -1 0 -1 -1 -1 0 -1 -1 -1 0 -1 -1 -1 0 -1 -1 -1 0 -2 -1 -1 0 -1 0 -1 -1 -1 0 -1 -1 -1 0 -1 -1 -2 0 -1 0 -1 -1 -1 0 -1 -1 -1 0 -1 0 -2 -1 -1 0 -1 0 -1 -1 -1 0 -1 0 -1 -1 -2 0 -1 0 -1 -1 -1 0 -1 0 -1 -1 -2 0 -1 0 -1 0 -1 -1 -1 0 -1 0 -2 0 -1 -1 -1 0 -1 0 -1 0 -2 0 -1 -1 -1 0 -1 0 -1 0 -1 0 -2 0 -1 -1 -1 0 -1 0 -1 0 -2 0 -1 0 -1 0 -1 0 -1 0 -2 -1 -1 0 -1 0 -1 0 -1 0 -2 0 -1 0 -1 0 -1 0 -1 0 -2 0 -1 0 -1 0 -1 0 -1 0 -2 0 -1 0 -1 0 -1 0 -1 0 -2 0 -1 0 -1 0 -1 0 -2 1 -1 0 -1 0 -1 0 -1 0 -2 0 -1 0 -1 0 -1 1 -1 0 -2 0 -1 0 -1 0 -1 0 -1 1 -2 0 -1 0 -1 0 -1 0 -1 1 -2 0 -1 0 -1 0 -1 1 -1 0 -2 0 -1 1 -1 0 -1 0 -1 0 -1 1 -2 0 -1 0 -1 1 -1 0 -1 0 -2 1 -1 0 -1 1 -1 0 -1 0 0 -5 -4 25 -40 1 -1 0 -1 1 -1 0 0 0 0 26 -41 6 4 1 -1 1 -1 0 -1 1 -1 1 0 1 -1 1 -1 1 -1 1 -1 1 0 1 -1 1 -1 1 -1 1 0 1 -1 1 -1 1 -1 1 0 1 -1 1 -1 1 -1 1 0 1 -1 1 -1 1 0 1 -1 1 -1 1 0 1 -1 1 -1 1 0 1 -1 1 -1 1 0 1 -1 1 0 1 -1 1 -1 1 0 1 -1 1 0 1 -1 2 -1 1 0 1 -1 1 0 1 -1 1 0 1 -1 1 0 1 -1 1 0 1 -1 1 0 2 -1 1 0 1 -1 1 0 1 -1 1 0 1 -1 1 0 1 0 2 -1 1 0 1 -1 1 0 1 0 1 -1 1 0 2 -1 1 0 1 0 1 -1 1 0 1 0 1 -1 2 0 1 0 1 -1 1 0 1 0 1 -1 2 0 1 0 1 0 1 -1 1 0 1 0 2 0 1 -1 1 0 1 0 1 0 2 -1 1 0 1 0 1 0 1 0 1 -1 2 0 1 0 1 0 1 0 1 0 2 0 1 -1 1 0 1 0 1 0 2 0 1 0 1 0 1 0 1 0 2 0 1 0 1 0 1 -1 1 0 2 0 1 0 1 0 1 0 1 0 2 0 1 0 1 0 1 0 1 1 2 0 1 0 1 0 1 0 1 0 2 0 1 0 1 0 1 0 2 0 1 0 1 1 1 0 1 0 2 0 1 0 1 0 1 0 1 1 2 0 1 0 1 0 1 0 1 1 2 0 1 0 1 0 1 1 1 0 2 0 1 0 1 1 1 0 1 0 1 1 2 0 1 0 1 0 1 1 1 0 2 0 1 1 1 0 1 1 1 0 1 0 2 1 1 0 1 0 1 1 1 0 1 1 2 0 1 1 1 0 1 1 1 0 1 0 2 1 1 0 1 1 1 0 1 1 1 0 1 1 2 1 1 0 1 1 1 0 1 1 1 0 1 1 1 0 2 1 1 1 1 0 1 1 1 1 1 0 1 1 1 0 1 1 2 1 1 0 1 1 1 1 1 1 0 0 1 0 1 1 1 1 1 0 1 1 1 1 1 1 1 0 1 1 1 1 1 1 1 0 1 1 1 1 1 1 1 1 1 0 1 1 1 1 1 1 1 1 1 0 1 1 1 1 1 1 1 1 1 1 1 0 1 1 1 1 0 1 1 1 1 1 1 1 1 0 1 1 1 1 1 1 0 1 1 1 1 1 1 1 1 1 0 1 1 1 1 1 1 0 1 1 0 1 1 1 1 1 1 1 0 1 1 1 1 1 1 1 0 1 1 1 1 1 1 1 0 1 1 1 1 1 0 1 1 1 1 1 0 1 1 1 1 1 0 1 1 1 1 1 0 1 1 1 0 1 1 1 1 1 0 2 1 1 0 1 1 1 1 1 0 1 1 1 0 1 1 1 0 1 1 1 0 1 1 1 0 2 1 1 0 1 1 1 0 1 1 1 0 1 1 1 0 1 1 2 0 1 0 1 1 1 0 1 1 1 0 1 1 1 0 2 0 1 1 1 0 1 0 1 1 1 0 1 0 2 1 1 0 1 0 1 1 1 0 1 0 2 1 1 0 1 0 1 1 1 0 1 0 2 0 1 1 1 0 1 0 1 0 1 0 2 1 1 0 1 0 1 0 1 0 2 1 1 0 1 0 1 0 1 0 1 0 2 1 1 0 1 0 1 0 1 0 2 0 1 0 1 0 1 0 1 0 2 0 1 1 1 0 1 0 1 0 2 0 1 0 1 0 1 0 2 0 1 0 1 0 1 0 1 0 2 0 1 0 1 -1 1 0 1 0 2 0 1 0 1 0 1 0 1 0 2 0 1 0 1 0 1 -1 1 0 2 0 1 0 1 0 1 0 1 -1 2 0 1 0 1 0 1 0 1 -1 2 0 1 0 1 0 1 0 1 -1 2 0 1 0 1 -1 1 0 1 0 2 0 1 -1 1 0 1 0 1 -1 2 0 1 0 1 -1 1 0 1 0 1 -1 2 0 1 -1 1 0 1 0 1 -1 1 0 2 -1 1 0 1 -1 1 0 1 0 1 -1 2 0 1 -1 1 0 1 -1 1 0 1 -1 1 0 2 -1 1 0 1 -1 1 -1 1 0 1 -1 1 0 2 -1 1 0 1 -1 1 -1 1 0 1 -1 1 0 1 -1 1 -1 2 0 1 -1 1 -1 1 0 1 -1 1 -1 1 0 1 0 0 -1 1 -1 1 -1 1 0 2 -1 1 -1 1 -1 1 0 1 -1 1 -1 1 -1 1 0 1 -1 1 -1 1 -1 1 0 1 -1 1 -1 1 -1 1 -1 1 0 1 -1 1 -1 1 -1 0 -1 1 -1 1 0 1 -1 1 -1 1 -1 1 -1 1 -1 1 -1 1 -1 0 0 1 -1 1 -1 1 -1 1 -1 1 -1 1 -1 0 -1 1 -1 1 -1 1 -1 1 -1 1 0 0 -1 1 -1 1 -1 1 -1 0 -1 1 -1 1 -1 1 -1 0 -1 1 -1 1 -1 1 -1 0 -1 1 -1 1 -1 0 -1 1 -1 1 -1 0 -1 1 -1 1 -1 0 -1 1 -1 1 -1 0 -1 1 -1 1 -1 0 -1 1 -1 1 -1 0 -2 1 -1 0 -1 1 -1 0 -1 1 -1 1 -1 0 -1 1 -1 0 -1 1 -1 0 -1 1 -1 0 -2 1 -1 0 -1 1 -1 0 -1 1 -1 0 -1 1 -1 0 -1 1 -2 0 -1 0 -1 1 -1 0 -1 1 -1 0 -1 1 -1 0 -2 0 -1 1 -1 0 -1 0 -1 1 -1 0 -1 1 -2 0 -1 0 -1 1 -1 0 -1 0 -1 0 -2 1 -1 0 -1 0 -1 1 -1 0 -1 0 -2 0 -1 1 -1 0 -1 0 -1 0 -1 1 -2 0 -1 0 -1 0 -1 0 -1 1 -2 0 -1 0 -1 0 -1 0 -1 1 -2 0 -1 0 -1 0 -1 0 -1 0 -1 0 -2 0 -1 0 -1 1 -1 0 -1 0 -2 0 -1 0 -1 0 -1 0 -1 0 -2 0 -1 0 -1 0 -1 0 -2 0 -1 0 -1 0 -1 0 -1 0 -2 0 -1 0 -1 0 -1 0 -1 0 -2 0 -1 0 -1 0 -1 -1 -1 0 -2 0 -1 0 -1 0 -1 0 -1 0 -2 0 -1 -1 -1 0 -1 0 -1 0 -2 0 -1 0 -1 -1 -1 0 -1 0 -2 0 -1 0 -1 -1 -1 0 -1 0 -2 0 -1 -1 -1 0 -1 0 -1 0 -2 -1 -1 0 -1 0 -1 -1 -1 0 -2 0 -1 -1 -1 0 -1 0 -1 -1 -1 0 -2 0 -1 -1 -1 0 -1 -1 -1 0 -1 0 -2 -1 -1 0 -1 -1 -1 0 -1 -1 -1 0 -2 -1 -1 0 -1 0 -1 -1 -1 0 -1 -1 -1 0 -2 -1 -1 -1 -1 0 -1 -1 -1 0 -1 -1 -1 0 -1 -1 -2 0 -1 -1 -1 -1 -1 0 -1 -1 -1 0 -1 -1 -1 -1 -2 0 -1 -1 -1 -1 -1 0 -1 -1 -1 -1 -1 0 -1 -1 0 0zm-8785 -205l10 9 -18 38 182 100 -57 59 -199 -24 -16 15 -31 30 -29 28 -2 -2 -126 157 0 0 -1 1 0 0 0 0 0 1 0 0 0 0 0 1 -1 0 0 0 0 1 0 0 0 0 0 1 -1 0 0 0 0 1 0 0 0 0 -1 1 0 0 0 0 0 1 0 0 -1 0 0 1 0 0 0 0 -1 1 0 0 0 0 0 1 -1 0 0 0 0 1 0 0 -1 0 0 0 0 1 0 0 -1 0 0 1 0 0 0 0 -1 1 0 0 0 0 -1 1 0 0 0 0 0 1 -1 0 0 0 0 1 -1 0 0 0 0 0 -1 1 0 0 0 0 0 1 -1 0 0 0 0 1 -1 0 0 0 0 1 -1 0 0 0 0 1 -1 0 0 0 0 1 0 0 -1 0 0 0 0 1 -1 0 0 0 0 1 -1 0 0 0 0 1 0 0 -1 0 0 1 0 0 -1 0 0 1 0 0 0 0 -1 1 0 0 0 0 -1 1 0 0 0 0 0 1 -1 0 0 0 0 1 0 0 -1 0 0 1 0 0 0 0 -1 1 0 0 0 0 0 1 0 0 -1 0 0 1 0 0 0 0 0 1 -1 0 0 0 0 1 0 0 0 0 -1 1 0 0 0 1 0 0 0 0 0 1 0 0 -1 0 0 1 0 0 0 0 0 1 0 0 0 1 0 0 0 0 -1 1 0 0 0 0 0 1 0 0 0 1 0 0 0 0 0 1 0 0 0 0 0 1 0 0 0 1 0 0 0 0 0 1 0 0 0 1 0 0 0 0 0 1 1 0 0 1 0 0 0 1 0 0 0 0 0 1 0 0 0 1 1 0 0 0 0 1 0 0 0 1 1 0 0 1 0 0 0 0 1 1 0 0 0 1 0 0 1 1 0 0 0 1 1 0 0 1 0 0 1 0 0 1 0 0 1 1 0 0 1 1 0 0 0 1 1 0 0 1 1 0 0 1 1 0 0 1 1 0 0 1 1 0 0 1 1 0 1 1 0 0 1 1 0 0 1 1 1 0 0 1 1 0 1 1 0 0 1 1 1 1 1 0 0 1 1 0 1 1 1 0 0 1 1 0 1 1 1 1 1 0 1 1 1 0 0 1 1 0 1 1 1 1 1 0 1 1 1 0 1 1 1 1 1 0 1 1 1 0 2 1 1 1 1 0 1 1 1 0 1 1 1 1 2 0 1 1 1 1 1 0 2 1 1 1 1 0 2 1 95 54 363 127 -37 38 0 0 0 1 -1 0 -1 1 0 0 -1 1 0 0 -1 1 0 0 -1 1 0 1 -1 0 0 1 -1 0 -1 1 0 0 -1 0 0 1 -1 0 0 1 -1 0 0 1 -1 0 0 1 -1 0 -1 1 0 0 -1 0 0 1 -1 0 0 1 -1 0 0 0 -1 1 0 0 -1 1 0 0 -1 0 0 1 -1 0 0 0 -1 1 -1 0 0 0 -1 1 0 0 -1 0 0 1 -1 0 0 0 -1 1 0 0 -1 0 0 0 -1 1 0 0 -1 0 0 1 -1 0 0 0 -1 0 -1 1 0 0 -1 0 0 0 -1 1 0 0 -1 0 0 0 -1 0 0 1 -1 0 0 0 -1 0 0 1 -1 0 0 0 -1 0 0 0 -1 0 0 1 -1 0 0 0 -1 0 -1 0 0 0 -1 1 0 0 -1 0 0 0 -1 0 0 0 -1 0 0 1 -1 0 0 0 -1 0 0 0 -1 0 0 0 -1 0 0 1 -1 0 0 0 -1 0 -1 0 0 0 -1 0 0 0 -1 0 0 0 -1 0 0 1 -1 0 0 0 -1 0 0 0 -1 0 0 0 -1 0 0 0 -1 0 0 0 -1 0 -1 0 0 0 -1 0 0 0 -1 0 0 0 -1 1 0 0 -1 0 0 0 -1 0 0 0 -1 0 0 0 -1 0 -1 0 0 0 -1 0 0 0 -1 0 0 0 -1 0 0 0 -1 0 0 0 -1 0 -1 0 0 0 -1 0 0 0 -1 0 0 0 -1 0 0 0 -1 0 0 0 -1 0 -1 0 0 0 -1 0 0 0 -1 0 0 0 -1 0 0 -1 -1 0 -1 0 0 0 -1 0 0 0 -1 0 0 0 -1 0 -1 0 0 0 -1 0 0 0 -1 0 0 0 -1 0 -1 0 0 0 -1 0 0 0 -1 0 0 0 -1 0 -1 0 0 0 -1 0 0 0 -1 0 0 0 -1 -1 -1 0 0 0 -1 0 0 0 -1 0 -1 0 0 0 -1 0 0 0 -1 0 -1 0 0 0 -1 0 0 0 -1 0 -1 0 0 0 -1 0 0 0 -1 0 -1 0 0 0 -1 0 -1 0 0 0 -1 0 0 0 -1 0 -1 -1 0 0 -1 0 0 0 -1 0 -1 0 0 0 -1 0 -1 0 0 0 -1 0 -1 0 0 0 -1 0 0 0 -1 0 -1 0 0 0 -1 0 -1 0 0 0 -1 0 -1 0 0 0 -1 0 -1 0 0 0 -1 0 -1 0 0 0 -1 0 -85 -9 -47 49 0 0 0 0 -1 1 -1 1 0 0 -1 1 0 1 -1 0 -1 1 0 0 -1 1 -1 0 0 1 -1 1 -1 0 0 1 -1 0 0 1 -1 0 -1 1 0 0 -1 1 0 0 -1 0 -1 1 0 0 -1 1 0 0 -1 0 -1 1 0 0 -1 1 0 0 -1 0 0 1 -1 0 -1 0 0 1 -1 0 0 0 -1 0 0 1 -1 0 0 0 -1 0 0 1 -1 0 0 0 -1 0 -1 1 0 0 -1 0 0 0 -1 0 0 0 -1 1 0 0 -1 0 0 0 -1 0 0 0 0 0 -1 0 0 0 -1 0 0 1 -1 0 0 0 -1 0 0 0 -1 0 0 0 -1 0 0 0 0 0 -1 0 0 0 -1 0 0 0 -1 0 0 0 0 0 -1 -1 0 0 -1 0 0 0 0 0 -1 0 0 0 0 0 -1 0 0 0 -1 0 0 -1 0 0 -1 0 0 0 0 0 -1 0 0 -1 0 0 -1 0 0 0 0 0 -1 0 0 -1 0 0 -1 0 0 0 0 -1 -1 0 0 0 0 0 0 -1 -1 0 0 0 0 0 -1 -1 0 0 0 0 0 0 -1 -1 0 0 0 0 0 -1 -1 0 0 0 0 -1 0 0 0 0 -1 -1 0 0 0 0 0 -1 0 0 -1 0 0 -1 0 0 0 0 0 -1 -1 0 0 0 0 -1 0 0 0 -1 0 0 -1 0 0 -1 0 0 0 -1 0 0 0 0 0 -1 0 0 -1 -1 0 0 0 0 0 -1 0 0 0 -1 0 0 0 -1 0 0 0 -1 0 0 0 0 0 -1 0 0 -1 -1 0 0 0 -1 0 0 0 -1 0 0 0 -1 0 0 0 -1 0 0 0 -1 0 0 0 0 0 -1 0 0 0 -1 0 0 1 -1 0 0 0 -1 0 0 0 -1 0 0 0 -1 0 0 0 -1 0 0 0 -1 0 0 0 -1 1 0 0 -1 0 0 0 -1 0 0 0 -1 0 0 0 -1 1 0 0 -1 0 0 0 -1 0 0 0 -1 1 0 0 -1 0 0 0 -1 0 0 1 -1 0 0 0 -1 0 0 1 -1 0 -1 0 0 0 -1 1 0 0 -1 0 0 0 -1 1 0 0 -1 0 0 0 -1 1 0 0 -1 0 0 1 0 0 -1 0 0 1 -1 0 0 0 -1 1 0 0 -1 0 0 1 -1 0 0 1 -1 0 0 0 -1 1 0 0 -1 1 0 0 -1 0 0 1 -1 0 0 19 -20 -134 -17 -47 49 0 0 0 0 -1 1 0 0 -1 1 0 0 -1 1 0 0 -1 1 -1 0 0 1 -1 0 0 1 -1 0 0 1 -1 0 0 1 -1 0 0 0 -1 1 0 0 -1 1 0 0 -1 0 0 1 -1 0 0 1 -1 0 0 0 -1 1 0 0 -1 0 0 1 -1 0 0 0 -1 1 0 0 -1 0 0 0 -1 1 0 0 -1 0 0 1 -1 0 0 0 -1 0 0 1 -1 0 0 0 -1 0 0 0 -1 1 0 0 -1 0 0 0 -1 0 0 1 -1 0 0 0 -1 0 0 0 0 0 -1 0 0 1 -1 0 0 0 -1 0 0 0 -1 0 0 0 0 0 -1 0 0 1 -1 0 0 0 -1 0 0 0 -1 0 0 0 0 0 -1 0 0 0 -1 0 0 0 0 0 -1 0 0 0 -1 0 0 0 -1 0 0 0 0 0 -1 0 0 0 -1 0 0 0 0 0 -1 0 0 0 0 0 -1 0 0 0 -1 0 0 -1 0 0 -1 0 0 0 0 0 -1 0 0 0 0 0 -1 0 0 0 0 -1 -1 0 0 0 -1 0 0 0 0 0 0 0 -1 -1 0 0 0 0 -1 0 0 0 0 0 -1 -1 0 0 0 0 -1 0 0 0 0 -1 0 0 -1 0 0 0 0 0 -1 -1 0 0 0 0 0 0 -1 0 0 -1 0 0 0 0 -1 0 0 -1 0 0 0 0 -1 0 0 -1 0 0 0 0 -1 0 0 -1 0 0 0 0 -1 -1 0 0 0 0 0 0 0 -1 -1 0 0 0 0 -1 0 0 0 0 0 -1 -1 0 0 0 0 -1 0 0 0 0 0 0 -1 -1 0 0 0 0 0 -1 0 0 0 -1 0 0 -1 0 0 -1 0 0 0 0 0 -1 0 0 0 0 0 -1 0 0 -1 0 0 -1 0 0 0 -1 0 0 0 0 0 -1 0 0 0 0 0 -1 0 0 0 -1 0 0 0 0 0 -1 0 0 0 -1 0 0 0 0 0 -1 -1 0 0 -1 0 0 0 0 1 -1 0 0 0 -1 0 0 0 -1 0 0 0 0 0 -1 0 0 0 -1 0 0 0 0 0 -1 0 0 0 -1 0 0 0 -1 0 0 0 -1 1 0 0 0 0 -1 0 0 0 -1 0 0 0 -1 0 0 0 0 1 -1 0 0 0 -1 0 0 0 -1 0 0 1 -1 0 0 0 0 0 -1 0 0 0 -1 1 0 0 -1 0 0 0 -1 27 -27 -199 -27 -177 164 0 0 -1 1 0 0 -1 1 -1 0 0 1 -1 0 0 1 -1 0 -1 1 0 1 -1 0 -1 1 0 0 -1 1 0 0 -1 1 -1 0 -1 1 0 0 -1 1 -1 0 0 1 -1 1 -1 0 0 1 -1 0 -1 1 -1 0 0 1 -1 0 -1 1 -1 0 0 0 -1 1 -1 0 -1 1 -1 0 0 1 -1 0 -1 1 -1 0 0 1 -1 0 -1 1 -1 0 -1 0 -1 1 0 0 -1 1 -1 0 -1 1 -1 0 0 0 -1 1 -1 0 -1 0 -1 1 -1 0 -1 1 0 0 -1 0 -1 1 -1 0 -1 0 -1 1 0 0 -1 0 -1 1 -1 0 -1 0 -1 1 -1 0 0 0 -1 0 -1 1 -1 0 -1 0 -1 0 -1 1 0 0 -1 0 -1 0 -1 1 -1 0 -1 0 0 0 -1 0 -1 1 -1 0 -1 0 -1 0 0 0 -1 1 -1 0 -1 0 -1 0 -1 0 0 0 -1 0 -1 0 -1 0 -1 1 0 0 -1 0 -1 0 -1 0 -1 0 0 0 -1 0 -1 0 -1 0 0 0 -1 0 -1 0 -1 0 0 0 -1 0 -1 0 -1 0 0 0 -1 -1 -1 0 0 0 -1 0 -1 0 0 0 -1 0 -1 0 0 0 -1 -1 -1 0 0 0 -1 0 -1 0 0 -1 -1 0 0 0 -1 0 -1 -1 0 0 -1 0 0 0 -1 -1 0 0 -1 0 0 -1 -1 0 0 0 -1 -1 0 0 -1 -1 0 0 -1 0 0 -1 -1 0 0 -1 -1 0 0 -1 0 0 -1 -1 0 0 -1 -1 0 0 0 -1 -1 0 0 -1 0 0 -1 -1 0 0 0 -1 0 -1 -1 0 0 -1 0 -1 0 0 -1 -1 0 -1 0 0 0 -1 0 -1 0 -1 -1 0 0 -1 0 -1 0 -1 0 -1 0 0 0 -1 0 -1 0 -1 0 -1 0 -1 0 -1 0 -1 0 0 0 -1 0 -1 0 -1 0 -1 1 -1 0 -1 0 -1 0 -1 0 -2 0 -1 1 -1 0 -1 0 -1 0 -1 1 -1 0 -1 0 -2 1 -1 0 -1 0 -1 1 -1 0 -2 1 -1 0 -1 0 -2 1 -1 0 -1 1 -2 0 -1 1 -1 1 -2 0 -1 1 -2 0 -1 1 -1 1 -2 0 -1 1 -2 1 -1 0 -2 1 -2 1 -1 1 -2 1 -1 0 -2 1 -2 1 -1 1 -2 1 -2 1 -1 1 -2 1 -2 1 -2 1 -1 1 -2 1 -2 1 -2 1 -2 1 -2 1 -1 2 -2 157 -182 -31 -198 -18 18 0 0 -1 1 0 0 0 1 -1 0 0 1 -1 0 0 0 -1 1 0 0 -1 1 0 0 -1 0 0 1 0 0 -1 0 0 1 -1 0 0 0 -1 1 0 0 -1 0 0 1 -1 0 0 0 -1 0 0 1 -1 0 0 0 -1 0 0 1 -1 0 0 0 -1 0 0 0 -1 1 0 0 -1 0 0 0 -1 0 0 1 -1 0 0 0 -1 0 0 0 -1 0 0 0 -1 1 0 0 -1 0 0 0 -1 0 0 0 -1 0 0 0 -1 0 0 0 -1 0 0 0 0 0 -1 0 0 0 -1 0 0 1 -1 0 0 0 -1 0 0 0 -1 0 0 -1 -1 0 0 0 -1 0 0 0 -1 0 0 0 -1 0 0 0 -1 0 0 0 -1 0 0 0 0 0 -1 0 0 -1 -1 0 0 0 -1 0 0 0 -1 0 0 0 0 0 -1 -1 0 0 -1 0 0 0 -1 0 0 0 0 -1 -1 0 0 0 -1 0 0 0 0 -1 -1 0 0 0 -1 0 0 0 0 -1 -1 0 0 0 0 0 -1 -1 0 0 -1 0 0 0 0 -1 -1 0 0 0 0 -1 -1 0 0 0 0 0 -1 -1 0 0 0 0 0 -1 -1 0 0 0 0 -1 -1 0 0 0 0 -1 0 0 -1 0 0 -1 0 0 0 0 -1 -1 0 0 0 -1 0 0 0 0 -1 -1 0 0 0 0 0 -1 0 0 -1 -1 0 0 0 0 0 -1 0 0 0 -1 -1 0 0 -1 0 0 0 0 0 -1 0 0 0 -1 0 0 0 -1 0 0 -1 -1 0 0 0 -1 0 0 0 -1 0 0 0 -1 0 0 0 -1 0 0 0 -1 0 0 0 -1 0 0 0 -1 0 0 0 -1 0 0 1 -1 0 0 0 -1 0 0 0 -1 0 0 0 -1 0 0 0 -1 1 0 0 -1 0 -1 0 0 0 -1 1 0 0 -1 0 0 0 -1 0 0 1 -1 0 -1 0 0 0 -1 1 0 0 -1 0 -1 1 0 0 -1 0 0 1 -1 0 0 0 -1 1 -1 0 0 0 -1 1 0 0 -1 1 -1 0 0 1 -1 0 -1 1 0 0 -1 1 0 0 -1 1 -1 0 0 1 -1 0 -1 1 0 0 -1 1 0 0 -1 1 -1 1 0 0 -1 1 -1 1 0 0 -1 1 -1 1 0 0 -1 1 -1 1 0 0 -1 1 -1 1 0 1 -1 1 -1 0 0 1 -1 1 0 1 -1 1 -1 1 0 37 -39 -20 -133 -29 30 0 0 0 0 -1 0 0 1 -1 0 0 1 0 0 -1 1 0 0 -1 0 0 1 -1 0 0 0 0 1 -1 0 0 0 -1 1 0 0 -1 0 0 1 -1 0 0 0 -1 1 0 0 0 0 -1 0 0 1 -1 0 0 0 -1 0 0 1 -1 0 0 0 0 0 -1 1 0 0 -1 0 0 0 -1 0 0 0 -1 1 0 0 0 0 -1 0 0 0 -1 0 0 0 -1 1 0 0 -1 0 0 0 0 0 -1 0 0 0 -1 0 0 0 -1 0 0 0 0 1 -1 0 0 0 -1 0 0 0 -1 0 0 0 0 0 -1 0 0 0 -1 0 0 0 -1 0 0 0 0 0 -1 0 0 0 -1 0 0 -1 0 0 -1 0 0 0 -1 0 0 0 0 0 -1 0 0 0 -1 0 0 0 0 0 -1 -1 0 0 0 0 -1 0 0 0 -1 0 0 0 0 -1 -1 0 0 0 0 0 -1 0 0 0 0 -1 -1 0 0 0 0 0 -1 0 0 -1 0 0 -1 0 0 0 0 0 -1 -1 0 0 0 0 -1 0 0 -1 0 0 0 0 -1 0 0 -1 0 0 -1 0 0 0 0 -1 0 0 -1 0 0 -1 0 0 0 0 -1 0 0 -1 0 0 0 0 -1 -1 0 0 0 0 0 -1 -1 0 0 0 0 -1 0 0 0 0 -1 -1 0 0 0 0 0 -1 0 0 -1 -1 0 0 0 0 0 -1 0 0 0 0 -1 -1 0 0 0 -1 0 0 0 0 0 -1 0 0 0 -1 -1 0 0 -1 0 0 0 0 0 -1 0 0 0 -1 0 0 0 -1 0 0 0 0 0 -1 0 0 -1 -1 0 0 0 -1 0 0 0 -1 0 0 0 -1 0 0 0 0 0 -1 0 0 0 -1 0 0 0 -1 0 0 1 -1 0 0 0 -1 0 0 0 -1 0 0 0 -1 0 0 0 -1 0 0 0 -1 0 0 1 -1 0 0 0 -1 0 0 0 -1 0 0 0 -1 1 0 0 -1 0 0 0 -1 0 -1 1 0 0 -1 0 0 0 -1 0 0 1 -1 0 0 0 -1 0 0 1 -1 0 0 0 -1 1 -1 0 0 0 -1 1 0 0 -1 0 0 1 -1 0 0 0 -1 1 0 0 -1 0 -1 1 0 0 -1 0 0 1 -1 0 0 1 -1 0 0 1 -1 0 -1 1 0 0 -1 0 0 1 -1 0 0 1 -1 0 -1 1 0 0 -1 1 0 1 -1 56 -58 0 0 0 0 0 0 0 0 0 0 0 0 0 0 0 0 0 0 0 0 -1 -1 0 0 0 0 0 0 0 0 0 0 0 -1 0 0 0 0 0 0 0 -1 0 0 0 0 0 -1 0 0 -1 0 0 0 0 -1 0 0 0 -1 0 0 0 0 0 -1 0 0 -1 -1 0 0 0 -1 0 0 0 0 0 -1 0 0 -1 -1 0 0 0 -1 0 0 0 -1 0 -1 -1 0 0 -1 0 0 0 -1 0 -1 0 0 -1 -1 0 0 0 -1 0 -1 0 0 0 -1 -1 -1 0 0 0 -1 0 -1 0 0 -1 -1 0 -1 0 -1 0 0 0 -1 -1 -1 0 -1 0 0 0 -1 0 -1 -1 -1 0 -1 0 0 0 -1 -1 -1 0 -1 0 -1 0 0 0 -1 -1 -1 0 -1 0 -1 0 -1 -1 -1 0 0 0 -1 0 -1 0 -1 -1 -1 0 -1 0 -1 0 -1 -1 -1 0 -1 0 -1 0 0 0 -1 -1 -1 0 -1 0 -1 0 -1 -1 -1 0 -1 0 -1 0 -1 -1 -1 0 -1 0 -1 0 -1 0 -1 -1 -1 0 -1 0 -1 0 -1 -1 -1 0 -1 0 -1 0 -1 0 -1 -1 -1 0 -1 0 -1 0 -1 0 -1 -1 -1 0 -1 0 -1 0 -1 -1 -1 0 -1 0 -1 0 -1 0 -1 -1 -1 0 -1 0 -1 0 -1 0 -1 0 -1 -1 -1 0 -1 0 -1 0 -1 0 -1 -1 -1 0 -1 0 -1 0 -1 0 -1 0 -1 -1 -1 0 -1 0 -1 0 -2 0 -1 0 -1 0 -1 -1 -1 0 -1 0 -1 0 -1 0 -1 0 -1 0 -1 -1 0 0 -1 0 -1 0 -1 0 -1 0 -1 0 -1 0 -1 0 -1 -1 -1 0 -1 0 -1 0 -1 0 -1 0 -1 0 -1 0 -1 0 -1 0 -1 0 -1 0 -1 0 0 0 -1 0 -1 0 -1 -1 -1 0 -1 0 -1 0 -1 0 0 0 -1 0 -1 0 -1 0 -1 0 -1 0 -1 0 0 0 -1 0 -1 0 -1 1 -1 0 0 0 -1 0 -1 0 -1 0 0 0 -1 0 -1 0 -1 0 0 0 -1 0 -1 0 -1 0 0 1 -1 0 -1 0 0 0 -1 0 -1 0 0 0 -1 0 0 1 -1 0 -1 0 0 0 -1 0 0 1 -1 0 -1 0 0 0 -1 0 0 1 -1 0 0 0 -1 0 0 0 -1 1 0 0 -1 0 0 1 -1 0 0 0 0 0 -1 1 0 0 -1 0 0 1 0 0 -1 65 -67 146 366 0 0 1 0 0 1 0 0 1 1 0 0 0 1 1 1 0 0 0 1 1 0 0 1 0 0 1 1 0 0 0 1 1 0 0 1 0 0 1 1 0 1 0 0 1 1 0 0 0 1 1 0 0 1 0 0 1 1 0 0 0 1 1 0 0 1 0 0 1 1 0 0 0 1 1 1 0 0 0 1 1 0 0 1 0 0 1 1 0 0 0 1 0 0 1 1 0 0 0 1 1 0 0 1 0 0 1 1 0 0 0 1 1 0 0 1 0 0 0 1 1 0 0 1 0 0 1 1 0 0 0 1 1 0 0 1 0 0 0 1 1 0 0 1 0 0 1 1 0 0 0 1 0 0 1 1 0 0 0 1 1 0 0 1 0 0 1 0 0 1 0 0 0 1 1 0 0 1 0 0 1 1 0 0 0 1 0 0 1 1 0 0 0 1 1 0 0 1 0 0 0 0 1 1 0 0 0 1 1 0 0 1 0 0 0 1 1 0 0 1 0 0 1 0 0 1 0 0 0 1 1 0 0 1 0 0 0 1 1 0 0 1 0 0 1 0 0 1 0 0 0 1 1 0 0 1 0 0 1 1 0 0 0 0 0 1 1 0 0 1 0 0 1 1 0 0 0 0 0 1 1 0 0 1 0 0 1 1 0 0 0 0 0 1 1 0 0 1 0 0 0 0 1 1 0 0 0 1 1 0 0 1 0 0 0 0 1 1 0 0 0 1 1 0 0 0 0 1 0 0 1 1 0 0 0 0 1 1 0 0 0 1 0 0 1 0 0 1 0 0 1 1 0 0 0 0 0 1 1 0 0 1 0 0 1 0 0 1 0 0 1 1 0 0 0 0 0 1 1 0 0 0 0 1 1 0 0 1 0 0 0 0 1 1 0 0 0 1 1 0 0 0 0 1 1 0 0 0 0 1 0 0 1 1 0 0 0 0 1 1 0 0 0 0 1 1 0 0 0 0 0 1 1 0 0 1 0 0 1 0 0 1 0 0 1 0 0 1 0 0 1 0 0 1 0 0 1 0 0 1 0 0 0 0 1 1 0 0 0 1 1 0 0 0 0 1 1 0 0 0 0 1 1 0 0 0 0 1 1 0 0 0 0 1 1 0 0 0 0 1 1 0 0 0 0 1 1 0 0 0 0 1 1 0 0 0 0 0 0 1 1 0 0 0 0 1 1 0 0 0 0 1 1 0 0 0 0 1 1 0 0 0 0 1 0 0 1 0 0 1 0 0 1 0 0 1 0 0 1 0 0 1 0 0 0 0 1 1 0 0 0 0 1 1 0 0 0 0 0 1 1 0 0 0 0 1 1 0 0 0 0 1 0 0 1 0 0 1 0 0 0 0 1 1 0 0 0 0 0 0 1 1 0 0 0 0 0 1 1 0 0 0 0 1 1 0 0 0 0 1 0 0 1 0 0 1 0 0 0 0 1 0 0 1 0 0 0 0 1 1 0 0 0 0 0 0 1 1 0 0 0 0 0 0 1 1 0 0 0 0 0 1 1 0 0 0 0 0 0 1 1 0 0 0 0 0 0 1 1 0 0 0 0 0 0 0 1 1 0 0 0 0 0 0 1 1 0 0 0 0 0 0 1 0 0 1 0 0 1 0 0 0 0 0 0 0 1 1 0 0 0 0 0 0 1 0 0 0 0 1 1 0 0 0 0 0 0 0 1 0 0 0 0 0 1 1 0 0 0 0 1 0 0 0 0 0 0 0 1 0 0 0 0 0 1 0 0 1 0 0 1 0 0 0 0 0 1 0 0 0 0 0 1 0 0 0 0 0 1 0 0 0 0 0 1 0 0 0 0 0 1 0 0 0 0 0 1 0 0 0 1 0 0 0 0 -1 1 0 0 0 1 0 0 0 0 0 1 0 0 0 0 0 1 0 0 -1 1 0 0 0 1 0 0 0 0 0 1 0 0 -1 1 0 0 0 1 0 0 0 1 -1 0 0 0 0 1 0 0 0 1 -1 0 0 1 0 0 -1 1 0 0 0 1 0 0 -1 1 0 0 0 1 -1 0 0 1 0 0 -1 1 0 0 0 1 -1 1 0 0 0 1 -1 0 0 1 -1 0 0 1 0 0 -1 1 0 1 -1 0 0 1 -1 0 0 1 -1 1 0 0 -1 1 0 1 -1 0 0 1 -1 0 0 1 -1 1 0 0 -1 1 0 1 -1 0 -1 1 0 1 -1 0 0 1 -1 1 -1 1 0 0 -1 1 -1 1 0 0 -1 1 -1 1 0 1 -1 0 -1 1 -1 1 0 1 -1 1 -1 0 -1 1 0 1 -1 1 -1 1 -1 0 -1 1 0 1 -1 1 -1 1 -1 1 -1 0 -1 1 -1 196 -183 -32 -216 57 -58 106 178 37 -19zm360 -210l-63 -77 23 -19 32 -26 33 -27 32 -26 33 -26 3 -2 62 78 -3 3 -32 25 -32 26 -33 26 -32 26 -23 19zm555 -419l-57 -83 19 -13 33 -23 34 -22 33 -22 33 -21 16 -11 54 84 -16 11 -32 21 -33 22 -33 21 -32 23 -19 13zm591 -364l-47 -88 18 -10 34 -18 34 -17 33 -18 34 -17 26 -13 44 90 -25 12 -33 17 -33 17 -33 18 -33 18 -19 9zm629 -294l-37 -93 24 -9 34 -13 35 -13 34 -13 34 -13 28 -10 33 95 -27 9 -33 13 -34 12 -34 13 -34 13 -23 9zm659 -212l-24 -97 10 -3 35 -9 35 -8 35 -8 35 -8 36 -7 11 -3 20 98 -11 2 -34 8 -35 8 -34 8 -34 8 -35 8 -10 3zm682 -123l-11 -100 23 -2 36 -4 36 -3 36 -4 36 -3 34 -2 7 99 -33 3 -35 3 -36 3 -35 4 -35 3 -23 3zm692 -32l2 -100 7 1 37 0 36 2 37 1 37 1 37 2 11 1 -6 100 -10 -1 -37 -2 -36 -1 -36 -2 -36 -1 -36 0 -7 -1zm692 56l14 -99 8 1 38 5 38 6 37 6 38 6 38 6 2 1 -17 98 -2 0 -37 -6 -37 -6 -38 -6 -37 -6 -37 -5 -8 -1zm682 132l24 -97 1 0 38 10 39 10 39 10 38 10 39 11 1 0 -28 96 0 0 -38 -10 -38 -10 -38 -10 -38 -10 -38 -9 -1 -1zm666 198l33 -95 28 10 39 14 40 14 39 14 40 15 3 1 -35 94 -3 -1 -39 -15 -39 -14 -39 -14 -39 -14 -28 -9zm649 251l40 -91 11 4 40 18 41 18 40 18 41 18 11 5 -42 91 -10 -5 -41 -18 -40 -18 -40 -17 -40 -18 -11 -5zm631 296l45 -89 29 15 42 21 41 21 42 22 25 13 -47 88 -25 -13 -41 -21 -41 -21 -41 -21 -29 -15zm613 331l51 -86 39 22 42 25 43 25 42 25 7 4 -51 86 -7 -4 -42 -25 -42 -25 -42 -24 -40 -23zm623 322l0 -1 0 1z"/>
  </g>
  <path class="fil7" d="M6145 6990l-57 -247 -24 6c-38,8 -63,20 -76,35 -13,15 -32,54 -57,119l-55 149 -143 32 46 -131c17,-53 33,-90 45,-112 13,-22 30,-44 52,-64 -57,4 -101,-6 -132,-30 -31,-24 -51,-57 -61,-98 -8,-36 -6,-70 5,-102 12,-32 32,-57 59,-73 28,-16 71,-31 130,-45l252 -58 135 591 -119 28zm-113 -491l-93 21c-48,11 -78,19 -93,25 -14,5 -25,16 -33,30 -8,15 -10,33 -5,53 5,20 14,36 27,46 13,9 28,14 44,13 17,0 50,-6 99,-18l88 -20 -34 -150zm248 -157l120 -22 46 254c27,-7 43,-17 51,-30 7,-13 16,-47 27,-101 13,-69 31,-114 53,-134 23,-21 61,-36 117,-46 3,0 8,-1 17,-3l16 89 -17 3c-25,4 -42,10 -52,18 -11,9 -18,20 -23,33 -5,14 -11,42 -17,83 -4,22 -9,41 -15,56 -6,16 -19,31 -38,48 28,2 53,14 75,34 21,19 46,48 75,87l111 148 -142 26 -99 -141c-2,-2 -5,-5 -10,-11 -1,-2 -8,-10 -20,-25 -20,-27 -36,-43 -47,-49 -11,-5 -27,-6 -47,-3l47 261 -121 22 -107 -597zm536 -78l137 -9 162 304 100 -321 127 -9 -174 473c-19,52 -39,91 -61,119 -21,27 -50,42 -86,45 -36,2 -65,1 -85,-2l-6 -91c17,0 33,0 47,-1 28,-2 48,-9 59,-20 12,-11 22,-34 31,-69l-251 -419zm764 581l21 -504 -179 -7 4 -103 481 21 -5 102 -178 -8 -21 504 -123 -5zm465 -585l113 16 -55 399 298 -366 121 16 -82 601 -113 -16 53 -393 -297 360 -120 -16 82 -601zm872 765l59 -246 -25 -6c-37,-9 -65,-10 -83,-2 -19,8 -53,35 -104,82l-115 108 -143 -33 99 -98c39,-39 70,-66 91,-80 21,-15 46,-26 75,-35 -53,-21 -88,-50 -105,-85 -18,-35 -21,-74 -12,-115 9,-36 25,-66 50,-89 25,-24 53,-37 85,-39 32,-3 77,3 136,17l251 59 -139 590 -120 -28zm116 -490l-93 -22c-47,-11 -78,-18 -94,-19 -15,-1 -30,3 -43,13 -14,10 -23,24 -28,44 -5,21 -3,39 4,53 8,15 19,26 34,33 15,6 48,15 97,27l88 21 35 -150z"/>
 </g>
</svg>
