<?xml version="1.0" encoding="UTF-8"?>
<!DOCTYPE svg PUBLIC "-//W3C//DTD SVG 1.1//EN" "http://www.w3.org/Graphics/SVG/1.1/DTD/svg11.dtd">
<!-- Creator: CorelDRAW X7 -->
<svg xmlns="http://www.w3.org/2000/svg" xml:space="preserve" width="100%" height="100%" version="1.1" style="shape-rendering:geometricPrecision; text-rendering:geometricPrecision; image-rendering:optimizeQuality; fill-rule:evenodd; clip-rule:evenodd"
viewBox="0 0 17639 17639"
 xmlns:xlink="http://www.w3.org/1999/xlink">
 <defs>
  <style type="text/css">
   <![CDATA[
    .fil0 {fill:none}
    .fil3 {fill:#F5B2B6}
    .fil2 {fill:#4E4E4F}
    .fil1 {fill:#E1DFD3}
    .fil4 {fill:#4E4E4F;fill-rule:nonzero}
   ]]>
  </style>
 </defs>
 <g id="Слой_x0020_1">
  <metadata id="CorelCorpID_0Corel-Layer"/>
  <g id="_520382296">
   <rect class="fil0" width="17639" height="17639"/>
   <path class="fil1" d="M8062 8752l-19 -414 38 3 -19 411zm7552 -5187l62 0 36 20 17 264c111,30 282,47 362,129l-408 321 -47 -46 -14 206 -216 60c86,122 245,-11 309,201 80,259 -106,195 -150,305l679 -179c48,160 -13,509 -27,689l-156 32 -86 377 -296 105 -92 -167 -31 -31 -539 468 3 57 671 440 46 421c-175,65 -234,-321 -381,67 -28,74 90,591 129,672l169 -15 -180 412c-41,15 -283,-226 -327,215 -10,110 -342,369 -434,463 -151,156 -79,525 -89,773 -4,90 -57,810 -53,799l479 48 28 -267c289,-233 596,249 676,451 216,549 288,102 388,930 49,408 164,818 79,1253 -152,776 -541,583 -778,-63 103,-82 184,-38 270,-98l-244 -827c-96,61 -335,421 -420,535 -110,-57 -77,-43 -185,-231 -391,-90 -408,216 -665,-46 -120,-122 -313,-339 -452,-423 -159,-94 -539,2 -674,133 -156,152 -28,301 9,489 190,968 -463,500 -760,737 -182,145 -200,337 -470,421 -340,107 -414,-104 -663,-117 -238,-13 -380,213 -600,36 -176,-141 -376,-346 -625,-192 -191,118 88,393 -144,508 -274,137 -463,-87 -671,-150 -401,-121 -613,522 -1131,295 -135,-60 -261,-289 -423,-380 -159,-89 -417,-7 -519,-139 -299,-388 -28,-904 -622,-810 -431,69 -393,-540 -712,-563 -278,-21 -427,76 -749,5 -162,-37 -398,-140 -396,81 2,167 -293,41 -269,275 17,167 49,419 -249,232 -300,-189 -109,-169 -523,-311 -268,-93 -218,-278 -385,-458 -215,-231 -358,-91 -591,-40 -196,43 -266,-120 -456,34 -223,181 -59,372 -23,571 58,327 -228,258 -425,311 -384,102 -179,1054 -574,921l-96 -566c-84,-204 -161,-7 -279,-290 -90,-214 -157,-199 -251,-359 -175,-299 -96,-51 -186,-424 -38,-159 -94,-287 -100,-468l399 -48 -15 -83 217 49 -55 -146c293,-166 18,283 491,-111 152,-127 -34,-389 -126,-530 -123,-190 -181,-252 -112,-529 25,-101 148,-117 78,-230 -61,-99 -176,-81 -231,-173l113 -191c81,-12 178,85 205,-2 32,-102 -31,-170 50,-307 62,-106 179,-132 150,-246 -27,-107 -102,-124 -92,-261 13,-175 213,-416 351,-512 326,-228 288,-161 498,-1l-35 -284 662 -56 -58 -68 979 -1188 418 127 -51 138c231,42 396,849 182,980 -456,279 -543,-558 -626,-670 -12,131 35,314 -54,417 -106,123 -141,68 -172,276 -8,51 -6,401 124,260 80,-87 -148,-211 78,-266l176 341 109 -232 426 17 43 170c59,-96 289,-520 363,-549l151 302c-93,90 -196,-2 -273,52l75 179 874 -71 -140 145 668 152 40 -184c341,-74 429,631 655,545l-113 -321 124 -334c57,-99 338,-351 338,-440l250 153c12,68 -124,309 -159,386l40 21 293 -406 -57 398 235 153 -193 -250 250 -88 282 169 -150 -482 549 -46c30,-129 -172,-201 171,-440 70,-49 359,-227 437,-233l164 -19 114 -113 -43 -23 173 -350 68 13 204 289 101 -92c157,-30 327,97 369,248 62,223 -86,311 -132,475l121 21 269 653 -140 408 -174 166 190 1262 298 42 424 705 17 491 385 -169 20 48c210,-302 95,-699 470,-322l167 -16 388 492c25,-19 397,-145 666,-74 156,41 463,-123 594,-214 523,-366 -161,-523 -8,-1081 99,-144 445,-334 372,-543 -47,-133 -194,-85 -165,-291 32,-220 -44,-306 -24,-387l447 -199c-9,-141 -138,-248 -212,-342 -173,-221 29,-248 34,-375 16,-380 430,-37 144,-622 -221,-452 359,-397 85,-648 -109,-100 -282,3 -327,-197 -26,-120 158,-231 104,-412l-244 -106 238 -487 287 -72 -12 -86 -268 -65c-39,-131 377,-668 497,-759 133,-100 251,-153 379,-272 250,-233 399,106 448,-132 -177,-37 -164,-15 -231,-87l335 -312zm-5595 4003c7,81 129,239 -179,301l179 -301zm21 -21l-21 21 21 -21zm-854 -447l0 0zm6543 -3251l0 0z"/>
   <path class="fil2" d="M12539 6552l0 0zm20 -21l-20 21 20 -21zm0 0l-358 132 -24 192 179 146 -140 60 20 80 -401 166 62 264c-324,77 -336,-403 -503,-424l-407 90c25,69 90,176 64,247l-890 84 269 653 -140 408 -174 166 190 1262 298 42 424 705 17 491 385 -169 20 48c210,-302 95,-699 470,-322l167 -16 388 492c25,-19 397,-145 666,-74 156,41 463,-123 594,-214 523,-366 -161,-523 -8,-1081 99,-144 445,-334 372,-543 -47,-133 -194,-85 -165,-291 32,-220 -44,-306 -24,-387l447 -199c-9,-141 -138,-248 -212,-342 -173,-221 29,-248 34,-375 16,-380 430,-37 144,-622 -221,-452 359,-397 85,-648 -109,-100 -282,3 -327,-197 -26,-120 158,-231 104,-412l-244 -106 134 202c-77,-10 -454,-166 -537,-159 -282,25 -210,351 -334,461l-550 12c-30,63 -1,220 4,295l-99 -117z"/>
   <path class="fil1" d="M17456 8950l0 71 -20 9c-48,2 -664,-297 -752,-344 -412,-221 -329,-323 -518,-602 -58,-85 -158,-606 -227,-808 -51,-152 -27,-378 -103,-466 -100,-32 -114,-20 -145,6l-671 -440 -3 -57 539 -468 31 31 92 167 296 -105 86 -377 156 -32 235 687c-104,72 -191,-15 -242,165 -53,187 64,158 70,302l-120 -59 -28 305 303 491 65 -165 420 244c-55,42 -96,64 -125,112l328 243c-9,133 -133,76 -62,260 60,156 143,105 211,183l-101 183 72 -10 213 474z"/>
   <path class="fil1" d="M16771 11719l-40 -229 185 4c-25,-92 -715,-191 -518,-581l222 28c-8,-68 -566,-324 -703,-472 -236,-256 -587,-451 -292,7 187,289 370,230 582,617 34,61 519,626 564,626z"/>
   <polygon class="fil3" points="2488,8784 2631,9227 3096,9226 2719,9499 2864,9942 2488,9667 2111,9942 2256,9499 1879,9226 2344,9227 "/>
   <g>
    <path class="fil4" d="M3366 7349l0 64 311 19 -39 115 -310 105 -110 388 -4 14 -4 12 -3 12 -3 11 -2 10 -2 9 -1 9 -1 7 -1 7 0 6 1 6 1 5 1 5 2 4 2 3 2 3 3 3 3 2 3 2 4 2 3 2 4 1 4 1 5 2 4 1 5 1 5 1 5 1 5 1 5 1 6 2 5 1 0 0 5 2 6 2 5 1 6 2 5 1 6 1 5 2 6 1 6 1 6 1 5 0 6 1 6 1 6 1 6 0 7 1 6 1 6 0 7 1 6 0 7 1 6 0 7 1 7 0 7 1 7 0 7 1 7 0 8 1 7 0 8 1 8 0 0 0 588 -56 -45 133 -3 6 -3 5 -5 5 -6 5 -7 5 -8 5 -8 5 -10 4 -10 5 -10 4 -11 4 -12 4 -11 4 -12 4 -12 3 -12 4 -12 3 -12 3 -11 3 -12 3 -11 2 -10 3 -10 2 -9 2 -8 1 -8 2 -6 1 -6 1 -4 1 -4 1 -2 0 -1 0 0 0 -38 115 -4 9 -3 7 -4 8 -4 6 -4 6 -5 5 -5 4 -4 4 -5 3 -5 3 -5 2 -5 1 -5 1 -5 0 -5 0 -5 -1 -4 -1 -5 -2 -4 -3 -4 -2 -3 -3 -3 -4 -3 -4 -3 -4 -2 -5 -1 -5 -1 -6 0 -6 0 -6 0 -6 2 -7 2 -7 0 0 20 -58 -191 64 -26 77 -3 12 -3 11 -3 10 -4 10 -4 8 -4 7 -5 6 -5 5 -5 5 -5 3 -5 3 -6 2 -5 1 -5 0 -6 0 -5 -1 -5 -2 -5 -2 -4 -3 -4 -3 -4 -4 -4 -4 -3 -4 -3 -5 -3 -6 -1 -6 -2 -6 0 -6 0 -6 0 -7 1 -7 2 -7 0 0 13 -37 -285 94 -135 336 -13 21 -13 19 -13 17 -12 15 -11 12 -11 10 -11 8 -9 6 -10 4 -8 3 -9 0 -7 0 -7 -2 -7 -4 -6 -4 -6 -6 -5 -7 -4 -7 -4 -9 -3 -9 -3 -10 -3 -10 -2 -10 -1 -11 -1 -11 0 -11 0 -11 1 -11 1 -11 2 -10 2 -10 3 -9 0 0 96 -348 -171 -249 -19 55 -4 5 -4 4 -4 4 -4 3 -4 3 -4 2 -5 2 -4 1 -5 1 -4 1 -5 0 -4 0 -4 -1 -4 -1 -4 -1 -4 -2 -3 -3 -4 -3 -3 -3 -2 -3 -3 -5 -2 -4 -2 -5 -1 -5 -1 -6 -1 -6 0 -7 1 -7 1 -7 1 -8 2 -8 3 -8 0 0 32 -96 -115 -167 -13 39 -3 6 -3 7 -3 6 -4 6 -4 5 -4 5 -5 4 -5 4 -5 3 -5 3 -5 3 -5 1 -5 2 -5 1 -5 0 -5 -1 -4 0 -5 -2 -4 -2 -3 -2 -4 -4 -3 -3 -2 -5 -3 -5 -1 -6 -1 -6 -1 -7 1 -8 1 -8 1 -9 3 -10 3 -10 0 0 32 -96 -70 -107 -4 -7 -3 -7 -4 -6 -4 -7 -3 -6 -4 -6 -4 -7 -3 -6 -4 -6 -3 -6 -4 -5 -3 -6 -3 -6 -3 -6 -3 -6 -3 -5 -2 -6 -2 -6 -2 -6 -2 -7 -1 -6 -2 -6 0 -7 -1 -7 0 -7 0 -7 1 -7 1 -8 1 -8 2 -8 2 -9 3 -9 0 0 26 -75 418 397 138 90 14 10 13 8 12 8 11 6 10 5 9 5 9 3 7 2 7 1 7 1 5 0 6 -1 4 -2 5 -2 3 -3 4 -3 3 -3 2 -4 3 -4 2 -5 2 -5 2 -5 1 -5 2 -5 2 -5 2 -4 1 -5 2 -5 2 -4 3 -4 2 -4 3 -3 0 0 180 -406 -184 -273 39 -115 258 173 38 -50 19 6zm-292 626l142 48 -105 281 -142 -48 105 -281zm437 -965l134 67 -110 202 -27 59 -139 -57 31 -69 111 -202zm579 -887l123 87 -174 223 -6 10 -129 -77 13 -20 173 -223zm744 -766l95 116 -10 8 -209 187 -105 -106 219 -197 10 -8zm901 -561l71 132 -239 116 -23 13 -84 -124 35 -21 240 -116zm1021 -311l31 146 -187 31 -100 26 -45 -143 113 -29 188 -31zm1066 -35l-9 150 -145 -15 -148 -3 -4 -150 161 3 145 15zm1042 225l-46 143 -91 -33 -190 -52 34 -146 201 55 92 33zm967 446l-76 129 -22 -14 -237 -128 67 -134 247 133 21 14zm851 629l-93 117 -228 -196 94 -117 227 196zm719 784l-116 95 -118 -156 -65 -75 109 -102 73 83 117 155zm561 905l-134 67 -21 -45 -118 -214 129 -77 123 224 21 45zm372 992l-142 46 -78 -271 -4 -11 139 -58 8 22 77 272z"/>
   </g>
  </g>
 </g>
</svg>
