<?xml version="1.0" encoding="utf-8"?>
<!-- Generator: Adobe Illustrator 21.0.0, SVG Export Plug-In . SVG Version: 6.00 Build 0)  -->
<svg version="1.1" id="Layer_1" xmlns="http://www.w3.org/2000/svg" xmlns:xlink="http://www.w3.org/1999/xlink" x="0px" y="0px"
	 viewBox="0 0 1000 1000" style="enable-background:new 0 0 1000 1000;" xml:space="preserve">
<style type="text/css">
	.st0{display:none;}
	.st1{fill:#FFFFFF;}
	.st2{enable-background:new    ;}
</style>
<path class="st0" d="M807,386.7c15.7,0,28.5-12.8,28.5-28.5s-12.8-28.5-28.5-28.5h-14V149h14c15.7,0,28.5-12.8,28.5-28.5
	S822.7,92,807,92H201.6c-15.7,0-28.5,12.8-28.5,28.5s12.8,28.5,28.5,28.5h14.5v180.7h-14.5c-15.7,0-28.5,12.8-28.5,28.5
	s12.8,28.5,28.5,28.5h14.5v225h-22.4c-15.7,0-28.5,12.8-28.5,28.5s12.8,28.5,28.5,28.5h22.4v180.7h-14.5
	c-15.7,0-28.5,12.8-28.5,28.5s12.8,28.5,28.5,28.5H807c15.7,0,28.5-12.8,28.5-28.5s-12.8-28.5-28.5-28.5h-14V668.8h6.1
	c15.7,0,28.5-12.8,28.5-28.5s-12.8-28.5-28.5-28.5H793v-225L807,386.7L807,386.7z"/>
<circle class="st1" cx="499.7" cy="500" r="500"/>
<g>
	<g>
		<path d="M375,615.1c-107.8,0-195.5-87.7-195.5-195.5S267.2,224.1,375,224.1s195.5,87.7,195.5,195.5c0,53.6-21.7,102.3-56.8,137.6
			c-4.8,4.8-37.7,34.8-46.6,42.9c-29.7,27-18.3,84.1-6.5,121.3c9.2,28.9-9.5,54.1-29.3,54.5c-15.5,0.3-26.9-13.4-26.2-34.3
			c0.4-13.2,5.1-21.3,8-40.3c6.5-41.9,19-82.7-16.3-86.7c-1.8-0.2-8.3,0-10.1,0.1C382.9,615,378.9,615.1,375,615.1z M375,295.3
			c-68.5,0-124.3,55.8-124.3,124.3c0,61.7,45.2,113.1,104.3,122.7c6.5,1.1,13.3,2.5,20,4c4.4,1,6.8,2.3,9.7,3.2
			c23,7.1,30,11.9,38.8,9.6c15.7-4.1,33.1-37.4,36.3-42.2c7.5-11.6,6.7-12.2,15-23.3c15.4-20.7,24.5-46.3,24.5-74
			C499.3,351.1,443.5,295.3,375,295.3z"/>
	</g>
	<path d="M649.3,608.1L649.3,608.1c-17.8,0-32.3-14.5-32.3-32.3V354.7c0-17.8,14.5-32.3,32.3-32.3l0,0c17.8,0,32.3,14.5,32.3,32.3
		v221.1C681.5,593.5,667,608.1,649.3,608.1z"/>
	<path d="M765.4,608.3L765.4,608.3c-17.8,0-32.3-14.5-32.3-32.3V262.7c0-17.8,14.5-32.3,32.3-32.3l0,0c17.8,0,32.3,14.5,32.3,32.3
		V576C797.7,593.7,783.1,608.3,765.4,608.3z"/>
	<g class="st2">
		<path d="M595.6,636.5c0-2.4,1.3-3.6,3.6-3.6h11.3c2.4,0,3.6,1.3,3.6,3.6v109.2c0,19.7-11.8,29.2-28.6,29.2c-16.9,0-29-9.7-29-29.2
			V636.5c0-2.4,1.3-3.6,3.6-3.6h11.3c2.4,0,3.6,1.3,3.6,3.6v106.8c0,18.6,20.4,18.6,20.4,0V636.5z"/>
		<path d="M706.6,745.7c0,19.5-11.1,29.2-28.8,29.2s-28.8-10-28.8-29.2v-16.2c0-2.4,1.3-3.6,3.6-3.6h11.3c2.4,0,3.6,1.3,3.6,3.6
			v13.8c0,18.6,20.4,18.6,20.4,0v-11.5c0-5.6-6-12-13.8-18.4c-10.9-9.1-25.1-20.8-25.1-36.3v-17.5c0-19.5,12-29.2,28.8-29.2
			c19.1,0,28.8,9.7,28.8,29.2v18.2c0,2.4-1.3,3.6-3.6,3.6h-11.3c-2.4,0-3.6-1.3-3.6-3.6V662c0-18.6-20.4-18.6-20.4,0v11.7
			c0,7.8,6.2,14.9,13.7,21c11.3,8.4,25.3,18.2,25.3,33.3V745.7z"/>
		<path d="M783.1,772.4c-2.4,0-3.6-1.1-3.8-3.5l-3.3-27.5h-20.6l-3.3,27.5c-0.2,2.4-1.5,3.5-3.8,3.5H737c-2.6,0-3.6-1.3-3.3-3.8
			l17.9-132.3c0.2-2.4,1.5-3.5,3.8-3.5h20.4c2.4,0,3.6,1.1,4,3.5l17.9,132.3c0.4,2.6-0.7,3.8-3.3,3.8H783.1z M773.8,723.8l-8.2-69.6
			l-8.2,69.6H773.8z"/>
	</g>
</g>
</svg>
