<?xml version="1.0" encoding="utf-8"?>
<!-- Generator: Adobe Illustrator 21.0.0, SVG Export Plug-In . SVG Version: 6.00 Build 0)  -->
<svg version="1.1" id="Layer_1" xmlns="http://www.w3.org/2000/svg" xmlns:xlink="http://www.w3.org/1999/xlink" x="0px" y="0px"
	 viewBox="0 0 1000 1000" style="enable-background:new 0 0 1000 1000;" xml:space="preserve">
<style type="text/css">
	.st0{display:none;fill-rule:evenodd;clip-rule:evenodd;fill:none;stroke:#D73647;stroke-miterlimit:10;}
	.st1{fill:#FFFFFF;}
	.st2{fill:none;}
	.st3{fill:#D73647;}
	.st4{fill:#004990;}
</style>
<circle class="st0" cx="437.5" cy="464" r="141.8"/>
<ellipse class="st1" cx="499.3" cy="500" rx="499.3" ry="500"/>
<g>
	<path class="st2" d="M998.6,537.9H500v-76.4h498.5c-2-26.5-6.1-52.4-12.1-77.6H500v-76.4h461.6c-11.3-27.2-25-53.1-40.8-77.6H500
		v-76.4h360.4c-27.9-29.1-59.4-54.7-93.6-76.4H500V0c0,0,0,0,0,0c0,0,0,0,0,0C223.9,0,0,223.9,0,500c0,39.8,4.7,78.5,13.5,115.6
		h973.1C992.5,590.4,996.6,564.4,998.6,537.9z"/>
	<path class="st2" d="M961.8,692H38.2c11.1,26.7,24.5,52.3,39.8,76.4H922C937.3,744.2,950.7,718.7,961.8,692z"/>
	<path class="st2" d="M861,846H139c27.8,29,59.2,54.7,93.3,76.4h535.4C801.8,900.7,833.1,875,861,846z"/>
	<path class="st3" d="M500,537.9h498.6c0.9-12.5,1.4-25.2,1.4-37.9c0-12.9-0.5-25.8-1.5-38.5H500V537.9z"/>
	<path class="st3" d="M232.3,922.4c77.4,49.2,169.2,77.6,267.7,77.6s190.3-28.5,267.7-77.6H232.3z"/>
	<path class="st3" d="M922,768.3H78c17.8,27.9,38.2,53.9,61,77.6H861C883.7,822.2,904.2,796.2,922,768.3z"/>
	<path class="st3" d="M500,383.9h486.4c-6.3-26.3-14.6-51.9-24.8-76.4H500V383.9z"/>
	<path class="st3" d="M500,77.1h266.8C689.6,28.3,598.1,0,500,0c0,0,0,0,0,0V77.1z"/>
	<path class="st3" d="M986.5,615.6H13.5c6.2,26.3,14.5,51.9,24.8,76.4h923.6C972,667.4,980.3,641.9,986.5,615.6z"/>
	<path class="st3" d="M500,229.9h420.8c-17.6-27.4-37.9-53-60.4-76.4H500V229.9z"/>
</g>
<path class="st1" d="M93,208.6l0.4,0.3c0.1-0.1,0.1-0.2,0.2-0.3H93z"/>
<path class="st1" d="M282.1,48.3l1.2,0.9c0.7-0.3,1.4-0.6,2-0.9H282.1z"/>
<path class="st1" d="M310.9,27l-3.3,11.4c2.1-0.9,4.3-1.8,6.4-2.6L310.9,27z"/>
<polygon class="st4" points="248.3,293.7 240.8,315 219.5,315 237,327.6 230.8,348.8 248.3,336.3 265.8,348.8 259.6,327.6 
	277.1,315 254.6,315 "/>
<polygon class="st4" points="254.6,421.5 248.3,401.4 240.8,421.5 219.5,421.5 237,435.3 230.8,455.3 248.3,442.8 265.8,455.3 
	259.6,435.3 277.1,421.5 "/>
<polygon class="st4" points="185.7,134.7 178.2,154.8 156.9,154.8 174.4,168.5 166.9,188.6 185.7,176 203.2,188.6 195.7,168.5 
	214.5,154.8 192,154.8 "/>
<polygon class="st4" points="248.3,187.3 240.8,208.6 219.5,208.6 237,221.1 230.8,242.4 248.3,229.9 265.8,242.4 259.6,221.1 
	277.1,208.6 254.6,208.6 "/>
<polygon class="st4" points="248.3,80.9 240.8,102.2 219.5,102.2 237,114.7 230.8,136 248.3,122.2 265.8,136 259.6,114.7 
	277.1,102.2 254.6,102.2 "/>
<polygon class="st4" points="185.7,241.2 178.2,261.2 156.9,261.2 174.4,275 166.9,296.3 185.7,282.5 203.2,296.3 195.7,275 
	214.5,261.2 192,261.2 "/>
<polygon class="st4" points="121.8,293.7 115.6,315 93,315 111.8,327.6 104.3,348.8 121.8,336.3 140.6,348.8 133.1,327.6 151.9,315 
	129.3,315 "/>
<polygon class="st4" points="66.7,475.3 59.2,454 53,475.3 30.4,475.3 49.2,487.8 41.7,509.1 59.2,495.4 78,509.1 70.5,487.8 
	88,475.3 "/>
<polygon class="st4" points="129.3,421.5 121.8,401.4 115.6,421.5 93,421.5 111.8,435.3 104.3,455.3 121.8,442.8 140.6,455.3 
	133.1,435.3 151.9,421.5 "/>
<polygon class="st4" points="318.4,475.3 310.9,454 304.7,475.3 282.1,475.3 299.6,487.8 293.4,509.1 310.9,495.4 328.4,509.1 
	322.2,487.8 339.7,475.3 "/>
<polygon class="st4" points="192,475.3 185.7,454 178.2,475.3 156.9,475.3 174.4,487.8 166.9,509.1 185.7,495.4 203.2,509.1 
	195.7,487.8 214.5,475.3 "/>
<polygon class="st4" points="185.7,347.6 178.2,367.6 156.9,367.6 174.4,381.4 166.9,402.7 185.7,388.9 203.2,402.7 195.7,381.4 
	214.5,368.9 192,368.9 "/>
<polygon class="st4" points="59.2,347.6 53,367.6 30.4,367.6 49.2,381.4 41.7,402.7 59.2,388.9 78,402.7 70.5,381.4 88,368.9 
	66.7,368.9 "/>
<polygon class="st4" points="373.5,80.9 367.3,102.2 344.7,102.2 363.5,114.7 356,136 373.5,122.2 392.3,136 384.8,114.7 
	402.3,102.2 381,102.2 "/>
<polygon class="st4" points="436.1,241.2 429.9,261.2 407.3,261.2 426.1,275 418.6,296.3 436.1,282.5 454.9,296.3 447.4,275 
	466.2,261.2 443.7,261.2 "/>
<polygon class="st4" points="443.7,475.3 436.1,454 429.9,475.3 407.3,475.3 426.1,487.8 418.6,509.1 436.1,495.4 454.9,509.1 
	447.4,487.8 466.2,475.3 "/>
<polygon class="st4" points="436.1,347.6 429.9,367.6 407.3,367.6 426.1,381.4 418.6,402.7 436.1,388.9 454.9,402.7 447.4,381.4 
	466.2,368.9 443.7,368.9 "/>
<polygon class="st4" points="436.1,134.7 429.9,154.8 407.3,154.8 426.1,168.5 418.6,188.6 436.1,176 454.9,188.6 447.4,168.5 
	466.2,154.8 443.7,154.8 "/>
<polygon class="st4" points="436.1,27 429.9,48.3 407.3,48.3 426.1,62.1 418.6,82.1 436.1,69.6 454.9,82.1 447.4,62.1 466.2,48.3 
	443.7,48.3 "/>
<polygon class="st4" points="373.5,293.7 367.3,315 344.7,315 363.5,327.6 356,348.8 373.5,336.3 392.3,348.8 384.8,327.6 
	402.3,315 381,315 "/>
<polygon class="st4" points="310.9,134.7 304.7,154.8 282.1,154.8 299.6,168.5 293.4,188.6 310.9,176 328.4,188.6 322.2,168.5 
	339.7,154.8 318.4,154.8 "/>
<polygon class="st4" points="310.9,241.2 304.7,261.2 282.1,261.2 299.6,275 293.4,296.3 310.9,282.5 328.4,296.3 322.2,275 
	339.7,261.2 318.4,261.2 "/>
<polygon class="st4" points="310.9,347.6 304.7,367.6 282.1,367.6 299.6,381.4 293.4,402.7 310.9,388.9 328.4,402.7 322.2,381.4 
	339.7,368.9 318.4,368.9 "/>
<polygon class="st4" points="381,421.5 373.5,401.4 367.3,421.5 344.7,421.5 363.5,435.3 356,455.3 373.5,442.8 392.3,455.3 
	384.8,435.3 402.3,421.5 "/>
<polygon class="st4" points="373.5,187.3 367.3,208.6 344.7,208.6 363.5,221.1 356,242.4 373.5,229.9 392.3,242.4 384.8,221.1 
	402.3,208.6 381,208.6 "/>
<path class="st4" d="M500,0c-65.7,0-128.5,12.7-186,35.8l4.4,12.5h21.3l-17.5,13.8l6.3,20l-17.5-12.5l-17.5,12.5l6.3-20l-16.3-12.8
	c-75.8,36.5-141,91.6-189.6,159.3h21.9l6.3-21.3l7.5,21.3h22.5l-18.8,12.5l7.5,21.3l-18.8-12.5l-17.5,12.5l7.5-21.3l-18.3-12.2
	c-10.5,14.7-20.3,29.9-29.2,45.8l2.5,6.6H88L70.5,275l7.5,21.3l-18.8-13.8l-15.1,11.9c-18,39.9-30.9,82.5-38,127.1h19.3L7.9,435.3
	l6.3,20l-11.4-8.1C1,464.5,0,482.2,0,500c0,12.8,0.5,25.4,1.4,37.9H500V0z M78,509.1l-18.8-13.8l-17.5,13.8l7.5-21.3l-18.8-12.5H53
	l6.3-21.3l7.5,21.3H88l-17.5,12.5L78,509.1z M70.5,381.4l7.5,21.3l-18.8-13.8l-17.5,13.8l7.5-21.3l-18.8-13.8H53l6.3-20l7.5,21.3H88
	L70.5,381.4z M140.6,455.3l-18.8-12.5l-17.5,12.5l7.5-20L93,421.5h22.5l6.3-20l7.5,20h22.5l-18.8,13.8L140.6,455.3z M133.1,327.6
	l7.5,21.3l-18.8-12.5l-17.5,12.5l7.5-21.3L93,315h22.5l6.3-21.3l7.5,21.3h22.5L133.1,327.6z M203.2,509.1l-17.5-13.8l-18.8,13.8
	l7.5-21.3l-17.5-12.5h21.3l7.5-21.3l6.3,21.3h22.5l-18.8,12.5L203.2,509.1z M195.7,381.4l7.5,21.3l-17.5-13.8l-18.8,13.8l7.5-21.3
	l-17.5-13.8h21.3l7.5-20l6.3,21.3h22.5L195.7,381.4z M195.7,275l7.5,21.3l-17.5-13.8l-18.8,13.8l7.5-21.3l-17.5-13.8h21.3l7.5-20
	l6.3,20h22.5L195.7,275z M195.7,168.5l7.5,20L185.7,176l-18.8,12.5l7.5-20l-17.5-13.8h21.3l7.5-20l6.3,20h22.5L195.7,168.5z
	 M265.8,455.3l-17.5-12.5l-17.5,12.5l6.3-20l-17.5-13.8h21.3l7.5-20l6.3,20h22.5l-17.5,13.8L265.8,455.3z M259.6,327.6l6.3,21.3
	l-17.5-12.5l-17.5,12.5l6.3-21.3L219.5,315h21.3l7.5-21.3l6.3,21.3h22.5L259.6,327.6z M259.6,221.1l6.3,21.3l-17.5-12.5l-17.5,12.5
	l6.3-21.3l-17.5-12.5h21.3l7.5-21.3l6.3,21.3h22.5L259.6,221.1z M259.6,114.7l6.3,21.3l-17.5-13.8L230.8,136l6.3-21.3l-17.5-12.5
	h21.3l7.5-21.3l6.3,21.3h22.5L259.6,114.7z M328.4,509.1l-17.5-13.8l-17.5,13.8l6.3-21.3l-17.5-12.5h22.5l6.3-21.3l7.5,21.3h21.3
	l-17.5,12.5L328.4,509.1z M322.2,381.4l6.3,21.3l-17.5-13.8l-17.5,13.8l6.3-21.3l-17.5-13.8h22.5l6.3-20l7.5,21.3h21.3L322.2,381.4z
	 M322.2,275l6.3,21.3l-17.5-13.8l-17.5,13.8l6.3-21.3l-17.5-13.8h22.5l6.3-20l7.5,20h21.3L322.2,275z M322.2,168.5l6.3,20L310.9,176
	l-17.5,12.5l6.3-20l-17.5-13.8h22.5l6.3-20l7.5,20h21.3L322.2,168.5z M392.3,455.3l-18.8-12.5L356,455.3l7.5-20l-18.8-13.8h22.5
	l6.3-20l7.5,20h21.3l-17.5,13.8L392.3,455.3z M384.8,327.6l7.5,21.3l-18.8-12.5L356,348.8l7.5-21.3L344.7,315h22.5l6.3-21.3L381,315
	h21.3L384.8,327.6z M384.8,221.1l7.5,21.3l-18.8-12.5L356,242.4l7.5-21.3l-18.8-12.5h22.5l6.3-21.3l7.5,21.3h21.3L384.8,221.1z
	 M384.8,114.7l7.5,21.3l-18.8-13.8L356,136l7.5-21.3l-18.8-12.5h22.5l6.3-21.3l7.5,21.3h21.3L384.8,114.7z M454.9,509.1l-18.8-13.8
	l-17.5,13.8l7.5-21.3l-18.8-12.5h22.5l6.3-21.3l7.5,21.3h22.5l-18.8,12.5L454.9,509.1z M447.4,381.4l7.5,21.3l-18.8-13.8l-17.5,13.8
	l7.5-21.3l-18.8-13.8h22.5l6.3-20l7.5,21.3h22.5L447.4,381.4z M447.4,275l7.5,21.3l-18.8-13.8l-17.5,13.8l7.5-21.3l-18.8-13.8h22.5
	l6.3-20l7.5,20h22.5L447.4,275z M447.4,168.5l7.5,20L436.1,176l-17.5,12.5l7.5-20l-18.8-13.8h22.5l6.3-20l7.5,20h22.5L447.4,168.5z
	 M447.4,62.1l7.5,20l-18.8-12.5l-17.5,12.5l7.5-20l-18.8-13.8h22.5l6.3-21.3l7.5,21.3h22.5L447.4,62.1z"/>
<polygon class="st1" points="310.9,134.7 304.7,154.8 282.1,154.8 299.6,168.5 293.4,188.6 310.9,176 328.4,188.6 322.2,168.5 
	339.7,154.8 318.4,154.8 "/>
<polygon class="st1" points="373.5,293.7 367.3,315 344.7,315 363.5,327.6 356,348.8 373.5,336.3 392.3,348.8 384.8,327.6 
	402.3,315 381,315 "/>
<polygon class="st1" points="381,421.5 373.5,401.4 367.3,421.5 344.7,421.5 363.5,435.3 356,455.3 373.5,442.8 392.3,455.3 
	384.8,435.3 402.3,421.5 "/>
<polygon class="st1" points="310.9,347.6 304.7,367.6 282.1,367.6 299.6,381.4 293.4,402.7 310.9,388.9 328.4,402.7 322.2,381.4 
	339.7,368.9 318.4,368.9 "/>
<polygon class="st1" points="318.4,475.3 310.9,454 304.7,475.3 282.1,475.3 299.6,487.8 293.4,509.1 310.9,495.4 328.4,509.1 
	322.2,487.8 339.7,475.3 "/>
<polygon class="st1" points="373.5,187.3 367.3,208.6 344.7,208.6 363.5,221.1 356,242.4 373.5,229.9 392.3,242.4 384.8,221.1 
	402.3,208.6 381,208.6 "/>
<polygon class="st1" points="248.3,80.9 240.8,102.2 219.5,102.2 237,114.7 230.8,136 248.3,122.2 265.8,136 259.6,114.7 
	277.1,102.2 254.6,102.2 "/>
<polygon class="st1" points="310.9,241.2 304.7,261.2 282.1,261.2 299.6,275 293.4,296.3 310.9,282.5 328.4,296.3 322.2,275 
	339.7,261.2 318.4,261.2 "/>
<polygon class="st1" points="436.1,134.7 429.9,154.8 407.3,154.8 426.1,168.5 418.6,188.6 436.1,176 454.9,188.6 447.4,168.5 
	466.2,154.8 443.7,154.8 "/>
<polygon class="st1" points="436.1,27 429.9,48.3 407.3,48.3 426.1,62.1 418.6,82.1 436.1,69.6 454.9,82.1 447.4,62.1 466.2,48.3 
	443.7,48.3 "/>
<path class="st1" d="M7.9,435.3l17.5-13.8H6.2c-1.3,8.5-2.5,17.1-3.4,25.7l11.4,8.1L7.9,435.3z"/>
<polygon class="st1" points="436.1,347.6 429.9,367.6 407.3,367.6 426.1,381.4 418.6,402.7 436.1,388.9 454.9,402.7 447.4,381.4 
	466.2,368.9 443.7,368.9 "/>
<polygon class="st1" points="373.5,80.9 367.3,102.2 344.7,102.2 363.5,114.7 356,136 373.5,122.2 392.3,136 384.8,114.7 
	402.3,102.2 381,102.2 "/>
<polygon class="st1" points="443.7,475.3 436.1,454 429.9,475.3 407.3,475.3 426.1,487.8 418.6,509.1 436.1,495.4 454.9,509.1 
	447.4,487.8 466.2,475.3 "/>
<polygon class="st1" points="436.1,241.2 429.9,261.2 407.3,261.2 426.1,275 418.6,296.3 436.1,282.5 454.9,296.3 447.4,275 
	466.2,261.2 443.7,261.2 "/>
<polygon class="st1" points="248.3,187.3 240.8,208.6 219.5,208.6 237,221.1 230.8,242.4 248.3,229.9 265.8,242.4 259.6,221.1 
	277.1,208.6 254.6,208.6 "/>
<polygon class="st1" points="59.2,347.6 53,367.6 30.4,367.6 49.2,381.4 41.7,402.7 59.2,388.9 78,402.7 70.5,381.4 88,368.9 
	66.7,368.9 "/>
<polygon class="st1" points="121.8,293.7 115.6,315 93,315 111.8,327.6 104.3,348.8 121.8,336.3 140.6,348.8 133.1,327.6 151.9,315 
	129.3,315 "/>
<polygon class="st1" points="121.8,401.4 115.6,421.5 93,421.5 111.8,435.3 104.3,455.3 121.8,442.8 140.6,455.3 133.1,435.3 
	151.9,421.5 129.3,421.5 "/>
<path class="st1" d="M293.4,82.1l17.5-12.5l17.5,12.5l-6.3-20l17.5-13.8h-21.3L314,35.8c-2.1,0.9-4.3,1.7-6.4,2.6l-2.9,9.9h-19.3
	c-0.7,0.3-1.4,0.6-2,0.9l16.3,12.8L293.4,82.1z"/>
<path class="st1" d="M78,296.3L70.5,275L88,261.2H66.7l-2.5-6.6c-7.3,12.9-14,26.1-20.2,39.7l15.1-11.9L78,296.3z"/>
<path class="st1" d="M104.3,242.4l17.5-12.5l18.8,12.5l-7.5-21.3l18.8-12.5h-22.5l-7.5-21.3l-6.3,21.3H93.7
	c-0.1,0.1-0.1,0.2-0.2,0.3l18.3,12.2L104.3,242.4z"/>
<polygon class="st1" points="66.7,475.3 59.2,454 53,475.3 30.4,475.3 49.2,487.8 41.7,509.1 59.2,495.4 78,509.1 70.5,487.8 
	88,475.3 "/>
<polygon class="st1" points="185.7,134.7 178.2,154.8 156.9,154.8 174.4,168.5 166.9,188.6 185.7,176 203.2,188.6 195.7,168.5 
	214.5,154.8 192,154.8 "/>
<polygon class="st1" points="254.6,421.5 248.3,401.4 240.8,421.5 219.5,421.5 237,435.3 230.8,455.3 248.3,442.8 265.8,455.3 
	259.6,435.3 277.1,421.5 "/>
<polygon class="st1" points="248.3,293.7 240.8,315 219.5,315 237,327.6 230.8,348.8 248.3,336.3 265.8,348.8 259.6,327.6 
	277.1,315 254.6,315 "/>
<polygon class="st1" points="192,475.3 185.7,454 178.2,475.3 156.9,475.3 174.4,487.8 166.9,509.1 185.7,495.4 203.2,509.1 
	195.7,487.8 214.5,475.3 "/>
<polygon class="st1" points="185.7,347.6 178.2,367.6 156.9,367.6 174.4,381.4 166.9,402.7 185.7,388.9 203.2,402.7 195.7,381.4 
	214.5,368.9 192,368.9 "/>
<polygon class="st1" points="185.7,241.2 178.2,261.2 156.9,261.2 174.4,275 166.9,296.3 185.7,282.5 203.2,296.3 195.7,275 
	214.5,261.2 192,261.2 "/>
</svg>
