<?xml version="1.0" encoding="utf-8"?>
<!-- Generator: Adobe Illustrator 21.0.0, SVG Export Plug-In . SVG Version: 6.00 Build 0)  -->
<svg version="1.1" id="Layer_1" xmlns="http://www.w3.org/2000/svg" xmlns:xlink="http://www.w3.org/1999/xlink" x="0px" y="0px"
	 viewBox="0 0 1000 1000" style="enable-background:new 0 0 1000 1000;" xml:space="preserve">
<g>
	<path d="M601.7,747.6c-1.3-12.7,1.1-22.4,3.1-59.4c0.1-1.5,2.9-4.9,4.2-9.2c1.6-5.2,10-7.9,7-8.8c-5-1.5-44-31.2-45.8-31.7
		c-1.4-3.5-10.1,2.4-18.1,7.3c-10,6.1-10.8,18.5-14.3,18c-2.6-0.4-2.4-7.5-7-19.4c-2.7-6.8-7.2-15.9-8.8-15.4
		c-1.9,0.6,0.4,13.9,2.4,22.4c2.6,11,4.4,13,6.6,21.3c1.1,4.1,4.5,17.8,2.4,32.6c-2.2,15.4-4.2,21.5-8.8,40
		c-2.5,10.4-1.5,18.3,4,30.8c4.6,10.4,4.4,15,7.7,14.7c3.8-0.3,8.1,1.9,23.2,2.3c9.7,0.3,7.7,0.3,9.5-3.7c2.3-4.9,0.7-10,0-12.1
		c-1-3.2-2.4-5-3.5-6.8c-2.8-4.5-3.8-9-5.7-17.8c-3.2-14.6-5-23.2-4.6-34.3c0.8-20.9,8.5-20.2,8.4-40.3c0-7.6-1.2-14.5,3.1-22.4
		c0.6-1.1,1.1-2.4,1.6-3.7c0.7,4,1.8,8.7,2.9,13.6c11,48.9,3.8,64.3,0.9,106.5c-1.3,17.9,11.5,24.3,18.5,27.3
		c6.5,2.7,15.6,2.6,20.2,2.6c13.8,0.1,14.8,0.6,16.4,0c4.2-1.6,5.5-4.5,7.3-7C642,784.7,603.9,768.8,601.7,747.6z"/>
	<path d="M618.4,650.4c7.5-5.7,1.9-36.4,0.2-41.4c-0.1-0.4-0.6-1.6,0-2.4c1.1-1.5,4.9-0.4,5.7-0.2c7.2,1.7,26.5-6.8,35-22.7
		c7.2-13.5,4.6-28.5,2.9-28.8c-1.6-0.3-2.3,12-10.1,15.2c-5.1,2.1-10.3-4.5-14.3-2.4c-9.7,5-37.6,25.6-53.5,35
		c-11.9,7.1,15.7,32.3,22.4,46.6C608,651.9,615.1,652.9,618.4,650.4z"/>
	<g>
		<path d="M522.2,313.2c2.5-0.3,4-0.5,3.8-0.7C525.4,311.9,524.1,312.2,522.2,313.2z"/>
		<path d="M925.1,338.9c-2.8-2.7-9.1-5.8-12.3-7.9c-43.6-28.7-87.9-49.3-101.6-77.1c-7.7-15.5,1.3-34.2-4-35.6
			c-6.6-1.8-15.1,25.2-27.7,25.5c-15.6,0.4-25.3-29.2-30.4-29c-8,0.2-0.7,33-12.3,36.1c-4.5,1.2-1.3-3.4-23.3-11.9
			c-6.3-2.4-16.1-3.3-18.5-1.3c-3.5,2.9-1.1,11.1-0.4,13.2c5.2,17.6,20.1,19.7,19.8,26.8c-0.8,18.1-97.7,26.7-106.9,22.4
			c-0.4-0.2-2.6-1.3-4.4-0.4c-2.3,1.2-1.4,4.6-2.6,7c-3.7,7.4-23.3-1-32.6,7.9c-5.1,4.9-2.7,17.5-7.9,21.6
			c-10.3,8.1-17.5-4.1-25.1-7.5c-19.2-8.8-32.9,16.5-36.1,13.2c-2.6-2.8,3.7-16.1,14.5-23.3c3.8-2.6,6.8-4.4,8.9-5.5
			c-9.2,1-32.9,2.5-43.2,2c-2.8-0.1-13.5,5-12.3,14.1c0.5,4.3,4,9.2,8.4,11.4c3.3,1.7,6.6,1.8,6.6,2.2c-0.1,0.8-11.4-2.1-15.4,2.6
			c-4.3,5.1,0.5,19.7-1.3,20.7c-1.7,0.9-7.1-13.9-17.1-18.9c-20-9.9-67.4,40.1-68.3,39.6c-2.5-1.5-4.6,5.1-4.4,8.8
			c0.5,10.7,23,14.3,22.4,20.7c-0.4,5.3-16.7,6.4-41.8,19.8c-6.9,3.7-11.9,6.9-11.9,11c0,6.1,11.4,7.7,13.6,17.6
			c0.1,0.6,1.4,6.7-1.8,11.9c-2.8,4.6-6.3,4.1-7,7c-1.5,6,12.6,11.1,11.9,18.9c-0.3,3.1-2.7,4.3-6.6,8.4c0,0-15.3,5.8-12.3,20.7
			c3.5,17.2,2.8,46,14.1,56.8c2.1,2,13.6,8.6,23.3,4.8c4.4-1.7,7.6-5.3,15-6.2c2.7-0.3,12.9-3.9,14.5-1.8
			c2.8,3.7-13.3,14.4-10.1,18.9c3.5,5,39,6.6,63.8,1.3c18-3.9,36.6-11.4,48-24.6c5.4-6.3,6.7-17.7,3.1-20.7
			c-2.6-2.1-6.5,1.1-13.2-0.9c-6.3-1.9-10.8-7.1-10.1-8.4c0.6-1.2,5.4,2.2,11.9,1.8c7.5-0.5,16.2-3,22.9-9.7
			c7.4-7.5,11.7-17.9,9.7-24.6c-1.7-5.6-9.4-7.7-8.8-9.2c0.5-1.3,5.8-1,9.7,0.4c18.3,6.7,28.7,44.7,37.8,45.3
			c3.8,0.3-6.7-7.9,5.8-22.4c8.3-9.6,12.5-13.3,15.8-14.1c17-4,9.2,32,27.3,44c1.7,1.1,14.1-2.2,18,0.9c0.7,0.5,2.4-2.8,1.3-9.7
			c-2.5-15.9-15.5-24.1-14.1-26c1.2-1.6,12.7,1.9,17.6,11c4.2,7.8,2,16.5,2.6,16.7c6.9,2.9,18.2-10,11.9-31.2
			c-0.7-2.5,4.8-5.6,7-4.8c5.1,1.7,0.1,23,3.1,24.2c21.2,8.3,75.1-133.6,102.1-143c7.5-2.6,21.4,0.2,40.5-3.1
			c23.3-4,17.8-12.6,31.4-12.8c6.5-0.1,17.7-4.1,33.8-0.4c6,1.4,7.5,2,13.6,4c18,5.7,24.7-1.1,25-7.1c0.2-5.5,5.6-6.8,5.6-6.8
			C933.8,366.6,939.2,352.6,925.1,338.9z M453.5,503.9c-5,4.7-11.1,5.9-16.7,7c-4.2,0.8-7.8,1.6-12.3,0.9
			c-10.4-1.6-19.7-9.8-18.5-13.2c1-2.8,7.8,0.2,14.5-4.4c7.4-5.1,8.2-14.9,10.1-14.5c2.3,0.4-0.8,13.7,5.3,17.6
			c3.1,2,7.2,0.8,10.1,0c9-2.5,12.7-9.3,14.1-8.4C461.5,489.9,459.5,498.3,453.5,503.9z"/>
	</g>
	<path d="M451.3,319.1c-11.6,11.5-55.8,24.3-104.3-3.5c-5.1-2.9-9.6-5.1-8.4-4.4c15.3,9,89.4,3.5,106.9,4
		C448.7,315.2,450.3,318.3,451.3,319.1z"/>
	<path d="M336.9,333.2c-9.7-20.3-44.6-21-65.1-13.6c-14.9,5.4-25.5,16.2-28.2,13.6c-3.2-3.1,12.9-17.5,8.8-27.3
		c-7.1-16.9-71.9-12.5-75.2,2.2c-0.4,2,0.6,4,2.6,7.9c8.5,16.3,22.5,23.3,21.1,26c-1.2,2.3-11.3-2.9-15.8,1.8
		c-1.7,1.8-2.8,5.2-1.8,7.9c3.4,8.5,24.8,2.3,32.1,14.1c0.8,1.2,1.1,2.3,1.8,4.4c4.1,13.2-2.6,20.2-0.9,28.6
		c2.6,12.4,22.4,21.8,29.9,17.2c5.1-3.2,6.3-14.1,7-21.1c0.6-5.8,0.1-8.4,1.3-8.8c2.8-1,11.8,11.3,16.3,25.5c2.2,6.9,1.9,9.8,4.4,11
		c5.9,2.7,19.9-7.5,20.2-18c0.3-8.6-8.6-13.5-6.6-17.2c2.2-4.1,13.7,2,24.2-0.9C330.5,381.7,345.9,352,336.9,333.2z M253.7,373.7
		c-5-4.1-28.2-35.1-40.9-33.9c-4,0.4,18-3.2,23.4-2.6C268.6,340.4,262.7,380.9,253.7,373.7z"/>
	<path d="M342.6,411.5c11.3,3.2,9.9,27.1-4,31.2c-5.5,1.7-16.2-0.3-15.8-6.2c0.4-6.7,10.3-17.9,12.8-23.8
		C336.6,410.3,340.3,410.8,342.6,411.5z"/>
	<path d="M281.4,822c-8,12.5-86.7-12.2-77.9-25.5c1.7-2.6,29.2-7.7,45.8-14.1c10.1-3.9,22.1,22.7,31.7,31.2
		C284.2,816.5,282.7,820,281.4,822z"/>
	<path d="M97.9,760.4c6.8,2,15-15.6,17.6-21.1c2.1-4.5,8.5-19.5,4.4-37.8c-4-17.7-16.7-34.3-22-32.6c-2.1,0.7-4.1,4.4-3.1,6.6
		C99.8,686.1,89.8,758.1,97.9,760.4z"/>
	<path d="M121.3,793.8c-7.1,4.8-13.4,1.1-16.3,4.4c-3,3.4-1.7,13.6,4.4,17.6c12.2,8,38-0.2,41.4,2.2c7.3,5.3,9.7-6.4,10.1-7.5
		c2.6-7.3-5.5-18.7-14.1-20.2c-6.1-1.1-11,3-12.8,0.9c-1.6-1.9,2.1-5.1,1.8-11c-0.3-4.7-3.1-11.4-7.9-11.9c-4.5-0.4-9.5,4.7-9.2,8.8
		c0.3,4.7,7.6,6,7.5,10.6C126,790.6,122.9,792.8,121.3,793.8z"/>
	<path d="M229.5,772.7c7.3-0.3,12.9-21.9,6.4-29.7c-1.7-2-1.9-2.6-3.5-5.3c-5.5-9.1-4.2-29.7,2.7-37.2c2.4-2.6,0,0,2.8-1.8
		c16-10,39-37.4,35.6-59c-1-6.1-3.8-9,0.4-15.4c1.7-2.6,0.1-5.8,2.2-7.3c8.2-5.8,10.1-5.9,11.4-9c2-4.8-7-13.8-17.2-15.6
		c-8.4-1.5-11,2.4-18.9,0.2c-7.7-2.1-7.4-7.7-13.6-11.4c-19.7-11.8-30.3,10.1-38.3,9.7c-2.1-0.1-3.2-11-10.3-18.9
		c-5.7-6.3-14.1-0.5-18.5-4.2c-4.8-4,6.4-9,1.5-13.2c-4.6-4-15.3-3-16.7-6.8c-3.8-10.4,9.2-21,15.4-26.8c5.4-5,9.4-8.2,23.3,18.9
		c1.4,2.8,4.7,4.2,7,3.5c3.5-1,5.5-7.9,4.4-13.6c-1.2-6.4-5.4-7.2-6.6-12.8c-1.3-5.8,2-10.9,5.7-16.7c2-3.1,13-19.5,26-18.9
		c2,0.1,3.7,0.5,4.4-0.4c2.3-3.1-11.3-13.2-8.8-20.7c1.4-4.1,6-2.9,10.6-7.9c6.8-7.6,6.7-22,0.4-27.7c-2.4-2.1-4-1.7-8.4-3.1
		c-15.6-5.1-16.6-19.1-27.3-20.7c-7.4-1.1-16.2,4.3-18.5,11c-2.9,8.6,4.7,20,12.8,23.8c2.5,1.2,4.8,1.5,4.8,2.6
		c0.2,2.4-8.4,6.8-15.8,4.8c-5.8-1.5-8.8-6.4-11.9-11.4c-2.6-4.2-9-14.7-4.8-22.4c1.8-3.3,4.8-5,10.1-7.9c6.8-3.8,8.7-2.6,12.3-5.7
		c3.5-3,7.1-8.6,6.2-14.1c-0.6-3.7-2.8-4.4-10.6-11.9c-10.9-10.5-12.1-14.3-17.2-14.5c-4.4-0.2-8.2,2.4-10.6,4
		c-1.6,1.1-5.3,3.6-4.8,5.7c0.4,2.1,4.5,2.6,4.4,3.1c-0.1,0.7-9.3-0.9-17.6-1.3c-19-1-25.8,4.9-33.4-0.4c-1.8-1.3-3.9-3.3-7.9-4.4
		c-3-0.8-7.2-0.5-9.7,0c-4.2,0.9,1,23.1,0.9,55.4c0,6.7,1.7,10.3,1.8,10c0.2-0.6,5.9,6,8.3,11.1c2.3,5-2.8,6.4-7.4,13.6
		c-22.7,35.6,45.5,115.6,62.5,146.1c0.5,0.9,1.7,3,4,4.8c7.7,6.1,21.6-2.8,28.4,0.7c9.3,4.7,0.8,22.1,11,45.3
		c5.4,12.2,5.5,16.3,5.5,26.6c0,8.5,1.5,10.9-0.4,20.2c-1,5-2.9,11.8,4,33.4C216.3,755.7,223,773,229.5,772.7z"/>
	<path d="M152.5,624.4c-1.3-3.5-22.9-4.9-31.7,8.4c-6.7,10.1-4.1,25.5,3.1,30.4c1.6,1.1,4.6,2.5,6.2,1.3c2.3-1.7-0.9-7.4-0.9-12.8
		C129.2,636.7,154,628.5,152.5,624.4z"/>
	<path d="M93.1,541.3c4.9-0.9,12.4,62.6,13.6,80.1c0.3,4.6,0.7,12.6-4,15.8c-1.7,1.2-4.4,2-6.2,0.9c-3.3-2-1.9-9.3-1.3-15
		c0.5-5-0.6,1.2-1.8-30.8C92.3,558.5,91.6,541.6,93.1,541.3z"/>
	<path d="M157.8,323.9c-2.5-1.4-4.7,3.3-10.1,3.5c-7.9,0.4-10.6-9.3-20.2-10.1c-3.3-0.3-5.6,0.6-8.8,1.8
		c-3.1,1.1-15.1,6.1-17.6,17.2c-1.3,5.8,0.1,13.2,3.5,14.5c3.1,1.1,7.3-2.8,8.8-1.3c0.9,0.9-0.3,2.8,0.4,3.5
		c1.8,1.6,9.9-7.1,12.8-5.3c1.9,1.2-0.8,5.4,1.3,8.8c2.9,4.7,13.4,5.7,18.9,1.3c1.5-1.2,1.2-1.6,5.7-9.7c4.3-7.6,4.8-7.8,5.7-10.6
		C159.7,333,160.6,325.6,157.8,323.9z"/>
	<path d="M165.3,328.8c-1.6,5.1-4.3,13.5-1.3,16.3c2.1,2,6.5,0.5,7.9,0c1-0.3,5.5-2,7.5-6.6c2.4-5.5-0.5-11-1.3-12.3
		c-2.7-4.7-5.9-4.1-7.9-8.8c-1.7-3.8,0-5.2-1.8-7.9c-2.6-4-8.3-4.5-11.4-4.8c-4.2-0.4-11.7-0.1-12.3,2.6c-0.6,2.3,3.9,6.2,8.4,7.5
		c3.1,0.9,4.1,0,7.5,1.3c1.5,0.6,5,1.9,6.2,4.8C167.5,323.1,166.5,324.9,165.3,328.8z"/>
	<path d="M308.5,598.5c-0.1-2.5,26.7-9.1,49.1-0.4c3,1.2,11.9,4.9,11.4,6.6c-0.3,1-3.4,0.9-5.7,0.9c-18.8-0.5-36.2-3.5-43.8-4.8
		C309.3,598.9,308.5,598.9,308.5,598.5z"/>
</g>
</svg>
