<?xml version="1.0" encoding="utf-8"?>
<!-- Generator: Adobe Illustrator 21.0.0, SVG Export Plug-In . SVG Version: 6.00 Build 0)  -->
<svg version="1.1" xmlns="http://www.w3.org/2000/svg" xmlns:xlink="http://www.w3.org/1999/xlink" x="0px" y="0px"
	 viewBox="0 0 266.9 266.9" style="enable-background:new 0 0 266.9 266.9;" xml:space="preserve">
<style type="text/css">
	.st0{display:none;}
	.st1{display:inline;fill:#EAEBED;}
	.st2{display:inline;fill:#3B5A9A;}
	.st3{display:inline;}
	.st4{fill:#FFFFFF;}
	.st5{fill:#333333;}
</style>
<g id="Blue" class="st0">
</g>
<g id="Background" class="st0">
	<rect x="-134.8" y="-113.2" class="st1" width="512" height="500"/>
	<rect x="377.2" y="-113.2" class="st2" width="512" height="500"/>
	<g id="Frame" class="st3">
		<rect x="-134.8" y="-93.2" class="st4" width="1024" height="0.4"/>
		<rect x="-134.8" y="-73.2" class="st4" width="1024" height="0.4"/>
		<rect x="356.9" y="-113.2" class="st4" width="0.4" height="500"/>
		<rect x="-114.8" y="-113.2" class="st4" width="0.4" height="500"/>
		<rect x="396.9" y="-113.2" class="st4" width="0.4" height="500"/>
		<rect x="868.7" y="-113.2" class="st4" width="0.4" height="500"/>
		<rect x="-134.8" y="366.3" class="st4" width="1024" height="0.4"/>
	</g>
	<g id="Text" class="st3">
		<text transform="matrix(1 0 0 1 -107.3335 -79.1876)"><tspan x="0" y="0" class="st5" style="font-family:'Helvetica'; font-size:10px;">Facebook </tspan><tspan x="46.7" y="0" class="st5" style="font-family:'Helvetica'; font-size:10px;">“</tspan><tspan x="50.8" y="0" class="st5" style="font-family:'Helvetica'; font-size:10px; letter-spacing:1;">f</tspan><tspan x="54.6" y="0" class="st5" style="font-family:'Helvetica'; font-size:10px;">” Logo</tspan></text>
		<text transform="matrix(1 0 0 1 301.5454 -79.1876)" class="st5" style="font-family:'Helvetica'; font-size:10px;">CMYK / .ai</text>
		<text transform="matrix(1 0 0 1 404.6665 -79.1876)"><tspan x="0" y="0" class="st4" style="font-family:'Helvetica'; font-size:10px;">Facebook </tspan><tspan x="46.7" y="0" class="st4" style="font-family:'Helvetica'; font-size:10px;">“</tspan><tspan x="50.8" y="0" class="st4" style="font-family:'Helvetica'; font-size:10px; letter-spacing:1;">f</tspan><tspan x="54.6" y="0" class="st4" style="font-family:'Helvetica'; font-size:10px;">” Logo</tspan></text>
		<text transform="matrix(1 0 0 1 813.5455 -79.1876)" class="st4" style="font-family:'Helvetica'; font-size:10px;">CMYK / .ai</text>
	</g>
</g>
<g id="White">
	<g>
		<path id="White_2_" class="st4" d="M252.2,0H14.7C6.6,0,0,6.6,0,14.7v237.4c0,8.1,6.6,14.7,14.7,14.7h127.8V163.5h-34.8v-40.3
			h34.8V93.6c0-34.5,21.1-53.2,51.8-53.2c14.7,0,27.4,1.1,31.1,1.6v36l-21.3,0c-16.7,0-20,7.9-20,19.6v25.7H224l-5.2,40.3h-34.7
			v103.4h68c8.1,0,14.7-6.6,14.7-14.7V14.7C266.9,6.6,260.3,0,252.2,0z"/>
	</g>
</g>
</svg>
