<?xml version="1.0" encoding="utf-8"?>
<!-- Generator: Adobe Illustrator 21.0.0, SVG Export Plug-In . SVG Version: 6.00 Build 0)  -->
<svg version="1.1" id="Layer_1" xmlns="http://www.w3.org/2000/svg" xmlns:xlink="http://www.w3.org/1999/xlink" x="0px" y="0px"
	 viewBox="0 0 1000 1000" style="enable-background:new 0 0 1000 1000;" xml:space="preserve">
<style type="text/css">
	.st0{fill:none;stroke:#000000;stroke-miterlimit:100;}
	.st1{opacity:0.5;fill:#FFFFFF;}
	.st2{display:none;fill:#FFFFFF;stroke:#000000;stroke-miterlimit:100;}
</style>
<path class="st0" d="M500.2,47.6c-42.6,0-42.6,4.3-42.6,30.6c0,24.1,6,24.1,6,24.1h73.2c0,0,5.6,0,5.6-23.4
	C542.4,54.2,542.4,47.6,500.2,47.6z"/>
<path class="st0" d="M614.8,488.6c-1-33.8-26.3-38.7-26-61.8c0.4-32.6,28.9-28.4,27.9-77.9c-1.5-78.4-32.4-157.9-80.4-204.4
	c-7-6.8-0.8-18.6,0-25c1-8.3-2-10.3-2-10.3h-27.6h-41.2l0,0c0,0-3.1,2.5-2,10.3c0.9,6.4,7,18.2,0,25c-48,46.6-78.9,126-80.4,204.4
	c-0.9,49.5,27.6,45.3,27.9,77.9c0.3,23.1-25,27.9-26,61.8c-0.1,2.8-3.9,383.8-3.9,383.8s10.8,57.8,50.5,68.1
	c29.9,7.7,27.3-5,33.9-10.2c8.1,11.7,19.2,20.5,34.3,20.5c15.5,0,26.7-8.4,34.8-19.7c6.1,5.6,4.2,16.9,33.4,9.4
	c39.7-10.3,50.5-68.1,50.5-68.1S614.9,491.4,614.8,488.6z"/>
<path class="st0" d="M445.9,875.3c0,0,10,75.6,54.2,75.6c45.5,0,54.2-75.6,54.2-75.6"/>
<path class="st1" d="M614.8,488.6c-1-33.8-26.3-38.7-26-61.8c0.4-32.6,28.9-28.4,27.9-77.9c-0.8-44-10.9-88.3-28.1-127
	c-5.2-11.7-11-22.8-17.4-33.3c-10.2-16.7-15.8-21-33-15.5c-20.6,6.6-18.4-16.9-61,14.7c-13.8,10.3-30.9-19.1-47-1.4
	c-2.5,2.7-3.8,6.3-5.7,9.5c-3.7,6.5-7.2,13.3-10.5,20.3c-18.8,40-29.9,86.5-30.7,132.7c-0.9,49.5,27.6,45.3,27.9,77.9
	c0.3,23.1-25,27.9-26,61.8c-0.1,2.8-3.9,383.8-3.9,383.8s10.8,57.8,50.5,68.1c29.9,7.7,27.3-5,33.9-10.2
	c8.1,11.7,19.2,20.5,34.3,20.5c15.5,0,26.7-8.4,34.8-19.7c6.1,5.6,4.2,16.9,33.4,9.4c39.7-10.3,50.5-68.1,50.5-68.1
	S614.9,491.4,614.8,488.6z"/>
<rect x="1170.6" y="383.9" class="st2" width="183.6" height="128.7"/>
</svg>
