<?xml version="1.0" encoding="UTF-8"?>
<!DOCTYPE svg PUBLIC "-//W3C//DTD SVG 1.1//EN" "http://www.w3.org/Graphics/SVG/1.1/DTD/svg11.dtd">
<!-- Creator: CorelDRAW X7 -->
<svg xmlns="http://www.w3.org/2000/svg" xml:space="preserve" width="320px" height="320px" version="1.1" style="shape-rendering:geometricPrecision; text-rendering:geometricPrecision; image-rendering:optimizeQuality; fill-rule:evenodd; clip-rule:evenodd"
viewBox="0 0 112011 112011"
 xmlns:xlink="http://www.w3.org/1999/xlink">
 <defs>
  <style type="text/css">
   <![CDATA[
    .fil7 {fill:none}
    .fil2 {fill:#21AE5C}
    .fil4 {fill:#2E7CC0}
    .fil3 {fill:#784299}
    .fil5 {fill:#808184}
    .fil1 {fill:#EA9223}
    .fil0 {fill:#EB1C24}
    .fil6 {fill:white}
   ]]>
  </style>
 </defs>
 <g id="Слой_x0020_1">
  <metadata id="CorelCorpID_0Corel-Layer"/>
  <g id="_364626976">
   <g>
    <circle class="fil0" cx="7340" cy="69218" r="7213"/>
    <circle class="fil1" cx="31651" cy="69218" r="7213"/>
    <circle class="fil2" cx="55961" cy="69218" r="7213"/>
    <circle class="fil3" cx="80272" cy="69218" r="7213"/>
    <circle class="fil4" cx="104719" cy="69385" r="7213"/>
    <path class="fil5" d="M99247 40284c-65,-227 -32,-207 -183,-421 -516,-735 -2060,-767 -2250,663 -172,1302 -23,3807 -23,5235 0,1326 -401,3948 937,4315 2039,559 1793,-1876 1793,-3283 0,-1362 -143,-3722 571,-4727 356,-503 2709,-1552 2890,991 118,1644 20,3510 29,5181 13,2392 2099,2306 2597,1091 291,-710 112,-4057 158,-5101 64,-1441 633,-3040 2318,-2750 2471,424 -135,7580 1875,8533 812,385 1597,-93 1837,-683 233,-571 150,-1771 150,-2432 0,-3247 759,-7159 -2908,-7482 -1967,-173 -2729,678 -3599,1497 -524,-442 -320,-623 -1160,-1110 -1007,-585 -2575,-517 -3626,39 -610,323 -704,500 -1198,976l-208 -532z"/>
    <path class="fil5" d="M17496 41416c3463,-740 4173,5586 1084,6407 -1868,496 -2937,-950 -3099,-2576 -186,-1871 390,-3484 2015,-3831zm3109 -336c-544,-562 -1145,-1222 -2131,-1509 -2792,-811 -5646,897 -5684,4849 -37,3849 2463,6101 5456,5345 1204,-305 1449,-801 2081,-1365l148 -112c-11,2013 69,3590 -2001,3869 -2935,396 -2673,-1489 -3891,-1783 -2491,-599 -2189,4382 4586,3604 4444,-510 3947,-4043 3947,-7495 0,-1749 120,-3977 -22,-5669 -74,-882 -402,-1535 -1406,-1431 -888,92 -1005,845 -1083,1697z"/>
    <path class="fil5" d="M41219 45452c-579,-4941 4390,-5396 4944,-1482 695,4915 -4481,5440 -4944,1482zm-2712 -825c3,3923 2644,6237 5616,5323 1121,-345 1605,-947 2215,-1487 94,926 243,1629 1227,1663 1002,35 1300,-632 1300,-1579l0 -11555c0,-2079 -2026,-1884 -2402,-688 -276,877 -16,3436 -126,4585 -597,-483 -1192,-1143 -2312,-1387 -1009,-219 -2193,-110 -3048,289 -1587,740 -2472,2516 -2470,4836z"/>
    <path class="fil5" d="M7057 44855c367,3845 -3047,3943 -3958,3075 -963,-918 -273,-2014 780,-2314 936,-267 2283,-575 3178,-761zm172 3845c367,290 614,941 1156,1270 680,414 1522,-68 1696,-542 223,-605 -209,-1442 -322,-2069 -140,-771 -76,-1539 -74,-2320 8,-3737 -84,-5518 -4105,-5680 -1529,-62 -2996,167 -4017,941 -1409,1067 -1409,2741 -171,2929 1389,210 1064,-1574 2805,-1946 1660,-355 2949,77 2849,1899 -2205,1114 -7442,375 -7022,4316 305,2865 4259,3580 7205,1202z"/>
    <path class="fil5" d="M58528 44853c124,1378 -145,2388 -956,2973 -2664,1919 -4963,-1441 -2217,-2213 944,-265 2267,-569 3173,-760zm178 3846c383,331 610,951 1153,1275 688,411 1519,-86 1694,-552 212,-568 -205,-1462 -317,-2054 -624,-3311 1595,-7777 -4177,-8009 -1917,-77 -4622,451 -5058,2395 -179,802 187,1369 868,1476 1365,215 1054,-1581 2799,-1945 626,-131 1669,-128 2196,161 438,241 689,1018 652,1736 -975,499 -3346,781 -4586,1111 -5230,1389 -1512,9040 4776,4406z"/>
    <path class="fil5" d="M30416 41372c3751,-596 4016,6263 832,6746 -1939,294 -2923,-1235 -3020,-3013 -98,-1808 520,-3469 2188,-3733zm5633 4183c412,-3302 -1455,-5729 -4337,-6126 -7583,-1045 -8211,9843 -1771,10650 3461,434 5731,-1505 6108,-4524z"/>
    <path class="fil5" d="M87996 41380c3809,-702 4036,6223 916,6731 -1948,317 -2902,-1121 -3050,-2867 -162,-1906 496,-3562 2134,-3864zm-4781 4175c721,6678 11357,6078 10449,-1645 -352,-2992 -2684,-4863 -6010,-4498 -3009,330 -4802,2783 -4439,6143z"/>
    <path class="fil5" d="M75241 41508c1411,-392 2249,308 2832,1082 253,338 549,912 1082,981 1394,182 2273,-1680 -92,-3313 -3407,-2354 -9440,-258 -8290,5918 987,5303 8587,4799 9779,1311 477,-1395 -828,-2256 -1677,-1572 -618,498 -839,1666 -2046,2085 -3908,1356 -4753,-5615 -1588,-6492z"/>
    <path class="fil6" d="M87996 41380c-1638,302 -2296,1958 -2134,3864 148,1746 1102,3184 3050,2867 3120,-508 2893,-7433 -916,-6731z"/>
    <path class="fil6" d="M30416 41372c-1668,264 -2286,1925 -2188,3733 97,1778 1081,3307 3020,3013 3184,-483 2919,-7342 -832,-6746z"/>
    <path class="fil6" d="M41219 45452c463,3958 5639,3433 4944,-1482 -554,-3914 -5523,-3459 -4944,1482z"/>
    <path class="fil6" d="M17496 41416c-1625,347 -2201,1960 -2015,3831 162,1626 1231,3072 3099,2576 3089,-821 2379,-7147 -1084,-6407z"/>
    <path class="fil6" d="M58528 44853c-906,191 -2229,495 -3173,760 -2746,772 -447,4132 2217,2213 811,-585 1080,-1595 956,-2973z"/>
    <path class="fil6" d="M7057 44855c-895,186 -2242,494 -3178,761 -1053,300 -1743,1396 -780,2314 911,868 4325,770 3958,-3075z"/>
    <path class="fil5" d="M64705 48959c228,1747 3264,1527 2869,-603 -316,-1700 -3149,-1540 -2869,603z"/>
   </g>
   <rect class="fil7" width="112011" height="112011"/>
  </g>
 </g>
</svg>
