<?xml version="1.0" encoding="UTF-8"?>
<!DOCTYPE svg PUBLIC "-//W3C//DTD SVG 1.1//EN" "http://www.w3.org/Graphics/SVG/1.1/DTD/svg11.dtd">
<!-- Creator: CorelDRAW X7 -->
<svg xmlns="http://www.w3.org/2000/svg" xml:space="preserve" width="320px" height="320px" version="1.1" style="shape-rendering:geometricPrecision; text-rendering:geometricPrecision; image-rendering:optimizeQuality; fill-rule:evenodd; clip-rule:evenodd"
viewBox="0 0 1061504 1061502"
 xmlns:xlink="http://www.w3.org/1999/xlink">
 <defs>
  <style type="text/css">
   <![CDATA[
    .fil2 {fill:none}
    .fil1 {fill:#01B0DC}
    .fil0 {fill:#FFF}
   ]]>
  </style>
 </defs>
 <g id="Слой_x0020_1">
  <metadata id="CorelCorpID_0Corel-Layer"/>
  <g id="_361846504">
   <g>
    <path class="fil0" d="M82801 584522c-1871,-15346 -1970,-66068 -91,-81356 2739,-22272 18896,-39491 34956,-46486 23247,-10126 73161,-10315 93067,18051 5809,8277 10671,16909 12095,29587 1553,13825 1721,68366 -335,81508 -3457,22101 -19241,38882 -35506,46039 -30408,13382 -97418,8173 -104186,-47343zm-60995 -103033c42244,-472 45152,19315 45156,50063 2,15365 -147,30116 -8757,38858 -8000,8122 -21409,10344 -36641,10256 128,35323 -5101,69415 28313,79325 15740,4667 82939,2156 104041,2156 23940,0 83882,2757 103047,-3205 12769,-3973 22252,-13937 25341,-27643 1965,-8710 2262,-41008 1001,-50184 -35935,-3803 -44800,-7406 -44794,-49563 2,-17326 -2134,-27338 8635,-38470 13355,-13809 16667,-8957 36452,-12171 3340,-93452 -19759,-80741 -129682,-80741 -21704,0 -87354,-2570 -103625,1814 -32422,8734 -30482,43660 -28487,79505z"/>
    <path class="fil1" d="M21806 481489c-1995,-35845 -3935,-70771 28487,-79505 16271,-4384 81921,-1814 103625,-1814 109923,0 133022,-12711 129682,80741 -19785,3214 -23097,-1638 -36452,12171 -10769,11132 -8633,21144 -8635,38470 -6,42157 8859,45760 44794,49563 1261,9176 964,41474 -1001,50184 -3089,13706 -12572,23670 -25341,27643 -19165,5962 -79107,3205 -103047,3205 -21102,0 -88301,2511 -104041,-2156 -33414,-9910 -28185,-44002 -28313,-79325 15232,88 28641,-2134 36641,-10256 8610,-8742 8759,-23493 8757,-38858 -4,-30748 -2912,-50535 -45156,-50063zm-20682 153139c2474,20898 17413,36936 33107,43780 17188,7496 50575,4729 71012,4729 25189,0 134964,1511 150684,-982 58150,-9221 48956,-66363 48956,-103360 0,-23692 1523,-138254 -747,-151662 -3570,-21087 -19111,-34804 -34912,-42366 -17604,-8424 -48503,-5659 -69494,-5659 -25292,0 -50584,0 -75876,0 -48402,0 -97930,-11059 -118162,32830 -8106,17583 -5176,50048 -5176,70939 0,25905 -1304,135609 608,151751z"/>
    <path class="fil0" d="M113096 554457c-1268,-7486 -1198,-36311 -355,-44257 4084,-38532 72521,-39554 79502,-2739 1387,7315 1276,36199 500,44186 -1155,11912 -10162,22092 -18667,25787 -23833,10353 -56824,1541 -60980,-22977zm19284 -93751c-19374,4077 -33319,17319 -39286,34496 -4468,12860 -2573,54280 -2609,70709 -60,27798 5362,39261 21102,52364 16000,13319 81872,24992 100192,-24615 5169,-13996 3095,-53525 3126,-70698 48,-26148 -5189,-40997 -20860,-53017 -13830,-10607 -41628,-13456 -61665,-9239z"/>
    <path class="fil1" d="M121911 526729c13377,-5034 5290,18910 11013,28657 7372,12555 26504,2316 23210,15611 -8681,3769 -20834,-521 -26326,-5297 -10302,-8960 -9447,-25603 -7897,-38971zm-8815 27728c4156,24518 37147,33330 60980,22977 8505,-3695 17512,-13875 18667,-25787 776,-7987 887,-36871 -500,-44186 -6981,-36815 -75418,-35793 -79502,2739 -843,7946 -913,36771 355,44257z"/>
    <path class="fil1" d="M132380 460706c20037,-4217 47835,-1368 61665,9239 15671,12020 20908,26869 20860,53017 -31,17173 2043,56702 -3126,70698 -18320,49607 -84192,37934 -100192,24615 -15740,-13103 -21162,-24566 -21102,-52364 36,-16429 -1859,-57849 2609,-70709 5967,-17177 19912,-30419 39286,-34496zm-49579 123816c6768,55516 73778,60725 104186,47343 16265,-7157 32049,-23938 35506,-46039 2056,-13142 1888,-67683 335,-81508 -1424,-12678 -6286,-21310 -12095,-29587 -19906,-28366 -69820,-28177 -93067,-18051 -16060,6995 -32217,24214 -34956,46486 -1879,15288 -1780,66010 91,81356z"/>
    <path class="fil0" d="M121911 526729c-1550,13368 -2405,30011 7897,38971 5492,4776 17645,9066 26326,5297 3294,-13295 -15838,-3056 -23210,-15611 -5723,-9747 2364,-33691 -11013,-28657z"/>
    <path class="fil1" d="M466400 575866l0 -15909 -358 0c-2890,5720 -6882,10160 -11917,13318 -5035,3158 -10725,4737 -17071,4737 -4320,0 -8193,-626 -11649,-1848 -3485,-1221 -6405,-2949 -8819,-5184 -2442,-2264 -4289,-4945 -5600,-8103 -1311,-3158 -1967,-6614 -1967,-10428 0,-8103 2503,-14568 7508,-19365 5005,-4826 12572,-7954 22702,-9414l27171 -3932c0,-17161 -6674,-25741 -20051,-25741 -10457,0 -20169,3813 -29107,11440l0 -12215c1877,-1311 3992,-2532 6346,-3605 2383,-1072 4886,-1996 7507,-2800 2622,-775 5333,-1371 8104,-1817 2801,-447 5482,-656 8133,-656 9981,0 17548,2801 22643,8372 5124,5601 7686,13913 7686,24996l0 58154 -11261 0zm-23090 -43407c-4051,566 -7477,1281 -10338,2175 -2859,864 -5213,2055 -7090,3545 -1877,1490 -3247,3307 -4111,5482 -864,2205 -1312,4886 -1312,8103 0,2384 418,4589 1282,6644 834,2026 2055,3784 3664,5274 1609,1489 3545,2651 5869,3455 2294,805 4916,1222 7836,1222 3962,0 7597,-745 10934,-2264 3307,-1520 6196,-3635 8609,-6287 2414,-2681 4320,-5898 5691,-9623 1370,-3724 2056,-7775 2056,-12155l0 -8819 -23090 3248zm92953 43407l-10636 0 -34202 -89377 12305 0 24697 68076c1490,4141 2473,7776 2860,10904l358 0c685,-4171 1609,-7686 2711,-10547l25562 -68433 11947 0 -35602 89377zm57023 -111900c-2175,0 -4022,-745 -5601,-2264 -1609,-1519 -2384,-3456 -2384,-5780 0,-2264 775,-4141 2384,-5631 1579,-1489 3426,-2234 5601,-2234 1102,0 2175,179 3158,566 1013,387 1847,924 2592,1609 745,715 1310,1549 1758,2502 446,953 655,2026 655,3188 0,1102 -209,2145 -626,3158 -387,983 -983,1847 -1757,2562 -745,745 -1609,1311 -2563,1699 -983,416 -2056,625 -3217,625zm-5542 111900l0 -89377 11262 0 0 89377 -11262 0zm91463 0l0 -15909 -357 0c-2890,5720 -6882,10160 -11917,13318 -5035,3158 -10726,4737 -17071,4737 -4320,0 -8193,-626 -11649,-1848 -3486,-1221 -6406,-2949 -8819,-5184 -2443,-2264 -4290,-4945 -5601,-8103 -1311,-3158 -1966,-6614 -1966,-10428 0,-8103 2503,-14568 7508,-19365 5005,-4826 12572,-7954 22701,-9414l27171 -3932c0,-17161 -6673,-25741 -20050,-25741 -10457,0 -20170,3813 -29107,11440l0 -12215c1877,-1311 3992,-2532 6346,-3605 2383,-1072 4886,-1996 7507,-2800 2622,-775 5333,-1371 8104,-1817 2800,-447 5482,-656 8133,-656 9981,0 17548,2801 22642,8372 5125,5601 7687,13913 7687,24996l0 58154 -11262 0zm-23089 -43407c-4052,566 -7478,1281 -10338,2175 -2860,864 -5213,2055 -7090,3545 -1877,1490 -3248,3307 -4112,5482 -864,2205 -1311,4886 -1311,8103 0,2384 417,4589 1281,6644 835,2026 2056,3784 3665,5274 1608,1489 3545,2651 5869,3455 2294,805 4916,1222 7836,1222 3962,0 7596,-745 10933,-2264 3307,-1520 6197,-3635 8610,-6287 2413,-2681 4320,-5898 5690,-9623 1371,-3724 2056,-7775 2056,-12155l0 -8819 -23089 3248zm56159 27349c1698,1341 3516,2533 5482,3575 1966,1043 4022,1937 6107,2712 2086,745 4171,1310 6316,1698 2115,387 4112,566 6048,566 13228,0 19842,-4976 19842,-14896 0,-2265 -477,-4231 -1401,-5899 -923,-1669 -2264,-3188 -3992,-4559 -1757,-1370 -3843,-2621 -6286,-3783 -2443,-1162 -5213,-2384 -8282,-3665 -4142,-1698 -7687,-3426 -10666,-5154 -2949,-1757 -5392,-3664 -7329,-5720 -1907,-2086 -3337,-4350 -4260,-6822 -924,-2473 -1400,-5303 -1400,-8432 0,-3962 864,-7507 2562,-10576 1728,-3099 4022,-5720 6912,-7865 2919,-2145 6256,-3814 10039,-4946 3814,-1132 7806,-1698 11977,-1698 7716,0 14420,1460 20170,4350l0 11768c-6674,-4320 -13884,-6465 -21600,-6465 -2770,0 -5303,357 -7597,1042 -2294,715 -4260,1699 -5899,2980 -1609,1281 -2890,2830 -3783,4618 -894,1787 -1341,3753 -1341,5899 0,2234 357,4171 1043,5809 715,1668 1787,3188 3277,4529 1489,1310 3396,2592 5750,3843 2353,1221 5214,2532 8610,3932 4290,1728 8014,3456 11142,5184 3158,1728 5750,3576 7776,5601 2026,1996 3545,4231 4528,6733 984,2473 1490,5333 1490,8581 0,4022 -834,7627 -2473,10755 -1668,3158 -3962,5809 -6882,7954 -2919,2145 -6375,3784 -10308,4886 -3932,1103 -8223,1669 -12870,1669 -8998,0 -16565,-1907 -22702,-5691l0 -12513zm129120 16058l0 -15909 -357 0c-2890,5720 -6882,10160 -11917,13318 -5035,3158 -10725,4737 -17071,4737 -4320,0 -8193,-626 -11649,-1848 -3486,-1221 -6405,-2949 -8819,-5184 -2442,-2264 -4290,-4945 -5600,-8103 -1312,-3158 -1967,-6614 -1967,-10428 0,-8103 2503,-14568 7508,-19365 5005,-4826 12572,-7954 22702,-9414l27170 -3932c0,-17161 -6673,-25741 -20050,-25741 -10457,0 -20169,3813 -29107,11440l0 -12215c1877,-1311 3992,-2532 6346,-3605 2383,-1072 4886,-1996 7507,-2800 2622,-775 5333,-1371 8104,-1817 2800,-447 5482,-656 8133,-656 9981,0 17548,2801 22643,8372 5124,5601 7686,13913 7686,24996l0 58154 -11262 0zm-23089 -43407c-4051,566 -7478,1281 -10338,2175 -2860,864 -5213,2055 -7090,3545 -1877,1490 -3248,3307 -4111,5482 -864,2205 -1312,4886 -1312,8103 0,2384 418,4589 1281,6644 835,2026 2056,3784 3665,5274 1609,1489 3545,2651 5869,3455 2294,805 4916,1222 7836,1222 3962,0 7597,-745 10934,-2264 3306,-1520 6196,-3635 8609,-6287 2414,-2681 4320,-5898 5691,-9623 1370,-3724 2055,-7775 2055,-12155l0 -8819 -23089 3248zm61164 43407l0 -132278 11262 0 0 132278 -11262 0zm45165 -42722c60,5482 775,10398 2176,14777 1400,4350 3396,8074 6017,11083 2622,3039 5810,5363 9564,6942 3754,1608 7984,2413 12692,2413 10069,0 19573,-3516 28540,-10576l0 11052c-8550,6108 -18918,9177 -31073,9177 -5988,0 -11440,-1043 -16326,-3158 -4886,-2086 -9027,-5125 -12483,-9117 -3426,-3992 -6078,-8908 -7925,-14717 -1877,-5840 -2800,-12483 -2800,-19931 0,-6704 1013,-12901 3038,-18621 2056,-5690 4857,-10636 8462,-14807 3634,-4171 7894,-7418 12840,-9772 4946,-2353 10338,-3545 16207,-3545 5780,0 10844,1013 15284,3009 4409,2026 8133,4886 11112,8610 3009,3724 5273,8253 6853,13615 1579,5363 2353,11351 2353,17965l0 5601 -64531 0zm53091 -9832c-179,-9295 -2384,-16504 -6644,-21629 -4260,-5124 -10189,-7686 -17756,-7686 -3784,0 -7299,655 -10547,1996 -3217,1341 -6078,3277 -8521,5809 -2443,2533 -4468,5631 -6077,9266 -1609,3635 -2711,7716 -3367,12244l52912 0zm28541 36496c1698,1341 3515,2533 5482,3575 1966,1043 4022,1937 6107,2712 2085,745 4171,1310 6316,1698 2115,387 4111,566 6048,566 13228,0 19842,-4976 19842,-14896 0,-2265 -477,-4231 -1401,-5899 -923,-1669 -2264,-3188 -3992,-4559 -1758,-1370 -3843,-2621 -6286,-3783 -2443,-1162 -5214,-2384 -8282,-3665 -4142,-1698 -7687,-3426 -10666,-5154 -2949,-1757 -5392,-3664 -7329,-5720 -1907,-2086 -3337,-4350 -4260,-6822 -924,-2473 -1401,-5303 -1401,-8432 0,-3962 864,-7507 2563,-10576 1728,-3099 4022,-5720 6911,-7865 2920,-2145 6257,-3814 10040,-4946 3814,-1132 7806,-1698 11977,-1698 7716,0 14419,1460 20169,4350l0 11768c-6673,-4320 -13883,-6465 -21599,-6465 -2771,0 -5303,357 -7597,1042 -2294,715 -4260,1699 -5899,2980 -1609,1281 -2890,2830 -3784,4618 -894,1787 -1340,3753 -1340,5899 0,2234 357,4171 1043,5809 715,1668 1787,3188 3277,4529 1489,1310 3396,2592 5749,3843 2354,1221 5214,2532 8611,3932 4290,1728 8014,3456 11142,5184 3158,1728 5750,3576 7776,5601 2026,1996 3545,4231 4528,6733 984,2473 1490,5333 1490,8581 0,4022 -834,7627 -2473,10755 -1668,3158 -3962,5809 -6882,7954 -2920,2145 -6375,3784 -10308,4886 -3933,1103 -8223,1669 -12871,1669 -8997,0 -16564,-1907 -22701,-5691l0 -12513z"/>
   </g>
   <rect class="fil2" x="1" width="1061502" height="1061502"/>
  </g>
 </g>
</svg>
