<?xml version="1.0" encoding="UTF-8"?>
<!DOCTYPE svg PUBLIC "-//W3C//DTD SVG 1.1//EN" "http://www.w3.org/Graphics/SVG/1.1/DTD/svg11.dtd">
<!-- Creator: CorelDRAW X7 -->
<svg xmlns="http://www.w3.org/2000/svg" xml:space="preserve" width="320px" height="320px" version="1.1" style="shape-rendering:geometricPrecision; text-rendering:geometricPrecision; image-rendering:optimizeQuality; fill-rule:evenodd; clip-rule:evenodd"
viewBox="0 0 58755 58755"
 xmlns:xlink="http://www.w3.org/1999/xlink">
 <defs>
  <style type="text/css">
   <![CDATA[
    .fil2 {fill:none}
    .fil1 {fill:#41ABE1;fill-rule:nonzero}
    .fil0 {fill:#2E3F75;fill-rule:nonzero}
   ]]>
  </style>
 </defs>
 <g id="Слой_x0020_1">
  <metadata id="CorelCorpID_0Corel-Layer"/>
  <g id="_368442088">
   <g>
    <path class="fil0" d="M23687 24530c70,-23 143,-35 215,-38l63 0c413,16 806,332 861,755 99,494 -294,1011 -796,1047 -467,62 -936,-303 -985,-772 -70,-431 220,-880 642,-992l0 0z"/>
    <path class="fil0" d="M17771 24735c291,2 582,-4 873,0 188,3 394,44 528,187 149,158 168,388 169,595 -2,1027 0,2054 -2,3082 208,-13 489,41 616,-171 356,-544 706,-1092 1062,-1637 587,1 1176,0 1764,0 -469,702 -942,1401 -1413,2101 -87,133 -190,255 -298,371 215,212 329,494 472,754 371,746 830,1443 1254,2161 -467,-6 -935,10 -1402,-8 -274,-6 -532,-158 -663,-400 -315,-557 -600,-1132 -908,-1694 -94,-172 -322,-117 -483,-138 -1,747 1,1493 -1,2240 -523,0 -1045,-2 -1567,0 -2,-2481 0,-4962 -1,-7443l0 0z"/>
    <path class="fil0" d="M27162 27394c346,-399 844,-658 1370,-709 559,-52 1178,28 1612,414 394,344 552,878 584,1384 20,1231 -18,2463 20,3693 -306,-4 -613,16 -918,-11 -215,-15 -434,-116 -544,-309 -131,-234 -106,-512 -108,-770 0,-733 4,-1466 -2,-2199 -6,-278 -77,-631 -378,-730 -407,-108 -866,18 -1166,313 -297,292 -425,720 -436,1128 -1,859 1,1719 0,2579 -518,1 -1036,1 -1553,0 0,-1796 0,-3591 0,-5386 375,22 769,-59 1130,78 223,83 333,309 389,525l0 0z"/>
    <path class="fil1" d="M39940 27522c758,-759 1939,-996 2960,-728 395,110 809,294 1030,658 221,363 104,804 133,1204 -308,-7 -616,13 -921,-9 -216,-24 -362,-210 -427,-403 -47,-146 -210,-197 -342,-236 -548,-129 -1171,106 -1471,588 -292,464 -325,1082 -100,1580 221,490 756,775 1281,790 630,33 1217,-314 1637,-760 214,359 433,715 645,1074 -1060,1231 -3149,1373 -4345,265 -1122,-1013 -1151,-2964 -80,-4023l0 0z"/>
    <path class="fil1" d="M52109 27465c321,-386 767,-687 1272,-756 491,-68 1038,18 1420,355 175,147 287,351 407,542 359,-506 934,-858 1556,-908 553,-50 1176,76 1549,519 360,429 436,1013 442,1554 -1,1135 2,2271 -2,3407 -387,-25 -800,65 -1166,-95 -283,-135 -332,-483 -327,-762 0,-829 3,-1658 0,-2487 -16,-258 -52,-592 -319,-715 -346,-140 -749,-4 -1003,253 -336,338 -474,826 -498,1291 1,837 -1,1674 3,2511 -499,6 -998,1 -1496,3 0,-1057 -1,-2113 0,-3170 -6,-263 -28,-554 -211,-761 -178,-208 -494,-218 -738,-140 -340,125 -567,443 -700,767 -160,379 -186,796 -187,1203 1,700 0,1401 1,2101 -488,0 -976,0 -1464,-1 -1,-1789 -1,-3579 0,-5369 381,19 796,-68 1148,120 199,106 258,338 313,538l0 0z"/>
    <path class="fil0" d="M23215 26791c381,20 775,-54 1143,68 276,96 410,396 410,672 4,1548 0,3097 2,4646 -514,1 -1026,1 -1539,0 8,-1796 -11,-3590 -16,-5386l0 0z"/>
    <path class="fil0" d="M8023 28051c-328,96 -603,339 -753,644 -331,687 -204,1673 494,2085 545,319 1329,163 1675,-377 375,-591 352,-1434 -96,-1981 -316,-373 -857,-506 -1320,-371l0 0zm-245 -1310c887,-168 1868,27 2551,640 1116,986 1190,2888 195,3984 -1077,1200 -3211,1199 -4273,-22 -1025,-1151 -877,-3176 384,-4101 334,-253 731,-420 1143,-501l0 0z"/>
    <path class="fil0" d="M14058 28048c-445,120 -777,515 -880,956 -158,625 0,1400 580,1759 466,284 1119,232 1521,-145 340,-312 462,-797 439,-1245 -15,-421 -187,-856 -529,-1117 -315,-250 -749,-311 -1131,-208l0 0zm-293 -1300c779,-152 1633,-39 2298,412 562,367 957,966 1103,1619 196,875 19,1860 -582,2544 -1054,1227 -3189,1256 -4276,58 -975,-1056 -947,-2884 75,-3900 372,-378 865,-624 1382,-733l0 0z"/>
    <path class="fil1" d="M46960 28040c-335,85 -624,324 -782,630 -310,618 -248,1461 269,1951 471,452 1303,423 1751,-49 292,-303 408,-736 394,-1149 -1,-457 -193,-935 -577,-1201 -302,-216 -699,-267 -1055,-182l0 0zm-241 -1307c885,-155 1860,50 2531,671 1096,995 1158,2884 163,3971 -1075,1182 -3178,1185 -4246,-8 -973,-1075 -927,-2929 134,-3929 387,-372 891,-612 1418,-705l0 0z"/>
    <path class="fil0" d="M33467 28103c-348,131 -540,492 -598,841 -83,466 -24,988 265,1375 374,506 1249,533 1626,17 256,-362 269,-834 238,-1261 -31,-360 -175,-760 -520,-928 -311,-147 -689,-166 -1011,-44l0 0zm-773 -1257c792,-317 1789,-256 2446,326 92,-180 249,-332 455,-369 309,-52 625,-16 937,-27 1,1651 0,3302 0,4953 0,603 -182,1224 -600,1672 -540,588 -1358,836 -2138,862 -726,11 -1459,-162 -2095,-515 122,-300 218,-613 372,-899 77,-149 254,-227 418,-197 258,46 502,155 764,188 459,69 979,60 1366,-230 294,-224 384,-614 363,-966 -492,413 -1177,484 -1789,373 -614,-113 -1169,-497 -1497,-1027 -443,-708 -529,-1594 -364,-2401 151,-748 638,-1455 1362,-1743l0 0z"/>
    <path class="fil0" d="M1620 28962c-153,97 -179,291 -183,458 -1,485 1,970 1,1455 447,-2 895,3 1343,-1 306,-6 618,-169 763,-445 218,-419 175,-1008 -197,-1327 -305,-255 -726,-223 -1097,-226 -210,9 -444,-35 -630,86l0 0zm-42 -2883c-126,111 -136,289 -141,444 -1,400 1,800 0,1200 389,-2 779,5 1168,-2 233,-5 468,-106 611,-295 281,-383 265,-1015 -136,-1311 -274,-201 -630,-145 -949,-153 -186,4 -408,-25 -553,117l0 0zm-1577 -560c-25,-418 356,-795 770,-784 632,0 1263,-1 1895,0 622,14 1280,197 1719,660 679,699 638,1943 -61,2614 -82,77 -169,148 -255,221 360,180 693,441 873,810 325,664 286,1509 -128,2126 -455,676 -1301,962 -2086,980 -908,3 -1817,0 -2726,1 -1,-2209 0,-4418 -1,-6628l0 0z"/>
    <path class="fil1" d="M37786 30465c518,-159 1106,251 1134,792 54,476 -329,945 -809,977 -473,60 -942,-317 -983,-792 -62,-431 234,-873 658,-977l0 0z"/>
   </g>
   <rect class="fil2" width="58755" height="58755"/>
  </g>
 </g>
</svg>
