<?xml version="1.0" encoding="UTF-8"?>
<!DOCTYPE svg PUBLIC "-//W3C//DTD SVG 1.1//EN" "http://www.w3.org/Graphics/SVG/1.1/DTD/svg11.dtd">
<!-- Creator: CorelDRAW X7 -->
<svg xmlns="http://www.w3.org/2000/svg" xml:space="preserve" width="320px" height="320px" version="1.1" style="shape-rendering:geometricPrecision; text-rendering:geometricPrecision; image-rendering:optimizeQuality; fill-rule:evenodd; clip-rule:evenodd"
viewBox="0 0 229455 229455"
 xmlns:xlink="http://www.w3.org/1999/xlink">
 <defs>
  <style type="text/css">
   <![CDATA[
    .str0 {stroke:#2C3E50;stroke-width:1066.14}
    .str1 {stroke:#2C3E50;stroke-width:2820.38}
    .fil2 {fill:none}
    .fil3 {fill:#2C3E50}
    .fil1 {fill:#BDADA8}
    .fil0 {fill:#DEC6BF}
   ]]>
          .fil3 
	 {	opacity: 1; font-weight: 900; 
		 -webkit-animation: blink 2s infinite; 
		 -moz-animation: blink 2s infinite;
		 -ms-animation: blink 2s infinite;
		 -o-animation: blink 2s infinite;
		 animation: blink 2s infinite;
	}
		@-keyframes blink {0%, 100% {opacity: 1;}50% {opacity: 0.0;}}
		@-webkit-keyframes blink {0%, 100% {opacity: 1;}50% {opacity: 0.0;}}
		@-moz-keyframes blink {0%, 100% {opacity: 1;}50% {opacity: 0.0;}}
		@-ms-keyframes blink {0%, 100% {opacity: 1;}50% {opacity: 0.0;}}
		@-o-keyframes blink {0%, 100% {opacity: 1;}50% {opacity: 0.0;}}
  </style>
 </defs>
 <g id="Слой_x0020_1">
  <metadata id="CorelCorpID_0Corel-Layer"/>
  <polygon class="fil0 str0" points="129353,82472 114440,117735 128998,152164 132871,152164 141874,130882 150872,152164 158822,152164 "/>
  <polygon class="fil1 str0" points="87119,53121 45235,152164 63078,152164 78814,114953 94551,152164 128998,152164 "/>
  <line class="fil2 str1" x1="134634" y1="69978" x2="114440" y2= "117735" />
  <line class="fil2 str1" x1="95449" y1="33421" x2="45235" y2= "152164" />
  <line class="fil2 str1" x1="84473" y1="101568" x2="63078" y2= "152164" />
  <line class="fil2 str1" x1="145849" y1="121483" x2="132871" y2= "152164" />
  <line class="fil2 str1" x1="78788" y1="33421" x2="128998" y2= "152164" />
  <line class="fil2 str1" x1="78814" y1="114953" x2="94551" y2= "152164" />
  <line class="fil2 str1" x1="141874" y1="130882" x2="150872" y2= "152164" />
  <line class="fil2 str1" x1="124069" y1="69978" x2="158822" y2= "152164" />
  <line class="fil2 str1" x1="70340" y1="92792" x2="103893" y2= "92792" />
  <line class="fil2 str1" x1="66668" y1="101481" x2="107653" y2= "101681" />
  <line class="fil2 str1" x1="116338" y1="111356" x2="141447" y2= "111356" />
  <line class="fil2 str1" x1="36682" y1="152164" x2="163552" y2= "152164" />
  <path class="fil3" d="M99073 0c27359,0 52128,11090 70058,29020 17929,17929 29019,42698 29019,70053 0,24652 -9006,47198 -23905,64539l53008 53004c2936,2936 2936,7696 0,10637 -2941,2936 -7701,2936 -10637,0l-53004 -53008c-17341,14899 -39887,23905 -64539,23905 -27355,0 -52124,-11090 -70053,-29019 -17930,-17930 -29020,-42699 -29020,-70058 0,-27355 11090,-52124 29020,-70053 17929,-17930 42698,-29020 70053,-29020zm62538 172248c3722,-3419 7289,-6960 10637,-10637 14389,-16823 23082,-38663 23082,-62538 0,-26577 -10776,-50644 -28192,-68060 -17421,-17417 -41484,-28193 -68065,-28193 -26577,0 -50644,10776 -68060,28193 -17417,17416 -28193,41483 -28193,68060 0,26581 10776,50644 28193,68065 17416,17416 41483,28192 68060,28192 23875,0 45715,-8693 62538,-23082zm13203 -3598l1902 1902 -2151 2151 2082 2083 2151 -2151 1911 1910 -6162 6162 -1910 -1911 2496 -2495 -2083 -2083 -2496 2496 -1902 -1902 6162 -6162zm6015 12186c1006,-1006 2068,-1509 3189,-1508 1121,0 2181,501 3182,1502 1025,1025 1540,2091 1546,3195 5,1106 -490,2155 -1481,3146 -720,720 -1430,1189 -2133,1407 -703,218 -1413,225 -2127,24 -716,-202 -1414,-645 -2098,-1330 -694,-694 -1159,-1379 -1394,-2056 -233,-677 -253,-1397 -57,-2159 196,-760 653,-1502 1373,-2221zm1898 1906c-621,620 -953,1184 -993,1686 -38,504 141,955 540,1354 408,409 860,594 1349,553 492,-42 1080,-407 1770,-1096 579,-580 885,-1120 918,-1621 33,-503 -151,-954 -552,-1356 -385,-384 -831,-558 -1334,-519 -505,38 -1071,372 -1698,999zm10279 16423l-1902 -1902 2291 -2290c-906,-260 -1620,-653 -2145,-1178 -627,-626 -959,-1329 -994,-2107 -34,-777 271,-1490 920,-2138l2269 -2269 1901 1902 -1893 1893c-300,299 -459,602 -479,909 -20,304 105,593 375,862 499,499 1011,713 1532,640l2384 -2385 1902 1902 -6161 6161zm9101 9101l-1901 -1901 4647 -4647 -1489 -1489 -1895 1895c-779,778 -1393,1309 -1840,1593 -449,283 -911,357 -1385,224 -475,-133 -1052,-538 -1730,-1216 -207,-207 -422,-468 -647,-782l1249 -1249 286 285c256,257 496,382 715,374 219,-7 480,-162 783,-464l4076 -4076 5293 5292 -6162 6161zm9601 -2722l5094 5095 -1316 1316 -3184 -3184 -981 981 2952 2952 -1257 1256 -2952 -2951 -1213 1213 3279 3279 -1394 1394 -5190 -5189 6162 -6162zm11760 14790l-2977 -2978 -4647 4647 -1902 -1902 6162 -6161 4879 4879 -1515 1515z"/>
 </g>
</svg>
