<?xml version="1.0" encoding="utf-8"?>
<!-- Generator: Adobe Illustrator 21.0.0, SVG Export Plug-In . SVG Version: 6.00 Build 0)  -->
<svg version="1.1" id="Layer_1" xmlns="http://www.w3.org/2000/svg" xmlns:xlink="http://www.w3.org/1999/xlink" x="0px" y="0px"
	 viewBox="0 0 700 700" style="enable-background:new 0 0 700 700;" xml:space="preserve">
<style type="text/css">
	.st0{opacity:0.5;fill:#FFFFFF;}
	.st1{fill:#A2A2A2;}
</style>
<g>
	<path class="st0" d="M487,637H207.8V214.5c0,0,68.1-48.5,87.5-48.5c48,0,68.2,26.1,100.7,26.1c28,0,29-13.4,48.3-10.1
		c31.7,5.4,42.7,32.5,42.7,32.5V637z"/>
	<g transform="translate(0.000000,700.000000) scale(0.100000,-0.100000)">
		<path class="st1" d="M2683.7,6763.6c-159-40-209-251-87-366c67-64,27-61,907-62c543-1,813,2,842,10c66,16,111,53,140,111
			c58,116,13,242-105,300c-33,16-95,17-845,18C2972.7,6774.6,2713.7,6771.6,2683.7,6763.6z"/>
		<path class="st1" d="M2794.7,6159.6c-43-9-86-34-117-67c-15-16-77-134-136-263c-60-129-122-264-139-300c-58-125-295-645-308-675
			c-40-93-97-303-128-470c-26-135-27-147-34-235c-9-107-8-3311,0-3365c30-194,156-369,337-469c67-36,134-63,179-71c14-2,46-8,71-13
			c51-9,1914-8,1974,1c297,47,538,282,573,562c10,84,9,3265-1,3380c-18,198-77,464-144,651c-22,60-125,305-230,544
			c-104,239-214,490-243,557s-66,138-82,158c-54,66-135,92-219,70c-101-25-161-104-161-210c0-55,12-88,157-420
			c187-428,222-507,246-560c46-104,105-246,126-305c43-125,92-347,110-501c4-35,8-797,8-1694c0-1556-1-1632-18-1664
			c-32-60-93-108-161-127c-51-13-1852-13-1907,1c-65,16-124,60-156,114l-27,46l1,1615c0,888,3,1647,7,1685c14,153,80,428,134,565
			c15,36,48,111,75,168c26,57,48,105,48,107s25,56,56,121c147,311,353,764,362,795C3088.7,6041.6,2946.7,6192.6,2794.7,6159.6z"/>
	</g>
	<g>
		<path class="st1" d="M358.1,284.1h11c0,3.1,1,6.5,2.9,10.1c2,3.6,4.5,6.9,7.5,10c3,3,6.5,5.6,10.4,7.6c3.9,2,7.7,3,11.5,3v10.6
			h-91.9v16.3h-9.1v-43.3h9.1v16.4h69c-2.1-0.9-4.4-2.4-6.8-4.4s-4.6-4.4-6.6-7.1c-2-2.7-3.7-5.7-5-9
			C358.7,291,358.1,287.6,358.1,284.1z"/>
		<path class="st1" d="M300.4,359.9h14.5v14.4h-14.5V359.9z"/>
		<path class="st1" d="M330.4,386.2l1.6,10.6c-3.5,0.3-6.8,1.1-9.8,2.4c-3,1.3-5.6,3.1-7.7,5.2c-2.1,2.1-3.8,4.7-5,7.6
			c-1.2,2.9-1.8,6.1-1.8,9.6c0,4.1,0.7,7.8,2.1,11c1.4,3.2,3.3,6,5.7,8.2c2.5,2.3,5.3,4,8.5,5.2c3.2,1.2,6.7,1.8,10.3,1.8
			c3.8,0,7.4-0.6,10.6-1.8c3.3-1.2,6.1-2.9,8.5-5.1c2.4-2.2,4.2-4.9,5.6-8.2c1.4-3.2,2.1-6.8,2.1-10.7c0-4.1-0.9-8.1-2.6-11.9
			c-1.7-3.8-4.2-7.1-7.5-9.9v-10.6h50.5v63.2h-9.1v-52.6h-31.6c3,3.1,5.3,6.6,6.9,10.6s2.4,8,2.4,12.1c0,5.2-0.8,10-2.5,14.3
			c-1.7,4.3-4.1,8.1-7.1,11.2c-3.1,3.1-6.8,5.6-11.3,7.4c-4.4,1.8-9.4,2.6-14.9,2.6c-5,0-9.6-0.9-13.9-2.8s-8.1-4.4-11.3-7.6
			c-3.2-3.2-5.8-7.1-7.6-11.6c-1.9-4.5-2.8-9.5-2.8-14.9c0-4.8,0.7-9.3,2.2-13.5c1.4-4.1,3.5-7.8,6.2-10.9c2.7-3.1,6-5.6,9.9-7.5
			C320.8,387.7,325.3,386.6,330.4,386.2z"/>
		<path class="st1" d="M300.4,507.9h101v10.6h-91.9v53.9h-9.1V507.9z"/>
	</g>
</g>
</svg>
