<?xml version="1.0" encoding="utf-8"?>
<!-- Generator: Adobe Illustrator 23.0.2, SVG Export Plug-In . SVG Version: 6.00 Build 0)  -->
<svg version="1.1" id="Layer_1" xmlns="http://www.w3.org/2000/svg" xmlns:xlink="http://www.w3.org/1999/xlink" x="0px" y="0px"
	 viewBox="0 0 2511 2908" style="enable-background:new 0 0 2511 2908;" xml:space="preserve">
<path d="M2031.6,889.2c19.6,1.7,39.2,3.2,58.7,5.3c15,1.7,28.3-1.8,40.8-10c14.3-9.4,29.9-16,46.9-19.1c12.7-2.3,24.1,0.7,32.6,10.6
	c16.3,18.9,32.8,37.8,48.1,57.4c11.8,15.1,25.7,26.9,43,34.9c28.2,13.1,57.1,24.2,87.8,29.4c25.4,4.3,44.1,17.8,58,38.7
	c10.3,15.4,17.4,32.3,22.3,50c11,39.6,20.1,79.6,17.8,121c-1.3,22.2-4.7,44.4-8.4,66.3c-8.2,47.7-13.8,95.6-15.3,144
	c-1.1,36.3-2,72.6-4,108.9c-2.4,44.7-8.7,88.8-21.8,131.8c-10.8,35.6-30.3,65.8-59.1,89.6c-26.5,21.9-56.7,30.2-90.5,23.9
	c-23.4-4.3-35.1-16.9-38.8-40.6c-0.3-2-0.8-3.9-1.1-5.9c-2.6-18.1-13.4-29.4-30.3-34.9c-21-6.8-42.5-10.8-64.6-12.4
	c-22.2-1.6-44.4-4.1-66.5-7.4c-14-2.1-25,1.7-33.7,12.4c-5.2,6.5-10.3,13.1-14.9,20.1c-10.7,16.5-21.1,33.1-31.3,49.9
	c-13.5,22.4-31.4,30.4-57.2,25.5c-18.7-3.5-36.9-8.6-54.8-14.8c-5.1-1.7-9.4-5.8-14.2-8.7c-14.6-9-27.7-20.1-41.8-29.7
	c-13.4-9.2-22.8-22.2-35.7-31.7c-6-4.4-10.3-11-15.4-16.7c-21.5-24.1-43.7-47.7-64.1-72.6c-18.3-22.4-34.9-46.2-51.8-69.8
	c-6.8-9.5-12.2-19.8-14.7-31.5c-2.6-12.2-0.3-23.3,6.8-33.2c4-5.7,8.8-10.9,13.5-16c49.9-55.1,92.6-115.3,127.8-180.7
	c2.8-5.3,5.6-10.6,8.5-15.9c2.1-3.8,4.3-7.5,6.8-11.1c10-14.3,20.4-17.9,36.1-10.4c15.3,7.3,29.9,16,44.4,24.8
	c16.5,10,32.7,20.6,48.9,31.1c19.8,12.9,39.2,10.6,58.2-1.4c33.5-21.1,40.3-56.6,30.2-89.2c-2.8-9-8.9-15.8-17.2-19.9
	c-6.5-3.2-13.5-5.9-20.6-7.1c-15.2-2.5-30.6-2.5-45.6,1.5c-14.8,3.9-29.9,4.4-44.6,1.3c-63.8-13.2-107.4-49.3-125.4-113.3
	c-4.3-15.4-7.8-31-10.3-46.8c-4.4-27.2,10.2-50.9,35.6-60c15.6-5.6,26.3-2.3,35.3,11.5c7.9,12.1,16.3,23.7,28.2,32.1
	c7.3,5.2,15,9.8,22.9,14.1c4,2.2,8.6,3.7,13.1,4.6c9.4,1.9,12.6-1.7,10-10.7c-0.8-2.9-2-5.7-2.7-8.6c-3.2-12.4,0.4-21.4,11.5-28
	c4-2.4,8.4-4.1,12.6-6.1c4.5-2.2,9.2-4,13.4-6.6c12.8-7.9,19-19.2,17-34.5c-0.2-1.3-0.4-2.6-0.6-4c-1.6-13.3,3.9-22.9,16.9-26.8
	c7.6-2.3,15.6-3.1,23.6-3.9c6.6-0.6,13.3-0.1,20-0.1C2031.5,889.9,2031.6,889.5,2031.6,889.2z"/>
<path d="M1625.2,489.7c-1.4,7.5-2.8,15-4.2,22.5c-1,4.9-2.6,9.7-3,14.6c-0.8,9.8,3.2,16.1,12.7,18.9c14.3,4.2,23.7,13.5,28.8,26.9
	c8.1,21.1,15.9,42.4,23.1,63.8c4.9,14.7,11.9,28.1,20.2,41.1c11.7,18.2,23.2,36.6,34.1,55.2c13.3,22.7,21.2,47.4,24.1,73.5
	c0.6,5.5,0.2,11.3-1,16.7c-1.1,5.1-4.7,6.2-9.1,3.4c-3.3-2.1-6-5.3-9.3-7.5c-9.1-6.1-17.9-12.8-27.7-17.5c-6.3-3-14.2-4.2-21.3-4
	c-13.5,0.4-25.2-3.5-34.9-12.2c-7.3-6.6-14.2-14.2-19.5-22.5c-11.7-18.3-20.1-38.2-24.7-59.7c-3.5-16.7-9.8-32.5-18-47.5
	c-8-14.7-14.5-30-18.9-46.1c-6.9-25.7-21.5-46.8-41.3-63.6c-16.6-14.1-25.7-31.1-29-51.8c-2.5-15.4-4.6-30.9-6.5-46.4
	c-1.4-11.2-5.5-21.1-11.7-30.4c-8.1-12.2-16-24.5-23.8-37c-3.2-5.1-5.7-10.5-8.4-15.9c-5.2-10.3-3.6-20.1,3-29.1
	c8.3-11.2,19.3-18.1,33.5-19.5c17-1.7,32.5,2.1,46,12.7c13.2,10.3,25.8,21.1,35.8,34.6c9.9,13.2,17,27.6,20.2,44
	c3.9,19.4,11.1,37.6,22,54.3C1623.2,471.8,1624.5,476.7,1625.2,489.7z"/>
<path d="M1956.7,266.3c-0.7,16.6-0.6,33.3-2.4,49.8c-1,9.8-3.8,19.7-7.8,28.7c-6.6,14.8-5,27.7,5.1,40c2.7,3.3,5.3,6.9,7.6,10.5
	c7.1,11,10.7,22.8,8.8,36.1c-3.7,26.1-4.1,52.4-4.5,78.7c-0.4,19.7-8.6,36.7-20.7,51.9c-1.6,2-3.7,3.9-5.9,5.3
	c-6.4,4.3-12,3.6-16.6-2.7c-3.1-4.2-5.7-9.1-7.6-14c-16.5-44.8-29.8-90.4-32.5-138.5c-0.2-4-0.7-7.4-4.1-10.6
	c-3.5-3.3-5.8-8-8.1-12.5c-13.8-26.8-23.8-54.9-27.8-85c-3.5-26.4-7-52.8-11-79.1c-2.2-14.7-0.3-28.5,6.2-41.7
	c0.6-1.2,1.1-2.4,1.7-3.6c7.2-14,9-28.5,4.1-43.6c-3.4-10.6-0.1-19.3,8.1-25.8c5.4-4.2,11.8-7.8,18.3-9.7
	c14.9-4.4,24.2-0.3,32.1,12.9c5.4,9.2,10,18.8,15.2,28.1c10.9,19.5,21.7,39,32.8,58.3c5.8,10.1,9.1,20.5,8.7,32.3
	c-0.4,11.3-0.1,22.6-0.1,34C1956.4,266.3,1956.6,266.3,1956.7,266.3z"/>
<path d="M1370.1,1045.9c14.1,2,28.4,3.2,42.3,6.3c15.2,3.3,28.5,11.1,39.6,22.2c28.4,28.1,50.2,60.2,61.4,99.1
	c6.8,23.6,5.9,46-5.5,67.8c-14.2,27.1-39.9,36.3-67.4,22.9c-26.6-13-43.8-33.4-48.8-63.8c-4.6-27.6-21.5-47.1-46.8-58.2
	c-17.4-7.7-27.4-20.5-32-38.2c-2.4-9.5-2.2-19.2,0.2-28.7c4-15.9,14.6-25.3,30.8-27c8.6-0.9,17.3-1,25.9-1.4
	C1370,1046.4,1370.1,1046.1,1370.1,1045.9z"/>
<path d="M2194.5,397c-0.7,9.3-1.3,18.6-2.2,27.8c-1.2,12.6-8,21.6-18.5,28.1c-27.6,16.9-63.3,8.5-80-19.2
	c-11.8-19.6-18.5-41.1-21.3-63.9c-3.5-28-7.6-56-11.8-83.9c-2.7-18-0.2-34.4,12.1-48.6c13.2-15.3,27.1-16.7,42.4-3.6
	c15.7,13.5,29.9,28.4,39.7,47c5.6,10.6,11.6,21,17.6,31.3C2187.7,338.3,2195.2,366.5,2194.5,397z"/>
<path d="M2512.6,575.3c0.9,31.9-8.4,61.2-22.9,89c-3,5.8-6.9,11.5-11.4,16.2c-8,8.4-16,8.1-24.1-0.1c-1.6-1.7-3.3-3.4-4.6-5.2
	c-14.7-20.6-29.6-41-43.8-61.9c-14.3-21.1-17.9-44.8-14.5-69.7c1.3-9.9,2.4-19.9,5-29.4c4.9-17.9,17.1-29.8,34.1-36.6
	c15.4-6.2,30.3-3.5,43.7,5.6c20.6,14,33,33.5,36,58.4C2511.3,552.7,2511.8,564,2512.6,575.3z"/>
<path d="M2127.9,718.2c0-3.7,0-7.3,0-11c-0.5-37.1,36.4-54.4,59.9-51.3c9,1.2,16.6,5.1,21.9,12.5c20.6,28.8,32.7,60.5,30,96.3
	c-2.1,27.8-13.2,51.5-38,66.8c-2.5,1.6-5.2,3.1-7.9,4.3c-14.9,6.6-27.1,3.6-35.3-10.4c-14-24-24.7-49.5-28.5-77.3
	c-1.3-9.9-1.8-19.9-2.7-29.8C2127.6,718.2,2127.7,718.2,2127.9,718.2z"/>
<path d="M2501.8,764.7c-0.8,10.4-3,22.9-8.8,34.3c-8.6,16.9-17,34-26.4,50.5c-7.3,13-9.1,26.3-5.9,40.5c4.4,19.6-2,36-14.2,51
	c-0.6,0.8-1.3,1.5-2,2.2c-10.6,10.4-18.8,8.8-23.7-5.4c-5.4-15.8-7.8-32.3-8.8-49c-1.2-20.6-2.4-41.2-3.9-61.8
	c-0.8-10.1-0.9-20,3.7-29.3c9.4-19.1,18.8-38.3,28.2-57.4c7.5-15.2,17.8-18.4,35.1-13.5C2492.4,731.7,2501.7,744.7,2501.8,764.7z"/>
<path d="M2222.8,591.1c-1,11.3-1.5,22.6-3,33.8c-2.1,15.3-9.2,21.5-24.6,21.9c-18.9,0.5-35.1-7.1-49.8-18c-2.1-1.6-2.9-5.7-3.2-8.7
	c-1.6-15.9-2.8-31.9-4.3-47.8c-1.3-13.4-5.2-26.2-12.4-37.6c-6.1-9.6-6.2-19.3-1.9-29.5c5.3-12.6,14.9-19.5,28.7-19.3
	c18.7,0.3,34.3,8,46,22.5c15,18.5,21.5,40.4,23.7,63.6c0.6,6.3,0.1,12.7,0.1,19C2222.3,591.1,2222.6,591.1,2222.8,591.1z"/>
<path d="M1950.1,755.7c-11-15-20-30.1-25.1-47.2c-2-6.6-3.1-13.6-3.4-20.5c-0.4-10.1,5-17.5,14.4-20.5c20-6.3,39.9-5.8,56.8,7.9
	c17,13.7,19.7,33.2,16.8,53.6c-1.3,9.2-7.2,15.4-16.1,18.7C1979.6,752.8,1965,754.2,1950.1,755.7z"/>
<path d="M1990.3,617.7c0,11.6-5.4,20.2-16.2,23.7c-9.3,3.1-19.3,5.3-29.1,5.9c-16.2,0.9-27.1-14.6-22.5-30.9
	c4.3-15.1,22.9-32.5,45.1-27.4C1981.7,592.3,1990.4,603.3,1990.3,617.7z"/>
</svg>
