<?xml version="1.0" encoding="utf-8"?>
<!-- Generator: Adobe Illustrator 23.0.2, SVG Export Plug-In . SVG Version: 6.00 Build 0)  -->
<svg version="1.1" id="Layer_1" xmlns="http://www.w3.org/2000/svg" xmlns:xlink="http://www.w3.org/1999/xlink" x="0px" y="0px"
	 viewBox="0 0 2511 2908" style="enable-background:new 0 0 2511 2908;" xml:space="preserve">
<path d="M435.7,197.7c0.3,20.9-4,41-11,60.6c-11.3,31.7-22.2,63.5-29.6,96.4c-10,44.8-14.7,90-11.7,135.9
	c1.1,16.6,2.6,33.2,4.2,49.8c1.3,12.7,5.6,24.7,11.3,36.1c11.4,22.9,12.7,46.7,6.7,71c-1.9,7.6-5.5,15.1-9.8,21.7
	c-12.2,18.8-19.1,39.5-23.1,61.3c-0.6,3.2,0.6,7.1,2.1,10.2c1.5,3.2,4.2,6,6.7,8.6c12.2,12.8,23.5,14,38.2,4.1
	c4.4-3,8.8-6.1,12.9-9.5c13.1-11.1,28.5-15.8,45.3-15.6c27.3,0.4,54.6,1,81.9,2.3c25.6,1.2,51.2,3.9,76.8,5.3
	c29.2,1.5,53.4,13.1,72.9,34.6c18.9,20.9,34.7,43.9,46.4,69.6c13,28.7,15.1,58.4,7.3,88.9c-6.6,25.8-13.5,51.5-23.6,76.3
	c-8.8,21.6-10.7,44.7-8.7,67.8c1.1,12.8,3.8,25.7,7.3,38.1c4.6,16.6,13.6,30.7,25.9,43.2c20.7,21.2,40.6,43.2,60.3,65.4
	c19.3,21.8,34.8,46.3,49.1,71.6c7.6,13.4,13.3,27.5,15.2,43.1c2.2,17.7-0.4,34.6-7.1,50.9c-5.1,12.3-13.5,22-24.3,29.8
	c-25.6,18.3-40.6,43.7-47.7,73.9c-1.8,7.7-1.8,15.8-2.1,23.8c-0.6,18.4-7.3,34.2-21.5,45.6c-41.2,32.7-84.6,61.7-136.7,74.3
	c-6.8,1.6-13.7,2.5-20.7,3.1c-36.8,3.2-73.7,5.7-110.5,9.3c-17.9,1.8-35.2,0.6-52.2-5.3c-4.4-1.5-8.9-2.9-13.2-4.6
	c-16.2-6.4-30-2.9-41.7,9.7c-12.5,13.4-28,19.2-46,16.9c-9.8-1.2-19.8-3.6-29-7c-10.2-3.8-20.2-8.7-29.6-14.4
	c-22.4-13.5-42.3-30.1-59.4-50c-22.5-26.1-46.8-50.1-74.2-71.2c-20.1-15.4-30.2-36.7-32.8-61.8c-2.9-28.5-6.2-57-14-84.7
	c-4.6-16.3-9.1-32.8-15.1-48.6c-12.8-33.7-19.6-68.5-19.7-104.5c-0.2-50.8-3.8-101.2-13.4-151.1c-4.6-24-1.3-47.1,7.4-69.6
	c16.1-41.6,42.9-74.9,79.4-100.3c33.1-23,66.5-45.6,99.6-68.6c10.1-7,19.7-14.8,29.2-22.7c22.9-19.2,30.6-43.5,24.1-72.6
	c-3.3-14.8-8.4-28.7-17.6-41c-11.2-15.2-18.6-32.3-24.2-50.2c-6-19-4.6-37.2,4.9-55.1c14.2-26.7,22.9-55.3,28.1-85
	c3.5-19.8,0.4-39.2-3.4-58.5c-6.9-35.7-10.4-71.8-11-108.2c-0.3-20.6-3.2-41.1-5.4-61.6c-3-27.6-5.2-55.1-1.1-82.7
	c2.4-16.1,9.2-30.6,18.9-43.6c15.7-21.2,37.4-27.8,62.7-24c7.5,1.1,15,3,22.3,5.2c28.7,8.7,41.7,25,43.9,54.9
	C436,189,435.7,193.4,435.7,197.7z"  fill="#ffffff"/>
<path d="M956.8,263.4c-0.1,23.2-3.2,43.4-11.4,62.2c-5,11.5-11.7,22.4-19,32.7c-13.9,19.4-21.3,40.6-20.2,64.5
	c1.5,31.1-3.9,60.8-15.9,89.7c-12.5,30.1-19.2,61.5-17.5,94.5c0.4,8.8-0.9,18-2.8,26.7c-5.7,26.3-15.7,50.8-30.3,73.5
	c-6.2,9.6-13.4,18.3-22.7,25.1c-15.3,11.1-31.9,11.8-47.5,1.3c-6-4.1-11.7-9-16.4-14.5c-21-24.7-33.5-53.5-39-85.3
	c-5.1-29.3,2.1-56.5,17.5-81.2c8.9-14.1,13-28.9,14.2-45.1c1.2-16.9,2.3-33.9,4.6-50.7c1.2-9.1,3.7-18.4,7.7-26.6
	c17.4-36.7,29.5-74.7,34-115.3c4.5-40.8,13.6-80.7,28.4-119.2c1.7-4.3,3.5-8.6,5.3-12.9c11.2-26.7,35.5-32.1,54.4-29.8
	c31.2,3.8,52.8,20.4,64.1,49.9C952.3,223.2,957.3,244.1,956.8,263.4z"  fill="#ffffff"/>
<path d="M506.9,359.9c1.7-14.5,3.3-29.1,5.1-43.6c4.1-33,2.3-65.7-2.6-98.5c-5-33.9-9-68-12.5-102.1c-2.5-24.5,2.4-48.5,10.1-71.7
	c10.9-32.9,39.5-41.1,65.5-39.4c5.6,0.4,11.2,1.6,16.7,3c20.4,5.4,35.4,17.7,42.3,37.6c10.2,29.4,17.2,59.6,14.4,91.1
	c-0.7,7.9-2.1,16-4.7,23.4c-7.3,20.4-14.9,40.6-23.4,60.5c-4.8,11.2-8.4,22.4-7.9,34.7c1.1,26,1.8,51.9,3.4,77.8
	c1,16.2,0,31.8-5.6,47.2c-10.9,30.3-35.7,40-59.5,34.5c-5.2-1.2-10.5-1.9-15.5-3.6c-15.1-5.1-23.5-15.8-24.6-31.8
	c-0.5-6.3-0.1-12.6-0.1-19C507.7,360,507.3,360,506.9,359.9z"  fill="#ffffff"/>
<path d="M1175.9,882.2c10.2,0,22.5,0.1,34.8,0c8.4-0.1,15.7,2.5,22.2,7.6c14.5,11.2,22.5,26.1,24.6,44.1c0.8,6.9-1.1,13.3-4.6,19.1
	c-4.3,7.1-8.6,14.4-13.9,20.7c-21.8,26.1-43.6,52.1-66.2,77.6c-16.7,18.9-37.2,33.3-60.1,44c-17.7,8.3-36.3,12.9-56,12.9
	c-1.7,0-3.3,0-5-0.2c-17.2-1.5-25.9-11-25.1-28.3c0.4-8.3,1.6-16.6,3.2-24.7c3.6-18.6,7.5-37.2,11.8-55.7c3.2-13.8,9-26.5,17.4-37.9
	c14.7-20.2,29.7-40.2,44.7-60.2c3.4-4.5,7.4-8.5,11.4-12.6c5.9-6,13.1-8.9,21.6-8.4C1149.1,880.9,1161.4,881.4,1175.9,882.2z"  fill="#ffffff"/>
<path d="M134.2,469.3c0.2,24.4-5.3,45.5-16.8,64.7c-7,11.7-15.1,22.7-23.2,33.7c-3.1,4.2-7.1,8-11.4,11.1c-9.4,6.9-18.6,6.6-27.3-1
	c-4.2-3.7-7.9-8.2-11-12.8c-8.7-12.7-16.1-26.1-19.9-41.1C18.3,499,12.2,474.1,7,449.1c-3-14.1-1.5-28.5,1.8-42.6
	c7-29.4,31.8-37,53.8-35.7c15.3,0.9,28,7.8,38.8,18.4C123.6,411.1,134.3,437.8,134.2,469.3z"  fill="#ffffff"/>
<path d="M484.1,531.1c1.4-19.8,5.1-47.5,11.6-74.7c3.2-13.2,10.4-19.2,23.9-20.1c25.9-1.6,48,7.5,61.8,29.4
	c13.8,22,24.5,46.1,25,72.8c0.2,12.2-1.1,24.6-3.5,36.6c-2.4,12-6.6,23.7-10.8,35.3c-6.8,18.8-18.9,26.8-38.7,26.7
	c-22.1-0.2-39.2-9.4-50.6-28.4C490,587.2,483.4,564.1,484.1,531.1z"  fill="#ffffff"/>
<path d="M93.1,839.2c4.2-23.6,8.1-45.8,12.1-68.1c2.8-15.6-0.9-28.2-13.1-39.5c-12.4-11.4-23.8-24.3-34.2-37.6
	c-14.4-18.6-18.6-40.2-13.9-63.3c0.5-2.6,1.3-5.2,2.4-7.6c4.4-9.8,11.6-13.7,21.8-10.6c5.9,1.8,11.8,4.7,16.9,8.3
	c19.7,14,35.1,31.5,43.3,54.7c8.6,24.5,18.7,48.5,22.6,74.3c2.7,17.9,0.6,35.3-6.1,52c-8,20.1-24,31.3-44.1,37.3
	C98.5,839.8,95.8,839.2,93.1,839.2z"  fill="#ffffff"/>
</svg>
