<?xml version="1.0" encoding="utf-8"?>
<!-- Generator: Adobe Illustrator 23.0.2, SVG Export Plug-In . SVG Version: 6.00 Build 0)  -->
<svg version="1.1" id="Layer_1" xmlns="http://www.w3.org/2000/svg" xmlns:xlink="http://www.w3.org/1999/xlink" x="0px" y="0px"
	 viewBox="0 0 2511 2908" style="enable-background:new 0 0 2511 2908;" xml:space="preserve">
<path d="M1448,1972.6c-2.6-12-5.7-23.9-7.6-36c-3.4-21-5.7-42.3-9.4-63.3c-8.4-47.6-17.6-95-29.5-141.8c-1.8-7.3-2.7-15.2-2-22.7
	c2.2-22,18.9-39.1,40.2-42.6c21.6-3.5,42.7,7,52.3,26.8c2.9,5.9,4.8,12.4,6.5,18.8c13.5,53.3,25.2,107,32.6,161.5
	c4.1,29.8,11,58.9,16,88.4c5.9,34.4,9.5,69.3,12.7,104.1c2.5,27.2,2.9,54.6,3.7,81.9c0.3,10.6,0,21.4-1.4,31.9
	c-2.9,21.1-14.9,35.7-35.5,41.4c-20.5,5.6-38.4-0.4-51.9-16.9c-4.4-5.3-7.7-11.7-10.6-18c-7.8-16.7-16.9-32.4-28.5-46.8
	c-6-7.5-11-15.9-15.6-24.4c-15.9-29.4-35.3-56.4-54.5-83.7c-8.8-12.5-18.2-24.7-27.4-36.9c-3.5-4.6-7.4-9-11-13.6
	c-0.7,0.3-1.3,0.6-2,0.9c1.2,10.7,2.4,21.5,3.5,32.2c2.5,23.5,4.6,47.1,7.6,70.5c4,31.1,8.9,62,13,93c1.2,9.2,2.5,18.7,1.4,27.7
	c-2.9,22.4-21,39-42.7,41.1c-23.4,2.2-44.1-10.4-51.7-32.4c-2.8-8.1-4.4-16.8-5.5-25.3c-5.8-43.9-11.2-87.9-16.7-131.8
	c-4.3-34.1-8.4-68.1-12.6-102.2c-3.6-28.8-7-57.5-11.2-86.2c-2.2-15.1-6.1-30-8.9-45.1c-1.2-6.2-2.2-12.6-2-18.8
	c0.6-19.2,9.6-33.9,26.8-42.6c17.9-9,36.1-8,52.1,3.8c13,9.6,25.4,20.7,36,33c15.7,18.1,30.2,37.3,43.9,57
	c16.3,23.5,32.1,47.4,51.1,69c11.6,13.3,21.3,28.1,32,42.2c1.7,2.3,3.8,4.3,5.8,6.5C1447.1,1973,1447.6,1972.8,1448,1972.6z"  fill="#ffffff"/>
<path d="M1636.4,1690.1c39.5-1.7,76.9,6.4,112.2,24c9.5,4.8,19.3,9.1,28.7,14.1c20.9,10.9,39.8,24.4,55.2,42.3
	c15.7,18.1,31.2,36.4,45.6,55.6c48.8,65,51.6,154.8,17.9,218.5c-11.1,21-23.7,40.8-38.5,59.4c-21.9,27.5-50,44.3-84.4,51.3
	c-34.3,7-68.7,13.3-103.5,16.6c-14.2,1.4-28.6,2.1-42.9,2.1c-25.2,0.2-44.8-16.2-49.1-41.1c-2-11.4-2.5-23.2-3.3-34.8
	c-1.3-17.6-1.8-35.3-3.7-52.8c-3.3-30.1-6.6-60.3-11.2-90.2c-6-39.3-8.4-78.8-11.1-118.3c-1.2-17-2.8-33.9-7.9-50.2
	c-6.6-21.3-2.6-41.6,5.1-61.4c7.2-18.3,22.2-28.3,41-31.2C1603,1691.5,1619.8,1691.3,1636.4,1690.1z M1643.6,1790.5
	c1.5,17.4,3.3,33.6,4.2,49.9c2.2,37.3,5.9,74.3,11.1,111.3c4.7,34,7.8,68.1,11.6,102.2c0.6,5.6,1.1,11.1,1.6,16.6
	c1.8,0.3,2.8,0.7,3.7,0.5c26.9-4.5,53.8-8.9,80.7-13.7c9.1-1.6,16.5-6.7,22.5-13.9c10.4-12.6,19.7-26,27-40.7
	c20.9-42.1,17.9-82.5-9.6-120.5c-10.9-15.1-23.5-29-35.4-43.3c-7.8-9.3-17.3-16.7-28.1-22.1c-15.5-7.6-31.3-14.9-47.2-21.6
	C1672.5,1789.8,1658.5,1789.3,1643.6,1790.5z"  fill="#ffffff"/>
<path d="M1098.2,2093.3c-3.1,1.1-5.5,1.8-7.9,2.8c-27.9,11.1-55.6,22.5-83.6,33.1c-12,4.6-24.7,7.4-38.2,11.3
	c-1.4,12.6-3,26.1-4.5,39.6c-1.4,12.6-1.9,25.3-4.3,37.7c-3.9,20.4-16.3,34.3-36.7,39.2c-19.9,4.8-37-1.1-50.1-17
	c-9.4-11.5-11.9-25-10.4-39.5c1.2-11.9,2.3-23.9,3.6-35.8c3.3-30.5,5.8-61,10.3-91.4c4-27,9.9-53.7,15.2-80.5
	c5.2-26.1,10.6-52.2,16.3-78.2c4.1-18.7,12-35.9,22.1-52.2c13.2-21,29.1-39.8,46.7-57.2c14.2-14,31.3-23.9,50-30.4
	c21.4-7.5,41.3-3.9,58.9,11c19.2,16.3,29.8,38.1,38.6,60.9c3,7.7,5,15.9,7.8,23.7c12.6,34.7,24.9,69.6,38,104.1
	c12.1,31.9,20.4,64.8,25.8,98.4c5.1,31.7,12.9,62.6,24.6,92.5c4.8,12.1,6.5,24.6,2.3,37.1c-6.4,19-19.6,30.8-39.6,33.6
	c-20.7,2.9-37.7-4.6-48.6-22.5c-5.3-8.7-8.6-18.7-12.2-28.3c-10.5-27.5-16.9-56.1-22.2-84.9
	C1099.8,2098.2,1099,2096.1,1098.2,2093.3z M1071.2,1996.8c-12.8-36-25.3-70.9-38-106.7c-14,15.8-26.1,31.5-30.2,51.9
	c-5.6,27.4-11.2,54.8-16.7,82.2c-0.3,1.7,0.2,3.5,0.4,5.9c15.1-5.9,29.4-11.3,43.6-16.9C1044,2007.8,1057.5,2002.3,1071.2,1996.8z"
	  fill="#ffffff"/>
<path d="M658.6,1979.3c26.2,0,51.4,0,77.9,0c0-4.7,0-8.2,0-11.7c-0.3-36.5-5.6-72.3-13.6-107.9c-2.5-11.1-4.3-22.3-1.9-33.7
	c4.9-23.4,24-39.6,47.2-40c23.8-0.4,44.2,15.2,49.1,38.8c10.3,49,18.9,98.2,18.4,148.5c-0.3,36.1,3.9,71.8,8.7,107.5
	c2.4,17.8,3.9,35.8,5,53.7c1.4,24,1.9,48,2.6,71.9c0.2,5.6,0.1,11.4-0.9,16.9c-4.7,24.2-26.2,40.9-50.4,39.6
	c-24.6-1.3-44.1-19.4-46.6-44.1c-1.3-12.9-1.4-25.9-2.3-38.9c-2-30.6-4-61.1-6.1-91.7c-0.2-3.3-1.1-6.5-1.7-10
	c-26.8,0.6-52.9,1.3-80.1,1.9c0,3.3,0,5.9,0,8.4c0.6,35.7,1.1,71.3,1.7,107c0.1,8.3,0.4,16.7,0.1,25c-1.2,27.2-21.1,47.5-47.6,48.6
	c-26,1.1-47.7-18-50.7-45.1c-0.9-8.3-0.8-16.6-1-25c-0.9-48.6-1.2-97.3-2.9-145.9c-1.1-29.3-4.4-58.4-6.8-87.6
	c-2.2-27.6-4.8-55.1-6.5-82.7c-0.6-9.6,0.2-19.4,1.4-28.9c3.4-26.4,25.3-44.8,51.1-43.6c26.1,1.3,47.3,22.3,46.7,49.2
	c-0.8,33.5,3.4,66.5,6.4,99.7C656.6,1965.8,657.7,1972.4,658.6,1979.3z"  fill="#ffffff"/>
</svg>
