<?xml version="1.0" encoding="utf-8"?>
<!-- Generator: Adobe Illustrator 23.0.2, SVG Export Plug-In . SVG Version: 6.00 Build 0)  -->
<svg version="1.1" id="Layer_1" xmlns="http://www.w3.org/2000/svg" xmlns:xlink="http://www.w3.org/1999/xlink" x="0px" y="0px"
	 viewBox="0 0 4797 4796" style="enable-background:new 0 0 4797 4796;" xml:space="preserve">
<style type="text/css">
	.st0{fill:#030303;}
	.st1{fill:#FF0322;}
</style>
<path class="st0" d="M1583.5,585.1c0.5,20.2-4,39.6-10.6,58.6c-9.8,28.3-19.7,56.5-27.1,85.6c-16.3,64.1-18.5,128.9-10.6,194.4
	c1.7,14.1,6,27.3,12.3,39.9c9.9,19.9,10.9,41,7.9,62.5c-1.5,11.3-6.1,21.7-12.6,31.2c-11.5,16.8-16.9,36-21.7,55.5
	c-1.8,7.3,0,13.1,4.7,18.3c1.8,2,3.5,4.1,5.4,5.9c11,10.3,21.5,11.5,34.4,3.5c6.2-3.8,12-8.3,17.9-12.7
	c10.4-7.8,21.9-12.4,35.1-12.7c11.3-0.2,22.7-1.3,33.9-0.7c39.3,1.8,78.5,3.9,117.8,6.3c11.3,0.7,22.6,2.2,33.7,4.1
	c13.4,2.2,25.7,7.6,36,16.4c37.4,32,64.1,71,74.3,119.9c3.9,18.7,1.2,37.3-3.4,55.4c-6.2,24.5-13.3,48.7-22.2,72.4
	c-14.5,38.8-13.8,78.3,0.6,117.2c4.7,12.6,12,23.6,21.8,33c22.6,21.7,43.4,45.2,63.5,69.2c18.5,22,34,46.1,48,71.1
	c11.4,20.3,16.6,42,13.8,65.3c-2.7,22.8-11.5,42.2-30.8,55.9c-19.6,13.9-33,32.6-42.1,54.6c-5.4,13.1-8.4,26.5-8.2,40.8
	c0.3,19.9-7.1,36.9-22.6,49.1c-39.5,30.9-80.8,58.6-130.1,72.1c-14.4,3.9-29,4.2-43.5,5.6c-30.5,3-61.1,5.3-91.5,8.2
	c-19.5,1.9-38.5,0.8-57-6.4c-5.6-2.2-11.4-3.7-17.1-5.3c-11.1-3-21.1-0.3-29.9,6.9c-3.1,2.5-5.8,5.5-8.8,8.2
	c-13.4,12-29.1,15.8-46.4,12.8c-17.8-3.2-34.7-8.9-50.3-18.3c-23-13.9-43.9-30.3-61.5-50.5c-23.2-26.7-48-51.7-76.2-73.4
	c-20.1-15.5-30.1-36.8-32.7-61.8c-2.4-22.5-4.8-45-9.7-67.2c-5.2-23.4-11.7-46.5-20.3-68.9c-12.7-33.4-18.7-67.9-18.7-103.6
	c0-36.7-2-73.3-7.2-109.6c-1.6-11.2-2.9-22.5-5.3-33.5c-6.7-29.9-1.9-58.4,10.5-85.7c16.9-37.2,42.2-67.6,76-90.8
	c34.1-23.3,68.1-46.7,101.9-70.4c10.3-7.2,20.2-15.3,29.6-23.8c19.9-18.1,26.6-40.5,21-67c-3.4-15.9-8.7-30.6-18.3-43.8
	c-11.4-15.8-19-33.5-24.4-52.2c-5-17.4-3.9-34.1,4.6-50.3c11.5-21.9,19.3-45.1,25.4-69.1c5.7-22.4,6.5-44.9,2-67.3
	c-8.1-40-12.5-80.2-12.3-121c0-17.2-3.1-34.5-4.9-51.7c-2.9-27.8-6.3-55.6-2.8-83.7c2.1-17,8.2-32.3,17.7-46.1
	c15-21.8,35.9-31,62.2-27c9.8,1.5,19.8,3.5,29.2,6.6c23.7,8,37.4,24.6,39.4,50C1583.9,573.1,1583.5,579.1,1583.5,585.1z"/>
<path class="st0" d="M3181.1,1276.4c14-0.2,28,0,41.8,2.4c5.2,0.9,10.6,0.9,15.9,1.5c14.5,1.6,27.8-1.5,39.8-9.7
	c10.5-7.2,22.1-12.2,34.3-16c5-1.6,10.3-2.7,15.5-3.4c12-1.5,22.3,2,30.6,11c4.1,4.4,8.3,8.7,12.1,13.3
	c11.9,14.4,24.2,28.5,35.3,43.4c12.3,16.5,27.8,28.5,46.4,36.9c26.8,12,54.1,22.8,83.2,27.5c28.6,4.7,48.5,20.5,62.9,44.5
	c9.3,15.5,15.7,32.4,20.5,49.7c7.3,26.3,12.5,53.2,15.5,80.3c3,27.4,0.9,54.7-4.2,81.6c-12.4,65.6-18.8,131.8-20.1,198.5
	c-0.8,38.6-1.4,77.3-6.3,115.7c-3.7,29.1-8.5,58-16.7,86.2c-10.6,36.7-29.7,68.1-59.1,93c-22.9,19.4-49.1,28.7-79.2,27
	c-7.4-0.4-14.6-1.8-21.5-4.3c-15.4-5.5-26.3-15.4-29.1-32.4c-0.6-3.9-1.7-7.8-2.2-11.8c-2.5-17.7-13-29.1-29.4-34.5
	c-20.3-6.7-41-11.7-62.5-12.4c-22-0.7-43.9-2.8-65.5-7.3c-18-3.7-31.5,2-41.5,16.7c-11.6,17-22.9,34.4-34.1,51.7
	c-4.4,6.7-8.2,13.7-12.4,20.5c-6.7,10.9-16.7,16.8-29.3,18.6c-7.3,1-14.6,1.1-21.9,0.1c-19.2-2.7-37.9-7.7-55.8-14.7
	c-11.6-4.5-22.1-12.2-32.4-19.6c-22.1-16-44-32.7-62.3-52.7c-45.8-50.1-92.7-99.4-129.4-157.1c-5.4-8.4-10.2-17.1-13.3-26.7
	c-4.5-13.8-2.4-26.4,5.6-38c3.8-5.4,8.3-10.4,12.8-15.3c49.9-55,92.7-115.1,127.9-180.5c5-9.4,9.9-18.9,15.9-27.7
	c9.8-14.4,20.2-17.3,36.2-10.5c15.4,6.5,29.7,15,43.6,24.2c16.1,10.6,32.7,20.6,48.7,31.3c22.1,14.8,43,10.5,63.1-3.8
	c25.1-17.9,37.7-48.6,26.3-85.4c-3.7-12.1-13-19.9-24.8-24.3c-18.1-6.7-37-6.8-55.2-2.8c-48.4,10.7-89.3-4.7-126.2-34.4
	c-19.5-15.7-33.5-36-42-59.8c-8.1-22.6-14.4-45.7-16.2-69.8c-1.7-23.1,8.8-39.8,28.7-50.7c16.4-8.9,32.2-10,44.2,10.6
	c10.7,18.3,26.3,31.7,44.8,41.7c5.9,3.2,12,5.7,18.7,6.6c6.8,1,10.4-2.4,9-8.9c-0.7-3.2-2.1-6.3-2.8-9.6c-3.2-14.1,0.7-22.8,13.3-30
	c4-2.3,8.5-3.8,12.7-5.8c4.2-2,8.4-4,12.3-6.5c10.9-7,16.9-16.8,16.2-30c-0.2-3.3-0.3-6.7-0.7-10c-1.4-11.9,5.6-21.5,18.3-24.9
	c6.4-1.7,13-2.9,19.6-3.4C3165,1275.9,3173.1,1276.4,3181.1,1276.4z"/>
<path class="st0" d="M2592.7,2352.6c0.1-2.3,0.7-4.3,0.3-6.1c-8-33.1-10.2-67.1-16.4-100.5c-7.8-41.9-15.5-83.8-26.6-125
	c-1.9-7.2-3-14.4-2.8-21.7c0.5-21.6,14.4-39.8,35.1-45.9c20.2-6,42.2,2.2,54.5,19.9c5.4,7.9,8.1,16.8,10.3,25.8
	c12.6,51.1,24.2,102.5,31.2,154.6c4.7,34.4,12.1,68.1,18.4,102.2c5.9,32.1,8.9,64.7,11.2,97.2c1.8,24.6,2.4,49.3,3.4,73.9
	c0.3,8.7,0.5,17.3,0.1,26c-0.2,5.9-1.1,12-2.4,17.8c-4.5,19.3-16.6,32-35.6,36.6c-20.5,4.9-38.4-1.1-51.5-18.1
	c-4.4-5.7-7.6-12.5-10.8-19c-7.5-15.7-16.1-30.6-27.1-44.1c-5-6.1-9.4-12.9-13.3-19.9c-19.9-36.3-43-70.4-68.5-103
	c-7.8-9.9-15.1-20.3-22.7-30.4c-0.6-0.8-2.4-1.2-3.4-0.9c-0.9,0.2-2,1.7-2,2.5c0.5,6.6,1.1,13.2,1.9,19.8
	c6.6,58.9,12.1,118,22.6,176.4c4,22.3-2.2,41.1-21.6,54.1c-25.3,16.9-60.2,6.1-71.9-22.2c-2.5-6.1-3.9-12.7-5-19.3
	c-8.6-51.3-14.8-102.8-20-154.5c-2.9-28.5-7.1-56.8-10.6-85.3c-2.9-23.1-6-46.2-8.4-69.4c-2.1-19.9-6.8-39.4-10.6-59
	c-1.4-7.2-2.5-14.4-2.9-21.7c-2-36.7,36.2-62.9,72.8-45.3c6.5,3.1,12.3,8,17.8,12.7c24,20.5,43.6,44.9,61.5,70.7
	c8.3,12,16.1,24.5,24.4,36.6c4.5,6.6,8.9,13.4,14,19.4c14.7,17.3,29,34.8,41.8,53.5C2582.8,2345.6,2585.5,2351.5,2592.7,2352.6z"/>
<path class="st0" d="M1746.7,2846.8c3-0.2,4.5-2.4,5.9-4.7c4.8-8,10.2-15.7,14.5-23.9c13.8-26.8,32.5-50.3,49.3-75.2
	c6.3-9.4,14.1-17.8,23.4-24.5c18.1-13.2,37.9-15.9,58.6-7.3c21.9,9.1,32.7,26.6,34.2,49.8c1.5,22.6,2.6,45.2,2.9,67.9
	c1.3,102.6,2.2,205.3,3.1,307.9c0.1,8.6-0.2,17.4-1.7,25.9c-4.3,23.6-24.4,40.1-48,40.1c-24.1,0-45-18-48.5-42.1
	c-0.9-6.6-0.8-13.3-0.8-20c-0.1-44.7,0.1-89.3-0.3-134c-0.3-34.6-1.4-69.2-2.1-103.5c-5.7-2.1-6.4,2.2-8,4.5
	c-8.3,11.3-16.1,22.9-24.5,34c-8.6,11.3-19.8,19.7-32.9,25.4c-24.8,10.7-50.7,7.2-69.7-13.1c-15.9-17.1-29.1-36.4-41.9-55.9
	c-3.9-6-6.4-13-12.8-17.5c-4.8,2.8-2.7,7.1-2.4,10.4c2.5,27.2,3.2,54.6,3.8,81.9c1,42,1.8,83.9,2.8,125.9c0.2,8-0.2,15.9-2.7,23.7
	c-6.9,20.9-24.6,34.1-46.5,34.2c-21.9,0.1-39.8-12.8-46.9-33.7c-2.4-7.1-3.2-14.3-3.3-21.6c-0.3-23.3-0.3-46.7-1-70
	c-1.2-42-2.1-84-4.5-125.9c-2-34.6-3.6-69.2-3.5-103.9c0-10,0.3-20,1.1-30c1.3-16.4,7.9-30.6,18.3-43.5c22.1-27.3,59.9-29,84.7-12.2
	c9.4,6.4,17.8,14,25.4,22.4c8,9,15.2,18.6,21.1,29.1c15,26.8,34.3,50.8,50.3,76.9C1744.5,2845.4,1745.7,2846,1746.7,2846.8z"/>
<path class="st0" d="M2444.2,3200.3c-24,0-47.9,0-71.9,0c-8.7,0-17.2-0.7-25.5-4c-17.4-6.9-28.4-19.1-32.1-37.7
	c-1.6-7.9-1.4-15.9-1.1-23.9c0.8-21.3,1.5-42.6,2.5-63.9c1.1-23.3,3.5-46.5,3.9-69.8c0.8-41.3,0.2-82.6,0.7-123.8
	c0.5-39.3,4.3-78.4,11.7-117.1c1-5.2,2.3-10.4,4-15.4c7.2-20.9,25.9-34.4,46.9-33.7c28.6,0.9,57.3-0.1,85.7,4.6
	c60.1,9.8,108.8,38.2,142.5,89.6c25.6,39,47.3,80.2,61.2,125c13.2,42.5,17.8,85.8,11.9,130.1c-2,15.4-6.4,30-14,43.4
	c-34.5,60.8-85.7,95.2-156.7,97c-23.3,0.6-46.6,0.1-69.9,0.1C2444.2,3200.6,2444.2,3200.5,2444.2,3200.3z M2420.2,2938
	c-0.1,37.9,0.2,75.9-3.7,113.7c-1.4,13.9-1.4,27.9-1.8,41.9c-0.2,5.5,1.4,7.1,6.8,7.2c28.6,0.3,57.2,0.7,85.8,0.8
	c6.6,0,13.3-0.6,19.9-1.6c27.4-4.4,44.6-22.1,56.9-45.5c2.4-4.5,3.3-10.2,3.5-15.4c1.3-27.4-1.1-54.4-9.9-80.7
	c-12.3-36.9-30.8-70.6-51.8-103.1c-6.3-9.7-15-16.8-24.4-23.2c-21-14.4-44.5-20.3-69.8-20.3c-4.7,0-7.5,1.6-7.8,6.6
	c-1.1,15.3-3.1,30.5-3.5,45.7C2419.8,2888.7,2420.2,2913.4,2420.2,2938z"/>
<path class="st0" d="M2783.7,2075.8c63.2-3.5,118.3,19.8,167.6,55.3c44.3,31.9,78.2,74.9,99.5,125.3c22.4,53.1,21.8,107.7-0.9,161.3
	c-12,28.4-28.7,54-48.8,77.4c-20.3,23.6-45.6,38.3-75.8,45.1c-37.7,8.4-75.8,14.5-114.2,18.5c-12.6,1.3-25.3,1.5-37.9,1.2
	c-22.2-0.5-39.4-13.7-46-34.8c-1.6-5-2.6-10.3-3.1-15.6c-1.5-17.9-3.4-35.8-3.8-53.8c-0.8-31.4-5.4-62.4-10-93.3
	c-6.6-44.9-11.2-89.8-13.8-135.1c-1-18-2.4-36-7.9-53.2c-6.7-20.9-3.2-40.9,3.9-60.6c7.3-20,22.9-30.9,43.4-33.8
	C2751.7,2077.5,2767.8,2077.1,2783.7,2075.8z M2967.9,2337.1c-0.8-7.2-1.4-14.5-2.6-21.7c-0.8-5.2-2-10.5-3.7-15.4
	c-9.6-27.3-50.7-78.8-75.2-93.7c-17.1-10.4-35.4-18.4-54-25.4c-10.7-4.1-22-5.2-33.4-4.6c-5.7,0.3-7.3,1.7-6.9,7
	c1.5,20.5,3.2,41.1,4.8,61.6c1.4,17.2,2,34.6,4.4,51.7c7,50.7,15,101.3,18.3,152.4c0.5,7.1,1.6,8,8.5,7.6
	c27.3-1.8,53.8-8.4,80.3-14.3c8-1.8,14-7.3,19.2-13.5c13.3-15.9,24.2-33.3,32.2-52.5C2965.1,2363.6,2967.6,2350.6,2967.9,2337.1z"/>
<path class="st1" d="M1557.3,3606.4c13.8,13.9,26,27,39.2,39.1c19.1,17.6,38.9,34.4,58.4,51.5c4,3.5,8.1,7,11.6,11
	c18,20.2,18.2,48,0.9,67.2c-17.6,19.4-45,22.2-66.7,5.6c-14.8-11.3-28.5-24-42.4-36.5c-37.6-33.7-73.4-69.6-112.9-101.3
	c-0.8-0.6-2.3-0.4-4.1-0.6c-2.4,4.8-1.1,10.2-1.1,15.2c0,40.6,0.1,81.2,0.2,121.9c0,5.3,0.1,10.7-0.5,16
	c-2.8,24.2-22.9,42.8-47,43.8c-23.2,0.9-43.9-15.1-49.5-38.4c-1.9-7.8-2.1-15.8-2.2-23.8c-0.1-92.6-0.4-185.1-3.3-277.7
	c-0.9-29.9-0.2-59.9,0.1-89.9c0.1-9.3,0.8-18.7,2.4-27.8c5-28,20.7-47.7,48.7-54.9c40.7-10.4,81.5-12.2,121.8,3
	c14.3,5.4,28.5,11,42.2,18c19.2,9.9,35.6,23.2,50.3,38.9c24.9,26.6,32.8,58.8,30.4,94c-3.3,47.5-28,83.6-62.3,114.5
	C1567.4,3598.6,1563.1,3601.7,1557.3,3606.4z M1438.8,3552.6c20.4-8.3,38.6-15.6,55.9-25.4c13.8-7.8,24.1-18.5,32.3-31.6
	c14-22.4,10.6-39.8-11.2-54.5c-15.5-10.5-32.9-17.1-51.1-21.5c-4.5-1.1-9.2-1.6-13.8-1.9c-11.6-0.7-14.3,1.5-14.3,13
	c0.1,36.5,0.6,73,1,109.5C1437.7,3543.5,1438.2,3546.8,1438.8,3552.6z"/>
<path class="st1" d="M3579.9,3656.4c-4.2,3.4-2.6,6.8-2.5,9.8c1.8,34.6,3.8,69.2,5.7,103.8c0.6,10,0.9,19.9-2.4,29.7
	c-6.7,20-23.8,33.1-44.8,33.9c-21.8,0.8-40.5-11.7-48.1-32.1c-3.1-8.3-3.6-16.8-4-25.5c-2-41.2-4.3-82.5-6.3-123.7
	c-2.3-48-8.5-95.5-14.9-143c-2.1-15.8-3.6-31.8-4.9-47.7c-1.9-23.2-3.4-46.5-5-69.8c-2.9-44.5,25.2-65.3,58.4-69.7
	c25.8-3.4,50.6,1.4,74.8,8.8c26.1,7.9,51,19.3,75.2,32.1c20.7,11,36.3,27,46.7,47.8c21.3,42.8,26.6,87.3,13.6,133.8
	c-7.4,26.5-16.3,52.1-33.4,74.2c-0.7,0.9-0.6,2.4-1,4.2c8.6,9.1,19.6,15.5,29.7,22.9c18.3,13.3,36.7,26.6,54.7,40.2
	c6.9,5.2,13.5,10.9,19.3,17.3c17.4,19.3,17.8,46.6,1.4,65.6c-16.1,18.8-43.6,22.3-65.3,8.4c-0.6-0.4-1.1-0.7-1.6-1.1
	c-28.8-24.9-60.9-45.3-91.5-67.8c-13.5-9.9-25.5-21.3-36.4-34.1C3592.1,3667.8,3586.9,3661,3579.9,3656.4z M3557.5,3426.3
	c-3,7.2-1.8,12.5-1.6,17.8c2.2,41.2,9.3,81.9,14.3,122.8c0.1,1.1,1.4,2.1,3.2,4.6c9.6-7.9,21.7-11.3,32.9-16.8
	c4.9-2.4,9.3-5.5,11-10.9c3.7-12,8.4-23.9,10.6-36.3c2.7-15.2,0.9-30.5-5.3-45c-2.4-5.6-5.3-10.8-11-13.7
	C3594.6,3440,3577.2,3432.2,3557.5,3426.3z"/>
<path class="st0" d="M2246.8,2481.3c-3.9-1.4-6.8,0.2-9.9,1.4c-26,10.3-51.9,20.7-78,30.7c-9.9,3.8-20.1,7.1-30.3,9.8
	c-11.5,3.1-11.7,2.7-13.1,15.1c-2.2,19.2-4.4,38.4-6.4,57.6c-0.8,7.4-2.3,14.5-5.5,21.1c-9.7,19.7-31.3,30.5-53.3,26.6
	c-20.7-3.6-37.4-20.8-39-42.4c-0.9-12.5,0.2-25.3,1.4-37.9c3.3-32.5,6.5-65,10.9-97.3c3.3-23.7,8.6-47.1,12.8-70.7
	c5.7-31.5,11.5-62.9,19.3-93.9c4.9-19.6,12.7-37.8,23.5-54.8c12.6-19.8,27.8-37.4,44.2-54.1c13.8-14,30.5-23.7,48.6-30.8
	c24.1-9.5,45.6-4.8,64.7,12.6c17.2,15.8,26.8,36.2,35.4,57.3c1.5,3.7,2.7,7.5,3.9,11.3c11,37.1,24,73.4,38.9,109
	c13.9,33.4,22.9,68.2,28.7,103.7c5.3,32.3,12.7,64,24.7,94.5c2.7,6.9,4.5,13.9,4.7,21.3c0.7,23.1-12.3,42-33.6,48.9
	c-22,7.1-45-1.1-57.1-21.3c-4.4-7.3-7.3-15.6-10.4-23.7c-10.8-28.1-17.8-57.2-23.3-86.7C2248,2486.2,2247.3,2483.6,2246.8,2481.3z
	 M2182.6,2277.6c-16.7,15-26.1,29-30.4,46.2c-6.7,27.1-13,54.2-16.8,81.9c-0.4,3-2.4,6.4,2.2,9.3c26.6-11.3,55-19.9,81.9-33.6
	C2205.6,2347.1,2193.5,2313.4,2182.6,2277.6z"/>
<path class="st1" d="M2579.3,3571.8c-0.7,18.7-2.2,44.6-2.7,70.6c-0.7,34-0.8,68-1.1,101.9c-0.1,7.3-0.3,14.6-2.4,21.8
	c-6.2,21.8-24.6,36.6-46.6,37.2c-21.7,0.6-41.3-13.5-48.3-35c-1-3.1-1.8-6.4-2.2-9.7c-1.3-10.1-5.3-19.4-10.8-27.7
	c-17.7-26.7-35.7-53-53.7-79.4c-1.1-1.6-2.7-3.3-4.9-1.6c-0.8,0.6-1.4,2.1-1.4,3.2c0,8.7,0.2,17.3,0.4,26
	c0.6,26.6,1.2,53.3,1.8,79.9c0.2,8.1-0.7,16-3.5,23.6c-7.1,19.3-25.7,32.5-46.1,32.5c-19.6,0-38-12.2-45.4-30.5
	c-3.3-8.1-4.5-16.6-4.5-25.4c0-15.3-0.1-30.7-0.4-46c-1.1-54-3.3-107.9-6.7-161.7c-2.3-35.2-3.1-70.5-4.5-105.8
	c-0.4-8.7,0.1-17.2,3.1-25.6c12.7-35.4,57.5-44.6,82.8-16.8c4,4.4,7.1,9.6,9.9,14.9c5.7,10.5,11.1,21.2,16.4,32
	c9.7,19.7,20.2,39,32.6,57.2c8.6,12.6,15.6,26.4,23.5,39.5c3.1,5.1,6.7,9.9,10.1,14.8c1,1.4,2.2,1.6,3.4,0.4
	c0.4-0.4,1.1-0.8,1.1-1.3c0.2-3.3,0.4-6.7,0.3-10c-2.1-54.6-2-109.3-6-163.8c-0.6-8-0.4-15.9,1.4-23.8c5.5-24.4,26.2-40.3,50.9-39
	c23.3,1.3,42.9,19,45.7,42.8c1.9,15.9,2.8,31.9,3.3,47.8C2576.5,3464.6,2577.7,3514.5,2579.3,3571.8z"/>
<path class="st0" d="M2288.5,3160.8c0,4.7,0.4,9.4-0.1,14c-2.2,23.4-20.7,41.5-44.6,43.9c-22.7,2.3-45.3-13.5-51.3-36
	c-1.2-4.5-1.6-9.2-2.3-13.8c-3.9-28.4-8-56.7-11.7-85.1c-1.5-11.9-2-23.9-3-35.8c-0.5-5.2-2.5-6.7-8-5.5
	c-26.7,5.8-53.6,10.6-80.8,13.1c-5.5,0.5-8.4,3.1-9.9,8.1c-6.4,20.5-15.7,39.6-28.3,57c-4.2,5.9-8.9,11.8-14.4,16.5
	c-17.3,15.1-42.9,15.9-61,2.6c-19.1-14-25.6-39-15.5-60.6c1.7-3.6,3.8-7,6.2-10.2c12.2-16.3,18.8-34.8,23.2-54.6
	c7.5-34.5,15.3-68.9,24.3-103c13.7-51.8,37.1-99.7,62-146.8c6.9-13,15.9-24.6,26.7-34.7c27.5-25.6,66.4-28.5,97.3-7
	c11.4,8,22.4,16.8,33,25.9c14.7,12.7,22.7,29.2,25.9,48.3c9.6,58.6,16,117.5,16.1,176.9c0,16,0.9,32,1.1,48
	c0.6,36.8,6.3,73,12,109.2c1.6,9.9,2.4,19.8,3.6,29.7C2288.9,3160.7,2288.7,3160.8,2288.5,3160.8z M2158.4,2819.2
	c-7.3,7-9.4,14.8-12.9,21.6c-3.6,7.1-6.7,14.5-9.9,21.7c-3.2,7.3-6.4,14.6-9.6,21.9c-3.2,7.3-6.6,14.5-9.5,21.9
	c-2.9,7.4-5.6,15-7.5,22.7c-1.8,7.3-5.8,14.5-4.5,23.6c4.5-0.4,7.7-0.5,10.8-1.1c16.9-3.2,33.9-6.5,50.8-9.7c3.9-0.7,5.8-3,5.6-6.8
	c-1-16.6-1.7-33.2-3.5-49.7C2166.1,2864,2163.4,2842.5,2158.4,2819.2z"/>
<path class="st0" d="M1891.9,2465.4c-25.6,0-48.9,0-72.2,0.1c-1.9,0-3.9,0.7-5.6,1.1c-2.8,3.8-1.9,7.9-1.9,11.8
	c0.5,36,1.1,72,1.4,108c0.1,9.3,0.3,18.7-1,27.9c-3.5,23.5-23.6,40.6-47.1,41.1c-24,0.5-45.4-17.2-49.4-41.1
	c-0.9-5.2-0.9-10.6-1-15.9c-1.1-52-2.1-103.9-3.1-155.9c-0.6-29.3-3.4-58.5-6.7-87.6c-3.1-27.8-4.9-55.7-6.6-83.7
	c-0.6-10.6-0.1-21.4,1.3-31.9c3.3-25.4,24.7-43.5,49.6-43c25.1,0.5,45.1,19.3,47.7,45c0.3,3.3,0.5,6.7,0.3,10
	c-1.3,34.8,4.4,69.1,7.4,103.6c0.2,2,0.5,4,1.1,5.9c1.1,3.3,2.7,6,6.8,6.1c22,0.4,44-0.3,65.9-2c4-0.3,5.6-2.8,5.6-6.7
	c-0.1-25.4-1.8-50.6-6.3-75.6c-2.6-14.4-6-28.7-8.5-43.1c-1.2-7.2-1.9-14.6-1.3-21.8c1.8-23.8,20.4-42.8,43.3-45.3
	c24.6-2.6,46.6,11.7,52.8,36.2c4.9,19.3,8,39.1,11.5,58.8c5.1,28.3,8,56.8,7.7,85.5c-0.4,41.5,5.1,82.3,10.1,123.4
	c5.1,41.7,6.6,83.7,6.2,125.7c-0.3,23.6-17.5,42.7-39.4,46.4c-23.4,3.9-45-7.2-54.3-28.1c-3.6-8-4.9-16.6-5.2-25.3
	c-0.6-13.3-1.2-26.6-1.2-40c0.1-24.1-3.1-47.9-4.8-71.8C1894.7,2477.1,1893,2471.3,1891.9,2465.4z"/>
<path class="st0" d="M2825.7,2796.1c-0.5,3.8-1.2,6.4-1.1,8.9c1.3,30.7-0.3,61.2-3.4,91.8c-0.7,6.6,1.1,8.4,7.5,8.3
	c16.7-0.3,32.8-5.2,49.3-7.3c7.3-0.9,14.6-2,21.8-1.9c24.9,0.5,45.2,18.6,48,42.3c3.1,25.5-11.6,48.5-36.9,54
	c-25.3,5.4-50.8,11-76.8,12.1c-5.3,0.2-10.6,0.4-16,0.7c-4,0.2-5.9,2.6-6.1,6.4c-1.5,31.3-3.2,62.5-4.4,93.8
	c-0.5,13.7,0.3,14.1,14.6,14.7c6,0.2,12,0.4,18,0.1c26.1-1.1,51.8,2.9,77.8,4.4c8.6,0.5,17,2.9,24.9,6.7
	c21,10.3,32.5,32.8,27.5,54.5c-6.5,28.1-30.5,40.1-49,38.9c-0.7,0-1.3,0-2-0.1c-35.1-4.6-70.4-4.6-105.7-5.7
	c-17.9-0.6-35.6-4.3-52.8-10c-35.2-11.5-51.3-31.8-52.7-68.9c-1-26.6-0.2-53.3,1.8-79.9c1.7-21.9,2.7-43.9,2.4-65.9
	c-0.4-31.4,5-62.3,8.5-93.4c3.3-29.1,5.7-58.2,4.5-87.6c-0.9-20.6-0.3-41.3,6-61.3c3.8-12.2,9.3-23.6,16.4-34
	c11.3-16.4,26.9-25.4,47-25.9c6.6-0.2,13.4-0.2,19.9,0.9c23.6,4.1,47.2,8.2,70.6,13.3c13.1,2.8,26,5.3,39.4,6.1
	c12.6,0.8,25.3,1.9,37.7,4.2c22.6,4.2,38.9,21.8,41.2,43.1c3.3,30.6-20.8,57.1-51.8,54.5c-31.7-2.6-63.8-3.3-94.8-12.8
	C2847.4,2798.3,2836.9,2795.7,2825.7,2796.1z"/>
<path class="st1" d="M2872.6,3568.9c-0.9-40.5-0.4-82.5-3.3-124.4c-0.6-8.6-0.5-17.3-0.1-26c0.3-6.6,1.1-13.3,2.7-19.7
	c6.4-25.4,30.9-41.6,56.3-35.6c14.5,3.4,28.8,4.1,43.4,4.3c26.1,0.3,51.5,4.8,76.7,11.6c43.8,11.9,88.4,61.7,99.7,101.8
	c5.3,18.7,9,37.6,11,56.8c3,28.5,4.5,57.1,1.1,85.7c-4.1,34.7-15.9,65.7-43,89.6c-15,13.3-30.7,25.5-47.9,35.7
	c-14.6,8.7-30.4,13.4-47.1,15c-13.3,1.3-26.5,2.5-39.8,3.3c-16,1-31.7,2.7-47.3,6.8c-22.9,6-45.1-4.7-55.5-24.9
	c-4.7-9.1-6.9-18.9-5.9-29c3-30.6,1.4-61.2,1.3-91.8C2874.6,3608.9,2873.4,3589.6,2872.6,3568.9z M2975.8,3666.7
	c13.6,2.1,26.7-0.8,39.7-2.8c1.9-0.3,3.8-1.3,5.5-2.3c25.3-14.1,43.2-32.4,42.2-64.4c-0.8-26.1-2-52-7.7-77.4
	c-6.1-27.1-22.8-44.6-51-49.4c-8.5-1.4-17.2-2.4-25.8-3.1c-7.4-0.6-9.1,1.5-8.9,9.3c1.2,53.3,2.3,106.6,3.6,159.9
	C2973.7,3646.5,2972.9,3656.5,2975.8,3666.7z"/>
<path class="st1" d="M2587.5,3528.7c0.4-33.3-0.6-66.7,4.4-99.8c1.6-10.5,2.6-21.2,4.5-31.7c4.1-22.6,15.4-41,34.4-54.3
	c9.3-6.5,18.9-12.5,28.8-17.9c26.2-14.3,54.5-16.4,83.5-12.6c5.2,0.7,10.4,2.5,15.2,4.8c28.3,13.6,51.8,32.4,65.4,61.8
	c21.8,47,30.5,96.1,26.7,147.7c-2.9,39.9-9.3,79.4-14.4,119c-2.8,21.4-9.6,41.5-21.1,59.8c-10.9,17.3-25.6,30.8-43.4,40.6
	c-22.6,12.4-46.7,15.1-71.6,7.8c-10.2-3-20.2-6.8-30.2-10.5c-7.7-2.8-13.7-8.1-19.3-13.9c-16.6-17.5-31.6-36.6-41.7-58.3
	c-12.1-25.9-21-53.3-21.3-82.5C2587.4,3568.7,2587.5,3548.7,2587.5,3528.7z M2688,3520.4c-0.5,0-0.9,0-1.4,0c0,12.6,0,25.3,0,37.9
	c0,9.3-0.3,18.6,0.2,27.9c0.7,12,2.2,25.3,10.4,33.6c10,10.1,19,20.1,24.5,33.3c1.7,4,6.7,3.3,9.4-0.9c5.9-9.3,6.8-20.1,8.4-30.5
	c2.8-17.7,5.1-35.5,7.2-53.3c3.1-27.1,6.2-54.1,4.9-81.5c-1.1-22.4-8.1-43-16.9-63.1c-6-13.7-16-16.5-29.5-10.3
	c-2.4,1.1-4.6,2.6-6.9,4c-3.6,2.2-5.8,5.2-6.2,9.6c-1.3,12.6-3.4,25.1-3.9,37.6C2687.5,3483.1,2688,3501.8,2688,3520.4z"/>
<path class="st1" d="M1177.9,3554.5c26.1,19.9,52.3,40.3,79,60.1c19.9,14.8,38.1,31.4,54.9,49.5c5.4,5.8,10.6,12.2,14.3,19.1
	c11,20.5,6.1,44.9-11.2,59.9c-17.5,15.1-41.9,16.3-61,2.5c-4.8-3.5-9.1-7.9-13.1-12.2c-15-16.2-31.5-30.6-49.3-43.7
	c-17.2-12.5-34.9-24.5-50.5-39.1c-3.8-3.6-8.6-6.3-13-9.3c-2.2-1.5-4.8-3.1-7.1-1c-1.2,1.1-1.6,3.5-1.6,5.3c0.2,16.7,0.8,33.3,1,50
	c0.1,12.7,0.7,25.4-0.4,38c-1.9,21.1-13,36-33.3,43.1c-26.7,9.4-55.5-6-62.9-33.3c-1.9-7.1-2.5-14.4-2.4-21.8
	c0.3-46.7-2.1-93.3-5.8-139.8c-2.4-29.9-6.2-59.6-8.7-89.5c-2.1-24.6-3.4-49.2-4.7-73.8c-0.3-5.9,0.2-12,1.3-17.9
	c4.4-24.3,25.4-41.2,49.7-40.4c24.2,0.8,44.4,19,47,43.6c1.9,17.9,2.5,35.9,3.7,53.8c0.3,5.3,0.5,10.6,1,15.9c0.2,2.6,3.6,4.1,6,2.7
	c0.6-0.3,1.2-0.6,1.7-1c19.5-15,39.3-29.7,58.4-45.3c10.8-8.8,20.5-19,28.4-30.8c8.5-12.8,20.4-21.2,35.9-22.9
	c18.6-2.1,34.3,4.2,45.6,19.3c11.7,15.8,13.3,33.2,4.8,50.9c-5.7,12.1-13.5,23-22.9,32.6c-16.3,16.8-33,32.9-52.6,45.9
	c-9.9,6.6-18.9,14.7-28.3,22.1C1179.7,3548.9,1178.2,3551,1177.9,3554.5z"/>
<path class="st1" d="M2145.3,3795.4c-58.4,1.3-101.1-25.3-134.3-68.9c-20.8-27.2-9.9-64.4,21.3-75.9c18.3-6.7,35.5-3.8,50.3,9.3
	c6.5,5.7,12.2,12.2,18.2,18.5c19,19.8,41.6,21.3,66.2,13.6c6.9-2.1,9.5-6.4,9.7-13.1c0.4-14.6,2-29.3-8.4-42
	c-4.3-5.3-9.2-9.4-14.6-13.4c-22.1-16.1-45.6-29.9-69.5-43.2c-20.7-11.5-38.2-26.8-53.7-44.3c-30-34-38.3-74.4-28.4-117.6
	c10.4-45,48.4-74.5,94.9-78.6c13.3-1.2,26.6-0.3,39.8,1.7c23.2,3.6,45.3,10.7,67,19.4c8.6,3.5,16.9,8.1,24.4,13.4
	c14.2,10.1,22.6,24.1,25,41.5c2.9,21.1-6.3,40.7-24.2,50.8c-17.6,9.9-40.6,8.6-55.9-5.6c-18.5-17.3-41.1-20.2-64.4-22.2
	c-1.3-0.1-2.6,0.2-3.9,0.5c-4.5,0.9-7.2,3.8-7.1,8.3c0.2,9.5,2.5,18.1,9.5,25.4c12.2,12.7,26.4,22.5,41.9,30.2
	c25.3,12.5,48.3,28.5,70.3,45.5c34.1,26.3,54.6,61.5,56.4,105.6c0.8,18.6,0.5,37.2-3.8,55.6c-8.2,35.1-28.1,59.6-62.4,72
	C2188.4,3789.8,2166.9,3796.8,2145.3,3795.4z"/>
<path class="st0" d="M2104.9,644.7c-0.8,41-8.8,72-29.8,98.9c-15.4,19.7-21.9,42.2-20.8,67.2c1.3,28.3-3.1,55.7-14,82
	c-8.5,20.4-14.4,41.4-17.8,63.3c-1.8,11.3-1.8,22.5-1.9,33.9c-0.1,43-16.4,80.4-41.4,114.4c-4.3,5.8-10.1,10.7-16,14.9
	c-14.6,10.3-29.7,10.3-44.9,0.9c-7.4-4.6-13.8-10.5-19.2-17.3c-21.3-26.7-34-57.2-38.2-90.9c-3-24,2.5-47.3,15.4-67
	c13.9-21.3,17.2-44.2,19.1-68.2c0.9-12,2.3-23.9,3.2-35.8c0.7-9.5,3.9-18.1,8-26.6c17.9-36.8,29.2-75.5,33.7-116.4
	c4.3-39.1,13.1-77.5,27.4-114.3c2.7-6.8,5.3-13.7,8.7-20.1c7.8-14.6,20.3-22.5,36.8-24.2c32.4-3.3,60.9,12.1,75.4,41.5
	C2097.8,599,2105.6,625.5,2104.9,644.7z"/>
<path class="st1" d="M1703.9,3721.7c4.3-26.2,4.4-55,10.3-83.1c5.9-28,9.7-56.4,14-84.7c6.2-40.8,15-81.1,27.6-120.5
	c4.7-14.9,12.4-27.9,23.7-38.8c15.8-15.2,35.1-21.5,56.4-21.4c19.1,0.1,34.2,9.2,46.8,23.3c25,28,41,60.4,48.6,97
	c6.3,30.6,13.1,61.2,18.8,91.9c3.8,20.3,6.1,40.8,9,61.2c3.6,25,7.4,50,13.5,74.6c2.3,9.2,3.1,18.2,0.6,27.6
	c-5.5,21.1-22.3,35.7-44,37.7c-19.7,1.8-39.8-10-48.4-28.8c-2.2-4.8-3.5-10-4.9-15.2c-5.4-19.9-8.6-40.3-11.8-60.7
	c-1.6-10.3-2.9-11.8-12.3-11.7c-12,0-24,0.6-35.9,1.1c-4.5,0.2-7.2,2.8-7.7,7.5c-1.3,13.9-2.8,27.8-3.9,41.8
	c-0.7,8.8-2.5,17.1-6.1,25.1c-9.9,22.1-33,34.1-55.5,29.2C1718.9,3769.6,1703.1,3748.9,1703.9,3721.7z M1833.1,3530.9
	c-2,11-4.2,22-6,33.1c-0.8,5.2,1,6.9,6.7,7.1c2,0.1,4,0.1,5.9-0.1c2.8-0.3,5.4-1.5,5-4.7C1843.2,3554,1840.7,3542,1833.1,3530.9z"/>
<path class="st1" d="M3440,3761.7c0.3,25.8-15.9,46.3-38.7,50.7c-24.5,4.8-47.7-7.3-56.3-30.6c-3.9-10.5-5.7-21.9-7.7-33
	c-1.1-6.3-4-8.7-10.2-9.9c-17-3-33.9-7-50.9-10.4c-11.5-2.3-12.9-1.2-15.1,9.4c-0.5,2.6-0.7,5.3-1.2,7.9
	c-6.1,29.5-30.2,46.8-58.1,41.8c-26.4-4.7-43.1-29.1-39.3-58.2c3.1-23.8,8.6-47.1,15.4-70.2c6.8-23,16.2-45.1,24.8-67.5
	c5.5-14.3,10.2-28.8,14.4-43.6c8.8-30.7,18.4-61.2,27.7-91.8c7-23,21.1-41.6,38.3-57.6c18.9-17.5,42.9-18.6,64.4-4.2
	c15,10.1,24.3,24.2,29.3,41.5c3.6,12.3,3.9,25,5,37.6c3.4,37.3,12.2,73.5,20.6,109.9c6.8,29.8,14.1,59.6,21.8,89.2
	c7.1,27.1,9.9,55,15.5,82.4C3439.9,3757.9,3439.9,3760.6,3440,3761.7z M3305.4,3606.6c-6.1,6.7-7.2,13.3-9.3,19.2
	c-1.3,3.8,1.1,6.1,5,6.6c3.2,0.4,6.5,1.7,9.8-1.8C3309.3,3623.7,3307.6,3616.2,3305.4,3606.6z"/>
<path class="st0" d="M2772.4,873.4c-0.2,8.9-0.7,15.4-2.7,21.9c-1.6,5.1-2.8,10.3-3.4,15.6c-1.3,10.3,2.3,16.3,11.7,20.7
	c0.6,0.3,1.3,0.3,1.9,0.5c14.6,4.5,23.3,14.9,28.5,28.6c6.5,17.4,13.7,34.7,19.2,52.5c6.4,20.6,15.7,39.4,27.8,57.1
	c10.9,15.9,20.3,32.8,30.1,49.5c10.6,18,17.1,37.5,21.4,57.8c2.1,9.8,3.2,19.7,1.5,29.8c-1,5.4-5.9,7.4-10.5,4.2
	c-2.7-1.9-5.1-4.2-7.7-6.3c-4.2-3.3-8.3-6.7-12.6-9.8c-11.2-7.8-23.3-12.9-37.3-12.1c-16.6,0.9-29.5-6.5-40.9-17.6
	c-7.2-7-12.9-15.3-17.6-24.1c-8.8-16.5-16.4-33.5-20.2-51.9c-3.6-17.2-9.9-33.2-18.1-48.4c-7.6-14.2-14.2-28.7-18.3-44.2
	c-7-26.8-22.3-48.4-42.7-66.1c-14.8-12.9-24.1-28.1-27.2-47.3c-2.5-15.1-5.6-30.1-7-45.3c-1.2-13-5.2-24.6-12.3-35.4
	c-7.3-11.1-14.6-22.3-21.7-33.6c-3.5-5.6-6.5-11.6-9.7-17.5c-7-13-3.7-24.5,5.6-34.8c11-12.2,25.2-17.2,41.3-16.1
	c11.4,0.8,22.2,4.1,31.7,10.9c15.2,11,29.1,23.3,40.3,38.5c8.8,11.9,15.3,24.8,18.3,39.5c4.3,21,11.6,41,23.7,58.9
	C2771,857.1,2772.9,866,2772.4,873.4z"/>
<path class="st0" d="M1656.1,743.5c0-12,1.2-23.9,3-35.8c5-33.2,4.5-66.3-1.3-99.5c-5.8-32.8-9.6-65.9-12.8-99
	c-2.4-25.6,1.1-50.6,8.5-75c8.7-28.5,27.7-42.7,57.5-43.5c11.4-0.3,22.6,0.6,33.3,5c14.8,6,27.1,15.4,32.8,30.4
	c13.8,35.8,22.9,72.6,14.3,111.2c-4.8,21.4-12.3,42.3-22.4,61.8c-9.6,18.5-12.2,37.7-11,58c1.4,23.3,2.1,46.6,3.4,69.9
	c0.9,16.3-2,31.8-9.1,46.5c-9.5,19.5-25.1,28.8-46.6,27.8c-8.6-0.4-17.2-1.5-25.4-4.7c-14.6-5.5-22.9-15.7-24.1-31.2
	C1655.6,758.2,1656.1,750.9,1656.1,743.5z"/>
<path class="st0" d="M3103.8,655c0,10.7-0.1,21.3,0,32c0.1,14.9-2.3,29.3-8.5,42.8c-7.2,15.7-5.7,29.7,5.4,42.6
	c14,16.3,18.1,35,14.3,55.9c-3.9,21.7-3.1,43.8-3.4,65.8c-0.2,19.4-7.4,36.4-18.9,51.6c-11.5,15.1-21,13.8-29.6-3.2
	c-1.5-3-2.8-6-3.9-9.2c-15.2-42-27.6-84.7-30.9-129.6c-0.4-5.2-0.3-10.2-3.7-15.1c-20.6-29.5-31.3-62.9-36.5-98.1
	c-3.7-25-7-50.1-10.8-75.1c-2.3-15.5-1.8-30.5,5.5-44.8c8.2-16,11.7-32.3,5.8-50c-3-9.1,0.9-16.8,7.6-23.3
	c6.5-6.2,14.3-9.7,22.9-11.3c10.7-1.9,19.9,0.8,26.1,10.4c3.2,5,6.2,10.2,9.1,15.5c13.2,23.8,26.1,47.9,39.7,71.5
	c6.8,11.9,11,24,10.3,37.9c-0.6,11.3-0.1,22.6-0.1,34C3104.2,655,3104,655,3103.8,655z"/>
<path class="st0" d="M2324.4,1268.2c9.7,0,21.7,0.2,33.7-0.1c9.9-0.3,18.2,3.5,25.5,9.6c9.5,7.9,16.1,18,19.5,29.6
	c3.7,12.6,3.5,25-4.7,36.3c-2.7,3.8-5.1,7.8-7.9,11.5c-22.9,30.3-47.3,59.4-73.9,86.6c-14.6,14.9-31.4,26.7-49.7,36.6
	c-17.3,9.3-36,13.8-55.3,15.8c-3.3,0.4-6.7,0.3-10,0c-19.8-2-27-9.9-26.5-29.9c0.6-21.5,6.5-42.1,10.4-63
	c4.5-24.7,14.7-46.8,30.2-66.6c11.1-14.2,21.5-28.9,32.4-43.2c4-5.3,8.7-10,13.1-15.1c6.6-7.6,15-10.6,25-10.1
	C2298.1,1267,2310.1,1267.5,2324.4,1268.2z"/>
<path class="st0" d="M2459.5,1475.2c0.3-6.7,0.7-13.2,3.4-19.5c4.5-10.5,11.8-17.7,23.1-20.1c5.8-1.3,11.8-2.3,17.7-2.6
	c15.3-0.7,30.6,0,45.8,2.6c19.6,3.3,37,11.3,51.1,25.3c28.9,28.6,50.9,61.4,61.5,101.2c5.9,22.1,5,43.4-5.6,64.1
	c-14.9,29-41.3,37.9-70.3,22.9c-24.3-12.6-41.1-31.6-45.8-59.4c-5-29.4-21.6-49.7-48.1-61.7c-15.1-6.9-24.5-17.7-29.9-32.9
	C2460,1488.4,2459.7,1481.9,2459.5,1475.2z"/>
<path class="st0" d="M3342.2,784.8c-0.6,8-1.1,15.9-1.7,23.9c-1.1,15.5-9.5,25.8-23,32.4c-22.5,11-58,10.4-76.3-22
	c-11.2-19.9-19-41.1-20.7-64c-2-25.9-6-51.5-10.7-77c-1.2-6.5-1.7-13.2-2.1-19.8c-0.9-16.6,6.8-29.6,18.6-40.3
	c9.8-9,22-9.7,32.8-1.4c15.3,11.9,29.2,25.4,39.1,42.3c8.4,14.4,16.5,28.9,24.7,43.3C3337.3,727.9,3342.8,755.6,3342.2,784.8z"/>
<path class="st0" d="M1282.4,859.1c-0.4,18.4-4.7,38.4-14.7,57c-7.3,13.5-16.2,26-25.7,38c-1.6,2.1-3.5,4-5.4,5.9
	c-13.7,13.1-27.2,12.5-39.3-2.4c-9.2-11.4-16.7-24.1-21.5-38c-10.5-30.2-18.1-61.2-22.1-93c-1.7-13.5,1-26.5,4.8-39.3
	c4-13.8,13.6-22.6,27.1-27.2c23.7-8,44.7-2.8,62.7,14.2C1271.8,796.6,1282.3,824.5,1282.4,859.1z"/>
<path class="st0" d="M1632.1,915.8c1.2-18.6,4.9-46.2,11.6-73.4c3.4-13.8,9.6-18.9,23.8-19.8c28.4-1.8,50.7,9.3,65,34
	c8.3,14.4,14.5,29.9,18.8,46c4.1,15.5,4.9,31.3,1.9,47.4c-3,16.4-8.2,32.2-13.7,47.8c-5.8,16.5-18.4,26.1-40.7,25.3
	c-21.6-0.8-38-10.9-48.9-29.6C1637.8,972.4,1631.3,949.7,1632.1,915.8z"/>
<path class="st0" d="M3660.3,962.5c1.2,29.8-7.9,59.4-22.5,87.6c-3.4,6.5-7.2,12.8-12.8,17.6c-7.3,6.2-14.4,6.3-21.4,0
	c-2-1.8-3.8-3.7-5.5-5.8c-16.8-21.5-33.1-43.3-47-66.9c-7.6-12.9-11.9-26.6-12.4-41.6c-0.6-17.4,0.7-34.5,4.9-51.5
	c4.1-16.6,14.6-28.3,29.2-36.1c16-8.6,32.2-7.6,47.4,2.1c18.1,11.5,30.4,27.7,35.7,48.6C3659.6,930.9,3660.4,945.5,3660.3,962.5z"/>
<path class="st0" d="M3275.9,1108.7c0-7.2,0.1-11.2,0-15.2c-0.5-32.8,28-51.2,54.3-52.1c11.8-0.4,21.9,4.5,28.9,14.7
	c19.3,28.1,31.1,58.7,28.7,93.3c-1.8,26.9-11.9,50.2-35.1,66.1c-2.7,1.9-5.6,3.5-8.6,5c-16.8,8.3-29.6,5.3-38.9-11
	c-11.5-20.2-20.5-41.6-25.4-64.5C3277.1,1132,3275.7,1118.8,3275.9,1108.7z"/>
<path class="st0" d="M3555.7,1206.9c-0.4-8.1,0.6-15.9,4.2-23.3c9-18.5,17.6-37.2,27.3-55.3c8.6-16.2,15.9-19.4,32.1-16.4
	c15.6,2.9,27.2,13.9,29.4,28.6c2.3,15.6-0.7,30.5-7.7,44.5c-7.7,15.5-15,31.2-24,45.9c-9.2,15.2-11.6,30.8-8,47.8
	c3.7,17.7-2.5,32.6-12.8,46.4c-2,2.6-4.5,4.9-7,7c-7.3,5.9-13.7,4.7-18-3.3c-1.6-2.9-2.8-6-3.7-9.2c-3.9-14.1-7.1-28.4-7.3-43.1
	c-0.3-20.6,0-41.2-3.8-61.6C3556,1212.2,3556,1209.5,3555.7,1206.9z"/>
<path class="st0" d="M1241.3,1224.5c4-23.8,7.7-46,11.5-68.2c2.7-15.6-1.2-28.3-13.6-39.2c-12.5-10.9-23.7-23.3-33.6-36.8
	c-13.3-18.1-17.5-38.5-14.3-60.4c0.7-4.5,2.1-9.1,4.2-13.1c4.1-7.9,11.2-10.7,20.1-8.2c4.4,1.3,8.9,2.9,12.8,5.3
	c18.9,12,34.6,27.3,43.6,48c10.8,25,19.9,50.7,25.7,77.4c3.9,18,2.6,35.8-3,53.1c-7.4,22.7-23.4,36.4-46.4,42.3
	C1246.8,1225.3,1244.7,1224.7,1241.3,1224.5z"/>
<path class="st0" d="M3370.8,979.8c-1,10.6-1.5,21.3-3,31.8c-2.2,14.9-9.1,20.4-24.3,21c-18.2,0.8-33.7-6.5-48.3-16.3
	c-3-2-4.3-5-4.7-8.3c-0.5-4-1-7.9-1.3-11.9c-0.5-6.6-0.8-13.3-1.3-19.9c-1.4-20-4.2-39.7-15.3-57.2c-5.9-9.4-4.9-19-0.6-28.6
	c5.5-12.1,14.8-18.6,28.2-18.4c20,0.3,35.8,9.1,47.9,24.8c10.8,14,16.6,30.3,20,47.4C3370.3,955.8,3371.8,967.7,3370.8,979.8z"/>
<path class="st0" d="M3102.9,1050.5c16.2,0.2,27.8,2.4,37.7,10.4c15,12.2,22.3,37.8,16.4,56.4c-2.4,7.5-6.8,12.7-14.1,15.7
	c-13.1,5.3-26.8,7.5-40.9,7.9c-2.9,0.1-5-1-6.7-3.3c-11.8-16.4-21-34-25.1-53.9c-3.8-18.3,4.4-29.8,22.9-32.4
	C3097.5,1050.6,3102.2,1050.5,3102.9,1050.5z"/>
<path class="st0" d="M3094.8,1033.1c-21.2,2.1-29.1-19.7-23.2-33.7c6.9-16.3,23.7-26.6,41.3-24.5c14.1,1.6,24,11.8,25.5,26.1
	c1.3,12.4-5.4,22.4-18.4,27.4C3111.9,1031.5,3103.4,1032.6,3094.8,1033.1z"/>
</svg>
