<?xml version="1.0" encoding="utf-8"?>
<!-- Generator: Adobe Illustrator 23.0.2, SVG Export Plug-In . SVG Version: 6.00 Build 0)  -->
<svg version="1.1" id="Layer_1" xmlns="http://www.w3.org/2000/svg" xmlns:xlink="http://www.w3.org/1999/xlink" x="0px" y="0px"
	 viewBox="0 0 2511 2908" style="enable-background:new 0 0 2511 2908;" xml:space="preserve">
<path d="M687.6,2506.6c-5.8,8.7-10.8,16.5-16.3,24c-6.3,8.6-12.6,17.2-19.5,25.3c-10.3,11.9-23.6,19.6-38.7,23.7
	c-19.6,5.4-37.9,2.2-53.3-11.4c-7.2-6.3-13.8-13.6-19.4-21.4c-12.5-17.2-24.3-35-36.3-52.6c-2-2.9-4-5.9-7.5-8.4
	c0,3.4-0.1,6.9,0,10.3c1.8,39.9,4,79.9,5.3,119.8c1.1,32,1.1,64,1.5,96c0.1,10.1-1.5,19.9-6.6,28.9c-10.1,17.9-29.8,27.4-50.8,24.3
	c-19.3-2.8-35.8-17.9-39.7-37.4c-1.8-8.7-2.1-17.9-2.3-26.8c-0.8-35.6-0.6-71.3-1.9-106.9c-1.7-48.6-4.9-97.2-6.6-145.8
	c-0.8-21.9-0.3-44,0.7-65.9c1-22.1,11.1-40.2,27.9-54.5c20.7-17.6,53.5-18.2,77.2-1.4c18.8,13.3,32.8,31,44.8,50.5
	c8,13.1,16.3,25.9,24.7,38.8c9.3,14.2,18.9,28.2,29,43.3c2.1-3.3,3.9-5.9,5.5-8.7c17.9-30.9,36.2-61.4,57.5-90.1
	c7.5-10.1,15.4-20.3,24.6-28.8c20.6-19,48.6-21.2,71.1-7.1c15.1,9.5,23.5,23.5,25.6,41c1.3,10.9,1,21.9,1.4,32.9
	c4.7,118.9,5,237.9,4.7,356.9c0,6.6-0.3,13.4-1.9,19.8c-5.9,23.6-27.1,38.3-51.7,36.5c-22.8-1.7-41.6-19.8-44.4-43
	c-0.7-5.9-0.7-12-0.8-18c-0.5-72.7-1-145.3-1.6-218C689.7,2524.1,690.4,2515.8,687.6,2506.6z"  fill="#ffffff"/>
<path d="M1296.5,2809.3c-24,0-48,0.1-72-0.1c-6,0-12-0.4-17.8-1.7c-25.6-5.6-41.4-24.4-40.8-50.6c0.9-39,3.2-77.9,4.7-116.9
	c0.8-21.3,1.6-42.6,1.9-63.9c0.6-39.3,0.1-78.7,1.5-118c1.1-32,4.8-63.8,11.8-95.1c6.8-30.2,26.8-44.8,57.9-42.8
	c19.6,1.3,39.3,1.3,58.9,2.4c54,3.1,99.6,24.8,138.1,62.3c5.7,5.5,11,11.7,15.5,18.3c30.6,44.8,55.5,92.5,71.6,144.5
	c7.2,23.1,8.6,47.1,10.8,71c1.9,21.1,0.6,42-4.2,62.6c-1.8,7.7-4.1,15.6-7.6,22.7c-27.5,55.1-69.5,91.8-131.5,103
	c-18.5,3.3-37.1,3.2-55.8,3c-14.3-0.1-28.6,0-43,0C1296.5,2809.7,1296.5,2809.5,1296.5,2809.3z M1265.9,2709.8
	c15.2,0,28.8-0.1,42.4,0c17.3,0.2,34.6,0.7,51.9,1.1c31.1,0.7,54.3-13.1,71.3-38.4c4.4-6.5,7.3-13.5,7.8-21.3
	c1.8-26.4-0.1-52.7-7.8-78.1c-12-39.5-31.8-75.4-54.3-109.7c-2.5-3.8-5.8-7.4-9.1-10.5c-20.7-19.4-45.3-30.1-73.7-31.6
	c-5.8-0.3-11.7,0-18.2,0c-1.4,17.2-3.6,33.8-3.9,50.3c-0.7,35,0,70-0.7,104.9c-0.5,27-2,53.9-3.2,80.8
	C1267.8,2674.5,1266.8,2691.7,1265.9,2709.8z"  fill="#ffffff"/>
<path d="M1027,2650.8c-32.4,5.3-63.6,10.3-96.1,15.6c-0.7,2.1-1.8,5.5-2.9,8.9c-7.8,22.5-18.5,43.5-33.4,62.2
	c-11.1,13.9-25.4,21.6-43.4,20.4c-38-2.4-58.6-43.5-38.3-76c5.3-8.5,11.1-16.7,15.5-25.6c3.6-7.4,6.2-15.4,8.1-23.5
	c8.1-34,15.7-68.1,23.8-102.1c10.4-43.7,29.3-84.2,48.2-124.6c5.3-11.5,10.8-23,17.6-33.6c7.4-11.4,15.5-22.6,24.8-32.4
	c30.1-31.4,76.6-26.6,100.4-7.2c8.3,6.7,16.9,13,25.3,19.6c18.4,14.5,29.1,33.4,32.1,56.7c3.8,29.1,9.1,58,11.3,87.2
	c3,38.5,4.3,77.2,5,115.8c0.7,41.1,4.4,81.8,11.7,122.2c2.4,13.1,3.6,26.4,4.2,39.7c1.9,38.8-35.5,64.9-69.8,49
	c-16.8-7.8-25.9-21.6-28.4-39.6c-4.8-35.3-9.5-70.6-13.9-105.9C1027.7,2668.9,1027.6,2660.3,1027,2650.8z M1023.4,2549.4
	c1.8-23.2-8.4-111.7-14.3-121.9c-1.3,2.2-2.7,4-3.6,6.1c-12.3,27.2-25.1,54.3-36.7,81.9c-5.2,12.2-8.2,25.3-12,38
	c-0.8,2.7-0.8,5.6-1.4,9.4C978.6,2558.3,1000.6,2553.9,1023.4,2549.4z"  fill="#ffffff"/>
<path d="M1678.1,2404.1c-1.5,37.8-3,73.6-4.4,110.1c9.4,1.2,18.8-0.9,28.2-2.4c12.2-1.9,24.2-4.7,36.4-6.2
	c7.5-0.9,15.5-1.1,22.8,0.3c23.9,4.6,39.8,25.3,39.1,49.7c-0.6,23.8-18,43.3-42.5,47.1c-30.2,4.7-60.2,11.9-91,11.5
	c-0.6,0-1.1,0.6-2.2,1.1c-0.8,36.9-5.8,73.9-4.6,112c5.5,0.6,10.4,1.5,15.2,1.5c29.7-0.4,59.3,1.2,88.8,4.2
	c9.2,0.9,18.6,2.5,27.2,5.6c23.9,8.7,36.5,32.5,31.1,56.9c-5.3,23.8-26.4,39.5-51.6,38c-7.6-0.5-15.2-2-22.8-2.4
	c-24.6-1.2-49.2-2.2-73.9-3c-22.1-0.8-43.7-4.4-64.7-11.4c-28.3-9.5-45.5-28.6-47.7-58.9c-1.3-17.9-1.3-35.9-0.8-53.9
	c1.3-42.3,2.9-84.5,5.1-126.8c0.9-17.2,3.6-34.4,5.5-51.6c1.2-10.6,2.8-21.2,3.4-31.8c1.3-23.3,2-46.5,3-69.8
	c0.6-15.3,0.4-30.7,2-45.9c2-19.6,10.3-37.2,21.6-53.1c10.9-15.3,26.2-23.3,45.1-24c18.2-0.7,35.8,3.3,53.4,6.6
	c15.7,3,31.2,7.2,46.9,9.7c16.7,2.7,33.7,3.8,50.5,5.9c7.9,1,16,1.8,23.6,4.1c24.2,7.3,38.7,30.7,34.7,54.9
	c-4.1,24.5-24.9,42.7-50.2,40.9c-30.8-2.3-61.9-2.9-92-11.6C1702,2407.9,1690.1,2406.4,1678.1,2404.1z"  fill="#ffffff"/>
</svg>
