<?xml version="1.0" encoding="utf-8"?>
<!-- Generator: Adobe Illustrator 23.0.2, SVG Export Plug-In . SVG Version: 6.00 Build 0)  -->
<svg version="1.1" id="Layer_1" xmlns="http://www.w3.org/2000/svg" xmlns:xlink="http://www.w3.org/1999/xlink" x="0px" y="0px"
	 viewBox="0 0 2511 2908" style="enable-background:new 0 0 2511 2908;" xml:space="preserve">
<path d="M435.7,197.7c0.3,20.9-4,41-11,60.6c-11.3,31.7-22.2,63.5-29.6,96.4c-10,44.8-14.7,90-11.7,135.9
	c1.1,16.6,2.6,33.2,4.2,49.8c1.3,12.7,5.6,24.7,11.3,36.1c11.4,22.9,12.7,46.7,6.7,71c-1.9,7.6-5.5,15.1-9.8,21.7
	c-12.2,18.8-19.1,39.5-23.1,61.3c-0.6,3.2,0.6,7.1,2.1,10.2c1.5,3.2,4.2,6,6.7,8.6c12.2,12.8,23.5,14,38.2,4.1
	c4.4-3,8.8-6.1,12.9-9.5c13.1-11.1,28.5-15.8,45.3-15.6c27.3,0.4,54.6,1,81.9,2.3c25.6,1.2,51.2,3.9,76.8,5.3
	c29.2,1.5,53.4,13.1,72.9,34.6c18.9,20.9,34.7,43.9,46.4,69.6c13,28.7,15.1,58.4,7.3,88.9c-6.6,25.8-13.5,51.5-23.6,76.3
	c-8.8,21.6-10.7,44.7-8.7,67.8c1.1,12.8,3.8,25.7,7.3,38.1c4.6,16.6,13.6,30.7,25.9,43.2c20.7,21.2,40.6,43.2,60.3,65.4
	c19.3,21.8,34.8,46.3,49.1,71.6c7.6,13.4,13.3,27.5,15.2,43.1c2.2,17.7-0.4,34.6-7.1,50.9c-5.1,12.3-13.5,22-24.3,29.8
	c-25.6,18.3-40.6,43.7-47.7,73.9c-1.8,7.7-1.8,15.8-2.1,23.8c-0.6,18.4-7.3,34.2-21.5,45.6c-41.2,32.7-84.6,61.7-136.7,74.3
	c-6.8,1.6-13.7,2.5-20.7,3.1c-36.8,3.2-73.7,5.7-110.5,9.3c-17.9,1.8-35.2,0.6-52.2-5.3c-4.4-1.5-8.9-2.9-13.2-4.6
	c-16.2-6.4-30-2.9-41.7,9.7c-12.5,13.4-28,19.2-46,16.9c-9.8-1.2-19.8-3.6-29-7c-10.2-3.8-20.2-8.7-29.6-14.4
	c-22.4-13.5-42.3-30.1-59.4-50c-22.5-26.1-46.8-50.1-74.2-71.2c-20.1-15.4-30.2-36.7-32.8-61.8c-2.9-28.5-6.2-57-14-84.7
	c-4.6-16.3-9.1-32.8-15.1-48.6c-12.8-33.7-19.6-68.5-19.7-104.5c-0.2-50.8-3.8-101.2-13.4-151.1c-4.6-24-1.3-47.1,7.4-69.6
	c16.1-41.6,42.9-74.9,79.4-100.3c33.1-23,66.5-45.6,99.6-68.6c10.1-7,19.7-14.8,29.2-22.7c22.9-19.2,30.6-43.5,24.1-72.6
	c-3.3-14.8-8.4-28.7-17.6-41c-11.2-15.2-18.6-32.3-24.2-50.2c-6-19-4.6-37.2,4.9-55.1c14.2-26.7,22.9-55.3,28.1-85
	c3.5-19.8,0.4-39.2-3.4-58.5c-6.9-35.7-10.4-71.8-11-108.2c-0.3-20.6-3.2-41.1-5.4-61.6c-3-27.6-5.2-55.1-1.1-82.7
	c2.4-16.1,9.2-30.6,18.9-43.6c15.7-21.2,37.4-27.8,62.7-24c7.5,1.1,15,3,22.3,5.2c28.7,8.7,41.7,25,43.9,54.9
	C436,189,435.7,193.4,435.7,197.7z"/>
<path d="M2031.6,889.2c19.6,1.7,39.2,3.2,58.7,5.3c15,1.7,28.3-1.8,40.8-10c14.3-9.4,29.9-16,46.9-19.1c12.7-2.3,24.1,0.7,32.6,10.6
	c16.3,18.9,32.8,37.8,48.1,57.4c11.8,15.1,25.7,26.9,43,34.9c28.2,13.1,57.1,24.2,87.8,29.4c25.4,4.3,44.1,17.8,58,38.7
	c10.3,15.4,17.4,32.3,22.3,50c11,39.6,20.1,79.6,17.8,121c-1.3,22.2-4.7,44.4-8.4,66.3c-8.2,47.7-13.8,95.6-15.3,144
	c-1.1,36.3-2,72.6-4,108.9c-2.4,44.7-8.7,88.8-21.8,131.8c-10.8,35.6-30.3,65.8-59.1,89.6c-26.5,21.9-56.7,30.2-90.5,23.9
	c-23.4-4.3-35.1-16.9-38.8-40.6c-0.3-2-0.8-3.9-1.1-5.9c-2.6-18.1-13.4-29.4-30.3-34.9c-21-6.8-42.5-10.8-64.6-12.4
	c-22.2-1.6-44.4-4.1-66.5-7.4c-14-2.1-25,1.7-33.7,12.4c-5.2,6.5-10.3,13.1-14.9,20.1c-10.7,16.5-21.1,33.1-31.3,49.9
	c-13.5,22.4-31.4,30.4-57.2,25.5c-18.7-3.5-36.9-8.6-54.8-14.8c-5.1-1.7-9.4-5.8-14.2-8.7c-14.6-9-27.7-20.1-41.8-29.7
	c-13.4-9.2-22.8-22.2-35.7-31.7c-6-4.4-10.3-11-15.4-16.7c-21.5-24.1-43.7-47.7-64.1-72.6c-18.3-22.4-34.9-46.2-51.8-69.8
	c-6.8-9.5-12.2-19.8-14.7-31.5c-2.6-12.2-0.3-23.3,6.8-33.2c4-5.7,8.8-10.9,13.5-16c49.9-55.1,92.6-115.3,127.8-180.7
	c2.8-5.3,5.6-10.6,8.5-15.9c2.1-3.8,4.3-7.5,6.8-11.1c10-14.3,20.4-17.9,36.1-10.4c15.3,7.3,29.9,16,44.4,24.8
	c16.5,10,32.7,20.6,48.9,31.1c19.8,12.9,39.2,10.6,58.2-1.4c33.5-21.1,40.3-56.6,30.2-89.2c-2.8-9-8.9-15.8-17.2-19.9
	c-6.5-3.2-13.5-5.9-20.6-7.1c-15.2-2.5-30.6-2.5-45.6,1.5c-14.8,3.9-29.9,4.4-44.6,1.3c-63.8-13.2-107.4-49.3-125.4-113.3
	c-4.3-15.4-7.8-31-10.3-46.8c-4.4-27.2,10.2-50.9,35.6-60c15.6-5.6,26.3-2.3,35.3,11.5c7.9,12.1,16.3,23.7,28.2,32.1
	c7.3,5.2,15,9.8,22.9,14.1c4,2.2,8.6,3.7,13.1,4.6c9.4,1.9,12.6-1.7,10-10.7c-0.8-2.9-2-5.7-2.7-8.6c-3.2-12.4,0.4-21.4,11.5-28
	c4-2.4,8.4-4.1,12.6-6.1c4.5-2.2,9.2-4,13.4-6.6c12.8-7.9,19-19.2,17-34.5c-0.2-1.3-0.4-2.6-0.6-4c-1.6-13.3,3.9-22.9,16.9-26.8
	c7.6-2.3,15.6-3.1,23.6-3.9c6.6-0.6,13.3-0.1,20-0.1C2031.5,889.9,2031.6,889.5,2031.6,889.2z"/>
<path d="M1448,1972.6c-2.6-12-5.7-23.9-7.6-36c-3.4-21-5.7-42.3-9.4-63.3c-8.4-47.6-17.6-95-29.5-141.8c-1.8-7.3-2.7-15.2-2-22.7
	c2.2-22,18.9-39.1,40.2-42.6c21.6-3.5,42.7,7,52.3,26.8c2.9,5.9,4.8,12.4,6.5,18.8c13.5,53.3,25.2,107,32.6,161.5
	c4.1,29.8,11,58.9,16,88.4c5.9,34.4,9.5,69.3,12.7,104.1c2.5,27.2,2.9,54.6,3.7,81.9c0.3,10.6,0,21.4-1.4,31.9
	c-2.9,21.1-14.9,35.7-35.5,41.4c-20.5,5.6-38.4-0.4-51.9-16.9c-4.4-5.3-7.7-11.7-10.6-18c-7.8-16.7-16.9-32.4-28.5-46.8
	c-6-7.5-11-15.9-15.6-24.4c-15.9-29.4-35.3-56.4-54.5-83.7c-8.8-12.5-18.2-24.7-27.4-36.9c-3.5-4.6-7.4-9-11-13.6
	c-0.7,0.3-1.3,0.6-2,0.9c1.2,10.7,2.4,21.5,3.5,32.2c2.5,23.5,4.6,47.1,7.6,70.5c4,31.1,8.9,62,13,93c1.2,9.2,2.5,18.7,1.4,27.7
	c-2.9,22.4-21,39-42.7,41.1c-23.4,2.2-44.1-10.4-51.7-32.4c-2.8-8.1-4.4-16.8-5.5-25.3c-5.8-43.9-11.2-87.9-16.7-131.8
	c-4.3-34.1-8.4-68.1-12.6-102.2c-3.6-28.8-7-57.5-11.2-86.2c-2.2-15.1-6.1-30-8.9-45.1c-1.2-6.2-2.2-12.6-2-18.8
	c0.6-19.2,9.6-33.9,26.8-42.6c17.9-9,36.1-8,52.1,3.8c13,9.6,25.4,20.7,36,33c15.7,18.1,30.2,37.3,43.9,57
	c16.3,23.5,32.1,47.4,51.1,69c11.6,13.3,21.3,28.1,32,42.2c1.7,2.3,3.8,4.3,5.8,6.5C1447.1,1973,1447.6,1972.8,1448,1972.6z"/>
<path d="M687.6,2506.6c-5.8,8.7-10.8,16.5-16.3,24c-6.3,8.6-12.6,17.2-19.5,25.3c-10.3,11.9-23.6,19.6-38.7,23.7
	c-19.6,5.4-37.9,2.2-53.3-11.4c-7.2-6.3-13.8-13.6-19.4-21.4c-12.5-17.2-24.3-35-36.3-52.6c-2-2.9-4-5.9-7.5-8.4
	c0,3.4-0.1,6.9,0,10.3c1.8,39.9,4,79.9,5.3,119.8c1.1,32,1.1,64,1.5,96c0.1,10.1-1.5,19.9-6.6,28.9c-10.1,17.9-29.8,27.4-50.8,24.3
	c-19.3-2.8-35.8-17.9-39.7-37.4c-1.8-8.7-2.1-17.9-2.3-26.8c-0.8-35.6-0.6-71.3-1.9-106.9c-1.7-48.6-4.9-97.2-6.6-145.8
	c-0.8-21.9-0.3-44,0.7-65.9c1-22.1,11.1-40.2,27.9-54.5c20.7-17.6,53.5-18.2,77.2-1.4c18.8,13.3,32.8,31,44.8,50.5
	c8,13.1,16.3,25.9,24.7,38.8c9.3,14.2,18.9,28.2,29,43.3c2.1-3.3,3.9-5.9,5.5-8.7c17.9-30.9,36.2-61.4,57.5-90.1
	c7.5-10.1,15.4-20.3,24.6-28.8c20.6-19,48.6-21.2,71.1-7.1c15.1,9.5,23.5,23.5,25.6,41c1.3,10.9,1,21.9,1.4,32.9
	c4.7,118.9,5,237.9,4.7,356.9c0,6.6-0.3,13.4-1.9,19.8c-5.9,23.6-27.1,38.3-51.7,36.5c-22.8-1.7-41.6-19.8-44.4-43
	c-0.7-5.9-0.7-12-0.8-18c-0.5-72.7-1-145.3-1.6-218C689.7,2524.1,690.4,2515.8,687.6,2506.6z"/>
<path d="M1296.5,2809.3c-24,0-48,0.1-72-0.1c-6,0-12-0.4-17.8-1.7c-25.6-5.6-41.4-24.4-40.8-50.6c0.9-39,3.2-77.9,4.7-116.9
	c0.8-21.3,1.6-42.6,1.9-63.9c0.6-39.3,0.1-78.7,1.5-118c1.1-32,4.8-63.8,11.8-95.1c6.8-30.2,26.8-44.8,57.9-42.8
	c19.6,1.3,39.3,1.3,58.9,2.4c54,3.1,99.6,24.8,138.1,62.3c5.7,5.5,11,11.7,15.5,18.3c30.6,44.8,55.5,92.5,71.6,144.5
	c7.2,23.1,8.6,47.1,10.8,71c1.9,21.1,0.6,42-4.2,62.6c-1.8,7.7-4.1,15.6-7.6,22.7c-27.5,55.1-69.5,91.8-131.5,103
	c-18.5,3.3-37.1,3.2-55.8,3c-14.3-0.1-28.6,0-43,0C1296.5,2809.7,1296.5,2809.5,1296.5,2809.3z M1265.9,2709.8
	c15.2,0,28.8-0.1,42.4,0c17.3,0.2,34.6,0.7,51.9,1.1c31.1,0.7,54.3-13.1,71.3-38.4c4.4-6.5,7.3-13.5,7.8-21.3
	c1.8-26.4-0.1-52.7-7.8-78.1c-12-39.5-31.8-75.4-54.3-109.7c-2.5-3.8-5.8-7.4-9.1-10.5c-20.7-19.4-45.3-30.1-73.7-31.6
	c-5.8-0.3-11.7,0-18.2,0c-1.4,17.2-3.6,33.8-3.9,50.3c-0.7,35,0,70-0.7,104.9c-0.5,27-2,53.9-3.2,80.8
	C1267.8,2674.5,1266.8,2691.7,1265.9,2709.8z"/>
<path d="M1636.4,1690.1c39.5-1.7,76.9,6.4,112.2,24c9.5,4.8,19.3,9.1,28.7,14.1c20.9,10.9,39.8,24.4,55.2,42.3
	c15.7,18.1,31.2,36.4,45.6,55.6c48.8,65,51.6,154.8,17.9,218.5c-11.1,21-23.7,40.8-38.5,59.4c-21.9,27.5-50,44.3-84.4,51.3
	c-34.3,7-68.7,13.3-103.5,16.6c-14.2,1.4-28.6,2.1-42.9,2.1c-25.2,0.2-44.8-16.2-49.1-41.1c-2-11.4-2.5-23.2-3.3-34.8
	c-1.3-17.6-1.8-35.3-3.7-52.8c-3.3-30.1-6.6-60.3-11.2-90.2c-6-39.3-8.4-78.8-11.1-118.3c-1.2-17-2.8-33.9-7.9-50.2
	c-6.6-21.3-2.6-41.6,5.1-61.4c7.2-18.3,22.2-28.3,41-31.2C1603,1691.5,1619.8,1691.3,1636.4,1690.1z M1643.6,1790.5
	c1.5,17.4,3.3,33.6,4.2,49.9c2.2,37.3,5.9,74.3,11.1,111.3c4.7,34,7.8,68.1,11.6,102.2c0.6,5.6,1.1,11.1,1.6,16.6
	c1.8,0.3,2.8,0.7,3.7,0.5c26.9-4.5,53.8-8.9,80.7-13.7c9.1-1.6,16.5-6.7,22.5-13.9c10.4-12.6,19.7-26,27-40.7
	c20.9-42.1,17.9-82.5-9.6-120.5c-10.9-15.1-23.5-29-35.4-43.3c-7.8-9.3-17.3-16.7-28.1-22.1c-15.5-7.6-31.3-14.9-47.2-21.6
	C1672.5,1789.8,1658.5,1789.3,1643.6,1790.5z"/>
<path d="M1098.2,2093.3c-3.1,1.1-5.5,1.8-7.9,2.8c-27.9,11.1-55.6,22.5-83.6,33.1c-12,4.6-24.7,7.4-38.2,11.3
	c-1.4,12.6-3,26.1-4.5,39.6c-1.4,12.6-1.9,25.3-4.3,37.7c-3.9,20.4-16.3,34.3-36.7,39.2c-19.9,4.8-37-1.1-50.1-17
	c-9.4-11.5-11.9-25-10.4-39.5c1.2-11.9,2.3-23.9,3.6-35.8c3.3-30.5,5.8-61,10.3-91.4c4-27,9.9-53.7,15.2-80.5
	c5.2-26.1,10.6-52.2,16.3-78.2c4.1-18.7,12-35.9,22.1-52.2c13.2-21,29.1-39.8,46.7-57.2c14.2-14,31.3-23.9,50-30.4
	c21.4-7.5,41.3-3.9,58.9,11c19.2,16.3,29.8,38.1,38.6,60.9c3,7.7,5,15.9,7.8,23.7c12.6,34.7,24.9,69.6,38,104.1
	c12.1,31.9,20.4,64.8,25.8,98.4c5.1,31.7,12.9,62.6,24.6,92.5c4.8,12.1,6.5,24.6,2.3,37.1c-6.4,19-19.6,30.8-39.6,33.6
	c-20.7,2.9-37.7-4.6-48.6-22.5c-5.3-8.7-8.6-18.7-12.2-28.3c-10.5-27.5-16.9-56.1-22.2-84.9
	C1099.8,2098.2,1099,2096.1,1098.2,2093.3z M1071.2,1996.8c-12.8-36-25.3-70.9-38-106.7c-14,15.8-26.1,31.5-30.2,51.9
	c-5.6,27.4-11.2,54.8-16.7,82.2c-0.3,1.7,0.2,3.5,0.4,5.9c15.1-5.9,29.4-11.3,43.6-16.9C1044,2007.8,1057.5,2002.3,1071.2,1996.8z"
	/>
<path d="M1027,2650.8c-32.4,5.3-63.6,10.3-96.1,15.6c-0.7,2.1-1.8,5.5-2.9,8.9c-7.8,22.5-18.5,43.5-33.4,62.2
	c-11.1,13.9-25.4,21.6-43.4,20.4c-38-2.4-58.6-43.5-38.3-76c5.3-8.5,11.1-16.7,15.5-25.6c3.6-7.4,6.2-15.4,8.1-23.5
	c8.1-34,15.7-68.1,23.8-102.1c10.4-43.7,29.3-84.2,48.2-124.6c5.3-11.5,10.8-23,17.6-33.6c7.4-11.4,15.5-22.6,24.8-32.4
	c30.1-31.4,76.6-26.6,100.4-7.2c8.3,6.7,16.9,13,25.3,19.6c18.4,14.5,29.1,33.4,32.1,56.7c3.8,29.1,9.1,58,11.3,87.2
	c3,38.5,4.3,77.2,5,115.8c0.7,41.1,4.4,81.8,11.7,122.2c2.4,13.1,3.6,26.4,4.2,39.7c1.9,38.8-35.5,64.9-69.8,49
	c-16.8-7.8-25.9-21.6-28.4-39.6c-4.8-35.3-9.5-70.6-13.9-105.9C1027.7,2668.9,1027.6,2660.3,1027,2650.8z M1023.4,2549.4
	c1.8-23.2-8.4-111.7-14.3-121.9c-1.3,2.2-2.7,4-3.6,6.1c-12.3,27.2-25.1,54.3-36.7,81.9c-5.2,12.2-8.2,25.3-12,38
	c-0.8,2.7-0.8,5.6-1.4,9.4C978.6,2558.3,1000.6,2553.9,1023.4,2549.4z"/>
<path d="M658.6,1979.3c26.2,0,51.4,0,77.9,0c0-4.7,0-8.2,0-11.7c-0.3-36.5-5.6-72.3-13.6-107.9c-2.5-11.1-4.3-22.3-1.9-33.7
	c4.9-23.4,24-39.6,47.2-40c23.8-0.4,44.2,15.2,49.1,38.8c10.3,49,18.9,98.2,18.4,148.5c-0.3,36.1,3.9,71.8,8.7,107.5
	c2.4,17.8,3.9,35.8,5,53.7c1.4,24,1.9,48,2.6,71.9c0.2,5.6,0.1,11.4-0.9,16.9c-4.7,24.2-26.2,40.9-50.4,39.6
	c-24.6-1.3-44.1-19.4-46.6-44.1c-1.3-12.9-1.4-25.9-2.3-38.9c-2-30.6-4-61.1-6.1-91.7c-0.2-3.3-1.1-6.5-1.7-10
	c-26.8,0.6-52.9,1.3-80.1,1.9c0,3.3,0,5.9,0,8.4c0.6,35.7,1.1,71.3,1.7,107c0.1,8.3,0.4,16.7,0.1,25c-1.2,27.2-21.1,47.5-47.6,48.6
	c-26,1.1-47.7-18-50.7-45.1c-0.9-8.3-0.8-16.6-1-25c-0.9-48.6-1.2-97.3-2.9-145.9c-1.1-29.3-4.4-58.4-6.8-87.6
	c-2.2-27.6-4.8-55.1-6.5-82.7c-0.6-9.6,0.2-19.4,1.4-28.9c3.4-26.4,25.3-44.8,51.1-43.6c26.1,1.3,47.3,22.3,46.7,49.2
	c-0.8,33.5,3.4,66.5,6.4,99.7C656.6,1965.8,657.7,1972.4,658.6,1979.3z"/>
<path d="M1678.1,2404.1c-1.5,37.8-3,73.6-4.4,110.1c9.4,1.2,18.8-0.9,28.2-2.4c12.2-1.9,24.2-4.7,36.4-6.2
	c7.5-0.9,15.5-1.1,22.8,0.3c23.9,4.6,39.8,25.3,39.1,49.7c-0.6,23.8-18,43.3-42.5,47.1c-30.2,4.7-60.2,11.9-91,11.5
	c-0.6,0-1.1,0.6-2.2,1.1c-0.8,36.9-5.8,73.9-4.6,112c5.5,0.6,10.4,1.5,15.2,1.5c29.7-0.4,59.3,1.2,88.8,4.2
	c9.2,0.9,18.6,2.5,27.2,5.6c23.9,8.7,36.5,32.5,31.1,56.9c-5.3,23.8-26.4,39.5-51.6,38c-7.6-0.5-15.2-2-22.8-2.4
	c-24.6-1.2-49.2-2.2-73.9-3c-22.1-0.8-43.7-4.4-64.7-11.4c-28.3-9.5-45.5-28.6-47.7-58.9c-1.3-17.9-1.3-35.9-0.8-53.9
	c1.3-42.3,2.9-84.5,5.1-126.8c0.9-17.2,3.6-34.4,5.5-51.6c1.2-10.6,2.8-21.2,3.4-31.8c1.3-23.3,2-46.5,3-69.8
	c0.6-15.3,0.4-30.7,2-45.9c2-19.6,10.3-37.2,21.6-53.1c10.9-15.3,26.2-23.3,45.1-24c18.2-0.7,35.8,3.3,53.4,6.6
	c15.7,3,31.2,7.2,46.9,9.7c16.7,2.7,33.7,3.8,50.5,5.9c7.9,1,16,1.8,23.6,4.1c24.2,7.3,38.7,30.7,34.7,54.9
	c-4.1,24.5-24.9,42.7-50.2,40.9c-30.8-2.3-61.9-2.9-92-11.6C1702,2407.9,1690.1,2406.4,1678.1,2404.1z"/>
<path d="M956.8,263.4c-0.1,23.2-3.2,43.4-11.4,62.2c-5,11.5-11.7,22.4-19,32.7c-13.9,19.4-21.3,40.6-20.2,64.5
	c1.5,31.1-3.9,60.8-15.9,89.7c-12.5,30.1-19.2,61.5-17.5,94.5c0.4,8.8-0.9,18-2.8,26.7c-5.7,26.3-15.7,50.8-30.3,73.5
	c-6.2,9.6-13.4,18.3-22.7,25.1c-15.3,11.1-31.9,11.8-47.5,1.3c-6-4.1-11.7-9-16.4-14.5c-21-24.7-33.5-53.5-39-85.3
	c-5.1-29.3,2.1-56.5,17.5-81.2c8.9-14.1,13-28.9,14.2-45.1c1.2-16.9,2.3-33.9,4.6-50.7c1.2-9.1,3.7-18.4,7.7-26.6
	c17.4-36.7,29.5-74.7,34-115.3c4.5-40.8,13.6-80.7,28.4-119.2c1.7-4.3,3.5-8.6,5.3-12.9c11.2-26.7,35.5-32.1,54.4-29.8
	c31.2,3.8,52.8,20.4,64.1,49.9C952.3,223.2,957.3,244.1,956.8,263.4z"/>
<path d="M1625.2,489.7c-1.4,7.5-2.8,15-4.2,22.5c-1,4.9-2.6,9.7-3,14.6c-0.8,9.8,3.2,16.1,12.7,18.9c14.3,4.2,23.7,13.5,28.8,26.9
	c8.1,21.1,15.9,42.4,23.1,63.8c4.9,14.7,11.9,28.1,20.2,41.1c11.7,18.2,23.2,36.6,34.1,55.2c13.3,22.7,21.2,47.4,24.1,73.5
	c0.6,5.5,0.2,11.3-1,16.7c-1.1,5.1-4.7,6.2-9.1,3.4c-3.3-2.1-6-5.3-9.3-7.5c-9.1-6.1-17.9-12.8-27.7-17.5c-6.3-3-14.2-4.2-21.3-4
	c-13.5,0.4-25.2-3.5-34.9-12.2c-7.3-6.6-14.2-14.2-19.5-22.5c-11.7-18.3-20.1-38.2-24.7-59.7c-3.5-16.7-9.8-32.5-18-47.5
	c-8-14.7-14.5-30-18.9-46.1c-6.9-25.7-21.5-46.8-41.3-63.6c-16.6-14.1-25.7-31.1-29-51.8c-2.5-15.4-4.6-30.9-6.5-46.4
	c-1.4-11.2-5.5-21.1-11.7-30.4c-8.1-12.2-16-24.5-23.8-37c-3.2-5.1-5.7-10.5-8.4-15.9c-5.2-10.3-3.6-20.1,3-29.1
	c8.3-11.2,19.3-18.1,33.5-19.5c17-1.7,32.5,2.1,46,12.7c13.2,10.3,25.8,21.1,35.8,34.6c9.9,13.2,17,27.6,20.2,44
	c3.9,19.4,11.1,37.6,22,54.3C1623.2,471.8,1624.5,476.7,1625.2,489.7z"/>
<path d="M506.9,359.9c1.7-14.5,3.3-29.1,5.1-43.6c4.1-33,2.3-65.7-2.6-98.5c-5-33.9-9-68-12.5-102.1c-2.5-24.5,2.4-48.5,10.1-71.7
	c10.9-32.9,39.5-41.1,65.5-39.4c5.6,0.4,11.2,1.6,16.7,3c20.4,5.4,35.4,17.7,42.3,37.6c10.2,29.4,17.2,59.6,14.4,91.1
	c-0.7,7.9-2.1,16-4.7,23.4c-7.3,20.4-14.9,40.6-23.4,60.5c-4.8,11.2-8.4,22.4-7.9,34.7c1.1,26,1.8,51.9,3.4,77.8
	c1,16.2,0,31.8-5.6,47.2c-10.9,30.3-35.7,40-59.5,34.5c-5.2-1.2-10.5-1.9-15.5-3.6c-15.1-5.1-23.5-15.8-24.6-31.8
	c-0.5-6.3-0.1-12.6-0.1-19C507.7,360,507.3,360,506.9,359.9z"/>
<path d="M1956.7,266.3c-0.7,16.6-0.6,33.3-2.4,49.8c-1,9.8-3.8,19.7-7.8,28.7c-6.6,14.8-5,27.7,5.1,40c2.7,3.3,5.3,6.9,7.6,10.5
	c7.1,11,10.7,22.8,8.8,36.1c-3.7,26.1-4.1,52.4-4.5,78.7c-0.4,19.7-8.6,36.7-20.7,51.9c-1.6,2-3.7,3.9-5.9,5.3
	c-6.4,4.3-12,3.6-16.6-2.7c-3.1-4.2-5.7-9.1-7.6-14c-16.5-44.8-29.8-90.4-32.5-138.5c-0.2-4-0.7-7.4-4.1-10.6
	c-3.5-3.3-5.8-8-8.1-12.5c-13.8-26.8-23.8-54.9-27.8-85c-3.5-26.4-7-52.8-11-79.1c-2.2-14.7-0.3-28.5,6.2-41.7
	c0.6-1.2,1.1-2.4,1.7-3.6c7.2-14,9-28.5,4.1-43.6c-3.4-10.6-0.1-19.3,8.1-25.8c5.4-4.2,11.8-7.8,18.3-9.7
	c14.9-4.4,24.2-0.3,32.1,12.9c5.4,9.2,10,18.8,15.2,28.1c10.9,19.5,21.7,39,32.8,58.3c5.8,10.1,9.1,20.5,8.7,32.3
	c-0.4,11.3-0.1,22.6-0.1,34C1956.4,266.3,1956.6,266.3,1956.7,266.3z"/>
<path d="M1175.9,882.2c10.2,0,22.5,0.1,34.8,0c8.4-0.1,15.7,2.5,22.2,7.6c14.5,11.2,22.5,26.1,24.6,44.1c0.8,6.9-1.1,13.3-4.6,19.1
	c-4.3,7.1-8.6,14.4-13.9,20.7c-21.8,26.1-43.6,52.1-66.2,77.6c-16.7,18.9-37.2,33.3-60.1,44c-17.7,8.3-36.3,12.9-56,12.9
	c-1.7,0-3.3,0-5-0.2c-17.2-1.5-25.9-11-25.1-28.3c0.4-8.3,1.6-16.6,3.2-24.7c3.6-18.6,7.5-37.2,11.8-55.7c3.2-13.8,9-26.5,17.4-37.9
	c14.7-20.2,29.7-40.2,44.7-60.2c3.4-4.5,7.4-8.5,11.4-12.6c5.9-6,13.1-8.9,21.6-8.4C1149.1,880.9,1161.4,881.4,1175.9,882.2z"/>
<path d="M1370.1,1045.9c14.1,2,28.4,3.2,42.3,6.3c15.2,3.3,28.5,11.1,39.6,22.2c28.4,28.1,50.2,60.2,61.4,99.1
	c6.8,23.6,5.9,46-5.5,67.8c-14.2,27.1-39.9,36.3-67.4,22.9c-26.6-13-43.8-33.4-48.8-63.8c-4.6-27.6-21.5-47.1-46.8-58.2
	c-17.4-7.7-27.4-20.5-32-38.2c-2.4-9.5-2.2-19.2,0.2-28.7c4-15.9,14.6-25.3,30.8-27c8.6-0.9,17.3-1,25.9-1.4
	C1370,1046.4,1370.1,1046.1,1370.1,1045.9z"/>
<path d="M2194.5,397c-0.7,9.3-1.3,18.6-2.2,27.8c-1.2,12.6-8,21.6-18.5,28.1c-27.6,16.9-63.3,8.5-80-19.2
	c-11.8-19.6-18.5-41.1-21.3-63.9c-3.5-28-7.6-56-11.8-83.9c-2.7-18-0.2-34.4,12.1-48.6c13.2-15.3,27.1-16.7,42.4-3.6
	c15.7,13.5,29.9,28.4,39.7,47c5.6,10.6,11.6,21,17.6,31.3C2187.7,338.3,2195.2,366.5,2194.5,397z"/>
<path d="M134.2,469.3c0.2,24.4-5.3,45.5-16.8,64.7c-7,11.7-15.1,22.7-23.2,33.7c-3.1,4.2-7.1,8-11.4,11.1c-9.4,6.9-18.6,6.6-27.3-1
	c-4.2-3.7-7.9-8.2-11-12.8c-8.7-12.7-16.1-26.1-19.9-41.1C18.3,499,12.2,474.1,7,449.1c-3-14.1-1.5-28.5,1.8-42.6
	c7-29.4,31.8-37,53.8-35.7c15.3,0.9,28,7.8,38.8,18.4C123.6,411.1,134.3,437.8,134.2,469.3z"/>
<path d="M484.1,531.1c1.4-19.8,5.1-47.5,11.6-74.7c3.2-13.2,10.4-19.2,23.9-20.1c25.9-1.6,48,7.5,61.8,29.4
	c13.8,22,24.5,46.1,25,72.8c0.2,12.2-1.1,24.6-3.5,36.6c-2.4,12-6.6,23.7-10.8,35.3c-6.8,18.8-18.9,26.8-38.7,26.7
	c-22.1-0.2-39.2-9.4-50.6-28.4C490,587.2,483.4,564.1,484.1,531.1z"/>
<path d="M2512.6,575.3c0.9,31.9-8.4,61.2-22.9,89c-3,5.8-6.9,11.5-11.4,16.2c-8,8.4-16,8.1-24.1-0.1c-1.6-1.7-3.3-3.4-4.6-5.2
	c-14.7-20.6-29.6-41-43.8-61.9c-14.3-21.1-17.9-44.8-14.5-69.7c1.3-9.9,2.4-19.9,5-29.4c4.9-17.9,17.1-29.8,34.1-36.6
	c15.4-6.2,30.3-3.5,43.7,5.6c20.6,14,33,33.5,36,58.4C2511.3,552.7,2511.8,564,2512.6,575.3z"/>
<path d="M2127.9,718.2c0-3.7,0-7.3,0-11c-0.5-37.1,36.4-54.4,59.9-51.3c9,1.2,16.6,5.1,21.9,12.5c20.6,28.8,32.7,60.5,30,96.3
	c-2.1,27.8-13.2,51.5-38,66.8c-2.5,1.6-5.2,3.1-7.9,4.3c-14.9,6.6-27.1,3.6-35.3-10.4c-14-24-24.7-49.5-28.5-77.3
	c-1.3-9.9-1.8-19.9-2.7-29.8C2127.6,718.2,2127.7,718.2,2127.9,718.2z"/>
<path d="M2501.8,764.7c-0.8,10.4-3,22.9-8.8,34.3c-8.6,16.9-17,34-26.4,50.5c-7.3,13-9.1,26.3-5.9,40.5c4.4,19.6-2,36-14.2,51
	c-0.6,0.8-1.3,1.5-2,2.2c-10.6,10.4-18.8,8.8-23.7-5.4c-5.4-15.8-7.8-32.3-8.8-49c-1.2-20.6-2.4-41.2-3.9-61.8
	c-0.8-10.1-0.9-20,3.7-29.3c9.4-19.1,18.8-38.3,28.2-57.4c7.5-15.2,17.8-18.4,35.1-13.5C2492.4,731.7,2501.7,744.7,2501.8,764.7z"/>
<path d="M93.1,839.2c4.2-23.6,8.1-45.8,12.1-68.1c2.8-15.6-0.9-28.2-13.1-39.5c-12.4-11.4-23.8-24.3-34.2-37.6
	c-14.4-18.6-18.6-40.2-13.9-63.3c0.5-2.6,1.3-5.2,2.4-7.6c4.4-9.8,11.6-13.7,21.8-10.6c5.9,1.8,11.8,4.7,16.9,8.3
	c19.7,14,35.1,31.5,43.3,54.7c8.6,24.5,18.7,48.5,22.6,74.3c2.7,17.9,0.6,35.3-6.1,52c-8,20.1-24,31.3-44.1,37.3
	C98.5,839.8,95.8,839.2,93.1,839.2z"/>
<path d="M2222.8,591.1c-1,11.3-1.5,22.6-3,33.8c-2.1,15.3-9.2,21.5-24.6,21.9c-18.9,0.5-35.1-7.1-49.8-18c-2.1-1.6-2.9-5.7-3.2-8.7
	c-1.6-15.9-2.8-31.9-4.3-47.8c-1.3-13.4-5.2-26.2-12.4-37.6c-6.1-9.6-6.2-19.3-1.9-29.5c5.3-12.6,14.9-19.5,28.7-19.3
	c18.7,0.3,34.3,8,46,22.5c15,18.5,21.5,40.4,23.7,63.6c0.6,6.3,0.1,12.7,0.1,19C2222.3,591.1,2222.6,591.1,2222.8,591.1z"/>
<path d="M1950.1,755.7c-11-15-20-30.1-25.1-47.2c-2-6.6-3.1-13.6-3.4-20.5c-0.4-10.1,5-17.5,14.4-20.5c20-6.3,39.9-5.8,56.8,7.9
	c17,13.7,19.7,33.2,16.8,53.6c-1.3,9.2-7.2,15.4-16.1,18.7C1979.6,752.8,1965,754.2,1950.1,755.7z"/>
<path d="M1990.3,617.7c0,11.6-5.4,20.2-16.2,23.7c-9.3,3.1-19.3,5.3-29.1,5.9c-16.2,0.9-27.1-14.6-22.5-30.9
	c4.3-15.1,22.9-32.5,45.1-27.4C1981.7,592.3,1990.4,603.3,1990.3,617.7z"/>
</svg>
