<?xml version="1.0" encoding="utf-8"?>
<!-- Generator: Adobe Illustrator 23.0.2, SVG Export Plug-In . SVG Version: 6.00 Build 0)  -->
<svg version="1.1" id="Layer_1" xmlns="http://www.w3.org/2000/svg" xmlns:xlink="http://www.w3.org/1999/xlink" x="0px" y="0px"
	 viewBox="0 0 900 980" style="enable-background:new 0 0 900 980;" xml:space="preserve">
<path d="M317.2,624.5c5.1-5.9,9.9-11.4,15.7-18c-2.9-17.3-5.3-36.7-9.7-55.6c-3-13-8.3-25.5-13.3-37.9c-8-19.7-16-39.4-25-58.7
	c-11.9-25.5-30.4-46.3-50.2-65.9c-23.2-22.9-47.2-44.9-70.3-67.9c-10.1-10-19.3-21.1-28.4-32c-13-15.6-26-31.2-38.3-47.3
	c-8.2-10.6-14.6-22.4-17.4-35.9c-5-24.1,15.3-45.6,40-40.6c14.3,2.9,25.9,11.5,37,20.3c21.7,17.2,43.5,34.2,67.1,48.9
	c20.4,12.7,39.3,27.8,58.9,41.8c2.9-8.1,5.9-17.9,9.8-27.3c4.9-11.8,10.4-23.3,15.6-35c2.1-4.6,3.5-9.6,5.9-14
	c11.1-20.1,36.7-27,57.2-16.5c18.2,9.3,32.4,23.1,46,37.8c0.9,0.9,1.7,2,2.4,3c5.7,8.8,12.4,11.5,23.1,7.2c12-4.8,24,0.2,33.9,7.1
	c14.2,9.9,27.3,21.4,40.8,32.3c2.2,1.7,4.1,3.7,6.3,5.7c5.7-6.9,12.8-11.4,21.5-12.8c9.7-1.5,18.6,1.5,26.8,6.4
	c22,12.9,38.3,32.4,56.6,49.7c9.1,8.5,19.4,15.7,28.4,24.3c7.2,6.9,14.6,14.3,19.5,22.8c10.5,18.2,19.3,37.4,29.2,56
	c10,18.8,20.9,37.2,30.9,56c12.9,24.4,25.1,49.1,37.9,73.6c11.6,22.1,27.4,40.3,48.6,54.2c10.7,7,22.2,13.7,28.6,25.8
	c7,13.4,8.7,27.1,4.7,42c-6.4,23.8-16.3,46.1-28.8,67.1c-18.7,31.3-40.8,60-68.7,83.7c-14,11.8-29,22.9-44.9,31.9
	c-23.4,13.2-48.7,20.2-76.1,14c-16.6-3.8-30.6-12.4-44.1-22.3c-12.2-8.9-24.2-18.2-37.2-25.7c-10.9-6.3-23.4-8.9-36.2-8.9
	c-16.5,0.1-33,0.8-49.5,0.8c-15.9-0.1-30.7-5.6-45.8-9.7c-26.1-7-52.5-13.2-78.6-20.3c-22.5-6.2-46-10.6-65.5-24.4
	c-8.1-5.7-14.7-14-20.7-22.1c-12.6-17-27.1-32-42.6-46.3c-10.9-10.2-20.1-22.2-30.2-33.3c-5.4-5.9-11.1-11.6-16.9-17.2
	c-10.6-10.1-13.6-23.6-15.8-37c-3.4-20.7-13.5-37.3-27.5-52.5c-8.2-8.9-14.9-19-17.7-31.3c-4.7-20,5.1-29.9,22.1-33.9
	c8-1.9,17.4-1.3,25.5,0.9c29.1,7.7,54.1,23.1,76.2,43.3c8.5,7.7,13.1,17.6,16.2,28.4c0.5,1.6,1,3.8,2.2,4.3
	c10.4,5.1,16.9,14.3,24.4,22.5c8.4,9.2,17.3,18.1,25.9,27.1c1,1.1,2.9,2,3.1,3.2C306.8,623.9,312.7,623.9,317.2,624.5z"/>
</svg>
