<?xml version="1.0" encoding="utf-8"?>
<!-- Generator: Adobe Illustrator 23.0.2, SVG Export Plug-In . SVG Version: 6.00 Build 0)  -->
<svg version="1.1" id="Capa_1" xmlns="http://www.w3.org/2000/svg" xmlns:xlink="http://www.w3.org/1999/xlink" x="0px" y="0px"
	 viewBox="0 0 512 512" style="enable-background:new 0 0 512 512;" xml:space="preserve">
<style type="text/css">
	.st0{fill:#FFFFFF;}
</style>
<g>
	<g>
		<g>
			<g>
				<path class="st0" d="M255.7,73.2c50.5,0,96.3,20.5,129.4,53.6l-92.8,92.8H512V0l-75.1,75.1C390.6,28.7,326.6,0,255.7,0
					C126.6,0,20.1,95.6,2.3,219.7h74C93.3,136.2,167.1,73.2,255.7,73.2z"/>
			</g>
		</g>
	</g>
</g>
<g>
	<g>
		<g>
			<g>
				<path class="st0" d="M257.5,438.8c-50.5,0-96.3-20.5-129.4-53.6l92.8-92.8H1.2V512l75.1-75.1c46.3,46.3,110.4,75.1,181.2,75.1
					c129.1,0,235.6-95.6,253.4-219.7h-74C419.8,375.8,346.1,438.8,257.5,438.8z"/>
			</g>
		</g>
	</g>
</g>
</svg>
