<?xml version="1.0" encoding="UTF-8"?>
<!DOCTYPE svg PUBLIC "-//W3C//DTD SVG 1.1//EN" "http://www.w3.org/Graphics/SVG/1.1/DTD/svg11.dtd">
<!-- Creator: CorelDRAW X7 -->
<svg xmlns="http://www.w3.org/2000/svg" xml:space="preserve" width="100%" height="100%" version="1.1" style="shape-rendering:geometricPrecision; text-rendering:geometricPrecision; image-rendering:optimizeQuality; fill-rule:evenodd; clip-rule:evenodd"
viewBox="0 0 20995 1680"
 xmlns:xlink="http://www.w3.org/1999/xlink">
 <defs>
  <style type="text/css">
   <![CDATA[
    .fil0 {fill:#EBEBEB}
    .fil1 {fill:#FEFEFE}
    .fil2 {fill:#C1C1C1;fill-rule:nonzero}
    .fil3 {fill:#C1C1C1}
   ]]>
  </style>
 </defs>
 <g id="Слой_x0020_1">
  <metadata id="CorelCorpID_0Corel-Layer"/>
  <path class="fil0" d="M20995 1680l-20995 0 0 -1501c0,-99 80,-179 179,-179l20638 0c98,0 178,80 178,179l0 1501 0 0z"/>
  <circle class="fil1" cx="401" cy="406" r="114"/>
  <circle class="fil1" cx="752" cy="406" r="114"/>
  <circle class="fil1" cx="1121" cy="406" r="114"/>
  <path class="fil2" d="M550 1177c17,17 17,45 0,63 -18,17 -46,17 -63,-1l-190 -190c-17,-17 -17,-45 0,-62l190 -190c17,-18 45,-18 63,0 17,17 17,45 0,62l-159 159 159 159z"/>
  <path class="fil2" d="M328 1063c-24,0 -44,-20 -44,-45 0,-25 20,-45 44,-45l427 0c25,0 45,20 45,45 0,25 -20,45 -45,45l-427 0z"/>
  <path class="fil2" d="M1335 1240c-18,17 -46,17 -63,0 -18,-18 -18,-46 0,-63l158 -159 -158 -158c-18,-18 -18,-46 0,-63 17,-18 45,-18 63,0l190 190c17,17 17,45 0,63l-190 190z"/>
  <path class="fil2" d="M1493 973c25,0 45,20 45,45 0,25 -20,45 -45,45l-427 0c-24,0 -44,-20 -44,-45 0,-25 20,-45 44,-45l427 0z"/>
  <path class="fil2" d="M2107 1007l0 -256 128 128 -128 128zm0 -128m64 -64m0 128z"/>
  <path class="fil2" d="M2101 1007l0 -256c0,-3 2,-5 6,-5 1,0 3,0 4,1l0 0 128 128c2,2 2,6 0,8l-128 128c-2,2 -6,2 -8,0 -1,-1 -2,-3 -2,-4zm12 -241l0 227 113 -114 -113 -113z"/>
  <path class="fil2" d="M2320 1046c0,60 -24,114 -63,153 -40,40 -94,64 -154,64 -60,0 -114,-24 -153,-64 -39,-39 -64,-93 -64,-153 0,-60 25,-114 64,-154 39,-39 94,-63 153,-63l0 89c-35,0 -67,15 -90,38 -23,23 -37,54 -37,90 0,35 14,67 37,90 23,23 55,38 90,38 36,0 68,-15 91,-38 23,-23 37,-55 37,-90l89 0z"/>
  <rect class="fil1" x="2738" y="777" width="17786" height="472"/>
  <path class="fil2" d="M3451 867l0 94c16,-19 35,-28 57,-28 12,0 22,2 31,6 9,4 16,10 21,16 4,7 7,14 9,22 2,8 3,20 3,37l0 108 -49 0 0 -98c0,-19 -1,-31 -3,-37 -2,-5 -5,-9 -10,-12 -5,-3 -11,-5 -18,-5 -8,0 -16,2 -22,6 -7,4 -11,10 -14,18 -3,8 -5,20 -5,35l0 93 -48 0 0 -255 48 0z"/>
  <path id="_1" class="fil2" d="M3706 937l0 39 -34 0 0 75c0,15 0,24 1,26 1,3 2,5 4,6 3,2 5,3 9,3 4,0 11,-2 19,-5l4 38c-11,5 -24,8 -38,8 -9,0 -17,-2 -24,-5 -7,-3 -12,-7 -15,-11 -4,-5 -6,-12 -7,-20 -1,-5 -2,-17 -2,-34l0 -81 -22 0 0 -39 22 0 0 -37 49 -29 0 66 34 0 0 0z"/>
  <path id="_2" class="fil2" d="M3824 937l0 39 -33 0 0 75c0,15 0,24 1,26 0,3 2,5 4,6 2,2 5,3 8,3 5,0 11,-2 20,-5l4 38c-11,5 -24,8 -38,8 -9,0 -17,-2 -24,-5 -7,-3 -12,-7 -16,-11 -3,-5 -5,-12 -7,-20 -1,-5 -1,-17 -1,-34l0 -81 -23 0 0 -39 23 0 0 -37 49 -29 0 66 33 0 0 0z"/>
  <path id="_3" class="fil2" d="M3857 937l46 0 0 27c6,-9 14,-17 24,-23 10,-5 21,-8 33,-8 22,0 40,8 55,25 15,17 22,41 22,71 0,31 -7,55 -22,72 -15,17 -34,26 -55,26 -10,0 -20,-3 -28,-7 -8,-4 -17,-11 -26,-21l0 93 -49 0 0 -255 0 0zm48 89c0,21 4,37 12,47 9,10 19,15 31,15 11,0 20,-5 28,-14 7,-9 11,-24 11,-45 0,-19 -4,-34 -11,-44 -8,-9 -18,-14 -29,-14 -12,0 -22,5 -30,14 -8,10 -12,23 -12,41l0 0z"/>
  <path id="_4" class="fil2" d="M4086 986l0 -49 48 0 0 49 -48 0zm0 136l0 -49 48 0 0 49 -48 0z"/>
  <polygon id="_5" class="fil2" points="4169,1126 4232,862 4269,862 4205,1126 "/>
  <polygon id="_6" class="fil2" points="4268,1126 4331,862 4368,862 4304,1126 "/>
  <path id="_7" class="fil2" d="M5472 992l-48 8c-2,-9 -6,-16 -11,-21 -6,-5 -13,-8 -23,-8 -12,0 -21,5 -29,13 -7,9 -11,23 -11,42 0,22 4,38 11,47 8,9 18,14 30,14 9,0 17,-3 23,-8 6,-6 10,-15 12,-28l49 8c-6,23 -15,39 -29,51 -14,11 -33,17 -57,17 -27,0 -49,-9 -65,-26 -16,-17 -24,-41 -24,-71 0,-31 8,-54 24,-72 16,-17 38,-25 66,-25 22,0 40,5 53,15 14,9 23,24 29,44l0 0z"/>
  <path id="_8" class="fil2" d="M5557 867l0 94c16,-19 35,-28 57,-28 11,0 22,2 31,6 9,4 16,10 20,16 5,7 8,14 10,22 2,8 2,20 2,37l0 108 -49 0 0 -98c0,-19 0,-31 -2,-37 -2,-5 -6,-9 -10,-12 -5,-3 -11,-5 -18,-5 -8,0 -16,2 -22,6 -7,4 -11,10 -14,18 -3,8 -5,20 -5,35l0 93 -49 0 0 -255 49 0z"/>
  <path id="_9" class="fil2" d="M5834 1063l49 9c-7,18 -16,31 -30,40 -14,10 -30,15 -51,15 -32,0 -56,-11 -71,-32 -12,-17 -18,-38 -18,-64 0,-31 8,-55 24,-72 16,-17 36,-26 60,-26 28,0 50,9 65,27 16,18 24,46 23,84l-122 0c0,14 4,26 12,34 7,8 17,12 28,12 7,0 14,-2 19,-7 5,-4 9,-10 12,-20l0 0zm3 -49c-1,-14 -4,-25 -11,-33 -7,-7 -16,-11 -26,-11 -10,0 -19,4 -26,12 -7,8 -10,19 -10,32l73 0 0 0z"/>
  <polygon id="_10" class="fil2" points="5925,1122 5925,1073 5974,1073 5974,1122 "/>
  <path id="_11" class="fil2" d="M6109 937l0 39 -34 0 0 75c0,15 0,24 1,26 1,3 2,5 5,6 2,2 5,3 8,3 4,0 11,-2 20,-5l4 38c-12,5 -25,8 -39,8 -9,0 -17,-2 -24,-5 -7,-3 -12,-7 -15,-11 -4,-5 -6,-12 -7,-20 -1,-5 -2,-17 -2,-34l0 -81 -22 0 0 -39 22 0 0 -37 49 -29 0 66 34 0 0 0z"/>
  <path id="_12" class="fil2" d="M6131 1027c0,-16 4,-32 12,-47 8,-15 20,-27 35,-35 14,-8 31,-12 49,-12 28,0 51,9 69,27 17,18 26,41 26,69 0,28 -9,51 -27,70 -18,18 -41,28 -68,28 -17,0 -33,-4 -48,-12 -16,-8 -28,-19 -36,-34 -8,-15 -12,-33 -12,-54l0 0zm51 3c0,18 4,32 13,42 8,10 19,14 32,14 13,0 23,-4 32,-14 9,-10 13,-24 13,-43 0,-18 -4,-32 -13,-41 -9,-10 -19,-15 -32,-15 -13,0 -24,5 -32,15 -9,9 -13,23 -13,42z"/>
  <polygon id="_13" class="fil2" points="6334,1126 6398,862 6434,862 6371,1126 "/>
  <polygon id="_14" class="fil2" points="4427,1122 4369,937 4416,937 4451,1058 4483,937 4530,937 4561,1058 4596,937 4644,937 4585,1122 4538,1122 4506,1003 4475,1122 "/>
  <polygon id="_15" class="fil2" points="4705,1122 4646,937 4694,937 4728,1058 4760,937 4807,937 4838,1058 4873,937 4922,937 4862,1122 4815,1122 4783,1003 4752,1122 "/>
  <polygon id="_16" class="fil2" points="4982,1122 4923,937 4971,937 5006,1058 5038,937 5085,937 5115,1058 5151,937 5199,937 5140,1122 5093,1122 5061,1003 5029,1122 "/>
  <polygon id="_17" class="fil2" points="5211,1122 5211,1073 5260,1073 5260,1122 "/>
  <g id="_275547328">
   <path class="fil3" d="M2983 1015l60 0 0 81 -53 -6 -7 -75zm147 0l-9 90 -60 -7 5 -83 64 0z"/>
   <path class="fil3" d="M3100 990c91,-26 -11,-137 -22,-14l0 0 1 -4c4,-205 184,-27 21,18l0 0zm-61 -6c-93,-38 32,-122 31,-13l0 0c10,-216 -207,-49 -31,13l0 0zm-157 -36c50,34 124,49 179,51 -56,-13 -109,-45 -147,-92l0 32 -32 9zm349 14c-47,-17 -84,19 -146,37 58,-8 105,-29 126,-6l1 -17 19 -14z"/>
   <path class="fil2" d="M3084 1123l36 6c-10,28 -31,41 -60,41 -42,0 -64,-25 -67,-63l38 7c2,16 12,29 29,29 13,0 20,-8 24,-20z"/>
  </g>
 </g>
</svg>
