<?xml version="1.0" encoding="UTF-8"?>
<!DOCTYPE svg PUBLIC "-//W3C//DTD SVG 1.1//EN" "http://www.w3.org/Graphics/SVG/1.1/DTD/svg11.dtd">
<!-- Creator: CorelDRAW X7 -->
<svg xmlns="http://www.w3.org/2000/svg" xml:space="preserve" width="396px" height="396px" version="1.1" style="shape-rendering:geometricPrecision; text-rendering:geometricPrecision; image-rendering:optimizeQuality; fill-rule:evenodd; clip-rule:evenodd"
viewBox="0 0 29744 29744"
 xmlns:xlink="http://www.w3.org/1999/xlink">
 <defs>
  <style type="text/css">
   <![CDATA[
    .fil2 {fill:none}
    .fil1 {fill:#E42A24}
    .fil0 {fill:black}
   ]]>
  </style>
 </defs>
 <g id="Слой_x0020_1">
  <metadata id="CorelCorpID_0Corel-Layer"/>
  <g id="_373429104">
   <path class="fil0" d="M13910 24545c-720,0 -1149,-506 -1149,-1234 0,-896 475,-1234 1149,-1280 345,0 651,69 973,238l353 -613c-353,-253 -866,-383 -1326,-383 -1103,0 -2000,697 -2031,2030 0,1150 652,2016 1962,2016 521,0 1127,-161 1525,-483l-306 -621c-353,200 -751,330 -1150,330z"/>
   <path class="fil0" d="M8960 21242c-1242,0 -2069,835 -2085,2054 16,1218 843,2054 2085,2054 1241,0 2069,-836 2084,-2054 -15,-1219 -843,-2054 -2084,-2054zm0 3334c-690,0 -1204,-491 -1204,-1280 0,-789 514,-1280 1204,-1280 689,0 1203,491 1203,1280 0,789 -514,1280 -1203,1280z"/>
   <path class="fil0" d="M23160 23227c345,-138 536,-521 536,-889 0,-835 -812,-1073 -1755,-1073 -414,0 -919,31 -1195,54l0 3893c391,61 843,84 1264,84 1127,0 1832,-268 1832,-1111 0,-437 -222,-790 -682,-958zm-1594 -1288c176,-23 368,-23 506,-23 552,0 827,161 827,521 0,445 -337,545 -843,545l-490 0 0 -1043zm605 2690c-138,0 -429,0 -605,-23l0 -1042 590 0c506,0 850,100 850,552 0,360 -298,513 -835,513z"/>
   <path class="fil0" d="M26501 21142l-2031 4100 813 0 337 -705 1755 0 344 705 859 0 -2077 -4100zm-567 2752l567 -1181 567 1181 -1134 0z"/>
   <polygon class="fil0" points="3641,23886 1971,21142 1166,25242 1963,25242 2331,23212 3641,25281 4929,23212 5320,25242 6132,25242 5312,21142 "/>
   <polygon class="fil0" points="19711,21311 18738,21311 17175,23158 17175,21311 16347,21311 16347,25242 17175,25242 17175,23372 18822,25242 19911,25242 18087,23204 "/>
   <polygon class="fil1" points="14872,6387 16223,10547 20598,10547 17058,13118 18411,17278 14872,14706 11334,17278 12686,13118 9146,10547 13520,10547 "/>
  </g>
  <rect class="fil2" width="29744" height="29744"/>
 </g>
</svg>
