<?xml version="1.0" encoding="UTF-8"?>
<!DOCTYPE svg PUBLIC "-//W3C//DTD SVG 1.1//EN" "http://www.w3.org/Graphics/SVG/1.1/DTD/svg11.dtd">
<!-- Creator: CorelDRAW X7 -->
<svg xmlns="http://www.w3.org/2000/svg" xml:space="preserve" width="396px" height="396px" version="1.1" style="shape-rendering:geometricPrecision; text-rendering:geometricPrecision; image-rendering:optimizeQuality; fill-rule:evenodd; clip-rule:evenodd"
viewBox="0 0 29744 29744"
 xmlns:xlink="http://www.w3.org/1999/xlink">
 <defs>
  <style type="text/css">
   <![CDATA[
    .str0 {stroke:#FEFEFE;stroke-width:443.757;stroke-linecap:round;stroke-linejoin:round}
    .fil0 {fill:none}
    .fil10 {fill:none;fill-rule:nonzero}
    .fil4 {fill:#FEFEFE}
    .fil2 {fill:#214D68}
    .fil3 {fill:#214D68}
    .fil9 {fill:#3082B4}
    .fil1 {fill:#8B7F71}
    .fil5 {fill:#8B7F71}
    .fil7 {fill:#BAAFA6}
    .fil8 {fill:#BAAFA6}
    .fil6 {fill:#D9C6B7}
   ]]>
  </style>
 </defs>
 <g id="Слой_x0020_1">
  <metadata id="CorelCorpID_0Corel-Layer"/>
  <g id="_372099688">
   <polyline class="fil0 str0" points="998,23135 6735,13950 12288,22849 16744,15720 21187,22839 24519,17500 28776,24250 "/>
   <polygon class="fil1" points="9133,12732 12850,12732 12850,29251 9133,29251 "/>
   <polygon class="fil2" points="15093,10272 6650,10272 8049,12039 13934,12039 "/>
   <path class="fil3" d="M10160 3229c1343,2223 1212,4338 46,6378l4003 0c801,-3879 -872,-5742 -4049,-6378z"/>
   <polygon class="fil3" points="10453,6610 6992,9547 9794,9547 "/>
   <polygon class="fil4" points="18555,18621 16744,15720 14995,18520 15524,19546 16186,19175 17009,20095 17562,19149 18188,19627 "/>
   <polygon class="fil5" points="17715,10096 21432,10096 21432,29251 17715,29251 "/>
   <polygon class="fil3" points="15232,7636 23675,7636 22275,9403 16390,9403 "/>
   <path class="fil3" d="M20164 593c-1342,2223 -1211,4338 -46,6378l-4003 0c-800,-3879 873,-5742 4049,-6378z"/>
   <polygon class="fil3" points="19871,3975 23332,6911 20531,6911 "/>
   <polygon class="fil6" points="12850,12732 10992,12732 10992,26787 12850,24126 "/>
   <polygon class="fil6" points="21432,10096 19574,10096 19574,24151 21432,21490 "/>
   <polygon class="fil7" points="10992,29251 12850,29251 12850,24126 10992,26787 "/>
   <polygon class="fil8" points="19574,29251 21432,29251 21432,21490 19574,24151 "/>
   <polygon class="fil9" points="15232,7636 19574,7636 19574,9403 16390,9403 "/>
   <polygon class="fil9" points="15093,10272 11002,10272 10995,12039 13934,12039 "/>
   <polygon class="fil4" points="26330,20401 24519,17499 22770,20299 23299,21326 23961,20955 24784,21875 25337,20929 25963,21406 "/>
   <path class="fil10" d="M1205 23264c-71,114 -221,149 -335,78 -114,-71 -149,-221 -78,-335l5736 -9185c71,-115 221,-149 335,-78 34,21 61,49 81,81l5344 8564 4249 -6798c71,-114 221,-149 336,-78 34,21 61,49 80,82l4234 6784 3125 -5008c71,-114 221,-149 336,-78 36,22 64,53 84,88l4250 6740c71,113 37,264 -77,335 -113,72 -264,38 -335,-76l-4050 -6422 -3124 5006c-19,32 -46,60 -81,81 -114,71 -264,37 -335,-78l-4236 -6787 -4247 6794 -2 4m-5761 -8568l-5529 8854m10876 -286l-5347 -8568m5683 8646c-114,71 -265,36 -336,-78"/>
   <polygon class="fil1" points="9133,12732 12850,12732 12850,29251 9133,29251 "/>
   <polygon class="fil2" points="15093,10272 6650,10272 8049,12039 13934,12039 "/>
   <path class="fil3" d="M10160 3229c1343,2223 1212,4338 46,6378l4003 0c801,-3879 -872,-5742 -4049,-6378z"/>
   <polygon class="fil3" points="10453,6610 6992,9547 9794,9547 "/>
   <polygon class="fil4" points="18555,18621 16744,15720 14995,18520 15524,19546 16186,19175 17009,20095 17562,19149 18188,19627 "/>
   <polygon class="fil5" points="17715,10096 21432,10096 21432,29251 17715,29251 "/>
   <polygon class="fil3" points="15232,7636 23675,7636 22275,9403 16390,9403 "/>
   <path class="fil3" d="M20164 593c-1342,2223 -1211,4338 -46,6378l-4003 0c-800,-3879 873,-5742 4049,-6378z"/>
   <polygon class="fil3" points="19871,3975 23332,6911 20531,6911 "/>
   <polygon class="fil6" points="12850,12732 10992,12732 10992,26787 12850,24126 "/>
   <polygon class="fil6" points="21432,10096 19574,10096 19574,24151 21432,21490 "/>
   <polygon class="fil7" points="10992,29251 12850,29251 12850,24126 10992,26787 "/>
   <polygon class="fil8" points="19574,29251 21432,29251 21432,21490 19574,24151 "/>
   <polygon class="fil9" points="15232,7636 19574,7636 19574,9403 16390,9403 "/>
   <polygon class="fil9" points="15093,10272 11002,10272 10995,12039 13934,12039 "/>
   <polygon class="fil4" points="26330,20401 24519,17499 22770,20299 23299,21326 23961,20955 24784,21875 25337,20929 25963,21406 "/>
   <polygon class="fil4" points="8545,16852 6735,13950 4986,16750 5515,17777 6177,17405 7000,18326 7553,17379 8179,17857 "/>
  </g>
  <rect class="fil0" width="29744" height="29744"/>
 </g>
</svg>
