<?xml version="1.0" encoding="UTF-8"?>
<!DOCTYPE svg PUBLIC "-//W3C//DTD SVG 1.1//EN" "http://www.w3.org/Graphics/SVG/1.1/DTD/svg11.dtd">
<!-- Creator: CorelDRAW X7 -->
<svg xmlns="http://www.w3.org/2000/svg" xml:space="preserve" width="396px" height="396px" version="1.1" style="shape-rendering:geometricPrecision; text-rendering:geometricPrecision; image-rendering:optimizeQuality; fill-rule:evenodd; clip-rule:evenodd"
viewBox="0 0 29744 29744"
 xmlns:xlink="http://www.w3.org/1999/xlink">
 <defs>
  <style type="text/css">
   <![CDATA[
    .fil3 {fill:none}
    .fil2 {fill:#2B2A29}
    .fil1 {fill:#FBBA00}
    .fil0 {fill:#009EC4}
   ]]>
  </style>
 </defs>
 <g id="Слой_x0020_1">
  <metadata id="CorelCorpID_0Corel-Layer"/>
  <g id="_371893680">
   <path class="fil0" d="M14750 29376c-1259,0 -1504,-670 -2560,-670 -1054,0 -1301,670 -2559,670l0 -813c1014,0 1270,-670 2559,-670 1293,0 1541,670 2560,670 1015,0 1271,-670 2561,-670l0 813c-1056,0 -1301,670 -2561,670z"/>
   <path class="fil1" d="M13470 18254c-1802,0 -3507,-380 -3507,-782 0,-403 1709,-783 3507,-783 1798,0 3508,380 3508,783 0,402 -1705,782 -3508,782zm-799 -11364c23,-135 139,-233 277,-233 155,0 282,126 282,281l0 580c-453,-203 -589,-458 -559,-628zm755 7444c1159,0 2142,797 2417,1880 -866,-189 -1824,-247 -2373,-247 -568,0 -1576,63 -2465,268 270,-1103 1266,-1901 2421,-1901zm-196 -6164l0 5067c-378,-594 -580,-1298 -564,-2041 20,-926 588,-1569 -90,-2655 -1013,-520 -1437,-1559 -901,-2770l-554 -246c-504,1137 -391,2695 1024,3475 386,691 -66,1256 -86,2183 -20,958 271,1861 805,2596 -1311,242 -2335,1310 -2510,2642 -643,230 -1114,566 -1114,1051 0,1234 3054,1504 4230,1504 1177,0 4230,-270 4230,-1504 0,-508 -516,-853 -1206,-1082 -94,-662 -397,-1257 -841,-1715 582,-367 906,-725 1130,-959 -199,-281 -515,-760 -1144,-1250 -81,-291 -345,-1104 -960,-1962l-493 353c404,565 764,1297 914,1963 295,219 577,448 889,837 -252,232 -530,435 -826,604 -389,-264 -840,-441 -1327,-506l0 -5341c408,102 1081,-276 1081,-961 0,-161 -167,-544 175,-628 877,803 840,1871 801,2999 -17,497 -33,1004 31,1496 35,259 91,513 183,759l568 -213c-224,-598 -200,-1290 -175,-2022 53,-1548 -1,-2634 -1185,-3626 -332,-20 -621,38 -854,327 -323,401 -151,787 -151,908 0,206 -184,437 -474,320l0 -3472 3085 0 0 -606 -3085 0 0 -3085 -606 0 0 3085 -3086 0 0 606 3086 0 0 1796c-89,-30 -184,-47 -282,-47 -434,0 -803,311 -875,738 -118,684 524,1164 1157,1382z"/>
   <path class="fil2" d="M10687 26285c-279,0 -380,-246 -380,-487 0,-45 2,-90 12,-135 106,-135 251,-201 385,-201 203,0 362,128 362,428 0,231 -163,395 -379,395zm109 -1116c-212,0 -421,83 -527,253 45,-468 525,-395 967,-546l-17 -307c-621,158 -1262,132 -1262,1125 0,640 305,900 719,900 453,0 721,-309 721,-751 0,-471 -279,-674 -601,-674z"/>
   <polygon class="fil2" points="8735,25101 9527,26556 9915,26556 9123,25101 "/>
   <path class="fil2" d="M11409 22155l-1475 0c-536,7 -765,232 -765,617 0,359 198,572 551,572l0 -305c-171,-5 -235,-128 -235,-267 0,-187 105,-305 360,-305l139 0 0 1633 376 0 0 -1635 680 0 0 1635 624 0 0 -312 -255 0 0 -1633z"/>
   <path class="fil2" d="M15677 22883c152,0 305,87 307,314l-647 0c2,-203 165,-314 340,-314zm582 1168l0 -296c-107,43 -291,73 -456,73 -251,0 -464,-61 -473,-342l978 0c3,-66 12,-137 12,-204 0,-342 -146,-675 -626,-675 -475,0 -702,328 -702,770 0,470 244,761 747,761 158,0 371,-24 520,-87z"/>
   <polygon class="fil2" points="15097,25389 15381,25389 15381,26254 15097,26254 15097,26554 16033,26554 16033,26254 15733,26254 15733,25389 16135,25389 16135,25665 16454,25665 16454,25093 15097,25093 "/>
   <polygon class="fil2" points="18939,22644 18147,24100 18535,24100 19326,22644 "/>
   <path class="fil2" d="M12297 26901c-113,0 -208,-14 -307,-94l97 -323c27,4 54,6 80,6 158,0 383,-78 466,-220 0,383 -19,631 -336,631zm340 -1207c0,319 -104,491 -338,491 -170,0 -248,-78 -248,-278l0 -814 -354 0 0 915c0,165 55,279 132,354l-187 589c187,158 407,239 655,239 458,0 678,-230 695,-740l0 -1357 -355 0 0 601z"/>
   <path class="fil2" d="M12527 22883c151,0 305,85 307,312l-647 0c2,-203 167,-312 340,-312zm2085 941l-353 0 0 -891 232 0 0 295 298 0 0 -588 -1395 0 0 588 296 0 0 -295 231 0 0 891 -1269 0c-250,0 -463,-59 -470,-341l976 0c5,-66 12,-137 12,-203 0,-343 -144,-673 -627,-673 -474,0 -701,326 -701,768 0,470 243,725 746,725l2024 0 0 -276z"/>
   <path class="fil2" d="M14197 26289c-97,0 -206,-26 -298,-71l0 -619c33,-139 187,-227 340,-227 227,0 324,168 336,386 0,321 -106,531 -378,531zm132 -1229c-184,0 -376,69 -498,208l-93 -175 -451 0 0 303 260 0 0 1479 -260 0 0 267 879 0 0 -267 -267 0 0 -354c104,47 234,73 355,73 382,0 664,-265 664,-799 0,-513 -251,-735 -589,-735z"/>
   <path class="fil2" d="M17400 23835c-97,0 -205,-25 -298,-70l0 -620c34,-139 187,-227 341,-227 227,0 323,168 335,386 0,321 -106,531 -378,531zm132 -1228c-184,0 -375,68 -498,208l-92 -175 -452 0 0 300 260 0 0 1481 -260 0 0 265 879 0 0 -265 -267 0 0 -354c102,47 234,73 355,73 383,0 664,-267 664,-798 0,-513 -250,-735 -589,-735z"/>
   <path class="fil2" d="M11972 20985c95,0 206,12 256,19l0 168c-69,111 -237,196 -414,196 -111,0 -201,-45 -201,-182 0,-175 168,-201 359,-201zm-215 664c177,0 383,-64 506,-208 33,97 114,187 314,187l960 0 2 0 0 -579 551 0 0 579 593 0 0 -303 -241 0 0 -1158 -352 0 0 587 -551 0 0 -587 -605 0 0 301 251 0 0 891 -608 0 0 -716c0,-343 -177,-511 -555,-511 -227,0 -468,31 -617,83l0 328c78,-30 314,-82 513,-82 163,0 310,33 310,189l0 94c-189,-9 -230,-16 -301,-16 -416,0 -654,141 -654,475 0,316 208,446 484,446z"/>
   <path class="fil2" d="M10512 21671c198,0 437,-31 572,-119l0 -326c-152,62 -315,102 -516,102 -326,0 -576,-180 -576,-652 0,-492 234,-695 569,-695 57,0 116,7 175,19l0 394 322 0 0 -664c-128,-49 -305,-82 -466,-82 -421,0 -985,160 -985,1028 0,751 430,995 905,995z"/>
   <path class="fil2" d="M15052 21628l352 0 0 -598 163 0 260 414c94,156 234,191 385,191 66,0 71,-2 137,-9l0 -301 -47 0c-87,0 -151,-16 -210,-108l-244 -388 437 -662 -380 0 -383 601 -118 0 0 -601 -603 0 0 301 251 0 0 1160z"/>
   <polygon class="fil2" points="18822,20770 18058,20770 18058,21096 18822,21096 "/>
   <polygon class="fil2" points="16758,20461 16989,20461 16989,21325 16638,21325 16638,21628 17680,21628 17680,21325 17327,21325 17327,20461 17559,20461 17559,20756 17855,20756 17855,20167 16460,20167 16460,20756 16758,20756 "/>
  </g>
  <rect class="fil3" width="29744" height="29744"/>
 </g>
</svg>
