<svg xmlns="http://www.w3.org/2000/svg" width="40" height="40" viewBox="0 0 66227 66227" shape-rendering="geometricPrecision" image-rendering="optimizeQuality" fill-rule="evenodd" clip-rule="evenodd"><path d="m51204 39154c7250 0 13128 5877 13128 13128 0 7250-5878 13128-13128 13128-7251 0-13128-5878-13128-13128 0-1592 283-3118 802-4529l-13187-6987c-2382 3316-6272 5476-10667 5476-7251 0-13128-5878-13128-13128 0-7251 5877-13128 13128-13128 4395 0 8285 2159 10667 5475l13187-6986c-519-1412-802-2937-802-4529 0-7251 5877-13128 13128-13128 7250 0 13128 5877 13128 13128 0 7250-5878 13128-13128 13128-4395 0-8285-2160-10668-5476l-13186 6987c519 1411 802 2937 802 4529 0 1592-283 3117-802 4529l13186 6986c2383-3316 6273-5475 10668-5475" fill="#2b2a29"/></svg>