<?xml version="1.0" encoding="UTF-8"?>
<!DOCTYPE svg PUBLIC "-//W3C//DTD SVG 1.1//EN" "http://www.w3.org/Graphics/SVG/1.1/DTD/svg11.dtd">
<!-- Creator: CorelDRAW X7 -->
<svg xmlns="http://www.w3.org/2000/svg" xml:space="preserve" width="100%" height="100%" version="1.1" style="shape-rendering:geometricPrecision; text-rendering:geometricPrecision; image-rendering:optimizeQuality; fill-rule:evenodd; clip-rule:evenodd"
viewBox="0 0 71029 71029"
 xmlns:xlink="http://www.w3.org/1999/xlink">
 <defs>
  <style type="text/css">
   <![CDATA[
    .fil0 {fill:none}
    .fil2 {fill:#66757F}
    .fil1 {fill:#66757F;fill-rule:nonzero}
   ]]>
  </style>
 </defs>
 <g id="Слой_x0020_1">
  <metadata id="CorelCorpID_0Corel-Layer"/>
  <rect class="fil0" width="71029" height="71029"/>
  <path class="fil1" d="M7370 42506c-429,-328 -511,-941 -184,-1370 328,-429 941,-511 1370,-184 8738,6707 17587,10081 26547,10091 8970,10 18100,-3348 27390,-10106 437,-317 1049,-219 1366,218 317,438 219,1049 -218,1366 -9629,7004 -19141,10484 -28538,10473 -9407,-11 -18651,-3518 -27733,-10488zm-5477 -5387c-295,452 -902,579 -1354,283 -452,-295 -579,-902 -283,-1354 2518,-3838 5593,-7073 9055,-9697 7035,-5330 15673,-8125 24502,-8307 8819,-181 17829,2245 25622,7358 4191,2750 8031,6277 11300,10593 326,431 240,1044 -191,1369 -431,326 -1044,240 -1370,-191 -3128,-4129 -6801,-7503 -10811,-10134 -7459,-4894 -16079,-7217 -24511,-7044 -8422,174 -16658,2838 -23362,7917 -3286,2489 -6205,5562 -8597,9207zm33622 -11537c2742,0 5226,1112 7023,2909 1797,1798 2909,4281 2909,7024 0,2742 -1112,5225 -2909,7023 -1797,1797 -4281,2909 -7023,2909 -2743,0 -5226,-1112 -7024,-2909 -1797,-1798 -2909,-4281 -2909,-7023 0,-2743 1112,-5226 2909,-7024 1798,-1797 4281,-2909 7024,-2909zm0 6303c1002,0 1909,407 2566,1063 657,657 1063,1565 1063,2567 0,1002 -406,1909 -1063,2566 -657,657 -1564,1063 -2566,1063 -1002,0 -1910,-406 -2567,-1063 -656,-657 -1063,-1564 -1063,-2566 0,-1002 407,-1910 1063,-2567 657,-656 1565,-1063 2567,-1063zm1181 2448c-302,-302 -720,-489 -1181,-489 -462,0 -880,187 -1182,489 -302,302 -489,720 -489,1182 0,461 187,879 489,1181 302,302 720,489 1182,489 461,0 879,-187 1181,-489 302,-302 489,-720 489,-1181 0,-462 -187,-880 -489,-1182zm4457 -4457c-1443,-1443 -3436,-2335 -5638,-2335 -2202,0 -4196,892 -5639,2335 -1443,1443 -2335,3437 -2335,5639 0,2202 892,4195 2335,5638 1443,1443 3437,2336 5639,2336 2202,0 4195,-893 5638,-2336 1443,-1443 2336,-3436 2336,-5638 0,-2202 -893,-4196 -2336,-5639z"/>
  <circle class="fil2" cx="35514" cy="35515" r="2706"/>
 </g>
</svg>
