<?xml version="1.0" standalone="no"?>
<!DOCTYPE svg PUBLIC "-//W3C//DTD SVG 20010904//EN"
 "http://www.w3.org/TR/2001/REC-SVG-20010904/DTD/svg10.dtd">
<svg version="1.0" xmlns="http://www.w3.org/2000/svg"
 width="1500.000000pt" height="1500.000000pt" viewBox="0 0 1500.000000 1500.000000"
 preserveAspectRatio="xMidYMid meet">
<metadata>
Created by potrace 1.11, written by Peter Selinger 2001-2013
</metadata>
<g transform="translate(0.000000,1500.000000) scale(0.100000,-0.100000)"
fill="#000000" stroke="none">
<path d="M6145 14989 c-112 -26 -235 -97 -304 -175 -85 -97 -152 -239 -184
-394 -24 -111 -28 -152 -27 -285 1 -153 4 -188 31 -363 8 -54 9 -86 3 -90 -18
-13 -155 -185 -207 -260 -127 -184 -225 -357 -297 -527 -37 -87 -94 -241 -105
-285 -2 -8 -13 -46 -25 -85 -11 -38 -22 -79 -25 -90 -2 -11 -7 -31 -9 -45 -3
-14 -8 -36 -12 -50 -13 -58 -53 -293 -59 -342 -3 -29 -7 -64 -10 -78 -2 -14
-7 -49 -10 -77 -3 -29 -7 -74 -10 -100 -10 -94 -18 -200 -30 -372 -2 -30 -6
-90 -10 -135 -3 -45 -8 -112 -10 -151 -8 -113 -14 -185 -21 -265 -4 -41 -8
-91 -9 -110 -3 -51 -16 -181 -20 -210 -2 -14 -6 -52 -10 -85 -12 -115 -20
-181 -30 -245 -2 -14 -7 -45 -10 -70 -6 -44 -10 -71 -20 -130 -3 -16 -7 -45
-10 -62 -3 -18 -10 -55 -15 -83 -5 -27 -11 -61 -14 -75 -13 -79 -40 -197 -47
-211 -4 -9 -65 -96 -135 -195 -211 -299 -538 -796 -585 -891 -12 -24 -25 -43
-30 -43 -5 0 -9 -4 -9 -10 0 -5 -25 -50 -55 -100 -30 -50 -64 -107 -75 -128
-11 -20 -25 -44 -30 -52 -44 -68 -241 -432 -343 -635 -251 -499 -452 -970
-639 -1500 -27 -77 -51 -147 -53 -155 -1 -9 -14 -49 -28 -90 -27 -80 -136
-439 -142 -468 -2 -9 -28 -114 -59 -232 -47 -186 -116 -481 -130 -560 -2 -14
-18 -92 -35 -175 -34 -169 -69 -397 -79 -525 -14 -178 -5 -676 13 -733 2 -7 6
-34 9 -62 19 -167 98 -462 171 -635 107 -256 175 -355 454 -665 101 -111 345
-350 431 -421 91 -75 232 -179 290 -213 174 -101 318 -173 481 -241 68 -29
138 -58 154 -65 35 -15 542 -210 565 -217 10 -3 30 21 62 80 27 46 48 89 48
94 0 5 12 7 27 4 29 -5 71 -11 163 -22 30 -4 62 -8 70 -9 52 -7 151 -17 157
-16 5 0 8 4 9 9 0 4 4 41 9 82 5 41 8 79 7 83 -1 4 15 6 35 3 21 -3 72 -8 113
-11 41 -4 88 -8 103 -10 l29 -3 -6 86 c-3 48 -9 118 -12 156 l-7 68 64 -7 c35
-4 73 -9 84 -11 55 -11 147 -16 143 -8 -7 11 -21 152 -22 223 l-1 54 125 35
c69 19 127 36 129 37 4 4 -55 219 -69 250 -5 11 -18 51 -30 89 -11 37 -43 123
-69 190 -168 423 -370 680 -638 809 -73 35 -211 74 -288 82 -11 1 -49 5 -85 9
-36 4 -121 9 -190 11 -214 8 -333 15 -380 21 -235 30 -420 104 -582 232 -44
35 -78 65 -76 68 4 3 125 28 198 40 14 2 45 9 70 14 41 9 330 63 405 76 70 12
229 45 232 48 2 2 -18 9 -44 15 -26 7 -77 21 -113 31 -36 11 -139 41 -230 66
-91 25 -205 57 -255 71 -49 14 -95 25 -102 26 -24 1 1 17 198 127 l200 113
-31 18 c-17 11 -52 31 -78 45 -26 14 -60 34 -77 45 -16 10 -37 22 -45 26 -56
27 -162 93 -150 94 8 0 24 2 34 4 11 2 69 9 130 15 61 6 122 13 136 15 14 2
54 7 90 10 36 3 81 8 100 10 19 3 57 7 84 10 27 3 51 7 53 9 2 2 -79 54 -179
116 -101 63 -190 119 -198 127 -12 11 1 13 80 14 180 2 239 5 244 10 3 3 -37
45 -89 93 -52 48 -95 92 -95 96 0 5 8 8 18 8 16 -1 73 7 132 17 14 2 52 7 85
10 33 4 67 8 75 10 8 2 40 7 70 10 69 8 79 17 42 41 -42 27 -432 318 -429 320
1 1 31 5 67 8 62 6 82 8 190 20 25 3 72 8 105 11 33 3 74 8 90 10 17 2 67 7
113 11 45 3 82 9 82 13 -1 3 -124 80 -275 171 l-274 164 47 13 c26 7 67 17 92
22 25 6 83 19 130 30 47 11 97 22 112 25 15 2 31 7 35 9 5 3 24 8 43 11 19 3
86 18 148 34 l113 27 -113 54 c-229 110 -499 243 -496 246 2 2 23 6 48 10 24
4 47 8 50 10 3 1 27 6 54 9 28 4 79 13 115 21 36 7 84 16 106 19 73 11 320 58
335 63 13 5 -85 33 -160 46 -14 3 -43 9 -65 15 -22 6 -51 13 -65 16 -14 2 -77
16 -140 30 -63 15 -128 29 -145 32 -30 5 -42 11 -34 18 4 3 360 108 548 161
46 13 88 28 93 33 6 6 -17 12 -59 17 -37 4 -77 9 -88 11 -11 2 -42 6 -70 9
-27 3 -57 8 -65 10 -8 2 -40 7 -70 10 -30 3 -71 9 -90 12 -19 3 -40 6 -47 7
-7 1 -15 4 -17 7 -3 3 109 81 249 174 l254 170 -37 34 c-20 18 -93 86 -161
150 -67 64 -128 120 -135 124 -10 8 98 3 184 -8 19 -3 53 -7 75 -9 22 -3 68
-8 103 -12 34 -3 62 -3 62 0 0 4 -43 63 -95 131 -52 68 -95 126 -95 129 0 5
168 86 179 86 5 0 29 50 54 112 42 106 45 110 57 87 8 -13 12 -26 11 -29 -4
-9 31 -145 40 -156 5 -6 54 -28 109 -50 l99 -39 -48 -90 c-27 -49 -67 -123
-89 -163 -27 -48 -37 -74 -29 -77 30 -11 179 -58 254 -81 45 -14 84 -28 87
-32 2 -4 -14 -28 -37 -54 -23 -25 -57 -63 -76 -85 -51 -58 -164 -184 -180
-200 -7 -8 -12 -15 -10 -17 2 -2 45 -10 94 -20 50 -9 101 -19 115 -21 14 -3
53 -10 88 -16 35 -6 62 -14 60 -18 -2 -3 -37 -37 -78 -75 -152 -140 -171 -158
-168 -161 2 -1 76 -22 166 -45 89 -24 162 -46 162 -49 -1 -3 -42 -35 -92 -71
-50 -36 -96 -70 -102 -76 -6 -6 -24 -19 -39 -29 -15 -10 -24 -21 -20 -25 4 -4
96 -36 203 -70 107 -34 197 -64 200 -67 6 -5 -6 -15 -199 -178 l-142 -120 187
-90 187 -90 -181 -60 c-99 -33 -178 -63 -174 -66 4 -4 75 -33 159 -65 l152
-57 -92 -87 c-51 -48 -119 -112 -152 -143 l-60 -57 547 3 c302 2 550 6 553 8
4 5 -107 74 -437 273 -92 56 -167 104 -168 107 0 6 50 23 512 170 109 35 192
66 185 70 -6 3 -43 16 -82 29 -38 12 -79 26 -90 31 -11 4 -120 41 -242 82
l-221 75 41 15 c23 9 135 46 249 84 157 51 205 70 195 79 -6 6 -90 59 -185
119 -95 59 -172 109 -170 110 2 2 53 6 115 10 134 8 162 11 168 17 4 4 -100
104 -188 181 -11 9 -18 18 -16 20 2 2 60 18 129 35 326 83 449 116 447 118 -1
2 -142 73 -312 158 -170 86 -307 156 -305 157 3 0 14 2 25 4 11 2 39 7 62 10
24 3 48 7 55 10 7 2 29 6 48 9 19 3 80 14 135 25 93 18 181 34 197 35 22 2 11
16 -35 39 -29 15 -81 43 -117 63 -36 19 -102 56 -148 81 -46 25 -82 46 -80 48
2 1 44 6 93 9 108 7 209 16 290 25 l60 6 -145 110 c-79 61 -154 117 -166 125
-80 57 -153 114 -150 118 5 4 83 7 394 16 73 2 135 6 137 8 3 3 -40 86 -95
186 -104 188 -120 219 -104 210 5 -3 46 -9 91 -13 l83 -7 -5 99 c-3 54 -7 146
-10 206 -3 59 -1 107 3 107 5 0 48 -16 97 -35 49 -19 90 -33 91 -32 4 4 13 57
19 122 3 33 8 71 10 85 2 14 6 53 10 88 4 34 10 62 14 62 8 0 203 -80 209 -85
2 -2 -11 -45 -28 -96 -18 -52 -34 -102 -35 -112 -2 -9 -7 -22 -11 -28 -4 -7 0
-9 12 -6 118 35 175 49 179 45 3 -3 -21 -92 -54 -199 -32 -107 -55 -195 -51
-197 5 -2 78 15 163 37 84 23 157 41 160 41 7 0 -14 -62 -86 -247 -30 -79 -52
-143 -47 -143 4 0 63 -30 131 -67 69 -38 145 -79 171 -93 26 -13 44 -28 40
-31 -4 -4 -97 -46 -207 -94 -110 -48 -203 -90 -207 -93 -4 -4 124 -41 285 -81
161 -40 298 -77 305 -81 9 -4 -17 -17 -65 -33 -43 -15 -143 -49 -223 -77 -80
-29 -176 -62 -215 -75 l-70 -23 45 -12 c25 -7 142 -39 260 -72 118 -33 221
-60 229 -61 23 -1 -7 -17 -228 -126 -112 -56 -197 -103 -190 -106 16 -5 65
-21 199 -63 291 -92 420 -134 420 -138 0 -2 -111 -60 -247 -128 l-248 -124 45
-11 c25 -6 72 -19 105 -27 33 -9 74 -19 90 -21 17 -3 38 -9 48 -14 9 -5 17 -8
17 -5 0 3 15 0 33 -5 17 -6 39 -12 47 -14 8 -1 66 -15 129 -31 l113 -27 -38
-33 c-22 -18 -105 -86 -186 -151 -80 -65 -143 -121 -140 -125 6 -5 129 -33
242 -54 14 -3 32 -7 40 -9 8 -3 33 -7 55 -11 22 -3 42 -8 44 -10 2 -2 -9 -27
-24 -56 -16 -29 -34 -64 -41 -77 -12 -23 -10 -29 24 -70 20 -26 39 -48 42 -51
35 -33 34 -38 -29 -120 l-62 -80 28 -1 c125 -3 367 -10 405 -12 56 -3 59 -12
-56 142 -47 63 -83 118 -80 122 2 4 28 11 57 15 28 4 54 8 57 9 3 1 25 5 50
10 25 5 47 9 50 10 3 1 25 5 50 9 25 4 52 10 61 12 14 4 -4 35 -82 151 -54 80
-99 148 -99 152 0 4 62 19 137 34 75 15 139 29 141 31 2 2 -3 12 -12 23 -51
61 -216 273 -216 277 0 3 79 3 175 1 96 -2 175 -1 175 2 0 3 -47 85 -104 182
-121 207 -129 221 -119 221 4 0 35 -5 68 -10 33 -6 76 -13 95 -16 19 -3 43 -8
54 -11 17 -5 18 -1 12 38 -6 44 -10 78 -21 179 -3 30 -8 69 -11 87 -5 30 -3
32 85 79 l89 48 -40 59 -40 59 24 32 c12 18 48 67 78 109 30 42 58 77 61 77
11 0 129 -185 128 -200 0 -8 -17 -51 -38 -95 -21 -44 -37 -81 -36 -83 1 -1 37
13 80 33 43 19 81 35 86 35 5 0 2 -15 -6 -33 -8 -17 -44 -106 -79 -197 -35
-91 -74 -189 -85 -218 l-21 -54 32 20 c18 11 58 33 88 50 30 16 85 46 122 66
l67 38 -5 -104 c-2 -57 -6 -143 -8 -193 l-3 -90 103 -80 c56 -44 103 -82 103
-85 0 -3 -76 -54 -168 -115 -92 -60 -163 -113 -157 -116 6 -4 74 -23 151 -44
77 -20 151 -40 165 -45 14 -5 63 -19 110 -31 47 -12 88 -24 92 -28 3 -3 -42
-28 -100 -56 -268 -125 -334 -156 -331 -160 2 -1 81 -42 176 -89 155 -78 202
-106 175 -106 -5 0 -70 -33 -144 -73 -74 -40 -149 -79 -166 -86 -18 -8 -32
-17 -32 -21 0 -4 125 -49 278 -100 152 -51 288 -97 301 -102 l25 -9 -25 -13
c-13 -7 -64 -35 -114 -63 -159 -90 -239 -133 -302 -166 -35 -17 -63 -34 -63
-38 0 -3 19 -12 43 -18 23 -6 107 -29 187 -50 80 -22 192 -52 249 -67 l104
-28 -30 -25 c-16 -14 -43 -36 -59 -49 -199 -156 -262 -208 -259 -213 3 -3 76
-30 165 -60 88 -29 160 -56 160 -59 0 -3 -34 -32 -75 -64 -42 -33 -74 -60 -72
-62 3 -3 103 -20 167 -28 56 -7 123 -17 145 -21 11 -2 25 -4 30 -4 6 -1 -28
-19 -75 -42 -47 -22 -120 -56 -162 -77 -43 -20 -78 -39 -78 -43 0 -3 102 -36
228 -74 125 -37 231 -70 236 -73 8 -5 -28 -25 -236 -134 -65 -34 -117 -63
-115 -64 1 -2 14 -5 27 -7 41 -8 453 -107 456 -110 10 -10 31 -128 24 -132
-33 -20 -292 -106 -440 -146 -94 -26 -257 -66 -290 -73 -20 -3 -293 -65 -360
-80 -341 -81 -546 -180 -711 -345 -68 -69 -195 -234 -187 -245 2 -2 -4 -12
-13 -22 -15 -17 -100 -185 -106 -209 -1 -5 -18 -50 -37 -100 -54 -142 -114
-360 -130 -480 -8 -60 -18 -126 -21 -145 -11 -76 -13 -110 -7 -111 4 0 17 -2
29 -5 19 -3 82 -10 119 -13 8 -1 8 -21 -1 -73 -14 -80 -22 -129 -31 -185 -3
-21 -10 -65 -15 -98 -6 -33 -12 -70 -14 -82 -2 -13 -1 -23 3 -24 4 0 16 -2 27
-4 41 -8 102 -15 170 -21 39 -4 71 -8 73 -9 1 -1 -13 -45 -31 -97 l-33 -95
171 -1 c93 0 182 0 198 -1 26 -1 27 -3 27 -57 l0 -56 143 7 c78 5 163 9 189
10 l47 2 17 -94 c9 -51 20 -95 24 -98 3 -2 114 14 245 36 l239 40 158 71 c360
159 763 390 983 563 216 169 237 187 400 350 128 128 150 152 231 250 45 56
194 262 194 269 0 3 13 24 29 48 101 150 244 475 311 707 55 189 76 294 105
516 27 202 27 773 0 899 -2 11 -7 46 -10 76 -3 30 -7 66 -9 80 -3 14 -9 57
-15 95 -6 39 -13 84 -17 100 -12 64 -45 231 -49 245 -2 8 -15 68 -29 132 -41
189 -85 376 -112 478 -14 52 -27 103 -29 112 -12 58 -147 504 -195 648 -114
338 -320 881 -422 1110 -11 25 -26 59 -33 75 -62 143 -166 377 -201 453 -24
52 -44 95 -44 97 0 2 -31 69 -70 150 -38 81 -70 148 -70 150 0 2 -39 83 -86
181 -84 174 -149 309 -384 789 -260 531 -324 664 -355 730 -18 39 -59 124 -90
190 -31 66 -68 145 -81 175 -14 30 -29 62 -33 71 -7 13 -103 223 -171 374 -10
22 -45 105 -79 185 -34 80 -66 154 -71 165 -4 11 -18 43 -30 71 l-22 51 -62
-18 c-60 -18 -412 -103 -471 -114 -32 -5 -49 -8 -170 -30 -44 -8 -99 -17 -122
-20 -47 -5 -100 -12 -178 -21 -27 -3 -64 -7 -80 -9 -17 -2 -87 -6 -155 -10
l-125 -6 85 56 c123 81 312 170 500 237 51 18 262 86 285 92 6 2 17 6 25 9 16
6 126 37 150 42 21 5 376 113 425 130 233 80 360 132 490 200 142 75 297 191
380 284 16 19 38 43 49 55 82 92 187 312 211 445 3 14 7 37 10 51 15 73 24
180 25 288 0 68 3 82 16 82 25 0 81 62 94 105 19 62 22 230 5 303 -38 163
-122 255 -252 278 -15 3 -46 10 -68 16 -22 5 -51 12 -63 14 -61 12 -248 81
-348 130 -212 103 -366 218 -663 493 -62 58 -119 111 -125 116 -378 339 -573
464 -1011 651 -106 45 -75 43 -986 48 -475 3 -885 5 -911 5 -41 1 -53 6 -90
42 -156 150 -316 245 -503 299 -52 15 -239 21 -290 9z"/>
<path d="M9770 14584 c-89 -17 -166 -47 -241 -95 l-62 -41 24 -22 c13 -12 96
-80 184 -151 88 -71 183 -147 210 -169 28 -23 110 -101 184 -174 98 -97 137
-129 143 -120 160 238 167 451 21 627 -94 114 -295 177 -463 145z"/>
</g>
</svg>
