<svg xmlns="http://www.w3.org/2000/svg" width="1000" height="900" viewBox="0 0 129643 116678" shape-rendering="geometricPrecision" image-rendering="optimizeQuality" fill-rule="evenodd" clip-rule="evenodd"><g fill="#d6f0c8"><path d="m73217 35173h25321c3342 0 6077 2734 6077 6077v675c0 3343-2735 6077-6077 6077h-25321c-3342 0-6077-2734-6077-6077v-675c0-3343 2735-6077 6077-6077"/><path d="m37564 72161h25321c3342 0 6077 2734 6077 6076v676c0 3342-2735 6077-6077 6077h-25321c-3343 0-6077-2735-6077-6077v-676c0-3342 2734-6076 6077-6076"/><path d="m61365 65068h6584c3342 0 6077 2735 6077 6077v676c0 3342-2735 6077-6077 6077h-6584c-3342 0-6077-2735-6077-6077v-676c0-3342 2735-6077 6077-6077"/></g><g fill="#333" fill-rule="nonzero"><path d="m36075 79601h1325v1920h195v763h-256v-508h-1440v508h-255v-763h167c176-264 264-799 264-1602v-318m1036 255h-759v111c0 186-17 439-50 761-33 321-99 586-196 793h1005v-1665"/><path d="m37847 80717c0-360 98-643 291-847 194-204 445-306 752-306 201 0 381 48 543 144 161 96 284 229 369 401 84 171 127 366 127 583 0 220-45 418-134 591-89 175-215 306-378 395-164 90-340 135-529 135-205 0-388-50-549-149-162-99-284-233-367-404-83-171-125-352-125-543m298 5c0 262 70 468 211 619 141 150 318 225 530 225 217 0 395-75 535-227 140-152 210-368 210-648 0-176-30-331-90-463-60-131-147-233-262-306-116-72-245-109-388-109-204 0-379 70-526 210-146 140-220 373-220 699"/><path d="m40293 81776v-2175h431l515 1540c47 143 82 250 104 322 24-79 63-196 116-349l524-1513h385v2175h-276v-1820l-636 1820h-259l-628-1853v1853h-276"/><path d="m42591 81776l835-2175h317l885 2175h-327l-252-659h-916l-236 659h-306m626-893h742l-227-603c-68-184-120-335-156-455-30 142-70 281-120 419l-239 639"/><path d="m44863 79601h288v1920h721v-1920h288v1920h720v-1920h289v2175h-2306z"/><path d="m47654 81776v-2175h288v896h1124v-896h289v2175h-289v-1024h-1124v1024z"/><path d="m49842 81776v-2175h1571v255h-1283v668h1201v255h-1201v742h1334v255z"/><path d="m51869 81776v-2175h1570v255h-1282v668h1200v255h-1200v742h1334v255z"/><path d="m46400 70818l289 73c-61 236-169 416-325 540-157 124-348 187-575 187-234 0-424-48-571-144-147-95-258-233-335-414-76-181-115-375-115-583 0-226 43-424 130-592 87-169 210-297 369-385 160-87 335-131 527-131 218 0 400 55 548 166 149 111 252 266 310 467l-282 67c-51-158-124-274-220-346-95-72-216-108-361-108-167 0-307 40-419 120-111 80-190 188-236 323-45 135-68 274-68 418 0 184 27 346 81 484 53 138 137 241 250 309 114 68 236 102 368 102 161 0 297-46 409-139 111-93 187-231 226-414"/><path d="m47060 69405h289v927h518c339 0 563 63 670 189 107 126 161 269 161 428 0 169-58 316-173 443-114 126-327 189-638 189h-827v-2176m289 1930h524c181 0 312-30 393-91 81-61 122-158 122-292 0-91-25-167-74-228-49-62-113-101-191-117-78-17-208-26-390-26h-384v754m1610-1930h289v2176h-289v-2176"/><path d="m49735 71581v-2176h821c145 0 255 8 331 21 107 18 197 52 269 102 73 50 131 120 175 209 44 90 66 189 66 296 0 185-59 341-177 469-117 128-331 192-638 192h-559v887h-288m288-1142h563c186 0 318-35 396-104 78-70 117-167 117-293 0-91-23-169-69-233-46-65-107-108-182-129-48-13-138-19-268-19h-557v778"/><path d="m51607 70522c0-360 97-643 291-847 194-204 444-306 751-306 201 0 382 48 543 144 161 96 284 229 369 401 84 171 127 366 127 583 0 220-45 418-134 591-89 175-215 306-378 395-164 90-340 135-529 135-205 0-388-50-549-149-161-99-284-233-367-404-83-171-124-352-124-543m297 5c0 262 71 468 211 619 141 150 318 225 531 225 216 0 394-76 534-227 140-152 210-368 210-648 0-176-30-331-90-463-59-131-147-234-262-306-115-72-244-109-388-109-203 0-379 70-525 210-147 140-221 373-221 699"/><path d="m54064 71581v-2176h1571v256h-1282v668h1200v255h-1200v742h1334v255z"/><path d="m56923 69405h440v927c98-10 165-35 199-76 34-40 88-153 160-339 91-235 182-382 274-439 91-57 237-86 440-86 10 0 31-1 64-2v325l-62-1c-91 0-156 11-198 33-41 23-75 57-101 102-26 46-64 139-114 281-26 76-55 138-87 189-31 51-86 98-165 143 98 27 178 83 242 167 64 85 134 203 210 357l296 595h-516l-261-560c-4-8-13-23-26-46-5-8-23-42-54-102-56-108-102-175-137-201-36-27-90-41-164-42v951h-440v-2176"/><path d="m58680 70506c0-221 34-408 100-559 49-111 117-210 202-298 86-89 180-154 282-197 135-57 292-86 469-86 321 0 577 100 770 299 193 199 289 476 289 831 0 352-96 628-287 826-191 199-446 299-766 299-324 0-581-99-772-297-191-198-287-470-287-818m453-14c0 246 57 433 171 561 114 127 259 191 434 191 176 0 320-64 433-190 112-126 168-316 168-568 0-250-54-436-164-559-110-123-255-184-437-184-181 0-328 62-438 186-111 125-167 312-167 563"/><path d="m61135 71581v-2176h704c267 0 441 11 522 33 124 33 229 104 313 213 84 109 126 251 126 424 0 134-24 246-73 337-48 91-109 162-184 214-74 52-150 87-227 103-105 21-257 32-455 32h-286v820h-440m440-1808v620h240c173 0 287-12 346-34 58-23 104-59 136-108 33-48 50-105 50-169 0-80-23-145-69-197-47-52-105-84-177-97-52-10-157-15-315-15h-211"/><path d="m63030 70506c0-221 34-408 100-559 49-111 117-210 203-298 85-89 179-154 281-197 135-57 292-86 469-86 321 0 577 100 770 299 193 199 289 476 289 831 0 352-96 628-287 826-190 199-446 299-766 299-323 0-581-99-772-297-191-198-287-470-287-818m453-14c0 246 57 433 171 561 114 127 259 191 434 191 176 0 320-64 433-190 112-126 168-316 168-568 0-250-54-436-164-559-110-123-255-184-437-184-181 0-327 62-438 186-111 125-167 312-167 563"/><path d="m65485 69405h870c173 0 301 8 385 22 85 14 161 44 228 89 67 46 122 106 167 182 44 75 67 160 67 254 0 101-28 195-82 279-55 86-130 149-223 191 132 39 233 105 305 198 71 94 106 203 106 329 0 99-23 196-69 289-46 94-109 169-189 225-79 56-178 90-295 103-72 8-249 13-529 15h-741v-2176m440 362v501h288c171 0 277-2 319-7 75-9 134-35 177-78 43-43 64-99 64-169 0-67-19-121-56-163-36-42-92-68-165-76-43-5-168-8-374-8h-253m0 863v583h408c158 0 258-4 301-13 65-12 118-41 159-87 41-46 62-108 62-185 0-66-15-121-47-167-32-45-78-79-138-100-59-20-190-31-390-31h-355"/><path d="m67688 69405h441v869h587c276 0 476 65 600 195 125 130 186 285 186 466 0 149-37 275-113 379-75 104-160 174-257 211-96 37-235 56-417 56h-1027v-2176m441 1808h427c138 0 234-6 287-19 54-14 102-44 144-91 42-47 63-105 63-174 0-99-36-171-108-217-72-47-194-70-367-70h-446v571"/><path d="m69863 71581v-2176h1611v368h-1170v483h1088v368h-1088v589h1212v368z"/><path d="m35656 78575v-5913h1794l1059 4033 1048-4033h1798v5913h-1107l-4-4655-1166 4655h-1151l-1160-4655-4 4655z"/><path d="m42304 75654c0-603 91-1109 272-1519 133-302 318-573 550-813 233-239 487-417 764-534 369-155 794-234 1276-234 873 0 1569 272 2094 812 523 543 784 1296 784 2261 0 956-260 1705-779 2245-519 541-1214 810-2082 810-880 0-1581-268-2099-806-519-537-780-1277-780-2222m1231-40c0 671 156 1179 465 1525 310 346 704 519 1180 519 478 0 868-172 1175-514 306-345 459-859 459-1546 0-679-149-1185-448-1518-297-335-692-502-1186-502-493 0-891 170-1192 507-302 339-453 848-453 1529"/><path d="m49196 72662h4142v5913h-1197v-4914h-1776v2525c0 722-25 1227-73 1512-48 287-165 511-352 671-187 159-479 239-877 239-140 0-394-14-763-40v-926l267 4c250 0 419-33 504-100 87-68 130-233 130-496l-5-1016v-3372"/><path d="m54318 75654c0-603 91-1109 272-1519 133-302 318-573 550-813 233-239 487-417 764-534 369-155 794-234 1276-234 873 0 1569 272 2094 812 523 543 784 1296 784 2261 0 956-260 1705-779 2245-519 541-1214 810-2082 810-880 0-1581-268-2100-806-518-537-779-1277-779-2222m1231-40c0 671 155 1179 465 1525 310 346 704 519 1180 519 477 0 868-172 1175-514 306-345 459-859 459-1546 0-679-149-1185-448-1518-297-335-692-502-1186-502-493 0-891 170-1192 507-302 339-453 848-453 1529"/><path d="m61007 72662h1197v2519c266-28 446-95 540-207 93-110 239-417 435-921 246-640 495-1039 744-1194 248-156 646-234 1197-234 27 0 85-2 173-5v884l-169-4c-245 0-424 30-537 91-113 60-204 153-274 277-70 123-173 378-310 763-73 206-151 376-237 514-83 138-233 267-448 388 265 74 484 227 658 456 173 228 363 550 570 967l805 1619h-1404l-709-1522c-11-22-34-64-69-126-14-20-63-114-149-278-151-291-275-473-371-546-98-73-245-110-445-113v2585h-1197v-5913"/><path d="m65783 75654c0-603 91-1109 271-1519 134-302 318-573 551-813 232-239 487-417 764-534 369-155 794-234 1276-234 872 0 1569 272 2093 812 523 543 785 1296 785 2261 0 956-260 1705-779 2245-519 541-1214 810-2083 810-879 0-1580-268-2099-806-519-537-779-1277-779-2222m1231-40c0 671 155 1179 465 1525 310 346 703 519 1180 519 477 0 868-172 1175-514 306-345 458-859 458-1546 0-679-148-1185-447-1518-297-335-692-502-1186-502-493 0-891 170-1193 507-301 339-452 848-452 1529"/></g><path d="m79765 32753c-139-51-167 317-194 505-1039 7347-2697 13834-2765 20754-4 468-144 3156 230 3382 1043 632 1057 1278-34 1940-343 208-262 1250-262 1680 0 7439 0 14878 0 22318-427 842-416 736-416 1679 132 3411 580 12682 5488 6595 2055 3605 4028 3848 6011 0 4949 6091 5807-3332 5809-6441 0-1197 95-753-420-1833 0-7440 6-14879 10-22318 0-541 105-1443-315-1712-1010-646-1002-1238-195-1787 634-431 413-2639 395-3503-138-6719-1946-13661-3072-20791-27-173-49-432-178-486-1639-691-3304-641-4989 9-1127 434-2363 1018-5103 9" fill="#fffdf4"/><g stroke="#333" stroke-width="143.55"><path d="m81731 25502c1986 267 4026 275 6123 0v909c0 130-100 225-222 236-1973 176-3863 169-5680 0-121-11-221-106-221-236 0-303 0-606 0-909z" fill="#fefefe"/><g fill="none"><path d="m82130 26655v2138c0 361 39 282-208 543-321 339-642 678-963 1017-1318 1392-1121 1014-1388 2905-1039 7347-2697 13834-2765 20754-4 468-144 3156 230 3382 1043 632 1057 1278-34 1940-343 208-262 1250-262 1680 0 7439 0 14878 0 22318-427 842-416 736-416 1679 132 3411 580 12682 5488 6595 2055 3605 4028 3848 6011 0 4949 6091 5807-3332 5809-6441 0-1197 95-753-420-1833 0-7440 6-14879 10-22318 0-541 105-1443-315-1712-1010-646-1002-1238-195-1787 634-431 413-2639 395-3503-138-6719-1946-13661-3072-20791-301-1908-137-1523-1473-2935l-886-936c-262-276-222-192-222-574v-2121c-1795 163-3570 161-5324 0z"/><path d="m87007 34448l1127 16096"/><path d="m78188 83723c2297 559 4679 871 7168 877"/></g><path d="m81721 22287c2047-231 4095-231 6142 0 122 14 222 100 222 222v2849c0 122-100 208-222 222-1935 224-3975 239-6142 0-121-13-222-100-222-222v-2849c0-122 101-208 222-222z" fill="#fefefe"/><g fill="none"><g stroke-linecap="round"><path d="m82019 22717v402"/><path d="m82574 22674v646"/><path d="m83128 22640v882"/><path d="m84237 22603l1 1322"/><path d="m83683 22617v1127"/><path d="m84792 22598v1528"/><path d="m85347 22603v1725"/><path d="m85901 22617v1932"/><path d="m86456 22641v2089"/><path d="m87565 22717v2416"/><path d="m87011 22674v2258"/><path d="m87007 34456l1127 16096"/><path d="m78535 58574c2003 306 4134 487 6441 494"/><path d="m78188 83731c2297 559 4679 872 7168 877"/></g><path d="m84861 74775c493-303 369-501 523-1226 1342-6323 5954-1902 3269-6854-671 1104-75 1089-636 2017-811 254-5335 252-6150-1-561-940 53-943-630-2023-1929 3669 321 2607 1523 3448 1600 1119 1458 3382 2101 4639z"/><path d="m84198 74887c113-1345-656-3640-1861-4408l589 5114 1272-706z"/><path d="m87508 70461c-1218 892-1694 2805-1903 4307l1394 719 509-5026z"/><path d="m86878 76789c176-2118-4107-1971-3744 27l3744-27z"/></g></g></svg>