<svg xmlns="http://www.w3.org/2000/svg" width="1000" height="900" viewBox="0 0 175024 157522" shape-rendering="geometricPrecision" image-rendering="optimizeQuality" fill-rule="evenodd" clip-rule="evenodd"><g fill="#d6f0c8"><path d="m127628 59016h-34185c-4512 0-8204-3691-8204-8204v-911c0-4513 3692-8205 8204-8205h34185c4512 0 8204 3692 8204 8205v911c0 4513-3692 8204-8204 8204"/><path d="m84327 116332h-8889c-4512 0-8204-3692-8204-8204v-912c0-4512 3692-8204 8204-8204h8889c4512 0 8204 3692 8204 8204v912c0 4512-3692 8204-8204 8204"/><path d="m91734 67684h-8888c-4512 0-8204-3692-8204-8204v-912c0-4512 3692-8204 8204-8204h8888c4513 0 8205 3692 8205 8204v912c0 4512-3692 8204-8205 8204"/></g><g stroke-width="193.8"><path d="m55449 44902c-188-69-226 428-262 681-1402 9920-3640 18677-3732 28019-6 633-195 4261 310 4567 1409 853 1426 1725-46 2619-464 281-354 1687-354 2268 0 10043 0 20086 0 30130-576 1136-562 993-562 2267 179 4605 784 17121 7409 8903 2775 4867 5439 5195 8115 0 6682 8223 7841-4498 7844-8695 0-1617 128-1016-567-2475 0-10044 7-20087 13-30130 0-731 142-1948-426-2311-1364-873-1352-1672-262-2413 855-582 557-3563 533-4730-187-9070-2628-18442-4148-28068-37-234-66-583-241-657-2212-932-4459-864-6734 13-1522 586-3191 1374-6890 12z" fill="#f6f6f7" stroke="#f6f6f7"/><g stroke="#333"><path d="m58103 35113c2682 361 5435 371 8266 0v1226c0 176-135 305-299 319-2664 238-5216 229-7668 0-164-15-299-143-299-319 0-408 0-817 0-1226z" fill="#fefefe"/><path d="m58642 36669v2887c0 488 52 381-281 733-433 458-867 915-1300 1373-1779 1880-1513 1369-1874 3921-1402 9920-3640 18677-3732 28019-6 633-195 4261 310 4567 1409 853 1426 1725-46 2619-464 281-354 1687-354 2268 0 10043 0 20086 0 30130-576 1136-562 993-562 2267 179 4605 784 17121 7409 8903 2775 4867 5439 5195 8115 0 6682 8223 7841-4498 7844-8695 0-1617 128-1016-567-2475 0-10044 7-20087 13-30130 0-731 142-1948-426-2311-1364-873-1352-1672-262-2413 855-582 557-3563 533-4730-187-9070-2627-18442-4148-28068-407-2576-184-2056-1989-3962l-1195-1264c-354-373-300-259-300-775v-2864c-2424 220-4820 217-7188 0z" fill="none"/></g><g fill="none"><path stroke="#b7cbd8" d="m65226 47190l1522 21730"/><path d="m53321 113714c3100 755 6316 1176 9676 1184" stroke="#333"/></g><g stroke="#333"><path d="m58090 30773c2764-313 5528-312 8292 0 164 18 300 134 300 299v3847c0 165-136 280-300 299-2613 303-5367 322-8292 0-164-18-300-134-300-299v-3847c0-165 136-281 300-299z" fill="#fefefe"/><g fill="none"><g stroke-linecap="round"><path d="m58492 31352v543"/><path d="m59241 31295v872"/><path d="m59990 31249v1190"/><path d="m61487 31199v1784"/><path d="m60738 31218l1 1522"/><path d="m62236 31192v2063"/><path d="m62985 31198v2329"/><path d="m63734 31218v2608"/><path d="m64482 31250v2821"/><path d="m65980 31352v3263"/><path d="m65231 31295v3048"/><path d="m65226 47201l1522 21730"/></g><path d="m53788 79761c2704 414 5582 658 8696 668"/><path d="m53321 113725c3100 755 6316 1176 9676 1184" stroke-linecap="round"/><path d="m65304 98134c1097 519 1097 878 2470 488-257-1430-1072-1222-2100-1713 404-1888 1410-3801 3059-4762-2944-352-3202 3059-4467 4767l-3549-31c-1271-1698-1537-5096-4467-4734 1632 930 2675 2878 3042 4719-796 467-1968 465-2022 1706 1222 603 1383 54 2512-479l2709 7700 2813-7661z"/></g></g></g><g fill="#333" fill-rule="nonzero"><path d="m78538 56087h1789v2592h262v1030h-344v-685h-1945v685h-344v-1030h225c238-357 357-1078 357-2163v-429m1399 344h-1025v151c0 250-23 592-68 1027-45 434-133 791-265 1070h1358v-2248"/><path d="m80931 57594c0-486 131-868 393-1144 262-275 599-412 1014-412 271 0 515 64 733 194 218 129 384 309 498 541 114 231 172 494 172 787 0 298-61 564-181 799-120 235-291 413-511 533-221 121-458 181-713 181-277 0-524-67-742-200-218-134-383-315-495-546-112-231-168-475-168-733m402 7c0 354 95 632 285 835 190 203 428 305 715 305 293 0 533-103 722-308 189-205 284-496 284-874 0-238-41-447-122-624-80-178-198-316-354-414-156-98-330-147-523-147-275 0-512 94-710 283-198 189-297 503-297 944"/><path d="m84232 59024v-2937h583l694 2079c64 193 111 338 140 435 34-107 86-264 158-471l706-2043h521v2937h-373v-2457l-858 2457h-350l-848-2502v2502h-373"/><path d="m87335 59024l1127-2937h427l1196 2937h-442l-340-890h-1237l-318 890h-413m845-1206h1001l-306-814c-92-248-162-452-211-614-40 192-94 380-162 566l-322 862"/><path d="m90402 56087h389v2592h973v-2592h389v2592h973v-2592h389v2937h-3113z"/><path d="m94170 59024v-2937h389v1210h1518v-1210h390v2937h-390v-1383h-1518v1383z"/><path d="m97124 59024v-2937h2121v344h-1732v903h1621v344h-1621v1001h1801v345z"/><path d="m99860 59024v-2937h2121v344h-1731v903h1620v344h-1620v1001h1800v345z"/><path d="m98679 44230l389 98c-81 319-227 562-438 730-212 167-470 251-776 251-316 0-573-64-771-193-198-129-349-315-452-559-103-245-155-507-155-787 0-306 58-573 175-800 117-228 283-401 498-519 216-119 453-177 711-177 294 0 541 74 741 224 200 150 340 360 418 630l-381 91c-68-214-167-370-296-467-129-97-292-146-488-146-225 0-414 54-565 162-151 108-258 254-319 435-61 183-92 371-92 565 0 249 36 467 109 653 72 187 185 326 338 418 153 92 319 138 497 138 218 0 401-63 551-188 151-126 252-312 306-559"/><path d="m99570 42323h389v1251h700c459 0 760 85 905 255 144 170 217 362 217 578 0 227-78 426-233 597-154 171-441 256-862 256h-1116v-2937m389 2605h709c243 0 420-41 529-123 111-82 165-214 165-394 0-122-33-226-100-308-66-83-152-136-257-158-105-23-281-35-527-35h-519v1018m2174-2605h390v2937h-390v-2937"/><path d="m103181 45260v-2937h1109c195 0 344 9 447 28 144 24 265 70 363 137 98 67 176 162 236 283 59 121 89 254 89 400 0 249-80 460-239 632-158 173-446 259-862 259h-753v1198h-390m390-1542h759c251 0 429-47 535-141 105-93 158-224 158-395 0-122-31-227-93-315-62-87-144-145-246-174-65-17-186-26-362-26h-751v1051"/><path d="m105708 43830c0-486 131-868 393-1143 262-276 600-413 1014-413 271 0 515 65 733 194 218 129 384 310 498 541 114 231 172 494 172 787 0 298-60 564-181 799-120 235-290 413-510 533-221 121-459 181-714 181-277 0-524-67-742-200-217-133-383-315-495-546-112-231-168-475-168-733m402 7c0 354 95 632 285 835 190 203 429 305 716 305 292 0 532-103 722-308 188-205 283-496 283-873 0-239-41-448-121-625-81-178-199-316-354-414-156-98-331-147-524-147-275 0-511 94-710 283-198 189-297 503-297 944"/><path d="m109026 45260v-2937h2121v344h-1732v903h1621v345h-1621v1000h1801v345z"/><path d="m112885 42323h595v1251c132-14 221-47 268-102 46-55 119-208 216-458 122-318 246-516 370-593 123-78 321-117 594-117 14 0 42 0 86-2v439l-84-2c-122 0-210 15-267 45-56 30-101 76-136 138-34 61-86 188-153 379-37 102-76 187-118 255-42 69-116 133-223 193 132 37 241 113 327 226 86 114 180 274 283 481l400 804h-697l-353-756c-5-11-17-32-34-62-7-11-31-57-74-138-75-145-136-236-184-272-49-36-122-55-221-56v1284h-595v-2937"/><path d="m115258 43809c0-299 45-551 134-755 67-149 158-284 274-403 115-119 242-207 379-265 183-77 395-116 634-116 433 0 779 134 1040 403 260 269 390 643 390 1123 0 475-130 847-387 1115-258 268-603 402-1035 402-437 0-785-133-1042-400-258-267-387-635-387-1104m611-20c0 333 77 586 231 758 154 172 349 258 586 258 237 0 431-86 584-256 151-171 227-427 227-768 0-337-73-588-222-754-148-166-344-249-589-249-245 0-443 84-592 252-150 168-225 421-225 759"/><path d="m118990 43123l-579-136c125-478 478-717 1061-717 344 0 605 75 781 227 175 152 263 330 263 536 0 140-41 266-121 380-80 113-200 212-360 298 194 67 341 161 438 284 97 123 145 273 145 453 0 258-94 467-283 626-189 159-472 239-849 239-307 0-550-51-727-153-178-103-311-295-401-577l542-176c56 177 131 292 224 344 93 52 208 78 344 78 188 0 324-40 411-121 85-82 128-175 128-280 0-120-48-218-146-292-96-74-242-111-437-111h-135v-443h68c181 0 320-41 416-122 96-81 144-190 144-325 0-107-39-197-117-271-78-73-189-110-334-110-249 0-407 123-476 369"/><path d="m121154 42323h595v1173h792c373 0 643 88 811 263 167 175 251 385 251 629 0 201-51 371-153 511-101 141-217 236-347 286-130 50-318 75-564 75h-1385v-2937m595 2441h576c187 0 316-9 388-27 72-18 137-59 194-122 56-64 84-142 84-235 0-134-48-232-145-294-97-62-261-94-495-94h-602v772"/><path d="m124090 45260v-2937h2174v496h-1579v653h1468v496h-1468v796h1637v496z"/><path d="m77972 54702v-7983h2422l1431 5445 1414-5445h2427v7983h-1494l-6-6284-1574 6284h-1554l-1566-6284-6 6284z"/><path d="m86948 50759c0-814 123-1498 366-2052 180-407 429-773 743-1096 314-323 658-563 1032-721 498-210 1072-316 1722-316 1179 0 2119 366 2827 1096 706 733 1059 1749 1059 3052 0 1291-351 2302-1052 3031-700 730-1639 1094-2811 1094-1188 0-2134-362-2834-1089-701-724-1052-1724-1052-2999m1661-54c0 905 210 1591 628 2059 418 467 950 701 1593 701 645 0 1173-233 1587-695 412-465 619-1160 619-2087 0-916-201-1600-604-2050-402-451-935-676-1602-676-665 0-1202 228-1609 684-407 457-612 1144-612 2064"/><path d="m96252 46719h5592v7983h-1617v-6634h-2397v3408c0 976-33 1658-98 2043-65 386-223 689-476 905-253 215-647 323-1184 323-189 0-531-19-1029-54v-1251l360 6c337 0 565-45 680-136 117-91 175-314 175-669l-6-1371v-4553"/><path d="m103167 50759c0-814 123-1498 366-2052 181-407 430-773 744-1096 314-323 658-563 1031-721 498-210 1072-316 1723-316 1178 0 2118 366 2826 1096 706 733 1059 1749 1059 3052 0 1291-351 2302-1051 3031-701 730-1639 1094-2812 1094-1187 0-2133-362-2834-1089-700-724-1052-1724-1052-2999m1662-54c0 905 210 1591 628 2059 418 467 949 701 1592 701 645 0 1173-233 1587-695 413-465 619-1160 619-2087 0-916-201-1600-604-2050-401-451-935-676-1602-676-665 0-1202 228-1609 684-407 457-611 1144-611 2064"/><path d="m112197 46719h1617v3401c358-37 602-128 728-279 126-149 323-563 587-1243 333-864 669-1403 1006-1613 334-210 871-316 1614-316 38 0 116-2 235-6v1193l-229-5c-331 0-572 41-725 122-152 82-275 207-369 374-95 167-235 511-419 1031-98 277-204 508-319 693-114 186-316 361-606 524 359 101 654 307 888 616 234 308 491 743 770 1306l1087 2185h-1896l-957-2055c-15-30-46-85-93-169-18-28-85-154-200-375-205-394-372-640-502-738-132-99-331-149-600-153v3490h-1617v-7983"/><path d="m118645 50759c0-814 123-1498 366-2052 180-407 430-773 744-1096 314-323 657-563 1031-721 498-210 1072-316 1723-316 1178 0 2118 366 2826 1096 706 733 1059 1749 1059 3052 0 1291-351 2302-1051 3031-701 730-1639 1094-2812 1094-1188 0-2133-362-2834-1089-701-724-1052-1724-1052-2999m1662-54c0 905 209 1591 628 2059 418 467 949 701 1592 701 645 0 1173-233 1587-695 413-465 619-1160 619-2087 0-916-201-1600-604-2050-401-451-935-676-1602-676-665 0-1202 228-1609 684-407 457-611 1144-611 2064"/></g></svg>