<svg xmlns="http://www.w3.org/2000/svg" width="1000" height="900" viewBox="0 0 4051400 3646257" shape-rendering="geometricPrecision" image-rendering="optimizeQuality" fill-rule="evenodd" clip-rule="evenodd"><g fill="#d6f0c8"><path d="m2495731 1162440h-791293c-104450 0-189908-85458-189908-189908v-21104c0-104450 85458-189908 189908-189908h791293c104450 0 189908 85458 189908 189908v21104c0 104450-85458 189908-189908 189908"/><path d="m2963856 2945402h-205739c-104450 0-189908-85458-189908-189908v-21104c0-104450 85458-189908 189908-189908h205739c104450 0 189908 85458 189908 189908v21104c0 104450-85458 189908-189908 189908"/><path d="m1994548 1343036h-791293c-104450 0-189908-85458-189908-189908v-21104c0-104450 85458-189907 189908-189907h791293c104450 0 189908 85457 189908 189907v21104c0 104450-85458 189908-189908 189908"/></g><path d="m2922347 1513388c-478110-228346-602556 100143-1066724 11466-9874 39093-19833 95191-19833 126834 0 302402 0 634476 0 936879 20335 198616 114509 274828 261472 296765h591948c167616-25077 270961-132805 261472-326439v-880431c-7525-58533-15474-113162-28335-165074" fill="#f8fbf7"/><g fill="none" stroke="#333" stroke-width="4486.05"><path d="m2046420 1155830h693630v85980h-693630z"/><path d="m2025902 1112845h734667v30991c0 6599-5397 11996-11996 11996h-710675c-6599 0-11996-5397-11996-11996v-30991z"/><path stroke-linecap="round" d="m2740050 2384939v-496773"/><path d="m2046420 1241807c-139677 97337-216162 285522-210630 438876v916733c21610 167446 99509 273513 261472 287916h591948c156006-24814 249668-114064 261472-287916v-916733c-21448-206991-77790-370543-210632-438876"/><g stroke-linecap="round"><path d="m2071835 1664248c221536 35912 444267 36065 668215 0"/><path d="m2071835 2634909c111190 18025 222682 27040 334475 26991 110946-49 222193-9027 333740-26991"/></g><path d="m2401292 2249406c15425-9473 11547-15656 16355-38303 41941-197607 186052-59443 102160-214197-20961 34480-2349 34033-19861 63032-25349 7919-166740 7866-192202-36-17521-29385 1645-29464-19707-63231-60256 114661 10041 81477 47618 107757 49997 34967 45562 105681 65637 144978z"/><path d="m2380598 2252898c3515-42024-20525-113753-58180-137737l18413 159819 39767-22082z"/><path d="m2484019 2114599c-38058 27858-52929 87637-59470 134598l43560 22472 15910-157070z"/><path d="m2464330 2312340c5498-66185-128343-61591-116998 847l116998-847z"/></g><g fill="#333" fill-rule="nonzero"><path d="m1120579 1074590h8166v53838l36194-53838h8909v67987h-8166v-53696l-36100 53696h-9003z"/><path d="m1184942 1123396l8546-2184c649 3292 2389 6584 5207 9875 2832 3293 6567 4937 11236 4937 4747 0 8498-1217 11252-3671 2738-2437 4115-5396 4115-8863 0-3733-1441-6724-4336-8925-2880-2215-6822-3323-11791-3323h-4289v-7882c4116 0 7265-236 9448-712 2185-474 4115-1692 5793-3656 1678-1945 2517-4178 2517-6678 0-2943-1140-5522-3435-7707-2279-2183-5380-3276-9274-3276-3419 0-6330 855-8736 2581-2406 1724-4068 4003-5001 6836-918 2832-1377 4953-1377 6345l-8640-1993c2120-14433 10065-21650 23816-21650 6632 0 11871 1851 15748 5539 3877 3687 5824 7992 5824 12930 0 6330-2992 11236-8973 14717 3466 966 6361 2928 8704 5873 2325 2959 3498 6488 3498 10602 0 5855-2264 10747-6791 14687-4526 3940-10524 5919-17993 5919-12851 0-21207-6774-25068-20321"/><path d="m1272189 1074590h13768v28960c3055-316 5128-1092 6204-2373 1076-1267 2753-4796 5001-10587 2832-7360 5697-11950 8562-13738 2849-1788 7422-2690 13753-2690 315 0 981-15 1993-48v10161l-1947-48c-2817 0-4873 348-6171 1045-1298 696-2343 1756-3149 3181-808 1423-1995 4351-3562 8784-838 2358-1741 4320-2722 5902-964 1583-2690 3070-5159 4463 3055 854 5571 2611 7565 5239 1994 2627 4178 6329 6551 11125l9260 18611h-16143l-8151-17503c-127-254-395-728-791-1440-158-238-728-1314-1709-3197-1741-3356-3166-5445-4274-6284-1123-838-2815-1265-5111-1297v29721h-13768v-67987"/><path d="m1327105 1108995c0-6931 1043-12756 3116-17472 1536-3466 3656-6584 6331-9337 2674-2755 5602-4796 8784-6140 4241-1788 9131-2692 14669-2692 10034 0 18042 3118 24073 9339 6012 6234 9019 14892 9019 25985 0 10999-2990 19608-8957 25812-5966 6219-13959 9322-23945 9322-10111 0-18167-3086-24133-9274-5967-6173-8957-14687-8957-25543m14147-460c0 7707 1789 13548 5349 17536 3560 3972 8087 5965 13563 5965 5492 0 9986-1976 13515-5918 3514-3957 5271-9876 5271-17772 0-7802-1709-13626-5144-17456-3418-3846-7960-5761-13642-5761-5666 0-10239 1947-13705 5824-3466 3894-5207 9748-5207 17582"/><path d="m1403812 1142577v-67987h22013c8339 0 13767 331 16300 1012 3893 1029 7153 3245 9780 6663 2627 3419 3942 7834 3942 13246 0 4178-760 7676-2264 10524-1519 2849-3433 5080-5760 6710-2327 1615-4700 2691-7106 3213-3276 649-8008 981-14212 981h-8926v25638h-13767m13767-56499v19371h7486c5397 0 8989-363 10808-1075 1820-712 3245-1820 4274-3356 1029-1519 1551-3276 1551-5301 0-2485-728-4526-2168-6141-1457-1614-3277-2626-5508-3039-1630-300-4906-459-9844-459h-6599"/><path d="m1463048 1108995c0-6931 1044-12756 3117-17472 1535-3466 3656-6584 6331-9337 2674-2755 5602-4796 8784-6140 4241-1788 9130-2692 14669-2692 10034 0 18041 3118 24072 9339 6013 6234 9020 14892 9020 25985 0 10999-2991 19608-8957 25812-5966 6219-13959 9322-23945 9322-10112 0-18167-3086-24133-9274-5967-6173-8958-14687-8958-25543m14148-460c0 7707 1788 13548 5349 17536 3560 3972 8087 5965 13563 5965 5492 0 9986-1976 13515-5918 3514-3957 5271-9876 5271-17772 0-7802-1710-13626-5144-17456-3419-3846-7960-5761-13642-5761-5666 0-10239 1947-13705 5824-3466 3894-5207 9748-5207 17582"/><path d="m1539755 1074590h27189c5397 0 9400 221 12043 663 2659 460 5017 1394 7106 2803 2089 1423 3830 3307 5222 5666 1392 2356 2089 5015 2089 7943 0 3166-854 6093-2563 8736-1709 2658-4036 4637-6964 5966 4130 1219 7296 3277 9527 6188 2216 2913 3324 6331 3324 10272 0 3101-713 6108-2153 9036-1440 2928-3402 5270-5902 7027-2486 1740-5555 2817-9212 3228-2279 238-7801 396-16553 459h-23153v-67987m13768 11298v15669h8989c5334 0 8656-80 9954-238 2343-269 4195-1075 5539-2421 1346-1346 2011-3101 2011-5286 0-2104-586-3798-1742-5111-1154-1315-2880-2106-5159-2375-1361-158-5269-238-11710-238h-7882m0 26968v18231h12724c4938 0 8087-142 9416-411 2041-380 3704-1282 4986-2722 1281-1456 1930-3370 1930-5793 0-2056-490-3782-1488-5205-981-1425-2421-2469-4288-3118-1868-649-5935-982-12186-982h-11094"/><path d="m1608613 1074590h13769v27157h18342c8640 0 14893 2026 18768 6077 3878 4051 5810 8909 5810 14575 0 4637-1172 8577-3531 11822-2341 3260-5015 5460-8039 6615-3007 1155-7358 1741-13041 1741h-32078v-67987m13769 56497h13340c4322 0 7328-205 8990-616 1662-411 3165-1361 4479-2834 1313-1471 1962-3275 1962-5428 0-3101-1123-5365-3356-6805-2246-1440-6060-2169-11473-2169h-13942v17852"/><path d="m1676586 1142577v-67987h50326v11488h-36558v15099h33993v11489h-33993v18421h37887v11490z"/><path d="m1740585 1074590h46054v11488h-32285v56499h-13769z"/><path d="m1789646 1108995c0-6931 1044-12756 3117-17472 1535-3466 3656-6584 6331-9337 2674-2755 5601-4796 8784-6140 4240-1788 9130-2692 14669-2692 10034 0 18041 3118 24072 9339 6013 6234 9020 14892 9020 25985 0 10999-2991 19608-8957 25812-5967 6219-13959 9322-23945 9322-10112 0-18167-3086-24134-9274-5966-6173-8957-14687-8957-25543m14148-460c0 7707 1788 13548 5349 17536 3560 3972 8086 5965 13562 5965 5493 0 9986-1976 13515-5918 3514-3957 5271-9876 5271-17772 0-7802-1709-13626-5144-17456-3418-3846-7959-5761-13642-5761-5665 0-10238 1947-13704 5824-3467 3894-5207 9748-5207 17582"/><path d="m1120199 1248657v-67987h13484l16078 48126c1488 4479 2564 7834 3245 10065 774-2469 1993-6108 3639-10904l16364-47287h12043v67987h-8640v-56878l-19846 56878h-8103l-19624-57922v57922h-8640"/><path d="m1196733 1215565c0-11267 3038-20099 9099-26477 6062-6377 13880-9558 23471-9558 6282 0 11931 1503 16980 4495 5033 2991 8879 7169 11521 12534 2644 5349 3973 11426 3973 18215 0 6885-1393 13056-4178 18484-2785 5445-6726 9560-11822 12344-5112 2802-10620 4195-16522 4195-6409 0-12123-1551-17171-4637-5033-3087-8863-7296-11457-12645-2596-5334-3894-10983-3894-16950m9305 159c0 8182 2200 14623 6599 19323 4400 4701 9923 7058 16570 7058 6774 0 12328-2374 16712-7121 4368-4748 6553-11491 6553-20226 0-5523-935-10350-2802-14465-1868-4114-4605-7311-8198-9575-3608-2262-7644-3402-12123-3402-6361 0-11837 2184-16426 6552-4589 4367-6885 11648-6885 21856"/><path d="m1277317 1180670h42446v67987h-9022v-60011h-24403v35022c0 7121-333 12328-997 15636-665 3324-2074 5887-4209 7738-2137 1836-4859 2755-8135 2755-1995 0-4384-412-7169-1236l1614-7976c1471 760 2738 1140 3781 1140 2027 0 3562-760 4575-2294 1012-1536 1519-5144 1519-10841v-47920"/><path d="m1331852 1215565c0-11267 3039-20099 9100-26477 6062-6377 13879-9558 23471-9558 6282 0 11931 1503 16979 4495 5034 2991 8880 7169 11522 12534 2644 5349 3973 11426 3973 18215 0 6885-1394 13056-4178 18484-2786 5445-6726 9560-11822 12344-5113 2802-10620 4195-16522 4195-6409 0-12123-1551-17171-4637-5034-3087-8863-7296-11458-12645-2596-5334-3894-10983-3894-16950m9306 159c0 8182 2200 14623 6599 19323 4399 4701 9923 7058 16570 7058 6774 0 12328-2374 16712-7121 4368-4748 6553-11491 6553-20226 0-5523-935-10350-2803-14465-1867-4114-4604-7311-8197-9575-3608-2262-7644-3402-12123-3402-6361 0-11837 2184-16426 6552-4590 4367-6885 11648-6885 21856"/><path d="m1408655 1180670h9020v29815c4099 0 6995-807 8657-2406 1677-1598 3798-5428 6394-11505 1882-4478 3433-7628 4668-9464 1219-1851 2960-3402 5222-4652 2247-1250 4748-1884 7471-1884 3464 0 5286 33 5476 96v7786c-317 0-918-17-1805-48-998-31-1599-48-1820-48-2865 0-5000 697-6394 2089-1424 1394-3039 4368-4873 8911-2279 5760-4211 9400-5793 10904-1568 1488-3467 2690-5650 3592 4383 1204 8719 5270 12993 12171l14006 22630h-11174l-11409-18421c-3118-5111-5730-8625-7819-10524-2104-1916-4811-2865-8150-2865v31810h-9020v-67987"/><path d="m1456322 1248657l26081-67987h9891l27679 67987h-10238l-7866-20606h-28630l-7373 20606h-9544m19561-27917h23169l-7091-18848c-2135-5729-3750-10460-4873-14196-935 4431-2185 8784-3751 13088l-7454 19956"/><path d="m2232389 755989h41401v60011h6077v23835h-7977v-15859h-45008v15859h-7976v-23835h5223c5507-8262 8260-24957 8260-50073v-9938m32381 7976h-23739v3481c0 5793-523 13722-1567 23770-1029 10051-3087 18311-6125 24784h31431v-52035"/><path d="m2287764 790884c0-11267 3038-20099 9099-26476 6062-6378 13880-9559 23471-9559 6282 0 11931 1503 16979 4495 5034 2991 8880 7169 11522 12534 2644 5349 3973 11426 3973 18215 0 6885-1393 13056-4178 18484-2786 5445-6726 9560-11822 12344-5113 2803-10620 4195-16522 4195-6409 0-12123-1551-17171-4637-5034-3087-8863-7296-11458-12645-2595-5334-3893-10983-3893-16950m9305 159c0 8182 2200 14623 6599 19323 4399 4701 9923 7058 16570 7058 6774 0 12328-2373 16712-7121 4368-4748 6553-11490 6553-20226 0-5522-935-10349-2803-14465-1867-4113-4604-7310-8197-9574-3608-2263-7644-3402-12123-3402-6361 0-11837 2183-16426 6551-4590 4368-6885 11649-6885 21856"/><path d="m2364186 823976v-67987h13484l16078 48126c1488 4479 2564 7834 3245 10065 774-2468 1993-6108 3640-10904l16363-47287h12044v67987h-8640v-56878l-19847 56878h-8103l-19623-57922v57922h-8641"/><path d="m2436020 823976l26080-67987h9892l27679 67987h-10239l-7865-20605h-28630l-7374 20605h-9543m19561-27916h23169l-7091-18849c-2136-5729-3751-10460-4874-14195-934 4430-2184 8783-3750 13087l-7454 19957"/><path d="m2507000 755989h9020v60011h22505v-60011h9020v60011h22505v-60011h9020v67987h-72070z"/><path d="m2594216 823976v-67987h9020v28011h35133v-28011h9022v67987h-9022v-32000h-35133v32000z"/><path d="m2716154 823976v-67987h-30133c-6062 0-10651 617-13800 1836-3149 1219-5666 3371-7549 6457-1882 3085-2832 6503-2832 10239 0 4827 1566 8894 4684 12202 3117 3308 7928 5397 14449 6298-2389 1140-4194 2279-5428 3387-2627 2405-5113 5428-7438 9052l-11759 18516h11236l8990-14149c2611-4098 4779-7216 6472-9383 1709-2168 3228-3672 4574-4543 1329-854 2707-1456 4099-1803 1012-207 2673-317 5000-317h10414v30195h9021m-9021-37981h-19308c-4114 0-7311-428-9621-1282-2311-839-4068-2200-5255-4084-1202-1867-1803-3892-1803-6092 0-3213 1154-5872 3481-7945 2327-2074 5998-3102 11015-3102h21491v22505"/><path d="m2784728 823976v-67987h-30133c-6062 0-10651 617-13800 1836-3150 1219-5666 3371-7549 6457-1883 3085-2832 6503-2832 10239 0 4827 1566 8894 4683 12202 3118 3308 7929 5397 14450 6298-2390 1140-4195 2279-5428 3387-2628 2405-5113 5428-7438 9052l-11760 18516h11237l8990-14149c2610-4098 4779-7216 6471-9383 1710-2168 3229-3672 4575-4543 1329-854 2706-1456 4098-1803 1013-207 2674-317 5001-317h10414v30195h9021m-9021-37981h-19308c-4114 0-7311-428-9621-1282-2311-839-4068-2200-5255-4084-1202-1867-1804-3892-1804-6092 0-3213 1155-5872 3482-7945 2326-2074 5997-3102 11014-3102h21492v22505"/><path d="m1232181 974407l36133 11099c-5550 20345-14797 35444-27702 45339-12905 9849-29250 14796-49082 14796-24561 0-44736-8387-60566-25164-15786-16776-23701-39703-23701-68825 0-30756 7958-54673 23831-71708 15872-17033 36778-25551 62673-25551 22627 0 40995 6711 55104 20089 8431 7915 14711 19270 18927 34112l-36907 8774c-2195-9549-6755-17120-13680-22669-6968-5549-15399-8302-25293-8302-13722 0-24864 4905-33380 14754-8560 9808-12819 25723-12819 47748 0 23314 4215 39962 12604 49855 8431 9937 19357 14884 32820 14884 9937 0 18498-3141 25638-9464 7140-6323 12302-16216 15400-29767"/><path d="m1301394 857749h37424v73815h49855c13077 0 24347 1806 33768 5377 9419 3570 17292 9937 23614 19142 6281 9205 9421 19787 9421 31745 0 12517-3269 23272-9808 32349-6581 9032-13850 15012-21895 17936-8000 2969-19743 4431-35187 4431h-87192v-184795m37424 153566h36391c11571 0 19657-559 24260-1677 4561-1119 8646-3700 12217-7700 3571-4002 5334-8861 5334-14626 0-8174-2925-14324-8733-18411-5850-4087-16389-6108-31573-6108h-37896v48522m138080-153566h37423v184795h-37423v-184795"/><path d="m1553036 857749h73900c14669 0 25551 603 32734 1806 7227 1247 13637 3785 19314 7615 5680 3871 10411 8990 14196 15399 3786 6409 5679 13636 5679 21594 0 8603-2324 16561-6970 23745-4644 7225-10968 12603-18926 16217 11227 3312 19829 8903 25896 16818 6022 7915 9032 17207 9032 27918 0 8431-1935 16603-5850 24561-3915 7959-9249 14324-16045 19099-6753 4733-15098 7658-25035 8776-6194 645-21206 1075-44994 1247h-62931v-184795m37422 30713v42586h24434c14496 0 23530-215 27057-646 6366-731 11399-2925 15055-6581 3656-3656 5463-8431 5463-14367 0-5722-1591-10324-4732-13895-3140-3570-7829-5720-14023-6453-3699-429-14324-644-31831-644h-21423m0 73299v49554h34585c13422 0 21981-387 25594-1118 5549-1033 10067-3484 13551-7399 3484-3958 5247-9162 5247-15745 0-5591-1332-10280-4043-14152-2667-3871-6581-6709-11657-8474-5076-1763-16131-2666-33122-2666h-30155"/><path d="m1725271 951265c0-18841 2839-34671 8475-47489 4172-9421 9936-17895 17205-25379 7270-7486 15227-13035 23875-16691 11527-4860 24820-7313 39875-7313 27272 0 49038 8474 65427 25379 16346 16949 24518 40478 24518 70633 0 29895-8130 53296-24346 70158-16217 16906-37940 25337-65083 25337-27488 0-49383-8389-65600-25207-16215-16777-24346-39919-24346-69428m38456-1247c0 20948 4860 36821 14540 47661 9677 10797 21980 16217 36864 16217 14927 0 27143-5377 36735-16088 9549-10755 14324-26842 14324-48307 0-21206-4646-37036-13980-47446-9290-10453-21636-15658-37079-15658-15400 0-27831 5290-37252 15830-9420 10582-14152 26497-14152 47791"/><path d="m1933768 1042544v-184795h59835c22668 0 37423 903 44306 2753 10581 2796 19442 8818 26584 18110 7140 9291 10710 21292 10710 36004 0 11355-2064 20863-6151 28606-4130 7741-9335 13808-15658 18237-6323 4389-12776 7314-19313 8733-8905 1763-21767 2667-38628 2667h-24262v69685h-37423m37423-153566v52651h20347c14668 0 24432-988 29379-2925 4947-1935 8818-4946 11614-9119 2797-4130 4216-8904 4216-14410 0-6753-1979-12302-5893-16690-3957-4389-8904-7142-14969-8260-4431-817-13335-1247-26756-1247h-17938"/><path d="m2094775 951265c0-18841 2838-34671 8474-47489 4172-9421 9937-17895 17206-25379 7270-7486 15227-13035 23875-16691 11527-4860 24819-7313 39875-7313 27272 0 49038 8474 65427 25379 16346 16949 24518 40478 24518 70633 0 29895-8130 53296-24346 70158-16217 16906-37940 25337-65083 25337-27488 0-49383-8389-65600-25207-16216-16777-24346-39919-24346-69428m38456-1247c0 20948 4860 36821 14539 47661 9678 10797 21981 16217 36865 16217 14927 0 27142-5377 36735-16088 9549-10755 14324-26842 14324-48307 0-21206-4646-37036-13980-47446-9291-10453-21636-15658-37079-15658-15400 0-27831 5290-37252 15830-9421 10582-14152 26497-14152 47791"/><path d="m2344825 1042544v-153566h-54717v-31229h146598v31229h-54457v153566z"/><path d="m2461441 857749h37424v78718c8301-860 13937-2968 16862-6452 2924-3441 7484-13034 13592-28777 7700-20003 15486-32477 23272-37339 7743-4860 20174-7312 37381-7312 860 0 2666-43 5419-129v27617l-5290-129c-7656 0-13249 945-16777 2838-3527 1893-6365 4775-8559 8646-2195 3872-5421 11830-9679 23873-2279 6411-4732 11745-7399 16046-2623 4302-7313 8345-14022 12130 8300 2324 15140 7098 20561 14239 5419 7140 11356 17207 17808 30240l25164 50586h-43875l-22154-47576c-344-688-1075-1978-2150-3913-431-646-1979-3571-4646-8690-4732-9120-8603-14798-11615-17077-3053-2280-7656-3442-13893-3527v80783h-37424v-184795"/><path d="m2784918 1042544h-40306l-15958-42068h-74116l-15357 42068h-39574l71750-184795h39532l74029 184795m-68394-73299l-25682-68394-24948 68394h50630"/></g></svg>