<svg xmlns="http://www.w3.org/2000/svg" width="1000" height="900" viewBox="0 0 159071 143164" shape-rendering="geometricPrecision" image-rendering="optimizeQuality" fill-rule="evenodd" clip-rule="evenodd"><g fill="#d6f0c8"><path d="m72472 70664h-31068c-4101 0-7457-3356-7457-7457v-828c0-4101 3356-7457 7457-7457h31068c4101 0 7457 3356 7457 7457v828c0 4101-3356 7457-7457 7457"/><path d="m108215 103439h-31069c-4101 0-7456-3355-7456-7456v-829c0-4101 3355-7456 7456-7456h31069c4101 0 7456 3355 7456 7456v829c0 4101-3355 7456-7456 7456"/><path d="m64684 63396h-8078c-4101 0-7457-3355-7457-7457v-828c0-4101 3356-7457 7457-7457h8078c4101 0 7456 3356 7456 7457v828c0 4102-3355 7457-7456 7457"/></g><g stroke-width="176.14"><g stroke="#333"><g fill="#ebecec"><path d="m71294 71112c-8395 1201-11811 4010-12471 9868-659 5858 4315 12472 14045 10836 9730-1637 12293-5348 17192-10836 4898-5489-10371-11068-18766-9868z"/><path d="m101496 69691c8122 1146 14473 5442 15111 11030 638 5588-5463 10858-15111 11029-9649 172-15292-4292-15111-11029 180-6737 6988-12175 15111-11030z"/></g><g fill="#f3b985"><path d="m82673 55908c3607-3259 11941-9537 17323-3321 4703 5433 553 13762-819 17459-3244 8739-11647 9437-16937 4755-5290-4683-6618-12522 433-18893z"/><path d="m92680 72444c8395 1201 14959 5704 15619 11562 659 5859-5646 11383-15619 11563-9972 179-15804-4500-15618-11563 187-7062 7223-12763 15618-11562z"/></g></g><g fill="none" stroke="#fefefe"><path d="m89958 80020c5-21-355-288-342-352 5-20 458-164 462-186 38-183 41-206 45-214 329-794 1271-349 1882-243l11 718-785 80c139 447 1016 1207 1328 1816 457 891 83 2212 1232 1855 491-764-22-1337 1237-2213 691-482 1889-488 2252 461l-775 272 453 411c-18 745 374 1349 62 2212-204 273-143-70-447 487l-444-209 7 655c-350 223-179-69-627 363-417 402-686 50-1499 955-573 638-1837 1592-565 2373 255 156 84 137-290 136l-1587-6c-593-3-559 27-23-183l742-290c168-1051-520-962-470-1544 22-247 450-796 576-1390 163-778 513-1868-81-2560-1059-1232-1572 718-2153 1372-185 208-251 225-413-13-326-475-314-1452-239-1936 135-874 399-1128 751-1845-120-577-435-405-300-982z" stroke-linejoin="round" stroke-linecap="round"/><path d="m87369 84526c-266-606-327 27-301-779 10-327 36-347-162-525 689-140 212-473 1261-591 674 1031 856 1319 915 2640 1437 598 1532-329 2012-1109 986-1606 1215 201 1017 920-547 1983-554 2315-1829 3093-451 276-862 968-226 1384 115 75-153 95-299 93l-1214-19c-575-9 299-146 748-222 84-1216-1084-1202-1735-2022-718-903-610-1861-187-2863z"/></g></g><g fill="#333" fill-rule="nonzero"><path d="m42439 67937h354v1171c161 0 275-32 340-94 66-63 149-214 251-452 74-176 135-300 183-372 48-72 116-133 205-182 88-50 187-74 293-74 137 0 208 1 215 3v306c-12 0-36-1-70-2-40-1-63-2-72-2-112 0-196 28-251 82-56 55-119 172-191 350-90 226-166 369-228 428-61 59-136 106-222 141 173 48 343 207 511 478l550 889h-439l-448-724c-123-200-225-338-307-413-83-75-189-112-320-112v1249h-354v-2670"/><path d="m44374 67937h356l874 1641 760-1641h348l-1000 2077c-125 260-227 430-307 510-81 80-195 120-344 120-91 0-202-21-334-63v-302c94 54 194 82 300 82 85 0 159-28 222-84 62-55 131-181 206-378l-1081-1962"/><path d="m47013 70607v-2670h1008c177 0 313 9 406 26 132 22 242 63 330 124 89 62 161 147 215 257 54 110 81 231 81 364 0 226-72 418-217 575-144 157-406 235-784 235h-685v1089h-354m354-1402h690c229 0 390-42 487-127 95-86 143-205 143-360 0-111-28-207-84-286-57-80-131-132-223-158-60-15-170-23-330-23h-683v954"/><path d="m50225 53902h1625v2356h239v936h-313v-623h-1767v623h-313v-936h205c216-325 324-980 324-1966v-390m1271 313h-932v136c0 228-20 539-61 934-41 394-122 719-241 973h1234v-2043"/><path d="m52399 55272c0-443 119-790 357-1040 238-250 545-375 922-375 247 0 468 59 667 176 197 118 348 282 452 492 104 210 156 449 156 716 0 270-55 512-164 725-109 214-264 376-464 485-201 110-417 165-649 165-252 0-476-61-674-182-198-122-348-287-450-497-102-209-153-431-153-665m365 6c0 321 87 574 260 759 172 184 389 277 650 277 266 0 484-94 656-280 172-186 258-451 258-794 0-217-37-406-110-568-74-162-181-287-322-376-142-89-300-133-476-133-250 0-465 85-645 257-180 171-271 457-271 858"/><path d="m55400 56571v-2669h529l631 1889c59 176 101 308 128 395 30-97 78-240 143-428l642-1856h473v2669h-339v-2233l-779 2233h-319l-770-2274v2274h-339"/><path d="m58220 56571l1024-2669h388l1087 2669h-402l-309-809h-1124l-289 809h-375m768-1096h910l-279-740c-83-225-147-411-191-558-37 174-86 345-147 514l-293 784"/><path d="m61007 53902h354v2356h884v-2356h354v2356h884v-2356h354v2669h-2830z"/><path d="m64431 56571v-2669h355v1099h1379v-1099h354v2669h-354v-1257h-1379v1257z"/><path d="m67116 56571v-2669h1928v313h-1573v820h1472v313h-1472v910h1636v313z"/><path d="m69603 56571v-2669h1928v313h-1574v820h1473v313h-1473v910h1637v313z"/><path d="m47280 66679v-3030h-297c-465 0-791 69-982 208-191 137-515 550-976 1238l-1050 1584h-1752l885-1415c348-563 627-956 833-1181 208-226 468-429 778-606-673-106-1160-341-1459-706-299-365-449-801-449-1309 0-442 111-834 334-1176 223-341 517-570 882-687 365-116 910-176 1636-176h3086v7256h-1469m0-6029h-1144c-581 0-962 13-1145 38-182 27-341 117-473 269-131 152-197 350-197 594 0 256 64 458 191 609 126 150 288 243 484 280 196 35 597 54 1200 54h1084v-1844"/><path d="m50247 59423h1368v4831l2939-4831h1459v7256h-1368v-4753l-2938 4753h-1460v-7256m3750-2097h679c-39 447-198 800-473 1055-276 255-632 384-1069 384-439 0-796-129-1071-384-275-255-434-608-473-1055h679c24 233 105 410 247 530 141 120 347 179 618 179 268 0 474-59 616-179 142-120 223-297 247-530"/><path d="m57532 59423h1469v6030h2827v-6030h1470v6030h608v2807h-1226v-1581h-5148z"/><path d="m64610 63095c0-740 111-1361 333-1864 164-370 390-703 675-997 286-294 598-512 938-655 452-191 974-287 1565-287 1071 0 1926 332 2569 996 642 666 963 1589 963 2773 0 1174-319 2093-956 2755-637 664-1490 995-2555 995-1080 0-1939-329-2576-990-637-659-956-1567-956-2726m1510-49c0 823 191 1446 571 1872 380 423 863 636 1447 636 586 0 1066-211 1443-631 374-423 562-1054 562-1897 0-833-183-1454-549-1863-365-410-849-615-1456-615-604 0-1093 208-1462 622-370 415-556 1040-556 1876"/></g></svg>