<svg xmlns="http://www.w3.org/2000/svg" xml:space="preserve" width="100%" height="100%" version="1.1" style="shape-rendering:geometricPrecision; text-rendering:geometricPrecision; image-rendering:optimizeQuality; fill-rule:evenodd; clip-rule:evenodd"
viewBox="0 0 6000 10633">
 <defs>
  <style type="text/css">
   <![CDATA[.fil0 {fill:none}.fil4 {fill:#44718A}.fil1 {fill:#FADDB9}.fil3 {fill:#FEFEFE;fill-rule:nonzero}.fil2 {fill:#C9C7BD;fill-rule:nonzero}]]>
  </style>
 </defs>
   <rect class="fil0" width="6000" height="10633"/>
   <path class="fil1" d="M1039 4612l-234 -1865c36,-213 255,-184 293,-20l123 927 11 -3 -69 -1231c71,-128 253,-152 327,-10l52 1126 14 0 18 -1186c34,-217 327,-258 387,-15l10 1146 16 -1 45 -997c48,-265 331,-187 322,25l-27 868c50,9 87,44 100,100 0,301 0,602 0,903 -38,194 -147,378 -277,513l0 5741 -913 0 0 -5753c-90,-71 -155,-161 -198,-268z"/>
   <polygon class="fil2" points="1306,3957 2911,3373 2958,3503 1353,4088 "/>
   <path class="fil3" d="M2328 3355c-48,-12 -95,2 -138,25 -66,37 -117,98 -155,162l0 395c-252,38 -377,200 -413,442l24 0c35,-233 156,-387 403,-421l10 -1 0 -409c43,-72 94,-120 142,-147 39,-22 83,-39 126,-25l1 -21z"/>
   <path class="fil1" d="M2249 4774c85,-116 150,-253 178,-395l0 -903c-33,-146 -235,-150 -372,79l0 402c-250,34 -384,191 -416,456l-600 199c24,59 54,113 92,162l1118 0z"/>
   <path class="fil4" d="M4192 1367l1037 2850c11,30 -4,64 -34,75l-1667 606c-30,11 -64,-4 -75,-35l-1037 -2850c-11,-30 5,-64 35,-75l1666 -606c30,-11 64,5 75,35zm-806 1889l33 91c0,0 13,26 33,35 19,8 45,-2 45,-2 0,0 121,-47 160,3 38,50 -72,171 -96,266 -19,72 6,113 6,113l77 202c0,0 45,104 110,23 6,-6 51,-51 120,-215 72,-170 59,-146 320,-67 159,48 249,58 277,34 27,-22 -6,-88 -6,-88l-85 -229c0,0 -4,-18 -16,-27 -12,-10 -32,-12 -32,-12 0,0 -110,-1 -209,-19 -211,-39 -235,-77 -230,-97 11,-48 90,-66 144,-86 168,-61 247,-61 238,-142 -3,-28 -6,-47 -28,-111 -29,-82 -56,-151 -89,-183 -22,-22 -58,-31 -55,-19 3,16 8,53 -10,80 -23,35 -95,61 -95,61 0,0 -193,85 -234,49 -28,-25 -9,-80 115,-228 64,-76 140,-143 140,-143 0,0 14,-13 19,-28 5,-19 1,-41 1,-41l-81 -217c0,0 -13,-32 -31,-39 -17,-6 -39,13 -39,13 0,0 -337,316 -468,582 -120,244 -34,441 -34,441l0 0 0 0z"/>
</svg>
