<svg xmlns="http://www.w3.org/2000/svg" xml:space="preserve" width="100%" height="100%" version="1.1" style="shape-rendering:geometricPrecision; text-rendering:geometricPrecision; image-rendering:optimizeQuality; fill-rule:evenodd; clip-rule:evenodd"
viewBox="0 0 6000 10633">
 <defs>
  <style type="text/css">
   <![CDATA[.fil0goo {fill:none}.fil1goo {fill:#DBBD99}.fil4goo {fill:#EB7D6C}.fil3goo {fill:#FEFEFE;fill-rule:nonzero}.fil2goo {fill:#C9C7BD;fill-rule:nonzero}]]>
  </style>
 </defs>
   <rect class="fil0fil2goo" width="6000" height="10633"/>
   <path class="fil1fil2goo" d="M4770 5062l216 -1725c-33,-197 -236,-171 -271,-19l-114 858 -10 -3 64 -1139c-65,-118 -234,-141 -302,-9l-49 1041 -12 0 -17 -1096c-32,-202 -302,-239 -358,-14l-10 1060 -14 -1 -42 -923c-44,-244 -306,-173 -298,23l25 803c-46,9 -81,41 -93,93 0,279 0,557 0,835 36,180 136,350 257,475l0 5312 845 0 0 -5323c83,-65 143,-149 183,-248z"/>
   <polygon class="fil2fil2goo" points="4569,4643 3083,4103 3127,3982 4612,4523 "/>
   <path class="fil3fil2goo" d="M3577 3899c45,-11 88,2 128,23 61,34 108,91 143,150l0 365c233,36 350,186 382,409l-22 0c-32,-215 -144,-358 -372,-388l-10 -2 0 -378c-40,-67 -87,-112 -132,-137 -36,-19 -76,-36 -116,-23l-1 -19z"/>
   <path class="fil1fil2goo" d="M3650 5212c-78,-108 -139,-234 -165,-366l0 -835c31,-135 218,-139 344,74l0 371c232,32 356,177 386,422l555 184c-22,55 -51,105 -85,150l-1035 0z"/>
   <path class="fil4fil2goo" d="M982 4763l960 -2637c10,-28 41,-42 69,-32l1542 561c28,10 42,41 32,69l-960 2637c-10,28 -41,42 -69,32l-1542 -561c-28,-10 -42,-41 -32,-69zm1190 -820c-85,-31 -42,-226 -241,-299 -120,-43 -196,-58 -273,20 -29,-11 51,-170 -5,-190 -10,29 -132,364 -132,364 0,0 -126,372 187,486 312,114 393,-222 393,-222 0,0 47,17 79,29 32,11 37,-36 104,-18 -8,22 -175,444 108,547 283,103 406,-277 406,-277 0,0 178,-427 -173,-555 -211,-77 -369,146 -453,115l0 0zm-384 217l0 0c-138,-12 -243,-101 -235,-199 9,-99 127,-169 265,-157 137,11 242,100 234,199 -8,98 -126,168 -264,157l0 0zm941 131l0 0c-44,154 -172,253 -284,220 -112,-32 -167,-183 -123,-337 45,-154 172,-253 284,-220 113,32 168,183 123,337l0 0zm-574 -1408l75 27 -92 254 253 92 -27 75 -254 -93 -92 254 -74 -27 92 -254 -254 -92 27 -75 254 93 92 -254z"/>
</svg>
