<svg xmlns="http://www.w3.org/2000/svg" xml:space="preserve" width="100%" height="100%" version="1.1" style="shape-rendering:geometricPrecision; text-rendering:geometricPrecision; image-rendering:optimizeQuality; fill-rule:evenodd; clip-rule:evenodd"viewBox="0 0 6000 10633">
 <defs><style type="text/css"><![CDATA[
    .fil0 {fill:none}
    .fil1 {fill:#B49381}
    .fil4 {fill:#A2D9F7}
    .fil3 {fill:#FEFEFE;fill-rule:nonzero}
    .fil2 {fill:#C9C7BD;fill-rule:nonzero}]]></style></defs>
   <rect class="fil0" width="6000" height="10633"/>
   <path class="fil1" d="M1133 5020l-217 -1739c33,-198 237,-172 272,-18l115 864 11 -3 -65 -1148c66,-119 235,-141 305,-9l48 1049 13 0 17 -1105c32,-202 305,-240 361,-13l9 1068 15 -2 42 -929c45,-247 309,-174 300,23l-25 809c46,9 81,42 94,94 0,280 0,561 0,841 -36,182 -137,353 -259,479l0 5352 -851 0 0 -5364c-84,-65 -144,-150 -185,-249z"/>
   <polygon class="fil2" points="1418,4383 2914,3839 2959,3960 1462,4505 "/>
   <path class="fil3" d="M2335 3848c-45,-11 -89,2 -129,24 -61,34 -108,91 -144,150l0 368c-235,36 -352,188 -385,412l22 0c33,-216 145,-360 376,-391l9 -2 0 -381c41,-67 87,-112 133,-137 36,-20 77,-37 117,-24l1 -19z"/>
   <path class="fil1" d="M2261 5171c79,-109 140,-236 167,-369l0 -841c-32,-136 -220,-140 -347,74l0 374c-234,32 -359,179 -389,426l-559 185c23,55 51,105 86,151l1042 0z"/>
   <path class="fil4" d="M4111 1957l973 2675c11,28 -4,60 -32,70l-1564 570c-29,10 -60,-5 -70,-33l-974 -2675c-10,-29 4,-60 33,-70l1564 -570c28,-10 59,5 70,33zm348 2188c-42,-44 -78,-94 -106,-150 58,47 131,72 207,69 -54,-44 -101,-97 -138,-158 38,-74 45,-162 15,-245 -58,-160 -235,-243 -395,-185 -23,9 -44,19 -64,32 -75,-245 -38,-501 86,-707 -52,-10 -107,-6 -160,13 -101,37 -171,120 -194,217 -16,-48 -19,-97 -12,-144 -1,0 -2,0 -4,1 -140,51 -221,193 -199,336 -16,-22 -28,-46 -38,-73 -7,-19 -12,-37 -15,-56 -101,78 -146,216 -102,344 -114,-71 -206,-179 -255,-315 -9,-23 -16,-47 -22,-71 -35,158 -28,328 32,492 194,533 742,664 1124,524 13,-4 25,-9 38,-14 61,41 130,72 202,90l0 0z"/>
</svg>
