<?xml version="1.0" encoding="UTF-8"?>
<!DOCTYPE svg PUBLIC "-//W3C//DTD SVG 1.1//EN" "http://www.w3.org/Graphics/SVG/1.1/DTD/svg11.dtd">
<!-- Creator: CorelDRAW X7 -->
<svg xmlns="http://www.w3.org/2000/svg" xml:space="preserve" width="100%" height="100%" version="1.1" style="shape-rendering:geometricPrecision; text-rendering:geometricPrecision; image-rendering:optimizeQuality; fill-rule:evenodd; clip-rule:evenodd"
viewBox="0 0 20000 13500"
 xmlns:xlink="http://www.w3.org/1999/xlink">
 <defs>
  <style type="text/css">
   <![CDATA[
    .str1 {stroke:#C5C6C6;stroke-width:20;stroke-linecap:round;stroke-dasharray:40.000000 20.000000}
    .str0 {stroke:#B2B3B3;stroke-width:20;stroke-linecap:round;stroke-dasharray:40.000000 20.000000}
    .fil0 {fill:none}
    .fil15 {fill:#FEFEFE}
    .fil4 {fill:#C5C6C6}
    .fil8 {fill:#9D9E9E}
    .fil9 {fill:#9D9E9E}
    .fil11 {fill:#434242}
    .fil3 {fill:#3F4847}
    .fil1 {fill:#B88672}
    .fil12 {fill:#F1A567}
    .fil13 {fill:#F4F4F4}
    .fil7 {fill:#F7A075}
    .fil2 {fill:#F8C2A6}
    .fil5 {fill:#F8C2A6}
    .fil14 {fill:#EB7D6C}
    .fil6 {fill:#EBECEC;fill-rule:nonzero}
    .fil10 {fill:#86776F;fill-rule:nonzero}
   ]]>
  </style>
 </defs>
 <g id="Слой_x0020_1">
  <metadata id="CorelCorpID_0Corel-Layer"/>
  <g id="_739529568">
   <rect class="fil0" width="20000" height="13500"/>
   <g>
    <path class="fil1" d="M9386 1848l0 0c860,0 1563,703 1563,1563l0 2347 -3126 0 0 -2347c0,-860 704,-1563 1563,-1563z"/>
    <rect class="fil2" x="8101" y="2779" width="2587" height="2469" rx="918" ry="1274"/>
    <path class="fil3" d="M10679 3864c-527,-158 -821,-483 -943,-933 -367,591 -922,882 -1626,933 210,-1442 2312,-1476 2569,0z"/>
    <rect class="fil4" x="9677" y="11631" width="711" height="1216"/>
    <rect class="fil4" x="8414" y="11631" width="711" height="1216"/>
    <path class="fil5" d="M6884 8498c-304,-8 -548,245 -548,548 0,303 245,549 548,549 303,0 546,-263 549,-549 3,-286 -245,-541 -549,-548z"/>
    <path class="fil1" d="M8075 5304l2597 2 1261 -1447 1089 92 -2081 3037 0 4415c-553,301 -1264,464 -1551,173 -286,286 -976,139 -1550,-173 0,-1412 0,-2598 0,-4010 -103,504 -290,933 -640,1213l-657 0c99,-2002 670,-2548 1532,-3302z"/>
    <path class="fil6" d="M9343 11528c0,26 21,48 47,48 27,0 48,-22 48,-48l0 -5770c0,-27 -21,-48 -48,-48 -26,0 -47,21 -47,48l0 5770z"/>
    <circle class="fil7" cx="8497" cy="4415" r="209"/>
    <circle class="fil7" cx="10275" cy="4415" r="209"/>
    <path class="fil6" d="M8236 2363l320 144 62 -285 141 206 208 -268 58 427 163 -577 327 438 241 -434 88 447 345 -534 126 485 271 -253 -53 329 212 -26 47 196 185 -31 -267 203 239 194 -193 370 204 -43 -154 650 161 234 -118 289 258 259 -218 229 21 253 0 95 -100 3 -109 93 -177 -93 17 439 -402 -73 -295 312 -222 -398 -118 368 -337 -253 -373 269 -254 -325 -224 -177 -123 -200 -186 169 -57 -134 -96 0 -9 -96 401 -190 -342 18 104 -301 -334 -227 287 -166 -191 -355 238 -219 -87 -202 154 -185 -150 -219 151 -152 -79 -363 236 56 3 -396zm2083 948l-31 -196 -131 195 -137 -352 -290 221 -153 -280 -176 297 -206 -458 -68 471 -344 -215 -195 342 -309 38 50 466 -228 174 282 333 -122 166 117 115 -7 153 77 -53 108 241 177 -126 96 243 166 -119 168 154 51 -115 122 242 190 -207 215 173 222 -257 160 21 67 -169 231 -31 42 -440 216 -171 -208 -250 115 -272 -163 -234 -6 -90 -98 -10z"/>
    <path class="fil8" d="M8581 12847l544 0c0,-301 -244,-544 -544,-544 -300,0 -544,243 -544,544l544 0z"/>
    <path class="fil9" d="M10221 12847l-544 0c0,-301 243,-544 544,-544 300,0 543,243 543,544l-543 0z"/>
    <path class="fil10" d="M9571 6872c53,0 96,-42 96,-95 0,-53 -43,-96 -96,-96l-362 0c-53,0 -95,43 -95,96 0,53 42,95 95,95l362 0z"/>
    <path class="fil10" d="M9571 7701c53,0 96,-43 96,-96 0,-53 -43,-96 -96,-96l-362 0c-53,0 -95,43 -95,96 0,53 42,96 95,96l362 0z"/>
    <path class="fil10" d="M9571 8529c53,0 96,-43 96,-96 0,-53 -43,-96 -96,-96l-362 0c-53,0 -95,43 -95,96 0,53 42,96 95,96l362 0z"/>
    <path class="fil10" d="M9571 9357c53,0 96,-43 96,-96 0,-53 -43,-95 -96,-95l-362 0c-53,0 -95,42 -95,95 0,53 42,96 95,96l362 0z"/>
    <path class="fil10" d="M9571 10185c53,0 96,-43 96,-96 0,-53 -43,-95 -96,-95l-362 0c-53,0 -95,42 -95,95 0,53 42,96 95,96l362 0z"/>
    <path class="fil10" d="M9571 11013c53,0 96,-43 96,-96 0,-53 -43,-95 -96,-95l-362 0c-53,0 -95,42 -95,95 0,53 42,96 95,96l362 0z"/>
    <path class="fil11" d="M8813 3984l167 0c0,-92 -75,-167 -167,-167 -93,0 -168,75 -168,167l168 0z"/>
    <path class="fil11" d="M9976 3984l167 0c0,-92 -75,-167 -167,-167 -93,0 -168,75 -168,167l168 0z"/>
    <path class="fil12" d="M9386 4181l148 0c0,82 -67,148 -148,148 -82,0 -148,-66 -148,-148l148 0z"/>
    <path class="fil13" d="M9412 4778l264 0c0,28 -118,50 -264,50 -147,0 -265,-22 -265,-50l265 0z"/>
    <polyline class="fil0 str0" points="11721,7385 12474,3951 13193,7189 "/>
    <path class="fil14" d="M12789 9503c46,40 94,74 147,103 441,-247 568,-821 590,-1507 161,-240 184,-560 57,-964l-193 238c-363,-392 -208,-799 170,-1213 -148,81 -293,130 -436,151 -163,187 -276,370 -312,549 -35,174 4,347 145,518l157 -194c6,-8 14,-14 24,-17 24,-8 50,6 58,30 65,208 92,394 82,560 -10,164 -57,308 -137,432 -7,212 -25,412 -58,596 74,-1 147,10 212,36l-11 29c-64,-25 -135,-36 -207,-34 -20,103 -45,201 -76,292 -52,151 -121,284 -212,395zm19 -3187c-167,-19 -332,-74 -495,-156 62,65 118,129 168,194 4,0 8,0 12,0 104,3 209,-9 315,-38zm349 2799c35,0 63,28 63,64 0,35 -28,63 -63,63 -35,0 -64,-28 -64,-63 0,-36 29,-64 64,-64zm-1769 -761c23,753 194,1293 590,1508 126,-71 227,-169 307,-289 -24,-25 -47,-51 -69,-78 -5,2 -12,3 -18,3 -35,0 -64,-29 -64,-64 0,-14 5,-28 13,-38 -46,-75 -86,-158 -120,-250 -7,-20 -14,-40 -21,-61 -24,4 -47,10 -69,16 -139,41 -258,118 -306,207l-27 -15c52,-96 178,-179 324,-221 22,-7 45,-13 68,-17 -75,-242 -115,-534 -126,-867 -87,-147 -127,-304 -132,-470 -6,-167 24,-341 77,-520l0 0c2,-8 7,-17 15,-23 20,-16 49,-13 65,7l158 195c153,-185 192,-363 153,-537 -19,-89 -58,-177 -112,-264 -253,22 -499,-39 -740,-160 373,389 557,788 170,1213l-192 -238c-103,348 -118,677 56,963zm528 -179c23,753 194,1292 589,1507 440,-247 568,-821 590,-1507 161,-240 184,-559 56,-964l-192 238c-363,-391 -208,-799 170,-1213 -434,237 -847,202 -1247,0 373,390 557,788 170,1213l-193 -238c-102,349 -117,678 57,964zm810 1016c35,0 63,29 63,64 0,35 -28,63 -63,63 -35,0 -64,-28 -64,-63 0,-35 29,-64 64,-64zm138 -293c-124,-50 -275,-45 -408,-6 -146,43 -272,126 -324,222l27 14c48,-88 167,-165 305,-206 128,-37 271,-43 389,4l11 -28z"/>
    <line class="fil0 str1" x1="13193" y1="6929" x2="11731" y2= "7172" />
    <path class="fil5" d="M12474 3403c-305,-7 -549,245 -549,548 0,303 246,549 549,549 303,0 545,-263 548,-549 3,-285 -244,-541 -548,-548z"/>
   </g>
   <path class="fil15" d="M5569 653c1000,0 1811,819 1811,1829 0,292 -67,567 -188,812 -7,16 -30,31 -23,47l380 895 -934 -261c-32,-9 -56,39 -84,57 -279,177 -609,279 -962,279 -1001,0 -1812,-819 -1812,-1829 0,-1010 811,-1829 1812,-1829zm-1162 921l162 0c33,0 57,1 72,4 16,2 30,8 43,16 12,9 23,20 31,34 8,14 12,30 12,48 0,19 -5,36 -15,52 -10,16 -24,28 -41,36 24,7 43,19 56,37 14,17 20,37 20,61 0,18 -4,36 -13,54 -8,17 -20,31 -35,42 -15,10 -33,17 -55,19 -13,2 -46,3 -99,3l-138 0 0 -406zm82 67l0 94 54 0c32,0 52,-1 59,-2 14,-1 25,-6 33,-14 8,-8 12,-19 12,-32 0,-12 -3,-22 -10,-30 -7,-8 -17,-13 -31,-14 -8,-1 -31,-2 -70,-2l-47 0zm0 161l0 109 76 0c30,0 49,-1 56,-2 13,-2 23,-8 30,-16 8,-9 12,-21 12,-35 0,-12 -3,-23 -9,-31 -6,-9 -15,-15 -26,-19 -11,-4 -35,-6 -73,-6l-66 0zm329 -228l82 0 0 173c18,-2 31,-7 37,-14 6,-8 17,-29 30,-64 17,-44 34,-71 51,-82 17,-10 44,-16 82,-16 2,0 6,0 12,0l0 61 -11 -1c-17,0 -30,2 -37,7 -8,4 -14,10 -19,19 -5,8 -12,26 -21,52 -5,14 -11,26 -17,35 -5,10 -16,19 -31,27 19,5 34,16 46,31 12,16 25,38 39,67l55 111 -96 0 -49 -105c-1,-1 -2,-4 -5,-8 -1,-2 -4,-8 -10,-19 -10,-20 -19,-33 -25,-38 -7,-5 -17,-7 -31,-8l0 178 -82 0 0 -406zm317 0l93 0 94 210 81 -210 86 0 -138 308c-15,34 -30,59 -45,77 -16,17 -36,26 -60,26 -25,0 -44,-2 -57,-5l0 -61c11,1 22,1 31,1 19,0 33,-3 41,-10 8,-7 16,-22 24,-45l-150 -291zm655 256l79 25c-12,44 -32,77 -61,99 -28,22 -64,33 -108,33 -54,0 -98,-19 -133,-56 -35,-36 -52,-87 -52,-151 0,-67 18,-120 52,-157 35,-38 81,-57 138,-57 50,0 90,15 121,45 19,17 33,42 42,75l-81 19c-5,-21 -15,-38 -30,-50 -16,-12 -34,-18 -56,-18 -30,0 -55,10 -73,32 -19,22 -28,57 -28,105 0,51 9,88 27,110 19,22 43,32 72,32 22,0 41,-7 57,-20 15,-14 27,-36 34,-66zm149 150l0 -406 83 0 0 160 160 0 0 -160 82 0 0 406 -82 0 0 -178 -160 0 0 178 -83 0zm393 -201c0,-41 6,-76 19,-104 9,-21 22,-39 38,-56 16,-16 33,-29 52,-37 25,-10 55,-16 88,-16 60,0 107,19 144,56 35,37 53,89 53,155 0,66 -17,118 -53,155 -36,37 -84,55 -143,55 -61,0 -109,-18 -144,-55 -36,-37 -54,-88 -54,-153zm85 -2c0,46 10,80 32,104 21,24 48,36 81,36 32,0 59,-12 80,-35 21,-24 32,-59 32,-107 0,-46 -10,-81 -31,-104 -20,-23 -47,-34 -81,-34 -34,0 -62,11 -82,35 -21,23 -31,58 -31,105zm-2027 636c0,-41 6,-76 19,-104 9,-21 21,-40 37,-56 16,-17 34,-29 53,-37 25,-10 54,-16 87,-16 60,0 108,19 144,56 36,37 54,89 54,155 0,66 -18,117 -53,154 -36,38 -84,56 -143,56 -61,0 -109,-18 -145,-55 -35,-37 -53,-88 -53,-153zm84 -3c0,46 11,81 32,105 22,24 49,36 81,36 33,0 60,-12 81,-36 21,-23 32,-59 32,-106 0,-46 -11,-81 -31,-104 -21,-23 -48,-35 -82,-35 -33,0 -61,12 -81,35 -21,24 -32,59 -32,105zm400 -202l280 0 0 337 36 0 0 157 -69 0 0 -88 -255 0 0 88 -68 0 0 -157 34 0c17,-35 28,-75 34,-121 5,-46 8,-104 8,-174l0 -42zm78 68c0,123 -11,213 -34,269l154 0 0 -269 -120 0zm293 338l0 -406 82 0 0 159 160 0 0 -159 82 0 0 406 -82 0 0 -178 -160 0 0 178 -82 0zm775 0l-88 0 -35 -93 -163 0 -34 93 -87 0 158 -406 87 0 162 406zm-150 -161l-56 -151 -55 151 111 0zm195 -245l83 0 0 173c18,-2 30,-7 37,-15 6,-7 16,-28 30,-63 16,-44 34,-71 51,-82 17,-11 44,-16 82,-16 2,0 6,0 12,0l0 60 -12 0c-17,0 -29,2 -37,6 -8,4 -14,11 -19,19 -4,9 -11,26 -21,53 -5,14 -10,26 -16,35 -6,10 -16,18 -31,27 18,5 33,15 45,31 12,16 25,38 39,66l56 112 -97 0 -48 -105c-1,-1 -3,-4 -5,-8 -1,-2 -5,-8 -10,-20 -11,-20 -19,-32 -26,-37 -7,-5 -17,-8 -30,-8l0 178 -83 0 0 -406zm328 205c0,-41 7,-76 19,-104 9,-21 22,-40 38,-56 16,-17 33,-29 52,-37 26,-10 55,-16 88,-16 60,0 108,19 144,56 36,37 54,89 54,155 0,66 -18,117 -54,154 -35,38 -83,56 -143,56 -60,0 -108,-18 -144,-55 -36,-37 -54,-88 -54,-153zm85 -3c0,46 11,81 32,105 21,24 48,36 81,36 33,0 60,-12 81,-36 21,-23 31,-59 31,-106 0,-46 -10,-81 -31,-104 -20,-23 -47,-35 -81,-35 -34,0 -61,12 -82,35 -21,24 -31,59 -31,105zm-2080 741c0,-55 8,-101 25,-139 12,-28 29,-52 50,-74 22,-22 45,-39 70,-49 34,-15 73,-22 117,-22 80,0 144,25 192,75 48,49 72,118 72,207 0,87 -24,156 -72,205 -47,50 -111,74 -190,74 -81,0 -145,-24 -193,-73 -47,-50 -71,-117 -71,-204zm113 -4c0,62 14,108 42,140 29,32 65,48 108,48 44,0 80,-16 108,-47 28,-32 42,-79 42,-142 0,-62 -14,-109 -41,-139 -27,-31 -63,-46 -109,-46 -45,0 -81,16 -109,46 -27,31 -41,78 -41,140zm708 272l0 -542 110 0 0 213 213 0 0 -213 110 0 0 542 -110 0 0 -237 -213 0 0 237 -110 0zm1034 0l-118 0 -47 -124 -217 0 -45 124 -116 0 211 -542 115 0 217 542zm-200 -215l-75 -201 -73 201 148 0zm586 15l106 32c-16,60 -43,104 -81,133 -38,29 -86,44 -144,44 -72,0 -131,-25 -177,-74 -47,-49 -70,-116 -70,-202 0,-90 24,-160 70,-210 47,-50 108,-75 184,-75 66,0 120,20 161,59 25,23 43,57 56,100l-108 26c-7,-28 -20,-50 -41,-67 -20,-16 -45,-24 -74,-24 -40,0 -73,14 -97,43 -26,29 -38,76 -38,140 0,69 12,117 37,146 25,29 57,44 96,44 29,0 54,-9 75,-28 21,-18 36,-47 45,-87z"/>
  </g>
 </g>
</svg>
