<?xml version="1.0" standalone="no"?>
<!DOCTYPE svg PUBLIC "-//W3C//DTD SVG 20010904//EN"
 "http://www.w3.org/TR/2001/REC-SVG-20010904/DTD/svg10.dtd">
<svg version="1.0" xmlns="http://www.w3.org/2000/svg"
 width="1000.000000pt" height="1000.000000pt" viewBox="0 0 1000.000000 1000.000000"
 preserveAspectRatio="xMidYMid meet">
<metadata>
Created by potrace 1.11, written by Peter Selinger 2001-2013
</metadata>
<g transform="translate(0.000000,1000.000000) scale(0.100000,-0.100000)"
fill="#000000" stroke="none">
<path d="M3604 9696 c-15 -12 -17 -18 -8 -33 18 -29 38 -22 40 15 1 36 -3 38
-32 18z"/>
<path d="M3786 9697 c-17 -13 -15 -18 35 -70 44 -47 58 -56 77 -51 15 4 25 17
29 35 4 19 12 29 24 29 26 0 69 21 69 35 0 18 -22 35 -45 35 -25 0 -45 -18
-45 -41 0 -9 -6 -19 -13 -22 -22 -8 -82 17 -92 41 -11 26 -15 27 -39 9z"/>
<path d="M4840 9690 c-6 -11 -8 -20 -4 -20 3 0 1 -7 -6 -15 -7 -8 -16 -12 -21
-9 -11 6 -69 -23 -69 -36 0 -15 31 -40 49 -40 27 0 43 23 50 70 1 3 20 5 44 5
39 0 42 2 39 25 -5 42 -62 57 -82 20z"/>
<path d="M5232 9698 c-28 -14 -24 -29 14 -48 16 -8 32 -19 35 -24 10 -12 -1
-43 -20 -60 -16 -14 -21 -12 -61 29 -44 45 -72 56 -87 33 -17 -28 -12 -48 15
-62 15 -8 47 -35 72 -60 24 -25 50 -46 56 -46 18 0 54 49 54 72 0 15 6 19 27
16 40 -4 40 -32 2 -85 -22 -31 -29 -50 -23 -58 47 -65 102 -124 116 -124 21
-1 38 28 38 63 0 22 5 26 29 26 34 0 49 15 57 59 6 30 9 32 48 29 32 -2 42 -7
44 -23 5 -27 30 -45 62 -45 21 0 28 7 35 33 8 25 16 33 37 35 23 3 30 -2 38
-24 15 -38 9 -57 -19 -64 -35 -8 -48 -33 -32 -66 l12 -27 47 46 c52 52 66 56
81 28 9 -16 3 -26 -34 -64 -25 -24 -45 -47 -45 -50 0 -3 20 -26 45 -51 25 -26
45 -53 45 -61 0 -16 -5 -19 -53 -29 -44 -10 -43 -31 2 -82 23 -26 41 -55 41
-65 0 -10 8 -22 18 -27 34 -18 82 4 82 38 0 19 -39 55 -69 65 -16 5 -16 10 -7
40 6 19 15 35 20 35 5 0 28 -20 51 -44 23 -24 52 -46 65 -48 20 -2 25 2 31 29
12 61 61 87 73 40 3 -13 28 -45 56 -71 56 -53 60 -76 15 -91 -25 -8 -30 -16
-33 -47 -2 -26 1 -38 10 -39 7 -1 22 -2 33 -3 36 -2 27 -86 -10 -86 -23 0
-122 107 -135 145 -21 63 -80 40 -80 -32 0 -25 4 -28 32 -28 47 0 46 -23 -2
-74 -22 -23 -44 -56 -47 -72 -5 -27 -9 -30 -37 -27 -25 2 -40 15 -78 66 -43
56 -62 112 -40 112 5 0 32 -23 61 -51 51 -49 53 -50 72 -33 26 23 24 30 -16
65 -19 17 -40 48 -46 70 -11 35 -15 39 -45 39 -37 0 -54 -21 -54 -64 0 -18 -5
-26 -17 -26 -40 0 -163 -103 -163 -135 0 -5 20 -29 44 -52 47 -45 47 -57 1
-61 -33 -3 -47 4 -62 31 -5 10 -44 53 -86 96 l-77 78 36 46 c20 25 33 51 29
57 -12 19 -66 8 -75 -16 -5 -12 -26 -38 -47 -57 l-38 -36 43 -44 c45 -46 53
-71 25 -81 -12 -5 -38 15 -96 74 -44 45 -97 93 -119 107 l-39 26 50 51 c56 58
56 73 -4 104 l-34 17 45 57 c39 49 44 60 34 78 -9 16 -19 20 -43 18 -25 -2
-32 -9 -39 -35 -5 -17 -16 -34 -27 -38 -27 -8 -60 -47 -64 -75 -7 -43 -40 -37
-89 14 -47 50 -71 57 -89 25 -10 -19 -5 -27 36 -69 53 -54 54 -77 5 -86 -20
-4 -30 -13 -30 -24 0 -21 -37 -70 -53 -70 -13 0 -15 -55 -3 -67 10 -11 75 27
81 48 4 11 10 19 14 19 16 0 32 -29 29 -52 -2 -18 -12 -25 -45 -32 -58 -13
-56 -37 4 -98 40 -40 46 -51 37 -66 -19 -29 -57 -21 -73 16 -12 27 -20 32 -47
32 -28 0 -32 -3 -30 -23 4 -30 14 -47 29 -47 7 0 20 -19 31 -41 13 -29 26 -41
47 -46 16 -3 31 -13 34 -22 8 -25 56 -69 80 -73 12 -2 22 -13 25 -28 8 -35 0
-69 -14 -64 -19 7 -44 -19 -49 -53 -5 -34 3 -41 41 -38 20 1 22 -3 22 -42 0
-38 -3 -43 -22 -43 -14 0 -44 20 -73 48 -86 83 -85 76 -31 131 l48 49 -21 21
c-12 12 -34 21 -49 21 -27 0 -28 2 -28 43 1 35 -2 42 -19 45 -45 5 -68 -45
-35 -78 11 -11 25 -18 30 -15 17 10 23 -23 11 -53 -6 -15 -23 -40 -36 -56 -19
-22 -22 -33 -14 -47 9 -17 28 -24 52 -20 5 1 7 -18 5 -41 -3 -36 -7 -44 -26
-46 -28 -4 -58 20 -66 54 -4 15 -19 29 -40 38 -18 8 -46 30 -62 50 -18 22 -38
36 -51 36 -19 0 -22 5 -21 40 0 22 4 41 9 41 5 1 22 2 38 3 36 1 45 10 47 42
1 27 -28 54 -58 54 -21 0 -38 -29 -38 -64 0 -14 -5 -26 -10 -26 -22 0 -91 52
-152 115 -68 69 -92 76 -104 30 -10 -42 -1 -60 31 -61 51 -2 55 -4 55 -23 0
-37 -12 -51 -51 -57 -38 -6 -39 -7 -39 -50 0 -41 -2 -44 -27 -44 -36 0 -52 11
-58 38 -4 24 19 42 55 42 24 0 38 30 32 71 -3 21 -10 29 -24 29 -37 0 -78 30
-85 60 -6 34 -15 37 -37 14 -22 -21 -21 -25 18 -75 26 -35 31 -49 25 -67 -15
-39 -66 -22 -73 25 -2 13 -13 18 -39 18 -48 2 -47 -13 4 -67 50 -53 121 -158
116 -172 -2 -6 -18 -10 -35 -8 -25 3 -32 0 -32 -13 0 -10 -25 -42 -56 -72
l-57 -54 47 -48 c51 -52 56 -66 24 -76 -16 -6 -29 1 -56 30 -19 20 -45 41 -58
45 -20 8 -23 16 -22 54 0 35 4 43 17 41 16 -2 51 21 51 35 0 4 -18 26 -39 49
-22 24 -43 56 -46 72 -5 23 -12 29 -31 29 -38 0 -64 -18 -64 -44 0 -29 16 -44
55 -49 23 -3 30 -9 32 -28 4 -47 -6 -66 -36 -72 -16 -4 -45 -22 -64 -42 -44
-46 -57 -45 -55 5 1 34 5 41 30 49 47 16 45 37 -6 87 -56 56 -61 88 -15 91 63
5 79 48 30 82 -16 12 -34 21 -40 21 -6 0 -17 15 -25 33 -7 19 -30 47 -50 64
-39 32 -41 57 -5 66 19 5 49 -16 49 -34 0 -35 17 -58 41 -54 28 6 149 124 149
146 0 17 -27 39 -49 39 -19 0 -41 -32 -41 -61 0 -26 -3 -29 -34 -29 -33 0 -34
1 -32 43 1 35 4 42 24 45 17 3 22 10 22 32 0 16 -4 32 -10 35 -13 8 -50 -13
-77 -44 -27 -31 -44 -20 -46 30 -2 27 2 34 22 39 48 11 49 35 4 80 -23 22 -45
54 -48 70 -5 22 -12 30 -29 30 -24 0 -46 -17 -46 -37 0 -7 14 -33 32 -58 l32
-45 -64 -65 c-66 -66 -84 -74 -104 -43 -9 15 -2 26 37 66 51 52 55 77 12 88
-47 12 -60 2 -60 -44 0 -36 -3 -42 -20 -42 -12 0 -41 20 -65 45 -24 25 -49 45
-56 45 -18 0 -39 -31 -39 -59 -1 -24 -5 -26 -48 -29 -43 -3 -47 -5 -47 -28 0
-33 -17 -64 -34 -64 -8 0 -29 14 -47 31 -28 26 -36 29 -56 20 -20 -9 -22 -13
-11 -31 8 -12 24 -20 41 -20 15 0 26 -4 23 -8 -11 -18 34 -90 83 -135 45 -39
56 -45 72 -36 44 23 32 66 -26 93 -19 9 -35 23 -35 31 0 17 27 45 46 47 8 0
19 1 26 2 6 1 12 -13 13 -29 2 -40 10 -52 40 -57 31 -6 56 20 50 52 -6 29 -21
40 -57 40 -26 0 -28 3 -28 44 0 41 2 44 23 39 42 -11 146 -102 146 -128 0 -5
-16 -28 -37 -51 -97 -107 -112 -127 -112 -156 0 -16 4 -27 8 -24 14 8 52 -24
52 -44 0 -11 12 -24 29 -31 17 -7 39 -30 51 -51 l21 -37 -34 -15 c-29 -12 -35
-20 -39 -50 -4 -33 -1 -37 29 -47 18 -6 35 -15 38 -20 3 -5 -15 -31 -41 -59
-53 -56 -55 -46 21 -124 l30 -31 -40 -5 c-48 -7 -55 -4 -55 21 0 10 -6 19 -12
20 -7 0 -23 2 -35 3 -32 4 -29 -20 7 -68 17 -22 30 -47 30 -57 0 -15 -34 -36
-51 -31 -4 1 -9 -8 -12 -19 -3 -12 7 -37 28 -68 47 -68 50 -101 10 -101 -40 0
-43 -41 -6 -87 70 -88 29 -128 -49 -48 -49 50 -76 57 -89 23 -16 -44 -8 -62
32 -71 38 -9 62 -35 49 -53 -4 -5 -24 -9 -44 -9 -33 -1 -38 2 -38 23 0 20 -2
22 -22 11 -13 -6 -24 -13 -26 -14 -2 -2 8 -18 21 -38 13 -19 23 -46 21 -59 -1
-12 -3 -26 -3 -30 -1 -5 -5 -8 -10 -8 -4 0 -39 -20 -75 -45 -73 -49 -85 -53
-87 -30 -6 65 -4 70 21 73 59 7 82 39 46 64 -26 18 -85 -9 -71 -32 5 -9 -19
-31 -31 -29 -44 8 -73 -27 -56 -67 8 -17 21 -24 49 -26 31 -2 37 -7 35 -21 -2
-12 15 -37 45 -66 56 -55 65 -91 24 -91 -45 0 -67 -24 -70 -77 -1 -7 -12 -13
-24 -13 -33 0 -51 -40 -31 -69 8 -11 24 -21 35 -21 16 0 19 -7 19 -46 l0 -45
-42 3 c-41 3 -43 4 -44 37 -1 34 -16 51 -46 51 -20 0 -48 -26 -48 -46 0 -19
38 -56 50 -49 20 12 47 -5 44 -28 -1 -12 -3 -30 -3 -39 -1 -13 -9 -18 -30 -18
-27 0 -61 -21 -61 -38 0 -3 20 -27 45 -52 l46 -47 -46 -45 c-50 -50 -52 -74
-6 -84 47 -10 56 -19 53 -55 -5 -43 -9 -49 -31 -49 -27 0 -80 -58 -92 -100
-10 -31 -8 -43 11 -80 27 -54 63 -90 89 -90 13 0 26 14 41 45 12 25 25 45 29
45 13 0 212 -201 220 -222 9 -24 4 -51 -8 -44 -14 8 -51 -15 -51 -32 0 -10 14
-38 32 -62 44 -59 46 -79 8 -86 -34 -7 -60 -33 -63 -63 -1 -11 -4 -21 -7 -22
-3 0 -13 -2 -22 -4 -10 -2 -27 4 -38 13 -19 17 -19 18 25 67 l44 50 -22 25
c-44 50 -106 110 -114 110 -4 0 -23 -16 -41 -35 -19 -19 -49 -39 -68 -45 -32
-11 -34 -14 -34 -56 0 -42 2 -44 28 -44 16 0 37 -7 48 -15 19 -15 19 -15 0
-30 -11 -8 -32 -15 -46 -15 -26 0 -27 -2 -29 -67 -1 -38 -6 -69 -12 -71 -5 -2
-9 -15 -9 -29 0 -15 5 -23 13 -20 6 2 12 12 12 23 0 14 8 20 33 22 30 3 33 1
30 -20 -2 -18 -9 -23 -33 -23 -29 -1 -30 -2 -33 -52 -3 -44 0 -53 20 -67 12
-9 33 -16 45 -16 35 0 28 -21 -22 -70 -51 -50 -55 -65 -22 -74 13 -3 45 -28
71 -56 l49 -51 45 46 c27 28 50 44 59 41 8 -3 17 -6 19 -6 2 0 4 -8 4 -18 0
-10 -16 -34 -36 -53 -48 -46 -58 -67 -43 -85 19 -23 56 -17 78 15 12 16 21 34
21 40 0 12 14 14 48 5 l22 -6 -32 -58 -32 -58 25 -34 c14 -18 29 -38 33 -45 8
-15 -110 -143 -133 -143 -13 0 -15 9 -13 45 3 34 8 45 21 45 9 0 26 7 37 15
19 15 19 15 -5 35 -32 27 -76 27 -78 -1 -2 -28 -21 -49 -44 -49 -21 0 -38 27
-41 64 -2 22 -7 26 -34 26 -29 0 -64 -21 -64 -38 0 -3 20 -27 45 -52 l45 -46
-30 -40 c-16 -21 -29 -43 -29 -49 0 -5 13 -28 29 -49 38 -50 38 -63 0 -71 -34
-7 -66 -47 -54 -67 4 -7 20 -29 36 -49 l28 -37 -34 -44 -35 -45 45 -44 c24
-24 44 -49 44 -55 0 -7 -16 -18 -36 -24 -63 -21 -71 -81 -14 -101 39 -14 38
-32 -6 -96 -42 -61 -41 -82 3 -103 43 -20 44 -48 1 -52 -29 -3 -33 -7 -36 -35
-2 -25 5 -44 32 -79 20 -26 36 -50 36 -53 0 -3 -15 -13 -33 -21 -49 -23 -47
-52 8 -107 l47 -46 -46 -46 -45 -46 34 -45 33 -44 -21 -31 c-12 -16 -27 -36
-34 -43 -7 -7 -13 -17 -13 -22 0 -16 31 -40 51 -40 36 0 16 -63 -38 -118 -27
-28 -6 -82 32 -82 20 0 25 -5 25 -25 0 -14 -3 -24 -7 -24 -5 1 -20 1 -35 0
-25 -1 -27 -4 -26 -50 0 -57 14 -81 46 -84 16 -1 22 -8 22 -25 0 -16 -5 -23
-18 -21 -48 4 -52 1 -52 -49 0 -55 15 -82 48 -85 30 -2 28 -17 -13 -70 l-34
-45 33 -44 34 -44 -21 -34 c-35 -55 -25 -128 14 -104 24 14 5 -49 -28 -91 -39
-52 -37 -75 8 -85 33 -8 37 -51 8 -105 l-22 -42 21 -31 c27 -37 28 -69 2 -102
-26 -33 -25 -40 10 -89 l31 -42 -31 -42 c-16 -22 -30 -45 -30 -50 0 -5 14 -27
31 -48 l31 -39 -31 -42 c-17 -23 -31 -46 -31 -50 0 -5 13 -27 30 -49 31 -44
31 -45 -8 -97 -14 -18 -26 -44 -28 -57 -2 -20 2 -25 22 -25 30 0 32 -30 5 -68
-29 -43 -30 -54 -3 -103 l25 -46 -24 -39 c-30 -49 -30 -51 -2 -94 29 -44 29
-67 -1 -110 l-23 -35 37 -55 c49 -72 64 -83 106 -82 20 1 37 -4 40 -11 6 -18
41 -19 48 -1 4 10 -2 14 -18 14 -26 0 -39 28 -25 51 13 21 32 17 58 -14 34
-41 138 -92 157 -76 7 6 30 13 51 16 50 7 83 30 90 63 5 26 30 36 44 17 12
-17 -3 -57 -22 -57 -22 0 -23 -4 -9 -31 11 -19 12 -18 48 6 46 31 57 31 107 0
51 -31 79 -31 102 0 l18 25 54 -25 54 -25 49 25 48 25 41 -27 41 -27 49 27 48
28 41 -27 42 -28 43 24 43 23 43 -31 c24 -18 49 -32 56 -32 20 0 16 49 -7 77
-29 37 -26 60 8 58 20 -1 28 -7 30 -23 3 -18 10 -22 38 -22 40 0 42 8 11 63
-27 50 -27 62 0 106 24 38 21 57 -15 88 l-25 21 32 52 32 52 -28 40 c-15 21
-32 45 -37 53 -7 9 -2 26 17 54 33 50 34 61 3 61 -18 0 -25 -6 -28 -22 -2 -17
-10 -23 -28 -23 -14 0 -28 6 -31 15 -8 19 18 50 42 50 36 0 30 77 -7 86 -36 9
-50 0 -70 -45 -11 -25 -25 -41 -35 -41 -9 0 -36 -20 -59 -44 -49 -51 -76 -55
-84 -14 -3 15 -24 48 -46 72 -51 55 -51 72 -3 81 45 8 53 18 53 67 0 29 5 38
23 44 44 13 48 23 22 62 -28 43 -26 88 4 111 17 14 18 18 6 35 -13 18 -15 18
-43 -3 -40 -28 -96 -28 -115 0 -13 17 -19 19 -36 9 -21 -11 -21 -20 5 -50 7
-8 15 -27 18 -42 4 -23 1 -27 -25 -30 -23 -4 -35 1 -49 19 -16 21 -22 23 -40
13 -29 -16 -21 -42 16 -53 28 -8 31 -13 32 -51 2 -36 -1 -42 -19 -43 -29 -3
-49 -22 -49 -48 0 -19 5 -23 28 -21 15 1 42 11 58 23 22 16 34 19 48 11 16 -9
15 -12 -14 -37 -17 -14 -37 -44 -45 -66 -7 -22 -20 -41 -29 -43 -8 -2 -30 13
-47 33 -18 20 -45 43 -60 51 -24 12 -29 21 -29 52 0 34 3 39 32 47 18 6 34 17
36 26 1 8 -17 35 -42 60 l-44 44 45 47 46 47 -32 39 c-17 22 -31 45 -31 52 0
6 14 29 31 50 l32 39 -30 38 c-47 61 -49 73 -8 73 19 0 35 -4 35 -9 0 -13 96
-110 167 -168 64 -53 96 -61 101 -26 2 14 15 22 45 29 35 7 45 16 60 47 15 30
24 37 48 37 26 0 29 -3 29 -33 0 -31 -2 -34 -32 -33 -37 1 -47 -18 -25 -49 14
-18 16 -18 64 13 69 44 83 62 85 109 1 33 6 43 25 52 l23 11 -20 50 c-24 61
-47 100 -72 120 -18 15 -16 20 47 103 l65 87 -25 50 c-14 27 -38 65 -55 83
-35 40 -39 67 -10 67 13 0 20 -7 20 -20 0 -15 7 -20 26 -20 23 0 25 4 23 32
-2 18 -12 40 -22 49 -20 16 -16 32 19 79 27 35 25 57 -6 89 l-32 31 32 51 31
52 -30 42 c-17 24 -31 47 -31 52 0 4 14 26 30 47 31 41 31 42 -7 92 -13 17
-23 34 -23 38 0 4 14 27 31 51 30 42 30 43 14 69 -10 15 -24 30 -33 35 -13 7
-10 17 17 65 l32 56 -23 32 c-29 41 -29 54 0 106 l23 43 -30 38 c-17 21 -31
43 -31 48 0 5 13 27 30 49 16 21 30 42 30 46 0 4 -14 23 -30 42 l-31 34 31 51
32 51 -31 39 c-17 21 -31 43 -31 48 0 5 14 28 31 52 l31 42 -25 36 c-28 40
-28 70 3 114 11 15 20 39 20 53 0 21 -5 26 -24 26 -21 0 -27 16 -17 50 9 31
21 32 64 1 l44 -32 46 32 45 32 45 -33 46 -32 45 32 45 33 42 -32 c24 -17 48
-31 55 -31 7 0 25 14 41 30 15 17 36 30 46 30 26 0 74 -27 80 -45 9 -22 35
-18 43 8 4 12 6 24 5 26 -6 9 25 19 50 16 37 -5 66 -21 79 -45 14 -25 36 -26
50 0 6 10 30 28 55 39 29 13 49 29 55 45 12 32 42 34 89 5 l34 -20 51 35 c28
19 70 54 94 76 l43 41 40 -32 40 -32 56 39 c30 21 68 52 85 69 28 30 32 32 75
24 24 -5 49 -12 55 -15 6 -4 9 -3 5 2 -3 5 -8 29 -12 54 -4 25 -8 47 -10 51
-4 5 20 5 58 0 4 -1 7 -10 7 -21 0 -16 7 -20 34 -20 31 0 34 2 32 28 -1 15
-12 42 -25 60 -38 53 -10 64 60 23 l36 -21 49 42 c59 52 72 66 84 96 6 14 17
22 27 21 65 -10 83 42 33 93 -36 35 -37 46 -7 57 26 10 57 -3 57 -24 0 -12 5
-12 25 -3 l25 11 -21 34 c-32 52 -32 91 0 110 34 21 131 115 131 126 0 5 -14
27 -31 49 -28 35 -30 42 -20 66 7 14 15 21 19 16 8 -11 67 -54 75 -54 3 0 4 8
3 18 -2 9 -7 43 -10 74 -7 56 -6 58 18 68 26 9 85 66 113 108 15 21 14 26 -16
67 l-32 45 58 77 c32 43 61 83 66 90 4 6 -4 32 -17 58 -27 51 -23 87 10 93 11
2 25 11 31 19 10 13 6 24 -23 65 l-36 48 31 42 c17 23 31 46 31 51 0 5 -13 26
-30 47 -31 39 -38 60 -20 60 5 0 18 17 29 38 11 22 36 60 56 86 33 44 34 48
19 70 -8 14 -22 27 -30 30 -12 5 -9 17 17 65 l32 59 -22 30 c-26 37 -27 79 -1
112 11 14 20 30 20 35 0 6 -9 21 -20 35 -11 14 -20 39 -20 55 0 17 9 41 20 55
11 14 20 30 20 35 0 6 -9 21 -20 35 -11 14 -20 39 -20 55 0 17 9 41 20 55 11
14 20 30 20 35 0 6 -9 21 -20 35 -11 14 -20 39 -20 55 0 17 9 41 20 55 11 14
20 29 20 34 0 5 -26 43 -57 85 -32 41 -62 81 -66 89 -6 9 3 28 27 56 l36 44
-21 26 c-11 14 -26 26 -32 26 -7 0 -18 4 -26 9 -12 8 -8 17 20 53 56 68 55 66
9 113 -47 48 -48 38 6 112 15 22 13 26 -55 118 l-70 96 25 39 c22 33 24 41 13
62 -23 43 -64 88 -97 108 -28 17 -32 23 -27 51 3 18 15 44 25 60 26 36 25 57
-3 70 -12 6 -29 24 -36 41 -8 17 -28 39 -46 50 -30 17 -32 22 -25 51 5 18 11
47 13 64 5 29 3 32 -16 29 -12 -3 -25 -5 -29 -5 -4 -1 -10 -10 -13 -21 -5 -17
-10 -18 -26 -9 -17 8 -20 18 -15 47 2 20 8 44 11 53 3 9 0 19 -7 21 -20 8 -58
-10 -58 -27 0 -8 -4 -15 -9 -15 -15 0 -39 40 -36 58 2 9 4 22 4 29 1 6 10 14
21 18 16 5 17 10 8 30 -11 24 -12 24 -39 8 -16 -10 -32 -25 -35 -35 -3 -10 -9
-18 -14 -18 -14 0 -38 40 -35 58 2 9 4 20 4 24 1 5 4 7 9 7 39 -6 44 36 7 71
-13 12 -29 38 -35 56 -6 18 -19 36 -29 39 -10 3 -42 29 -70 58 -43 43 -54 50
-69 41 -9 -6 -18 -21 -20 -33 -3 -21 -5 -22 -44 -24 -19 -1 -23 4 -25 31 -1
28 2 32 23 32 21 0 24 5 24 35 0 45 -25 47 -70 5 l-33 -30 -51 46 c-181 165
-218 194 -252 194 -24 0 -30 -5 -31 -22 -2 -24 -28 -48 -51 -48 -11 0 -13 8
-8 33 4 17 9 49 13 71 l6 38 -42 -28 -42 -27 -53 52 c-29 29 -57 51 -62 50
-20 -4 -35 2 -29 11 12 19 -15 50 -44 50 -25 0 -27 -3 -23 -30 2 -16 0 -30 -4
-31 -5 0 -30 -2 -55 -3 -44 -3 -47 -1 -58 31 -13 36 -15 37 -49 21z m225 -60
c8 -12 9 -21 5 -53 -1 -6 -14 -11 -29 -10 -24 0 -28 5 -31 32 -3 30 2 35 39
42 4 0 11 -5 16 -11z m92 -110 c15 -40 -6 -67 -51 -68 -12 0 -10 36 4 65 14
31 36 32 47 3z m-92 -108 c14 -43 6 -52 -35 -44 -37 7 -53 44 -31 70 21 25 53
13 66 -26z m538 -156 c22 -23 15 -47 -15 -49 -32 -3 -41 12 -27 42 12 27 20
29 42 7z m89 -90 c19 -19 19 -16 3 -46 -12 -24 -35 -26 -48 -5 -8 12 10 67 21
67 5 0 16 -7 24 -16z m188 -9 c14 -30 9 -36 -31 -39 -29 -2 -31 0 -31 31 0 29
3 33 25 33 17 0 29 -8 37 -25z m88 -84 c17 -33 12 -48 -17 -49 -36 0 -45 16
-26 45 19 28 29 29 43 4z m-1186 -77 c20 -8 21 -57 1 -74 -19 -16 -45 -9 -62
17 -13 19 -12 24 6 42 22 22 30 24 55 15z m-86 -97 c16 -13 15 -39 -2 -62 -12
-16 -16 -17 -30 -6 -23 19 -22 78 2 78 9 0 23 -4 30 -10z m1266 -3 c9 -8 16
-20 16 -25 0 -22 -22 -49 -40 -49 -22 0 -50 25 -50 45 0 7 7 21 16 29 8 9 22
16 29 16 7 0 21 -7 29 -16z m-1176 -86 c7 -7 12 -24 12 -39 0 -32 -28 -46 -60
-29 -24 13 -23 9 -9 49 11 32 35 41 57 19z m1282 -18 c0 -19 -24 -60 -35 -60
-22 0 -33 43 -18 67 12 18 19 21 34 12 10 -5 19 -14 19 -19z m-1379 -70 c22
-12 25 -38 6 -63 -11 -16 -15 -15 -46 11 l-34 28 24 17 c28 20 25 20 50 7z
m199 -28 c0 -10 -6 -27 -14 -38 -14 -18 -16 -18 -32 -2 -15 14 -15 21 -4 47
10 26 15 29 31 20 11 -5 19 -18 19 -27z m542 15 c15 -23 3 -42 -30 -45 -31 -3
-32 -2 -32 33 0 35 1 37 27 30 15 -3 31 -12 35 -18z m362 -3 c6 -14 -12 -64
-23 -64 -29 1 -40 36 -23 67 13 23 36 22 46 -3z m178 2 c20 -29 8 -42 -37 -43
-50 -1 -59 15 -28 49 17 19 51 16 65 -6z m188 -20 c0 -32 -22 -48 -54 -40 -32
8 -33 21 -5 56 18 22 26 25 40 17 11 -5 19 -20 19 -33z m-2820 -64 c19 -16 20
-21 9 -45 -15 -34 -37 -35 -49 -1 -23 59 -4 82 40 46z m1460 -27 c0 -21 -5
-25 -30 -25 -33 0 -35 5 -20 45 8 22 13 24 30 15 12 -6 20 -21 20 -35z m173
27 c11 -9 13 -21 8 -40 -13 -49 -81 -38 -81 14 0 37 41 52 73 26z m189 6 c2
-7 2 -26 -1 -43 -5 -24 -12 -31 -34 -33 -26 -3 -27 -2 -27 42 0 44 1 46 29 46
16 0 31 -6 33 -12z m358 -7 c0 -3 3 -15 6 -26 4 -17 0 -20 -31 -23 -34 -2 -36
0 -29 20 10 33 24 48 40 41 8 -3 14 -8 14 -12z m172 2 c29 -26 23 -48 -16 -50
-32 -3 -33 -1 -31 30 2 17 3 33 4 35 3 7 27 0 43 -15z m198 -3 c0 -32 27 -76
60 -100 42 -30 38 -40 -15 -40 -35 0 -45 4 -45 17 0 9 -20 36 -45 60 -25 23
-45 52 -45 63 0 17 7 20 45 20 39 0 45 -3 45 -20z m164 4 c31 -30 9 -80 -31
-72 -13 2 -18 13 -19 38 0 19 1 38 3 43 7 12 31 8 47 -9z m191 -29 c0 -23 -43
-34 -55 -14 -13 20 -1 35 28 34 20 0 27 -5 27 -20z m-2987 -85 c13 -19 40 -49
60 -67 34 -30 35 -34 22 -57 -7 -14 -21 -28 -32 -32 -28 -9 -20 -50 12 -54 29
-4 38 0 44 23 7 29 50 52 64 34 28 -37 13 -77 -28 -77 -10 0 -21 -8 -24 -18
-4 -11 -30 -42 -58 -70 l-52 -52 44 -45 44 -45 -44 -45 -44 -45 25 -27 c13
-15 32 -34 42 -41 25 -19 22 -51 -5 -57 -56 -12 -63 -11 -60 10 1 13 -15 39
-43 70 l-46 49 44 42 45 42 -30 28 c-34 33 -61 80 -55 97 2 6 17 12 33 13 42
2 42 2 49 24 9 28 -9 55 -50 74 l-35 17 45 56 c55 67 57 96 8 101 -32 3 -33 5
-33 48 0 37 3 44 17 42 10 -2 28 -19 41 -38z m1441 24 c5 -5 11 -22 13 -39 3
-26 0 -30 -25 -33 -34 -4 -68 23 -60 46 12 35 50 49 72 26z m191 -28 c16 -25
44 -54 60 -66 32 -23 40 -57 14 -67 -10 -4 -27 6 -47 30 -18 19 -46 42 -62 50
-28 14 -30 19 -27 56 5 54 23 53 62 -3z m183 12 c8 -24 -5 -38 -34 -38 -32 0
-35 7 -18 44 9 20 15 23 30 16 9 -6 19 -15 22 -22z m176 3 c14 -25 -5 -61 -32
-61 -48 0 -68 63 -24 79 26 10 45 4 56 -18z m184 0 c5 -22 -13 -61 -29 -61
-23 0 -35 36 -23 63 12 28 45 26 52 -2z m167 5 c0 -6 25 -37 56 -68 65 -65 65
-82 4 -98 -33 -9 -44 -18 -56 -46 -17 -41 -31 -43 -44 -8 -16 40 -12 49 23 65
26 12 33 20 35 50 3 35 2 36 -37 43 -22 3 -42 10 -45 14 -7 11 44 73 55 67 5
-4 9 -12 9 -19z m194 -2 c7 -19 -14 -64 -30 -64 -24 0 -33 32 -18 62 15 28 38
29 48 2z m358 4 c4 -7 8 -20 8 -28 0 -41 -61 -55 -80 -19 -24 45 44 90 72 47z
m188 -24 c0 -20 -5 -24 -28 -24 -16 0 -32 3 -35 6 -7 8 11 46 27 56 16 10 36
-11 36 -38z m-3165 -95 c-6 -30 -15 -39 -39 -39 -50 0 -63 68 -16 81 31 7 60
-15 55 -42z m1625 6 c0 -22 -4 -25 -39 -25 -42 0 -58 18 -38 43 28 35 77 23
77 -18z m371 8 c5 -18 26 -48 45 -67 36 -36 43 -63 19 -72 -10 -4 -34 11 -65
40 -27 25 -54 46 -60 46 -10 0 -15 72 -5 81 2 3 16 5 30 5 19 0 27 -7 36 -33z
m344 13 c21 -32 5 -66 -30 -66 -22 0 -25 4 -25 39 0 35 8 48 32 50 4 1 15 -10
23 -23z m361 15 c7 -1 12 -19 12 -41 1 -39 0 -40 -34 -40 -27 0 -37 5 -46 25
-9 20 -8 28 6 44 10 10 25 18 34 16 9 -2 22 -4 28 -4z m178 -7 c27 -26 20 -54
-12 -54 -39 0 -44 8 -26 41 17 34 18 34 38 13z m180 0 c27 -26 20 -54 -12 -54
-39 0 -44 8 -26 41 17 34 18 34 38 13z m-896 -20 c16 -5 16 -6 -2 -20 -28 -20
-56 -18 -56 4 0 10 3 21 6 25 6 5 11 4 52 -9z m-1172 -90 c8 -30 -11 -54 -41
-54 -19 0 -21 5 -20 43 2 23 3 43 4 43 0 1 12 -1 26 -4 16 -3 27 -13 31 -28z
m717 26 c7 0 12 -17 13 -40 1 -39 0 -40 -31 -40 -18 0 -38 6 -44 14 -19 23 11
81 36 71 8 -3 20 -5 26 -5z m190 -22 c8 -24 -5 -38 -34 -38 -32 0 -35 7 -18
44 9 20 15 23 30 16 9 -6 19 -15 22 -22z m348 4 c4 -11 30 -43 58 -69 40 -39
48 -51 40 -65 -16 -28 -33 -22 -74 26 -21 25 -50 50 -65 56 -26 11 -27 14 -18
44 12 38 46 43 59 8z m375 -8 c8 -30 -11 -54 -40 -54 -46 0 -62 48 -25 73 27
20 58 10 65 -19z m180 0 c13 -53 -56 -77 -78 -28 -11 23 -10 29 10 44 28 23
60 15 68 -16z m362 -6 c3 -25 0 -28 -27 -28 -31 0 -38 11 -25 45 11 27 48 14
52 -17z m-180 -9 c-5 -33 -31 -45 -63 -31 -22 10 -24 15 -15 32 8 14 21 20 46
20 31 0 35 -3 32 -21z m-2113 -53 c19 -8 35 -19 35 -24 0 -5 -16 -30 -35 -55
l-34 -45 35 -46 c38 -50 39 -86 3 -86 -32 0 -113 76 -136 129 -17 39 -13 44
27 46 38 2 53 16 52 52 0 47 4 49 53 29z m752 -12 c3 -8 2 -26 -1 -40 -6 -21
-11 -25 -39 -22 -27 3 -33 7 -35 33 -3 18 2 33 13 41 19 14 54 7 62 -12z m183
-17 c0 -36 -16 -54 -37 -41 -22 13 -30 64 -12 75 19 12 49 -9 49 -34z m186 23
c0 -27 -18 -70 -30 -70 -21 0 -36 23 -36 56 0 29 2 31 33 30 21 -1 32 -7 33
-16z m175 -11 c14 -26 3 -39 -32 -39 -32 0 -35 7 -18 44 13 27 34 25 50 -5z
m364 -15 c0 -14 -8 -20 -32 -22 -31 -3 -33 -1 -33 27 0 16 6 31 13 34 18 7 52
-18 52 -39z m182 -2 c1 -30 -3 -42 -13 -43 -71 -5 -69 -6 -72 43 l-3 46 43 -2
43 -2 2 -42z m190 8 c8 -19 28 -50 45 -67 l31 -32 -51 -55 c-29 -30 -52 -60
-52 -65 0 -15 -16 -14 -33 3 -15 16 -17 71 -1 71 27 2 54 18 54 33 0 9 -15 39
-34 65 -27 38 -37 70 -27 83 1 0 13 0 27 0 20 -2 30 -10 41 -36z m-1817 10 c0
-10 20 -38 45 -62 25 -24 45 -48 45 -55 0 -16 -33 -33 -64 -33 -24 0 -26 -4
-26 -40 0 -33 4 -42 23 -49 18 -8 30 -2 69 37 l47 45 45 -46 c34 -36 53 -47
76 -47 27 0 35 -8 31 -32 0 -5 17 -8 40 -8 36 0 40 2 34 20 -5 17 -2 20 22 20
32 0 129 -75 167 -129 24 -35 48 -35 95 -2 41 29 51 26 51 -13 0 -29 -3 -34
-19 -31 -28 5 -34 -32 -10 -56 18 -18 23 -19 42 -6 55 35 67 41 73 34 7 -7 1
-20 -31 -76 -12 -22 -11 -28 8 -53 55 -72 66 -118 28 -118 -20 0 -41 -19 -41
-37 0 -7 29 -51 66 -98 l65 -86 -35 -49 -35 -49 32 -28 c62 -55 63 -58 28
-102 -17 -21 -31 -42 -31 -46 0 -4 14 -24 30 -45 17 -21 30 -41 30 -45 0 -4
-14 -25 -31 -46 -34 -44 -33 -67 7 -98 l25 -19 -31 -50 c-16 -27 -30 -54 -30
-60 0 -6 13 -26 29 -45 l30 -33 -28 -44 c-45 -72 -46 -106 -3 -101 7 1 12 -11
12 -34 0 -28 -4 -35 -20 -35 -13 0 -25 -12 -34 -35 -8 -19 -29 -55 -45 -79
-17 -25 -31 -49 -31 -53 0 -5 14 -22 30 -38 17 -16 26 -31 22 -34 -18 -13
-162 -193 -162 -203 0 -10 -70 -8 -108 3 -8 2 -19 -4 -25 -14 -10 -15 -8 -22
12 -38 33 -27 21 -49 -28 -49 -34 0 -39 3 -36 20 7 35 -34 30 -93 -12 l-43
-30 -44 31 c-24 17 -47 31 -52 31 -4 -1 -24 -14 -43 -30 -43 -37 -51 -37 -87
0 -34 37 -51 38 -63 4 -15 -37 -13 -41 20 -48 34 -6 50 -33 29 -47 -21 -13
-57 -11 -56 4 1 39 -5 47 -45 57 -26 7 -59 27 -84 52 -23 22 -45 40 -48 39
-22 -4 -27 2 -26 27 4 49 0 62 -17 62 -9 0 -24 7 -34 16 -17 15 -16 18 18 65
l35 50 -36 52 -37 52 26 3 c14 2 38 -6 54 -17 38 -28 41 -27 39 14 -1 19 -6
35 -12 34 -33 -4 -37 2 -32 44 3 23 5 45 5 49 1 4 10 10 21 13 23 7 21 24 -11
89 l-20 38 26 43 c33 58 33 85 -1 85 -24 0 -25 2 -20 47 3 26 9 49 13 51 33
11 37 21 19 41 -25 28 -36 26 -36 -4 0 -22 -4 -25 -34 -25 -30 0 -33 2 -28 26
3 18 15 31 37 40 40 17 38 37 -12 103 l-33 44 29 26 c28 24 91 135 91 160 0 6
-11 11 -25 11 -18 0 -25 -5 -25 -18 0 -27 -9 -32 -36 -20 -33 15 -30 37 6 51
42 16 42 44 -1 99 -43 55 -42 82 2 97 54 19 28 79 -46 104 -5 2 10 27 33 57
54 67 54 90 2 103 -22 5 -26 12 -25 44 0 33 4 39 30 49 51 18 43 43 -37 120
-40 39 -79 73 -87 75 -10 4 -12 14 -6 37 6 28 10 32 41 32 27 0 34 -4 35 -20
3 -38 4 -42 23 -56 29 -21 42 -17 56 16 7 17 32 48 55 68 58 51 65 92 16 92
-26 0 -61 21 -61 36 0 16 23 44 37 44 8 0 34 20 57 45 46 48 86 60 86 25z
m2164 4 c12 -32 6 -44 -22 -44 -37 0 -43 7 -30 36 13 27 43 32 52 8z m-174
-12 c0 -51 -53 -65 -62 -17 -4 21 -1 25 26 28 17 2 32 5 34 5 1 1 2 -6 2 -16z
m-2813 -76 c20 -31 13 -46 -22 -46 -32 0 -35 3 -35 28 0 16 3 31 6 34 8 8 43
-3 51 -16z m1456 -15 c6 -25 0 -31 -35 -31 -31 0 -34 7 -17 44 9 20 16 23 29
16 10 -5 20 -18 23 -29z m354 9 c15 -31 9 -40 -28 -40 -25 0 -29 4 -29 28 0
16 3 31 6 34 12 12 40 0 51 -22z m191 8 c2 -8 -2 -27 -7 -41 -20 -51 -90 -26
-77 27 8 34 78 46 84 14z m360 -27 c3 -18 -2 -21 -31 -21 -31 0 -35 3 -35 28
0 15 5 30 12 34 16 10 50 -16 54 -41z m176 23 c12 -32 6 -44 -22 -44 -37 0
-43 7 -30 36 13 27 43 32 52 8z m362 -9 c9 -35 -2 -55 -28 -55 -38 0 -49 13
-42 48 6 27 11 32 35 32 22 0 30 -6 35 -25z m-1256 1 c0 -22 -17 -36 -41 -36
-22 0 -29 5 -29 20 0 16 7 20 35 20 19 0 35 -2 35 -4z m530 -17 c-14 -24 -53
-22 -58 4 -3 14 4 17 33 17 33 0 35 -2 25 -21z m-1712 -88 c3 -20 0 -22 -30
-19 -25 2 -33 8 -34 23 0 11 4 26 9 33 14 18 51 -8 55 -37z m902 4 c0 -17 -6
-25 -17 -25 -38 0 -63 13 -63 31 0 24 38 40 63 27 9 -5 17 -20 17 -33z m1090
7 c0 -16 -24 -32 -47 -32 -19 0 -23 5 -23 28 0 16 3 31 6 35 8 7 64 -20 64
-31z m360 15 c0 -27 27 -73 56 -96 l26 -21 -35 -39 c-19 -21 -38 -52 -42 -69
-5 -24 -11 -30 -27 -27 -27 6 -34 13 -42 48 -6 25 -3 29 28 42 19 8 36 23 38
32 7 32 -4 63 -21 63 -28 0 -44 17 -46 47 -2 32 8 41 41 39 16 -1 24 -7 24
-19z m-1635 -22 c0 -21 -7 -33 -25 -42 -23 -12 -25 -11 -28 12 -4 32 15 67 36
63 11 -2 17 -13 17 -33z m364 13 c11 -30 6 -38 -30 -38 -31 0 -35 9 -19 41 14
26 39 24 49 -3z m180 0 c11 -30 6 -38 -30 -38 -31 0 -35 9 -19 41 14 26 39 24
49 -3z m181 -3 c0 -12 -14 -35 -20 -35 -13 0 -41 31 -35 39 4 7 55 3 55 -4z
m166 -15 c0 -11 -6 -20 -13 -20 -7 0 -17 9 -23 20 -9 17 -8 20 13 20 16 0 23
-6 23 -20z m180 5 c-1 -9 -5 -15 -9 -15 -4 0 -11 0 -16 0 -5 0 -11 7 -15 15
-4 11 1 15 18 15 16 0 23 -5 22 -15z m721 -5 c-2 -26 -39 -23 -43 3 -1 12 5
17 21 17 18 0 23 -5 22 -20z m-2977 -66 c0 -9 25 -40 55 -69 30 -29 55 -56 55
-59 0 -19 -54 -1 -91 30 -24 20 -53 40 -66 45 -20 7 -21 11 -10 38 8 22 18 31
34 31 15 0 23 -6 23 -16z m181 6 c27 -15 8 -50 -26 -50 -21 0 -25 5 -25 30 0
32 16 38 51 20z m1817 -7 c11 -19 -5 -63 -23 -63 -19 0 -35 23 -35 52 0 23 4
28 25 28 13 0 28 -8 33 -17z m727 -3 c8 -24 -11 -60 -31 -60 -16 0 -21 9 -28
53 -4 24 -2 27 24 27 20 0 31 -6 35 -20z m-1267 -17 c-2 -12 -14 -19 -35 -21
-27 -3 -31 -1 -26 17 7 28 66 31 61 4z m182 3 c0 -14 -21 -26 -46 -26 -8 0
-14 9 -14 20 0 16 7 20 30 20 19 0 30 -5 30 -14z m183 7 c12 -11 -14 -33 -39
-33 -17 0 -24 6 -24 20 0 15 7 20 28 20 16 0 32 -3 35 -7z m344 -13 c1 -11 -4
-20 -12 -20 -8 0 -11 7 -8 20 3 11 8 20 12 20 4 0 7 -9 8 -20z m179 -3 c3 -25
-40 -19 -44 6 -3 14 1 18 19 15 12 -2 23 -11 25 -21z m204 3 c0 -16 -7 -20
-34 -20 -32 0 -36 6 -27 38 1 1 15 2 31 2 23 0 30 -4 30 -20z m540 7 c0 -7 -6
-22 -14 -32 -18 -25 -46 -13 -46 20 0 21 5 25 30 25 18 0 30 -5 30 -13z
m-2812 -69 c7 -7 12 -20 12 -30 0 -14 -8 -18 -35 -18 -39 0 -39 0 -23 35 12
27 27 32 46 13z m181 -2 c17 -20 3 -66 -19 -66 -26 0 -50 10 -50 21 0 17 32
59 45 59 7 0 18 -6 24 -14z m2169 2 c29 -29 7 -61 -33 -49 -29 9 -29 61 0 61
12 0 26 -5 33 -12z m367 -7 c3 -10 0 -30 -6 -44 -10 -21 -15 -24 -30 -16 -21
11 -24 31 -9 60 14 24 37 25 45 0z m-1259 -18 c-2 -12 -13 -19 -34 -21 -27 -3
-32 0 -32 17 0 17 6 21 34 21 27 0 34 -4 32 -17z m154 -3 c0 -11 -4 -20 -10
-20 -5 0 -14 9 -20 20 -9 17 -8 20 10 20 13 0 20 -7 20 -20z m186 3 c-2 -10
-13 -19 -24 -21 -17 -3 -22 2 -22 17 0 16 6 21 24 21 17 0 24 -5 22 -17z m180
-5 c3 -22 -10 -23 -30 -2 -21 21 -20 26 6 22 11 -2 22 -11 24 -20z m192 2
c-15 -24 -22 -25 -42 -4 -22 22 -21 24 19 24 33 0 34 -1 23 -20z m-2614 -73
c-2 -7 16 -32 41 -57 25 -24 45 -48 45 -53 0 -4 -14 -26 -31 -47 l-32 -39 57
-71 c58 -72 74 -81 96 -55 20 24 4 60 -37 81 -21 10 -39 19 -40 20 -8 2 23 64
32 64 13 0 57 -29 71 -48 8 -12 15 -12 33 -3 l22 12 -21 30 c-12 16 -26 29
-31 29 -14 0 -11 18 8 46 l16 25 46 -45 46 -46 38 27 c20 14 39 34 42 44 11
33 46 19 51 -19 1 -7 -13 -28 -31 -46 -29 -30 -32 -36 -21 -52 13 -16 15 -16
48 4 48 30 96 30 100 0 2 -14 15 -29 33 -37 17 -8 32 -18 33 -23 11 -27 56
-67 82 -73 28 -6 30 -10 30 -51 0 -38 -3 -44 -20 -44 -53 0 -116 -58 -145
-133 -15 -39 -20 -44 -48 -44 -31 0 -33 2 -34 42 -2 38 0 42 30 51 25 7 33 15
35 37 3 27 2 28 -35 25 -32 -3 -40 -8 -48 -33 -6 -16 -17 -31 -25 -33 -24 -5
-58 7 -64 24 -7 19 21 69 45 81 15 7 16 11 5 31 l-12 23 -41 -33 c-22 -18 -47
-43 -57 -56 -16 -21 -16 -24 14 -66 16 -25 30 -48 30 -53 0 -4 -14 -26 -30
-47 -32 -43 -40 -86 -15 -86 16 0 55 -35 55 -49 0 -12 -28 -41 -40 -41 -13 0
-129 120 -135 141 -5 14 -16 19 -41 19 -42 0 -43 -14 -4 -66 16 -21 29 -43 29
-49 0 -5 -13 -28 -29 -49 -40 -52 -38 -66 5 -66 28 0 35 4 35 19 0 28 27 51
61 51 24 0 29 -4 29 -26 0 -32 17 -64 33 -64 7 0 33 20 57 45 54 55 85 59 94
14 3 -17 24 -49 46 -71 33 -34 38 -43 29 -60 -15 -28 -49 -19 -75 20 -13 18
-25 38 -27 45 -8 23 -42 -8 -42 -39 0 -24 6 -31 31 -38 29 -9 32 -13 32 -53 1
-31 -3 -43 -13 -44 -40 -4 -78 -26 -100 -60 -24 -35 -42 -37 -57 -4 -14 32 1
51 47 59 32 6 35 10 35 41 0 25 -5 35 -21 40 -11 4 -42 29 -69 56 -27 27 -53
49 -58 49 -14 0 -31 -23 -35 -47 -1 -11 -38 -49 -82 -84 -108 -88 -109 -90
-57 -139 42 -41 48 -55 34 -78 -6 -9 -25 0 -73 36 -102 77 -101 76 -46 129 26
24 47 50 47 58 0 18 -31 35 -64 35 -14 0 -26 2 -26 5 0 19 47 90 99 152 34 40
61 78 61 84 0 15 -75 7 -76 -8 -1 -7 -2 -16 -3 -21 0 -4 -14 -7 -31 -7 -25 -1
-30 3 -30 23 0 16 5 23 18 21 48 -4 53 -1 49 40 -2 24 -16 54 -35 79 -36 44
-42 82 -14 82 22 1 52 24 52 40 0 18 -40 60 -57 60 -23 0 -25 27 -4 52 10 12
29 34 40 48 l20 25 -44 45 -45 45 46 48 c25 27 44 54 42 60 -3 7 -19 18 -36
26 -28 13 -32 20 -32 52 0 31 4 38 23 41 26 5 48 -9 41 -25z m176 4 c17 -32
12 -41 -25 -41 -39 0 -39 -1 -25 34 11 31 35 34 50 7z m363 -14 c-1 -16 -8
-36 -15 -44 -11 -13 -14 -12 -30 7 -10 12 -18 33 -18 47 0 21 4 24 33 21 28
-3 32 -6 30 -31z m177 18 c16 -19 -1 -65 -24 -65 -19 0 -28 15 -31 51 -2 24 1
29 20 29 12 0 28 -7 35 -15z m1269 -7 c11 -30 6 -38 -30 -38 -32 0 -36 10 -17
40 17 26 37 25 47 -2z m1085 6 c14 -36 7 -44 -39 -44 -46 0 -53 7 -35 41 13
24 65 26 74 3z m180 0 c13 -33 6 -55 -20 -65 -15 -5 -28 -8 -29 -7 -4 3 -8 57
-6 76 1 18 48 15 55 -4z m-2884 -16 c-1 -18 -25 -48 -38 -48 -12 0 -32 31 -32
49 0 6 16 11 35 11 22 0 35 -5 35 -12z m1800 -8 c-6 -12 -21 -20 -35 -20 -18
0 -25 5 -25 20 0 16 7 20 35 20 33 0 35 -2 25 -20z m160 16 c0 -2 3 -11 6 -20
5 -12 0 -16 -20 -16 -19 0 -26 5 -26 20 0 13 7 20 20 20 11 0 20 -2 20 -4z
m180 -30 c-14 -14 -22 -2 -14 18 5 14 9 15 15 4 4 -7 4 -17 -1 -22z m210 26
c0 -15 -24 -32 -47 -32 -25 0 -26 1 -17 24 6 16 64 23 64 8z m180 0 c0 -15
-24 -32 -46 -32 -20 0 -23 9 -15 38 2 6 61 1 61 -6z m-2993 -74 c21 -26 -4
-78 -35 -74 -21 3 -27 38 -12 65 12 24 33 27 47 9z m2710 0 c8 -12 9 -20 5
-54 -2 -15 -28 -25 -47 -18 -19 8 -19 34 1 62 17 25 27 27 41 10z m361 0 c16
-16 15 -45 0 -51 -7 -2 -23 -1 -35 4 -20 7 -22 11 -11 34 12 27 27 32 46 13z
m187 -8 c4 -13 0 -31 -10 -46 -13 -20 -19 -23 -31 -13 -27 22 -11 79 22 79 7
0 16 -9 19 -20z m-2525 -11 c0 -20 -21 -49 -35 -49 -17 0 -39 36 -30 50 8 13
65 13 65 -1z m1266 -11 c2 -14 -5 -18 -32 -18 -28 0 -34 4 -34 21 0 17 5 20
32 17 21 -2 32 -9 34 -20z m154 2 c0 -13 -7 -20 -20 -20 -13 0 -20 7 -20 20 0
13 7 20 20 20 13 0 20 -7 20 -20z m186 0 c0 -14 -7 -20 -23 -20 -16 0 -23 6
-23 20 0 14 7 20 23 20 16 0 23 -6 23 -20z m204 12 c0 -15 -24 -32 -47 -32
-22 0 -31 19 -16 33 9 10 63 9 63 -1z m337 -12 c-1 -11 -7 -20 -14 -20 -7 0
-13 2 -13 4 0 2 -3 11 -6 20 -4 11 0 16 14 16 15 0 20 -6 19 -20z m-2069 -62
c7 -7 12 -20 12 -30 0 -14 -8 -18 -34 -18 -34 0 -35 0 -25 30 12 32 27 38 47
18z m2530 0 c7 -7 12 -20 12 -30 0 -13 -8 -18 -30 -18 -27 0 -30 3 -30 30 0
22 5 30 18 30 10 0 23 -5 30 -12z m-1252 -30 c2 -14 -5 -18 -32 -18 -28 0 -34
4 -34 21 0 17 5 20 32 17 21 -2 32 -9 34 -20z m174 2 c-6 -12 -21 -20 -35 -20
-18 0 -25 5 -25 20 0 16 7 20 35 20 33 0 35 -2 25 -20z m190 0 c0 -15 -7 -20
-25 -20 -14 0 -29 8 -35 20 -10 18 -8 20 25 20 28 0 35 -4 35 -20z m168 3 c-5
-26 -35 -28 -48 -4 -10 19 -8 21 20 21 25 0 31 -4 28 -17z m172 -4 c0 -25 -33
-22 -38 4 -2 12 3 17 17 17 15 0 21 -6 21 -21z m180 2 c0 -26 -27 -34 -39 -12
-12 21 -5 31 21 31 11 0 18 -7 18 -19z m200 -1 c0 -15 -7 -20 -28 -20 -34 0
-43 7 -35 26 3 8 18 14 34 14 22 0 29 -5 29 -20z m-3166 -86 c-2 -14 -48 -34
-57 -25 -4 4 -3 20 3 35 10 27 12 27 33 13 12 -8 21 -18 21 -23z m1987 4 c7
-27 4 -30 -26 -30 -31 0 -35 3 -35 33 0 27 3 30 27 27 19 -2 29 -10 34 -30z
m162 -7 c3 -11 0 -22 -7 -24 -19 -7 -36 4 -36 24 0 25 36 25 43 0z m183 -1 c0
-11 -6 -20 -13 -20 -7 0 -17 9 -23 20 -9 17 -8 20 13 20 16 0 23 -6 23 -20z
m179 0 c1 -8 -4 -18 -9 -22 -15 -10 -36 3 -36 24 0 14 6 19 23 16 12 -2 22
-10 22 -18z m181 3 c-2 -37 -46 -38 -46 -2 0 13 7 19 24 19 17 0 23 -5 22 -17z
m204 -6 c0 -23 -9 -26 -62 -18 -5 1 -4 20 1 39 1 1 15 2 31 2 25 0 30 -4 30
-23z m180 13 c0 -5 -5 -20 -11 -34 -9 -20 -16 -23 -29 -16 -10 5 -20 21 -22
35 -5 23 -2 25 28 25 19 0 34 -4 34 -10z m158 -24 c-1 -30 -4 -34 -18 -26 -18
10 -32 45 -22 54 3 3 13 6 23 6 15 0 18 -7 17 -34z m-258 -51 c19 -23 8 -50
-20 -51 -37 -1 -40 3 -28 36 11 33 29 38 48 15z m214 -49 c84 -81 86 -109 9
-112 -30 -1 -33 2 -33 26 0 31 -16 48 -57 59 -21 5 -28 14 -30 34 -2 25 19 57
37 57 5 0 38 -29 74 -64z m-1114 29 c0 -16 -12 -25 -40 -30 -15 -3 -20 2 -20
19 0 19 6 23 30 24 19 0 30 -4 30 -13z m163 2 c7 -18 -4 -33 -23 -32 -8 0 -16
10 -18 23 -3 16 2 22 16 22 11 0 22 -6 25 -13z m179 1 c3 -7 3 -19 1 -26 -6
-16 -33 4 -33 24 0 17 26 18 32 2z m181 -3 c7 -16 -8 -29 -23 -20 -15 9 -12
35 4 35 8 0 16 -7 19 -15z m185 -10 c-3 -21 -28 -28 -40 -11 -11 16 2 35 23
33 14 -1 19 -7 17 -22z m562 11 c0 -17 -11 -25 -40 -31 -15 -3 -20 2 -20 18 0
18 6 23 30 25 21 2 30 -2 30 -12z m-3345 -88 c1 -16 -6 -35 -17 -44 -39 -36
-94 26 -56 64 7 7 26 12 42 10 25 -2 30 -8 31 -30z m3063 20 c7 -7 12 -22 12
-34 0 -17 -6 -21 -27 -20 -37 1 -45 14 -26 43 17 26 24 28 41 11z m356 6 c9
-4 16 -18 16 -33 0 -23 -4 -27 -30 -26 -32 0 -37 13 -20 46 12 21 12 21 34 13z
m-1248 -36 c2 -18 -2 -20 -31 -20 -30 0 -35 2 -35 21 0 26 62 25 66 -1z m160
0 c3 -25 -23 -22 -36 3 -10 18 -9 20 11 17 12 -2 23 -11 25 -20z m198 6 c9
-23 -10 -49 -36 -51 -22 -2 -25 2 -25 31 0 29 3 33 28 34 16 0 30 -6 33 -14z
m156 1 c0 -8 0 -18 0 -22 0 -5 -8 -8 -17 -8 -12 0 -18 8 -19 23 -1 15 4 22 17
22 11 0 19 -7 19 -15z m187 -6 c1 -14 -3 -19 -15 -17 -23 4 -27 33 -4 35 11 1
18 -6 19 -18z m-435 -74 c14 -30 8 -37 -32 -40 -34 -3 -38 9 -14 43 20 29 32
28 46 -3z m716 13 c16 -16 15 -45 0 -50 -7 -3 -22 -2 -33 1 -19 6 -21 12 -17
49 2 15 34 16 50 0z m-3247 -27 c-10 -19 -45 -34 -55 -23 -3 3 -6 14 -6 24 0
14 8 18 35 18 32 0 35 -2 26 -19z m909 12 c0 -15 -15 -31 -30 -33 -35 -5 -41
3 -31 38 2 6 61 1 61 -5z m1240 -16 c0 -16 -6 -23 -20 -23 -14 0 -20 7 -20 23
0 16 6 23 20 23 14 0 20 -7 20 -23z m186 1 c2 -17 -21 -32 -37 -22 -5 3 -9 14
-9 25 0 15 6 20 22 17 11 -2 22 -11 24 -20z m360 -1 c1 -8 -4 -18 -10 -20 -19
-8 -40 9 -33 26 7 20 40 15 43 -6z m175 -20 c-8 -8 -11 -5 -11 9 0 27 14 41
18 19 2 -9 -1 -22 -7 -28z m207 22 c-4 -29 -54 -36 -61 -9 -6 25 0 30 35 30
24 0 29 -4 26 -21z m342 3 c0 -25 -7 -31 -29 -25 -13 3 -17 11 -14 24 7 25 43
25 43 1z m-3516 -68 c29 -29 15 -49 -36 -50 -33 0 -38 3 -38 22 0 39 47 56 74
28z m891 4 c14 -6 25 -14 25 -17 -1 -16 -18 -31 -40 -33 -21 -3 -24 1 -25 30
-1 35 3 37 40 20z m1819 -4 c9 -8 16 -22 16 -29 0 -12 -26 -45 -35 -45 -2 0
-15 5 -28 11 -22 10 -24 14 -14 45 11 37 35 44 61 18z m-2544 -28 c0 -31 -34
-29 -38 2 -3 17 2 22 17 22 16 0 21 -6 21 -24z m546 1 c3 -24 -30 -18 -34 7
-3 12 1 17 14 14 9 -1 18 -11 20 -21z m1627 3 c6 -22 -12 -27 -31 -8 -17 17
-15 28 7 28 10 0 21 -9 24 -20z m202 12 c15 -3 -19 -32 -43 -37 -17 -3 -22 1
-22 19 0 22 13 26 65 18z m338 -6 c3 -8 0 -19 -7 -25 -9 -8 -12 -4 -12 14 0
27 11 33 19 11z m200 2 c-2 -5 -3 -12 -3 -17 0 -11 -35 -21 -46 -12 -5 3 -10
13 -10 23 -1 12 6 16 30 15 17 -1 30 -5 29 -9z m187 -12 c0 -19 -5 -23 -27
-22 -51 2 -53 42 -3 44 25 1 30 -3 30 -22z m156 -2 c3 -16 -2 -20 -18 -19 -14
1 -22 9 -23 24 -2 29 37 25 41 -5z m204 9 c0 -23 -5 -27 -32 -28 -23 -1 -28 4
-28 22 0 20 5 23 30 21 17 -1 30 -8 30 -15z m-3726 -59 c9 -4 16 -18 16 -34 0
-22 -4 -27 -25 -26 -33 2 -37 9 -26 40 11 28 12 29 35 20z m911 -7 c13 -10 16
-21 12 -39 -8 -31 -30 -41 -60 -27 -21 10 -23 14 -13 45 12 36 30 43 61 21z
m2535 -2 c10 -12 10 -21 0 -45 -14 -33 -22 -37 -38 -17 -13 15 -23 63 -15 71
11 11 41 6 53 -9z m-3250 -19 c0 -24 -44 -44 -56 -25 -3 6 -3 16 0 24 7 20 56
20 56 1z m887 -2 c9 -24 -19 -37 -34 -17 -10 13 -10 18 0 25 18 12 27 10 34
-8z m1263 -11 c0 -25 0 -26 -20 -8 -11 10 -20 22 -20 27 0 4 9 8 20 8 15 0 20
-7 20 -27z m204 18 c7 -11 -25 -37 -44 -37 -8 1 -16 10 -18 21 -2 17 3 21 27
23 16 1 32 -2 35 -7z m183 -11 c1 -11 -1 -20 -5 -21 -4 0 -14 -2 -23 -4 -24
-4 -43 11 -36 29 10 25 62 21 64 -4z m363 10 c0 -18 -30 -38 -50 -33 -22 6
-22 6 -15 26 6 15 65 22 65 7z m178 -13 c-3 -20 -13 -23 -57 -18 -7 1 -8 29
-2 37 1 1 15 1 32 2 25 1 30 -3 27 -21z m342 2 c0 -14 -5 -19 -17 -17 -26 5
-29 38 -4 38 15 0 21 -6 21 -21z m-799 -70 c19 -30 10 -46 -26 -46 -33 0 -35
2 -35 34 0 30 3 33 26 30 14 -2 30 -10 35 -18z m-2708 -11 c-2 -5 -3 -14 -3
-22 0 -10 -10 -14 -30 -14 -24 1 -30 5 -30 24 0 19 5 22 33 21 17 -1 31 -5 30
-9z m157 -22 c0 -28 -4 -35 -22 -38 -20 -3 -22 -8 -20 -38 5 -45 8 -50 36 -50
12 0 25 -3 29 -6 9 -9 -13 -66 -40 -101 l-23 -32 32 -48 c44 -64 44 -71 3 -89
-19 -8 -35 -21 -35 -29 0 -8 14 -35 32 -60 l32 -45 -32 -39 c-37 -46 -39 -65
-12 -106 30 -45 26 -59 -12 -50 -18 4 -44 10 -57 12 l-24 6 25 -37 c32 -46 31
-90 -1 -94 -16 -3 -35 9 -66 41 l-44 45 -45 -45 -46 -45 -65 63 c-75 74 -88
106 -47 115 53 12 60 15 66 29 8 21 -13 63 -35 70 -9 3 -36 19 -58 36 -72 52
-109 139 -59 139 14 0 47 24 89 66 l66 65 -38 40 c-34 36 -57 85 -45 96 10 10
79 -31 114 -68 56 -60 56 -61 7 -111 l-45 -46 28 -23 c57 -49 81 -109 44 -109
-21 0 -42 -18 -42 -37 0 -8 13 -13 35 -13 19 0 34 3 34 8 -4 26 3 44 15 39 24
-9 48 17 51 56 2 20 0 37 -5 37 -5 0 -21 5 -35 10 l-26 10 47 60 c45 58 46 61
30 79 -10 11 -30 25 -46 31 l-29 12 39 52 c22 29 40 58 40 64 0 6 12 14 28 17
50 11 77 30 87 63 13 46 45 44 45 -2z m725 9 c0 -13 -7 -20 -20 -20 -18 0 -27
19 -17 38 8 16 37 1 37 -18z m1467 18 c8 -4 -18 -63 -27 -63 -11 0 -35 34 -35
51 0 14 6 18 28 17 15 -1 30 -3 34 -5z m158 -8 c0 -8 0 -18 0 -22 0 -5 -9 -9
-20 -9 -15 -1 -19 4 -18 22 3 27 38 35 38 9z m381 2 c1 -17 -8 -26 -34 -32
-27 -7 -29 -1 -18 43 2 6 52 -5 52 -11z m179 4 c0 -28 -13 -40 -31 -30 -27 14
-24 34 6 37 14 1 25 -2 25 -7z m165 -17 c0 -28 -38 -25 -40 3 -1 17 3 22 19
19 13 -2 21 -10 21 -22z m177 11 c13 -18 8 -31 -12 -32 -11 -1 -20 1 -21 5 0
4 -2 15 -4 25 -4 19 24 20 37 2z m186 -7 c-5 -34 -38 -37 -38 -4 0 20 5 26 21
26 15 0 20 -5 17 -22z m-3707 -60 c-1 -5 -1 -24 -1 -43 0 -27 -4 -35 -18 -35
-40 0 -58 59 -24 79 19 12 43 11 43 -1z m2538 3 c7 -5 15 -21 16 -35 3 -24 1
-26 -31 -24 -31 2 -34 5 -34 35 0 34 18 43 49 24z m909 -3 c7 -7 12 -22 12
-34 0 -19 -5 -23 -30 -22 -32 1 -38 15 -20 49 12 22 21 24 38 7z m-2358 -33
c0 -8 -4 -16 -9 -19 -12 -8 -34 21 -27 33 9 14 36 2 36 -14z m1822 16 c16 -2
-5 -29 -25 -35 -26 -6 -42 7 -34 28 4 10 15 14 29 12 13 -3 26 -5 30 -5z m366
-9 c4 -14 -35 -35 -54 -28 -15 6 -15 26 -1 37 13 9 51 3 55 -9z m361 2 c7 -7
-28 -34 -46 -34 -13 0 -18 31 -7 43 7 6 44 1 53 -9z m-1289 -15 c0 -11 -4 -17
-10 -14 -5 3 -10 13 -10 21 0 8 5 14 10 14 6 0 10 -9 10 -21z m-1709 -48 c21
-3 11 -81 -10 -81 -19 1 -33 22 -36 53 -3 33 -1 36 18 33 12 -3 25 -5 28 -5z
m359 -42 c0 -14 -6 -18 -22 -15 -26 3 -31 28 -8 37 20 9 30 2 30 -22z m1640 0
c0 -19 -13 -39 -26 -39 -16 0 -37 46 -29 60 6 10 55 -9 55 -21z m166 3 c-4
-24 -43 -28 -43 -5 0 10 5 21 10 25 16 10 35 -2 33 -20z m362 3 c0 -14 -4 -25
-9 -25 -10 0 -12 34 -2 43 10 10 11 9 11 -18z m362 3 c0 -9 -5 -20 -10 -23
-18 -11 -39 3 -34 22 7 24 44 25 44 1z m200 5 c0 -13 -30 -33 -49 -33 -6 0
-11 10 -11 23 0 18 6 22 30 22 18 1 30 -4 30 -12z m-1287 -13 c-3 -11 -9 -20
-14 -20 -5 0 -9 9 -9 20 0 11 6 20 14 20 9 0 12 -7 9 -20z m543 4 c-3 -9 -6
-18 -6 -20 0 -3 -4 -3 -10 1 -11 7 -2 35 12 35 6 0 7 -7 4 -16z m-2081 -56
c28 -12 29 -16 15 -38 -13 -21 -80 -23 -80 -2 0 13 27 52 36 52 2 0 15 -5 29
-12z m1826 -7 c9 -43 6 -50 -23 -49 -37 1 -44 13 -24 43 14 22 43 26 47 6z
m-2172 -5 c9 -11 8 -18 -4 -30 -31 -31 -65 -13 -45 24 12 23 33 26 49 6z
m1791 -23 c0 -16 -6 -23 -20 -23 -14 0 -20 7 -20 23 0 16 6 23 20 23 14 0 20
-7 20 -23z m205 1 c0 -14 -8 -19 -32 -21 -28 -1 -33 2 -33 21 0 19 5 22 33 21
24 -1 32 -6 32 -21z m341 3 c2 -19 -25 -32 -39 -18 -14 14 -1 40 19 37 10 -2
18 -10 20 -19z m184 -2 c0 -8 -4 -17 -10 -20 -6 -4 -10 5 -10 20 0 15 4 24 10
20 6 -3 10 -12 10 -20z m176 -3 c1 -25 -6 -28 -24 -10 -18 18 -15 37 6 34 10
-2 17 -12 18 -24z m197 19 c4 -1 7 -10 7 -20 0 -15 -7 -19 -32 -18 -22 1 -33
7 -33 17 -1 19 13 29 34 25 9 -2 19 -4 24 -4z m-2786 -95 c9 -17 30 -48 46
-69 l30 -37 -33 -46 c-36 -51 -34 -74 11 -84 37 -9 34 -32 -10 -79 -22 -24
-43 -56 -46 -72 -9 -41 -43 -38 -82 6 -17 19 -43 40 -57 46 -14 7 -26 20 -26
29 0 9 31 58 70 110 l69 93 -21 29 c-20 29 -33 82 -23 98 2 4 16 8 30 8 19 0
30 -9 42 -32z m167 8 c6 -14 -12 -64 -23 -64 -29 1 -40 36 -23 67 13 23 36 22
46 -3z m1790 -6 c-1 -21 -6 -34 -17 -36 -33 -7 -33 52 1 61 9 3 17 5 17 6 0 0
0 -14 -1 -31z m193 18 c2 -1 4 -13 5 -27 3 -21 -1 -24 -29 -25 -29 -1 -33 2
-33 26 0 15 3 30 7 33 5 6 41 0 50 -7z m-1619 -33 c3 -18 -2 -21 -30 -20 -22
1 -33 7 -33 17 -1 34 58 36 63 3z m1784 13 c11 -15 -2 -35 -23 -33 -18 1 -26
26 -13 40 8 8 27 4 36 -7z m183 -26 c-11 -17 -23 -1 -18 21 5 19 7 19 15 5 5
-9 6 -21 3 -26z m185 3 c0 -7 -4 -13 -10 -13 -5 0 -10 12 -10 28 0 21 2 24 10
12 5 -8 10 -21 10 -27z m178 10 c0 -25 -22 -48 -37 -39 -5 3 -8 14 -6 24 2 9
4 22 4 29 1 6 9 11 20 10 12 -1 19 -9 19 -24z m180 -1 c3 -17 -2 -22 -17 -22
-16 0 -21 6 -21 24 0 31 34 29 38 -2z m-3338 -52 c10 0 19 -35 11 -47 -3 -5
-22 -9 -41 -9 -26 1 -36 6 -38 20 -5 22 26 49 46 41 8 -3 17 -5 22 -5z m544
-6 c19 -18 20 -28 6 -55 -6 -11 -21 -19 -36 -19 -23 0 -25 3 -23 45 3 49 23
60 53 29z m2530 -10 c3 -11 28 -42 55 -67 l49 -46 -30 -28 c-17 -15 -39 -47
-49 -70 -19 -40 -20 -41 -51 -32 -59 16 -57 28 19 104 43 43 36 71 -18 80 -43
7 -44 9 -28 53 12 36 45 40 53 6z m-2884 -4 c5 0 8 -9 7 -20 -2 -27 -67 -26
-67 1 0 19 18 30 38 23 8 -2 17 -4 22 -4z m526 -26 c-6 -17 -8 -17 -24 0 -15
15 -15 18 -2 26 19 12 35 -3 26 -26z m1810 6 c0 -25 -8 -25 -30 -1 -13 15 -14
20 -4 23 21 8 34 -1 34 -22z m181 0 c-2 -23 -32 -27 -41 -5 -5 14 22 37 36 29
4 -2 6 -13 5 -24z m192 21 c12 -8 12 -13 3 -24 -16 -19 -57 -17 -57 3 -1 27
28 38 54 21z m351 -22 c0 -12 -7 -19 -20 -19 -14 0 -20 7 -20 24 0 19 4 23 20
19 11 -3 20 -14 20 -24z m-1084 6 c-3 -20 -20 -20 -24 -1 -2 9 3 16 11 16 9 0
14 -7 13 -15z m180 -8 c1 -9 -2 -17 -7 -17 -5 0 -9 2 -9 4 0 2 -3 12 -7 22 -4
11 -2 15 7 12 7 -2 14 -12 16 -21z m-1532 -53 c27 -26 20 -54 -12 -54 -39 0
-44 8 -26 41 17 34 18 34 38 13z m-729 -32 c-1 -9 -9 -16 -16 -14 -20 5 -30
25 -17 33 17 11 36 0 33 -19z m384 3 c4 -21 -23 -45 -50 -45 -11 0 -17 8 -17
28 0 37 4 41 36 38 17 -2 28 -10 31 -21z m161 -6 c0 -12 -7 -19 -19 -19 -22 0
-37 30 -20 41 18 11 39 -1 39 -22z m1440 6 c0 -14 -4 -25 -10 -25 -11 0 -14
33 -3 43 11 11 13 8 13 -18z m186 -2 c-3 -8 -6 -17 -6 -19 0 -2 -9 -4 -20 -4
-19 0 -28 28 -14 42 11 12 45 -5 40 -19z m176 18 c8 -1 4 -32 -5 -31 -4 0 -11
0 -16 0 -5 0 -11 9 -14 19 -3 13 0 18 12 16 9 -2 19 -4 23 -4z m566 -19 c4
-25 -25 -31 -46 -10 -20 20 -13 35 16 33 20 -1 28 -7 30 -23z m362 7 c0 -8 -6
-24 -14 -34 -12 -16 -16 -17 -30 -6 -9 7 -16 23 -16 35 0 18 6 22 30 21 20 0
30 -5 30 -16z m-3900 -64 c11 -7 13 -35 4 -59 -7 -19 -34 -21 -57 -3 -15 10
-15 17 -5 44 11 30 29 36 58 18z m1078 7 c17 -12 24 -53 11 -69 -20 -23 -58
-16 -71 13 -11 23 -10 29 11 45 26 21 31 22 49 11z m2706 -2 c19 -7 26 -17 26
-35 0 -21 -5 -25 -29 -25 -32 0 -40 12 -33 47 5 27 3 26 36 13z m-1070 -13
c17 -13 17 -14 1 -30 -18 -19 -55 -23 -55 -6 0 15 19 49 28 49 5 0 16 -6 26
-13z m-1457 -28 c1 -10 -2 -19 -6 -19 -11 0 -31 23 -31 36 0 20 36 4 37 -17z
m2183 -4 c-13 -16 -45 -20 -54 -7 -7 12 7 29 29 34 28 6 41 -8 25 -27z m-2885
5 c0 -8 -10 -16 -22 -18 -18 -3 -23 2 -23 18 0 16 5 21 23 18 12 -2 22 -10 22
-18z m2331 -4 c1 -9 -2 -16 -8 -14 -6 2 -12 12 -14 22 -1 9 2 16 8 14 6 -2 12
-12 14 -22z m364 4 c0 -11 -6 -20 -14 -20 -9 0 -12 7 -9 20 3 11 9 20 14 20 5
0 9 -9 9 -20z m-2613 -64 c20 -31 13 -46 -22 -46 -32 0 -35 3 -35 28 0 16 3
31 6 34 8 8 43 -3 51 -16z m367 -2 c13 -34 7 -44 -29 -44 -37 0 -42 9 -23 40
15 24 43 26 52 4z m1971 -23 c4 -22 -10 -30 -18 -8 -4 13 3 40 10 34 2 -2 5
-14 8 -26z m-1805 -2 c0 -15 -5 -20 -22 -17 -31 4 -33 38 -2 38 18 0 24 -5 24
-21z m1260 1 c0 -13 -7 -20 -20 -20 -13 0 -20 7 -20 20 0 13 7 20 20 20 13 0
20 -7 20 -20z m366 -4 c1 -9 -2 -16 -8 -14 -6 2 -12 12 -14 22 -1 9 2 16 8 14
6 -2 12 -12 14 -22z m364 17 c0 -5 -4 -14 -9 -21 -7 -11 -9 -11 -14 1 -3 8 -3
18 0 21 9 8 23 7 23 -1z m180 -19 c0 -14 -12 -19 -23 -8 -9 9 4 35 14 28 5 -3
9 -12 9 -20z m180 6 c0 -11 -4 -20 -10 -20 -5 0 -10 9 -10 20 0 11 5 20 10 20
6 0 10 -9 10 -20z m180 0 c0 -13 -7 -20 -19 -20 -10 0 -21 9 -24 20 -4 16 0
20 19 20 17 0 24 -6 24 -20z m-3692 -84 c3 -23 0 -26 -26 -26 -34 0 -43 15
-31 47 12 32 53 17 57 -21z m1272 -8 c0 -16 -6 -19 -32 -16 -21 2 -33 9 -34
18 -1 24 3 27 36 22 22 -3 30 -10 30 -24z m-750 2 c0 -13 -7 -20 -20 -20 -13
0 -20 7 -20 20 0 13 7 20 20 20 13 0 20 -7 20 -20z m210 0 c0 -16 -7 -20 -35
-20 -28 0 -35 4 -35 20 0 16 7 20 35 20 28 0 35 -4 35 -20z m156 3 c-2 -10
-13 -19 -24 -21 -17 -3 -22 2 -22 17 0 16 6 21 24 21 17 0 24 -5 22 -17z m204
-3 c0 -16 -7 -20 -35 -20 -28 0 -35 4 -35 20 0 16 7 20 35 20 28 0 35 -4 35
-20z m1420 0 c0 -13 -7 -20 -20 -20 -13 0 -20 7 -20 20 0 13 7 20 20 20 13 0
20 -7 20 -20z m186 -3 c1 -12 -5 -17 -22 -17 -26 0 -30 10 -12 28 16 16 31 11
34 -11z m544 3 c0 -11 -4 -20 -10 -20 -5 0 -10 9 -10 20 0 11 5 20 10 20 6 0
10 -9 10 -20z m180 0 c0 -14 -7 -20 -23 -20 -16 0 -23 6 -23 20 0 14 7 20 23
20 16 0 23 -6 23 -20z m200 12 c0 -15 -24 -32 -46 -32 -20 0 -23 9 -15 38 2 6
61 1 61 -6z m-2802 -94 c4 -47 -13 -60 -55 -43 -30 13 -31 15 -20 44 19 52 71
51 75 -1z m-730 7 c1 -11 -4 -29 -12 -40 -14 -19 -16 -19 -32 -3 -15 15 -16
21 -6 43 14 31 45 30 50 0z m-198 -15 c0 -16 -7 -20 -30 -20 -49 0 -37 37 13
39 11 1 17 -6 17 -19z m380 6 c0 -8 -7 -17 -16 -20 -23 -9 -24 -8 -24 14 0 13
7 20 20 20 11 0 20 -6 20 -14z m160 -6 c0 -11 -4 -20 -10 -20 -5 0 -14 9 -20
20 -9 17 -8 20 10 20 13 0 20 -7 20 -20z m570 0 c0 -24 -32 -27 -54 -4 -22 22
-21 24 19 24 28 0 35 -4 35 -20z m1810 15 c0 -2 -5 -16 -12 -30 -13 -30 -33
-32 -48 -6 -17 32 -12 41 25 41 19 0 35 -2 35 -5z m700 -15 c0 -11 -4 -20 -10
-20 -5 0 -10 9 -10 20 0 11 5 20 10 20 6 0 10 -9 10 -20z m-3150 -83 c0 -36
-16 -54 -37 -41 -22 13 -30 64 -12 75 19 12 49 -9 49 -34z m725 13 c8 -24 -15
-61 -35 -58 -20 4 -37 67 -21 78 19 11 50 0 56 -20z m-206 -2 c11 -30 6 -38
-30 -38 -31 0 -35 9 -19 41 14 26 39 24 49 -3z m-701 -17 c-2 -9 -15 -17 -31
-19 -21 -3 -27 1 -27 16 0 26 6 30 36 24 16 -3 24 -10 22 -21z m549 -2 c1 -15
-5 -19 -28 -19 -31 0 -51 26 -30 39 21 13 57 1 58 -20z m543 -10 c0 -21 -5
-29 -17 -29 -44 1 -67 50 -29 61 33 9 46 -1 46 -32z m1425 12 c3 -17 -1 -21
-21 -21 -29 0 -35 36 -6 42 22 5 22 5 27 -21z m745 -1 c0 -20 -29 -47 -50 -46
-16 1 -22 43 -8 62 12 17 58 5 58 -16z m-927 0 c-3 -11 -8 -20 -12 -20 -4 0
-7 9 -8 20 -1 11 4 20 12 20 8 0 11 -7 8 -20z m363 -3 c3 -25 -40 -19 -44 6
-3 14 1 18 19 15 12 -2 23 -11 25 -21z m722 0 c2 -11 -3 -17 -16 -17 -20 0
-36 23 -24 34 11 12 37 1 40 -17z m182 3 c0 -23 -10 -26 -28 -8 -18 18 -15 28
8 28 13 0 20 -7 20 -20z m-2960 -79 c0 -19 -8 -35 -21 -45 -32 -22 -49 -10
-47 35 1 37 3 39 35 39 30 0 33 -3 33 -29z m540 10 c0 -11 -20 -36 -45 -56
-24 -20 -50 -50 -57 -66 -20 -44 -42 -39 -52 13 -6 33 3 43 39 43 29 0 30 1
28 43 l-2 42 44 0 c38 0 45 -3 45 -19z m-1090 -18 c0 -10 -5 -25 -10 -33 -13
-20 -44 -2 -48 29 -3 18 2 21 27 21 23 0 31 -5 31 -17z m160 -3 c0 -13 -7 -20
-20 -20 -13 0 -20 7 -20 20 0 13 7 20 20 20 13 0 20 -7 20 -20z m186 3 c-2 -9
-8 -19 -14 -21 -14 -4 -15 0 -6 22 8 21 23 20 20 -1z m357 -8 c-12 -32 -23
-14 -14 23 1 2 5 1 11 -3 5 -3 7 -12 3 -20z m1470 19 c8 -9 -14 -54 -28 -54
-17 0 -35 22 -35 42 0 13 8 18 28 18 16 0 31 -3 35 -6z m177 -14 c-6 -11 -17
-20 -25 -20 -8 0 -15 9 -15 20 0 15 7 20 25 20 23 0 24 -2 15 -20z m160 16 c0
-2 3 -11 6 -20 5 -12 0 -16 -20 -16 -19 0 -26 5 -26 20 0 13 7 20 20 20 11 0
20 -2 20 -4z m186 -18 c2 -13 -5 -18 -22 -18 -23 0 -32 18 -17 34 12 12 36 2
39 -16z m177 7 c8 -19 -13 -31 -24 -14 -13 20 -11 29 5 29 8 0 16 -7 19 -15z
m207 -5 c0 -14 -7 -20 -24 -20 -19 0 -23 4 -19 20 3 11 14 20 24 20 12 0 19
-7 19 -20z m180 12 c0 -14 -23 -32 -41 -32 -17 0 -32 23 -22 34 9 9 63 7 63
-2z m157 -7 c3 -9 3 -19 -1 -22 -7 -7 -36 16 -36 28 0 15 30 10 37 -6z m-3266
-148 c53 -50 103 -104 113 -118 17 -26 16 -27 -11 -31 -43 -6 -63 2 -63 23 0
10 -6 19 -12 20 -7 0 -23 2 -35 3 -32 4 -29 -21 8 -73 l32 -42 -45 -47 c-24
-26 -44 -53 -42 -59 1 -7 2 -17 3 -22 0 -5 17 -12 36 -15 19 -4 37 -11 40 -15
3 -5 -13 -33 -34 -63 -22 -29 -46 -62 -54 -73 -14 -19 -15 -18 -54 12 -21 18
-51 37 -66 44 -23 11 -27 18 -27 56 0 27 5 43 12 43 7 0 32 -21 56 -46 38 -41
46 -45 66 -36 17 7 23 19 24 46 1 35 0 36 -33 36 -35 0 -35 0 -35 44 0 42 2
45 35 56 39 13 39 13 25 41 -15 27 -44 24 -83 -11 -19 -16 -39 -30 -45 -30
-20 0 -32 79 -12 81 6 1 15 3 20 4 6 1 14 3 19 4 14 2 21 42 11 61 -5 10 -21
21 -35 24 -21 5 -25 12 -25 46 0 22 5 40 11 40 12 0 72 -40 77 -52 5 -11 30
-10 53 2 18 10 16 14 -26 54 -25 24 -45 48 -45 53 0 12 22 33 35 33 5 0 53
-42 106 -93z m1014 79 c17 -12 17 -16 5 -30 -21 -27 -55 -16 -55 17 -1 31 19
36 50 13z m365 -27 c-9 -15 -15 -17 -30 -9 -23 12 -25 21 -8 38 8 8 17 8 30 1
15 -8 16 -14 8 -30z m728 24 c6 -11 6 -25 -1 -40 -8 -18 -15 -21 -36 -16 -36
8 -41 12 -41 32 0 39 60 57 78 24z m184 -8 c12 -27 11 -32 -12 -35 -40 -6 -50
0 -50 30 0 25 4 30 25 30 17 0 29 -8 37 -25z m-2172 -14 c11 -22 -1 -30 -37
-23 -19 4 -20 7 -10 23 15 24 34 24 47 0z m180 -2 c-13 -23 -32 -21 -36 4 -2
12 5 17 22 17 22 0 23 -2 14 -21z m166 -1 c2 -13 -5 -18 -22 -18 -18 0 -24 5
-24 21 0 15 5 20 22 17 11 -2 22 -11 24 -20z m180 2 c0 -14 -7 -20 -23 -20
-16 0 -23 6 -23 20 0 14 7 20 23 20 16 0 23 -6 23 -20z m924 2 c0 -25 -6 -30
-34 -25 -13 3 -26 14 -29 24 -4 16 0 19 29 19 26 0 34 -4 34 -18z m182 -7 c-5
-25 -14 -36 -38 -39 -21 -3 -33 19 -26 47 7 27 68 20 64 -8z m177 -5 c-6 -16
-16 -30 -23 -30 -18 0 -36 21 -36 42 0 14 8 18 34 18 34 0 35 0 25 -30z m541
10 c-6 -11 -21 -20 -35 -20 -18 0 -23 5 -22 20 1 16 8 20 34 20 31 0 33 -2 23
-20z m530 0 c0 -14 -7 -20 -23 -20 -16 0 -23 6 -23 20 0 14 7 20 23 20 16 0
23 -6 23 -20z m180 0 c0 -11 -4 -20 -10 -20 -5 0 -10 9 -10 20 0 11 5 20 10
20 6 0 10 -9 10 -20z m203 6 c7 -18 -1 -26 -25 -26 -11 0 -18 7 -18 20 0 23
35 28 43 6z m-3173 -76 c12 -22 0 -55 -22 -63 -39 -13 -74 37 -48 68 18 21 57
19 70 -5z m180 5 c16 -19 7 -41 -18 -47 -33 -9 -45 5 -31 35 14 30 31 34 49
12z m540 0 c11 -13 11 -21 -1 -46 -13 -27 -16 -28 -33 -16 -10 7 -19 28 -21
45 -2 27 1 32 20 32 12 0 28 -7 35 -15z m730 -30 c0 -41 -2 -45 -23 -45 -28 0
-53 -25 -62 -61 -4 -18 -12 -26 -23 -24 -9 2 -20 4 -24 4 -4 1 -9 10 -13 21
-4 13 5 37 30 75 40 60 58 74 93 75 20 0 22 -5 22 -45z m180 28 c0 -2 -5 -13
-10 -24 -9 -15 -15 -17 -31 -9 -26 15 -9 51 21 43 11 -3 20 -7 20 -10z m531 7
c27 -15 8 -50 -26 -50 -29 0 -29 1 -13 35 13 29 13 29 39 15z m-1815 -32 c3
-25 -23 -22 -36 3 -10 18 -9 20 11 17 12 -2 23 -11 25 -20z m544 2 c0 -23 -10
-26 -28 -8 -18 18 -15 28 8 28 13 0 20 -7 20 -20z m913 0 c-6 -23 -23 -26 -41
-8 -19 19 -14 28 17 28 24 0 28 -3 24 -20z m534 0 c2 -19 -8 -26 -20 -14 -7 7
2 34 12 34 4 0 7 -9 8 -20z m179 0 c0 -11 -6 -20 -12 -20 -10 0 -12 15 -5 38
4 11 17 -2 17 -18z m181 -1 c1 -14 -3 -19 -15 -17 -24 5 -28 38 -5 38 12 0 19
-8 20 -21z m-3329 -76 c4 -30 -15 -64 -33 -57 -21 8 -28 40 -15 64 14 27 44
22 48 -7z m705 -7 c12 -30 -17 -35 -33 -6 -9 17 -8 20 9 20 10 0 21 -6 24 -14z
m177 10 c0 -2 3 -11 6 -20 5 -12 0 -16 -20 -16 -19 0 -26 5 -26 20 0 13 7 20
20 20 11 0 20 -2 20 -4z m207 -16 c1 -16 -4 -20 -33 -20 -27 0 -34 4 -34 20 0
16 7 20 33 20 26 0 33 -4 34 -20z m183 0 c0 -14 -7 -20 -24 -20 -19 0 -23 4
-19 20 3 11 14 20 24 20 12 0 19 -7 19 -20z m160 5 c0 -9 -7 -18 -16 -22 -18
-7 -39 11 -30 26 11 17 46 13 46 -4z m380 -9 c0 -50 -51 -57 -61 -8 -6 31 -5
32 27 32 29 0 34 -3 34 -24z m340 4 c0 -13 -7 -20 -18 -20 -24 0 -32 8 -25 26
8 22 43 17 43 -6z m1090 0 c0 -11 -4 -20 -10 -20 -5 0 -10 9 -10 20 0 11 5 20
10 20 6 0 10 -9 10 -20z m200 16 c0 -21 -17 -36 -40 -36 -26 0 -30 7 -21 38 2
4 61 2 61 -2z m160 -26 c0 -13 -5 -17 -20 -13 -23 6 -25 14 -8 31 14 14 28 6
28 -18z m-2252 -52 c16 -16 15 -44 -3 -62 -23 -22 -69 -1 -61 28 3 12 6 27 6
34 0 15 42 16 58 0z m717 -2 c25 -18 13 -46 -20 -46 -21 0 -25 5 -25 30 0 33
15 38 45 16z m-1449 -28 c2 -13 -5 -18 -22 -18 -18 0 -24 5 -24 21 0 15 5 20
22 17 11 -2 22 -11 24 -20z m194 18 c0 -2 -3 -11 -6 -20 -8 -22 -31 -20 -44 4
-10 18 -8 20 20 20 16 0 30 -2 30 -4z m350 -17 c0 -14 -5 -19 -17 -17 -26 5
-29 38 -4 38 15 0 21 -6 21 -21z m360 1 c0 -11 -7 -20 -15 -20 -8 0 -15 2 -15
4 0 2 -3 11 -6 20 -4 12 0 16 15 16 14 0 21 -6 21 -20z m190 0 c-9 -17 -40
-29 -40 -16 0 2 -3 11 -6 20 -5 13 1 16 25 16 29 0 31 -2 21 -20z m170 0 c0
-23 -10 -26 -28 -8 -18 18 -15 28 8 28 13 0 20 -7 20 -20z m1270 -12 c0 -5 -6
-8 -14 -8 -8 0 -13 8 -11 18 2 9 4 19 4 22 2 7 21 -23 21 -32z m380 22 c0 -5
-5 -20 -11 -34 -9 -20 -16 -23 -29 -16 -18 10 -32 45 -22 54 9 10 62 7 62 -4z
m158 -13 c2 -11 -3 -17 -16 -17 -20 0 -36 23 -24 34 11 12 37 1 40 -17z
m-3690 -80 c-4 -25 -58 -44 -58 -20 0 8 4 23 10 33 14 25 52 15 48 -13z m181
11 c10 -28 4 -46 -20 -59 -41 -22 -80 36 -47 69 20 20 58 14 67 -10z m3251 7
c6 -8 10 -22 8 -32 -3 -16 -16 -19 -57 -14 -15 2 9 61 24 61 7 0 18 -7 25 -15z
m180 0 c11 -13 11 -21 -1 -46 -12 -26 -16 -28 -32 -17 -9 7 -19 28 -21 46 -3
28 0 32 19 32 12 0 28 -7 35 -15z m-3054 -37 c9 -18 31 -44 49 -58 40 -29 47
-65 13 -67 -35 -3 -68 -25 -68 -45 0 -10 -3 -18 -7 -19 -5 0 -15 -2 -24 -4 -9
-1 -22 1 -29 5 -10 6 -4 21 24 59 40 53 45 92 13 97 -26 4 -47 24 -47 45 0 14
7 19 30 19 24 0 33 -6 46 -32z m510 12 c0 -11 -6 -20 -12 -20 -10 0 -12 15 -5
38 4 11 17 -2 17 -18z m204 6 c0 -13 -20 -26 -40 -26 -4 0 -6 9 -3 20 6 22 43
28 43 6z m160 -6 c0 -11 -7 -20 -15 -20 -8 0 -15 2 -15 4 0 2 -3 11 -6 20 -4
12 0 16 15 16 14 0 21 -6 21 -20z m177 5 c3 -9 3 -18 1 -21 -9 -9 -38 8 -38
22 0 19 29 18 37 -1z m-1533 -61 c9 -3 16 -15 16 -26 0 -30 -19 -58 -35 -52
-20 8 -28 40 -15 64 12 22 12 22 34 14z m746 -35 c0 -10 -3 -19 -7 -20 -5 0
-18 -2 -30 -5 -13 -2 -23 3 -27 12 -9 23 -1 31 34 32 23 0 30 -4 30 -19z m153
-16 c-5 -11 -8 -12 -13 -2 -5 7 -6 19 -3 26 5 11 8 12 13 2 5 -7 6 -19 3 -26z
m187 26 c0 -4 -9 -9 -20 -12 -13 -3 -20 0 -20 8 0 8 9 13 20 12 11 -1 20 -4
20 -8z m171 -32 c-8 -8 -11 -5 -11 9 0 27 14 41 18 19 2 -9 -1 -22 -7 -28z
m729 23 c0 -11 -4 -20 -10 -20 -5 0 -10 9 -10 20 0 11 5 20 10 20 6 0 10 -9
10 -20z m202 14 c3 -3 4 -13 1 -23 -7 -27 -57 -22 -61 7 -3 18 1 22 26 22 16
0 31 -3 34 -6z m908 -16 c0 -10 -3 -18 -7 -19 -56 -6 -63 -4 -63 17 0 18 5 21
35 21 27 -1 35 -6 35 -19z m155 0 c-4 -33 -4 -34 -15 -18 -5 9 -5 19 2 27 14
18 16 17 13 -9z m182 0 c-2 -23 -31 -19 -35 4 -2 12 3 16 17 15 12 -1 19 -8
18 -19z m-3519 -57 c8 -4 12 -19 10 -32 -2 -17 -10 -23 -30 -24 -30 -2 -35 12
-18 46 12 21 18 23 38 10z m179 1 c11 -7 16 -26 14 -49 -2 -22 -34 -32 -58
-19 l-23 11 20 33 c20 33 27 37 47 24z m548 -19 c8 -10 33 -39 55 -64 l40 -46
-74 -74 c-40 -41 -80 -85 -89 -98 -10 -14 -27 -24 -46 -26 -29 -2 -31 0 -31
30 0 28 4 33 29 38 48 10 47 35 -2 86 -50 52 -66 91 -38 91 39 0 80 23 93 51
15 33 41 38 63 12z m171 -16 c2 -17 -17 -29 -33 -19 -5 4 -10 15 -10 24 0 22
39 18 43 -5z m202 -2 c1 -18 -3 -21 -31 -20 -25 1 -32 6 -33 23 -1 18 4 21 30
20 25 -1 32 -6 34 -23z m542 4 c0 -12 -10 -23 -26 -29 -37 -15 -41 -13 -38 18
3 33 -2 29 34 30 23 0 30 -4 30 -19z m1065 0 c1 -8 -4 -17 -9 -21 -15 -10 -36
3 -36 23 0 14 6 18 23 15 12 -1 22 -9 22 -17z m190 5 c13 -13 14 -19 4 -25
-17 -10 -39 8 -32 27 7 18 8 18 28 -2z m350 6 c11 -18 -3 -39 -22 -34 -24 7
-25 44 -1 44 9 0 20 -5 23 -10z m185 -15 c0 -8 -4 -17 -10 -20 -6 -4 -10 5
-10 20 0 15 4 24 10 20 6 -3 10 -12 10 -20z m-1990 -14 c0 -4 -11 -7 -25 -7
-18 0 -22 3 -14 12 10 13 39 9 39 -5z m-1334 -51 c1 -29 -25 -70 -41 -64 -21
8 -30 51 -14 70 15 18 54 15 55 -6z m1449 -8 c3 -16 23 -46 45 -68 44 -44 48
-59 21 -73 -14 -8 -24 -4 -47 21 -16 17 -48 39 -71 50 -38 17 -42 22 -39 50 4
35 20 48 58 48 21 0 28 -6 33 -28z m1435 7 c20 -37 3 -51 -52 -40 -4 0 -6 15
-6 31 1 24 5 30 24 30 13 0 28 -9 34 -21z m-2708 -24 c-5 -30 -22 -32 -45 -7
-20 22 -13 32 23 32 24 0 27 -3 22 -25z m158 2 c0 -16 -6 -23 -20 -23 -14 0
-20 7 -20 23 0 16 6 23 20 23 14 0 20 -7 20 -23z m543 -2 c-5 -13 -23 -22 -23
-11 0 15 14 35 21 31 4 -3 6 -12 2 -20z m364 4 c1 -14 -3 -19 -15 -17 -24 5
-28 38 -5 38 12 0 19 -8 20 -21z m383 -2 c0 -19 -5 -23 -22 -21 -13 1 -28 3
-35 3 -6 1 -9 10 -6 21 4 14 14 20 34 20 24 0 29 -4 29 -23z m340 3 c0 -11 -4
-20 -10 -20 -5 0 -10 9 -10 20 0 11 5 20 10 20 6 0 10 -9 10 -20z m180 -5 c0
-29 -3 -30 -24 -9 -22 21 -20 34 4 34 15 0 20 -7 20 -25z m360 -1 c0 -14 -4
-23 -10 -19 -5 3 -10 15 -10 26 0 10 5 19 10 19 6 0 10 -12 10 -26z m546 4 c3
-25 -23 -22 -36 3 -10 18 -9 20 11 17 12 -2 23 -11 25 -20z m184 -3 c0 -8 -4
-17 -10 -20 -6 -4 -10 5 -10 20 0 15 4 24 10 20 6 -3 10 -12 10 -20z m177 5
c-2 -25 -30 -23 -35 3 -2 11 3 17 17 17 14 0 19 -6 18 -20z m-3523 -56 c19 -7
21 -57 4 -71 -21 -15 -50 -9 -65 14 -13 19 -12 24 6 42 22 22 30 24 55 15z
m178 -24 c3 -16 2 -30 -1 -31 -3 0 -18 -2 -33 -4 -23 -3 -28 0 -28 19 0 50 55
65 62 16z m184 22 c12 -8 25 -52 16 -53 -62 -8 -67 -4 -52 35 10 27 17 31 36
18z m188 -8 c19 -19 20 -28 3 -42 -19 -16 -50 11 -42 37 8 25 18 26 39 5z
m366 -4 c17 -32 -5 -64 -38 -55 -35 9 -35 9 -27 44 5 24 12 31 30 31 14 0 29
-9 35 -20z m898 8 c24 -24 8 -79 -22 -78 -6 0 -19 7 -30 15 -17 13 -17 18 -6
45 13 31 37 39 58 18z m-728 -40 c0 -5 -6 -8 -14 -8 -8 0 -13 8 -11 18 2 9 4
19 4 22 2 7 21 -23 21 -32z m190 11 c0 -5 0 -12 0 -16 0 -5 -7 -8 -15 -8 -8 0
-15 3 -15 8 0 4 0 14 0 22 0 9 6 12 15 9 8 -4 15 -10 15 -15z m190 -4 c0 -35
-61 -27 -66 10 -2 10 8 14 32 13 28 -1 34 -5 34 -23z m726 3 c2 -17 -21 -32
-37 -22 -5 3 -9 14 -9 25 0 15 6 20 22 17 11 -2 22 -11 24 -20z m698 0 c-4
-34 -4 -34 -13 -19 -10 15 -4 41 8 41 4 0 7 -10 5 -22z m561 -2 c0 -24 -51
-32 -59 -9 -9 22 0 30 31 29 20 -1 28 -6 28 -20z m-2625 -71 c0 -15 -14 -35
-25 -35 -19 0 -27 17 -20 40 5 16 10 18 26 10 10 -6 19 -12 19 -15z m540 10
c6 -8 10 -22 8 -32 -3 -16 -17 -19 -56 -14 -7 1 -9 44 -3 59 4 8 41 -1 51 -13z
m190 -5 c0 -39 29 -80 60 -87 53 -10 34 -45 -27 -50 -29 -2 -33 0 -33 22 0 30
-32 65 -60 65 -17 0 -19 4 -14 28 10 40 12 42 45 42 23 0 29 -4 29 -20z m168
8 c7 -7 12 -22 12 -33 0 -17 -6 -21 -30 -21 -27 0 -30 3 -30 33 0 25 4 33 18
33 10 0 23 -5 30 -12z m160 0 c7 -7 12 -26 12 -44 0 -25 -5 -33 -23 -38 -23
-5 -47 -42 -47 -71 0 -18 -34 -20 -48 -2 -10 12 -16 40 -13 63 0 6 15 14 32
18 24 4 34 15 47 46 19 43 22 46 40 28z m380 4 c15 -10 24 -52 11 -53 -5 -1
-16 -1 -24 -1 -31 0 -35 3 -35 32 0 31 19 40 48 22z m732 -17 c17 -46 -10 -74
-53 -54 -21 10 -23 14 -13 45 14 43 51 48 66 9z m-2550 -18 c0 -16 -6 -23 -20
-23 -14 0 -20 7 -20 23 0 16 6 23 20 23 14 0 20 -7 20 -23z m1628 1 c-4 -31
-38 -33 -38 -2 0 18 5 24 21 24 15 0 20 -5 17 -22z m1088 0 c2 -20 -17 -30
-36 -18 -18 11 -4 42 17 38 9 -2 17 -11 19 -20z m-2797 -57 c10 -6 12 -19 7
-44 -5 -29 -10 -34 -27 -30 -28 8 -34 29 -19 59 15 26 18 28 39 15z m1081 -7
c0 -8 25 -40 55 -70 30 -31 55 -59 55 -63 0 -5 -7 -15 -16 -22 -15 -12 -21 -9
-48 22 -17 20 -45 43 -62 52 -33 17 -37 36 -16 75 15 25 32 29 32 6z m553 -6
c8 -12 7 -24 -1 -43 -10 -21 -15 -24 -31 -16 -11 7 -20 25 -23 46 -4 33 -2 36
20 33 14 -2 30 -11 35 -20z m-1472 -41 c-8 -8 -11 -5 -11 9 0 27 14 41 18 19
2 -9 -1 -22 -7 -28z m372 30 c7 -19 -4 -34 -25 -34 -15 0 -18 14 -9 45 3 8 30
0 34 -11z m195 4 c10 -6 11 -13 1 -34 -7 -15 -15 -27 -18 -27 -21 1 -46 44
-35 61 7 11 35 11 52 0z m169 -11 c1 -11 -2 -22 -8 -25 -5 -4 -9 5 -9 19 0 30
15 35 17 6z m1449 -8 c-4 -27 -26 -26 -26 2 0 18 4 24 14 20 8 -3 13 -13 12
-22z m202 3 c1 -19 -3 -25 -17 -25 -21 0 -31 17 -23 38 8 23 38 13 40 -13z
m-1744 -78 c10 -37 7 -57 -9 -57 -9 0 -35 -20 -59 -44 -32 -32 -48 -41 -59
-35 -16 9 -97 125 -97 139 0 6 23 6 63 1 4 -1 7 -9 7 -19 0 -25 20 -42 49 -42
31 0 61 27 61 55 0 12 3 24 6 28 11 10 32 -4 38 -26z m195 19 c13 -15 5 -62
-12 -73 -14 -8 -46 33 -42 55 2 9 4 20 4 25 2 12 38 8 50 -7z m529 -19 c-2
-21 -9 -33 -20 -35 -14 -3 -18 4 -18 30 0 27 4 34 21 35 17 2 20 -3 17 -30z
m182 -2 c0 -33 -2 -35 -20 -25 -30 16 -26 60 7 60 8 0 13 -13 13 -35z m-1609
-16 c-3 -27 -17 -39 -43 -39 -14 0 -18 8 -18 33 0 31 2 33 33 32 28 -2 32 -5
28 -26z m162 12 c9 -9 9 -14 -3 -21 -25 -16 -40 -11 -40 14 0 26 20 30 43 7z
m200 -7 c-7 -18 -43 -18 -43 0 0 8 6 16 13 19 19 7 36 -3 30 -19z m1427 -1 c0
-20 -3 -24 -11 -16 -7 7 -9 19 -6 27 10 24 17 19 17 -11z m180 2 c0 -14 -4
-25 -9 -25 -6 0 -8 36 -2 48 5 10 11 -2 11 -23z m568 7 c7 -21 -18 -52 -43
-52 -21 0 -25 5 -25 29 0 16 5 31 12 33 21 7 52 2 56 -10z m362 -20 c0 -30 -2
-33 -22 -26 -41 12 -50 25 -34 43 9 9 24 17 36 17 16 0 20 -7 20 -34z m-2824
-40 c7 -4 14 -18 15 -31 4 -21 -1 -25 -28 -28 -36 -4 -39 2 -21 42 12 27 16
29 34 17z m2369 -23 c9 -27 -2 -38 -35 -36 -33 2 -35 6 -19 40 13 29 45 26 54
-4z m-2535 -6 c0 -20 -19 -53 -30 -53 -13 0 -33 39 -27 53 7 18 57 18 57 0z
m526 -11 c-4 -24 -46 -25 -46 -1 0 18 17 29 37 22 6 -2 10 -12 9 -21z m915 7
c15 -23 11 -29 -21 -29 -25 0 -30 4 -30 23 0 18 5 23 21 22 11 -1 25 -8 30
-16z m731 7 c7 -10 -19 -56 -33 -56 -13 0 -31 40 -25 56 6 15 47 15 58 0z
m536 1 c7 -15 -4 -27 -26 -32 -25 -4 -43 22 -23 34 14 9 45 8 49 -2z m190 -16
c3 -17 -2 -21 -26 -21 -35 0 -41 5 -35 30 7 27 57 20 61 -9z m-1828 -11 c0 -5
-9 -10 -19 -10 -11 0 -23 5 -26 10 -4 6 5 10 19 10 14 0 26 -4 26 -10z m-1000
-65 c0 -28 -4 -35 -20 -35 -16 0 -20 7 -20 35 0 28 4 35 20 35 16 0 20 -7 20
-35z m188 27 c7 -5 15 -25 19 -45 l6 -37 -47 0 c-46 0 -46 0 -46 35 0 44 34
68 68 47z m368 -16 c3 -8 2 -22 -3 -30 -8 -14 -12 -14 -28 -3 -11 9 -16 20
-12 31 8 20 36 21 43 2z m-195 -5 c0 -3 2 -15 4 -25 5 -26 -2 -36 -19 -30 -14
5 -28 42 -21 54 5 8 35 9 36 1z m365 -15 c1 -9 -4 -20 -13 -23 -17 -7 -34 14
-26 33 7 18 36 10 39 -10z m360 -4 c1 -16 -4 -21 -20 -18 -19 3 -22 8 -17 35
3 19 36 3 37 -17z m362 0 c2 -16 -2 -20 -17 -19 -14 1 -21 8 -21 23 0 29 34
26 38 -4z m182 -3 c0 -10 -4 -19 -10 -19 -5 0 -10 12 -10 26 0 14 4 23 10 19
6 -3 10 -15 10 -26z m180 4 c0 -16 -6 -23 -20 -23 -14 0 -20 7 -20 23 0 16 6
23 20 23 14 0 20 -7 20 -23z m208 18 c7 -2 -30 -61 -38 -61 -13 0 -32 39 -27
54 4 10 44 14 65 7z m152 -18 c0 -27 -3 -28 -24 -7 -18 18 -14 31 9 31 9 0 15
-9 15 -24z m186 -3 c0 -13 -6 -18 -18 -17 -24 4 -32 13 -25 31 8 20 43 9 43
-14z m176 18 c3 -7 3 -19 0 -26 -3 -10 -9 -9 -23 4 -15 13 -17 19 -7 26 18 11
25 10 30 -4z m-2981 -68 c13 -8 19 -21 19 -45 0 -30 -3 -35 -22 -35 -13 0 -31
7 -40 14 -15 11 -16 18 -7 45 12 33 20 37 50 21z m193 -12 c20 -28 10 -47 -25
-46 -26 1 -29 5 -29 32 0 25 5 32 20 33 11 1 26 -7 34 -19z m369 -13 c5 -30 1
-35 -35 -35 -32 0 -36 15 -13 47 19 27 41 21 48 -12z m722 5 c5 -17 -13 -60
-25 -60 -28 1 -39 36 -22 67 14 25 38 21 47 -7z m543 -13 c-2 -16 -11 -23 -30
-25 -31 -4 -37 13 -18 49 9 16 15 17 31 8 13 -6 19 -18 17 -32z m726 -2 c-6
-14 -53 -30 -62 -21 -2 3 1 19 8 35 12 29 13 29 35 15 13 -9 21 -22 19 -29z
m-2182 4 c-6 -26 -19 -30 -36 -13 -13 13 -14 19 -5 24 18 12 44 4 41 -11z
m371 12 c5 -1 7 -8 5 -18 -3 -19 -53 -29 -63 -13 -12 19 2 37 27 34 12 -1 27
-3 31 -3z m152 -32 c-14 -25 -19 -28 -36 -18 -25 13 -20 30 11 46 34 17 42 7
25 -28z m209 33 c7 -11 -6 -30 -24 -34 -16 -4 -21 23 -5 34 13 10 23 10 29 0z
m366 -9 c0 -23 -49 -40 -61 -21 -4 6 -5 16 -3 23 6 15 64 13 64 -2z m158 -6
c2 -8 -2 -18 -8 -22 -15 -9 -40 13 -34 30 7 18 38 12 42 -8z m374 2 c-6 -25
-19 -31 -36 -14 -23 24 -20 32 12 30 17 -1 26 -7 24 -16z m168 -6 c0 -16 -6
-23 -20 -23 -14 0 -20 7 -20 23 0 16 6 23 20 23 14 0 20 -7 20 -23z m197 4
c-7 -11 -23 -22 -35 -24 -17 -2 -22 2 -22 20 0 18 6 22 35 23 33 1 34 0 22
-19z m529 -2 c-3 -22 -19 -23 -22 -2 -1 9 4 17 11 17 7 0 12 -7 11 -15z
m-2811 -57 c14 -6 25 -16 25 -23 0 -17 -22 -35 -42 -35 -14 0 -18 8 -18 35 0
39 0 39 35 23z m539 1 c46 -21 42 -46 -9 -55 -23 -4 -25 -1 -25 31 0 39 0 39
34 24z m207 -13 c0 -6 2 -19 4 -28 2 -13 -4 -16 -26 -16 -38 1 -44 11 -24 42
16 24 44 26 46 2z m353 8 c27 -26 20 -54 -12 -54 -39 0 -44 8 -26 41 17 34 18
34 38 13z m-918 -19 c11 -27 -1 -39 -19 -21 -17 17 -15 36 4 36 5 0 12 -7 15
-15z m1091 -16 c-1 -20 -6 -22 -31 -13 -19 7 -21 31 -3 37 20 7 36 -3 34 -24z
m179 18 c4 -3 4 -14 0 -23 -5 -13 -9 -14 -21 -4 -19 16 -19 39 0 36 8 -1 17
-5 21 -9z m364 -18 c0 -17 -3 -18 -20 -9 -20 11 -25 22 -14 33 11 11 34 -5 34
-24z m180 0 c0 -10 -4 -19 -9 -19 -14 0 -33 28 -27 39 10 16 36 1 36 -20z
m180 5 c0 -28 -3 -29 -24 -8 -21 21 -20 29 4 31 15 1 20 -4 20 -23z m185 14
c1 -2 -1 -11 -4 -22 -7 -17 -8 -17 -24 -2 -23 24 -21 36 4 31 12 -3 23 -6 24
-7z m199 -13 c-7 -18 -32 -27 -40 -14 -11 18 4 38 25 32 11 -3 17 -11 15 -18z
m159 -12 c-8 -21 -20 -15 -17 10 4 33 4 33 13 18 5 -8 7 -20 4 -28z m-2783
-79 c0 -20 -5 -24 -31 -24 -29 0 -31 2 -24 27 3 15 12 31 18 35 17 10 37 -11
37 -38z m1084 21 c7 -20 -14 -65 -30 -65 -21 0 -33 31 -21 57 12 26 42 31 51
8z m-907 -4 c6 -1 10 -9 9 -18 -2 -12 -13 -19 -34 -21 -26 -3 -32 0 -32 16 0
24 7 31 28 27 9 -2 22 -4 29 -4z m185 -4 c12 -19 -4 -37 -33 -37 -22 0 -29 5
-29 19 0 27 47 40 62 18z m524 -15 c-2 -9 -13 -18 -25 -20 -17 -3 -21 1 -19
15 6 35 49 40 44 5z m384 0 c0 -20 -4 -23 -32 -20 -21 2 -33 9 -34 18 -1 23 2
25 35 25 26 1 31 -3 31 -23z m520 3 c0 -14 -4 -25 -10 -25 -11 0 -14 33 -3 43
11 11 13 8 13 -18z m180 0 c0 -14 -4 -25 -10 -25 -11 0 -14 33 -3 43 11 11 13
8 13 -18z m180 -2 c0 -26 -12 -30 -30 -8 -14 17 -7 32 15 32 9 0 15 -9 15 -24z
m360 0 c0 -16 -6 -23 -20 -23 -18 0 -29 28 -15 42 14 14 35 2 35 -19z m-900
-3 c0 -11 -4 -20 -10 -20 -5 0 -10 9 -10 20 0 11 5 20 10 20 6 0 10 -9 10 -20z
m720 0 c0 -11 -4 -20 -10 -20 -5 0 -10 9 -10 20 0 11 5 20 10 20 6 0 10 -9 10
-20z m-1981 -155 c12 -3 21 -15 21 -25 0 -10 20 -36 44 -57 35 -31 42 -42 35
-56 -6 -9 -15 -17 -21 -17 -6 0 -53 42 -105 94 -51 52 -102 97 -113 101 l-20
6 21 30 20 29 49 -49 c27 -27 58 -52 69 -56z m829 91 c2 -2 -1 -14 -8 -25 -10
-20 -49 -30 -51 -13 0 4 -2 18 -5 31 -4 22 -2 23 28 17 17 -3 33 -8 36 -10z
m-563 -39 c2 -22 -2 -27 -22 -27 -20 0 -23 5 -23 35 0 31 2 34 22 26 15 -5 23
-17 23 -34z m925 21 c0 -18 -21 -48 -34 -48 -14 0 -35 39 -29 56 4 13 63 6 63
-8z m-1470 -8 c0 -11 -4 -20 -10 -20 -5 0 -10 9 -10 20 0 11 5 20 10 20 6 0
10 -9 10 -20z m363 0 c-3 -11 -14 -20 -24 -20 -12 0 -19 7 -19 20 0 14 7 20
24 20 19 0 23 -4 19 -20z m543 0 c0 -21 -11 -26 -21 -10 -7 11 2 30 13 30 4 0
8 -9 8 -20z m364 0 c0 -18 -3 -19 -20 -10 -11 6 -20 15 -20 20 0 6 9 10 20 10
13 0 20 -7 20 -20z m540 0 c0 -11 -4 -20 -10 -20 -5 0 -10 9 -10 20 0 11 5 20
10 20 6 0 10 -9 10 -20z m180 -10 c0 -16 -4 -30 -10 -30 -5 0 -10 14 -10 30 0
17 5 30 10 30 6 0 10 -13 10 -30z m180 0 c0 -32 -9 -37 -28 -18 -19 19 -15 48
8 48 16 0 20 -7 20 -30z m-2060 -64 c10 -28 4 -36 -31 -36 -25 0 -29 4 -29 28
0 16 3 31 6 34 11 12 46 -5 54 -26z m424 -54 c27 -7 31 -13 34 -49 3 -36 0
-41 -20 -44 -44 -8 -66 1 -73 29 -8 32 -33 62 -52 62 -16 0 -17 33 -3 61 10
18 13 17 47 -16 20 -19 50 -39 67 -43z m476 68 c10 0 8 -20 -3 -37 -8 -12 -57
-19 -57 -8 0 20 26 55 38 50 7 -3 17 -5 22 -5z m-1100 -31 c0 -12 -7 -19 -20
-19 -19 0 -28 28 -14 43 11 11 34 -5 34 -24z m94 -77 c2 -4 1 -14 -4 -22 -7
-11 -11 -11 -24 -1 -9 8 -16 17 -16 22 0 11 37 12 44 1z m201 -2 c-3 -5 -12
-10 -20 -10 -8 0 -17 5 -20 10 -4 6 5 10 20 10 15 0 24 -4 20 -10z m545 -10
c0 -14 -7 -20 -23 -20 -16 0 -23 6 -23 20 0 14 7 20 23 20 16 0 23 -6 23 -20z
m-461 -72 c11 -30 6 -38 -30 -38 -31 0 -35 9 -19 41 14 26 39 24 49 -3z m165
16 c19 -7 21 -25 5 -41 -19 -19 -50 6 -38 29 11 20 11 20 33 12z m-544 -34 c0
-23 -10 -26 -28 -8 -18 18 -15 28 8 28 13 0 20 -7 20 -20z m906 3 c-2 -10 -13
-19 -24 -21 -17 -3 -22 2 -22 17 0 16 6 21 24 21 17 0 24 -5 22 -17z m-272
-59 c18 -7 20 -22 7 -42 -7 -11 -12 -12 -29 -1 -16 10 -18 16 -9 31 7 10 13
18 14 18 1 0 8 -3 17 -6z m-184 -35 c0 -12 -7 -19 -20 -19 -14 0 -20 7 -20 24
0 19 4 23 20 19 11 -3 20 -14 20 -24z m373 0 c-7 -24 -29 -24 -43 0 -7 14 -6
21 3 24 24 8 45 -4 40 -24z m557 1 c0 -13 -7 -20 -20 -20 -23 0 -26 10 -8 28
18 18 28 15 28 -8z m-1005 -60 c3 -5 8 -19 10 -30 3 -17 -2 -20 -31 -20 -36 0
-41 9 -24 41 11 20 35 25 45 9z m-375 -30 c0 -11 -4 -20 -10 -20 -5 0 -10 9
-10 20 0 11 5 20 10 20 6 0 10 -9 10 -20z m108 -78 c4 -26 -13 -52 -34 -52
-18 0 -27 36 -14 60 14 27 44 22 48 -8z m342 -12 c0 -11 -4 -20 -10 -20 -5 0
-14 9 -20 20 -9 17 -8 20 10 20 13 0 20 -7 20 -20z m366 -5 c1 -8 -4 -15 -11
-15 -7 0 -12 8 -10 18 2 9 4 19 4 21 2 9 15 -10 17 -24z m564 5 c0 -14 -7 -20
-24 -20 -19 0 -23 4 -19 20 3 11 14 20 24 20 12 0 19 -7 19 -20z m-1366 -73
c13 -21 -5 -37 -42 -37 -22 0 -22 1 -7 31 17 32 32 34 49 6z m1084 11 c7 -7
12 -20 12 -30 0 -14 -8 -18 -35 -18 -39 0 -39 0 -23 35 12 27 27 32 46 13z
m-918 -28 c0 -11 -4 -20 -10 -20 -5 0 -10 9 -10 20 0 11 5 20 10 20 6 0 10 -9
10 -20z m364 7 c16 -11 17 -17 6 -36 -11 -22 -12 -22 -31 -5 -39 35 -16 71 25
41z m362 -9 c2 -13 -5 -18 -22 -18 -18 0 -24 5 -24 21 0 15 5 20 22 17 11 -2
22 -11 24 -20z m-422 -79 c3 -17 22 -47 41 -66 35 -35 43 -57 25 -68 -19 -12
-61 8 -75 35 -8 16 -31 44 -52 63 -31 30 -35 38 -24 51 8 9 28 16 46 16 28 0
33 -4 39 -31z m166 11 c22 -40 -27 -78 -67 -52 -10 6 -10 15 -1 40 14 38 51
44 68 12z m-557 -20 c-3 -11 -9 -20 -14 -20 -5 0 -9 9 -9 20 0 11 6 20 14 20
9 0 12 -7 9 -20z m202 -1 c-2 -33 -32 -50 -61 -37 -43 20 -20 57 37 58 20 0
25 -5 24 -21z m521 -1 c3 -25 -23 -22 -36 3 -10 18 -9 20 11 17 12 -2 23 -11
25 -20z m-616 -76 c0 -4 -4 -13 -9 -21 -7 -10 -13 -11 -30 -2 -17 10 -19 15
-11 32 9 15 15 17 30 9 11 -6 20 -14 20 -18z m-200 -12 c0 -13 -7 -20 -20 -20
-13 0 -20 7 -20 20 0 13 7 20 20 20 13 0 20 -7 20 -20z m380 0 c-6 -11 -17
-20 -25 -20 -8 0 -15 9 -15 20 0 15 7 20 25 20 23 0 24 -2 15 -20z m370 11 c0
-13 -135 -151 -147 -151 -6 0 -13 19 -17 41 -6 39 -3 53 12 54 27 2 51 20 56
40 6 22 12 25 51 25 25 0 45 -4 45 -9z m336 -13 c2 -13 -5 -18 -22 -18 -18 0
-24 5 -24 21 0 15 5 20 22 17 11 -2 22 -11 24 -20z m-993 -88 c-6 -23 -14 -25
-31 -8 -18 18 -14 28 12 28 19 0 23 -4 19 -20z m357 -17 c0 -35 0 -36 -20 -18
-11 10 -20 26 -20 37 0 11 7 18 20 18 16 0 20 -7 20 -37z m366 15 c3 -25 -23
-22 -36 3 -10 18 -9 20 11 17 12 -2 23 -11 25 -20z m564 18 c0 -2 -3 -11 -6
-20 -9 -23 -34 -20 -34 4 0 13 7 20 20 20 11 0 20 -2 20 -4z m-1379 -76 c27
-15 24 -39 -7 -50 -35 -14 -34 -14 -34 25 0 37 9 42 41 25z m382 -24 c3 -7 1
-19 -3 -26 -7 -11 -13 -10 -34 4 -14 9 -26 20 -26 25 0 13 58 11 63 -3z m155
-25 c-15 -5 -21 7 -13 26 7 17 8 17 15 -2 4 -11 3 -22 -2 -24z m185 26 c7 -18
-4 -32 -25 -33 -18 -2 -25 26 -11 39 11 11 31 8 36 -6z m387 1 c0 -4 -5 -18
-11 -32 -9 -20 -16 -23 -29 -16 -20 11 -33 37 -24 51 6 11 64 8 64 -3z m-645
-68 c14 -23 12 -49 -6 -66 -40 -36 -95 26 -57 64 15 15 54 16 63 2z m168 -47
c-7 -18 -22 -7 -18 15 2 9 4 19 4 22 1 3 5 -1 10 -9 5 -8 7 -20 4 -28z m362 9
c-2 -9 -4 -19 -4 -22 -1 -3 -5 1 -10 9 -10 16 -3 44 9 36 5 -3 7 -13 5 -23z
m180 18 c11 -18 -3 -39 -22 -34 -24 7 -25 44 -1 44 9 0 20 -5 23 -10z m-809
-68 c6 -4 14 -17 18 -29 5 -17 3 -23 -8 -24 -9 -1 -23 -2 -31 -3 -17 -1 -18 4
-9 39 6 26 12 29 30 17z m720 -35 c3 -24 -30 -18 -34 7 -3 12 1 17 14 14 9 -1
18 -11 20 -21z m-622 -63 c15 -14 11 -39 -10 -62 -5 -7 -64 32 -64 43 0 33 48
45 74 19z m194 -31 l3 -43 -45 0 c-30 0 -46 4 -47 13 -5 51 19 80 61 75 22 -3
25 -9 28 -45z m719 11 c3 -8 2 -19 -3 -24 -13 -12 -54 7 -54 25 0 20 49 20 57
-1z m-1017 -101 c0 -20 -3 -24 -11 -16 -7 7 -9 19 -6 27 10 24 17 19 17 -11z
m203 14 c7 -18 -4 -32 -25 -33 -13 -1 -18 5 -18 22 0 17 6 24 19 24 10 0 21
-6 24 -13z m160 0 c7 -18 -4 -32 -25 -33 -13 -1 -18 5 -18 22 0 17 6 24 19 24
10 0 21 -6 24 -13z m-273 -104 c0 -29 -12 -24 -17 7 -2 11 2 20 7 20 6 0 10
-12 10 -27z m564 1 c3 -8 -1 -17 -10 -21 -18 -7 -23 -2 -29 25 -3 15 1 19 15
15 10 -3 21 -11 24 -19z m364 -2 c3 -17 -2 -22 -17 -22 -16 0 -21 6 -21 26 0
33 33 30 38 -4z m-310 -51 c7 -4 15 -19 16 -33 2 -21 -1 -25 -21 -25 -20 0
-23 4 -23 33 0 35 5 40 28 25z m-434 -87 c17 -7 21 -50 7 -73 -6 -10 -13 -10
-29 -2 -21 11 -22 18 -8 59 8 25 8 24 30 16z m-442 -101 c24 -29 17 -48 -19
-50 -36 -1 -39 4 -21 42 13 30 20 31 40 8z m752 -60 c30 -36 53 -70 50 -75 -3
-4 -18 -8 -35 -8 -27 0 -29 3 -29 35 0 32 -2 35 -30 35 -32 0 -67 -31 -76 -67
-7 -28 -30 -30 -44 -4 -8 16 -1 31 43 85 28 36 55 65 59 66 3 0 31 -30 62 -67z
m-559 36 c1 -18 -14 -29 -42 -29 -16 0 -23 6 -23 18 0 25 6 29 38 27 16 0 27
-7 27 -16z m337 7 c10 -14 -1 -32 -21 -33 -13 -1 -18 5 -16 20 1 12 3 23 4 25
2 5 26 -4 33 -12z m-438 -77 c20 -29 10 -48 -25 -47 -32 1 -34 6 -17 43 14 31
22 31 42 4z m366 7 c1 0 3 -18 6 -38 6 -38 6 -38 -30 -38 -29 0 -36 4 -36 20
0 36 21 68 41 63 10 -3 19 -6 19 -7z m-200 -33 c0 -16 -6 -23 -20 -23 -18 0
-29 28 -15 42 14 14 35 2 35 -19z m928 9 c2 -6 -6 -16 -17 -22 -19 -9 -21 -8
-21 14 0 17 5 24 17 22 9 -2 19 -8 21 -14z m-657 -59 c6 -33 5 -54 -2 -58 -9
-6 -59 15 -59 24 1 23 58 55 61 34z m191 -10 c29 -26 23 -48 -16 -50 -32 -3
-33 -1 -31 30 2 17 3 33 4 35 3 7 27 0 43 -15z m-532 -3 c19 0 -4 -41 -27 -46
-32 -8 -39 0 -24 32 8 17 17 24 27 20 9 -3 19 -6 24 -6z m-180 -14 c0 -18 -21
-36 -42 -36 -16 0 -26 29 -14 41 10 10 56 6 56 -5z m907 0 c6 -5 -19 -56 -28
-56 -14 0 -39 31 -39 49 0 15 6 18 32 15 17 -2 33 -6 35 -8z m-1017 -106 c0
-13 -7 -20 -20 -20 -13 0 -20 7 -20 20 0 13 7 20 20 20 13 0 20 -7 20 -20z
m1090 -1 c0 -15 -5 -20 -22 -17 -31 4 -33 38 -2 38 18 0 24 -5 24 -21z m-986
-100 c-8 -16 -18 -29 -22 -29 -15 0 -32 24 -32 45 0 18 5 20 35 17 l34 -4 -15
-29z m913 11 c-1 -21 -13 -25 -41 -14 -28 11 -18 34 13 34 24 0 29 -4 28 -20z
m-837 -82 c0 -19 -21 -48 -34 -48 -15 0 -26 21 -26 49 0 14 6 17 30 13 17 -2
30 -9 30 -14z m910 -8 c0 -13 -7 -20 -19 -20 -10 0 -21 9 -24 20 -4 16 0 20
19 20 17 0 24 -6 24 -20z m200 0 c0 -13 -7 -20 -20 -20 -13 0 -20 7 -20 20 0
13 7 20 20 20 13 0 20 -7 20 -20z m-1179 -54 c9 -12 -12 -76 -26 -76 -19 0
-35 23 -35 50 0 15 2 29 5 32 8 8 49 4 56 -6z m903 -19 c23 -36 -31 -72 -65
-45 -15 11 -15 17 -3 45 12 28 17 31 36 24 12 -4 27 -15 32 -24z m-744 -17 c0
-11 -4 -20 -10 -20 -5 0 -10 9 -10 20 0 11 5 20 10 20 6 0 10 -9 10 -20z m206
0 c0 -14 -7 -20 -23 -20 -16 0 -23 6 -23 20 0 14 7 20 23 20 16 0 23 -6 23
-20z m160 -9 c1 -16 -10 -30 -36 -46 -20 -13 -46 -36 -57 -51 -23 -31 -48 -28
-62 8 -11 29 3 58 28 58 10 0 38 13 62 30 49 33 63 34 65 1z m180 14 c-3 -22
-19 -23 -22 -2 -1 9 4 17 11 17 7 0 12 -7 11 -15z m-454 -100 c6 -30 -7 -42
-27 -25 -22 18 -19 50 4 50 12 0 20 -9 23 -25z m378 21 c0 -2 -3 -11 -6 -20
-8 -22 -31 -20 -44 4 -10 18 -8 20 20 20 16 0 30 -2 30 -4z m163 -11 c9 -21
-9 -28 -27 -9 -21 20 -20 24 3 24 10 0 21 -7 24 -15z m187 -5 c0 -24 -13 -26
-34 -4 -21 21 -20 24 9 24 18 0 25 -5 25 -20z m-256 -84 c7 -18 6 -30 -1 -37
-15 -15 -84 -3 -78 14 23 66 24 67 47 58 13 -4 27 -20 32 -35z m-924 -7 c0
-22 -11 -24 -28 -7 -19 19 -14 37 8 31 11 -3 20 -14 20 -24z m180 0 c0 -12 -7
-19 -20 -19 -14 0 -20 7 -20 24 0 19 4 23 20 19 11 -3 20 -14 20 -24z m386 1
c0 -16 -7 -20 -33 -20 -26 0 -33 4 -33 19 0 13 8 21 23 23 32 6 43 0 43 -22z
m-180 -2 c1 -13 -5 -18 -21 -18 -18 0 -23 5 -22 20 2 26 39 23 43 -2z m714 15
c-1 -25 -14 -53 -26 -53 -16 0 -37 37 -29 50 7 12 55 14 55 3z m-632 -80 c12
-20 -5 -63 -23 -63 -7 0 -18 7 -25 15 -11 13 -11 20 0 40 16 29 35 32 48 8z
m182 -2 c12 -23 4 -48 -19 -60 -37 -19 -55 17 -29 59 16 25 34 25 48 1z m-557
-15 c6 -15 -1 -26 -15 -26 -4 0 -8 9 -8 20 0 23 15 27 23 6z m927 -5 c0 -23
-18 -31 -47 -20 -37 14 -29 39 12 39 28 0 35 -4 35 -19z m160 0 c0 -26 -37
-35 -43 -10 -6 22 0 29 25 29 11 0 18 -7 18 -19z m200 -1 c0 -13 -7 -20 -20
-20 -13 0 -20 7 -20 20 0 13 7 20 20 20 13 0 20 -7 20 -20z m-823 -62 c23 -29
-5 -79 -39 -73 -55 11 -48 85 8 85 12 0 26 -6 31 -12z m543 -3 c28 -34 -11
-77 -54 -57 -23 10 -24 13 -13 41 13 34 45 42 67 16z m-917 -25 c-3 -11 -9
-20 -14 -20 -5 0 -9 9 -9 20 0 11 6 20 14 20 9 0 12 -7 9 -20z m200 13 c9 -9
-12 -33 -29 -33 -8 0 -14 9 -14 20 0 19 28 28 43 13z m86 -85 c11 -30 6 -38
-30 -38 -26 0 -29 3 -29 30 0 25 4 30 25 30 17 0 28 -7 34 -22z m-199 -18 c0
-23 -10 -26 -28 -8 -18 18 -15 28 8 28 13 0 20 -7 20 -20z m366 -2 c2 -13 -5
-18 -22 -18 -18 0 -24 5 -24 21 0 15 5 20 22 17 11 -2 22 -11 24 -20z m-636
-92 c0 -19 -4 -23 -20 -19 -11 3 -20 14 -20 24 0 12 7 19 20 19 14 0 20 -7 20
-24z m360 0 c0 -19 -4 -23 -20 -19 -11 3 -20 14 -20 24 0 12 7 19 20 19 14 0
20 -7 20 -24z m388 -5 c1 -35 -11 -41 -55 -29 -54 14 -33 57 28 58 22 0 26 -5
27 -29z m-460 -77 c3 -29 1 -30 -27 -26 -27 4 -31 9 -31 34 0 26 3 29 28 26
22 -2 28 -9 30 -34z m357 26 c3 -5 8 -19 10 -30 3 -17 -2 -20 -31 -20 -38 0
-38 0 -22 35 11 26 32 33 43 15z m-552 -22 c-2 -5 -3 -18 -3 -31 0 -16 -6 -23
-20 -23 -16 0 -20 7 -20 34 0 29 3 33 23 30 12 -2 21 -6 20 -10z m357 -8 c0
-23 -10 -26 -28 -8 -18 18 -15 28 8 28 13 0 20 -7 20 -20z m-425 -66 c3 -39
40 -74 80 -74 7 0 12 -8 10 -17 -2 -10 -4 -22 -4 -28 -1 -5 -5 -16 -10 -24 -7
-11 -17 -8 -48 17 -22 17 -51 36 -66 43 -15 7 -27 19 -28 28 -2 34 4 66 14 73
12 8 52 -6 52 -18z m715 -8 c0 -22 -17 -37 -33 -30 -18 7 -20 14 -11 37 6 17
44 11 44 -7z m-534 -16 c0 -21 -46 -43 -71 -34 -36 14 -6 54 40 54 24 0 31 -4
31 -20z m177 13 c12 -11 -14 -33 -39 -33 -17 0 -24 6 -24 20 0 15 7 20 28 20
16 0 32 -3 35 -7z m727 -14 c0 -15 -5 -20 -22 -17 -31 4 -33 38 -2 38 18 0 24
-5 24 -21z m-641 -90 c-5 -11 -13 -19 -17 -20 -4 0 -15 -2 -24 -4 -21 -4 -22
5 -7 39 10 21 15 23 35 14 19 -9 21 -14 13 -29z m-199 1 c0 -23 -10 -26 -28
-8 -18 18 -15 28 8 28 13 0 20 -7 20 -20z m366 -2 c1 -10 -1 -18 -4 -19 -4 0
-15 -2 -24 -4 -13 -2 -18 3 -18 20 0 16 5 22 22 21 12 -1 22 -8 24 -18z m-623
-89 c-4 -15 -43 -29 -43 -15 0 2 -2 11 -5 19 -4 10 2 14 23 15 25 0 29 -3 25
-19z m526 8 c11 -14 6 -27 -10 -27 -5 0 -13 9 -19 20 -8 16 -8 20 3 20 8 0 20
-6 26 -13z m184 -8 c3 -12 1 -19 -5 -17 -13 5 -20 38 -8 38 4 0 10 -9 13 -21z
m-273 -95 c0 -8 -4 -14 -10 -14 -5 0 -10 9 -10 21 0 11 5 17 10 14 6 -3 10
-13 10 -21z m183 20 c9 -9 -4 -34 -18 -34 -14 0 -27 25 -18 34 4 3 12 6 18 6
6 0 14 -3 18 -6z m198 -13 c-16 -28 -38 -33 -35 -8 1 12 3 23 3 25 1 1 10 2
21 2 17 0 19 -3 11 -19z m165 -4 c1 -8 -4 -18 -10 -20 -19 -8 -40 9 -33 26 7
20 40 15 43 -6z m101 -59 c11 -14 10 -38 -4 -62 -8 -14 -11 -14 -30 -1 -15 10
-20 22 -16 33 8 22 23 42 33 42 4 0 12 -6 17 -12z m-532 -25 c-2 -10 -4 -23
-4 -29 -1 -19 -29 -24 -56 -12 -45 20 -26 51 34 56 23 2 29 -1 26 -15z m340
-17 c1 -14 -2 -29 -6 -31 -9 -6 -59 15 -59 24 1 19 34 42 55 37 5 -1 10 -15
10 -30z m-440 -53 c14 -19 8 -56 -9 -48 -6 3 -19 8 -28 11 -14 5 -15 10 -6 30
13 28 26 30 43 7z m172 9 c7 -4 14 -19 15 -32 3 -19 -2 -24 -25 -25 -35 -2
-40 7 -26 39 13 28 17 30 36 18z m202 -37 c-3 -49 -23 -60 -53 -30 -28 28 -5
74 37 75 15 0 18 -7 16 -45z m337 3 c-1 -26 -32 -33 -39 -8 -6 22 0 30 23 30
11 0 17 -8 16 -22z m202 -16 c2 -6 -5 -9 -14 -8 -10 2 -20 8 -22 14 -2 6 5 9
14 8 10 -2 20 -8 22 -14z m-464 -60 c8 -15 34 -46 58 -68 24 -22 43 -44 43
-49 -1 -23 -18 -35 -49 -35 -31 0 -34 3 -41 36 -5 27 -13 39 -34 47 -24 9 -28
16 -28 54 -1 36 2 43 18 43 10 0 25 -12 33 -28z m-190 -10 c-3 -30 -5 -33 -21
-30 -10 2 -18 13 -19 25 -1 17 4 22 20 19 11 -2 21 -8 20 -14z m-85 -61 c16
-10 18 -58 3 -73 -8 -8 -19 -7 -40 1 -28 12 -29 14 -19 47 10 34 28 42 56 25z
m-549 -38 c0 -16 -6 -23 -20 -23 -14 0 -20 7 -20 23 0 16 6 23 20 23 14 0 20
-7 20 -23z m200 10 c0 -15 -37 -36 -50 -28 -6 3 -10 14 -10 24 0 12 8 17 30
16 17 0 30 -5 30 -12z m160 -8 c0 -18 -5 -25 -20 -25 -25 0 -27 37 -2 43 9 3
18 5 20 6 1 0 2 -10 2 -24z m928 -3 c3 -17 -2 -22 -17 -22 -16 0 -21 6 -21 24
0 31 34 29 38 -2z m-188 3 c16 -19 -3 -45 -34 -45 -17 0 -21 6 -22 30 -1 25 2
30 21 30 12 0 28 -7 35 -15z m-96 -61 c12 -5 13 -10 5 -25 -17 -33 -56 -20
-43 15 7 17 14 19 38 10z m-164 -13 c0 -5 -7 -17 -16 -26 -14 -13 -19 -14 -25
-3 -13 20 -11 26 14 31 12 2 23 5 25 6 1 0 2 -3 2 -8z m57 -95 c9 -9 12 -56 4
-56 -15 1 -30 18 -36 42 -5 21 -3 26 9 24 8 -1 19 -5 23 -10z m185 -1 c10 -13
10 -55 1 -55 -24 1 -37 24 -34 58 1 14 22 12 33 -3z m-899 -15 c6 -23 -7 -34
-28 -26 -18 7 -20 32 -2 39 21 9 25 8 30 -13z m363 -17 c-2 -9 -8 -19 -14 -21
-8 -2 -10 13 -3 36 1 1 5 2 10 2 5 0 8 -8 7 -17z"/>
<path d="M4564 8186 c-3 -8 -4 -29 -2 -48 3 -31 5 -33 43 -33 38 0 40 2 43 35
3 24 -2 38 -14 47 -24 17 -63 17 -70 -1z"/>
<path d="M4155 7556 c-11 -6 -21 -12 -23 -13 -3 -1 16 -42 23 -51 2 -2 13 1
24 8 14 7 21 21 21 39 0 30 -13 35 -45 17z"/>
<path d="M3973 7542 c-17 -2 -23 -10 -23 -28 0 -21 5 -24 35 -24 30 0 35 3 35
24 0 26 -13 34 -47 28z"/>
<path d="M3698 7458 c-12 -10 -14 -19 -7 -35 7 -20 11 -21 33 -12 19 9 23 16
17 32 -10 26 -22 31 -43 15z"/>
<path d="M4252 7408 c5 -34 38 -37 38 -4 0 20 -5 26 -21 26 -15 0 -20 -5 -17
-22z"/>
<path d="M3788 7373 c-24 -6 -23 -40 1 -52 10 -6 21 -7 25 -4 9 9 8 63 -1 62
-5 -1 -16 -3 -25 -6z"/>
<path d="M3670 6892 c-21 -17 -21 -19 -5 -35 19 -20 38 -21 66 -7 23 13 24 24
3 44 -20 21 -37 20 -64 -2z"/>
<path d="M3126 6554 c-19 -19 -20 -35 -3 -57 19 -27 54 -29 72 -4 8 12 15 27
15 34 0 18 -29 43 -50 43 -10 0 -26 -7 -34 -16z"/>
<path d="M3782 5198 c-7 -7 -12 -22 -12 -35 0 -20 5 -23 35 -23 33 0 35 2 35
35 0 30 -3 35 -23 35 -13 0 -28 -5 -35 -12z"/>
<path d="M4043 9637 c-29 -13 -30 -43 -2 -57 30 -16 49 -5 49 29 0 33 -15 43
-47 28z"/>
<path d="M4925 9637 c-3 -7 -4 -19 -3 -27 3 -40 -3 -60 -19 -60 -35 0 -48 -16
-36 -43 9 -19 17 -24 32 -20 12 3 22 12 22 19 1 8 2 20 3 26 0 7 18 15 40 19
21 3 41 12 46 18 8 14 1 59 -11 67 -19 11 -70 12 -74 1z"/>
<path d="M3512 9632 c-18 -12 2 -66 20 -56 34 19 37 25 25 45 -13 21 -25 23
-45 11z"/>
<path d="M3698 9633 c-21 -5 -21 -5 -7 -37 10 -22 15 -24 33 -14 29 15 29 14
16 37 -11 22 -12 22 -42 14z"/>
<path d="M2969 9623 c-14 -3 -15 -9 -6 -39 6 -18 15 -34 21 -34 37 1 55 57 21
69 -11 4 -27 6 -36 4z"/>
<path d="M3162 9620 c-18 -4 -36 -11 -39 -14 -15 -14 -10 -37 9 -47 30 -16 67
-3 74 27 9 33 -4 43 -44 34z"/>
<path d="M3323 9614 c-6 -17 4 -31 26 -36 7 -2 15 7 17 18 4 26 -34 42 -43 18z"/>
<path d="M3063 9543 c-16 -6 -17 -35 -1 -51 20 -20 28 -14 28 23 0 35 -3 38
-27 28z"/>
<path d="M5060 9515 c0 -8 0 -18 -1 -22 0 -4 4 -9 10 -11 6 -2 11 8 11 22 0
14 -4 26 -10 26 -5 0 -10 -7 -10 -15z"/>
<path d="M5133 9438 c-14 -32 -6 -48 26 -48 37 0 41 6 29 41 -12 35 -41 38
-55 7z"/>
<path d="M3241 9361 c-12 -8 -13 -14 -3 -35 10 -23 14 -25 36 -15 21 10 23 15
14 35 -12 26 -24 29 -47 15z"/>
<path d="M5225 9358 c-15 -44 -10 -53 28 -56 40 -3 44 3 25 43 -12 26 -46 34
-53 13z"/>
<path d="M5651 9258 c-12 -34 2 -63 33 -66 34 -4 54 11 54 44 0 44 -72 62 -87
22z"/>
<path d="M2930 9227 c0 -21 -7 -36 -20 -45 -24 -15 -28 -47 -4 -38 9 3 20 6
25 6 5 0 8 3 8 8 -4 21 4 30 30 35 23 5 30 12 33 37 4 29 3 30 -34 30 -36 0
-38 -1 -38 -33z"/>
<path d="M4951 9228 c5 -18 9 -34 9 -35 0 -2 6 -3 13 -3 23 0 38 17 41 44 3
24 0 26 -35 26 l-38 0 10 -32z"/>
<path d="M5330 9235 c0 -17 5 -25 13 -22 6 2 12 12 12 22 0 10 -6 20 -12 23
-8 2 -13 -6 -13 -23z"/>
<path d="M3180 9123 c-39 -54 -46 -69 -34 -76 16 -9 54 -79 54 -101 0 -39 76
-39 90 0 13 33 2 54 -31 61 -27 5 -29 9 -29 48 0 39 2 43 29 48 53 11 49 87
-4 87 -19 0 -37 -16 -75 -67z"/>
<path d="M3757 9169 c-20 -28 -10 -58 21 -66 31 -7 56 7 60 36 7 48 -53 70
-81 30z"/>
<path d="M4681 9168 c-9 -25 -5 -33 58 -100 38 -41 67 -49 73 -20 7 31 -3 50
-32 62 -16 7 -36 27 -45 46 -18 39 -42 44 -54 12z"/>
<path d="M5414 9182 c-6 -4 -13 -19 -16 -33 -4 -23 -1 -25 34 -28 41 -2 44 4
26 44 -11 25 -24 31 -44 17z"/>
<path d="M5592 9178 c-7 -7 -12 -22 -12 -35 0 -21 4 -23 35 -21 39 2 40 5 23
43 -12 27 -27 32 -46 13z"/>
<path d="M5035 9158 c-11 -6 -21 -12 -23 -14 -2 -1 1 -12 8 -23 7 -14 21 -21
40 -21 31 0 39 7 46 45 4 22 1 25 -23 25 -16 0 -37 -6 -48 -12z"/>
<path d="M5780 9144 c0 -31 23 -28 28 4 2 15 -2 22 -12 22 -11 0 -16 -9 -16
-26z"/>
<path d="M2939 9079 c-18 -34 3 -69 41 -69 24 0 33 6 40 26 13 32 13 30 -6 48
-22 23 -61 20 -75 -5z"/>
<path d="M5664 9092 c-17 -11 -22 -35 -13 -59 6 -17 16 -23 38 -23 31 0 43 11
48 44 6 36 -40 61 -73 38z"/>
<path d="M3318 9074 c-8 -7 2 -44 12 -44 4 0 10 11 12 25 5 23 -9 34 -24 19z"/>
<path d="M3707 9053 c-14 -13 -6 -23 18 -23 16 0 25 6 25 15 0 15 -31 21 -43
8z"/>
<path d="M3762 8998 c-7 -7 -12 -27 -12 -45 0 -28 4 -33 24 -33 37 0 51 24 36
60 -13 32 -28 38 -48 18z"/>
<path d="M5776 8997 c-15 -11 -17 -17 -7 -35 10 -19 15 -20 36 -10 28 13 29
16 11 41 -16 20 -17 21 -40 4z"/>
<path d="M6098 8998 c-3 -7 -1 -28 4 -45 7 -27 13 -33 36 -33 37 0 52 17 52
57 0 32 -1 33 -44 33 -26 0 -46 -5 -48 -12z"/>
<path d="M3590 8955 c0 -38 6 -42 32 -21 16 11 16 15 2 34 -22 32 -34 27 -34
-13z"/>
<path d="M4854 8965 c1 -22 6 -25 37 -25 31 0 36 3 35 23 -1 18 -7 22 -37 24
-33 2 -37 0 -35 -22z"/>
<path d="M5416 8977 c-15 -11 -17 -17 -7 -35 13 -25 15 -26 41 -12 17 9 18 14
8 35 -13 29 -17 30 -42 12z"/>
<path d="M5580 8982 c0 -5 6 -17 14 -28 12 -15 18 -17 33 -8 10 6 19 19 21 28
3 12 -4 16 -32 16 -20 0 -36 -4 -36 -8z"/>
<path d="M4490 8944 c0 -17 8 -24 30 -29 57 -13 47 -85 -12 -85 -10 0 -18 -5
-18 -11 0 -9 17 -47 26 -58 1 -1 13 6 25 18 12 11 42 28 66 37 57 22 56 42 -6
101 -36 35 -58 48 -80 49 -26 0 -31 -3 -31 -22z"/>
<path d="M2946 8904 c-19 -19 -19 -17 -4 -49 16 -36 51 -30 59 10 3 17 3 36 1
43 -6 17 -37 15 -56 -4z"/>
<path d="M3147 8899 c-27 -38 22 -94 50 -56 5 6 10 27 12 45 2 28 0 32 -23 32
-14 0 -31 -9 -39 -21z"/>
<path d="M4410 8901 c-19 -37 -12 -51 24 -51 37 0 45 11 38 47 -5 29 -47 31
-62 4z"/>
<path d="M5653 8898 c-15 -34 0 -65 35 -70 42 -6 52 0 52 32 0 55 -66 84 -87
38z"/>
<path d="M3318 8877 c-9 -47 18 -62 57 -33 19 14 19 15 1 35 -25 28 -53 27
-58 -2z"/>
<path d="M3502 8868 c3 -29 7 -33 36 -36 31 -3 32 -2 32 32 0 35 -1 36 -36 36
-34 0 -35 -1 -32 -32z"/>
<path d="M5330 8875 c0 -15 6 -25 14 -25 8 0 13 8 11 18 -2 9 -4 20 -4 25 -2
20 -21 4 -21 -18z"/>
<path d="M3241 8816 c-7 -8 -11 -27 -9 -43 2 -22 9 -29 31 -31 34 -4 44 17 27
58 -14 33 -31 38 -49 16z"/>
<path d="M4650 8795 c0 -33 2 -35 35 -35 30 0 35 3 35 23 0 29 -18 47 -47 47
-20 0 -23 -5 -23 -35z"/>
<path d="M5578 8774 c-3 -25 0 -34 15 -38 23 -6 57 27 57 54 0 16 -6 19 -34
18 -31 -1 -35 -4 -38 -34z"/>
<path d="M3983 8783 c-22 -8 -14 -23 12 -23 14 0 25 6 25 13 0 14 -14 17 -37
10z"/>
<path d="M2944 8707 c-33 -48 -54 -94 -54 -114 0 -10 9 -31 20 -48 26 -40 26
-85 0 -92 -21 -6 -24 -12 -14 -37 9 -23 39 -20 41 5 5 61 82 58 83 -3 0 -10 3
-18 8 -19 53 -6 62 -4 62 13 0 10 -30 58 -68 106 -72 94 -83 132 -37 132 39 0
55 42 28 73 -24 25 -45 21 -69 -16z"/>
<path d="M4596 8725 c-19 -20 -19 -18 -4 -50 23 -50 71 -21 52 33 -11 32 -27
37 -48 17z"/>
<path d="M4693 8642 c-29 -19 -13 -85 20 -80 24 3 32 26 23 64 -6 24 -21 30
-43 16z"/>
<path d="M3047 8623 c-7 -15 -2 -36 11 -40 7 -3 12 5 12 21 0 24 -14 36 -23
19z"/>
<path d="M3158 8548 c-9 -23 3 -38 28 -38 19 0 24 5 24 25 0 20 -5 25 -24 25
-13 0 -26 -6 -28 -12z"/>
<path d="M4793 8549 c-38 -14 -24 -63 15 -52 23 5 26 16 14 44 -5 12 -13 14
-29 8z"/>
<path d="M4073 8533 c-18 -7 -16 -43 2 -43 9 0 15 9 15 25 0 14 -1 25 -2 24
-2 0 -9 -3 -15 -6z"/>
<path d="M3961 8451 c-24 -44 -12 -68 36 -75 12 -2 18 -13 20 -37 5 -55 9 -60
45 -54 43 8 50 16 46 51 -3 25 -9 30 -44 38 -37 8 -42 13 -50 50 -10 46 -36
59 -53 27z"/>
<path d="M2934 8344 c3 -43 13 -53 54 -56 33 -2 38 -12 32 -63 -3 -25 -2 -25
-36 -31 -29 -5 -54 -21 -54 -34 0 -4 20 -28 45 -53 43 -44 55 -67 36 -67 -37
0 -121 -121 -121 -173 0 -14 18 -42 45 -70 l45 -47 47 36 c26 20 57 40 69 44
20 8 22 19 15 72 -1 4 -16 14 -34 21 -30 13 -33 17 -29 54 3 31 9 41 30 51 15
6 51 32 79 58 45 39 51 48 43 65 -15 27 -46 24 -91 -12 -75 -60 -107 -14 -39
56 l43 43 -21 29 c-42 58 -106 111 -134 111 -24 0 -27 -4 -24 -34z m84 -455
c3 -23 -1 -27 -27 -31 -24 -3 -30 0 -33 17 -7 34 2 46 31 43 20 -2 27 -9 29
-29z"/>
<path d="M3285 8312 c-30 -37 -55 -75 -55 -84 0 -17 37 -40 51 -32 4 2 9 -5
12 -16 3 -12 -8 -37 -29 -67 -19 -26 -34 -52 -34 -58 1 -17 68 -103 93 -120
27 -18 54 -11 62 15 9 27 -3 45 -46 69 l-40 23 46 53 45 53 -45 46 c-50 52
-56 71 -24 81 17 6 32 -3 68 -39 50 -50 77 -53 86 -12 10 44 2 64 -28 70 -16
3 -47 23 -68 45 l-39 39 -55 -66z"/>
<path d="M4745 8370 c-3 -5 -3 -21 1 -35 4 -18 13 -25 29 -25 36 0 55 10 55
31 0 30 -69 54 -85 29z"/>
<path d="M4135 8262 c-10 -10 17 -42 34 -42 17 0 31 18 31 38 0 8 -58 11 -65
4z"/>
<path d="M3426 8075 c-21 -22 -17 -38 12 -40 36 -3 45 9 24 35 -17 21 -19 22
-36 5z"/>
<path d="M3248 7919 c-25 -14 -22 -31 12 -86 17 -26 30 -55 30 -64 0 -25 16
-32 56 -24 54 10 53 29 -7 93 -30 32 -58 65 -64 75 -8 12 -14 14 -27 6z"/>
<path d="M3115 7832 c-11 -12 -4 -61 11 -77 15 -15 58 -14 73 0 11 11 7 56 -5
66 -15 12 -70 20 -79 11z"/>
<path d="M3254 7740 c-45 -18 -36 -66 11 -66 27 1 30 4 30 35 0 37 -9 44 -41
31z"/>
<path d="M3055 7730 c-8 -13 4 -50 16 -50 6 0 19 5 30 10 16 9 17 14 6 30 -13
21 -42 27 -52 10z"/>
<path d="M2978 7648 c-10 -7 -19 -24 -20 -38 -2 -19 2 -25 19 -26 24 -1 32 18
24 54 -5 20 -8 21 -23 10z"/>
<path d="M2963 7469 c-39 -14 -41 -72 -2 -84 45 -15 76 16 59 59 -10 28 -28
36 -57 25z"/>
<path d="M3133 7428 c3 -17 11 -24 32 -26 28 -4 28 -3 13 20 -22 32 -49 36
-45 6z"/>
<path d="M3067 7373 c-11 -3 -16 -10 -13 -20 3 -8 6 -21 6 -28 0 -14 36 -9 46
6 7 11 -5 49 -14 48 -4 -1 -15 -3 -25 -6z"/>
<path d="M2896 7318 c9 -29 53 -101 68 -110 21 -15 47 -8 55 15 12 31 -3 53
-57 88 -56 36 -76 38 -66 7z"/>
<path d="M2950 7081 c0 -12 29 -23 41 -15 18 10 9 24 -16 24 -14 0 -25 -4 -25
-9z"/>
<path d="M3044 6975 c0 -22 4 -25 38 -25 34 0 37 3 34 23 -2 17 -10 23 -37 25
-32 3 -35 0 -35 -23z"/>
<path d="M2980 6885 c0 -14 4 -25 9 -25 12 0 19 21 13 38 -8 21 -22 13 -22
-13z"/>
<path d="M3058 5933 c-14 -4 -15 -9 -6 -34 11 -31 19 -35 49 -19 34 19 -2 62
-43 53z"/>
<path d="M2950 5830 c-24 -24 -25 -43 -4 -64 20 -20 48 -20 65 0 20 24 18 54
-5 70 -27 18 -32 18 -56 -6z"/>
<path d="M3158 5818 c-3 -7 -2 -21 1 -31 6 -18 8 -18 21 -2 11 14 11 18 -2 31
-12 13 -16 13 -20 2z"/>
<path d="M2973 4932 c-27 -17 -14 -82 17 -82 27 0 40 28 28 62 -10 28 -23 34
-45 20z"/>
<path d="M3030 4824 c-14 -36 3 -64 40 -64 32 0 50 22 44 54 -6 43 -69 50 -84
10z"/>
<path d="M4470 1915 c0 -16 6 -25 16 -25 11 0 14 5 10 16 -3 9 -6 20 -6 25 0
5 -4 9 -10 9 -5 0 -10 -11 -10 -25z"/>
<path d="M4423 1482 c-26 -4 -28 -11 -11 -47 18 -40 48 -29 60 22 6 23 -10 31
-49 25z"/>
<path d="M4333 1370 c2 -30 27 -34 27 -5 0 15 -6 25 -14 25 -9 0 -14 -9 -13
-20z"/>
<path d="M4421 1311 c-30 -30 -24 -56 14 -56 35 0 45 28 22 59 -14 19 -15 18
-36 -3z"/>
</g>
</svg>
