<svg xmlns="http://www.w3.org/2000/svg" width="1000" height="900" viewBox="0 0 95903 86313" shape-rendering="geometricPrecision" image-rendering="optimizeQuality" fill-rule="evenodd" clip-rule="evenodd"><g fill="#d6f0c8"><path d="m79805 43812h-18731c-2472 0-4495-2023-4495-4496v-499c0-2473 2023-4496 4495-4496h18731c2473 0 4496 2023 4496 4496v499c0 2473-2023 4496-4496 4496"/><path d="m38654 28814h-18731c-2473 0-4496-2023-4496-4495v-500c0-2472 2023-4495 4496-4495h18731c2472 0 4495 2023 4495 4495v500c0 2472-2023 4495-4495 4495"/><path d="m37567 63542h-4870c-2473 0-4496-2023-4496-4496v-499c0-2473 2023-4496 4496-4496h4870c2472 0 4495 2023 4495 4496v499c0 2473-2023 4496-4495 4496"/></g><path d="m42305 30677h32488c1324 0 2408 1084 2408 2408v22245c0 1325-1084 2408-2408 2408h-32488c-1325 0-2409-1083-2409-2408v-22245c0-1324 1084-2408 2409-2408zm31653 8573h91c832 0 1513 681 1513 1512v6732c0 832-681 1513-1513 1513h-91c-831 0-1512-681-1512-1513v-6732c0-831 681-1512 1512-1512zm-2380-3726c489 231 489 391 1100 217-115-636-478-544-935-763 180-840 628-1691 1362-2119-1311-157-1426 1362-1989 2121l-1579-13c-566-756-684-2268-1989-2107 727 414 1191 1281 1354 2100-354 208-876 207-900 760 544 268 616 24 1118-213l1206 3427 1252-3410z" fill="#fefefe" stroke="#333" stroke-linejoin="round" stroke-linecap="round" stroke-width="106.19"/><g fill="#333" fill-rule="nonzero"><path d="m46732 18743h1263v1609h-213v-1421h-836v1421h-214z"/><path d="m48169 20352l618-1609h234l655 1609h-242l-187-488h-677l-175 488h-226m463-661h549l-168-446c-51-136-89-248-116-336-22 105-51 208-88 310l-177 472"/><path d="m49845 20352v-1609h607c107 0 189 5 245 15 80 13 146 38 199 75 54 37 97 89 130 155 32 66 48 139 48 219 0 136-43 252-130 347-87 94-245 142-473 142h-413v656h-213m213-845h416c138 0 235-26 294-77 57-51 86-123 86-217 0-67-17-124-51-172-34-48-79-80-134-95-36-10-103-15-199-15h-412v576"/><path d="m51353 20352v-1609h214v663h831v-663h214v1609h-214v-758h-831v758z"/><path d="m52791 20352l617-1609h234l656 1609h-243l-186-488h-678l-174 488h-226m463-661h548l-167-446c-51-136-89-248-116-336-22 105-52 208-89 310l-176 472"/><path d="m55739 20352v-1609h-713c-144 0-253 14-327 43-75 29-134 80-179 153-44 73-67 154-67 242 0 114 37 211 111 289 74 78 188 128 342 149-57 27-99 54-128 80-63 57-121 129-177 215l-278 438h266l213-335c62-97 113-171 153-222 41-51 77-87 108-108 32-20 64-34 97-42 24-5 64-8 119-8h246v715h214m-214-899h-457c-97 0-173-10-228-31-54-19-96-52-124-96-28-44-43-92-43-144 0-76 28-139 83-188 55-50 142-74 261-74h508v533"/><path d="m18781 26320h980v1420h143v564h-188v-375h-1066v375h-189v-564h124c130-195 196-590 196-1185v-235m766 189h-562v82c0 137-12 325-37 563-24 238-73 433-145 586h744v-1231"/><path d="m20091 27146c0-267 72-476 216-627 143-151 328-226 555-226 149 0 283 35 402 106 119 71 210 170 273 297 63 126 94 270 94 431 0 163-33 309-99 438-66 128-159 226-280 292-121 66-251 99-391 99-152 0-287-37-406-110-119-73-210-172-271-299-62-126-93-260-93-401m221 4c0 193 52 346 156 457 104 111 235 167 392 167 160 0 292-56 396-169 103-112 155-272 155-478 0-131-22-245-67-343-44-97-109-173-194-226-85-54-181-81-287-81-150 0-280 52-388 155-109 104-163 276-163 518"/><path d="m21900 27929v-1609h320l380 1139c35 106 61 185 77 238 18-58 47-144 86-258l387-1119h286v1609h-205v-1346l-470 1346h-192l-464-1371v1371h-205"/><path d="m23601 27929l617-1609h234l656 1609h-243l-186-488h-678l-174 488h-226m463-661h548l-168-446c-50-136-88-248-115-336-22 105-52 208-89 310l-176 472"/><path d="m25281 26320h214v1420h532v-1420h214v1420h533v-1420h213v1609h-1706z"/><path d="m27346 27929v-1609h213v663h832v-663h213v1609h-213v-757h-832v757z"/><path d="m30232 27929v-1609h-713c-144 0-252 14-327 43-74 29-134 80-179 153-44 73-67 154-67 242 0 115 37 211 111 289 74 79 188 128 342 149-56 27-99 54-128 81-62 56-121 128-176 214l-279 438h266l213-335c62-97 113-171 153-222 41-51 77-87 109-107 31-21 64-35 97-43 24-5 63-8 118-8h246v715h214m-214-899h-457c-97 0-173-10-227-30-55-20-97-52-125-97-28-44-42-92-42-144 0-76 27-139 82-188 55-49 142-74 261-74h508v533"/><path d="m31855 27929v-1609h-713c-143 0-252 14-327 43-74 29-134 80-178 153-45 73-67 154-67 242 0 115 37 211 110 289 74 79 188 128 343 149-57 27-100 54-129 81-62 56-121 128-176 214l-278 438h266l212-335c62-97 113-171 154-222 40-51 76-87 108-107 31-21 64-35 97-43 24-5 63-8 118-8h247v715h213m-213-899h-457c-98 0-173-10-228-30-55-20-96-52-124-97-29-44-43-92-43-144 0-76 27-139 82-188 55-49 142-74 261-74h509v533"/><path d="m18459 21151h886v1864c197-21 330-71 399-153 70-81 178-309 322-681 182-474 367-769 551-884 183-115 478-173 885-173 20 0 63-1 128-3v654l-125-4c-181 0-314 23-397 68-84 44-151 113-203 204-52 92-128 280-229 565-54 152-112 278-175 380-62 102-173 198-332 287 197 55 358 168 487 337 128 169 269 408 421 716l596 1198h-1039l-524-1126c-8-17-25-47-51-93-10-15-47-85-110-206-112-216-204-350-275-404-72-54-181-81-329-84v1913h-886v-4375"/><path d="m21993 23365c0-446 67-821 200-1124 99-223 236-424 408-601 172-177 360-308 565-395 273-115 587-173 944-173 645 0 1161 201 1548 601 387 401 581 958 581 1672 0 707-193 1261-576 1660-384 401-899 600-1541 600-651 0-1169-198-1553-597-384-397-576-944-576-1643m910-29c0 495 115 871 344 1128 229 255 521 384 873 384 353 0 642-128 869-381 226-255 340-636 340-1144 0-502-110-876-331-1123-220-247-513-371-878-371-365 0-659 126-882 375-223 251-335 627-335 1132"/><path d="m27551 22343l-861-202c185-713 712-1069 1579-1069 513 0 901 113 1163 339 262 226 392 492 392 797 0 209-60 397-179 566-119 168-298 316-537 444 289 100 507 241 652 423 145 183 217 407 217 675 0 385-141 696-423 933-281 237-702 356-1263 356-458 0-819-76-1084-229-265-153-463-439-596-858l806-263c83 264 195 435 334 512 138 79 309 117 513 117 279 0 483-60 611-181 127-121 192-260 192-416 0-180-73-325-217-435-144-110-362-165-652-165h-201v-660h101c270 0 477-61 619-182 144-121 215-283 215-484 0-160-58-294-174-404-116-109-282-164-498-164-370 0-606 183-709 550"/><path d="m30919 21151h3064v4375h-886v-3635h-1314v1867c0 535-18 908-54 1119-35 212-122 378-260 496-139 118-355 177-649 177-104 0-291-10-564-29v-686l197 3c185 0 310-24 373-74 64-50 96-172 96-366l-3-752v-2495"/><path d="m37506 25526v-1827h-179c-280 0-477 42-592 125-115 83-311 332-589 747l-633 955h-1056l534-854c209-339 377-576 502-711 125-137 282-259 469-366-406-64-699-206-880-425-180-220-270-483-270-790 0-266 67-503 201-708 135-206 312-345 532-415 220-70 548-106 986-106h1861v4375h-886m0-3635h-690c-350 0-580 8-690 23-110 16-206 70-285 162-79 92-119 211-119 358 0 154 39 276 115 367 76 91 174 147 292 169 118 21 360 33 723 33h654v-1112"/><path d="m40266 25526v-3635h-1295v-740h3470v740h-1289v3635z"/><path d="m43027 21151h825v2913l1771-2913h880v4375h-825v-2866l-1771 2866h-880z"/><path d="m47406 25526v-4375h886v1723h1723v-1723h886v4375h-886v-1913h-1723v1913z"/><path d="m55759 25526h-954l-378-996h-1754l-364 996h-937l1699-4375h936l1752 4375m-1619-1735l-608-1619-591 1619h1199"/></g><g stroke="#333" stroke-width="106.19"><g fill="#fefefe"><path d="m54641 29010c3200-2027 6400-4054 9600-6081 1908-1209 2852 1050 1351 2001l-9659 6119-1292-2039z"/><path d="m54641 29010c525 828 943 1488 1467 2316 203 320 28 711-234 859-263 149-662-19-785-213l-1467-2316 1019-646z"/><path d="m53622 29656l-12019 7614c-733 599-713 1349-232 2150l2819 4450c737 679 11724-5301 12478-7876l-2018-3191c-204-461-199-745 212-1085l-1240-2062zm-10472 9489c-327 207-761 110-969-218-207-327-110-761 218-969 327-207 761-110 969 218 207 327 110 761-218 969z"/></g><path d="m43920 43443c2355 173 12445-6244 12471-7887" fill="none"/><g fill="#ebecec"><path d="m54170 64399l-1860-544-219 913c-67 279-117 218 180 250 237 25 468 88 689 214 302 172 181 242 429-17l781-816z"/><path d="m54440 66568l-1860-544-219 913c-67 279-117 218 180 250 237 25 468 88 688 214 302 172 182 242 430-17l781-816z"/><path d="m43709 64278l-1364-1148-536 890c-165 272-184 193 55 318 191 101 362 238 500 439 189 274 60 310 370 115l975-614z"/><path d="m37487 65323l-1336-1125-526 872c-161 267-180 189 54 312 187 98 355 233 490 430 186 269 59 304 363 113l955-602z"/></g><path d="m75851 55227c-596-936-635-1803-320-2625 698-1823-1761-8777-2809-8969-1197-219-1575-842-2292-2020-3215-3243-7593-3929-12522-3404-3660 553-7333 1064-10757 2954-4796 2790-7502 1299-8702-3275-117-1124-781-963-1220-770-936 310-1868-257-2504-129-1722 505-2153 2578-64 5073 984 3532 2354 6551 4302 7899 1338 1756 1841 3511 2762 5266 536 2650-3031 5875-5202 7578-455 444-300 1113-450 1670 214 744 814 990 1221 1027 1732-307 1741-2150 3628-2687 253-72 770-107 1116-330 99 203-43 562 69 703 436 547 956 716 1416 1158 1343-139 1241-1386 1669-1862 1326-1942 3632-3968 6230-5282 1220-560 2440-816 3660-819-214 642-171 1242 129 1798 363 1332-2299 3618-3019 5202-129 207-158 433-68 684 77 213 96 139 313 146 1145 38 196 948 69 1584-66 327-105 264 195 431 557 309 1131 508 1739 494l4046-5330c2095-676 3471-1507 4367-2440 2847-2001 8262-1049 11045-2248 1019 151 2390-557 1953-1477z" fill="#fadbdb"/><g fill="none"><path d="m41600 62668c393-156 845-311 954-892 419-2249 3658-2972 5171-4775 1905-2868-1423-4645-1637-7192"/><path d="m47725 57001c377-638 3317-1171 6567-931"/><path d="m52923 64848c2704-2691 3706-6698 6426-9709l2497-3626c1606-2332 4367-2797 7039-3286"/><path d="m60250 53830c-2355 1870-3972 1493-5958 2240"/><path d="m38963 49961c-518-2874 3979-5977 8329-7618"/></g></g></svg>