<svg xmlns="http://www.w3.org/2000/svg" width="1000" height="900" viewBox="0 0 267985 241186" shape-rendering="geometricPrecision" image-rendering="optimizeQuality" fill-rule="evenodd" clip-rule="evenodd"><g fill="#d6f0c8"><path d="m134025 102554h-52341c-6909 0-12562-5653-12562-12562v-1396c0-6909 5653-12562 12562-12562h52341c6909 0 12562 5653 12562 12562v1396c0 6909-5653 12562-12562 12562"/><path d="m187409 142850h-13609c-6909 0-12562-5653-12562-12562v-1396c0-6909 5653-12562 12562-12562h13609c6909 0 12561 5653 12561 12562v1396c0 6909-5652 12562-12561 12562"/><path d="m126698 173584h-13609c-6909 0-12562-5653-12562-12562v-1396c0-6909 5653-12562 12562-12562h13609c6909 0 12561 5653 12561 12562v1396c0 6909-5652 12562-12561 12562"/></g><path d="m108942 153620c11922 28891 59144 28591 71066-93 48840-42986-117821-45954-71066 93z" fill="#333" stroke="#333" stroke-width="75.37"/><g fill="none" stroke="#fefefe" stroke-width="296.74"><path d="m143010 170119c581-357 435-589 616-1442 1580-7442 7007-2239 3847-8067-789 1299-88 1282-748 2374-954 298-6279 296-7238-1-659-1107 62-1110-742-2381-2269 4318 378 3068 1793 4058 1883 1316 1716 3979 2472 5459z"/><path d="m142231 170251c132-1583-773-4284-2191-5187l693 6018 1498-831z"/><path d="m146126 165043c-1434 1049-1994 3300-2240 5068l1641 847 599-5915z"/><path d="m145384 172489c207-2492-4833-2319-4406 32l4406-32z"/></g><g fill="#fffdf4"><ellipse cx="145100" cy="136918" rx="39158" ry="17352" stroke="#c5c6c6" stroke-width="75.37"/><path d="m114955 121767c-2125 344-2542 421-3400 2636l-340 2859c3841-159 2589-1358 5885-1859l1874 3055 3909-1296 899 2474 3924-224c630 1095 339 1352 644 1884 785 1376 316 657 1618 1651l2675 2471c55-110 227 253 345 374-3807 1352-1910 1803-7167 2026l-2039-3124c-2630-3181-960-1345-2164-4707-2963-897-6989-733-10447-576-3294 4920-2108 3866-940 5725-2457 561-974 1191-1863 3241 5444 3337 11978 10046 19037 11244 3865 656 11541 2230 15482 1372 15014 693 29617-3074 40050-10133-53-4041 666-4284-1264-7533-1145-1927-1059-3553-1239-6874-5247-1447-2705-2602-3360-6089-1053-239-3191-402-3815-653-1934-779-643-354-2209-2260-3279-144-2716-82-5624-707 634 3703 1735 4460 3490 6098 2183 2037 2200 3007 1981 6049-1106 448 1298 1820-2607-379-2940-1656-2576-4005-5100-1214-3199 3539 2525-544-934 1033-926-4796 1975-562 2477-5179-3464-1529-7380 220-3891-4505 2350 149-312 210 1292 371 79 9 291 18 365 20l765-101c50-141 279-31 518-172l-1504-2548c-963-529-648-166 603-500-128-385-227-1419-629-1900-143 47-2135 436-2310 448l-5221-454c659-2534 700-1316-3-2513l-3766 1262c2369 926 622-701 2564 1888 77 103 176 260 240 367l962 5646c-1437-556-225-20-1218-1089l-1783-1938c-89-89-224-215-313-302l-930-943c-2796-2454-5031-1861-8806-2393 365-3808-11-1827 6139-4129 1308 880 437 0 1423 1327 434-1601-308-2288 426-1026-1291-1279 224-604-4876-554-1179-2083-1395-3763-5237-2708-704 1540-3575 2094-7167 3046 2067 3505 2817 558 3513 4294-2567-1069-5638-3504-7555-758-1119 1941 1837 2578 2602 5356-3372-1296 1163-2130-6169-2746 1065 3791 396 2063 3426 3738l3939 2203c1183 3116-392 2254 3766 4742-874-3325-53-4-1059-2261-574-1288-255 911-478-1422 4691-1721 5099-79 6656 395 7028-5876 4093-789 6790-2569-761-2095 955-887-4343-1853 407-3243 785-2720 4280-592 1282 782 430 101 1101 757 1066 1042-234 253 1081 1581 624 629 3030 1170 4173 1966l3771 2539c-3243 2680-1690-440-2419 4281-5432-810-4810-1072-8870 1400-4202 2557 1037 6618-1316 11490-3209-1816-7386-7220-11555-7229 4646-4873 715-3860 2136-7430-88-39-245-27-286-34l-4077-1884c-2222-1042-3868-767-6022-1547-2642-957-3651-3711-7804-3248l-2319 675c-59-119-252 122-383 171"/></g><g fill="#d8e9ed"><path d="m114955 121767c131-49 324-290 383-171l2319-675c4153-463 5162 2291 7804 3248 2154 780 3800 505 6022 1547l4077 1884c41 7 198-5 286 34-1421 3570 2510 2557-2136 7430 4169 9 4420-83 7629 1733 2354-4872 1040-3437 5242-5994 4060-2472 3438-2210 8870-1400 729-4721-824-1601 2419-4281l-3771-2539c-1143-796-3549-1337-4173-1966-1315-1328-15-539-1081-1581-671-656 181 25-1101-757-3495-2128-3873-2651-4280 592 5298 966 3582-242 4343 1853-2697 1780 238-3307-6790 2569-1557-474-1965-2116-6656-395 223 2333-96 134 478 1422 1006 2257 185-1064 1059 2261-4158-2488-2583-1626-3766-4742l-3939-2203c-3030-1675-2361 53-3426-3738 7332 616 2797 1450 6169 2746-765-2778-3721-3415-2602-5356 1917-2746 4988-311 7555 758-696-3736-1446-789-3513-4294 3592-952 6463-1506 7167-3046l-1623-456c-1598-213-842-70-2785 635-154 56-322 122-479 177-8988 3115-6883 5418-10422 7165-2086 1030-2065 337-4188 755-7661 5879-4051 2661-5091 6785"/><path d="m111171 129411c3458-157 7484-321 10447 576 1204 3362-466 1526 2164 4707l2039 3124c5257-223 3360-674 7167-2026-118-121-290-484-345-374l-2675-2471c-1302-994-833-275-1618-1651-305-532-14-789-644-1884l-3924 224-899-2474-3909 1296-1874-3055c-3296 501-2044 1700-5885 1859l340-2859c-120 146-263 196-301 482-70 533-1506 1135-83 4526"/></g><path d="m165426 116744c-1768-1038-541-714-3148-527l1504 2548c-239 141-468 31-518 172l-765 101c-74-2-286-11-365-20-1604-161 1058-222-1292-371-3489 4725 427 2976 3891 4505-502 4617-3403 383-2477 5179 3459-1577-2265 2506 934-1033 2524-2791 2160-442 5100 1214 3905 2199 1501 827 2607 379 219-3042 202-4012-1981-6049-1755-1638-2856-2395-3490-6098" fill="#e2e5eb"/><path d="m150952 112560c-785 785-1083-436-1722-1566-986-1327-115-447-1423-1327-6150 2302-5774 321-6139 4129 3775 532 6010-61 8806 2393l930 943c89 87 224 213 313 302l1783 1938c993 1069-219 533 1218 1089l-962-5646c-64-107-163-264-240-367-1942-2589-195-962-2564-1888" fill="#d8e9ed"/><g fill="#333" fill-rule="nonzero"><path d="m80050 91414h541v3561l2394-3561h589v4497h-540v-3552l-2388 3552h-596z"/><path d="m84308 94642l565-144c43 217 158 435 344 653 188 218 435 326 744 326 314 0 562-80 744-242 181-162 272-357 272-587 0-247-95-445-287-590-190-147-451-220-780-220h-283v-521c272 0 480-16 625-47 144-32 272-112 383-242 111-129 166-277 166-442 0-195-75-365-227-510-151-144-356-216-613-216-226 0-419 56-578 170-159 114-269 265-331 452-61 188-91 328-91 420l-572-132c141-954 666-1432 1576-1432 438 0 785 123 1041 367 257 244 386 528 386 855 0 419-198 743-594 973 229 64 421 194 576 389 154 196 231 429 231 701 0 387-149 711-449 972-299 260-696 391-1190 391-850 0-1403-448-1658-1344"/><path d="m90079 91414h911v1915c202-21 339-72 410-157 71-83 182-317 331-700 187-487 377-790 566-909 188-118 491-178 910-178 21 0 65-1 132-3v672l-129-3c-187 0-323 23-408 69-86 46-155 116-209 211-53 94-132 288-235 581-56 156-115 285-180 390-64 105-178 203-342 295 202 57 369 173 501 347 132 174 276 419 433 736l613 1231h-1068l-539-1158c-9-17-26-48-53-95-10-16-48-87-113-212-115-222-209-360-282-415-75-56-187-84-338-86v1966h-911v-4497"/><path d="m93711 93689c0-458 69-843 206-1155 102-230 242-436 419-618 177-182 371-317 581-406 281-118 604-178 971-178 663 0 1193 206 1592 618 398 412 596 985 596 1718 0 728-197 1297-592 1708-395 411-923 616-1584 616-669 0-1202-204-1596-613-395-408-593-971-593-1690m936-30c0 510 118 896 354 1160 235 263 535 395 897 395 363 0 661-131 894-392 232-262 349-653 349-1176 0-516-113-901-341-1154-226-255-526-381-902-381-375 0-677 129-907 385-229 258-344 645-344 1163"/><path d="m98785 95911v-4497h1456c552 0 911 22 1078 67 258 68 474 214 647 440 174 226 261 519 261 877 0 276-50 507-150 696-100 188-227 336-381 443-154 107-311 179-470 213-216 43-529 65-940 65h-590v1696h-911m911-3737v1281h495c357 0 595-24 715-71 120-47 215-121 283-222 68-101 102-217 102-351 0-164-48-299-143-406-97-107-217-174-365-201-107-20-324-30-651-30h-436"/><path d="m102703 93689c0-458 69-843 207-1155 101-230 241-436 418-618 177-182 371-317 581-406 281-118 604-178 971-178 663 0 1193 206 1592 618 398 412 597 985 597 1718 0 728-198 1297-593 1708-395 411-923 616-1584 616-669 0-1201-204-1596-613-395-408-593-971-593-1690m936-30c0 510 119 896 354 1160 236 263 535 395 897 395 363 0 661-131 894-392 233-262 349-653 349-1176 0-516-113-901-340-1154-227-255-527-381-903-381-375 0-677 129-906 385-230 258-345 645-345 1163"/><path d="m107777 91414h1799c357 0 621 14 796 44 176 30 332 92 470 185 139 94 254 219 346 375 92 156 138 331 138 525 0 210-57 403-170 578-113 176-267 307-460 395 273 80 482 216 630 409 147 193 220 419 220 679 0 205-47 404-143 598-95 194-225 349-390 465-164 115-367 186-609 213-151 16-516 27-1095 31h-1532v-4497m911 747v1036h595c352 0 572-5 658-15 155-18 277-71 366-160 89-89 133-206 133-350 0-139-38-251-115-338-76-87-190-139-341-157-90-11-349-16-775-16h-521m0 1784v1206h842c326 0 535-10 622-27 135-26 245-85 330-180 85-97 128-223 128-384 0-136-33-250-98-344-65-94-161-163-284-206-124-43-393-65-806-65h-734"/><path d="m112332 91414h911v1796h1213c572 0 985 134 1241 402 257 268 385 589 385 964 0 307-78 567-234 782-155 216-332 361-532 438-198 76-486 115-862 115h-2122v-4497m911 3737h882c286 0 485-14 595-41 110-27 209-90 296-187 87-98 130-217 130-360 0-205-74-354-222-450-149-95-401-143-759-143h-922v1181"/><path d="m116828 95911v-4497h3329v760h-2418v998h2248v760h-2248v1219h2506v760z"/><path d="m121061 91414h3047v760h-2136v3737h-911z"/><path d="m124307 93689c0-458 69-843 206-1155 101-230 242-436 419-618 176-182 370-317 581-406 280-118 604-178 970-178 664 0 1193 206 1592 618 398 412 597 985 597 1718 0 728-198 1297-593 1708-394 411-923 616-1584 616-668 0-1201-204-1596-613-395-408-592-971-592-1690m935-30c0 510 119 896 354 1160 236 263 535 395 897 395 364 0 661-131 894-392 233-262 349-653 349-1176 0-516-113-901-340-1154-226-255-527-381-903-381-374 0-677 129-906 385-229 258-345 645-345 1163"/><path d="m80025 102928v-4498h892l1064 3184c98 296 169 518 214 666 52-164 132-404 241-722l1082-3128h797v4498h-571v-3763l-1313 3763h-536l-1298-3832v3832h-572"/><path d="m85088 100739c0-746 201-1330 602-1752 401-422 918-632 1552-632 416 0 789 99 1123 297 333 198 588 475 762 829 175 354 263 756 263 1205 0 456-92 864-276 1223-185 360-445 632-782 816-338 186-703 278-1093 278-424 0-802-103-1136-307-333-204-586-482-758-836-171-353-257-727-257-1121m615 10c0 541 146 967 437 1278 291 311 656 467 1096 467 448 0 815-157 1105-471 289-314 434-760 434-1338 0-365-62-684-186-957-123-272-304-483-542-633-239-150-506-225-802-225-421 0-783 145-1086 433-304 289-456 771-456 1446"/><path d="m90418 98430h2808v4498h-597v-3970h-1614v2317c0 471-22 815-66 1034-44 220-137 389-279 512-141 121-321 182-538 182-132 0-290-27-474-82l107-527c97 50 181 75 250 75 134 0 236-50 303-152 66-101 100-340 100-717v-3170"/><path d="m94025 100739c0-746 201-1330 602-1752 401-422 918-632 1553-632 415 0 789 99 1123 297 333 198 587 475 762 829 175 354 263 756 263 1205 0 456-92 864-277 1223-184 360-444 632-782 816-338 186-702 278-1092 278-424 0-802-103-1136-307-333-204-587-482-758-836-172-353-258-727-258-1121m616 10c0 541 145 967 436 1278 291 311 657 467 1096 467 448 0 816-157 1106-471 289-314 433-760 433-1338 0-365-62-684-185-957-124-272-305-483-542-633-239-150-506-225-802-225-421 0-783 145-1087 433-303 289-455 771-455 1446"/><path d="m99106 98430h596v1973c271 0 463-54 573-159 111-106 251-360 423-762 124-296 227-504 309-626 80-122 195-225 345-307 149-83 314-125 494-125 229 0 350 2 362 6v515c-21 0-60-1-119-3-66-2-106-3-120-3-190 0-331 46-423 138-95 93-201 289-323 590-151 381-278 622-383 721-104 98-229 178-374 238 290 79 577 348 860 805l926 1497h-739l-755-1219c-206-338-379-570-517-696-139-127-318-190-539-190v2105h-596v-4498"/><path d="m102259 102928l1725-4498h654l1831 4498h-677l-521-1363h-1893l-488 1363h-631m1293-1847h1533l-469-1247c-141-379-248-692-322-939-62 293-145 581-249 866l-493 1320"/><path d="m111555 70339h2738v3970h402v1577h-527v-1049h-2977v1049h-528v-1577h346c364-547 546-1651 546-3312v-658m2142 528h-1570v230c0 383-35 908-104 1573-68 664-204 1211-405 1639h2079v-3442"/><path d="m115218 72648c0-746 201-1330 602-1752 401-422 918-632 1552-632 416 0 789 99 1123 297 333 198 588 475 762 829 175 354 263 756 263 1205 0 456-92 864-276 1223-184 360-445 632-782 816-338 186-703 278-1093 278-424 0-802-103-1136-307-333-204-586-482-758-836-171-353-257-727-257-1121m615 10c0 541 146 967 437 1278 291 311 656 467 1096 467 448 0 815-157 1105-471 289-314 434-760 434-1338 0-365-62-684-186-957-123-272-304-483-542-633-239-150-506-225-802-225-421 0-783 145-1086 433-304 289-456 771-456 1446"/><path d="m120273 74837v-4498h892l1063 3184c99 296 170 518 215 666 51-164 132-404 241-722l1082-3128h797v4498h-572v-3763l-1313 3763h-536l-1298-3832v3832h-571"/><path d="m125024 74837l1725-4498h655l1831 4498h-678l-520-1363h-1894l-487 1363h-632m1294-1847h1533l-469-1247c-142-379-248-692-323-939-61 293-144 581-248 866l-493 1320"/><path d="m129719 70339h597v3970h1489v-3970h596v3970h1489v-3970h597v4498h-4768z"/><path d="m135488 74837v-4498h597v1853h2324v-1853h597v4498h-597v-2117h-2324v2117z"/><path d="m140012 70339h540v3562l2394-3562h589v4498h-540v-3552l-2388 3552h-595z"/><path d="m144527 70339h540v3562l2394-3562h589v4498h-540v-3552l-2388 3552h-595v-4498m2242-1080h377c-31 259-125 458-282 596-157 139-365 208-626 208-262 0-471-69-627-206-156-138-250-337-280-598h376c29 141 86 247 171 316 85 70 200 105 343 105 167 0 292-34 377-102 85-67 143-173 171-319"/><path d="m82362 89294v-10158h-3619v-2066h9697v2066h-3602v10158z"/><path d="m90042 77070h4888c970 0 1690 40 2165 120 478 82 902 250 1278 504 375 256 688 594 939 1018 250 424 375 902 375 1429 0 569-153 1095-461 1570-307 478-725 834-1252 1073 743 219 1312 589 1713 1112 399 524 598 1139 598 1847 0 558-128 1098-387 1625-259 526-612 947-1062 1263-446 313-998 507-1655 580-410 43-1403 72-2977 83h-4162v-12224m2475 2032v2817h1616c959 0 1557-14 1790-43 421-48 754-193 996-435 242-242 361-558 361-950 0-379-105-683-313-920-208-236-518-378-927-426-245-29-948-43-2106-43h-1417m0 4848v3278h2288c887 0 1454-25 1693-74 367-68 665-230 896-489 230-262 347-606 347-1042 0-369-88-680-267-936-177-256-436-443-771-560-336-117-1067-177-2191-177h-1995"/><path d="m101434 83256c0-1246 188-2293 561-3141 276-623 657-1184 1138-1679 481-495 1007-862 1579-1104 763-321 1642-483 2638-483 1804 0 3244 560 4328 1678 1081 1121 1621 2678 1621 4672 0 1978-537 3526-1610 4641-1073 1118-2510 1676-4305 1676-1818 0-3267-555-4339-1667-1073-1110-1611-2641-1611-4593m2544-82c0 1385 322 2435 962 3152 640 714 1454 1073 2438 1073 988 0 1796-356 2430-1064 632-712 948-1776 948-3196 0-1402-308-2449-925-3138-615-691-1431-1036-2453-1036-1018 0-1841 350-2464 1048-623 700-936 1752-936 3161"/><path d="m115226 89294v-12224h3958c1499 0 2475 60 2930 183 700 185 1286 583 1759 1197 472 615 708 1409 708 2382 0 751-136 1380-407 1892-273 512-617 914-1036 1206-418 291-845 484-1277 578-589 117-1440 177-2555 177h-1605v4609h-2475m2475-10158v3483h1346c970 0 1616-66 1943-194 327-128 584-327 768-603 185-273 279-589 279-953 0-447-131-814-390-1104-261-290-588-472-990-546-293-54-882-83-1769-83h-1187"/><path d="m125876 83256c0-1246 187-2293 560-3141 276-623 657-1184 1138-1679 481-495 1007-862 1579-1104 763-321 1642-483 2638-483 1804 0 3244 560 4328 1678 1081 1121 1622 2678 1622 4672 0 1978-538 3526-1611 4641-1072 1118-2509 1676-4305 1676-1818 0-3266-555-4339-1667-1073-1110-1610-2641-1610-4593m2543-82c0 1385 322 2435 962 3152 640 714 1454 1073 2439 1073 987 0 1795-356 2429-1064 632-712 948-1776 948-3196 0-1402-307-2449-925-3138-614-691-1431-1036-2452-1036-1019 0-1841 350-2465 1048-623 700-936 1752-936 3161"/><path d="m139786 77070h8280v2066h-5804v10158h-2476z"/></g></svg>