<svg xmlns="http://www.w3.org/2000/svg" xml:space="preserve" width="100%" height="100%" version="1.1" style="shape-rendering:geometricPrecision; text-rendering:geometricPrecision; image-rendering:optimizeQuality; fill-rule:evenodd; clip-rule:evenodd"viewBox="0 0 6000 10633">
 <defs><style type="text/css"><![CDATA[.fil0ok {fill:none}.fil4ok {fill:#EBAF65}.fil1ok {fill:#F2E0C9}.fil2ok {fill:#FEFEFE;fill-rule:nonzero}.fil3ok {fill:#C9C7BD;fill-rule:nonzero}]]></style></defs>
   <rect class="fil0ok" width="6000" height="10633"/>
   <path class="fil1ok" d="M4931 4834l224 -1796c-34,-205 -245,-178 -282,-20l-118 893 -11 -3 67 -1186c-68,-123 -243,-146 -315,-9l-50 1084 -13 0 -18 -1142c-33,-209 -315,-248 -373,-14l-9 1104 -16 -2 -43 -960c-46,-255 -319,-180 -310,24l25 836c-47,9 -83,43 -96,97 0,290 0,579 0,869 37,188 142,365 268,495l0 5529 879 0 0 -5541c87,-68 148,-155 191,-258z"/>
   <path class="fil2ok" d="M3685 3624c46,-12 95,1 137,23 63,36 112,94 149,156l0 381c243,36 364,193 398,425l-23 0c-34,-224 -150,-372 -388,-405l-10 -1 0 -394c-42,-70 -90,-116 -137,-142 -38,-20 -84,-33 -126,-19l0 -24z"/>
   <polygon class="fil3ok" points="4553,4294 3007,3731 3053,3605 4599,4168 "/>
   <path class="fil1ok" d="M3765 4990c-82,-112 -145,-244 -172,-381l0 -869c33,-141 227,-145 358,76l0 387c242,33 371,184 402,440l578 191c-24,57 -53,109 -89,156l-1077 0z"/>
   <path class="fil4ok" d="M811 4425l1006 -2763c10,-29 43,-44 72,-34l1616 588c29,11 44,43 33,72l-1005 2764c-11,29 -44,44 -73,33l-1615 -588c-29,-10 -44,-43 -34,-72zm944 -1221c26,-71 105,-108 175,-82 71,26 108,105 82,176 -26,70 -104,107 -175,81 -71,-25 -108,-104 -82,-175zm439 160c62,-171 -26,-361 -197,-424 -172,-62 -362,26 -424,198 -62,171 26,361 198,423 171,63 361,-26 423,-197zm299 -34c9,-68 6,-138 -9,-207 -11,-52 -63,-86 -115,-74 -52,11 -86,62 -74,115 33,156 -26,320 -152,418 -43,33 -50,93 -17,136 32,42 93,50 135,17 56,-44 103,-95 141,-153l110 236c23,49 80,70 129,47 24,-11 41,-31 50,-54 8,-24 8,-50 -3,-74l-109 -233 233 -109c48,-22 69,-80 47,-128 -23,-49 -81,-70 -129,-47l-237 110 0 0z"/>
</svg>
