<?xml version="1.0" encoding="UTF-8"?>
<!DOCTYPE svg PUBLIC "-//W3C//DTD SVG 1.1//EN" "http://www.w3.org/Graphics/SVG/1.1/DTD/svg11.dtd">
<!-- Creator: CorelDRAW X7 -->
<svg xmlns="http://www.w3.org/2000/svg" xml:space="preserve" width="100%" height="100%" version="1.1" style="shape-rendering:geometricPrecision; text-rendering:geometricPrecision; image-rendering:optimizeQuality; fill-rule:evenodd; clip-rule:evenodd"
viewBox="0 0 28978 7857"
 xmlns:xlink="http://www.w3.org/1999/xlink">
 <defs>
  <style type="text/css">
   <![CDATA[
    .fil4 {fill:none}
    .fil7 {fill:#FEFEFE}
    .fil20 {fill:#FEFEFE}
    .fil17 {fill:#EBECEC}
    .fil15 {fill:#D9DADA}
    .fil6 {fill:#727271}
    .fil12 {fill:#86776F}
    .fil18 {fill:#F18A6B}
    .fil19 {fill:#EC6A4F}
    .fil13 {fill:#B7CBD8}
    .fil24 {fill:#748187}
    .fil0 {fill:#2C5871}
    .fil21 {fill:#4E4E4F}
    .fil10 {fill:#E9E7DA}
    .fil1 {fill:#EBEBEB}
    .fil9 {fill:#F4F4F4}
    .fil2 {fill:#FADAAD}
    .fil11 {fill:#FFDECE}
    .fil3 {fill:#FFE2C4}
    .fil16 {fill:#FFFBE6}
    .fil14 {fill:#EB7D6C}
    .fil23 {fill:#EBECEC;fill-rule:nonzero}
    .fil8 {fill:#434242;fill-rule:nonzero}
    .fil22 {fill:#C9C7BD;fill-rule:nonzero}
    .fil5 {fill:#FADAAD;fill-rule:nonzero}
   ]]>
  </style>
 </defs>
 <g id="Слой_x0020_1">
  <metadata id="CorelCorpID_0Corel-Layer"/>
  <g id="_422071960">
   <path class="fil0" d="M10533 3628l1329 1c354,47 891,590 1526,1198 191,183 333,292 578,428l4 614c-486,-183 -1106,-702 -1803,-1414 252,597 286,393 301,1175l-2576 2c49,-724 68,-514 277,-1097 -413,357 -653,878 -678,1605l-552 420c-85,-1512 479,-2461 1594,-2932z"/>
   <path class="fil1" d="M12468 5630l-2576 2c333,-618 592,-1100 463,-1923 57,-30 116,-58 178,-81 165,612 1114,719 1306,1 53,-5 110,12 166,41 -40,1217 -176,1053 463,1960z"/>
   <path class="fil2" d="M11515 3564c-6,394 -627,410 -635,19l635 -19z"/>
   <path class="fil3" d="M9899 2559l0 -16c0,-141 115,-257 256,-257l39 0 63 -654 1859 0 43 654 43 0c141,0 257,116 257,257l0 16c0,141 -116,257 -257,257l-109 0 -131 432c-137,451 -1357,540 -1565,1l-166 -431 -67 0c-141,0 -265,-118 -265,-259z"/>
   <path class="fil4" d="M10077 2426c-103,27 -113,216 0,260"/>
   <path class="fil5" d="M10067 2390c20,-5 41,7 46,27 5,20 -7,40 -27,46 -21,5 -36,23 -45,45 -4,12 -7,25 -8,38 -1,14 1,28 4,41 7,28 25,53 53,64 19,8 29,29 21,48 -7,20 -29,29 -48,22 -53,-21 -85,-65 -98,-115 -6,-21 -8,-42 -7,-63 2,-22 6,-43 13,-62 17,-44 50,-79 96,-91z"/>
   <path class="fil5" d="M12300 2390c-20,-5 -41,7 -46,27 -5,20 7,40 27,46 21,5 36,23 45,45 4,12 7,25 8,38 0,14 -1,28 -4,41 -8,28 -25,53 -53,64 -19,8 -29,29 -22,48 8,20 29,29 49,22 53,-21 85,-65 98,-115 5,-21 8,-42 6,-63 -1,-22 -5,-43 -13,-62 -16,-44 -49,-79 -95,-91z"/>
   <path class="fil6" d="M10684 2173c71,0 129,58 129,129 0,72 -58,129 -129,129 -72,0 -129,-57 -129,-129 0,-71 57,-129 129,-129z"/>
   <path class="fil6" d="M11702 2174c71,0 129,57 129,129 0,71 -58,129 -129,129 -71,0 -129,-58 -129,-129 0,-72 58,-129 129,-129z"/>
   <path class="fil2" d="M11189 2725l129 0c0,71 -58,129 -129,129 -71,0 -129,-58 -129,-129l129 0z"/>
   <path class="fil7" d="M11765 2246c14,0 26,12 26,27 0,14 -12,26 -26,26 -15,0 -27,-12 -27,-26 0,-15 12,-27 27,-27z"/>
   <path class="fil7" d="M10710 2236c15,0 27,12 27,27 0,14 -12,26 -27,26 -14,0 -26,-12 -26,-26 0,-15 12,-27 26,-27z"/>
   <path class="fil6" d="M12230 2371l-207 232 -4 -866c-257,364 -1447,-323 -1682,10l0 857 -210 -233 0 -634c0,-495 405,-900 900,-900l303 0c495,0 900,405 900,900l0 634z"/>
   <line class="fil4" x1="10506" y1="2012" x2="10856" y2= "2012" />
   <polygon class="fil8" points="10506,1974 10856,1974 10856,2049 10506,2049 "/>
   <polygon class="fil8" points="11526,1974 11877,1974 11877,2049 11526,2049 "/>
   <path class="fil9" d="M11200 3073l254 0c0,140 -114,253 -254,253 -140,0 -253,-113 -253,-253l253 0z"/>
   <path class="fil1" d="M10190 1407c810,118 1455,77 1895,-158l137 -1249 -2289 364c86,348 171,695 257,1043z"/>
   <polygon class="fil10" points="3194,5015 25389,5015 28978,7439 0,7439 "/>
   <polygon class="fil11" points="0,7439 28978,7439 28978,7857 0,7857 "/>
   <g>
    <rect class="fil12" transform="matrix(0.406279 -0.263599 0.263599 0.406279 11280.6 6061.11)" width="1640" height="609"/>
    <path class="fil13" d="M11281 6061l-1231 799c344,297 822,-94 1450,-460l-219 -339z"/>
   </g>
   <g>
    <path class="fil14" d="M7686 6212c52,-2 107,2 157,14 48,12 97,25 82,87 -9,35 -48,77 -75,99 -26,22 -56,65 -81,91 -129,141 -371,147 -548,143 -53,-2 -116,-7 -167,-2 -48,5 -92,23 -137,36 -192,57 -566,-4 -768,-51 -30,-7 -71,-19 -101,-29 -5,-1 -31,-11 -30,-10l132 34c46,11 96,20 142,28 159,27 461,70 610,21 48,-15 83,-28 134,-36 53,-8 108,-3 163,-2 102,1 222,5 322,-15 115,-22 190,-69 264,-158 47,-58 92,-73 115,-139 22,-65 1,-83 -60,-96 -50,-10 -103,-15 -154,-15zm-1249 524c81,11 155,35 254,44 83,8 191,14 271,-10 80,-24 131,-65 221,-75 48,-5 97,-2 145,-4 226,-7 372,-30 528,-210 44,-50 107,-100 143,-154 88,-132 -103,-108 -119,-124 27,-5 102,11 130,22 48,21 48,57 26,102 -31,62 -94,114 -136,170 -135,183 -333,215 -545,221 -48,1 -104,-3 -151,1 -83,7 -152,54 -233,73 -114,27 -297,7 -414,-24 -25,-6 -123,-29 -121,-32l1 0zm-760 -535l-11 5c-4,1 -8,1 -12,2 -44,9 -29,7 -77,11 -75,6 -191,-4 -264,-24 -12,-3 -34,-12 -43,-13 25,1 68,12 95,17 58,11 155,19 212,13l100 -11zm-1056 -101c6,-11 14,-13 15,-15 0,-1 1,-1 1,-1 -3,9 -6,11 -16,16zm450 -202c2,7 29,32 36,40 120,-11 159,-46 172,-48 -8,14 -48,35 -65,42 -31,14 -54,15 -85,23 37,32 98,39 110,47 15,-1 51,7 69,8 80,5 261,14 320,60 34,27 88,18 128,7 13,-4 9,-18 56,-41 66,-32 189,-32 260,-37 59,-4 119,-9 171,21 93,53 13,101 4,117 16,7 41,28 51,42 16,25 10,31 41,48 42,24 94,28 141,38 97,22 197,60 175,182 -4,-6 -3,-11 -4,-20 -1,-6 -2,-13 -3,-19 -25,-169 -187,-97 -329,-178 -44,-26 -22,-39 -44,-48 -18,-8 -61,-6 -79,2 -15,18 -98,37 -123,41 -24,3 -49,6 -73,7 -18,1 -65,-5 -74,-3 -56,13 -113,15 -166,38 -53,23 -78,48 -123,78 -43,29 -90,51 -141,64 -46,12 -131,25 -177,22 16,-4 64,-6 87,-10 231,-35 239,-111 335,-163 79,-42 107,-25 158,-39 -26,-1 -66,-38 -89,-50 -28,6 -111,35 -133,32 6,-6 20,-6 32,-10 24,-8 64,-23 84,-35l-6 -7 -10 -9c-40,-8 -90,-28 -128,-44 -21,-8 -35,-19 -54,-30 -93,-51 -282,-34 -359,-62 -36,-4 -91,-26 -119,-48 -91,7 -185,0 -274,13 -76,12 -130,60 -190,99 41,-60 111,-95 181,-105 85,-12 175,-18 260,-24l-19 -22c-7,-10 -14,-16 -15,-28 7,3 4,3 11,7 6,-25 23,-29 47,-35 18,-5 54,-11 72,-10 -26,11 -77,17 -119,47zm1541 -138c3,-18 -70,-95 22,-88 29,2 67,18 120,21 12,0 11,-1 18,4 -25,4 -65,3 -91,0 -25,-2 -17,-2 -32,-16 -9,-6 -28,-8 -39,-5 -10,2 -18,15 -13,27 2,6 32,58 35,60 10,6 23,6 31,16 -7,11 -19,13 -32,14 -24,1 -19,-6 -24,-23 -12,-7 -55,-20 -70,-24 -54,-14 -197,-19 -212,50 27,-1 45,-8 69,-12 -26,11 -46,10 -71,17 -15,30 -18,69 12,90 18,13 22,12 43,18 61,18 49,43 -10,43 -20,0 -42,-2 -62,-4 -41,-6 -80,-11 -121,-17 -47,-6 -214,-26 -250,-9 4,15 21,17 30,26 -9,-2 -15,-5 -24,-9 -10,-5 -15,-6 -16,-17 17,-15 90,-17 114,-16 20,1 198,26 229,31 28,4 90,18 112,3 -1,-18 -16,-21 -29,-31 -69,-51 -52,-52 -44,-107 -23,-1 -48,2 -71,2 -55,0 -177,0 -222,8 -95,19 -133,71 -242,35 -47,-16 -68,-36 -120,-19 -40,13 -70,35 -115,36 -43,2 -87,-13 -129,-21 -51,-10 -95,5 -140,-1 22,-6 111,-10 139,-5 44,6 84,25 130,20 84,-10 157,-70 246,-26 55,26 54,35 116,13 141,-48 102,-39 260,-42 229,-4 109,4 199,-57 44,-30 125,-16 175,-5 14,3 71,22 79,20zm-239 -234c-25,7 -66,7 -94,10 -94,9 -185,16 -279,29 -121,17 -240,38 -361,52 -323,38 -369,44 -679,143 -180,58 -434,123 -496,328 -50,164 56,315 167,425 24,23 87,73 117,84 -69,-70 31,-272 -42,-324 -28,-20 -98,-9 -141,-53 -43,-44 49,-116 55,-119 -13,30 -51,61 -32,104 20,45 61,39 104,37 36,-1 98,6 74,57 -12,24 -17,21 -18,51 -1,47 -13,180 -9,202 15,90 125,72 189,34 20,-12 68,-50 87,-54 -34,36 -15,19 -34,46 -24,34 -79,36 -120,44 -38,7 -42,-1 -75,-3 154,100 663,169 831,173 148,3 277,-7 389,-112 12,-11 20,-22 31,-32 14,-15 23,-2 36,7 63,46 176,105 247,131 136,50 280,62 422,80 155,19 312,35 469,32 337,-8 530,-177 793,-211l40 -6c12,-6 13,0 24,-11 16,-16 41,-42 53,-59 10,-14 20,-28 29,-43 8,-15 16,-39 23,-50l2 24c1,-21 -1,-27 6,-47 15,-50 18,-99 16,-150 -1,-26 -11,-118 -18,-145 -3,-12 -13,-26 -17,-40 -5,7 -6,-1 -10,-7 -3,-5 -8,-10 -12,-13 -8,-6 -20,-15 -29,-17 -35,-18 -105,-22 -144,-18 -51,4 -86,14 -134,27 -74,22 -157,62 -246,79 -7,0 -98,23 -167,23 -165,1 -250,-40 -440,17 -12,4 -65,25 -70,25 -6,8 -49,29 -62,37 -17,12 -40,32 -55,40 3,-8 7,-17 14,-21l9 -14c58,-69 152,-97 237,-113 216,-40 410,37 605,-87 66,-42 139,-113 155,-193 18,-97 -77,-158 -153,-190 -43,-19 -87,-30 -132,-43 -218,-60 -352,-94 -579,-116 -30,-3 -136,-9 -157,-18 -28,2 -145,-24 -198,-28 -36,-4 -73,-5 -109,-6 -28,0 -89,5 -112,2z"/>
    <path class="fil15" d="M8175 6542l-2 -24c-7,11 -15,35 -23,50 -9,15 -19,29 -29,43 -12,17 -37,43 -53,59 -11,11 -12,5 -24,11 -65,73 -248,163 -341,194 -306,102 -655,77 -970,35 -163,-21 -318,-46 -483,-56 -176,-11 -351,-13 -526,-14 -295,-1 -654,-44 -932,-148 -132,-49 -226,-111 -310,-227 -76,-106 -141,-284 -89,-411 121,-299 887,-414 1159,-460 315,-53 673,-92 992,-87 251,4 486,24 731,78 73,16 142,38 214,55 -262,-105 -729,-143 -1012,-142 -346,2 -704,47 -1044,108 -266,48 -883,158 -1039,404 -21,33 -34,66 -41,104 -8,50 1,82 3,130 2,50 -2,81 10,132 26,111 69,201 147,287 101,113 232,162 374,203 156,45 323,76 484,94 188,21 370,14 559,17 181,3 362,12 542,34 348,44 698,111 1053,39 149,-30 282,-84 409,-168 134,-89 223,-173 241,-340z"/>
    <path class="fil16" d="M8044 6681l-40 6c-58,21 -121,34 -181,54 -58,19 -113,42 -170,64 -314,122 -464,128 -807,91 -69,-7 -139,-16 -208,-26 -247,-33 -304,-31 -531,-167 -18,-11 -49,-44 -69,-36 -12,5 -23,19 -32,28 -10,10 -21,16 -33,24 -162,109 -413,93 -596,68 -131,-18 -267,-39 -395,-71 -245,-60 -424,-163 -541,-394 -59,-117 -40,-252 46,-350 72,-81 199,-132 299,-167 288,-100 445,-147 751,-181 280,-32 554,-87 836,-98 23,3 84,-2 112,-2 36,1 73,2 109,6 53,4 170,30 198,28 110,11 216,9 327,26 118,19 453,103 555,151 70,32 173,100 162,189 -10,79 -92,155 -156,197 -84,55 -170,77 -270,82 -150,9 -327,-15 -481,49 -49,21 -70,40 -113,66l-9 14c0,0 42,-26 48,-29 18,-11 35,-20 55,-27 5,0 58,-21 70,-25 190,-57 275,-16 440,-17 69,0 160,-23 167,-23 6,-7 53,-21 63,-24 60,-21 124,-49 184,-67 61,-17 237,-60 277,3 9,2 21,11 29,17 4,3 9,8 12,13 4,6 5,14 10,7 -2,-23 -6,-45 -7,-68 -1,-76 6,-101 -65,-158 -57,-45 -121,-80 -185,-114 -66,-36 -132,-67 -200,-99 -34,-16 -187,-79 -216,-81 -72,-17 -141,-39 -214,-55 -245,-54 -480,-74 -731,-78 -319,-5 -677,34 -992,87 -272,46 -1038,161 -1159,460 -52,127 13,305 89,411 84,116 178,178 310,227 278,104 637,147 932,148 175,1 350,3 526,14 165,10 320,35 483,56 315,42 664,67 970,-35 93,-31 276,-121 341,-194z"/>
    <path class="fil16" d="M8004 6687c-263,34 -456,203 -793,211 -157,3 -314,-13 -469,-32 -142,-18 -286,-30 -422,-80 -71,-26 -184,-85 -247,-131 -13,-9 -22,-22 -36,-7 -11,10 -19,21 -31,32 -112,105 -241,115 -389,112 -168,-4 -677,-73 -831,-173 33,2 37,10 75,3 41,-8 96,-10 120,-44 19,-27 0,-10 34,-46 -19,4 -67,42 -87,54 -64,38 -174,56 -189,-34 -4,-22 8,-155 9,-202 1,-30 6,-27 18,-51 24,-51 -38,-58 -74,-57 -43,2 -84,8 -104,-37 -19,-43 19,-74 32,-104 -6,3 -98,75 -55,119 43,44 113,33 141,53 73,52 -27,254 42,324 -30,-11 -93,-61 -117,-84 -111,-110 -217,-261 -167,-425 62,-205 316,-270 496,-328 310,-99 356,-105 679,-143 121,-14 240,-35 361,-52 94,-13 185,-20 279,-29 28,-3 69,-3 94,-10 -282,11 -556,66 -836,98 -306,34 -463,81 -751,181 -100,35 -227,86 -299,167 -86,98 -105,233 -46,350 117,231 296,334 541,394 128,32 264,53 395,71 183,25 434,41 596,-68 12,-8 23,-14 33,-24 9,-9 20,-23 32,-28 20,-8 51,25 69,36 227,136 284,134 531,167 69,10 139,19 208,26 343,37 493,31 807,-91 57,-22 112,-45 170,-64 60,-20 123,-33 181,-54z"/>
    <path class="fil15" d="M5905 6035l30 -1c-15,4 -37,3 -55,7 -57,13 -93,41 -37,95 27,25 32,39 67,57 34,17 79,4 113,9l51 -10c2,-2 1,-2 5,-4l13 -4c83,-27 51,-20 102,-72 15,-16 42,-38 20,-61 -10,-11 -53,-26 -70,-28l8 0c-14,-14 -101,-4 -125,-1 -13,1 -122,13 -122,13z"/>
    <path class="fil16" d="M6437 6736l-1 0c-2,3 96,26 121,32 117,31 300,51 414,24 81,-19 150,-66 233,-73 47,-4 103,0 151,-1 212,-6 410,-38 545,-221 42,-56 105,-108 136,-170 22,-45 22,-81 -26,-102 -28,-11 -103,-27 -130,-22 16,16 207,-8 119,124 -36,54 -99,104 -143,154 -156,180 -302,203 -528,210 -48,2 -97,-1 -145,4 -90,10 -141,51 -221,75 -80,24 -188,18 -271,10 -99,-9 -173,-33 -254,-44z"/>
    <path class="fil15" d="M6816 6318c43,-26 64,-45 113,-66 154,-64 331,-40 481,-49 100,-5 186,-27 270,-82 64,-42 146,-118 156,-197 11,-89 -92,-157 -162,-189 -102,-48 -437,-132 -555,-151 -111,-17 -217,-15 -327,-26 21,9 127,15 157,18 227,22 361,56 579,116 45,13 89,24 132,43 76,32 171,93 153,190 -16,80 -89,151 -155,193 -195,124 -389,47 -605,87 -85,16 -179,44 -237,113z"/>
    <path class="fil16" d="M6074 6192l-51 10c-46,-5 -100,31 -178,-55 -16,-18 -53,-53 -33,-81 13,-18 70,-32 93,-31 0,0 109,-12 122,-13 24,-3 111,-13 125,1 20,-1 60,15 72,30 20,24 -13,47 -25,61 -15,19 -28,41 -50,52 -21,12 -51,22 -75,26zm-8 -186c-72,7 -252,0 -294,69 -24,40 41,81 69,99 45,30 78,43 134,46 50,3 179,-11 220,-48 8,-7 15,-14 21,-23 8,-10 16,-14 25,-23 17,-16 38,-30 29,-58 -7,-21 -27,-35 -46,-44 -50,-25 -104,-22 -158,-18z"/>
    <path class="fil16" d="M7686 6212c51,0 104,5 154,15 61,13 82,31 60,96 -23,66 -68,81 -115,139 -74,89 -149,136 -264,158 -100,20 -220,16 -322,15 -55,-1 -110,-6 -163,2 -51,8 -86,21 -134,36 -149,49 -451,6 -610,-21 -46,-8 -96,-17 -142,-28l-132 -34c-1,-1 25,9 30,10 30,10 71,22 101,29 202,47 576,108 768,51 45,-13 89,-31 137,-36 51,-5 114,0 167,2 177,4 419,-2 548,-143 25,-26 55,-69 81,-91 27,-22 66,-64 75,-99 15,-62 -34,-75 -82,-87 -50,-12 -105,-16 -157,-14z"/>
    <path class="fil16" d="M6612 5760c-8,2 -65,-17 -79,-20 -50,-11 -131,-25 -175,5 -90,61 30,53 -199,57 -158,3 -119,-6 -260,42 -62,22 -61,13 -116,-13 -89,-44 -162,16 -246,26 -46,5 -86,-14 -130,-20 -28,-5 -117,-1 -139,5 45,6 89,-9 140,1 42,8 86,23 129,21 45,-1 75,-23 115,-36 52,-17 73,3 120,19 109,36 147,-16 242,-35 45,-8 167,-8 222,-8 23,0 48,-3 71,-2 -8,55 -25,56 44,107 13,10 28,13 29,31 -22,15 -84,1 -112,-3 -31,-5 -209,-30 -229,-31 -24,-1 -97,1 -114,16 1,11 6,12 16,17 9,4 15,7 24,9 -9,-9 -26,-11 -30,-26 36,-17 203,3 250,9 41,6 80,11 121,17 20,2 42,4 62,4 59,0 71,-25 10,-43 -21,-6 -25,-5 -43,-18 -30,-21 -27,-60 -12,-90 25,-7 45,-6 71,-17 -24,4 -42,11 -69,12 15,-69 158,-64 212,-50 15,4 58,17 70,24 5,17 0,24 24,23 13,-1 25,-3 32,-14 -8,-10 -21,-10 -31,-16 -3,-2 -33,-54 -35,-60 -5,-12 3,-25 13,-27 11,-3 30,-1 39,5 15,14 7,14 32,16 26,3 66,4 91,0 -7,-5 -6,-4 -18,-4 -53,-3 -91,-19 -120,-21 -92,-7 -19,70 -22,88z"/>
    <path class="fil16" d="M6066 6006c54,-4 108,-7 158,18 19,9 39,23 46,44 9,28 -12,42 -29,58 -9,9 -17,13 -25,23 -6,9 -13,16 -21,23 -41,37 -170,51 -220,48 -56,-3 -89,-16 -134,-46 -28,-18 -93,-59 -69,-99 42,-69 222,-62 294,-69zm-310 71c6,2 1,-5 6,4 -7,9 -7,24 -2,34 5,12 13,14 17,25l10 9c3,0 10,-3 11,1 2,5 -1,-5 -2,9 8,6 7,2 14,10 23,12 63,49 89,50 5,1 9,2 14,3l13 7c9,-2 56,4 74,3 24,-1 49,-4 73,-7 25,-4 108,-23 123,-41 -2,-4 -4,2 0,-4 4,-5 1,-1 4,-3 31,-19 35,-45 47,-40 9,-16 89,-64 -4,-117 -52,-30 -112,-25 -171,-21 -71,5 -194,5 -260,37 -47,23 -43,37 -56,41z"/>
    <path class="fil16" d="M5236 6004l3 -2c-12,-8 -73,-15 -110,-47 31,-8 54,-9 85,-23 17,-7 57,-28 65,-42 -13,2 -52,37 -172,48 -7,-8 -34,-33 -36,-40l0 -2c-7,-4 -4,-4 -11,-7 1,12 8,18 15,28l19 22c-85,6 -175,12 -260,24 -70,10 -140,45 -181,105 60,-39 114,-87 190,-99 89,-13 183,-6 274,-13 28,22 83,44 119,48z"/>
    <path class="fil16" d="M5777 6140c-4,-11 -12,-13 -17,-25 -5,-10 -5,-25 2,-34 -5,-9 0,-2 -6,-4 -40,11 -94,20 -128,-7 -59,-46 -240,-55 -320,-60 -18,-1 -54,-9 -69,-8l-3 2c77,28 266,11 359,62 19,11 33,22 54,30 38,16 88,36 128,44z"/>
    <path class="fil16" d="M6196 6184c18,-8 61,-10 79,-2 22,9 0,22 44,48 142,81 304,9 329,178 1,6 2,13 3,19 1,9 0,14 4,20 22,-122 -78,-160 -175,-182 -47,-10 -99,-14 -141,-38 -31,-17 -25,-23 -41,-48 -10,-14 -35,-35 -51,-42 -12,-5 -16,21 -47,40 -3,2 0,-2 -4,3 -4,6 -2,0 0,4z"/>
    <path class="fil16" d="M5926 6229l-13 -7c-5,-1 -9,-2 -14,-3 -51,14 -79,-3 -158,39 -96,52 -104,128 -335,163 -23,4 -71,6 -87,10 46,3 131,-10 177,-22 51,-13 98,-35 141,-64 45,-30 70,-55 123,-78 53,-23 110,-25 166,-38z"/>
    <path class="fil17" d="M7587 6211c89,-17 172,-57 246,-79 48,-13 83,-23 134,-27 39,-4 109,0 144,18 -40,-63 -216,-20 -277,-3 -60,18 -124,46 -184,67 -10,3 -57,17 -63,24z"/>
    <path class="fil16" d="M5677 6201l-100 11c-57,6 -154,-2 -212,-13 -27,-5 -70,-16 -95,-17 9,1 31,10 43,13 73,20 189,30 264,24 48,-4 33,-2 77,-11 4,-1 8,-1 12,-2l11 -5z"/>
    <path class="fil14" d="M6023 6202c-34,-5 -79,8 -113,-9 -35,-18 -40,-32 -67,-57 -56,-54 -20,-82 37,-95 18,-4 40,-3 55,-7l-30 1c-23,-1 -80,13 -93,31 -20,28 17,63 33,81 78,86 132,50 178,55z"/>
    <path class="fil14" d="M6074 6192c24,-4 54,-14 75,-26 22,-11 35,-33 50,-52 12,-14 45,-37 25,-61 -12,-15 -52,-31 -72,-30l-8 0c17,2 60,17 70,28 22,23 -5,45 -20,61 -51,52 -19,45 -102,72l-13 4c-4,2 -3,2 -5,4z"/>
    <path class="fil16" d="M5787 6149l6 7c-20,12 -60,27 -84,35 -12,4 -26,4 -32,10 22,3 105,-26 133,-32 -7,-8 -6,-4 -14,-10 1,-14 4,-4 2,-9 -1,-4 -8,-1 -11,-1z"/>
    <path class="fil16" d="M5071 5896l0 2c42,-30 93,-36 119,-47 -18,-1 -54,5 -72,10 -24,6 -41,10 -47,35z"/>
    <path class="fil18" d="M6807 6332c-7,4 -11,13 -14,21 15,-8 38,-28 55,-40 13,-8 56,-29 62,-37 -20,7 -37,16 -55,27 -6,3 -48,29 -48,29z"/>
    <path class="fil19" d="M4621 6100c10,-5 13,-7 16,-16 0,0 -1,0 -1,1 -1,2 -9,4 -15,15z"/>
   </g>
   <g>
    <path class="fil20" d="M21931 5291c68,0 129,20 173,64 44,44 71,105 71,173 0,67 -27,128 -71,172 -44,44 -105,64 -173,64 -67,0 -128,-20 -172,-64 -44,-44 -72,-105 -72,-172 0,-68 28,-129 72,-173 44,-44 105,-64 172,-64zm0 0c131,0 229,109 229,240 0,130 -98,233 -229,233 -130,0 -227,-107 -227,-237 0,-131 97,-236 227,-236z"/>
    <circle class="fil14" cx="21931" cy="5527" r="239"/>
    <path class="fil20" d="M21916 5334c-98,-4 -159,56 -186,175 37,-74 100,-132 186,-175z"/>
   </g>
   <g>
    <path class="fil20" d="M22245 5486c56,0 107,16 144,53 37,36 59,87 59,143 0,57 -22,107 -59,144 -37,37 -88,53 -144,53 -56,0 -107,-16 -144,-53 -37,-37 -59,-87 -59,-144 0,-56 22,-107 59,-143 37,-37 88,-53 144,-53zm0 0c109,0 191,90 191,199 0,109 -82,194 -191,194 -109,0 -189,-88 -189,-197 0,-109 80,-196 189,-196z"/>
    <circle class="fil14" cx="22245" cy="5682" r="199"/>
    <path class="fil20" d="M22232 5522c-81,-4 -132,46 -155,145 31,-62 84,-110 155,-145z"/>
   </g>
   <g>
    <path class="fil20" d="M21629 5432c56,0 107,16 143,53 37,37 60,88 60,144 0,56 -23,107 -60,144 -36,36 -87,53 -143,53 -57,0 -107,-17 -144,-53 -37,-37 -60,-88 -60,-144 0,-56 23,-107 60,-144 37,-37 87,-53 144,-53zm0 0c108,0 190,91 190,200 0,108 -82,194 -190,194 -109,0 -190,-89 -190,-198 0,-108 81,-196 190,-196z"/>
    <circle class="fil14" cx="21629" cy="5629" r="199"/>
    <path class="fil20" d="M21616 5468c-82,-4 -132,46 -155,145 31,-62 83,-109 155,-145z"/>
   </g>
   <g>
    <path class="fil20" d="M22395 5665c79,0 150,23 202,75 51,51 83,122 83,201 0,79 -32,150 -83,201 -52,52 -123,75 -202,75 -78,0 -150,-23 -201,-75 -52,-51 -84,-122 -84,-201 0,-79 32,-150 84,-201 51,-52 123,-75 201,-75zm0 0c152,0 267,128 267,280 0,152 -115,272 -267,272 -152,0 -265,-125 -265,-277 0,-152 113,-275 265,-275z"/>
    <circle class="fil14" cx="22395" cy="5941" r="278"/>
    <path class="fil20" d="M22377 5716c-114,-5 -185,65 -217,203 43,-86 117,-153 217,-203z"/>
   </g>
   <g>
    <path class="fil20" d="M21460 5630c78,0 150,22 201,74 52,51 84,123 84,201 0,79 -32,150 -84,202 -51,51 -123,74 -201,74 -79,0 -150,-23 -202,-74 -51,-52 -83,-123 -83,-202 0,-78 32,-150 83,-201 52,-52 123,-74 202,-74zm0 0c152,0 267,127 267,279 0,152 -115,272 -267,272 -152,0 -265,-124 -265,-276 0,-153 113,-275 265,-275z"/>
    <circle class="fil14" cx="21460" cy="5905" r="278"/>
    <path class="fil20" d="M21442 5680c-114,-5 -185,65 -217,204 43,-87 117,-154 217,-204z"/>
   </g>
   <g>
    <polygon class="fil21" points="21354,2955 23602,3351 23364,4700 21116,4304 "/>
    <polygon class="fil22" points="21976,5713 22191,4493 22290,4511 22075,5730 "/>
    <polygon class="fil23" points="21727,3526 21797,3538 21753,3786 21948,3565 22023,3578 21957,3951 21887,3938 21930,3695 21736,3912 21661,3898 "/>
    <path id="1" class="fil23" d="M22101 3592l76 13 -28 159c17,1 29,-1 36,-7 7,-6 20,-24 38,-54 23,-37 43,-59 60,-66 17,-7 43,-8 78,-2 2,0 6,1 11,2l-10 55 -10 -2c-16,-2 -27,-2 -35,0 -8,3 -15,7 -20,14 -6,7 -16,22 -28,45 -7,12 -14,22 -21,30 -7,7 -18,14 -33,19 16,8 28,20 37,36 8,17 17,39 25,68l33 111 -89 -16 -27 -104c-1,-2 -1,-4 -3,-9 -1,-1 -3,-8 -6,-19 -7,-20 -13,-33 -18,-38 -5,-6 -15,-10 -27,-13l-29 164 -75 -14 65 -372z"/>
    <path id="2" class="fil23" d="M22353 4020l65 -373 121 22c46,8 75,15 89,21 20,10 36,25 47,46 11,21 14,47 9,77 -4,22 -12,41 -23,55 -11,14 -24,25 -38,31 -15,7 -29,10 -42,11 -19,0 -45,-2 -79,-8l-49 -9 -25 141 -75 -14zm129 -296l-18 106 41 7c30,5 50,7 61,5 10,-3 19,-7 26,-15 7,-7 12,-16 14,-27 2,-14 0,-26 -6,-36 -7,-10 -16,-17 -28,-22 -8,-3 -26,-7 -53,-12l-37 -6z"/>
    <path id="3" class="fil23" d="M22991 4133l-82 -15 -18 -90 -149 -26 -46 79 -79 -14 210 -347 80 14 84 399zm-113 -172l-27 -147 -75 129 102 18z"/>
   </g>
   <g>
    <path class="fil20" d="M21931 5564c90,0 172,26 230,85 59,59 96,140 96,230 0,90 -37,171 -96,230 -58,59 -140,85 -230,85 -90,0 -171,-26 -230,-85 -59,-59 -95,-140 -95,-230 0,-90 36,-171 95,-230 59,-59 140,-85 230,-85zm0 0c174,0 306,145 306,319 0,174 -132,311 -306,311 -174,0 -302,-142 -302,-316 0,-174 128,-314 302,-314z"/>
    <circle class="fil14" cx="21931" cy="5879" r="318"/>
    <path class="fil20" d="M21911 5621c-130,-5 -212,75 -248,233 49,-99 134,-175 248,-233z"/>
   </g>
   <g>
    <path class="fil20" d="M22727 5958c89,0 171,26 230,85 59,59 95,140 95,230 0,90 -36,171 -95,230 -59,59 -141,85 -230,85 -90,0 -172,-26 -231,-85 -58,-59 -95,-140 -95,-230 0,-90 37,-171 95,-230 59,-59 141,-85 231,-85zm0 0c173,0 305,145 305,319 0,174 -132,311 -305,311 -174,0 -303,-142 -303,-316 0,-174 129,-314 303,-314z"/>
    <circle class="fil14" cx="22727" cy="6273" r="318"/>
    <path class="fil20" d="M22706 6015c-130,-5 -211,75 -248,233 49,-99 134,-175 248,-233z"/>
   </g>
   <g>
    <path class="fil20" d="M22329 5945c101,0 193,29 259,95 66,67 107,158 107,259 0,101 -41,193 -107,259 -66,66 -158,96 -259,96 -101,0 -193,-30 -259,-96 -66,-66 -107,-158 -107,-259 0,-101 41,-192 107,-259 66,-66 158,-95 259,-95zm0 0c196,0 343,164 343,359 0,196 -147,350 -343,350 -196,0 -341,-160 -341,-356 0,-195 145,-353 341,-353z"/>
    <circle class="fil14" cx="22329" cy="6299" r="358"/>
    <path class="fil20" d="M22306 6010c-147,-7 -238,83 -279,261 55,-111 150,-197 279,-261z"/>
   </g>
   <g>
    <path class="fil20" d="M21118 5951c90,0 171,26 230,85 59,59 95,140 95,230 0,90 -36,171 -95,230 -59,59 -140,85 -230,85 -90,0 -171,-26 -230,-85 -59,-59 -96,-140 -96,-230 0,-90 37,-171 96,-230 59,-59 140,-85 230,-85zm0 0c174,0 305,145 305,319 0,174 -131,311 -305,311 -174,0 -303,-142 -303,-316 0,-174 129,-314 303,-314z"/>
    <circle class="fil14" cx="21118" cy="6266" r="318"/>
    <path class="fil20" d="M21097 6008c-130,-5 -211,75 -248,233 50,-99 134,-175 248,-233z"/>
   </g>
   <g>
    <path class="fil20" d="M21525 5938c101,0 192,29 258,95 67,67 108,158 108,259 0,101 -41,193 -108,259 -66,66 -157,96 -258,96 -102,0 -193,-30 -259,-96 -67,-66 -108,-158 -108,-259 0,-101 41,-192 108,-259 66,-66 157,-95 259,-95zm0 0c195,0 343,163 343,359 0,196 -148,350 -343,350 -196,0 -341,-160 -341,-356 0,-195 145,-353 341,-353z"/>
    <circle class="fil14" cx="21525" cy="6292" r="358"/>
    <path class="fil20" d="M21501 6003c-146,-7 -237,83 -278,261 55,-111 150,-197 278,-261z"/>
   </g>
   <g>
    <path class="fil20" d="M21931 5905c113,0 214,33 288,106 74,74 119,176 119,288 0,112 -45,214 -119,288 -74,73 -175,106 -288,106 -112,0 -214,-33 -287,-106 -74,-74 -119,-176 -119,-288 0,-112 45,-214 119,-288 73,-73 175,-106 287,-106zm0 0c218,0 382,182 382,399 0,218 -164,389 -382,389 -217,0 -378,-178 -378,-395 0,-218 161,-393 378,-393z"/>
    <circle class="fil14" cx="21931" cy="6299" r="398"/>
    <path class="fil20" d="M21906 5977c-163,-7 -265,93 -310,291 61,-124 167,-219 310,-291z"/>
   </g>
   <g>
    <g>
     <path class="fil17" d="M18975 6196c-138,126 -390,187 -649,175 -367,-17 -755,-161 -904,-302 101,-33 221,-91 326,-110 330,-57 661,-5 985,149 47,-101 90,-207 160,-282 12,-49 -158,-165 -385,-230 -1444,-414 -2620,-295 -2738,439 -105,201 383,745 1106,766 250,7 871,20 1190,50 576,55 876,-159 1003,-351 58,-88 44,-135 72,-215l-166 -89z"/>
     <path class="fil24" d="M19141 6285c-11,1 -9,-13 -19,44 -3,21 -6,40 -11,58 -8,27 -27,82 -43,113 -179,352 -1293,317 -1611,306l-292 -21c-209,-22 -416,-35 -622,-90 -217,-58 -510,-141 -644,-364l-146 -237c-15,38 -23,85 -28,127 -22,169 45,257 174,386 184,185 462,306 711,350 45,8 75,16 122,20 202,19 721,38 871,26 380,-30 293,-7 766,-113 151,-34 387,-68 523,-151 183,-111 286,-299 249,-454zm-1915 240c-6,-3 -11,-5 -16,-7 5,2 10,4 16,7zm-24 -11l-2 -1 -1 0 0 0 0 0 0 0 0 -1 -1 0 1 0 0 0 0 1 0 0 0 0 0 0 1 0 0 0 0 0 2 1zm-120 -331c2,0 5,0 8,0l-8 0z"/>
     <g>
      <path class="fil14" d="M17559 5462c-2,-1 -4,-1 -7,0l7 0zm105 200l-1 0 0 0 0 0 0 0 0 0 1 0zm-2 0l0 -1 0 0 0 0 -1 0 0 0 1 0 0 0 0 0 0 1zm-1 -1l0 0 0 0 0 0zm-1 0l0 0 0 0 0 0zm0 0l0 0 0 0 0 0zm-704 360l-2 0 2 0zm239 -316l1 -1 -1 1zm1 -1l1 0 -1 0zm1 -1l0 0 1 -1 -1 1zm1 -1l0 0 0 0zm1 -1l0 0 1 -1 0 0 0 0 0 -1 0 0 1 0 0 -1 1 0 -3 3zm12 -14l-1 1 0 0 0 0 0 0 1 -1zm-2 2l0 1 0 0 0 -1zm-1 1l-1 1 0 0 0 1 0 0 1 -2zm-2 3l0 0 0 0 0 0zm1629 71l0 -1 0 1zm-954 187l0 0 0 0 0 0zm0 0l0 0 0 0 0 0zm0 0l-1 0 0 0 0 0 0 0 0 0 1 0zm-1 0l0 0 0 0 0 0zm0 0l0 0 0 0 0 0 0 0 0 0 0 0 0 0 0 0 0 0zm-435 95l0 0 0 0 0 0zm-175 -106l0 0 1 2c0,0 -1,-1 -1,-2l0 0zm1565 -177l0 1 0 -1zm0 1l-1 -1 1 1zm3 71l0 0 0 0 0 0zm0 1l0 0 0 0 0 0 0 0zm0 1l0 0 0 0 0 0 0 0 0 0zm-1 2l0 0 0 0 0 0zm1 -2l0 0 0 0 0 0zm1 -2l0 -1 0 0 0 1zm0 -1l0 0 0 0 0 0zm0 0l0 0 0 0 0 0zm0 -1l0 0 0 0 0 0zm-1568 109l0 0 0 0 0 1 0 -1 0 0 0 0zm175 103l0 0 0 0 0 1 -1 0 0 0 0 0 0 0 0 0 0 0 0 0 0 0 0 1 0 0 0 0 0 0 0 0 0 0 0 0 0 0 0 0 -1 1 1 -1 0 0 0 0 0 0 0 0 0 0 0 0 0 0 0 0 0 -1 0 0 0 0 1 -1zm0 0l0 0 0 0zm0 0l0 0 0 0zm0 1l0 -1 0 1zm-1 0l1 0 -1 0zm-365 -38l0 0 0 0zm0 0l0 0 0 0zm0 2l0 0 0 0zm0 1l0 0 0 0zm3 -12l0 0 0 0zm0 -1l0 1 0 -1zm-1 3l0 0 0 0zm-1 6l0 -1 0 0 0 1 0 0zm779 -270l0 0 0 0zm-194 -74l0 0 0 0zm0 0l-1 0 1 0zm-1 0l0 0 0 0zm0 0l0 0 0 0zm0 0l0 0 0 0zm0 0l0 0 0 0zm0 0l-1 -1 1 1zm-1 -1l0 0 0 0 0 0zm-452 24l0 0 0 0 0 0zm0 0l1 -1 -1 1zm371 265l108 -120 0 0 -108 120zm1304 -136c-10,-18 -24,-35 -41,-51l0 0 -1 0 0 -1 0 0 0 0c-260,-241 -1298,-324 -1698,-359 -652,-43 -1023,92 -1241,402 -50,71 -118,199 -153,288 76,-668 1009,-952 2597,-598 805,237 531,357 537,319zm-365 -68l0 1 0 0 0 -1zm-474 -190l-4 -8c-5,-9 -12,-22 -12,-23l0 0 16 31zm-169 394l0 0 0 -1 0 1zm0 0l0 0 0 0 0 0 0 0 0 0 0 0zm640 -196l-1 1 0 0 1 -1zm-3 4l-1 2 0 0 1 -2zm-5 8l-1 2 0 0 1 -2zm-7 10l-1 1 0 0 1 -1zm-6 6l-1 2 0 0 -2 1 -1 2 0 0 -2 2 -2 1 0 0 -2 2 -1 2 0 0 1 -2 0 0 2 -2 2 -1 0 0 2 -2 1 -2 0 0 2 -1 1 -2zm-15 15l-2 2 0 0 -2 2 -2 2 0 0 -2 1 0 0 2 -1 2 -2 0 0 2 -2 2 -2zm-339 151l0 0 0 -2 1 -1 0 0 0 -2 0 2 -1 1 0 0 0 2zm2 -6l0 0 0 -2 0 2zm1 -4l0 0 0 -1 0 1zm3 -6l0 0 1 -2 -1 2zm1 -3l0 0 1 -2 1 -2 0 0 1 -1 1 -2 -1 2 0 0 -1 1 -1 2 0 0 -1 2zm8 -12l0 0 1 -1 -1 1zm-278 33l0 0 0 0 0 0zm-610 -13c0,0 -1,1 -1,1l0 0 0 0 0 0 0 0 0 0 1 0 0 0 0 -1 0 0 0 0zm-1 2l0 0 0 0zm1 2l0 0 0 0zm0 0l0 0 0 0 0 0 0 0zm1241 -270l0 0 0 0 0 0 0 0 0 0 0 0zm1 2l0 0 0 0 0 0 0 0zm0 0l0 0 0 0 0 0 0 0zm1 1l0 0 0 0 0 0 0 0 0 0 0 0zm0 1l0 0 0 0 0 0 0 0 0 0 0 0 0 0 0 0zm0 1l0 0 0 0 0 0zm325 156l0 0 0 0 0 0zm0 0l0 0 0 0 0 0zm-1 2l0 0 0 0 0 0 1 0 0 0 -1 0 0 0zm0 0l0 0 0 0 0 0zm0 0l0 1 0 0 0 -1zm0 1l0 0 0 0 0 0zm0 0l0 0 0 0 0 0zm0 0l0 0 0 0 0 0zm0 1l-1 1 0 0 1 -1zm-1 1l0 0 0 0 0 0zm0 0l0 0 0 0 0 0zm0 0l0 0 0 0zm0 0l0 0 0 0 0 0zm0 0l0 1 0 0 0 -1zm0 1l0 0 0 0 0 0zm0 1l0 0 0 0 0 0zm0 0l0 0 0 0 0 0zm-693 111l0 0 0 0zm-112 -425l0 0 0 0zm-950 476l0 -1 0 0 0 0 0 0 0 0 0 1zm0 -2l0 0 0 0 0 0 0 0 0 0 0 0 0 0zm1 -1l0 0 0 0 0 0 0 0zm0 -3l0 0 0 0 0 0zm1 -3l0 0 0 0 0 0 0 0 0 -1 0 0 0 0 0 0 0 0 0 1 0 0 0 0zm1 -4l0 -1 0 0 0 0 0 0 0 0 0 -1 0 0 0 0 0 0 0 0 0 1 0 0 0 0 0 1 0 0zm0 -3l0 0 0 -1 1 0 -1 0 0 0 0 1 0 0 0 0 0 0zm1 -4l0 0 0 0 0 0z"/>
     </g>
     <path class="fil24" d="M15753 6094c76,-668 1009,-952 2597,-598 805,237 531,357 537,319 -158,-282 -1313,-374 -1740,-411 -652,-43 -1023,92 -1241,402 -50,71 -118,199 -153,288zm3388 191c37,155 -66,343 -249,454 -136,83 -372,117 -523,151 -473,106 -386,83 -766,113 -150,12 -669,-7 -871,-26 -47,-4 -77,-12 -122,-20 -249,-44 -527,-165 -711,-350 -129,-129 -196,-217 -174,-386 5,-42 13,-89 28,-127l146 237c134,223 427,306 644,364 206,55 413,68 622,90l292 21c318,11 1432,46 1611,-306 16,-31 35,-86 43,-113 5,-18 8,-37 11,-58 10,-57 8,-43 19,-44z"/>
     <path class="fil14" d="M18835 5763c-1,0 -1,0 -1,0 0,0 0,0 1,0zm31 12l27 51c-17,28 -3,3 -12,27l-24 50c-97,137 -39,142 -124,205l-55 -24c-30,-37 2,-16 61,-83 22,-25 40,-55 55,-82 13,-22 82,-125 41,-156 37,28 12,9 31,12zm-658 578c26,22 245,25 279,8 25,11 25,9 14,35 -1,2 -26,42 -28,45 -60,95 -163,181 -261,237 -228,128 -347,106 -569,107 -64,1 -116,-3 -188,-6 -153,-6 -246,6 -362,-104 -193,-214 -239,-397 -260,-582l73 -3c38,211 142,340 282,417 4,2 8,4 12,6 109,55 359,77 475,73 57,-1 192,-21 254,-51 213,-105 193,-139 279,-182zm493 -665c44,80 40,141 -35,198 -64,46 -177,83 -244,106 -23,-13 -67,-19 -86,-14 -1,-15 -15,-14 37,-45 62,-38 73,-51 128,-99 16,-50 36,-58 35,-119 -1,-21 -11,-106 -28,-119 34,1 166,43 193,92zm-707 627c41,10 111,28 152,32 -7,72 -264,152 -325,168 -172,44 -321,58 -483,27 -106,-7 -391,-269 -355,-325 155,-33 164,104 274,122 79,45 185,70 276,63 107,-8 197,-69 306,-134 30,17 46,15 75,24 26,7 49,15 80,23zm-202 -837c13,8 110,1 148,15 69,26 126,163 31,311 -23,35 -84,117 -121,152 -24,-14 -78,-1 -102,3 4,-26 -1,-14 50,-64 47,-48 98,-118 119,-177 41,-117 -50,-175 -125,-240zm-373 15c189,-104 545,68 441,244 -3,22 -11,30 -25,53 -14,22 -24,38 -41,61 -28,37 -62,84 -102,117 -32,2 -125,27 -153,47 2,-19 -15,-6 44,-64l108 -120c16,-23 23,-50 36,-60 -11,-90 -27,-111 -155,-129 -61,-8 -144,7 -210,33 -74,29 -153,84 -208,145 -61,69 -63,153 -75,193 -29,9 -95,9 -125,8l20 -41c9,-13 11,-18 23,-32l51 -63c82,-105 268,-336 371,-392zm233 177c59,30 50,71 24,117 -41,74 -139,154 -150,228l-28 18c0,0 -13,1 -18,1l-17 -3c41,-97 92,-267 -89,-224 -125,30 -127,106 -137,121 -20,29 -46,17 -77,61 -20,29 -11,38 -66,29 1,-33 10,-38 24,-66 10,-19 22,-44 33,-61 74,-105 263,-210 377,-230 51,-9 82,-12 124,9zm-381 272c0,1 0,2 0,2 0,-1 0,-1 0,-2zm185 -77c5,30 -8,74 -11,105 -4,48 25,65 -23,99 -48,-66 -25,-55 -40,-115 -25,-4 -32,-10 -61,-14 -46,-8 -51,-4 -51,0 -5,-17 -18,9 11,-33l82 -79c42,-30 97,-21 93,37zm-250 219c28,24 2,82 96,98 136,23 98,67 259,-15 27,8 67,30 98,42 31,11 63,25 94,34 25,33 4,30 -76,66 -90,41 -203,80 -299,61 -88,-18 -113,-35 -183,-115 -47,-55 -119,-140 -107,-200 12,-2 38,-5 59,0 7,2 53,24 59,29zm-392 12c-25,223 129,486 277,648 0,0 -202,-34 -203,-34 -212,-47 -327,-476 -228,-618 10,-2 125,2 154,4zm372 -621c65,-43 134,-6 196,-24l-1 -2 7 2 46 15c-200,156 -273,180 -419,414 -102,164 -60,146 -154,138 -25,-2 -35,1 -57,-7 67,-165 227,-433 382,-536zm-275 249c-37,61 -81,154 -98,218 -8,30 -3,38 -19,71 -37,10 -118,2 -154,0 11,-30 9,-52 14,-92 37,-260 200,-325 322,-432 53,-46 92,-40 195,-32 -114,97 -168,115 -260,267zm-432 355c10,-2 110,-9 122,-6 10,37 -7,101 -15,159 -6,44 -1,118 10,161 42,154 125,228 210,321 -61,7 -277,-47 -357,-68 -122,-33 -67,-257 -47,-338 18,-70 36,-153 77,-229zm-57 7c5,36 -46,200 -58,253 -9,42 -15,89 -21,127 -9,50 -2,108 -8,134 -41,5 -172,-61 -192,-89 17,-41 94,-229 94,-272 -109,150 -96,209 -128,263l-87 -66c5,-30 67,-151 91,-207 59,-142 56,-114 163,-138l10 44c47,-42 75,-65 136,-49zm2334 219l105 -52c12,51 -10,107 -26,169 -20,73 -31,92 -90,160 -130,149 -103,139 -274,162 -7,1 -17,2 -25,1l-29 -3c139,-90 136,-100 209,-218 31,-50 89,-100 101,-163 6,-27 1,-39 29,-56zm150 -69l69 -40c42,29 30,103 30,147 0,58 -7,98 -39,150 -14,21 -72,126 -90,143 -22,19 -136,57 -161,59 6,-22 49,-80 62,-109 20,-43 36,-77 61,-117 122,-192 15,-182 68,-233zm-1936 -768c-341,184 -319,275 -378,541 -147,50 -76,-146 -64,-205 29,-145 56,-180 141,-289 57,-74 39,-49 188,-56 22,-1 82,-3 102,-10 22,15 8,6 11,19zm-491 265c-33,118 -18,195 -28,270 -26,11 -79,7 -102,3 -9,-27 -7,-101 -6,-131 1,-46 4,-84 9,-129 5,-39 53,-221 81,-255 15,3 99,-13 108,-21 25,8 4,4 30,6 1,0 16,0 18,0 30,0 11,-4 40,4 -60,91 -122,155 -150,253zm-378 413c-37,87 -74,182 -111,257 -30,-24 -52,-54 -68,-89 57,-98 66,-111 179,-168zm3003 186l-6 41c-17,56 -67,187 -129,199 25,-55 25,-108 47,-162 43,-109 28,-72 22,-172 23,21 60,68 66,94zm-1059 -838l117 16c30,46 62,95 89,133 39,54 29,78 -8,125 -27,27 -66,62 -93,92 -31,35 -37,64 -76,91 -31,-4 -173,-7 -195,0 2,-19 -9,-7 41,-56 63,-62 119,-149 135,-164 -3,-34 29,-101 -7,-174l-16 -31c-4,-28 -12,-10 13,-32zm-614 582l68 55 12 17c-162,58 -186,41 -254,-42 47,-14 36,-1 84,-3 34,-1 57,-14 90,-27zm-510 9c48,1 93,-8 146,-7 22,39 18,74 23,105l-8 0 -59 -8c-32,-7 -90,10 -102,-90zm1523 -508c26,18 69,90 77,118 13,47 -2,72 -46,110l-209 154c-33,-4 -82,-12 -122,-8 4,-34 53,-72 79,-101 37,-40 42,-62 68,-97 -9,-45 -1,-45 -22,-107 -10,-33 -28,-80 -47,-113 44,-8 210,35 222,44zm354 152l-3 85c1,4 0,39 0,41l-12 28 -2 6c-31,74 -93,96 -166,156 -28,-17 -63,-26 -94,-41 11,-26 222,-23 230,-255 1,-25 -4,-32 7,-51l40 31zm-2570 -135c45,-90 39,-39 113,-83l32 1c-44,83 -63,263 -78,369 -6,39 -6,80 -13,120 -27,4 -61,-5 -81,3 -35,-43 -37,-101 -40,-147 -8,-129 24,-175 67,-263zm-88 95c-37,204 -36,57 -25,298 -56,18 -86,-12 -132,-70l9 48c-47,-17 -68,-33 -102,-85 15,-38 33,-78 59,-115 7,45 -2,92 34,149l-3 -50c-5,-34 -3,-18 3,-47 18,-88 16,-175 172,-228 11,36 -7,59 -15,100zm2399 674l152 -44c7,37 -1,25 -23,75 -46,103 -13,116 -166,231 -215,163 -131,127 -265,143 -32,4 -52,7 -85,5 17,-36 120,-53 244,-183 83,-87 96,-129 143,-227z"/>
    </g>
    <polygon class="fil21" points="15446,3561 17720,3362 17840,4727 15566,4926 "/>
    <polygon class="fil22" points="16760,6064 16653,4830 16753,4822 16861,6064 "/>
    <path class="fil23" d="M15876 4401l-33 -377 122 -11c47,-4 77,-5 91,-2 22,4 42,14 58,32 16,18 26,42 28,72 2,23 0,43 -7,59 -7,17 -17,30 -29,40 -12,10 -25,17 -38,21 -18,6 -44,10 -79,13l-49 4 12 142 -76 7zm49 -320l9 107 42 -4c30,-2 50,-6 59,-11 10,-5 18,-12 23,-20 5,-9 7,-19 6,-31 -1,-13 -6,-24 -15,-32 -9,-9 -20,-13 -32,-14 -10,-1 -28,-1 -55,2l-37 3z"/>
    <path id="1" class="fil23" d="M16197 3993l76 -7 13 151 102 -9c27,-2 50,-1 70,5 20,6 37,17 52,35 14,18 23,39 25,63 2,25 -3,48 -15,68 -11,19 -25,33 -41,40 -16,8 -40,13 -71,16l-178 15 -33 -377zm103 307l75 -6c23,-2 40,-5 49,-8 9,-3 17,-9 23,-18 7,-9 10,-19 9,-31 -2,-17 -9,-29 -21,-36 -13,-8 -35,-10 -66,-7l-77 6 8 100zm255 -339l77 -6 33 377 -77 7 -33 -378z"/>
    <path id="2" class="fil23" d="M16712 3948l282 -25 6 63 -206 18 8 88 102 -9c28,-2 51,-1 70,4 20,5 36,17 51,34 15,17 23,39 26,64 2,25 -3,47 -14,67 -12,19 -26,33 -42,41 -17,8 -40,14 -72,16l-178 16 -33 -377zm104 307l74 -6c24,-2 40,-5 50,-8 9,-3 17,-9 23,-18 7,-9 9,-20 8,-32 -1,-17 -8,-29 -22,-36 -13,-7 -34,-9 -64,-7l-78 7 9 100z"/>
    <path id="3" class="fil23" d="M17443 4264l-83 7 -41 -83 -150 14 -24 88 -81 7 114 -390 81 -7 184 364zm-154 -137l-64 -135 -39 144 103 -9z"/>
   </g>
   <polygon class="fil21" points="5395,3664 7643,3267 7881,4616 5633,5012 "/>
   <polygon class="fil22" points="6922,6042 6707,4823 6806,4806 7025,6042 "/>
   <polygon class="fil23" points="5911,4460 5845,4088 5958,4068 6070,4310 6092,4044 6205,4024 6271,4397 6201,4409 6149,4116 6127,4422 6054,4435 5929,4155 5981,4448 "/>
   <path id="1" class="fil23" d="M6569 4344l-28 -155 -15 3c-23,4 -40,10 -48,19 -9,9 -22,33 -39,73l-40 90 -90 16 33 -81c13,-31 23,-54 32,-68 9,-13 20,-26 35,-38 -36,1 -63,-7 -82,-23 -19,-16 -30,-37 -35,-63 -4,-23 -2,-44 7,-63 8,-20 21,-35 39,-44 17,-9 45,-17 82,-24l158 -28 66 373 -75 13zm-55 -309l-58 10c-30,5 -50,9 -59,12 -9,4 -16,10 -22,19 -5,8 -7,19 -5,32 3,13 8,23 16,29 8,7 17,10 27,10 11,0 31,-2 62,-8l56 -10 -17 -94z"/>
   <path id="2" class="fil23" d="M6935 4139l77 10c-4,43 -17,76 -40,100 -22,25 -54,40 -94,47 -49,9 -93,-1 -131,-29 -38,-28 -62,-71 -72,-130 -11,-62 -3,-113 23,-153 26,-40 65,-65 117,-74 45,-8 85,-1 118,21 20,13 37,34 50,62l-71 31c-8,-19 -20,-32 -36,-41 -16,-9 -34,-11 -54,-8 -27,5 -48,19 -62,42 -13,23 -16,56 -8,101 8,47 22,79 43,96 20,17 44,23 71,18 20,-3 36,-13 48,-28 13,-15 19,-37 21,-65z"/>
   <path id="3" class="fil23" d="M7036 4072c-6,-38 -6,-71 0,-98 6,-21 14,-40 26,-58 12,-17 26,-31 42,-42 22,-14 48,-23 78,-29 55,-9 102,0 141,28 39,29 64,73 74,134 11,60 3,110 -24,150 -26,39 -67,64 -122,74 -55,9 -102,0 -141,-28 -39,-28 -63,-71 -74,-131zm77 -16c8,42 23,73 46,91 24,18 50,25 80,19 30,-5 53,-20 69,-45 15,-25 19,-59 11,-102 -7,-43 -22,-73 -45,-91 -22,-18 -49,-24 -80,-18 -31,5 -54,20 -69,45 -15,24 -19,58 -12,101z"/>
  </g>
 </g>
</svg>
