<?xml version="1.0" encoding="utf-8"?>
<!-- Generator: Adobe Illustrator 16.0.0, SVG Export Plug-In . SVG Version: 6.00 Build 0)  -->
<!DOCTYPE svg PUBLIC "-//W3C//DTD SVG 1.1//EN" "http://www.w3.org/Graphics/SVG/1.1/DTD/svg11.dtd">
<svg version="1.1" id="Layer_1" xmlns="http://www.w3.org/2000/svg" xmlns:xlink="http://www.w3.org/1999/xlink" x="0px" y="0px"
	 width="708.661px" height="935.433px" viewBox="0 0 708.661 935.433" enable-background="new 0 0 708.661 935.433"
	 xml:space="preserve">
<g id="Слой_x0020_1">
	<path fill="#E6E7E8" d="M418.814,346.837c-8.247-21.053,84.211-101.195,95.951-90.136c15.784,14.882-49.644,41.477-68.236,71.486
		C445.41,329.962,423.018,349.813,418.814,346.837L418.814,346.837z"/>
	<rect x="0" fill="none" width="548.079" height="762.921"/>
	<path fill="#73746C" d="M156.324,431.568c-0.082-31.84-15.127-46.367-37.081-9.34C138.493,412.125,144.01,413.408,156.324,431.568z
		"/>
	<path fill="#00AFEF" d="M420.917,115.831c-7.592,3.031-16.9-0.737-24.354,1.229c-2.212,0.546-3.66,7.181-5.844,7.782
		c-2.867,0.765-6.938-3.085-9.775-2.539c-2.021,0.382-3.796,4.806-5.788,5.188c-3.333,0.683-6.146-4.178-9.448-3.932
		c-11.224,0.819-22.689,4.669-34.132,2.348l34.622-61.001l13.326,9.284l10.267-7.045L420.917,115.831L420.917,115.831z"/>
	<path fill="#6899DE" d="M420.917,115.831c-7.592,3.031-16.9-0.737-24.354,1.229c-2.212,0.546-3.66,7.181-5.844,7.782
		c-2.867,0.765-6.938-3.085-9.775-2.539c-2.021,0.382-3.796,4.806-5.788,5.188c-3.333,0.683-6.146-4.178-9.448-3.932
		c-11.224,0.819-22.689,4.669-34.132,2.348l34.622-61.001l13.326,9.284l10.267-7.045L420.917,115.831L420.917,115.831z"/>
	<polygon fill="#EDEDEE" points="407.263,94.478 388.589,85.221 380.507,95.297 373.052,90.108 361.363,104.826 354.563,85.385 
		366.195,64.905 379.521,74.189 389.788,67.145 	"/>
	<path fill="#B6D2DE" d="M397.381,136.774c-0.026,3.986,3.193,5.843,6.197,6.362c1.747,0.246,1.176,5.844,2.978,6.035
		c2.376,0.273,5.568-4.505,8.107-4.56c2.295,0,6.938,8.792,9.284,8.792c5.707,0,10.404-6.472,15.646-8.11
		c2.564-0.792,5.188,1.884,7.81,2.13c4.287,0.41,12.97,1.911,12.645-0.437l-12.998-46.419c0,0-2.432-5.898-4.505-5.543
		c-2.05,0.355-4.672,4.124-6.854,4.861c-2.185,0.737-2.267-5.024-4.342-5.161c-1.967-0.109-3.113,4.451-5.543,5.461
		c-1.395,0.519-1.693-7.81-5.215-2.403L397.381,136.774z"/>
	<path fill="#EDEDEE" d="M413.954,108.922c-0.025,3.604-0.572-3.195,8.139-2.212c2.4,0.273,0.928,4.997,3.468,4.97
		c2.294-0.027,5.789-2.13,8.138-2.13c5.733,0,2.978,3.25,8.19,1.638c2.595-0.819,1.748,4.424,4.369,4.669
		c4.26,0.41,3.796-3.386,3.468-5.734l-2.676-9.557c0,0-2.432-5.898-4.505-5.543c-2.05,0.355-4.672,4.124-6.854,4.861
		c-2.185,0.737-2.267-5.024-4.342-5.161c-1.967-0.109-3.113,4.451-5.543,5.461c-1.395,0.519-1.693-7.81-5.215-2.403L413.954,108.922
		L413.954,108.922z"/>
	<path fill="#6899DE" d="M191.685,515.257c1.993,0.684,5.707-2.703,8.165-2.266c2.237,0.354,3.274,4.611,5.022,4.064
		c2.293-0.734,2.729-4.477,4.833-4.229c2.949,0.381,7.184,6.936,9.912,7.344c4.232,0.631,4.669-7.617,8.246-8.574
		c1.666-0.434,3.549,3.332,5.516,3.523c2.32,0.246,2.514-4.178,4.425-4.48c1.363-0.246,3.356,2.949,4.858,3.414
		c2.157,0.656,3.796-1.363,4.808-2.154l-25.724-41.943l-10.868-1.773L191.685,515.257L191.685,515.257z"/>
	<polygon fill="#EDEDEE" points="201.297,491.72 208.642,484.322 213.284,501.796 218.199,485.003 235.129,491.748 221.749,469.958 
		210.882,468.183 	"/>
	<path fill="#6793A7" d="M172.49,613.531c-4.615,1.611-13.27-3.877-19.879-2.648c-4.969,0.93-7.729,8.904-12.563,8.248
		c-6.36-0.902-11.575-8.328-16.245-7.592c-8.139,1.256-5.98,14.172-14.417,13.6c-4.997-0.33-5.271-9.445-10.404-10.596
		c-8.191-1.885-21.354,3.469-30.008-1.012l27.579-69.547c2.594-1.855,5.486,2.705,7.836,1.666c2.895-1.258,5.215-7.945,7.754-8.057
		c2.922-0.109,2.813,6.525,5.271,7.863c1.966,1.039,6.608-3.412,8.301-1.477L172.49,613.531z"/>
	<path fill="#EDEDEE" d="M138.412,562.851c-4.614,1.586-5.16,12.451-11.796,13.652c-4.942,0.93-1.063,5.545-5.87,4.889
		c-6.362-0.9-0.271-12.561-4.971-11.822c-8.082,1.256-2.757,16.547-11.195,16.027c-4.97-0.354-0.055-23.865-5.188-25.014
		c-8.192-1.883-2.433,8.658-11.086,4.18l8.247-20.779c2.594-1.855,5.486,2.703,7.836,1.666c2.895-1.258,5.215-7.945,7.754-8.057
		c2.922-0.109,2.813,6.525,5.271,7.863c1.966,1.039,6.608-3.412,8.301-1.477L138.412,562.851L138.412,562.851z"/>
	<path fill="#73746C" d="M53.219,278.409c22.308-44.208,38.362-50.625,58.925-4.205C88.169,255.253,76.046,250.011,53.219,278.409z"
		/>
	<path fill="#73746C" d="M50.597,300.554c32.63-26.813,45.846-39.757,49.313,24.22C97.126,285.945,81.835,275.296,50.597,300.554z"
		/>
	<path fill="#73746C" d="M99.884,288.239c19.277-42.105,19.307-42.706,48.604-4.15C130.63,265.029,114.301,264.729,99.884,288.239z"
		/>
	<path fill="#73746C" d="M80.442,224.098c19.714-27.579,20.698-25.394,31.265,1.584C104.335,212.138,93.794,210.035,80.442,224.098z
		"/>
	<path fill="#73746C" d="M110.834,239.061c5.517-33.395,18.24-16.247,23.209,1.611C128.773,230.406,118.506,224.152,110.834,239.061
		z"/>
	<path fill="#73746C" d="M200.069,519.109c-15.92-18.979-14.964-19.824-29.463-6.555c0.602-0.6,2.293,0.109,2.84-0.438
		C183.658,502.781,185.87,515.804,200.069,519.109L200.069,519.109z"/>
	<path fill="#73746C" d="M158.973,522.521c6.472-23.512,21.488-11.439,27.359,1.119
		C177.733,511.763,165.308,506.658,158.973,522.521z"/>
	<path fill="#40949F" d="M436.398,157.308c-1.146,2.021,0.901,5.406,2.54,5.925c1.557,0.464,4.588-2.976,5.789-2.075
		c2.047,1.502,2.648,3.659,5.815,4.178c3.193,0.491,4.561-4.615,8.572-4.669c1.313-0.028,0.71,7.318,2.239,7.563
		c2.458,0.437,2.43-6.39,5.598-7.182c1.34-0.328,2.596,2.349,4.313,2.649c1.503,0.3,2.647-3.495,4.231-3.44
		c2.924,0.027,7.429,6.226,8.027,3.386l-17.585-32.439c-1.829-1.938-4.451,0.492-5.46-1.147c-3.632-5.87-7.646-2.594-12.644,4.916
		L436.398,157.308L436.398,157.308z"/>
	<path fill="#EDEDEE" d="M445.467,139.641c-1.147,1.993,1.747,0.218,3.386,0.71c1.529,0.464,1.174,3.358,2.376,4.26
		c2.047,1.502,4.833-10.24,7.535-8.492c5.79,3.769,3.25,6.827,7.373,6.881c2.867,0.055,2.048-3.686,2.647-6.553l-2.841-5.243
		c-1.829-1.938-4.451,0.492-5.46-1.147c-3.632-5.87-7.646-2.594-12.644,4.916L445.467,139.641L445.467,139.641z"/>
	<polygon fill="#2761A1" points="171.916,603.044 165.281,592.152 120.882,664.974 156.324,663.037 175.411,686 188.654,673.931 
		215.906,673.931 239.279,684.062 248.618,675.515 199.959,596.029 192.532,599.55 183.603,583.578 	"/>
	<polygon fill="#EDEDEE" points="171.916,603.044 165.281,592.152 149.061,618.775 168.011,614.732 173.063,627.593 
		187.098,614.351 194.444,629.533 208.67,610.253 199.959,596.029 192.532,599.55 183.603,583.578 	"/>
	<path fill="#EDEDEE" d="M428.427,81.234l2.319,16.738l7.536-12.752c6.335,1.475,11.004,0.929,7.812-9.311
		c11.496-7.072,1.174-33.559-7.7-16.11c-2.786-9.83-18.377-13.571-15.592,4.505C408.929,60.919,412.779,94.942,428.427,81.234
		L428.427,81.234z"/>
	<g id="_794333312">
		<path fill="#90413A" d="M44.918,348.147c2.075,9.366,4.971,14.664,9.229,13.461l-1.366-8.819l12.779-0.546l-0.11,9.093
			c4.26-0.164,5.653-3.167,7.1-10.977c-0.354-6.035,2.867-7.728,9.366-5.434c1.477-0.109,4.369-2.73,3.934-3.741
			c-0.438-1.01-1.857-1.311-2.514-2.403c-0.546-0.983-0.3-2.813-0.981-3.386c-0.956-0.764-2.075-0.246-2.979-0.901
			c-1.063-0.792-0.981-2.43-2.511-2.622c-1.639-0.191-3.604,1.475-5.98,1.748c-7.919-2.266-20.807-0.082-26.187,9.967
			c-0.982,1.83-2.73,1.72-2.757,2.922C41.886,347.601,43.333,347.438,44.918,348.147L44.918,348.147z"/>
		<path fill="#4B4B4D" d="M79.95,337.144c-2.375-0.383,0.983,3.904,0.737,0.218C80.661,337.17,80.251,337.198,79.95,337.144z"/>
	</g>
	<ellipse fill="#00AFEF" cx="97.126" cy="234.283" rx="13.325" ry="3.85"/>
	<path fill="#D2D3D5" d="M84.019,233.6c3.495-1.42,3.386-1.01,3.604-0.382c0.082,0.3,0.218,0.709,1.722,0.736
		c0.137,0,0.437-0.164,0.792-0.382c1.146-0.71,2.977-1.802,5.159-0.109c0.466,0.41,0.709,0.137,1.038-0.191
		c0.656-0.737,1.529-1.666,4.205-0.027c1.065,0.683,1.723,0.218,2.376-0.246c1.038-0.737,2.186-1.502,4.751,0.655
		c0.573,0.492,1.693,0.3,2.32,0.191c0.219-0.027,0.3-0.027,0.382-0.027l0,0c-0.082,0-1.557,1.419-3.003,0.191
		c-2.294-1.938-3.277-1.256-4.206-0.628c-0.792,0.546-1.529,1.065-2.867,0.246c-2.349-1.475-3.086-0.655-3.632-0.055
		c-0.492,0.519-0.846,0.901-1.665,0.246c-1.912-1.502-3.578-0.519-4.615,0.136c-0.437,0.246-0.791,0.465-1.038,0.465
		c-1.802-0.055-2.021-0.628-2.155-1.038C87.078,233.054,87.078,232.372,84.019,233.6L84.019,233.6L84.019,233.6z"/>
	<path fill="#D2D3D5" d="M84.566,235.566c1.447-1.146,2.129-0.901,2.813-0.437c0.654,0.492,1.528,1.093,4.232-0.218
		c0.574-0.273,0.874,0.055,1.256,0.41c0.546,0.519,1.256,1.201,3.386-0.301c1.338-0.929,2.268-0.492,3.276-0.055
		c0.928,0.437,1.856,0.901,3.276,0.027c1.445-0.901,2.43-0.355,3.493,0.246c0.686,0.41,1.584,0.956,2.458,0.956l0,0
		c-1.011,0-1.966-0.136-2.677-0.546c-0.956-0.546-1.802-1.038-3.031-0.273c-1.639,0.983-2.701,0.491-3.714,0.027
		c-0.874-0.437-1.691-0.792-2.839,0c-2.43,1.693-3.304,0.874-3.932,0.246c-0.247-0.246-0.492-0.464-0.767-0.327
		c-2.946,1.419-3.932,0.737-4.694,0.191c-0.521-0.383-1.313-0.901-2.485,0L84.566,235.566L84.566,235.566z"/>
	<path fill="#D2D3D5" d="M89.781,237.478c2.13-1.529,2.73-1.365,3.413-0.901c0.574,0.382,1.366,0.901,4.124,0.027
		c1.338-0.41,3.495,0.519,4.696,1.011l0.326,0.218l0,0c-1.146-0.519-3.713-1.174-4.888-0.792c-2.976,0.901-3.85,0.328-4.506-0.082
		C92.403,236.604,91.665,236.112,89.781,237.478L89.781,237.478L89.781,237.478z"/>
	<path fill="#D2D3D5" d="M86.695,231.907c0.437-0.028,0.792-0.109,1.146,0c0.766,0.273,1.558,0.546,3.331-0.956
		c0.521-0.464,0.874-0.218,1.365,0.109c0.737,0.492,1.884,1.284,5.079-0.382c0.929-0.519,1.693-0.164,2.485,0.246
		c0.955,0.464,2.102,1.147,3.738,0.027l0,0c-1.828,1.256-2.865,0.874-3.932,0.355c-0.71-0.328-1.365-0.628-2.075-0.246
		c-3.439,1.802-4.724,0.929-5.543,0.382c-0.327-0.246-0.574-0.409-0.846-0.164c-1.966,1.693-2.867,1.366-3.769,1.065
		C87.378,232.235,87.05,231.907,86.695,231.907L86.695,231.907z"/>
	<ellipse fill="#FFCC00" cx="215.988" cy="531.724" rx="1.42" ry="1.529"/>
	<path fill="#AA8326" d="M216.997,546.443c0.055,1.826,12.288-0.629,6.938-9.121c-1.993-3.141-13.162-3.414-16.604-2.514
		c-2.375,0.656-11.387,8.711-0.026,8.711C211.345,543.519,216.862,543.054,216.997,546.443L216.997,546.443z"/>
	<path fill="#59BBAC" d="M214.513,544.203c3.249,2.758,0.407,2.84,7.069,0.928c1.912-0.518,6.362-9.037-5.515-9.037
		c-4.26,0-14.254-0.055-13.134,6.662C203.454,546.003,213.557,543.382,214.513,544.203L214.513,544.203z"/>
	<path fill="#FFCC00" d="M222.295,535.33c-8.848,0-2.839,0.682-7.071,3.385c-0.901,0.604-3.633,0.055-2.268-3.273
		c0.766-1.857-8.766,0.465-2.212-2.051c1.477-0.547,4.314,1.119,8.383,0.439C219.947,533.691,221.721,535.33,222.295,535.33
		L222.295,535.33z"/>
	<path fill="#EDEDEE" d="M211.182,538.115c0.246,1.965,5.568,1.801,6.252,0.436c0.19,0.164-2.239,2.105-3.934,2.131
		C210.908,540.734,211.182,538.115,211.182,538.115L211.182,538.115z"/>
	<path fill="#EDEDEE" d="M208.697,538.496c-0.982,1.967,3.687,2.158-0.136,1.938c-0.685-0.055-0.709-1.01,0.082-1.854
		L208.697,538.496L208.697,538.496z"/>
	<path fill="#EDEDEE" d="M219.947,531.968c0.601-6.471-0.218-1.854-1.447-4.725c-0.847-1.992,1.775-2.539,1.747-2.865
		c-0.054-4.014,4.042-3.85,3.688-0.627c-0.22,1.854,1.146-0.547,3.141,0.98c0.901,0.684,0.683,5.078-2.512,5.598
		c-3.441,0.574-0.956-0.791-4.26,1.529L219.947,531.968L219.947,531.968z"/>
	<path fill="#EDEDEE" d="M211.209,531.615c-0.98-1.91-1.063-0.52,0.221-2.131c0.682-0.846-0.766-0.545,0.025-1.691
		c0.71-1.037-0.817-0.711-0.928-1.064c-0.71-2.402-2.239-0.875-2.321-0.93c-0.301-0.244-1.938,0.137-0.41,1.83
		c0,0.027-1.912,1.885,0.273,2.076c0.054,0-0.492,0.709,0.546,1.5c1.147,0.928,0.273-1.42,2.293,0.383
		C210.964,531.642,211.182,531.587,211.209,531.615z"/>
	<ellipse fill="#FFCC00" cx="151.383" cy="419.251" rx="1.447" ry="1.557"/>
	<path fill="#AA8326" d="M150.372,434.433c-0.082,1.885-12.669-0.654-7.154-9.422c2.05-3.221,13.545-3.494,17.066-2.539
		c2.458,0.629,11.742,8.957,0.082,8.957C156.16,431.429,150.509,430.937,150.372,434.433L150.372,434.433z"/>
	<path fill="#59BBAC" d="M152.939,432.113c-3.359,2.867-0.438,2.947-7.318,0.982c-1.938-0.547-6.524-9.313,5.679-9.313
		c4.425,0,14.664-0.08,13.546,6.854C164.298,433.998,153.895,431.292,152.939,432.113z"/>
	<path fill="#FFCC00" d="M144.884,422.994c9.12,0,2.978,0.709,7.291,3.494c0.956,0.6,3.77,0.055,2.35-3.387
		c-0.766-1.91,9.011,0.492,2.239-2.104c-1.476-0.572-4.396,1.145-8.574,0.438C147.314,421.298,145.484,422.994,144.884,422.994
		L144.884,422.994z"/>
	<path fill="#EDEDEE" d="M156.324,425.886c-0.246,1.994-5.707,1.83-6.417,0.41c-0.191,0.162,2.321,2.186,4.069,2.211
		C156.625,428.535,156.324,425.833,156.324,425.886z"/>
	<path fill="#EDEDEE" d="M158.918,426.244c1.013,2.047-3.795,2.211,0.139,1.992c0.683-0.027,0.735-1.039-0.082-1.912
		L158.918,426.244L158.918,426.244z"/>
	<path fill="#EDEDEE" d="M157.963,419.853c0.628-6.637-0.246-1.91-1.527-4.859c-0.874-2.049,1.83-2.623,1.83-2.924
		c-0.028-4.15,4.178-3.959,3.769-0.654c-0.191,1.883,1.201-0.572,3.249,1.01c0.929,0.709,0.71,5.217-2.594,5.762
		c-3.55,0.572-0.982-0.846-4.341,1.561C158.318,419.769,157.963,419.853,157.963,419.853L157.963,419.853z"/>
	<path fill="#EDEDEE" d="M162.796,421.736c2.021-0.928,1.201,0.273,1.201-1.855c0-1.121,0.956,0.055,1.064-1.393
		c0.083-1.283,1.121-0.027,1.421-0.273c2.102-1.473,2.375,0.736,2.457,0.736c0.409,0,1.475,1.395-0.849,1.773
		c0,0,0.355,2.705-1.527,1.477c-0.028-0.027-0.057,0.873-1.395,0.873c-1.527,0,0.685-1.338-2.102-1.146
		C162.987,421.927,162.823,421.708,162.796,421.736L162.796,421.736z"/>
	<path fill="#AA4730" d="M189.692,653.341c-1.883,5.463,14.199,16.686,25.122,8.902c5.051-3.605,12.014-4.695,6.144-12.342
		c-3.932-5.055-14.771-13.408-21.407-6.939C196.382,646.052,191.003,649.519,189.692,653.341L189.692,653.341z"/>
	<path fill="#EDEDEE" d="M201.652,656.892c0.683-1.117-4.014-4.668,2.43-9.039c1.583-1.035,1.447-3.412-0.164-4.996
		c-1.146-1.146-4.015-1.393-3.141-2.783c1.912-3.004-6.908-10.785-7.811,0.271c0,0.271-7.892-1.064-6.661,7.619
		c0.981,6.744,6.881,2.785,13.979,8.217C200.505,656.347,201.652,656.892,201.652,656.892L201.652,656.892z"/>
	<path fill="#EDEDEE" d="M208.206,652.197c5.324-19.195,4.016-4.695,7.754-12.068c1.611-3.168-3.029-1.586,1.147-4.779
		c2.976-2.268-1.448-9.035-3.96-6.799c0.956-4.479-12.287-4.287-8.409,1.912c0.027,0-4.97,2.293-0.902,4.859
		c0.165,0.107-3.902,3.086,1.748,5.953c1.559,0.764,1.912-1.201,2.404,5.297C208.014,647.117,208.315,651.814,208.206,652.197z"/>
	<path fill="#EDEDEE" d="M209.597,658.312c10.596-6.443,4.26,0.629,9.967-1.746c4.287-1.803-0.382-2.295,4.095-2.486
		c4.563-0.217-0.218-4.094,1.994-6.469c3.113-3.332-3.659-2.785-3.932-3.58c-0.655-1.938-5.488-3.576-5.927,2.35
		c-0.025,0.164-4.751-2.703-3.55,3.412c0.956,4.889,2.649-1.281-2.703,7.156C208.861,658.041,208.833,658.312,209.597,658.312z"/>
	<g id="_794340288">
		<path fill="#90413A" d="M507.229,122.384c-2.103,9.338-4.996,14.635-9.283,13.461l1.395-8.847l-12.779-0.546l0.109,9.12
			c-4.262-0.191-5.652-3.195-7.072-10.977c0.354-6.035-2.896-7.755-9.396-5.434c-1.445-0.109-4.366-2.758-3.932-3.768
			c0.409-1.01,1.856-1.311,2.513-2.403c0.573-0.983,0.302-2.813,1.012-3.358c0.929-0.792,2.048-0.273,2.977-0.929
			c1.037-0.792,0.956-2.403,2.484-2.594c1.638-0.191,3.632,1.475,6.008,1.721c7.891-2.267,20.779-0.083,26.158,9.966
			c0.98,1.829,2.704,1.72,2.758,2.921C510.207,121.838,508.813,121.647,507.229,122.384L507.229,122.384z"/>
		<path fill="#4B4B4D" d="M472.172,111.38c2.375-0.41-0.983,3.85-0.71,0.191C471.462,111.38,471.869,111.407,472.172,111.38z"/>
	</g>
	<path fill="#73746C" d="M102.615,316.118c16.492-27.196,20.479-40.439,42.051-8.574
		C128.773,293.864,115.202,296.758,102.615,316.118z"/>
	<path fill="#FFCC00" d="M357.103,251.922c1.802,4.096,18.403-0.082,10.622-12.588c-4.369-7.045-21.763-1.147-10.759,12.424
		C357.02,251.813,357.103,251.922,357.103,251.922z"/>
	<path fill="#63372E" d="M363.877,265.793c3.687-4.014-12.314-1.666-4.726-0.027C360.135,265.984,363.274,266.449,363.877,265.793z"
		/>
	<path fill="#63372E" d="M350.987,265.521c-0.735-3.031,0.026-2.293-5.38-2.293C344.733,266.285,351.205,266.449,350.987,265.521z"
		/>
	<path fill="#63372E" d="M361.307,262.408c0.819-7.564-10.73-15.564-6.963-22.063c4.888-8.354-16.355-7.836-10.457,0.219
		c3.386,4.587-6.254,5.68,1.283,14.008c3.468,3.877-6.034,7.973,5.979,7.973C352.516,262.544,361.256,262.79,361.307,262.408
		L361.307,262.408z"/>
	<path fill="#D2D3D5" d="M350.031,248.481c1.529,0.464,3.112,0.929,3.823,1.802c0.764,0.983,0.572,2.185-1.421,3.769l0,0
		c-0.901,0.71-2.647,0.737-4.259,0.764c-1.201,0.027-2.515,0.137-2.622,0.273c-0.164-0.273-0.521-0.628-0.873-1.065
		c0.546-0.737,1.884-0.628,3.468-0.656c1.392-0.027,2.866-0.027,3.385-0.437l0,0c1.175-0.929,1.42-1.447,1.175-1.748
		c-0.407-0.519-1.773-0.929-3.086-1.311c-1.99-0.574-3.902-1.147-3.902-2.622C347.518,247.28,348.147,247.936,350.031,248.481z"/>
	<path fill="#FFCC00" d="M349.649,243.157c-10.35-6.58,5.68-12.506,0.464-0.955C349.894,242.72,349.786,243.212,349.649,243.157z"/>
	<path fill="#63372E" d="M361.884,241.437c-3.276-0.109-12.263,12.424-4.396,8.492C365.623,245.888,362.318,241.437,361.884,241.437
		z"/>
	<path fill="#D2D3D5" d="M354.129,248.864c-0.573-0.328-0.272,4.313,1.827,2.075C357.02,249.819,354.129,248.864,354.129,248.864z"
		/>
	<path fill="#5CA47A" d="M32.684,328.924v-7.536c-0.464,0.328-0.955,0.628-1.394,0.928c-0.547,0.354-3.439,1.993-3.604,2.129
		l-0.901-1.064c0.245-0.273,3.084-1.912,3.713-2.293c0.737-0.492,1.611-1.038,2.186-1.584v-4.341
		c-0.384,0.327-0.791,0.71-1.146,1.064c-0.683,0.601-2.84,2.267-3.223,2.649l-1.12-1.338c0.41-0.383,2.676-1.775,3.332-2.375
		c0.765-0.765,1.611-1.502,2.157-2.021v-6.28c-0.327,0.355-0.545,0.628-0.766,0.956c-0.546,0.792-1.174,1.666-3.413,3.195
		l-0.817-1.201c1.993-1.393,2.539-2.157,3.058-2.868c0.438-0.655,0.685-1.72,1.938-2.621v-0.082l0.083,0.027h0.025l0.027,0.027
		l0.901,0.382c1.773,0.765,2.977,2.512,4.097,4.124c0.409,0.601,0.819,1.201,1.228,1.692l-1.117,0.929
		c-0.491-0.546-0.901-1.147-1.34-1.775c-0.735-1.092-1.502-2.211-2.431-2.976v6.471c0.737,0.656,1.395,1.038,1.912,1.338
		c0.901,0.519,2.512,1.721,3.195,2.867l-0.603,1.065c-0.491-0.792-2.594-2.267-3.304-2.648c-0.355-0.219-0.765-0.437-1.202-0.737
		v4.041c1.584,0.246,2.704,1.829,3.496,2.922c0.271,0.355,2.813,2.594,2.894,2.649l-0.874,0.982
		c-0.271-0.191-2.894-2.321-3.222-2.757c-0.573-0.819-1.42-1.967-2.294-2.267v8.329h-1.475v-0.002H32.684z"/>
	<path fill="#5CA47A" d="M504.092,199.468v-7.536c-0.438,0.355-0.93,0.655-1.365,0.956c-0.546,0.355-3.468,1.966-3.604,2.103
		l-0.929-1.038c0.273-0.273,3.113-1.911,3.714-2.321c0.737-0.464,1.611-1.038,2.187-1.583v-4.342
		c-0.355,0.355-0.767,0.71-1.147,1.065c-0.653,0.601-2.813,2.266-3.192,2.648l-1.146-1.311c0.409-0.382,2.676-1.775,3.331-2.403
		c0.792-0.737,1.611-1.474,2.157-1.993v-6.28c-0.301,0.328-0.521,0.601-0.737,0.929c-0.573,0.792-1.201,1.666-3.413,3.222
		l-0.847-1.229c2.021-1.365,2.564-2.157,3.059-2.84c0.464-0.655,0.685-1.72,1.938-2.621v-0.109l0.107,0.055l0.027-0.027l0.027,0.055
		l0.873,0.355c1.803,0.792,2.977,2.512,4.124,4.123c0.407,0.629,0.817,1.229,1.199,1.721l-1.117,0.928
		c-0.467-0.546-0.874-1.174-1.313-1.802c-0.737-1.065-1.501-2.211-2.457-2.949v6.471c0.765,0.655,1.394,1.011,1.938,1.311
		c0.898,0.519,2.512,1.72,3.192,2.894l-0.601,1.038c-0.49-0.792-2.594-2.239-3.303-2.621c-0.355-0.218-0.768-0.437-1.229-0.765
		v4.069c1.583,0.245,2.703,1.829,3.495,2.894c0.271,0.382,2.813,2.594,2.895,2.648l-0.874,1.011
		c-0.271-0.218-2.895-2.321-3.193-2.786c-0.572-0.792-1.419-1.938-2.32-2.266v8.328h-1.475V199.468L504.092,199.468z"/>
	<path fill="#5CA47A" d="M321.743,103.543v-7.537c-0.465,0.328-0.956,0.655-1.394,0.956c-0.546,0.328-3.44,1.966-3.604,2.103
		L315.845,98c0.271-0.273,3.086-1.884,3.713-2.293c0.737-0.464,1.611-1.038,2.186-1.584v-4.341c-0.354,0.354-0.793,0.71-1.146,1.064
		c-0.685,0.601-2.84,2.267-3.195,2.649l-1.146-1.311c0.406-0.382,2.676-1.802,3.331-2.403c0.764-0.737,1.608-1.502,2.155-1.994
		v-6.28c-0.326,0.3-0.547,0.601-0.735,0.929c-0.574,0.792-1.202,1.666-3.441,3.195l-0.819-1.202c1.993-1.393,2.539-2.157,3.061-2.84
		c0.437-0.656,0.683-1.72,1.938-2.622v-0.109l0.081,0.055l0.027-0.027l0.028,0.055l0.898,0.354c1.775,0.765,2.979,2.512,4.098,4.124
		c0.408,0.628,0.817,1.229,1.229,1.72l-1.119,0.928c-0.491-0.573-0.899-1.174-1.339-1.802c-0.737-1.093-1.501-2.212-2.429-2.977
		v6.499c0.734,0.656,1.392,1.01,1.91,1.311c0.9,0.519,2.54,1.721,3.193,2.868l-0.602,1.065c-0.49-0.792-2.594-2.239-3.303-2.649
		c-0.355-0.191-0.767-0.437-1.201-0.737v4.068c1.583,0.246,2.702,1.83,3.494,2.895c0.271,0.382,2.813,2.594,2.895,2.649l-0.874,1.01
		c-0.271-0.219-2.895-2.321-3.222-2.785c-0.573-0.792-1.42-1.939-2.293-2.267v8.329L321.743,103.543L321.743,103.543z"/>
	<path fill="#5CA47A" d="M128.828,195.072v-7.536c-0.464,0.328-0.929,0.628-1.366,0.928c-0.546,0.355-3.468,1.993-3.604,2.129
		l-0.929-1.064c0.244-0.273,3.111-1.884,3.714-2.321c0.735-0.437,1.609-1.037,2.185-1.583v-4.341
		c-0.382,0.354-0.765,0.737-1.174,1.092c-0.628,0.601-2.813,2.267-3.167,2.649l-1.146-1.311c0.409-0.409,2.648-1.802,3.332-2.43
		c0.791-0.71,1.61-1.475,2.157-1.966v-6.28c-0.3,0.3-0.519,0.601-0.737,0.901c-0.572,0.819-1.199,1.693-3.411,3.223l-0.849-1.229
		c2.021-1.365,2.567-2.129,3.031-2.813c0.492-0.682,0.71-1.747,1.966-2.621v-0.109l0.109,0.027h0.026v0.027l0.901,0.382
		c1.802,0.765,2.978,2.485,4.096,4.124c0.41,0.628,0.849,1.229,1.229,1.692l-1.147,0.956c-0.437-0.573-0.874-1.174-1.31-1.83
		c-0.71-1.065-1.502-2.211-2.43-2.949v6.499c0.764,0.628,1.363,0.983,1.938,1.311c0.901,0.519,2.484,1.693,3.195,2.867l-0.603,1.065
		c-0.49-0.819-2.621-2.239-3.332-2.648c-0.354-0.219-0.735-0.437-1.199-0.737v4.041c1.583,0.246,2.701,1.83,3.493,2.922
		c0.273,0.382,2.813,2.567,2.896,2.648l-0.874,0.983c-0.272-0.191-2.896-2.293-3.194-2.757c-0.601-0.819-1.42-1.966-2.319-2.267
		v8.329h-1.479L128.828,195.072L128.828,195.072z"/>
	<path fill="#5CA47A" d="M230.677,429.492v-7.535c-0.491,0.326-0.956,0.627-1.395,0.928c-0.546,0.355-3.467,1.992-3.604,2.129
		l-0.931-1.063c0.245-0.273,3.113-1.91,3.713-2.293c0.737-0.492,1.611-1.064,2.211-1.584v-4.34
		c-0.407,0.324-0.791,0.707-1.174,1.063c-0.653,0.602-2.84,2.266-3.193,2.623l-1.146-1.313c0.409-0.385,2.648-1.773,3.332-2.404
		c0.791-0.734,1.61-1.475,2.184-1.965v-6.309c-0.354,0.355-0.545,0.627-0.791,0.953c-0.547,0.793-1.174,1.666-3.412,3.197
		l-0.819-1.23c2.021-1.363,2.567-2.129,3.031-2.84c0.49-0.652,0.684-1.719,1.991-2.621v-0.082l0.082,0.027v-0.027l0.028,0.057
		l0.901,0.383c1.773,0.766,2.976,2.514,4.096,4.125c0.41,0.6,0.847,1.227,1.229,1.689l-1.147,0.93
		c-0.464-0.521-0.874-1.146-1.31-1.775c-0.737-1.092-1.502-2.211-2.433-2.975v6.498c0.737,0.627,1.365,1.01,1.938,1.311
		c0.899,0.521,2.483,1.721,3.168,2.867l-0.603,1.063c-0.465-0.793-2.594-2.268-3.304-2.645c-0.354-0.221-0.737-0.439-1.201-0.738
		v4.041c1.583,0.246,2.703,1.828,3.495,2.922c0.273,0.355,2.813,2.594,2.896,2.648l-0.874,0.98
		c-0.272-0.219-2.896-2.318-3.194-2.758c-0.602-0.816-1.42-1.967-2.321-2.268v8.33H230.677L230.677,429.492z"/>
	<path fill="#5CA47A" d="M118.724,450.625v-7.533c-0.466,0.326-0.956,0.654-1.395,0.928c-0.519,0.355-3.438,1.992-3.577,2.131
		l-0.928-1.064c0.246-0.273,3.113-1.885,3.713-2.32c0.709-0.438,1.583-1.039,2.186-1.557v-4.369
		c-0.384,0.355-0.791,0.736-1.146,1.094c-0.682,0.602-2.84,2.266-3.222,2.648l-1.12-1.314c0.41-0.406,2.676-1.801,3.304-2.432
		c0.792-0.707,1.638-1.475,2.186-1.965v-6.279c-0.327,0.301-0.521,0.604-0.766,0.9c-0.546,0.818-1.146,1.691-3.413,3.221
		l-0.817-1.229c2.021-1.363,2.54-2.129,3.029-2.813c0.491-0.682,0.684-1.719,1.967-2.621v-0.107l0.082,0.025h0.026l0.027,0.027
		l0.899,0.383c1.775,0.764,2.978,2.484,4.099,4.121c0.409,0.631,0.817,1.23,1.228,1.695l-1.12,0.953
		c-0.49-0.57-0.899-1.176-1.338-1.828c-0.735-1.064-1.501-2.188-2.43-2.949v6.5c0.737,0.627,1.393,0.98,1.938,1.311
		c0.873,0.518,2.484,1.691,3.168,2.865l-0.603,1.064c-0.464-0.816-2.594-2.238-3.304-2.646c-0.354-0.191-0.737-0.438-1.201-0.736
		v4.041c1.584,0.246,2.729,1.828,3.495,2.922c0.271,0.381,2.813,2.566,2.895,2.648l-0.874,0.982
		c-0.271-0.191-2.865-2.293-3.222-2.758c-0.574-0.82-1.393-1.971-2.294-2.27v8.326h-1.473V450.625z"/>
	<path fill="#6CBCDF" d="M264.163,188.531c1.642-8.308-15.496-20.333-31.922-37.524c-21.126-22.11-43.209-48.593-39.271-68.052
		c-7.79,27.357,38.453,71.659,55.425,85.789c33.616,27.986-10.632,40.585,16.89,56.218c3.772,2.159-4.919,20.279,3.938,26.565
		c0.848,0.601,4.045-1.612,3.39-0.793c-6.45,7.816,0.792,22.411,12.763,26.647c1.805,0.655,12.817,9.292,14.76,11.451
		c-1.585,1.011-3.253,1.858-5.001,2.459c-33.426,11.233-8.855-5.193-21.593,27.33c0.41-1.858,10.934-0.191,13.118,1.613
		c29.024,23.859-28.887-4.673-1.229,46.516c6.121,11.26,37.771,9.866,37.223,5.411c-2.813-22.903-7.542-7.653-17.6-14.239
		c-23.832-15.66,33.23,2.351,34.244,2.023c46.379-13.748,9.429,34.545,10.085,35.01c28.858,20.854-2.979,14.541,0.219,22.604
		c0,7.27-7.789,6.75-9.265,11.424c-10.796,34.518-33.453,9.646-36.24,21.344c-10.084,42.525,58.05,43.291,41.296,56.273
		c-17.081,13.256-3.881,5.549-8.691,17.217c-8.418,20.389-23.039,30.092-43.974,14.76c-49.495-36.295-12.216,10.439-13.747,14.295
		c-6.531,16.451,19.131,32.223,19.459,32.223c30.063-0.9,18.53,31.482,18.421,31.619c-14.54,17.82,21.699,33.182-19.295,33.182
		c-0.055,0.105,0.929,21.373-12.189,28.395c-21.044,11.232-2.321,8.336-1.913,8.117c33.233-17.438,24.406-29.814,38.646-11.043
		c0.589,0.779-29.025,35.135-10.441,45.922c5.983,3.473,11.63,7.82,16.805,13.021c23.141,23.264-46.76,21.623-39.859,33.764
		c6.244,10.988-33.355,32.438-20.5,36c27.422,7.6,4.637,22.379-13,36c-9.054,6.992-22.296,20.055-20,23c23,29.5-2.319,17.566,1,32.5
		c2.008,9.029-26.787,37.838-6.5,35.5c54.112-6.236,203.418,7.869,318.783-161.5c90.049-132.203,164.821-504.862,146.884-608.5
		c-3-17.333-53.237,60.13-53.625,54c-0.602-9.52-10.331-15.553-10.542-15.498c-2.983,0.149,25.741-32.717-0.833-28.002
		c-10.334,1.833-15.57,30.465-19.3,31.517C542.716,222.335,451.891,312.7,438.973,323.982
		c-22.027,19.241-45.504,71.275-55.753,35.748c-2.188-7.598-21.976-40.148-10.249-34.245c2.486,1.257,1.477,5.138,3.225,6.04
		c11.017,5.603,15.605,2.651,11.998-3.361c-0.246-0.41-3.799,0.082-4.044,0c-4.865-2.159-9.594-10.932-11.808-17.956
		c-8.801-27.576-22.301-30.446-27.934-37.634c-12.271-15.742-19.896-10.167-27.737-1.038c-2.241-3.062-8.393-6.041-10.224-7.38
		c-4.728-3.389-20.579,2.569-32.851-2.35c-7.16-11.396,12.872-13.337-3.69-14.567c-9.265-0.683,9.266-17.546-11.669-31.867
		C256.292,214.03,261.703,208.401,264.163,188.531L264.163,188.531z M304.994,284.924c-3.143-2.732-10.058-6.504-15.77-10.002
		c3.744-1.777,12.763,3.662,15.496,5.438c0.137,0.082,0.93,1.695,1.667,3.17C305.924,284.023,305.458,284.46,304.994,284.924z
		 M308.876,280.825c-0.272-1.148-0.382-2.214,0.272-2.022c0.438,0.137,0.874,0.246,1.229,0.328
		C309.885,279.705,309.393,280.278,308.876,280.825L308.876,280.825z M311.553,277.709c-1.094-1.038-2.761-2.514-4.51-4.345
		c-5.439-5.793-14.649-3.28-18.995-6.204c4.291,0.109,8.744-0.273,11.834-1.148c6.313-1.776,11.753,6.286,12.873,10.222
		C312.375,276.726,311.935,277.217,311.553,277.709z M285.698,272.735c-6.039-4.018-5.818-3.197-7.813-6.013
		c0.629,0.52,7.27,0.328,8.36,0.383l0,0c3.443,6.423,10.986-0.82,20.145,8.773c0.328,0.328,0.491,1.148,0.656,1.94
		c-1.23-0.164-3.802-0.464-8.256-3.061C293.406,271.615,290.317,272.653,285.698,272.735L285.698,272.735z"/>
	<path fill="#FEFEFE" d="M206.594,507.068c0.709-0.084,0.899,1.637-1.856,1.664c-0.3,0-1.229,0.109-1.174-0.326
		c0.218-0.084,1.501,0.107,2.184-0.084C207.332,507.859,206.485,507.394,206.594,507.068L206.594,507.068z M202.935,508.787
		c-0.409,0.219-1.12-0.271-1.338-0.602c-0.221-0.354-0.221-1.363,0.326-1.229c0.056,0.354-0.465,0.684,0.082,1.201
		C202.335,508.458,202.963,508.458,202.935,508.787z M206.703,505.539c-0.188-1.641,0.603-3.523,0.984-5.08
		c0.327-1.201,0-1.119,0.928-2.156c0.546-0.6,1.448,0.082,1.938,0.492c1.91,1.584-0.848,0.816,0.465,4.504
		c0.601,1.666-0.11,1.23-0.221,2.295c-0.055,0.686,0.767,1.254,0.737,2.268c-0.328-0.244-0.383-0.873-1.938-1.664
		C208.206,505.457,208.096,505.728,206.703,505.539L206.703,505.539z M205.939,511.353v-0.271c-0.057-0.41,1.229-0.355,1.912-0.711
		c2.785-1.639,0.874-4.014-1.065-4.178c3.386,2.049,0.492,3.715-2.157,3.822c-1.174,0.027-2.621-0.164-3.604-0.873
		c-1.529-1.119-0.521-1.912,0.107-2.785c-1.146,0.162-2.02,1.666-1.092,2.758c1.092,1.313,3.113,1.064,3.143,1.584
		c-0.521,0.547-3.031-0.738-3.552-1.447c-0.874-1.311-0.165-2.648,1.176-3.168c-0.546,0.057-1.366,0.492-1.775,0.82
		c-0.737,0.6-0.628,1.666-0.902,1.748c-0.735-0.385,0.521-2.021,1.065-2.375c1.093-0.686,2.047-0.439,3.058-0.711
		c0.302-0.711,3.004-6.771,3.877-6.035l0.083,0.055l-0.982,1.801l0.082,0.166l0.107-0.025c0.191-0.305,0.956-2.076,1.201-2.076
		c0.273,0.189-0.354,0.848-0.437,1.229v0.219l0.219-0.055c0.246-0.246,0.41-1.365,0.765-1.393c0.164,0.189-0.465,1.42-0.572,1.721
		c-0.767,1.992-0.931,2.758-1.119,4.914c-0.057,0.301,0.025,0.928-0.273,0.875c-0.354-0.383,0.521-4.451,0.819-5.105
		c-0.218-0.137,0,0.025-0.139-0.221l-0.271,0.191c-0.246,0.246-0.736,1.967-0.819,2.375c-0.107,0.438-0.218,0.875-0.3,1.311
		c-0.136,0.768-0.054,1.23-0.382,1.201c-0.355-0.57,0.956-4.094,0.981-4.504c-0.3-0.164-0.025-0.109-0.188-0.246l-1.885,4.697
		c-0.791-0.654,2.212-5.734,2.483-6.443c-0.735,0.627-2.102,3.494-2.458,4.479c-1.174,3.193-0.354,1.609-0.189,2.402
		c0.108,0.627,0.683,0.219,1.146,0.299c0.438,0.084-0.055,0.273,0.491,0.328c0.355,0.027,0.41-0.219,0.656-0.025
		c0.055,0.52-1.12,0.488-1.313-0.111c-0.328,0.248-1.063,0.301-1.229-0.105c-0.273-0.549,0-0.109-0.41-0.408
		c-0.3-0.246-0.082-0.439-0.191-0.629c-1.092,0.354-2.021,1.229-0.929,2.266c1.256,1.229,5.216,1.256,6.472,0.027
		c0.901-0.873-0.3-2.021-1.146-2.238c0.055,0.383,0.246,1.01-0.137,1.283c-0.19,0.164-0.956,0.408-1.038-0.109l0.847-0.189
		c0.027-0.084-0.11-3.469,0.19-4.508c0.108-0.463,0.982-3.494,1.311-3.521c0.273,0.33-1.448,4.779-1.146,6.361
		c0.873,0.109,1.501-0.326,3.356,0.793c0.521,0.301,2.432,1.939,1.477,2.486c-0.246-0.057-0.302-0.82-0.438-1.094
		c-0.492-0.848-2.185-1.719-2.895-1.803c0.981,0.766,2.212,1.174,1.583,2.949c-0.409,1.012-1.665,1.885-2.73,1.967
		c-0.189,0.055-0.519,0.055-0.628,0.188L205.939,511.353L205.939,511.353z"/>
	<path fill="#FEFEFE" d="M163.943,650.392c1.638-0.137,2.103,3.799-4.205,3.852c-0.683,0-2.785,0.191-2.622-0.791
		c0.438-0.164,3.386,0.273,4.916-0.164C165.691,652.251,163.724,651.103,163.943,650.392L163.943,650.392z M155.615,654.298
		c-0.901,0.545-2.485-0.572-3.004-1.338c-0.573-0.793-0.573-3.113,0.737-2.814c0.082,0.875-1.094,1.559,0.164,2.785
		C154.249,653.642,155.723,653.589,155.615,654.298L155.615,654.298z M162.468,660.199l0.028-0.656
		c-0.137-0.902,2.785-0.738,4.314-1.611c6.335-3.688,2.021-9.092-2.402-9.477c7.729,4.645,1.119,8.412-4.916,8.658
		c-2.703,0.105-5.952-0.357-8.192-1.994c-3.493-2.539-1.255-4.314,0.246-6.279c-2.647,0.299-4.642,3.74-2.512,6.252
		c2.512,2.949,7.1,2.434,7.154,3.576c-1.174,1.258-6.881-1.639-8.057-3.303c-1.991-2.949-0.437-5.98,2.621-7.154
		c-1.199,0.082-3.111,1.064-4.042,1.855c-1.666,1.365-1.392,3.77-2.021,3.961c-1.693-0.9,1.146-4.588,2.43-5.408
		c2.485-1.582,4.669-1.037,6.938-1.611c0.082-0.518,2.482-9.229,8.847-13.73l0.218,0.105l-2.266,4.123l0.164,0.357l0.3-0.084
		c0.409-0.654,2.102-4.725,2.676-4.697c0.656,0.438-0.817,1.912-0.928,2.73v0.52l0.464-0.107c0.546-0.547,0.983-3.109,1.802-3.17
		c0.355,0.465-1.092,3.227-1.363,3.938c-1.775,4.527-2.132,6.307-2.567,11.223c-0.082,0.654,0.082,2.104-0.601,1.938
		c-0.792-0.873,1.146-10.133,1.909-11.605c-0.519-0.301-0.055,0.027-0.354-0.518l-0.628,0.49c-0.546,0.52-1.64,4.424-1.884,5.352
		c-0.246,1.012-0.466,1.994-0.627,3.033c-0.328,1.689-0.165,2.756-0.902,2.676c-0.792-1.285,2.13-9.285,2.24-10.213
		c-0.71-0.385-0.028-0.273-0.438-0.602l-4.313,10.703c-1.775-1.447,5.077-13.023,5.651-14.664
		c-1.666,1.449-4.777,7.975-5.598,10.213c-2.676,7.264-0.764,3.66-0.409,5.488c0.272,1.395,1.529,0.438,2.621,0.656
		c0.956,0.188-0.164,0.568,1.093,0.734c0.819,0.082,0.982-0.465,1.501-0.025c0.139,1.145-2.539,1.121-2.949-0.244
		c-0.764,0.518-2.43,0.654-2.865-0.273c-0.603-1.285,0.055-0.246-0.873-0.957c-0.686-0.518-0.221-0.955-0.465-1.393
		c-2.514,0.791-4.562,2.787-2.075,5.162c1.691,1.664,5.052,2.074,7.316,2.102c2.212,0.027,5.734-0.41,7.43-2.02
		c2.047-1.992-0.656-4.695-2.649-5.133c0.082,0.873,0.574,2.348-0.271,2.945c-0.492,0.355-2.239,0.875-2.402-0.326l1.938-0.383
		c0.082-0.164-0.244-7.861,0.384-10.236c0.325-1.121,2.293-7.977,3.004-8.061c0.652,0.738-3.277,10.869-2.596,14.477
		c1.993,0.27,3.469-0.738,7.674,1.828c1.146,0.711,5.486,4.447,3.386,5.682c-0.574-0.137-0.71-1.857-1.064-2.512
		c-1.063-1.912-4.941-3.881-6.525-4.125c2.185,1.826,5.022,2.676,3.521,6.717c-0.874,2.375-3.686,4.287-6.198,4.533
		c-0.407,0.08-1.093,0.107-1.42,0.408L162.468,660.199L162.468,660.199z"/>
	<path fill="#00AFEF" d="M118.315,243.321c-1.038-0.109-1.338,2.403,2.676,2.43c0.438,0,1.775,0.137,1.666-0.491
		c-0.272-0.109-2.157,0.164-3.14-0.109C117.223,244.496,118.479,243.785,118.315,243.321L118.315,243.321z M123.612,245.806
		c0.574,0.328,1.584-0.382,1.912-0.874c0.354-0.492,0.382-1.966-0.464-1.775c-0.057,0.546,0.682,0.983-0.11,1.775
		C124.486,245.369,123.558,245.341,123.612,245.806z M119.243,249.546v-0.409c0.082-0.573-1.775-0.492-2.758-1.065
		c-4.042-2.321-1.283-5.762,1.556-6.007c-4.94,2.949-0.735,5.379,3.113,5.516c1.693,0.055,3.795-0.218,5.188-1.256
		c2.239-1.611,0.792-2.758-0.136-4.014c1.666,0.191,2.949,2.403,1.611,3.987c-1.638,1.884-4.532,1.529-4.561,2.293
		c0.709,0.792,4.369-1.065,5.106-2.13c1.283-1.857,0.271-3.795-1.666-4.533c0.764,0.027,1.993,0.683,2.594,1.174
		c1.065,0.874,0.901,2.403,1.256,2.512c1.094-0.574-0.71-2.922-1.527-3.44c-1.583-1.01-2.949-0.656-4.423-1.01l-3.006-6.472
		c-0.271-0.682-1.72-3.058-2.619-2.266l-0.139,0.055l1.447,2.621l-0.109,0.219l-0.189-0.027c-0.272-0.41-1.338-3.031-1.693-2.977
		c-0.437,0.273,0.521,1.174,0.603,1.72l-0.027,0.328l-0.3-0.082c-0.355-0.355-0.627-1.966-1.12-2.021
		c-0.218,0.3,0.683,2.075,0.846,2.512c1.147,2.894,1.366,4.014,1.666,7.126c0.027,0.437-0.082,1.365,0.355,1.256
		c0.519-0.546-0.737-6.444-1.202-7.399c0.328-0.191,0.026,0.027,0.218-0.3l0.383,0.3c0.354,0.328,1.064,2.785,1.201,3.414
		c0.19,0.627,0.3,1.256,0.438,1.911c0.188,1.093,0.081,1.748,0.545,1.693c0.519-0.792-1.339-5.898-1.419-6.499
		c0.437-0.246,0.025-0.164,0.271-0.382l2.729,6.826c1.146-0.929-3.224-8.273-3.577-9.338c1.063,0.928,3.029,5.079,3.55,6.499
		c1.72,4.615,0.492,2.348,0.273,3.468c-0.192,0.929-0.984,0.3-1.666,0.437c-0.603,0.137,0.08,0.382-0.709,0.464
		c-0.521,0.082-0.603-0.273-0.956,0c-0.082,0.737,1.638,0.71,1.91-0.164c0.466,0.328,1.501,0.41,1.804-0.191
		c0.382-0.792-0.027-0.109,0.572-0.601c0.409-0.3,0.109-0.601,0.272-0.874c1.584,0.492,2.895,1.775,1.338,3.305
		c-1.091,1.038-3.222,1.311-4.669,1.311c-1.42,0.027-3.659-0.273-4.723-1.284c-1.313-1.255,0.436-2.976,1.665-3.276
		c-0.027,0.573-0.355,1.502,0.189,1.884c0.3,0.218,1.42,0.573,1.529-0.191l-1.229-0.246c-0.055-0.137,0.139-5.024-0.244-6.526
		c-0.191-0.71-1.477-5.052-1.911-5.134c-0.438,0.491,2.073,6.936,1.665,9.229c-1.283,0.192-2.212-0.491-4.89,1.174
		c-0.735,0.437-3.521,2.813-2.185,3.577c0.383-0.082,0.465-1.174,0.684-1.556c0.709-1.229,3.142-2.485,4.179-2.649
		c-1.395,1.147-3.224,1.693-2.268,4.287c0.545,1.502,2.375,2.73,3.958,2.867c0.246,0.055,0.685,0.055,0.901,0.273L119.243,249.546
		L119.243,249.546z"/>
	<path fill="#EDEDEE" d="M423.018,456.498l-0.054,21.244l-14.146-1.447c-0.354-4.041-0.245-6.938,0.82-10.703
		c1.911-6.555,6.799-16.004,13.298-18.844L423.018,456.498z M439.184,481.044c0.519,7.373-1.666,4.287-6.744,5.377
		c-6.117,1.313-5.38-1.746-11.113-0.572c-6.063,1.258-3.878,1.367-10.238-0.408c-3.522-0.982-4.727-3.934-5.354-8.273
		L439.184,481.044L439.184,481.044z M437.027,479.595l-12.588-1.637l-0.164-19.277c1.556,1.855,1.747,2.621,3.44,4.613
		c1.527,1.775,2.4,2.922,4.041,4.588C434.596,470.804,436.593,474.792,437.027,479.595L437.027,479.595z"/>
	<path id="way1" display="none" fill="none" stroke="#D2D3D5" stroke-width="5" stroke-dasharray="107.52,161.28" d="
		M451.143,223.115c5.353,3.222-1.91,35.197,17.776,45c2.482,1.229,12.042,9.256,12.286,9.366 M158.809,564.164
		c1.802,24.52,36.125,3.086,65.998,34.979c17.502,18.65,32.902,50.488,9.502,69.467 M177.296,519.873
		c4.86,5.625,17.694,6.963,24.521,6.391 M246.106,253.943c-15.919,13.543,11.687,9.202-23.813,34.187
		c-7.181,5.079-0.71,11.823-15.264,26.459c-4.287,4.314,7.618,8.683-5.188,20.015c-0.71,0.628-8.929,11.878-8.792,13.38
		c-0.519,0.683-3.275,26.404-16.819,37.163c-2.321,1.828-9.748,20.671-9.748,23.29c9.639,12.182,7.072,16.248,6.471,34.434
		c0,0.109,22.199,10.896,25.612,19.252c2.976,7.318,3.386,21.57-13.707,32.494c-36.317,23.209,21.79,8.736-7.563,25.256
		c-6.335,3.551-12.752,36.508-20.261,46.447c-1.748,2.32-3.604,5.598-5.488,2.512C81.125,453.029,22.856,622.816,88.88,601.599
		 M308.663,222.896c3.44-3.304-14.09-11.878-9.064-16.493c2.729-2.54,2.074-1.447,4.643-3.332c0-6.499-18.432-29.162,13.217-30.364
		c2.596-0.109,43.361-17.121,48.852-21.954c22.909-20.07,23.21,10.403,51.443-17.694 M298.723,208.697
		c-10.485-7.455-4.751-18.431-39.156-25.421c-16.821-3.414-29.217-54.42-85.904-53.52c-34.896,0.546-11.439,21.38-57.861,25.067
		c-34.076,2.703-75.937,32.384-41.586,83.228 M340.392,253.342c-12.288,1.092-23.456-8.846-24.875-20.533
		c-0.247-1.857-6.827-9.749-6.854-9.912c-7.837,3.413-37.054,17.885-39.564,26.077c-3.495,1.338-22.228,4.369-22.991,4.97
		 M365.404,258.066c8.274,1.993,12.752,8.602,15.045,16.602c1.693,5.843,32.141-0.41,35.907-2.294
		c13.571-6.854,2.949-7.509,1.774-23.646c-0.438-5.98-11.031-12.288,1.312-14.8c2.43-0.492,29.544-9.53,31.701-10.813
		c-0.491-4.15-16.41-10.567-15.673-24.958c0.847-16.711,26.321-37.354,19.796-48.467"/>
	<path fill="#73746C" d="M117.878,199.604c-19.715-27.579-20.696-25.367-31.265,1.611C95.651,188,105.918,186.689,117.878,199.604z"
		/>
	<g id="_794338976">
		<path fill="#84716B" d="M44.808,546.55c-0.082,0.381-0.409,0.709-0.246,1.064c0.3,0.107,6.199,0.137,6.718,0.025l0.027-1.145
			c0.082-0.383-0.027-0.246,0.189-0.355c-0.026-1.557,1.583-4.369,3.577-3.549c2.458,1.01,1.885,3.549,2.349,5.215h7.29
			c0.767-2.539-2.266-5.135-3.468-7.072c-0.764-1.311-0.981-2.539-1.638-3.793c-1.064-2.158-3.142,0.217-3.468,0.189
			c-0.521-0.547-1.258-5.053-3.769-3.852c-2.048,1.063-2.267,5.135-2.647,5.463c-1.558,0.326-2.54-1.338-3.413,2.621
			C45.792,543.71,45.518,544.392,44.808,546.55L44.808,546.55z"/>
		<path fill="#84716B" d="M44.808,546.55c-0.327,0.139-0.573,0.955-0.302,1.201c0.247,0.137,6.362,0.164,6.938,0.055l0.055-1.666
			c-0.218,0.109-0.108-0.025-0.189,0.355l-0.027,1.145c-0.519,0.109-6.417,0.082-6.718-0.025
			C44.399,547.259,44.726,546.931,44.808,546.55z"/>
	</g>
	<path fill="#EDEDEE" d="M109.195,521.919l-2.293,16.711l-7.509-12.75c-6.335,1.5-11.032,0.955-7.864-9.285
		c-11.468-7.072-3.359-21.436,7.755-16.109c1.857-17.094,18.349-13.57,15.564,4.506
		C120.472,509.251,120.663,521.292,109.195,521.919L109.195,521.919z"/>
	<path id="Ocean" fill="#91D8F7" d="M489.92,321.279c-9.365,7.126-10.924-2.266-21.79-0.628c-3.604,0.546-4.396,1.556-6.989,2.703
		c0.816-4.56,7.563-4.615,10.157-7.4c1.829-2.021,0.683-4.888-0.685-6.171c-2.646-2.403-4.342-1.065-6.39,0.328
		c0.765-7.81,10.294-7.837,13.543-0.983c1.994,4.205,2.267,8.875,7.428,10.704c0.791,0.3,1.558,0.437,2.432,0.601
		C488.607,320.596,489.235,320.624,489.92,321.279L489.92,321.279z M476.265,304.868c-0.819-0.764-1.721-2.32-3.387-2.103
		c-2.132,0.301-1.146,1.338-3.112,0.492c-1.146-0.492-1.395-0.901-1.119-2.267C469.468,297.14,476.101,298.642,476.265,304.868z
		 M481.699,316.555c-0.601-1.583-1.584-3.522-0.792-5.707c1.912-5.516,9.202-0.055,3.577,1.611
		c-1.038,0.328-1.557,0.136-2.021,1.256C482.272,314.589,482.164,315.845,481.699,316.555L481.699,316.555z M464.469,316.555
		c-4.779,2.075-5.571-6.471-1.013-8.465c-1.609,6.636,3.088,4.369,2.075,7.291C465.315,316.036,465.124,316.254,464.469,316.555
		L464.469,316.555z"/>
	<g id="_794309824">
		<path fill="#BDBFC1" d="M393.01,336.979c5.352,1.884,3.85,4.751-9.148,1.529c-2.62-0.655-7.918,1.229-11.55,1.229
			c-0.355,0-12.287,0.464-9.502-1.912c0.464-0.382,8.546-1.556,4.068-2.02c-0.737-0.083-9.83-0.874-1.258-1.802
			c3.634-0.383,1.34-3.305-1.42-4.069c-2.13-0.601-2.866-2.321-1.12-3.495c1.969-1.311,2.214-4.724,7.646,0.792
			c6.362,6.472,9.063,0.027,14.308,7.045c0.792,1.065,13.98,0.055,10.485,1.993C395.058,336.516,392.328,336.761,393.01,336.979
			L393.01,336.979z"/>
		<path fill="#848688" d="M365.895,326.357c-0.354,0-0.683,0.246-0.683,0.519s0.326,0.519,0.683,0.519
			c0.383,0,0.71-0.245,0.71-0.519C366.605,326.604,366.278,326.357,365.895,326.357z"/>
	</g>
	<g id="_794341056">
		<path fill="#D32639" d="M412.534,512.855c7.893-5.434,14.526-4.971,20.099,0.49c0.955,0.875,0.765,0.656-0.139,1.641l-0.847,0.93
			l0.711,0.953c0.709,1.012,0.982,0.848,0.026,1.529c-6.116,4.424-12.942,3.441-20.099-0.438l-5.625,3.469
			c3.277-4.859,2.76-8.629,0.573-11.934L412.534,512.855z"/>
		<path fill="#B6D2DE" d="M435.853,508.896l5.515,5.023v0.027c0.792,0.816,0.849,1.938,0.465,2.865
			c-0.137,0.385-0.382,0.736-0.628,1.037c-0.271,0.303-0.601,0.574-0.929,0.738c-0.737,0.355-1.611,0.355-2.348-0.248v-0.025
			l-3.688-3.193l4.068,1.037l-0.438,0.631l0.792,0.682l0,0c0.355,0.271,0.767,0.271,1.12,0.109c0.191-0.109,0.409-0.273,0.573-0.465
			c0.19-0.191,0.327-0.439,0.438-0.711c0.218-0.572,0.218-1.23-0.221-1.691l-5.486-5.023L435.853,508.896L435.853,508.896z
			 M434.023,505.402c0.683,0,1.313,0.301,1.774,0.764c0.463,0.465,0.765,1.092,0.765,1.775c0,0.711-0.301,1.365-0.765,1.828l0,0
			c-0.466,0.438-1.094,0.738-1.774,0.738c-0.71,0-1.338-0.301-1.802-0.738h-0.028l0,0c-0.437-0.463-0.709-1.117-0.709-1.828
			c0-0.684,0.272-1.313,0.709-1.775l0,0C432.685,505.703,433.313,505.402,434.023,505.402z M435.008,506.958
			c-0.272-0.248-0.627-0.41-0.982-0.41c-0.409,0-0.765,0.162-1.011,0.41l0,0c-0.245,0.27-0.409,0.627-0.409,0.982
			c0,0.408,0.164,0.764,0.409,1.012l0,0c0.246,0.27,0.602,0.408,1.011,0.408c0.355,0,0.71-0.141,0.982-0.408l0,0
			c0.247-0.248,0.409-0.604,0.409-1.012C435.416,507.583,435.255,507.23,435.008,506.958z"/>
		<path fill="#FEFEFE" d="M426.705,512.882c0.603,0,1.12,0.49,1.12,1.094c0,0.602-0.52,1.117-1.12,1.117
			c-0.6,0-1.092-0.518-1.092-1.117C425.613,513.375,426.104,512.882,426.705,512.882z"/>
	</g>
	<g id="_794310688">
		<polygon fill="#C86254" points="347.574,315.79 306.396,315.736 312.103,320.241 341.76,320.323 		"/>
		<g>
			<path fill="#A62720" d="M318.632,314.698l4.148,0.136l0.438-3.986c1.119,1.447,2.266,2.266,3.494,2.43l1.093-1.338
				c-2.403-1.01-2.896-4.478-4.779-6.035C320.24,303.612,318.877,311.148,318.632,314.698L318.632,314.698z"/>
			<ellipse fill="#FFCC00" cx="323.736" cy="302.574" rx="2.268" ry="2.13"/>
			<path fill="#394380" d="M334.167,302.383c-1.938,2.021-2.896,3.986-2.813,5.871l-11.387,13.653
				c-2.104,0.137-3.659,1.748-5.106,3.741l2.979,2.785c1.938-2.02,2.895-3.987,2.839-5.843l11.358-13.653
				c2.104-0.164,3.658-1.748,5.105-3.741L334.167,302.383z"/>
			<ellipse fill="#FFCC00" cx="327.995" cy="313.142" rx="0.737" ry="0.656"/>
			<path fill="#A62720" d="M326.193,302.137l-4.123-1.311c1.829-1.065,3.852-1.201,4.097,0.874l1.585,0.464l-0.139,0.41
				L326.193,302.137L326.193,302.137z"/>
		</g>
	</g>
</g>
<g id="trail-path" display="none">
	<path display="inline" fill="none" stroke="#000000" stroke-width="2" stroke-miterlimit="10" d="M355.031,272.064
		c-11.023-0.039-28.539-24.628-39.514-39.255c-3.806-5.073-4.474-7.082-7.175-12.771c-3.186-6.706-4.962-7.281-8.746-13.633
		c-6.774-11.363-23.191-17.614-36.086-22.27c-12.52-4.518-17.551-14.894-28.384-22.676c-5.438-3.905-6.604-11.246-15.551-16.716
		c-3.921-5.692-9.753-4.554-14.855-9.291c-4.134-3.833-8.25-2.57-13.035-5.708c-8.438-5.533-23.158-6.759-33.155-8.694
		c-13.116-2.539-22.365,0.127-35.423,4.354c-7.627,2.468-20.969,6.593-27.838,8.057c-10.026,2.136-48.736,33.052-33.762,66.007
		c3.383,7.441,6.323,34.292,11.143,35.972"/>
</g>
<g id="camera-path" display="none">
	<path display="inline" fill="none" stroke="#3FFF00" stroke-miterlimit="10" d="M355.031,272.064
		c-5.048,2.579-22.59-15.928-27.036-18.622c-7.2-4.362-13.688-15.602-19.209-21.938c-10.201-11.71-24.165-22.527-32.5-35.441
		c-5.311-8.228-5.035-18.988-12-25.675c-9.253-8.882-21.041-19.269-31.646-26.564c-17.647-12.137-16.843-20.08-38.354-22.772
		c-26.945-3.372-37.31-7.96-64.476-7.984c-13.396-0.012-16.48-0.393-27.564,6.995c-6.008,4.005-27.757,17.223-29.597,19.899
		c-10.529,15.321-19.431,13.443-19.431,39.965c0,33.035,10.059,48.608,19.431,55.514"/>
</g>
<g id="points" display="none">
	<circle id="Vachkazhets" display="inline" fill="#405B54" cx="72.65" cy="234.51" r="6.447"/>
	<circle id="start" display="inline" fill="#405B54" cx="354.871" cy="272.064" r="4.001"/>
</g>
<text transform="matrix(1 0 0 1 376.2449 239.6138)" fill="#C6C6C6" font-family="'Arial'" font-size="8.7955">Petropavlovsk</text>
<text transform="matrix(1 0 0 1 376.2449 250.1685)" fill="#C6C6C6" font-family="'Arial'" font-size="8.7955">Kamchatsky</text>
</svg>
