<?xml version="1.0" encoding="utf-8"?>
<!-- Generator: Adobe Illustrator 18.1.1, SVG Export Plug-In . SVG Version: 6.00 Build 0)  -->
<!DOCTYPE svg PUBLIC "-//W3C//DTD SVG 1.1//EN" "http://www.w3.org/Graphics/SVG/1.1/DTD/svg11.dtd">
<svg version="1.1" id="Layer_1" xmlns="http://www.w3.org/2000/svg" xmlns:xlink="http://www.w3.org/1999/xlink" x="0px" y="0px"
	 viewBox="123.4 0.1 595 595" enable-background="new 123.4 0.1 595 595" xml:space="preserve">
<rect x="123.3" fill="#FFFFFF" fill-opacity="0" width="595.3" height="595.3"/>
<g>
	<path fill="#ffffff" d="M317.1,545.8l248-248l0,0l0,0l-11.8-12.4L317.1,49.6L204.9,161.8l135.8,135.8L204.9,433.6L317.1,545.8z
		 M516.7,297.6L317.1,496.8l-63.2-63.2l135.8-135.8L253.9,161.8L317.7,98L516.7,297.6z">

	</path>
</g>
<g>
	<path fill="#ffffff" d="M317.1,545.8l248-248l0,0l0,0l-11.8-12.4L317.1,49.6L204.9,161.8l135.8,135.8L204.9,433.6L317.1,545.8z
		 M516.7,297.6L317.1,496.8l-63.2-63.2l135.8-135.8L253.9,161.8L317.7,98L516.7,297.6z">
		 <animate id="anim1" attributeName="d" attributeType="XML"
             from="M317.1,545.8l248-248l0,0l0,0l-11.8-12.4L317.1,49.6L204.9,161.8l135.8,135.8L204.9,433.6L317.1,545.8z
		 M516.7,297.6L317.1,496.8l-63.2-63.2l135.8-135.8L253.9,161.8L317.7,98L516.7,297.6z"  
		 to="M406.1,545.8l248-248l0,0l0,0l-11.8-12.4L406.1,49.6L293.9,161.8l135.8,135.8L293.9,433.6L406.1,545.8z
		 M605.7,297.6L406.1,496.8l-63.2-63.2l135.8-135.8L342.9,161.8L406.7,98L605.7,297.6z"
            begin= "1s; anim2.end + 0.5s" dur="0.3s" fill="freeze"/>

            <animate id="anim2" attributeName="d" attributeType="XML"
             to="M317.1,545.8l248-248l0,0l0,0l-11.8-12.4L317.1,49.6L204.9,161.8l135.8,135.8L204.9,433.6L317.1,545.8z
		 M516.7,297.6L317.1,496.8l-63.2-63.2l135.8-135.8L253.9,161.8L317.7,98L516.7,297.6z"  
		 from="M406.1,545.8l248-248l0,0l0,0l-11.8-12.4L406.1,49.6L293.9,161.8l135.8,135.8L293.9,433.6L406.1,545.8z
		 M605.7,297.6L406.1,496.8l-63.2-63.2l135.8-135.8L342.9,161.8L406.7,98L605.7,297.6z"
            begin= "anim1.end + 3s" dur="0.2s" fill="freeze"/>
		 </path>
</g>
</svg>
