<?xml version="1.0" encoding="utf-8"?>
<!-- Generator: Adobe Illustrator 18.1.1, SVG Export Plug-In . SVG Version: 6.00 Build 0)  -->
<!DOCTYPE svg PUBLIC "-//W3C//DTD SVG 1.1//EN" "http://www.w3.org/Graphics/SVG/1.1/DTD/svg11.dtd">
<svg version="1.1" id="Layer_1" xmlns="http://www.w3.org/2000/svg" xmlns:xlink="http://www.w3.org/1999/xlink" x="0px" y="0px"
	 viewBox="0 16 182.7 84" enable-background="new 0 16 182.7 84" xml:space="preserve">
<g>
	<path fill="#AB936D" d="M82.8,75.5V45.9c0-2.4-1.9-4.2-4.2-4.2H21.5c-2.4,0-4.2,1.9-4.2,4.2v29.6c0,2.4,1.9,4.2,4.2,4.2h57.1
		C80.9,79.8,82.8,77.9,82.8,75.5z M78.9,54.8v11.8c0,0.5-0.5,1-1,1s-1-0.4-1-0.9V54.8c0-0.5,0.5-1,1-1
		C78.5,53.8,78.9,54.3,78.9,54.8z M19.8,60.8c0-1.7,1.4-3.1,3.1-3.1c1.7,0,3.1,1.4,3.1,3.1c0,1.7-1.4,3.1-3.1,3.1
		S19.8,62.5,19.8,60.8z M29.2,75.3V46.2h44.5v29L29.2,75.3L29.2,75.3z	">
		<animateTransform id="anim1" attributeName="transform" attributeType="XML" type="rotate" from="0 50 60" to="-90 50 60" begin="1s; anim2.end + 0.5s" dur="0.75s" fill="freeze"/>
		<animateTransform id="anim2" attributeName="transform" attributeType="XML" type="rotate" from="-90 50 60" to="0 50 60" begin="anim1.end + 0.5s" dur="0.3s" fill="freeze"/>
	</path>
</g>
<g>
	<g>
		<path fill="#AB936D" d="M167.9,65.7h-4.9c0-13.7-11.2-24.9-24.9-24.9v-4.7C154.8,36.2,167.9,49.5,167.9,65.7z"/>
	</g>
	<g>
		<polygon fill="#AB936D" points="141.4,44.8 134.6,38.5 141.6,32.9 143.1,34.9 138.4,38.7 143.1,43 		"/>
	</g>
	<g>
		<g>
			<path fill="#AB936D" d="M110.4,76.7v-3.2c4.3,0,7.2-2.2,7.6-5.4c-0.7,0.4-2.3,1.1-4.1,1.1c-3.2,0-5.8-2.2-5.8-5.8
				c0-4,3.6-6.9,8.3-6.9c4.9,0,7.8,3.1,7.8,8.1C124.3,72.4,118.2,76.9,110.4,76.7z M116.2,58.9c-1.4,0-2,1.6-2,3.8
				c0,1.6,0.5,3.6,2.2,3.6c0.5,0,1.3-0.4,1.8-0.7c0-0.2,0-1.1,0-1.4C118.4,61.6,118.2,58.9,116.2,58.9z"/>
		</g>
		<g>
			<path fill="#AB936D" d="M134.2,77.1c-5,0-8.1-3.8-8.1-9.9c0-6.3,3.2-10.8,8.7-10.8c5,0,8.1,3.8,8.1,9.9
				C142.9,72.4,139.6,77.1,134.2,77.1z M134.4,59.2c-1.8,0-2,4-2,7.2c0,4.3,0.5,7.6,2,7.6c1.8,0,2-4,2-7.2
				C136.6,62.5,136,59.2,134.4,59.2z"/>
		</g>
		<g>
			<path fill="#AB936D" d="M148.7,60.1c-2,0-3.2-0.9-3.2-2.7c0-1.6,1.1-2.9,3.4-2.9c2.2,0,3.2,1.1,3.2,2.7
				C151.9,59.1,150.6,60.1,148.7,60.1z M148.7,55.8c-0.7,0-1.1,0.7-1.1,1.4c0,0.7,0.4,1.6,1.1,1.6s1.1-0.7,1.1-1.4
				S149.4,55.8,148.7,55.8z"/>
		</g>
	</g>
	<g>
		<rect x="160.7" y="64.6" fill="#AB936D" width="9.7" height="2.5"/>
	</g>
</g>
</svg>
