<?xml version="1.0" encoding="UTF-8"?>
<!DOCTYPE svg PUBLIC "-//W3C//DTD SVG 1.1//EN" "http://www.w3.org/Graphics/SVG/1.1/DTD/svg11.dtd">
<!-- Creator: CorelDRAW X7 -->
<svg xmlns="http://www.w3.org/2000/svg" xml:space="preserve" width="3770px" height="1153px" version="1.1" style="shape-rendering:geometricPrecision; text-rendering:geometricPrecision; image-rendering:optimizeQuality; fill-rule:evenodd; clip-rule:evenodd"
viewBox="0 0 557038 170354"
 xmlns:xlink="http://www.w3.org/1999/xlink">
 <defs>
  <style type="text/css">
               @media screen and  (max-width: 104px){
               #TextUp, #TextLine  {display: none;}
			   	}
               @media screen and  (max-width: 176px){
               #TextDown  {display: none;}
			   	}
  </style>
 </defs>
 <g id="Слой_x0020_1">
  <metadata id="CorelCorpID_0Corel-Layer"/>

  <g id="_219828768">
   <path fill="#7C7C7C" fill-rule="nonzero" d="M39697 30390l13813 0 0 21230 -13813 0 0 54237 -28937 0 0 -54237 -10760 0 0 -21230 10760 0 0 -3392c0,-3078 340,-6447 994,-10131 654,-3683 1890,-6713 3732,-9039 1818,-2327 4362,-4217 7658,-5671 3272,-1430 8095,-2157 14420,-2157 5065,0 12408,582 22053,1769l-3150 17401c-3466,-558 -6253,-849 -8385,-849 -2618,0 -4484,437 -5623,1309 -1139,873 -1938,2254 -2399,4168 -242,1018 -363,3224 -363,6592z"/>
   <polygon fill="#AB936D" points="2530,119593 61816,119593 59286,129173 0,129173 "/>
  </g>

  <g id="TextUp"> 
  <path fill="#7C7C7C" fill-rule="nonzero" d="M89428 54779l-27627 -2908c1042,-4847 2544,-8652 4507,-11415 1963,-2786 4774,-5186 8482,-7221 2642,-1479 6277,-2618 10906,-3418 4629,-799 9646,-1211 15050,-1211 8652,0 15583,484 20842,1454 5234,969 9621,3005 13111,6083 2472,2132 4410,5162 5816,9064 1430,3901 2133,7633 2133,11196l0 33347c0,3562 218,6349 678,8361 436,2011 1430,4580 2933,7707l-27070 0c-1091,-1939 -1794,-3393 -2133,-4411 -315,-1018 -655,-2593 -994,-4750 -3780,3635 -7537,6228 -11293,7779 -5114,2084 -11051,3127 -17813,3127 -8991,0 -15825,-2085 -20478,-6277 -4677,-4169 -7004,-9331 -7004,-15438 0,-5743 1672,-10469 5041,-14177 3369,-3708 9573,-6471 18612,-8264 10833,-2181 17861,-3708 21084,-4605 3224,-872 6641,-2011 10227,-3441 0,-3563 -727,-6035 -2205,-7464 -1454,-1430 -4023,-2133 -7707,-2133 -4725,0 -8264,751 -10639,2278 -1842,1212 -3320,3441 -4459,6737zm25010 15123c-3974,1430 -8118,2690 -12456,3804 -5865,1576 -9597,3127 -11148,4654 -1624,1575 -2424,3368 -2424,5380 0,2302 800,4192 2375,5647 1600,1454 3926,2181 7004,2181 3223,0 6228,-800 9016,-2376 2762,-1575 4725,-3489 5889,-5767 1163,-2278 1744,-5235 1744,-8870l0 -4653zm45804 -39551l27094 0 0 12311c2618,-5356 5308,-9040 8071,-11051 2787,-2012 6204,-3005 10275,-3005 4290,0 8967,1333 14032,3998l-8967 20527c-3417,-1430 -6131,-2132 -8118,-2132 -3781,0 -6738,1575 -8822,4701 -2981,4411 -4483,12675 -4483,24768l0 25350 -29082 0 0 -75467zm71783 0l26949 0 0 10978c3878,-4605 7804,-7876 11754,-9815 3951,-1939 8725,-2908 14323,-2908 6010,0 10760,1066 14274,3199 3514,2132 6374,5307 8604,9524 4531,-4920 8651,-8288 12384,-10058 3732,-1769 8336,-2665 13813,-2665 8070,0 14372,2399 18904,7222 4531,4798 6809,12335 6809,22562l0 47428 -28936 0 0 -43114c0,-3441 -654,-5986 -1987,-7634 -1915,-2617 -4338,-3926 -7198,-3926 -3393,0 -6131,1236 -8215,3708 -2060,2472 -3103,6446 -3103,11899l0 39067 -28936 0 0 -41587c0,-3320 -194,-5574 -581,-6762 -606,-1890 -1673,-3417 -3199,-4580 -1503,-1163 -3296,-1745 -5332,-1745 -3320,0 -6059,1260 -8191,3756 -2133,2521 -3199,6641 -3199,12384l0 38534 -28937 0 0 -75467zm146136 -28646l28936 0 0 19630 -28936 0 0 -19630zm0 28646l28936 0 0 75467 -28936 0 0 -75467zm48421 -28646l28936 0 0 104113 -28936 0 0 -104113zm41611 28646l30487 0 15535 50238 14347 -50238 28476 0 -29858 80677c-3392,9161 -6882,15341 -10420,18540 -5017,4532 -12651,6785 -22927,6785 -4168,0 -10590,-581 -19290,-1696l-2279 -20188c4169,1309 8798,1963 13911,1963 3417,0 6180,-775 8289,-2326 2108,-1527 3877,-4290 5356,-8264l-31627 -75491z"/>
 </g>
 
 <g id="TextDown">
  <path fill="#AB936D" fill-rule="nonzero" d="M22521 155029l5237 848c-866,2335 -2137,4113 -3831,5332 -1688,1220 -3645,1829 -5872,1829 -2541,0 -4557,-763 -6045,-2284 -1489,-1521 -2234,-3613 -2234,-6283 0,-2176 450,-4235 1355,-6174 898,-1938 2258,-3459 4075,-4575 1816,-1110 3805,-1669 5974,-1669 2355,0 4236,616 5635,1855 1405,1232 2195,2856 2368,4871l-5121 552c-129,-1123 -469,-1951 -1027,-2478 -559,-532 -1284,-795 -2188,-795 -1040,0 -2016,391 -2914,1168 -905,783 -1598,1951 -2079,3504 -482,1553 -725,3009 -725,4370 0,1187 288,2098 860,2740 577,642 1296,963 2162,963 860,0 1694,-315 2497,-944 795,-628 1424,-1572 1873,-2830zm36017 -808l-13560 0c-13,212 -19,378 -19,494 0,1341 385,2419 1148,3241 764,821 1701,1232 2798,1232 1810,0 3222,-924 4236,-2772l4813 808c-944,1938 -2201,3389 -3780,4357 -1579,970 -3343,1457 -5307,1457 -2689,0 -4877,-853 -6559,-2554 -1688,-1707 -2528,-3959 -2528,-6770 0,-2740 757,-5179 2278,-7323 2066,-2894 5025,-4338 8862,-4338 2445,0 4390,758 5834,2272 1444,1515 2163,3639 2163,6366 0,1309 -129,2484 -379,3530zm-4550 -3273c13,-244 19,-424 19,-552 0,-1495 -334,-2618 -1001,-3369 -661,-751 -1553,-1123 -2676,-1123 -1117,0 -2118,423 -3003,1277 -886,847 -1483,2105 -1797,3767l8458 0zm19324 -8394l6642 0 2093 13810 7996 -13810 6314 0 -4184 19984 -4524 0 2753 -13085 -7508 13085 -4505 0 -1964 -13329 -2804 13329 -4493 0 4184 -19984zm52452 11667l-13560 0c-13,212 -19,378 -19,494 0,1341 385,2419 1148,3241 764,821 1701,1232 2798,1232 1810,0 3222,-924 4236,-2772l4813 808c-943,1938 -2201,3389 -3780,4357 -1579,970 -3343,1457 -5307,1457 -2689,0 -4877,-853 -6559,-2554 -1688,-1707 -2528,-3959 -2528,-6770 0,-2740 757,-5179 2278,-7323 2066,-2894 5025,-4338 8862,-4338 2445,0 4390,758 5834,2272 1444,1515 2163,3639 2163,6366 0,1309 -129,2484 -379,3530zm-4550 -3273c13,-244 19,-424 19,-552 0,-1495 -334,-2618 -1001,-3369 -661,-751 -1553,-1123 -2676,-1123 -1117,0 -2118,423 -3003,1277 -886,847 -1483,2105 -1797,3767l8458 0zm19549 -8394l5397 0 -2669 11859c-328,1425 -488,2311 -488,2664 0,577 193,1071 577,1488 386,418 880,623 1483,623 430,0 853,-96 1277,-283 417,-186 847,-474 1290,-860 443,-384 841,-821 1194,-1315 353,-494 680,-1142 988,-1951 212,-597 462,-1495 738,-2689l2150 -9536 5390 0 -4537 19984 -5031 0 533 -2567c-2028,2047 -4236,3067 -6630,3067 -1508,0 -2701,-475 -3561,-1418 -867,-943 -1303,-2214 -1303,-3799 0,-693 231,-2066 693,-4126l2509 -11141zm3639 -8048l2580 0c289,1021 674,1727 1155,2131 481,404 1091,603 1829,603 1495,0 2734,-911 3716,-2734l2464 0c-514,1733 -1341,3081 -2490,4037 -1149,956 -2432,1431 -3844,1431 -1457,0 -2663,-456 -3613,-1367 -950,-911 -1547,-2278 -1797,-4101zm28206 8048l5320 0 -1546 7393 7463 0 1547 -7393 5390 0 -4184 19984 -5390 0 1758 -8394 -7463 0 -1759 8394 -5320 0 4184 -19984zm35516 5583l-5275 -443c603,-1771 1656,-3151 3157,-4145 1502,-995 3485,-1496 5962,-1496 2573,0 4479,520 5705,1553 1232,1040 1848,2304 1848,3799 0,604 -51,1245 -160,1919 -109,681 -481,2465 -1123,5352 -533,2388 -796,4063 -796,5019 0,853 154,1797 456,2843l-5269 0c-205,-725 -334,-1483 -385,-2259 -789,879 -1701,1559 -2727,2041 -1027,481 -2067,718 -3106,718 -1656,0 -3023,-545 -4101,-1636 -1078,-1091 -1617,-2490 -1617,-4204 0,-1912 590,-3446 1777,-4588 1188,-1149 3305,-1842 6354,-2079 2573,-218 4293,-475 5159,-777 225,-757 340,-1360 340,-1810 0,-583 -231,-1065 -699,-1456 -462,-392 -1155,-584 -2073,-584 -963,0 -1726,192 -2285,584 -558,385 -943,937 -1142,1649zm5140 5044c-327,90 -757,173 -1296,250 -2708,328 -4479,809 -5307,1444 -591,462 -886,1078 -886,1849 0,641 225,1174 680,1617 450,436 1047,654 1784,654 816,0 1586,-199 2304,-603 726,-398 1265,-911 1618,-1540 359,-629 673,-1611 949,-2946l154 -725zm38635 -10627l-4300 19984 -5390 0 1636 -7817 -1431 0c-712,0 -1348,186 -1900,565 -558,372 -1347,1251 -2374,2644l-3363 4608 -6513 0 4511 -5853c834,-1091 1791,-1932 2875,-2522 -757,-90 -1553,-552 -2387,-1380 -841,-834 -1258,-1970 -1258,-3401 0,-1694 597,-3254 1790,-4685 1194,-1431 3671,-2143 7432,-2143l10672 0zm-6212 3388l-3742 0c-1289,64 -2143,154 -2567,276 -423,116 -853,449 -1289,988 -437,540 -655,1111 -655,1714 0,744 282,1348 841,1822 558,469 1842,706 3837,706l2420 0 1155 -5506zm62487 -11436l-2080 9537c1264,-1277 2856,-1913 4775,-1913 1925,0 3529,758 4800,2272 1271,1508 1906,3549 1906,6109 0,3241 -956,6142 -2875,8696 -1919,2554 -4235,3831 -6950,3831 -1816,0 -3504,-917 -5057,-2753l-2028 10069 -5275 0 1938 -9074c-1585,1174 -3106,1758 -4576,1758 -1880,0 -3439,-751 -4671,-2259 -1233,-1508 -1849,-3542 -1849,-6103 0,-3343 937,-6270 2805,-8779 1867,-2509 4088,-3767 6661,-3767 2034,0 3729,880 5089,2631l2111 -10255 5276 0zm-16436 19670c0,1354 270,2496 809,3427 539,930 1277,1392 2221,1392 1212,0 2297,-795 3247,-2393 956,-1598 1431,-3472 1431,-5628 0,-1592 -302,-2779 -899,-3556 -603,-776 -1277,-1168 -2034,-1168 -1155,0 -2233,854 -3254,2561 -1013,1707 -1521,3497 -1521,5365zm12380 77c0,1258 276,2361 828,3311 558,956 1322,1431 2291,1431 1257,0 2374,-795 3356,-2381 982,-1591 1476,-3452 1476,-5602 0,-1540 -302,-2721 -911,-3536 -604,-815 -1310,-1226 -2118,-1226 -1175,0 -2291,847 -3344,2535 -1052,1688 -1578,3510 -1578,5468zm43415 -32l-13560 0c-13,212 -19,378 -19,494 0,1341 385,2419 1149,3241 763,821 1700,1232 2798,1232 1809,0 3221,-924 4235,-2772l4813 808c-943,1938 -2201,3389 -3780,4357 -1578,970 -3343,1457 -5307,1457 -2689,0 -4877,-853 -6558,-2554 -1688,-1707 -2529,-3959 -2529,-6770 0,-2740 757,-5179 2278,-7323 2067,-2894 5025,-4338 8863,-4338 2445,0 4389,758 5833,2272 1444,1515 2163,3639 2163,6366 0,1309 -129,2484 -379,3530zm-4550 -3273c13,-244 20,-424 20,-552 0,-1495 -334,-2618 -1002,-3369 -661,-751 -1553,-1123 -2676,-1123 -1116,0 -2117,423 -3003,1277 -886,847 -1482,2105 -1797,3767l8458 0zm19145 -8394l5115 0 -404 2034c1091,-905 2117,-1559 3074,-1951 950,-391 1976,-584 3067,-584 2099,0 3786,725 5064,2169 1277,1451 1912,3607 1912,6476 0,3606 -1104,6661 -3311,9151 -1887,2124 -4127,3189 -6713,3189 -2663,0 -4672,-1065 -6033,-3196l-2124 10320 -5384 0 5737 -27608zm3235 11461c0,1579 385,2805 1148,3671 771,873 1669,1309 2709,1309 898,0 1764,-327 2599,-975 834,-655 1527,-1733 2072,-3247 552,-1509 828,-2914 828,-4204 0,-1502 -359,-2656 -1084,-3459 -719,-802 -1637,-1206 -2747,-1206 -1039,0 -1983,366 -2836,1104 -854,738 -1515,1822 -1983,3253 -469,1431 -706,2683 -706,3754zm28623 -11461l6642 0 2092 13810 7996 -13810 6315 0 -4184 19984 -4524 0 2753 -13085 -7509 13085 -4505 0 -1963 -13329 -2805 13329 -4492 0 4184 -19984zm40624 5583l-5275 -443c604,-1771 1656,-3151 3158,-4145 1501,-995 3484,-1496 5961,-1496 2574,0 4480,520 5705,1553 1233,1040 1849,2304 1849,3799 0,604 -52,1245 -161,1919 -109,681 -481,2465 -1123,5352 -532,2388 -796,4063 -796,5019 0,853 154,1797 456,2843l-5269 0c-205,-725 -333,-1483 -385,-2259 -789,879 -1700,1559 -2727,2041 -1027,481 -2066,718 -3106,718 -1656,0 -3023,-545 -4101,-1636 -1078,-1091 -1617,-2490 -1617,-4204 0,-1912 590,-3446 1778,-4588 1187,-1149 3305,-1842 6353,-2079 2573,-218 4293,-475 5160,-777 224,-757 340,-1360 340,-1810 0,-583 -231,-1065 -700,-1456 -462,-392 -1155,-584 -2073,-584 -962,0 -1726,192 -2284,584 -559,385 -944,937 -1143,1649zm5141 5044c-328,90 -758,173 -1297,250 -2708,328 -4479,809 -5307,1444 -590,462 -885,1078 -885,1849 0,641 224,1174 680,1617 449,436 1046,654 1784,654 815,0 1585,-199 2304,-603 725,-398 1264,-911 1617,-1540 359,-629 674,-1611 950,-2946l154 -725z"/>
 </g>

 <g id="TextLine">
 <polygon fill="#AB936D" points="2530,119593 455518,119593 453061,129173 0,129173 "/>
 </g>  

 </g>
</svg>
