<?xml version="1.0" encoding="UTF-8"?>
<!DOCTYPE svg PUBLIC "-//W3C//DTD SVG 1.1//EN" "http://www.w3.org/Graphics/SVG/1.1/DTD/svg11.dtd">
<!-- Creator: CorelDRAW X7 -->
<svg xmlns="http://www.w3.org/2000/svg" xml:space="preserve" width="3769px" height="1114px" version="1.1" style="shape-rendering:geometricPrecision; text-rendering:geometricPrecision; image-rendering:optimizeQuality; fill-rule:evenodd; clip-rule:evenodd"
viewBox="0 0 17446918 5154883"
 xmlns:xlink="http://www.w3.org/1999/xlink">
 <defs>
  <style type="text/css">
   <![CDATA[
    .fil0 {fill:#7C7C7C;fill-rule:nonzero}
    .fil1 {fill:#AB936D;fill-rule:nonzero}
   ]]>
  </style>
 </defs>
 <g id="Слой_x0020_1">
  <metadata id="CorelCorpID_0Corel-Layer"/>
  <g id="_279249752">
   <path class="fil0" d="M1243880 952272l432850 0 0 665220 -432850 0 0 1699509 -906710 0 0 -1699509 -337170 0 0 -665220 337170 0 0 -106315c0,-96440 10629,-201996 31134,-317426 20504,-115425 59232,-210350 116944,-283247 56958,-72902 136695,-132134 239970,-177697 102515,-44808 253633,-67587 451834,-67587 158713,0 388808,18224 691039,55438l-98715 545235c-108595,-17464 -195927,-26579 -262748,-26579 -82017,0 -140489,13669 -176183,41008 -35688,27339 -60747,70622 -75176,130614 -7595,31894 -11389,101001 -11389,206556z"/>
   <path id="1" class="fil0" d="M2794550 1717733l-865701 -91126c32654,-151878 79737,-271103 141244,-357674 61512,-87326 149598,-162508 265788,-226295 82771,-46323 196681,-82016 341725,-107075 145043,-25059 302236,-37968 471578,-37968 271098,0 488283,15189 653071,45563 164028,30373 301476,94166 410826,190606 77462,66827 138209,161748 182258,284013 44803,122259 66821,239204 66821,350834l0 1044918c0,111630 6835,198956 21264,261988 13670,63027 44803,143524 91886,241484l-848231 0c-34174,-60752 -56198,-106315 -66827,-138209 -9875,-31893 -20505,-81256 -31134,-148838 -118465,113905 -236169,195161 -353880,243764 -160227,65307 -346279,97961 -558144,97961 -281732,0 -495883,-65307 -641681,-196681 -146564,-130614 -219466,-292367 -219466,-483734 0,-179972 52398,-328055 157953,-444240 105556,-116185 299957,-202756 583209,-258948 339445,-68347 559670,-116190 660665,-144284 101001,-27338 208071,-63032 320461,-107835 0,-111630 -22779,-189086 -69102,-233889 -45563,-44803 -126059,-66827 -241484,-66827 -148083,0 -258953,23538 -333375,71381 -57713,37969 -104036,107836 -139724,211111zm783685 473859c-124539,44803 -254394,84291 -390322,119219 -183772,49363 -300717,97966 -349320,145804 -50877,49363 -75936,105555 -75936,168588 0,72141 25059,131368 74416,176937 50123,45562 123025,68341 219466,68341 100995,0 195161,-25059 282492,-74422 86571,-49357 148078,-109350 184532,-180731 36448,-71382 54672,-164028 54672,-277938l0 -145798z"/>
   <path id="2" class="fil0" d="M5013476 952272l848991 0 0 385768c82017,-167828 166308,-283252 252879,-346279 87331,-63033 194401,-94166 321981,-94166 134409,0 280972,41768 439685,125299l-280972 643201c-107076,-44803 -192127,-66827 -254399,-66827 -118465,0 -211105,49358 -276418,147324 -93400,138203 -140483,397157 -140483,776090l0 794319 -911264 0 0 -2364729z"/>
   <path id="3" class="fil0" d="M7262780 952272l844437 0 0 344000c121505,-144284 244524,-246799 368303,-307551 123780,-60753 273378,-91126 448795,-91126 188332,0 337170,33413 447280,100240 110110,66827 199721,166303 269583,298437 142003,-154153 271103,-259708 388048,-315146 116944,-55432 261228,-83531 432850,-83531 252874,0 450315,75182 592324,226300 142003,150358 213385,386527 213385,706988l0 1486118 -906709 0 0 -1350949c0,-107830 -20504,-187567 -62267,-239204 -59993,-82017 -135929,-123025 -225540,-123025 -106316,0 -192121,38728 -257434,116190 -64547,77456 -97201,201996 -97201,372858l0 1224130 -906704 0 0 -1303106c0,-104035 -6074,-174663 -18229,-211871 -18984,-59232 -52398,-107075 -100235,-143523 -47083,-36449 -103281,-54678 -167068,-54678 -104035,0 -189846,39488 -256674,117705 -66821,78976 -100235,208076 -100235,388047l0 1207426 -906709 0 0 -2364729z"/>
   <path id="4" class="fil0" d="M11841879 54678l906710 0 0 615102 -906710 0 0 -615102zm0 897594l906710 0 0 2364729 -906710 0 0 -2364729z"/>
   <polygon id="5" class="fil0" points="13359136,54678 14265846,54678 14265846,3317001 13359136,3317001 "/>
   <path id="6" class="fil0" d="M14663008 952272l955307 0 486769 1574210 449554 -1574210 892280 0 -935563 2527997c-106315,287047 -215665,480693 -326535,580929 -157193,142009 -396402,212630 -718383,212630 -130614,0 -331850,-18224 -604467,-53157l-71388 -632567c130620,41003 275658,61507 435891,61507 107075,0 193641,-24299 259708,-72902 66067,-47837 121505,-134408 167828,-258948l-991001 -2365489z"/>
   <path class="fil1" d="M1032364 4497323l224693 36350c-37170,100230 -91695,176505 -164389,228821 -72420,52321 -156405,78479 -251955,78479 -109043,0 -195505,-32768 -259391,-98026 -63880,-65264 -95822,-155028 -95822,-269578 0,-93351 19274,-181738 58100,-264897 38548,-83159 96927,-148423 174854,-196331 77927,-47641 163290,-71595 256362,-71595 101055,0 181738,26431 241763,79578 60304,52868 94177,122533 101613,209000l-219739 23681c-5511,-48188 -20105,-83712 -44059,-106288 -23954,-22856 -55071,-34146 -93898,-34146 -44606,0 -86462,16797 -125015,50112 -38827,33594 -68566,83711 -89218,150347 -20652,66641 -31111,129149 -31111,187523 0,50943 12390,90043 36896,117579 24780,27535 55624,41303 92799,41303 36897,0 72694,-13494 107114,-40478 34146,-26983 61129,-67461 80403,-121434z"/>
   <path id="1" class="fil1" d="M2205956 4462630l-581837 0c-552,9082 -825,16245 -825,21199 0,57554 16518,103811 49286,139056 32768,35251 72973,52874 120056,52874 77653,0 138231,-39653 181738,-118957l206523 34693c-40478,83159 -94450,145393 -162191,186970 -67734,41583 -143457,62508 -227721,62508 -115376,0 -209274,-36623 -281416,-109591 -72420,-73246 -108491,-169900 -108491,-290508 0,-117579 32489,-222215 97753,-314183 88665,-124190 215605,-186145 380272,-186145 104910,0 188343,32489 250298,97474 61961,64990 92799,156132 92799,273159 0,56176 -5506,106567 -16244,151451zm-195233 -140434c553,-10465 826,-18175 826,-23681 0,-64158 -14320,-112351 -42955,-144568 -28361,-32216 -66635,-48187 -114828,-48187 -47909,0 -90869,18175 -128865,54798 -38001,36350 -63612,90317 -77101,161638l362923 0z"/>
   <polygon id="2" class="fil1" points="2468103,3962023 2753099,3962023 2842864,4554598 3185966,3962023 3456922,3962023 3277387,4819495 3083254,4819495 3201385,4258037 2879213,4819495 2685911,4819495 2601647,4247572 2481318,4819495 2288563,4819495 "/>
   <path id="3" class="fil1" d="M4346889 4462630l-581837 0c-552,9082 -825,16245 -825,21199 0,57554 16518,103811 49286,139056 32768,35251 72973,52874 120056,52874 77653,0 138231,-39653 181738,-118957l206523 34693c-40478,83159 -94450,145393 -162191,186970 -67734,41583 -143457,62508 -227721,62508 -115376,0 -209274,-36623 -281416,-109591 -72420,-73246 -108491,-169900 -108491,-290508 0,-117579 32489,-222215 97753,-314183 88665,-124190 215605,-186145 380272,-186145 104910,0 188343,32489 250298,97474 61961,64990 92799,156132 92799,273159 0,56176 -5506,106567 -16244,151451zm-195233 -140434c553,-10465 826,-18175 826,-23681 0,-64158 -14320,-112351 -42955,-144568 -28361,-32216 -66635,-48187 -114828,-48187 -47909,0 -90869,18175 -128865,54798 -38001,36350 -63612,90317 -77101,161638l362923 0z"/>
   <path id="4" class="fil1" d="M4618670 3962023l231576 0 -114550 508864c-14041,61129 -20925,99130 -20925,114276 0,24786 8262,45984 24786,63886 16518,17896 37722,26710 63606,26710 18448,0 36623,-4134 54798,-12117 17896,-7988 36344,-20378 55345,-36896 19001,-16524 36071,-35251 51217,-56450 15145,-21204 29187,-49018 42408,-83711 9087,-25611 19826,-64159 31664,-115376l92246 -409186 231303 0 -194680 857472 -215884 0 22856 -110142c-87014,87839 -181738,131620 -284445,131620 -64711,0 -115927,-20379 -152829,-60856 -37170,-40478 -55897,-94997 -55897,-163011 0,-29739 9913,-88665 29739,-177057l107666 -478026zm156132 -345300l110695 0c12390,43780 28913,74071 49565,91415 20652,17349 46810,25885 78474,25885 64159,0 117305,-39100 159434,-117300l105742 0c-22030,74345 -57554,132172 -106841,173197 -49292,41030 -104363,61408 -164940,61408 -62508,0 -114277,-19553 -155028,-58653 -40757,-39100 -66362,-97752 -77101,-175952z"/>
   <polygon id="5" class="fil1" points="5613274,3962023 5841548,3962023 5775185,4279236 6095433,4279236 6161795,3962023 6393093,3962023 6213558,4819495 5982255,4819495 6057705,4459322 5737463,4459322 5662013,4819495 5433739,4819495 "/>
   <path id="6" class="fil1" d="M6765382 4201588l-226344 -19000c25879,-76002 71043,-135202 135475,-177883 64432,-42682 149522,-64159 255810,-64159 110422,0 192203,22303 244797,66636 52868,44606 79305,98857 79305,163016 0,25879 -2204,53420 -6884,82328 -4686,29192 -20652,105741 -48193,229652 -22850,102433 -34141,174301 -34141,215331 0,36624 6605,77102 19548,121986l-226071 0c-8808,-31117 -14320,-63606 -16518,-96927 -33873,37722 -72973,66915 -117032,87567 -44054,20651 -88665,30838 -133272,30838 -71042,0 -129695,-23408 -175958,-70217 -46257,-46810 -69391,-106840 -69391,-180360 0,-82060 25337,-147871 76275,-196884 50943,-49292 141812,-79025 272607,-89217 110421,-9361 184220,-20373 221390,-33315 9639,-32495 14593,-58380 14593,-77654 0,-25058 -9913,-45710 -30012,-62507 -19826,-16797 -49566,-25059 -88939,-25059 -41304,0 -74072,8262 -98032,25059 -23954,16523 -40478,40204 -49013,70769zm220565 216431c-14042,3855 -32495,7436 -55624,10739 -116201,14046 -192203,34698 -227722,61955 -25332,19826 -38001,46263 -38001,79304 0,27536 9640,50391 29187,69392 19279,18727 44885,28088 76554,28088 34967,0 68014,-8535 98852,-25885 31117,-17070 54246,-39100 69392,-66088 15419,-26984 28913,-69113 40751,-126388l6611 -31117z"/>
   <path id="7" class="fil1" d="M8271884 3962023l-184493 857472 -231303 0 70217 -335387 -61403 0c-30565,0 -57828,7983 -81508,24228 -23960,15971 -57828,53699 -101887,113450l-144289 197709 -279490 0 193580 -251129c35798,-46809 76828,-82880 123359,-108218 -32490,-3855 -66636,-23681 -102433,-59199 -36071,-35798 -53967,-84538 -53967,-145941 0,-72699 25605,-139608 76822,-201017 51217,-61403 157510,-91968 318869,-91968l457926 0zm-266548 145388l-160539 0c-55345,2756 -91968,6611 -110143,11843 -18175,4954 -36623,19274 -55345,42403 -18727,23134 -28088,47641 -28088,73525 0,31937 12117,57822 36071,78200 23954,20100 79031,30292 164667,30292l103811 0 49566 -236263z"/>
   <path id="8" class="fil1" d="M9768462 3616723l-89212 409186c54246,-54798 122533,-82061 204867,-82061 82607,0 151446,32495 205970,97480 54520,64711 81782,152272 81782,262141 0,139056 -41030,263519 -123364,373115 -82334,109591 -181738,164389 -298212,164389 -77927,0 -150347,-39374 -216989,-118131l-87014 432041 -226344 0 83160 -389360c-68014,50391 -133277,75450 -196331,75450 -80683,0 -147597,-32216 -200465,-96927 -52868,-64711 -79305,-151999 -79305,-261868 0,-143464 40205,-269026 120335,-376691 80130,-107666 175406,-161639 285822,-161639 87293,0 159987,37723 218361,112899l90595 -440024 226344 0zm-705195 843977c0,58101 11565,107114 34693,147045 23135,39926 54798,59752 95276,59752 52043,0 98579,-34146 139336,-102712 41024,-68561 61403,-148970 61403,-241490 0,-68287 -12943,-119230 -38554,-152551 -25879,-33315 -54792,-50112 -87287,-50112 -49565,0 -95823,36623 -139609,109870 -43507,73241 -65258,150068 -65258,230198zm531173 3303c0,53972 11837,101334 35518,142085 23954,41031 56723,61409 98305,61409 53967,0 101881,-34146 144010,-102160 42135,-68287 63334,-148144 63334,-240390 0,-66084 -12943,-116754 -39100,-151720 -25885,-34972 -56171,-52595 -90869,-52595 -50391,0 -98305,36345 -143464,108765 -45158,72421 -67734,150621 -67734,234606z"/>
   <path id="9" class="fil1" d="M11085517 4462630l-581836 0c-553,9082 -826,16245 -826,21199 0,57554 16518,103811 49286,139056 32769,35251 72973,52874 120056,52874 77654,0 138231,-39653 181738,-118957l206523 34693c-40478,83159 -94450,145393 -162190,186970 -67735,41583 -143458,62508 -227722,62508 -115375,0 -209273,-36623 -281415,-109591 -72421,-73246 -108492,-169900 -108492,-290508 0,-117579 32490,-222215 97753,-314183 88665,-124190 215605,-186145 380273,-186145 104910,0 188342,32489 250298,97474 61961,64990 92799,156132 92799,273159 0,56176 -5506,106567 -16245,151451zm-195232 -140434c552,-10465 825,-18175 825,-23681 0,-64158 -14320,-112351 -42954,-144568 -28362,-32216 -66636,-48187 -114829,-48187 -47909,0 -90869,18175 -128864,54798 -38001,36350 -63613,90317 -77101,161638l362923 0z"/>
   <path id="10" class="fil1" d="M11339949 3962023l219465 0 -17349 87288c46810,-38827 90869,-66909 131899,-83706 40751,-16797 84811,-25059 131620,-25059 90043,0 162464,31117 217262,93072 54798,62229 82055,154749 82055,277840 0,154748 -47362,285822 -142086,392662 -80955,91142 -177057,136853 -288025,136853 -114277,0 -200465,-45711 -258839,-137126l-91142 442774 -231030 0 246170 -1184598zm138783 491793c0,67741 16523,120335 49292,157505 33041,37449 71595,56176 116201,56176 38548,0 75723,-14041 111520,-41856 35798,-28088 65537,-74345 88945,-139330 23681,-64711 35518,-125015 35518,-180365 0,-64432 -15419,-113998 -46536,-148417 -30838,-34420 -70217,-51769 -117852,-51769 -44612,0 -85090,15698 -121713,47362 -36623,31669 -64984,78205 -85084,139608 -20099,61403 -30291,115102 -30291,161086z"/>
   <polygon id="11" class="fil1" points="12335110,3962023 12620107,3962023 12709871,4554598 13052974,3962023 13323929,3962023 13144395,4819495 12950262,4819495 13068393,4258037 12746221,4819495 12552919,4819495 12468655,4247572 12348326,4819495 12155571,4819495 "/>
   <path id="12" class="fil1" d="M13706405 4201588l-226343 -19000c25879,-76002 71042,-135202 135475,-177883 64432,-42682 149521,-64159 255809,-64159 110422,0 192203,22303 244798,66636 52868,44606 79304,98857 79304,163016 0,25879 -2203,53420 -6884,82328 -4685,29192 -20651,105741 -48193,229652 -22849,102433 -34140,174301 -34140,215331 0,36624 6605,77102 19547,121986l-226070 0c-8809,-31117 -14321,-63606 -16519,-96927 -33872,37722 -72972,66915 -117032,87567 -44054,20651 -88665,30838 -133271,30838 -71043,0 -129696,-23408 -175959,-70217 -46257,-46810 -69391,-106840 -69391,-180360 0,-82060 25338,-147871 76275,-196884 50944,-49292 141812,-79025 272607,-89217 110422,-9361 184220,-20373 221390,-33315 9640,-32495 14594,-58380 14594,-77654 0,-25058 -9914,-45710 -30013,-62507 -19826,-16797 -49565,-25059 -88939,-25059 -41303,0 -74072,8262 -98031,25059 -23955,16523 -40478,40204 -49014,70769zm220565 216431c-14041,3855 -32495,7436 -55624,10739 -116201,14046 -192203,34698 -227722,61955 -25332,19826 -38001,46263 -38001,79304 0,27536 9640,50391 29187,69392 19280,18727 44885,28088 76555,28088 34966,0 68013,-8535 98852,-25885 31117,-17070 54245,-39100 69391,-66088 15419,-26984 28914,-69113 40751,-126388l6611 -31117z"/>
  </g>
 </g>
</svg>
