<?xml version="1.0" encoding="UTF-8"?>
<!DOCTYPE svg PUBLIC "-//W3C//DTD SVG 1.1//EN" "http://www.w3.org/Graphics/SVG/1.1/DTD/svg11.dtd">
<!-- Creator: CorelDRAW X7 -->
<svg xmlns="http://www.w3.org/2000/svg" xml:space="preserve" width="2474px" height="757px" version="1.1" style="shape-rendering:geometricPrecision; text-rendering:geometricPrecision; image-rendering:optimizeQuality; fill-rule:evenodd; clip-rule:evenodd"
viewBox="0 0 110916 33921"
 xmlns:xlink="http://www.w3.org/1999/xlink">
 <defs>
  <style type="text/css">
               @media screen and  (max-width: 104px){
               #TextUp, #TextLine  {display: none;}
			   	}
               @media screen and  (max-width: 176px){
               #TextDown  {display: none;}
			   	}
  </style>
 </defs>
 <g id="Слой_x0020_1">
  <metadata id="CorelCorpID_0Corel-Layer"/>

 <g id="TextDown">
  <path fill="#AB936D" fill-rule="nonzero" d="M4485 30869l1042 169c-172,465 -425,819 -763,1062 -336,242 -725,364 -1169,364 -506,0 -907,-152 -1204,-455 -296,-303 -444,-719 -444,-1251 0,-433 89,-843 269,-1229 179,-386 450,-689 812,-911 361,-221 758,-333 1189,-333 469,0 844,123 1122,370 280,245 437,568 472,969l-1020 110c-25,-223 -93,-388 -204,-493 -111,-106 -256,-158 -436,-158 -207,0 -401,78 -580,232 -180,156 -318,389 -414,698 -96,309 -145,599 -145,870 0,237 58,418 172,546 115,128 258,192 430,192 172,0 338,-63 497,-188 159,-126 284,-313 374,-564zm7171 -161l-2700 0c-3,42 -4,76 -4,99 0,267 77,481 229,645 152,163 339,245 557,245 360,0 642,-184 843,-552l959 161c-188,386 -439,675 -753,868 -314,193 -666,290 -1057,290 -535,0 -971,-170 -1306,-509 -336,-340 -503,-788 -503,-1348 0,-545 151,-1031 454,-1458 411,-576 1000,-864 1764,-864 487,0 874,151 1162,453 287,301 430,724 430,1267 0,261 -25,495 -75,703zm-906 -652c3,-48 4,-84 4,-109 0,-298 -67,-522 -199,-671 -132,-150 -310,-224 -533,-224 -223,0 -422,84 -598,254 -177,169 -295,419 -358,750l1684 0zm3848 -1671l1322 0 417 2750 1592 -2750 1258 0 -834 3979 -900 0 548 -2605 -1495 2605 -897 0 -391 -2654 -559 2654 -894 0 833 -3979zm10444 2323l-2700 0c-3,42 -4,76 -4,99 0,267 77,481 229,645 152,163 338,245 557,245 360,0 641,-184 843,-552l959 161c-188,386 -439,675 -753,868 -314,193 -666,290 -1057,290 -535,0 -971,-170 -1306,-509 -336,-340 -503,-788 -503,-1348 0,-545 151,-1031 453,-1458 412,-576 1001,-864 1765,-864 487,0 874,151 1162,453 287,301 430,724 430,1267 0,261 -25,495 -75,703zm-906 -652c3,-48 4,-84 4,-109 0,-298 -67,-522 -200,-671 -131,-150 -309,-224 -532,-224 -223,0 -422,84 -598,254 -177,169 -296,419 -358,750l1684 0zm3893 -1671l1074 0 -531 2361c-65,284 -97,460 -97,531 0,115 38,213 115,296 76,83 175,124 295,124 85,0 170,-19 254,-56 83,-37 169,-95 257,-171 88,-77 167,-164 238,-262 70,-99 135,-228 196,-389 42,-119 92,-297 147,-535l428 -1899 1074 0 -904 3979 -1002 0 107 -511c-404,408 -844,611 -1320,611 -301,0 -538,-95 -710,-283 -172,-187 -259,-440 -259,-756 0,-138 46,-411 138,-822l500 -2218zm724 -1602l514 0c57,203 134,343 230,424 96,80 217,120 364,120 298,0 544,-181 740,-544l491 0c-103,345 -268,613 -496,803 -229,191 -485,285 -766,285 -290,0 -530,-90 -719,-272 -189,-181 -308,-453 -358,-816zm5617 1602l1059 0 -308 1472 1486 0 308 -1472 1073 0 -833 3979 -1073 0 350 -1671 -1486 0 -350 1671 -1060 0 834 -3979zm7071 1112l-1050 -88c120,-353 330,-628 629,-826 299,-198 694,-298 1187,-298 512,0 892,104 1136,310 245,207 368,458 368,756 0,120 -10,248 -32,382 -22,136 -96,491 -224,1066 -106,475 -158,809 -158,999 0,170 30,358 90,566l-1049 0c-40,-144 -66,-295 -76,-450 -157,175 -339,311 -543,407 -205,96 -412,143 -619,143 -330,0 -602,-109 -816,-326 -215,-217 -322,-496 -322,-837 0,-381 117,-686 354,-914 236,-228 658,-366 1265,-414 512,-43 855,-94 1027,-154 45,-151 68,-271 68,-361 0,-116 -46,-212 -140,-290 -92,-78 -230,-116 -412,-116 -192,0 -344,38 -455,116 -111,77 -188,187 -228,329zm1024 1004c-65,18 -151,35 -258,50 -539,65 -892,161 -1057,287 -118,92 -176,215 -176,368 0,128 44,234 135,322 90,87 208,131 355,131 163,0 316,-40 459,-120 144,-80 252,-182 322,-307 72,-125 134,-321 189,-586l31 -145zm7693 -2116l-856 3979 -1074 0 326 -1556 -285 0c-142,0 -268,37 -378,112 -111,74 -269,249 -473,527l-670 917 -1297 0 899 -1165c166,-217 356,-385 572,-502 -151,-18 -309,-110 -475,-275 -167,-166 -251,-392 -251,-677 0,-338 119,-648 357,-933 238,-285 731,-427 1480,-427l2125 0zm-1237 675l-745 0c-257,12 -427,30 -511,55 -85,23 -170,89 -257,196 -87,108 -130,222 -130,342 0,148 56,268 167,363 111,93 367,140 764,140l482 0 230 -1096zm12442 -2277l-414 1898c252,-254 569,-380 951,-380 383,0 702,150 955,452 254,300 380,707 380,1217 0,645 -190,1222 -572,1731 -383,509 -844,763 -1384,763 -362,0 -698,-183 -1007,-548l-404 2005 -1050 0 385 -1807c-315,234 -618,350 -911,350 -374,0 -685,-150 -930,-450 -245,-300 -368,-705 -368,-1215 0,-666 187,-1249 559,-1748 371,-500 813,-750 1326,-750 405,0 742,175 1013,524l421 -2042 1050 0zm-3273 3916c0,270 54,497 162,683 107,185 254,277 442,277 241,0 457,-159 646,-477 191,-318 285,-691 285,-1120 0,-317 -60,-554 -179,-708 -120,-155 -254,-233 -405,-233 -230,0 -444,170 -648,510 -202,340 -303,696 -303,1068zm2465 16c0,250 55,470 165,659 111,190 263,285 456,285 251,0 473,-159 669,-474 195,-317 294,-688 294,-1116 0,-306 -60,-542 -182,-704 -120,-162 -261,-244 -421,-244 -234,0 -457,169 -666,505 -210,336 -315,699 -315,1089zm8645 -7l-2700 0c-2,42 -4,76 -4,99 0,267 77,481 229,645 152,163 339,245 557,245 361,0 642,-184 844,-552l958 161c-188,386 -438,675 -753,868 -314,193 -665,290 -1056,290 -536,0 -972,-170 -1306,-509 -336,-340 -504,-788 -504,-1348 0,-545 151,-1031 454,-1458 411,-576 1000,-864 1764,-864 487,0 874,151 1162,453 288,301 431,724 431,1267 0,261 -26,495 -76,703zm-906 -652c3,-48 4,-84 4,-109 0,-298 -66,-522 -199,-671 -132,-150 -309,-224 -533,-224 -222,0 -422,84 -598,254 -176,169 -295,419 -358,750l1684 0zm3812 -1671l1019 0 -81 405c218,-180 422,-310 612,-388 190,-78 394,-117 611,-117 418,0 754,145 1008,432 255,289 381,718 381,1290 0,718 -220,1326 -659,1822 -376,423 -822,635 -1337,635 -530,0 -930,-212 -1201,-637l-423 2055 -1072 0 1142 -5497zm644 2282c0,315 77,559 229,731 153,174 332,261 539,261 179,0 352,-65 518,-194 166,-131 304,-345 413,-647 110,-300 165,-580 165,-837 0,-299 -72,-529 -216,-689 -144,-159 -326,-240 -547,-240 -207,0 -395,73 -565,220 -170,147 -302,363 -395,648 -93,285 -141,534 -141,747zm5700 -2282l1322 0 417 2750 1592 -2750 1258 0 -834 3979 -900 0 548 -2605 -1495 2605 -897 0 -391 -2654 -559 2654 -894 0 833 -3979zm8089 1112l-1050 -88c120,-353 329,-628 628,-826 299,-198 694,-298 1187,-298 513,0 892,104 1136,310 246,207 368,458 368,756 0,120 -10,248 -32,382 -21,136 -96,491 -223,1066 -106,475 -159,809 -159,999 0,170 31,358 91,566l-1049 0c-41,-144 -67,-295 -77,-450 -157,175 -338,311 -543,407 -204,96 -411,143 -618,143 -330,0 -602,-109 -817,-326 -215,-217 -322,-496 -322,-837 0,-381 118,-686 354,-914 237,-228 658,-366 1265,-414 513,-43 855,-94 1028,-154 44,-151 67,-271 67,-361 0,-116 -46,-212 -139,-290 -92,-78 -230,-116 -413,-116 -191,0 -344,38 -455,116 -111,77 -188,187 -227,329zm1023 1004c-65,18 -150,35 -258,50 -539,65 -892,161 -1056,287 -118,92 -177,215 -177,368 0,128 45,234 136,322 89,87 208,131 355,131 162,0 315,-40 459,-120 144,-80 251,-182 322,-307 71,-125 134,-321 189,-586l30 -145z"/>
 </g>  
 <g id="TextLine">
  <polygon fill="#AB936D" points="425,24112 90780,24112 90435,25422 78,25422 "/>
 </g>  
 <g id="TextUp">  
  <path fill="#7C7C7C" fill-rule="nonzero" d="M17807 10908l-5501 -580c207,-965 506,-1722 897,-2272 391,-555 951,-1033 1689,-1438 526,-295 1250,-522 2172,-681 921,-159 1920,-241 2996,-241 1723,0 3103,96 4150,289 1043,193 1916,599 2611,1212 492,424 878,1027 1158,1804 285,777 425,1520 425,2230l0 6640c0,709 43,1264 135,1665 87,400 285,912 584,1534l-5390 0c-218,-386 -357,-675 -425,-878 -63,-203 -130,-516 -198,-946 -753,724 -1501,1240 -2249,1549 -1018,415 -2200,623 -3546,623 -1791,0 -3151,-415 -4078,-1250 -931,-830 -1395,-1858 -1395,-3074 0,-1144 333,-2085 1004,-2823 671,-738 1906,-1288 3706,-1646 2157,-434 3557,-738 4198,-916 642,-174 1323,-401 2037,-686 0,-709 -145,-1201 -439,-1486 -290,-285 -801,-425 -1535,-425 -941,0 -1645,150 -2118,454 -367,241 -661,685 -888,1342zm4980 3011c-792,284 -1617,535 -2480,757 -1168,314 -1911,623 -2220,927 -324,313 -483,671 -483,1071 0,459 159,835 473,1124 319,290 782,435 1395,435 641,0 1240,-159 1795,-473 550,-314 941,-695 1172,-1149 232,-453 348,-1042 348,-1766l0 -926zm9120 -7876l5395 0 0 2452c521,-1067 1057,-1800 1607,-2201 555,-400 1235,-598 2046,-598 854,0 1786,265 2794,796l-1785 4087c-681,-284 -1221,-424 -1617,-424 -753,0 -1341,313 -1756,936 -594,878 -893,2524 -893,4932l0 5047 -5791 0 0 -15027zm14294 0l5366 0 0 2186c772,-917 1553,-1568 2340,-1954 787,-386 1737,-579 2852,-579 1197,0 2142,212 2842,637 700,425 1269,1057 1713,1896 903,-979 1723,-1650 2466,-2002 743,-353 1660,-531 2751,-531 1607,0 2861,478 3764,1438 902,955 1356,2456 1356,4493l0 9443 -5762 0 0 -8584c0,-686 -130,-1192 -396,-1521 -381,-521 -864,-781 -1433,-781 -676,0 -1221,246 -1636,738 -410,492 -618,1284 -618,2369l0 7779 -5761 0 0 -8280c0,-662 -39,-1110 -116,-1347 -121,-376 -333,-680 -637,-912 -299,-231 -656,-347 -1062,-347 -661,0 -1206,251 -1631,748 -424,502 -637,1322 -637,2466l0 7672 -5761 0 0 -15027zm29098 -5703l5762 0 0 3908 -5762 0 0 -3908zm0 5703l5762 0 0 15027 -5762 0 0 -15027zm9641 -5703l5762 0 0 20730 -5762 0 0 -20730zm8286 5703l6070 0 3094 10004 2856 -10004 5670 0 -5945 16065c-675,1824 -1370,3054 -2075,3691 -999,903 -2519,1351 -4565,1351 -830,0 -2109,-115 -3841,-337l-454 -4020c831,260 1752,391 2770,391 681,0 1231,-155 1651,-464 420,-303 772,-854 1066,-1645l-6297 -15032z"/>
 </g>

  <g id="_371151280">
   <path fill="#7C7C7C" fill-rule="nonzero" d="M7904 6051l2751 0 0 4227 -2751 0 0 10800 -5761 0 0 -10800 -2143 0 0 -4227 2143 0 0 -675c0,-613 67,-1284 197,-2017 131,-734 377,-1337 744,-1800 362,-464 868,-840 1525,-1130 651,-284 1611,-429 2871,-429 1008,0 2470,116 4391,352l-627 3465c-690,-111 -1245,-169 -1670,-169 -521,0 -893,87 -1119,261 -227,173 -387,448 -478,830 -48,202 -73,641 -73,1312z"/>
   <polygon fill="#AB936D" points="348,24112 12309,24112 11963,25422 0,25422 "/>
  </g>
 </g>
</svg>
