<?xml version="1.0" encoding="iso-8859-1"?>
<!-- Generator: Adobe Illustrator 19.0.0, SVG Export Plug-In . SVG Version: 6.00 Build 0)  -->
<svg version="1.1" id="Capa_1" xmlns="http://www.w3.org/2000/svg" xmlns:xlink="http://www.w3.org/1999/xlink" x="0px" y="0px"
	 viewBox="0 0 512 512" style="enable-background:new 0 0 512 512;" xml:space="preserve">
<g>
	<g>
		<path d="M256,0C114.848,0,0,114.848,0,256s114.848,256,256,256s256-114.848,256-256S397.152,0,256,0z M256,480
			C132.512,480,32,379.52,32,256S132.512,32,256,32s224,100.48,224,224S379.488,480,256,480z"/>
	</g>
</g>
<g>
	<g>
		<path d="M320,128h-80c-8.832,0-16,7.168-16,16v144h-48c-8.832,0-16,7.168-16,16c0,8.832,7.168,16,16,16h48v48
			c0,8.832,7.168,16,16,16c8.832,0,16-7.168,16-16v-48h48c8.832,0,16-7.168,16-16c0-8.832-7.168-16-16-16h-48v-32h64
			c35.296,0,64-28.704,64-64S355.296,128,320,128z M320,224h-64v-64h64c17.664,0,32,14.368,32,32S337.664,224,320,224z"/>
	</g>
</g>
<g>
</g>
<g>
</g>
<g>
</g>
<g>
</g>
<g>
</g>
<g>
</g>
<g>
</g>
<g>
</g>
<g>
</g>
<g>
</g>
<g>
</g>
<g>
</g>
<g>
</g>
<g>
</g>
<g>
</g>
</svg>
