<?xml version="1.0" encoding="iso-8859-1"?>
<!-- Generator: Adobe Illustrator 18.0.0, SVG Export Plug-In . SVG Version: 6.00 Build 0)  -->
<!DOCTYPE svg PUBLIC "-//W3C//DTD SVG 1.1//EN" "http://www.w3.org/Graphics/SVG/1.1/DTD/svg11.dtd">
<svg version="1.1" id="Capa_1" xmlns="http://www.w3.org/2000/svg" xmlns:xlink="http://www.w3.org/1999/xlink" x="0px" y="0px"
	 viewBox="0 0 220 220" style="enable-background:new 0 0 220 220;" xml:space="preserve">
<g>
	<path d="M110,0C49.346,0,0,49.346,0,110s49.346,110,110,110s110-49.346,110-110S170.654,0,110,0z M110,210
		c-55.141,0-100-44.86-100-100S54.859,10,110,10s100,44.86,100,100S165.141,210,110,210z"/>
	<path d="M110,19.5c-49.902,0-90.5,40.598-90.5,90.5s40.598,90.5,90.5,90.5s90.5-40.598,90.5-90.5S159.902,19.5,110,19.5z
		 M110,197.5c-48.248,0-87.5-39.252-87.5-87.5S61.752,22.5,110,22.5s87.5,39.252,87.5,87.5S158.248,197.5,110,197.5z"/>
	<polygon points="103.382,133.87 93.382,133.87 93.382,144.887 84.632,144.887 84.632,154.887 112.132,154.887 112.132,144.887 
		103.382,144.887 	"/>
	<path d="M123.062,57.773H83.077v12h10.305v33.876H83.077v12h10.305v2.22h10v-2.22h19.68c15.957,0,28.938-12.981,28.938-28.938
		S139.019,57.773,123.062,57.773z M123.062,103.65h-19.68V69.773h19.68c9.34,0,16.938,7.599,16.938,16.938
		S132.401,103.65,123.062,103.65z"/>
	<rect x="83.077" y="119.87" width="53.989" height="12"/>
</g>
<g>
</g>
<g>
</g>
<g>
</g>
<g>
</g>
<g>
</g>
<g>
</g>
<g>
</g>
<g>
</g>
<g>
</g>
<g>
</g>
<g>
</g>
<g>
</g>
<g>
</g>
<g>
</g>
<g>
</g>
</svg>
