<?xml version="1.0" encoding="UTF-8"?>
<!DOCTYPE svg PUBLIC "-//W3C//DTD SVG 1.1//EN" "http://www.w3.org/Graphics/SVG/1.1/DTD/svg11.dtd">
<!-- Creator: CorelDRAW X7 -->
<svg xmlns="http://www.w3.org/2000/svg" xml:space="preserve" width="100%" height="100%" version="1.1" style="shape-rendering:geometricPrecision; text-rendering:geometricPrecision; image-rendering:optimizeQuality; fill-rule:evenodd; clip-rule:evenodd"
viewBox="0 0 19096 22860"
 xmlns:xlink="http://www.w3.org/1999/xlink">
 <defs>
  <style type="text/css">
   <![CDATA[
    .fil0 {fill:none}
    .fil1 {fill:#FEFEFE}
    .fil12 {fill:#D2D3D5}
    .fil11 {fill:#D2D3D5}
    .fil13 {fill:#2C3E50}
    .fil16 {fill:#2C3E50}
    .fil8 {fill:#6DABDE}
    .fil10 {fill:#90B9C0}
    .fil18 {fill:#D8BF8A}
    .fil15 {fill:#DAC425}
    .fil17 {fill:#EDDAAB}
    .fil9 {fill:white}
    .fil2 {fill:#FEFEFE;fill-rule:nonzero}
    .fil7 {fill:#FEFEFE;fill-rule:nonzero}
    .fil5 {fill:#2C3E50;fill-rule:nonzero}
    .fil3 {fill:#6DABDE;fill-rule:nonzero}
    .fil6 {fill:#E46D70;fill-rule:nonzero}
    .fil4 {fill:#E46D70;fill-rule:nonzero}
    .fil14 {fill:white;fill-opacity:0.149020}
   ]]>
  </style>
 </defs>
 <g id="Слой_x0020_1">
  <metadata id="CorelCorpID_0Corel-Layer"/>
  <rect class="fil0" width="19096" height="22860"/>
  <g id="_883553328">
   <g id="_320235776">
    <g>
     <g>
      <path class="fil1" d="M9987 10110l-614 -3c-229,-240 -529,-122 -440,317 -365,415 -213,788 -349,1403 -373,513 -660,1079 -788,1742 -67,295 -43,587 94,801 280,334 373,355 745,499l35 -64 140 19 8 -63 93 10 -8 -105 97 13 -10 -96 90 -26c-200,-760 -527,-322 -815,-594l313 -60 -262 -72 139 -80 -133 -76 220 -25 -138 -86 121 -3 -70 -66 158 -21 -159 -119 225 -23 -191 -114 245 -57 -209 -102 252 -45 -223 -51 233 -68 -186 -25 175 -118 -116 -108 150 17 -69 -91 66 -32 30 -75 20 75 72 29 -61 111 123 38 -107 120 124 24 -88 81 116 31 -93 68 144 47 -119 100 126 61 -124 42 111 42 -104 97 377 -2 -214 -132 246 -77 -222 -76 171 -57 -129 -80 103 -8 -74 -68 197 -52 -211 -106 186 -34 -141 -76 155 -13 -161 -120 185 -6 -73 -135 62 7 -6 -141 67 25 15 -123 74 30 -28 84 69 -19 -42 138 115 -30 -50 130 122 67 -150 65 213 54 -200 69 185 51 -152 75 217 68 -170 87 212 53 -129 103 136 28 -29 53 38 46 -42 55 164 4 -68 -90 121 -22 -71 -103 99 -20 -81 -103 123 2 -83 -139 84 14 -14 -114 60 -31 -27 -41 56 -75 44 68 -28 64 61 -28 -67 171 103 -57 -5 129 70 56 -115 78 184 51 -153 71 127 64 -125 65 208 70 -175 95 202 54 -122 97 117 39 -56 44 121 18 -114 54 166 50 -124 66 165 40 10 44c-404,159 -637,26 -766,539l-16 121 56 7 -25 157 94 10 -22 64 132 0 2 40 127 -7 12 66 163 -27c692,-284 941,-781 774,-1475 -158,-778 -581,-1413 -871,-2119 -147,43 -300,71 -461,77 296,-222 910,-130 888,-664 66,-3 64,-205 -31,-230 -384,-69 -392,-347 -823,-496l0 0 -1 0 1 0 -1 0zm0 0l0 0 0 0z"/>
     </g>
     <path class="fil1" d="M10458 10391c144,-191 -72,-356 -247,-220 81,70 180,137 247,220z"/>
    </g>
   </g>
   <g>
    <path class="fil2" d="M9478 4880c0,-39 31,-71 70,-71 39,0 71,32 71,71l-141 0zm0 1966l0 -1966 141 0 0 1966 -141 0zm11 148l118 -77 -118 0 361 -557 118 77 -361 557 -118 0zm0 0l118 0 -59 91 -59 -91zm-302 -596l59 -38 361 557 -118 77 -361 -557 59 -39zm432 448c0,39 -32,70 -71,70 -39,0 -70,-31 -70,-70l141 0z"/>
   </g>
   <g>
    <path class="fil2" d="M4075 19162c23,31 16,75 -15,98 -32,23 -76,16 -99,-15l114 -83zm-194 -33l114 -84 80 117 -114 83 -80 -116zm0 0c-23,-32 -16,-76 15,-99 32,-23 76,-16 99,15l-114 84zm-120 -431c21,32 12,76 -21,97 -33,21 -76,12 -97,-21l118 -76zm-191 -45l119 -77 72 122 -118 76 -73 -121zm0 0c-21,-33 -11,-77 22,-98 32,-21 76,-11 97,21l-119 77zm-84 -442c19,34 7,77 -28,96 -34,18 -77,6 -95,-28l123 -68zm-187 -58l124 -68 63 126 -123 68 -64 -126zm0 0c-18,-35 -6,-78 28,-96 34,-19 77,-7 96,28l-124 68zm-40 -453c16,36 0,78 -35,94 -36,16 -78,0 -94,-35l129 -59zm-178 -79l132 -48 21 67 25 60 -129 59 -29 -71 -20 -67zm0 0c-14,-37 5,-77 42,-90 37,-14 77,5 90,42l-132 48zm20 -449c10,37 -13,76 -50,86 -38,10 -77,-13 -87,-50l137 -36zm-166 -102l136 -36 30 138 -137 36 -29 -138zm0 0c-10,-38 12,-77 50,-86 38,-10 76,12 86,50l-136 36zm83 -443c3,39 -26,73 -65,76 -39,3 -73,-26 -76,-65l141 -11zm-145 -130l141 -11 4 141 -141 11 -4 -141zm0 0c-3,-39 27,-73 65,-76 39,-3 73,26 76,65l-141 11zm153 -427c0,39 -33,70 -71,69 -39,0 -71,-32 -70,-71l141 2zm-123 -148l140 14 -15 107 -2 27 -141 -2 2 -39 16 -107zm0 0c4,-39 38,-67 77,-64 39,4 67,39 63,78l-140 -14zm216 -397c-7,39 -43,64 -82,57 -38,-7 -64,-44 -57,-82l139 25zm-102 -166l136 35 -21 74 -13 57 -139 -25 15 -67 22 -74zm0 0c9,-38 48,-61 86,-51 37,9 60,48 50,86l-136 -35zm264 -364c-12,37 -52,57 -89,45 -37,-12 -57,-51 -45,-89l134 44zm-84 -179l132 50 -20 48 -28 81 -134 -44 30 -86 20 -49zm0 0c14,-37 54,-55 91,-41 36,13 55,54 41,91l-132 -50zm295 -338c-16,36 -57,53 -93,37 -36,-15 -53,-56 -37,-92l130 55zm-72 -186l128 59 -11 23 -45 104 -130 -55 47 -107 11 -24zm0 0c16,-35 58,-51 93,-35 36,17 52,58 35,94l-128 -59zm310 -322c-17,35 -59,50 -94,33 -35,-17 -50,-59 -33,-94l127 61zm-66 -188l128 61 -62 127 -127 -61 61 -127zm0 0c17,-35 59,-50 94,-33 36,17 50,59 34,94l-128 -61zm313 -319c-17,35 -59,49 -94,32 -36,-17 -50,-59 -33,-94l127 62zm-66 -189l127 61 -61 128 -127 -62 61 -127zm0 0c17,-35 59,-50 94,-33 35,17 50,59 33,94l-127 -61zm302 -327c-15,36 -57,52 -93,37 -35,-16 -51,-58 -36,-93l129 56zm-74 -186l129 57 -55 129 -129 -56 55 -130zm0 0c16,-36 58,-52 93,-36 36,15 52,57 36,93l-129 -57zm281 -345c-13,37 -53,57 -90,44 -37,-13 -56,-53 -43,-90l133 46zm-90 -180l133 46 -43 134 -133 -46 43 -134zm0 0c13,-37 53,-57 90,-44 37,13 56,53 43,90l-133 -46zm245 -371c-8,39 -46,63 -84,54 -38,-8 -62,-46 -54,-84l138 30zm-112 -169l138 31 -26 138 -138 -30 26 -139zm0 0c9,-38 46,-62 84,-53 38,8 62,46 54,84l-138 -31zm194 -394c-5,39 -41,65 -80,60 -38,-6 -65,-42 -59,-80l139 20zm-135 -155l141 9 -3 122 -3 24 -139 -20 1 -13 3 -122zm0 0c2,-39 36,-69 75,-66 39,2 68,36 66,75l-141 -9zm130 -420c1,39 -30,71 -69,72 -39,1 -71,-30 -72,-69l141 -3zm-154 -131l140 -16 7 46 7 101 -141 3 -6 -89 -7 -45zm0 0c-4,-39 24,-74 62,-78 39,-4 74,23 78,62l-140 16zm63 -438c8,38 -17,75 -55,83 -38,8 -75,-17 -83,-55l138 -28zm-172 -109l138 -28 34 137 -138 28 -34 -137zm0 0c-8,-38 17,-75 55,-83 38,-8 75,17 83,55l-138 28zm7 -437c11,37 -10,77 -47,88 -38,11 -77,-10 -88,-48l135 -40zm-186 -85l132 -51 36 83 18 53 -135 40 -15 -42 -36 -83zm0 0c-14,-37 4,-77 41,-92 36,-14 77,4 91,41l-132 51zm-41 -444c17,36 2,78 -33,95 -35,16 -78,2 -94,-33l127 -62zm-187 -66l127 -62 60 128 -127 62 -60 -128zm0 0c-17,-36 -2,-78 33,-95 35,-16 78,-2 94,33l-127 62zm-36 -448c15,36 -2,77 -38,92 -36,15 -77,-2 -92,-38l130 -54zm-183 -79l132 -50 1 2 50 127 -130 54 -52 -131 -1 -2zm0 0c-14,-37 5,-77 41,-91 37,-14 77,4 91,41l-132 50zm-6 -448c13,37 -7,77 -44,90 -36,12 -77,-7 -89,-44l133 -46zm-176 -91l135 -41 14 47 27 85 -133 46 -29 -90 -14 -47zm0 0c-11,-38 10,-77 47,-88 37,-12 77,9 88,47l-135 41zm28 -448c10,38 -13,76 -50,86 -38,10 -77,-12 -87,-50l137 -36zm-167 -105l138 -30 22 108 7 27 -137 36 -8 -33 -22 -108zm0 0c-8,-38 16,-75 54,-84 38,-8 76,16 84,54l-138 30zm69 -442c5,39 -22,74 -61,80 -38,5 -74,-22 -79,-61l140 -19zm-156 -121l140 -19 16 140 -140 19 -16 -140zm0 0c-5,-39 22,-74 60,-79 39,-6 75,21 80,60l-140 19zm117 -435c1,39 -29,72 -68,74 -39,1 -72,-29 -73,-68l141 -6zm-141 -139l141 2 -2 42 2 95 -141 6 -2 -103 2 -42zm0 0c0,-39 32,-70 71,-70 39,1 70,33 70,72l-141 -2zm170 -413c-5,39 -40,67 -79,62 -39,-5 -66,-40 -61,-79l140 17zm-119 -156l140 17 -21 139 -140 -17 21 -139zm0 0c5,-39 40,-66 78,-62 39,5 67,40 62,79l-140 -17zm229 -388c-9,38 -47,61 -85,52 -38,-10 -61,-48 -52,-86l137 34zm-96 -173l135 42 -10 27 -29 104 -137 -34 32 -112 9 -27zm0 0c12,-37 52,-58 89,-46 37,11 57,51 46,88l-135 -42zm287 -348c-14,36 -55,54 -92,40 -36,-14 -54,-55 -40,-91l132 51zm-67 -181l128 59 -61 120 0 2 -132 -51 4 -10 61 -120zm0 0c16,-36 58,-51 94,-35 35,17 50,59 34,94l-128 -59zm338 -298c-21,33 -65,43 -98,22 -33,-21 -42,-64 -22,-97l120 75zm-40 -192l119 76 -79 116 -120 -75 80 -117zm0 0c21,-33 64,-43 97,-22 33,21 43,65 22,98l-119 -76zm381 -245c-25,30 -70,34 -100,9 -30,-25 -34,-69 -9,-99l109 90zm-10 -197l103 96 -38 38 -55 63 -109 -90 61 -69 38 -38zm0 0c26,-29 71,-30 99,-3 29,26 30,71 4,99l-103 -96zm407 -192c-28,27 -73,26 -100,-2 -27,-29 -25,-73 3,-100l97 102zm14 -195l91 108 -68 54 -37 33 -97 -102 43 -39 68 -54zm0 0c30,-25 75,-21 100,8 25,30 21,75 -9,100l-91 -108zm427 -144c-32,23 -76,17 -99,-14 -24,-31 -18,-75 14,-99l85 113zm35 -194l79 117 -69 44 -45 33 -85 -113 51 -37 69 -44zm0 0c32,-21 76,-13 98,19 21,33 13,76 -19,98l-79 -117zm437 -101c-33,20 -77,10 -97,-24 -20,-33 -9,-76 24,-97l73 121zm53 -192l67 124 -25 13 -95 55 -73 -121 100 -57 26 -14zm0 0c34,-18 77,-6 95,28 19,35 6,78 -28,96l-67 -124zm443 -64c-35,17 -78,2 -95,-33 -17,-35 -2,-77 33,-94l62 127zm66 -186l62 126 -128 60 -62 -127 128 -59zm0 0c35,-18 77,-3 94,32 17,35 3,77 -32,94l-62 -126zm261 24l-118 -77 47 108 -655 -105 23 -140 655 106 48 108zm0 0l-48 -108 107 17 -59 91zm-423 517l-59 -39 364 -555 118 77 -364 556 -59 -39z"/>
   </g>
   <path class="fil3" d="M9554 22152c-256,0 -531,-70 -531,-224 0,-154 275,-224 531,-224 255,0 530,70 530,224 0,154 -275,224 -530,224zm0 -322l0 0c-258,0 -395,72 -404,99 9,25 146,96 404,96 257,0 395,-71 404,-99 -9,-24 -147,-96 -404,-96z"/>
   <path class="fil4" d="M9548 19531c505,3 914,413 914,919 0,486 -842,1353 -914,1432 -72,-79 -913,-946 -913,-1432 0,-506 408,-916 913,-919z"/>
   <path class="fil2" d="M10177 20450c0,344 -279,623 -623,623 -344,0 -623,-279 -623,-623 0,-344 279,-623 623,-623 344,0 623,279 623,623z"/>
   <path class="fil5" d="M9803 20339c0,137 -112,249 -249,249 -138,0 -249,-112 -249,-249 0,-138 111,-249 249,-249 137,0 249,111 249,249zm-249 734l0 0c185,0 351,-81 465,-210 -90,-141 -264,-237 -465,-237 -201,0 -376,96 -465,237 114,129 279,210 465,210z"/>
   <path class="fil3" d="M1510 20755c-255,0 -530,-70 -530,-224 0,-154 275,-224 530,-224 256,0 531,70 531,224 0,154 -275,224 -531,224zm0 -322l0 0c-257,0 -395,72 -404,99 9,25 147,96 404,96 258,0 395,-71 404,-99 -9,-24 -146,-96 -404,-96z"/>
   <path class="fil6" d="M1505 18134c505,3 913,413 913,919 0,486 -841,1353 -913,1432 -72,-79 -914,-946 -914,-1432 0,-506 409,-916 914,-919z"/>
   <path class="fil7" d="M2133 19053c0,344 -279,623 -623,623 -344,0 -623,-279 -623,-623 0,-344 279,-623 623,-623 344,0 623,279 623,623z"/>
   <path class="fil5" d="M1759 18942c0,137 -111,249 -249,249 -137,0 -249,-112 -249,-249 0,-138 112,-249 249,-249 138,0 249,111 249,249zm-249 734l0 0c186,0 351,-81 465,-210 -89,-141 -264,-237 -465,-237 -201,0 -375,96 -465,237 114,129 280,210 465,210z"/>
   <path class="fil2" d="M17597 20755c-256,0 -531,-70 -531,-224 0,-154 275,-224 531,-224 256,0 530,70 530,224 0,154 -274,224 -530,224zm0 -322l0 0c-257,0 -395,72 -404,99 9,25 147,96 404,96 257,0 395,-71 404,-99 -9,-24 -147,-96 -404,-96z"/>
   <path class="fil3" d="M17592 18134c505,3 913,413 913,919 0,486 -842,1353 -913,1432 -72,-79 -914,-946 -914,-1432 0,-506 408,-916 914,-919z"/>
   <path class="fil2" d="M18220 19053c0,344 -279,623 -623,623 -344,0 -623,-279 -623,-623 0,-344 279,-623 623,-623 344,0 623,279 623,623z"/>
   <path class="fil5" d="M17846 18942c0,137 -112,249 -249,249 -137,0 -249,-112 -249,-249 0,-138 112,-249 249,-249 137,0 249,111 249,249zm-249 734l0 0c185,0 351,-81 465,-210 -89,-141 -264,-237 -465,-237 -201,0 -376,96 -465,237 114,129 280,210 465,210z"/>
   <path class="fil3" d="M12254 19822c-219,0 -453,-59 -453,-191 0,-131 234,-191 453,-191 218,0 452,60 452,191 0,132 -234,191 -452,191zm0 -274l0 0c-220,0 -338,61 -345,84 7,21 125,82 345,82 219,0 337,-61 344,-84 -7,-21 -125,-82 -344,-82z"/>
   <path class="fil4" d="M12249 17585c431,2 780,352 780,784 0,415 -719,1155 -780,1222 -61,-67 -780,-807 -780,-1222 0,-432 349,-782 780,-784z"/>
   <path class="fil2" d="M12785 18369c0,294 -238,532 -531,532 -294,0 -532,-238 -532,-532 0,-294 238,-532 532,-532 293,0 531,238 531,532z"/>
   <path class="fil5" d="M12466 18274c0,118 -95,213 -212,213 -118,0 -213,-95 -213,-213 0,-117 95,-212 213,-212 117,0 212,95 212,212zm-212 627l0 0c158,0 299,-69 397,-179 -77,-120 -226,-202 -397,-202 -172,0 -321,82 -397,202 97,110 238,179 397,179z"/>
   <path class="fil3" d="M6696 19291c-128,0 -266,-35 -266,-113 0,-77 138,-112 266,-112 129,0 267,35 267,112 0,78 -138,113 -267,113zm0 -162l0 0c-129,0 -198,37 -203,50 5,12 74,48 203,48 130,0 199,-36 204,-49 -5,-12 -74,-49 -204,-49z"/>
   <path class="fil4" d="M6694 17973c254,1 459,208 459,462 0,244 -423,681 -459,720 -36,-39 -460,-476 -460,-720 0,-254 206,-461 460,-462z"/>
   <path class="fil2" d="M7010 18435c0,173 -141,313 -314,313 -173,0 -313,-140 -313,-313 0,-173 140,-313 313,-313 173,0 314,140 314,313z"/>
   <path class="fil5" d="M6822 18379c0,69 -56,125 -126,125 -69,0 -125,-56 -125,-125 0,-69 56,-125 125,-125 70,0 126,56 126,125zm-126 369l0 0c94,0 177,-41 234,-105 -45,-71 -132,-119 -234,-119 -101,0 -189,48 -233,119 57,64 140,105 233,105z"/>
   <path class="fil2" d="M4554 21170c-189,0 -392,-52 -392,-166 0,-113 203,-165 392,-165 188,0 391,52 391,165 0,114 -203,166 -391,166zm0 -238l0 0c-190,0 -292,53 -299,74 7,17 109,70 299,70 189,0 291,-53 298,-73 -7,-18 -109,-71 -298,-71z"/>
   <path class="fil3" d="M4550 19235c372,2 674,305 674,678 0,359 -621,999 -674,1057 -54,-58 -675,-698 -675,-1057 0,-373 302,-676 675,-678z"/>
   <path class="fil2" d="M5013 19913c0,254 -205,460 -459,460 -254,0 -460,-206 -460,-460 0,-253 206,-459 460,-459 254,0 459,206 459,459z"/>
   <path class="fil5" d="M4737 19831c0,102 -82,184 -183,184 -102,0 -184,-82 -184,-184 0,-101 82,-183 184,-183 101,0 183,82 183,183zm-183 542l0 0c136,0 259,-60 343,-154 -66,-105 -195,-176 -343,-176 -149,0 -278,71 -344,176 85,94 207,154 344,154z"/>
   <g>
    <path class="fil2" d="M17118 17996c28,26 30,71 3,99 -27,29 -71,30 -100,3l97 -102zm-192 -1l96 -103 96 104 -97 102 -95 -103zm0 0c-29,-27 -30,-72 -3,-100 26,-29 71,-30 99,-3l-96 103zm-173 -416c25,30 20,75 -11,99 -30,24 -74,19 -99,-11l110 -88zm-190 -28l110 -88 80 116 -110 88 -80 -116zm0 0c-24,-31 -19,-75 11,-99 31,-25 75,-20 99,11l-110 88zm-98 -445c20,34 9,77 -24,97 -34,20 -77,9 -97,-25l121 -72zm-184 -54l121 -72 63 126 -121 72 -63 -126zm0 0c-20,-33 -9,-77 25,-97 33,-19 76,-8 96,25l-121 72zm-23 -459c15,36 -2,77 -38,92 -36,16 -77,-1 -92,-37l130 -55zm-175 -88l136 -39 9 43 30 84 -130 55 -35 -100 -10 -43zm0 0c-11,-37 11,-76 48,-87 38,-11 77,11 88,48l-136 39zm45 -444c7,38 -18,74 -57,81 -38,7 -75,-19 -82,-57l139 -24zm-156 -116l139 -24 17 140 -139 24 -17 -140zm0 0c-7,-38 19,-75 57,-82 38,-7 75,19 82,58l-139 24zm96 -439c3,39 -25,73 -64,76 -39,3 -73,-25 -77,-64l141 -12zm-147 -129l141 -12 6 141 -141 12 -6 -141zm0 0c-3,-39 26,-73 64,-76 39,-4 73,25 77,64l-141 12zm136 -430c0,39 -31,71 -70,71 -39,1 -71,-30 -72,-69l142 -2zm-139 -139l141 -2 -2 141 -142 2 3 -141zm0 0c0,-39 31,-71 70,-72 39,0 71,31 71,70l-141 2zm165 -420c-2,39 -35,69 -74,67 -39,-2 -69,-35 -67,-74l141 7zm-131 -148l141 7 -10 141 -141 -7 10 -141zm0 0c2,-39 35,-69 74,-67 39,2 69,35 67,74l-141 -7zm185 -411c-4,39 -38,67 -77,64 -39,-4 -67,-38 -63,-77l140 13zm-124 -153l140 13 -16 140 -140 -13 16 -140zm0 0c3,-39 38,-68 76,-64 39,4 68,38 64,77l-140 -13zm199 -404c-5,39 -41,66 -79,61 -39,-5 -66,-40 -61,-79l140 18zm-120 -158l140 19 -20 139 -140 -18 20 -140zm0 0c5,-38 40,-65 79,-60 39,5 66,40 61,79l-140 -19zm208 -397c-6,38 -42,64 -80,58 -39,-5 -65,-42 -59,-80l139 22zm-116 -161l139 21 -23 140 -139 -22 23 -139zm0 0c6,-39 42,-65 80,-59 39,6 65,42 59,80l-139 -21zm212 -394c-6,38 -43,64 -81,57 -38,-6 -64,-43 -58,-81l139 24zm-114 -164l139 25 0 1 -25 138 -139 -24 25 -139 0 -1zm0 0c7,-38 44,-64 82,-57 38,7 64,44 57,82l-139 -25zm214 -392c-7,39 -43,64 -82,58 -38,-7 -64,-44 -57,-82l139 24zm-114 -163l139 25 -1 4 -24 134 -139 -24 24 -135 1 -4zm0 0c7,-39 44,-64 82,-57 38,7 64,43 57,82l-139 -25zm212 -392c-7,38 -43,63 -82,57 -38,-7 -64,-44 -57,-82l139 25zm-115 -164l140 24 -1 5 -24 135 -139 -25 24 -134 0 -5zm0 0c7,-38 43,-64 82,-57 38,6 64,43 58,81l-140 -24zm207 -394c-6,39 -43,64 -81,58 -38,-7 -64,-43 -58,-81l139 23zm-116 -162l139 22 -1 4 -22 136 -139 -23 22 -134 1 -5zm0 0c5,-38 41,-65 80,-59 38,6 65,42 59,81l-139 -22zm198 -398c-5,39 -41,65 -80,60 -38,-6 -65,-42 -59,-81l139 21zm-120 -159l140 18 -1 7 -19 134 -139 -21 18 -130 1 -8zm0 0c5,-38 40,-66 79,-61 39,5 66,40 61,79l-140 -18zm187 -403c-5,39 -40,66 -78,61 -39,-4 -66,-40 -62,-78l140 17zm-125 -155l141 13 -1 14 -15 128 -140 -17 14 -124 1 -14zm0 0c4,-39 38,-68 77,-64 39,4 67,38 64,77l-141 -13zm172 -409c-4,38 -38,67 -77,63 -38,-3 -67,-38 -63,-77l140 14zm-132 -151l141 7 0 27 -9 117 -140 -14 8 -110 0 -27zm0 0c2,-39 36,-69 75,-67 38,2 68,35 66,74l-141 -7zm153 -416c-2,38 -35,68 -74,66 -39,-1 -69,-35 -67,-74l141 8zm-140 -145l141 0 1 48 -2 97 -141 -8 2 -89 -1 -48zm0 0c0,-39 31,-71 70,-71 39,0 71,32 71,71l-141 0zm128 -423c0,39 -32,70 -71,70 -39,0 -70,-31 -71,-70l142 0zm-151 -136l141 -9 7 76 3 69 -142 0 -1 -60 -8 -76zm0 0c-3,-39 27,-73 66,-75 39,-3 72,27 75,66l-141 9zm99 -431c2,39 -27,73 -66,75 -39,3 -73,-27 -75,-65l141 -10zm-164 -124l140 -20 20 110 4 34 -141 10 -2 -24 -21 -110zm0 0c-5,-39 22,-75 61,-80 38,-6 74,21 79,60l-140 20zm62 -442c9,38 -15,76 -53,84 -38,9 -76,-15 -84,-53l137 -31zm-175 -105l138 -31 37 136 -137 31 -38 -136zm0 0c-9,-38 15,-76 53,-84 38,-9 76,15 85,53l-138 31zm17 -444c12,37 -8,77 -45,89 -37,13 -77,-7 -89,-44l134 -45zm-185 -87l134 -44 51 131 -134 45 -51 -132zm0 0c-13,-37 7,-77 44,-89 37,-12 77,8 90,45l-134 44zm-33 -441c16,36 0,77 -35,94 -36,16 -77,0 -94,-35l129 -59zm-194 -66l128 -59 66 125 -129 59 -65 -125zm0 0c-16,-36 -1,-78 35,-94 35,-16 77,0 93,35l-128 59zm-85 -433c20,33 9,77 -24,97 -34,20 -77,9 -97,-24l121 -73zm-200 -44l121 -73 79 117 -121 73 -79 -117zm0 0c-20,-34 -10,-77 24,-97 33,-20 77,-9 97,24l-121 73zm-137 -418c24,31 18,75 -13,99 -30,23 -75,18 -98,-13l111 -86zm-204 -21l112 -86 92 107 -111 86 -93 -107zm0 0c-24,-31 -18,-75 13,-99 31,-24 75,-18 99,13l-112 86zm-183 -400c27,28 26,73 -2,100 -28,27 -72,27 -99,-1l101 -99zm-205 3l101 -98 104 95 -101 99 -104 -96zm0 0c-27,-28 -27,-73 1,-100 28,-27 73,-26 100,2l-101 98zm-225 -380c30,25 35,69 10,99 -25,30 -69,35 -100,10l90 -109zm-203 25l90 -109 113 84 -90 109 -113 -84zm0 0c-30,-25 -34,-69 -10,-99 25,-30 70,-34 100,-10l-90 109zm-260 -360c33,21 42,65 20,97 -21,33 -65,42 -97,20l77 -117zm-199 45l78 -118 121 73 -77 117 -122 -72zm0 0c-32,-21 -41,-65 -20,-98 22,-32 66,-41 98,-20l-78 118zm-286 -334c33,21 42,65 20,98 -21,32 -65,41 -98,20l78 -118zm-196 54l67 -124 59 28 70 42 -78 118 -58 -35 -60 -29zm0 0c-34,-18 -47,-61 -29,-95 18,-35 61,-48 96,-29l-67 124zm-315 -307c34,18 47,61 29,95 -19,35 -61,48 -96,29l67 -124zm-194 63l66 -124 128 61 -67 124 -127 -61zm0 0c-34,-18 -47,-61 -29,-95 18,-34 61,-47 95,-29l-66 124zm-189 -227l24 139 47 -109 369 552 -117 78 -369 -551 46 -109zm0 0l-46 109 -61 -91 107 -18zm666 -43l12 70 -654 112 -24 -139 654 -112 12 69z"/>
   </g>
   <path class="fil8" d="M12129 3709c0,185 -94,261 -279,261l-2165 0 0 -3262 2165 0c185,0 279,85 279,269l0 2732 0 0z"/>
   <path class="fil9" d="M9941 3844l1817 0c170,0 211,-20 211,-190l0 -2602c0,-171 -41,-219 -211,-219l-1817 0 0 3011z"/>
   <path class="fil8" d="M7585 970c0,-184 94,-260 279,-260l1988 0 0 3262 -1988 0c-185,0 -279,-85 -279,-270l0 -2732 0 0z"/>
   <g>
    <path class="fil0" d="M11784 2166c0,53 -43,96 -95,96l-686 0c-53,0 -95,-43 -95,-96l0 -849c0,-52 42,-95 95,-95l686 0c52,0 95,43 95,95l0 849 0 0z"/>
   </g>
   <path class="fil10" d="M11784 2166c0,53 -43,96 -95,96l-686 0c-53,0 -95,-43 -95,-96l0 -849c0,-52 42,-95 95,-95l686 0c52,0 95,43 95,95l0 849 0 0z"/>
   <g>
    <path class="fil11" d="M11784 2166c0,53 -43,96 -95,96l-686 0c-53,0 -95,-43 -95,-96l0 -849c0,-52 42,-95 95,-95l686 0c52,0 95,43 95,95l0 849 0 0z"/>
   </g>
   <path class="fil9" d="M11416 1959l0 -56c83,-36 138,-129 148,-244 14,-7 26,-29 26,-56 0,-32 -15,-58 -33,-59 -25,-112 -106,-170 -215,-170 -110,0 -191,58 -217,170 -18,1 -32,27 -32,59 0,27 11,49 26,56 10,114 65,207 147,243l0 57c-253,4 -301,33 -301,218l0 139 755 0 0 -139c1,-186 -49,-215 -304,-218z"/>
   <path class="fil12" d="M11788 2595c0,35 -29,64 -65,64l-1601 0c-36,0 -65,-29 -65,-64 0,-36 29,-65 65,-65l1601 0c36,0 65,29 65,65z"/>
   <path class="fil12" d="M11788 2867c0,36 -29,65 -65,65l-1601 0c-36,0 -65,-29 -65,-65 0,-36 29,-65 65,-65l1601 0c36,0 65,29 65,65z"/>
   <path class="fil12" d="M11788 3155c0,36 -29,65 -65,65l-1601 0c-36,0 -65,-29 -65,-65 0,-36 29,-65 65,-65l1601 0c36,0 65,29 65,65z"/>
   <polygon class="fil13" points="9857,710 9885,710 9885,3972 9857,3971 "/>
   <path class="fil14" d="M8728 710l1124 0 0 3262 -1124 0c-185,0 -185,-3262 0,-3262z"/>
   <g>
    <path class="fil15" d="M8894 1500c-31,-92 -79,-177 -138,-252 -63,76 -113,164 -146,260 40,7 81,11 123,11 55,0 109,-7 161,-19z"/>
    <path class="fil15" d="M8831 1183c-5,-1 -10,-1 -14,-2 -11,11 -22,22 -32,33 66,81 117,174 152,275 30,-9 60,-19 88,-32 -45,-104 -112,-197 -194,-274z"/>
    <path class="fil15" d="M8728 1214c-11,-12 -22,-23 -33,-34 -11,0 -22,2 -32,3 -86,79 -154,175 -199,284 33,13 68,24 104,33 35,-106 90,-202 160,-286z"/>
    <path class="fil15" d="M8946 1211c-13,-5 -27,-9 -41,-13 65,71 119,152 158,241 19,-10 38,-20 56,-32 -45,-75 -104,-142 -173,-196z"/>
    <path class="fil15" d="M8233 1696c11,-93 38,-181 79,-262 -14,-8 -27,-17 -39,-27 -50,63 -87,135 -109,214 22,26 45,51 69,75z"/>
    <path class="fil15" d="M8588 1198c-14,4 -27,8 -41,13 -72,57 -134,128 -180,209 19,11 38,21 58,30 40,-93 95,-178 163,-252z"/>
    <path class="fil15" d="M9071 1272c31,35 59,72 83,112 9,-7 19,-14 28,-21 -33,-35 -70,-65 -111,-91z"/>
    <path class="fil15" d="M8907 1540c-56,13 -114,20 -174,20 -46,0 -92,-4 -135,-12 -22,74 -33,152 -33,233 0,32 1,64 5,95 52,12 107,19 163,19 70,0 138,-10 202,-29 3,-30 5,-61 5,-92 0,-81 -11,-159 -33,-234z"/>
    <path class="fil15" d="M9140 1444c-20,12 -40,23 -61,34 35,92 54,192 55,296 30,-20 59,-42 85,-66 -9,-95 -37,-184 -79,-264z"/>
    <path class="fil15" d="M8643 2229c-42,-5 -84,-14 -124,-25 39,65 88,124 144,175 6,1 13,2 19,3 14,-13 27,-27 40,-41 -29,-35 -55,-73 -79,-112z"/>
    <path class="fil15" d="M8862 2223c-25,42 -53,81 -83,118 12,14 24,27 37,40 5,-1 10,-1 15,-2 58,-54 109,-117 150,-186 -39,13 -79,23 -119,30z"/>
    <path class="fil15" d="M8576 1921c17,96 49,186 95,269 20,1 41,2 62,2 34,0 67,-2 100,-7 47,-83 80,-176 96,-274 -63,17 -128,26 -196,26 -54,0 -106,-6 -157,-16z"/>
    <path class="fil15" d="M8422 1272c-45,29 -86,63 -123,103 11,8 22,15 33,23 26,-45 56,-88 90,-126z"/>
    <path class="fil15" d="M8359 1781c0,-102 18,-201 51,-292 -21,-10 -42,-21 -63,-33 -41,84 -68,176 -74,274 27,23 56,43 86,61 0,-3 0,-6 0,-10z"/>
    <path class="fil15" d="M8422 2291c-50,-58 -93,-122 -124,-192 -41,-28 -78,-59 -112,-94 47,118 130,218 236,286z"/>
    <path class="fil15" d="M8460 2184c-33,-13 -64,-27 -94,-43 47,81 108,153 181,210 14,5 27,9 41,13 -50,-54 -93,-115 -128,-180z"/>
    <path class="fil15" d="M9346 1855c3,-24 5,-49 5,-74 0,-47 -6,-92 -16,-136 -22,28 -47,55 -73,79 2,19 3,38 3,57 0,72 -10,142 -29,208 42,-40 79,-85 110,-134z"/>
    <path class="fil15" d="M9141 2117c-32,20 -65,37 -100,52 -36,72 -82,137 -136,195 14,-4 28,-8 41,-13 80,-63 147,-143 195,-234z"/>
    <path class="fil15" d="M9325 1955c-34,42 -74,80 -116,113 -33,82 -80,157 -138,222 121,-77 212,-195 254,-335z"/>
    <path class="fil15" d="M9223 1781c0,-7 0,-14 -1,-21 -28,24 -57,45 -89,64 -4,101 -27,197 -64,286 37,-20 72,-42 105,-67 32,-82 49,-170 49,-262z"/>
    <path class="fil15" d="M8531 1910c-44,-12 -86,-28 -126,-47 10,103 40,199 84,287 42,15 85,26 129,33 -43,-84 -73,-176 -87,-273z"/>
    <path class="fil15" d="M8268 2024c-25,-76 -39,-158 -39,-243 0,-11 0,-22 0,-33 -27,-23 -53,-49 -76,-76 -7,35 -10,72 -10,109 0,43 4,86 13,126 33,43 71,82 112,117z"/>
    <path class="fil15" d="M9210 1394c-12,9 -23,18 -35,26 41,77 69,162 82,251 23,-24 44,-50 64,-77 -24,-74 -62,-142 -111,-200z"/>
    <path class="fil15" d="M8975 1898c-14,98 -44,192 -88,278 43,-10 84,-23 124,-39 43,-88 70,-186 79,-288 -37,19 -75,35 -115,49z"/>
    <path class="fil15" d="M9092 1800c0,-7 1,-13 1,-19 0,-100 -19,-196 -52,-285 -30,13 -60,24 -92,33 22,78 35,160 35,245 0,26 -2,52 -4,78 39,-15 77,-32 112,-52z"/>
    <path class="fil15" d="M8733 2234c-12,0 -24,0 -36,-1 16,26 34,51 53,75 20,-25 39,-51 56,-77 -24,2 -49,3 -73,3z"/>
    <path class="fil15" d="M8361 1841c-31,-18 -62,-37 -90,-59 0,102 21,200 60,289 32,21 66,40 101,56 -39,-89 -64,-185 -71,-286z"/>
    <path class="fil15" d="M8521 1781c0,-84 12,-165 34,-241 -36,-9 -72,-20 -106,-34 -31,86 -48,179 -48,275 0,11 0,23 1,34 39,20 80,37 124,50 -3,-28 -5,-56 -5,-84z"/>
   </g>
   <path class="fil12" d="M10803 1294c0,35 -30,65 -65,65l-616 0c-36,0 -65,-30 -65,-65 0,-36 29,-65 65,-65l616 0c35,0 65,29 65,65z"/>
   <path class="fil12" d="M10803 1566c0,36 -30,65 -65,65l-616 0c-36,0 -65,-29 -65,-65 0,-36 29,-65 65,-65l616 0c35,0 65,29 65,65z"/>
   <path class="fil12" d="M10803 1854c0,36 -30,65 -65,65l-616 0c-36,0 -65,-29 -65,-65 0,-36 29,-65 65,-65l616 0c35,0 65,29 65,65z"/>
   <g>
    <path class="fil16" d="M11158 3272c24,55 -1,118 -56,142l-3059 1336c-55,23 -118,-2 -142,-56l-600 -1375c-24,-55 1,-119 56,-143l3059 -1335c55,-24 118,1 142,56l600 1375z"/>
   </g>
   <g>
    <path class="fil17" d="M11126 3256c24,54 -1,118 -56,142l-3059 1335c-55,24 -119,-1 -143,-56l-600 -1374c-24,-55 1,-119 56,-143l3059 -1335c55,-24 119,1 143,56l600 1375z"/>
   </g>
   <g>
    <path class="fil16" d="M8793 3146c-90,-75 -215,54 -245,89 0,0 -7,9 -20,26 -168,-30 -517,-84 -606,-38 -18,9 -63,59 -47,65 133,45 376,125 504,167 -130,171 -298,396 -361,503 -77,-12 -185,-25 -216,-9 -8,4 -27,25 -20,28 53,18 148,49 205,68 -3,17 -2,37 14,45 14,7 32,6 47,3 28,52 77,144 106,195 3,7 21,-17 23,-25 11,-34 -21,-138 -47,-212 96,-82 294,-287 441,-444 61,113 191,353 262,482 8,15 49,-38 55,-57 31,-99 -93,-452 -150,-605 11,-12 18,-19 18,-19 29,-35 128,-186 37,-262z"/>
   </g>
   <g>
    <path class="fil18" d="M9707 2534c17,39 0,84 -39,101l-396 172c-39,17 -84,0 -101,-39l0 0c-17,-39 1,-84 39,-101l396 -173c39,-17 84,1 101,40l0 0z"/>
   </g>
   <g>
    <path class="fil18" d="M10372 2244c17,39 -1,84 -40,101l-396 173c-39,16 -84,-1 -101,-40l0 0c-17,-39 1,-84 40,-101l396 -173c39,-17 84,1 101,40l0 0z"/>
   </g>
   <g>
    <path class="fil18" d="M10091 3413c17,39 -1,84 -39,101l-396 173c-39,17 -84,-1 -101,-40l0 0c-17,-39 0,-84 39,-101l396 -173c39,-17 84,1 101,40l0 0z"/>
   </g>
   <g>
    <path class="fil18" d="M10755 3123c17,39 0,84 -39,101l-396 173c-39,17 -84,-1 -101,-40l0 0c-17,-39 1,-84 39,-101l397 -172c38,-17 83,0 100,39l0 0z"/>
   </g>
   <g>
    <g>
     <path class="fil18" d="M9406 3099l1054 -460c39,-17 57,-63 40,-101 -17,-39 -62,-57 -101,-40l-1054 460c-39,17 -57,62 -40,101 17,39 62,56 101,40z"/>
    </g>
    <g>
     <path class="fil18" d="M10524 2783l-1054 460c-39,17 -57,62 -40,101 17,39 62,57 101,40l1054 -460c39,-17 56,-62 39,-101 -17,-39 -62,-57 -100,-40z"/>
    </g>
   </g>
  </g>
 </g>
</svg>
