<svg xmlns="http://www.w3.org/2000/svg" width="26" height="26" viewBox="0 0 20109 20109" shape-rendering="geometricPrecision" image-rendering="optimizeQuality" fill-rule="evenodd" clip-rule="evenodd"><path d="m18483 4826c-620 275-1287 461-1987 545 715-428 1263-1106 1521-1913-668 396-1408 684-2196 839-631-672-1530-1092-2524-1092-1910 0-3459 1548-3459 3458 0 271 31 535 90 788-2875-144-5423-1521-7129-3613-297 510-468 1105-468 1738 0 1200 611 2259 1539 2879-567-18-1101-174-1567-433 0 15 0 29 0 44 0 1676 1192 3073 2774 3391-290 79-596 121-911 121-223 0-440-21-651-62 440 1374 1718 2374 3231 2402-1184 928-2675 1481-4295 1481-279 0-555-17-825-49 1530 981 3348 1554 5301 1554 6362 0 9840-5270 9840-9840 0-150-3-299-10-447 676-488 1262-1097 1726-1791" fill="#6DABDE" fill-rule="nonzero"/></svg>