<svg xmlns="http://www.w3.org/2000/svg" width="26" height="26" viewBox="0 0 7593 7593" shape-rendering="geometricPrecision" image-rendering="optimizeQuality" fill-rule="evenodd" clip-rule="evenodd"><path d="m1595 614h4403c542 0 981 439 981 981v4403c0 542-439 981-981 981h-4403c-542 0-981-439-981-981v-4403c0-542 439-981 981-981m2148 4456h260c0 0 79-9 119-52 37-40 36-115 36-115 0 0-5-349 157-400 160-51 365 337 583 487 164 113 289 88 289 88l582-8c0 0 304-19 160-258-12-20-84-177-432-501-365-338-316-284 123-869 268-357 375-575 341-668-32-89-229-65-229-65l-655 4c0 0-48-7-84 15-35 21-58 70-58 70 0 0-104 276-242 511-291 495-408 521-456 490-111-71-83-287-83-441 0-480 73-680-142-732-71-17-123-29-305-30-234-3-432 0-544 55-75 37-132 118-97 123 43 5 141 26 193 97 67 91 65 296 65 296 0 0 39 565-90 635-88 49-209-50-469-499-134-230-234-485-234-485 0 0-20-47-54-73-42-30-101-40-101-40l-622 4c0 0-94 2-128 43-31 36-2 111-2 111 0 0 487 1140 1039 1715 506 526 1080 492 1080 492" fill="#5075A5"/></svg>