<svg xmlns="http://www.w3.org/2000/svg" width="26" height="26" viewBox="0 0 38341 38341" shape-rendering="geometricPrecision" image-rendering="optimizeQuality" fill-rule="evenodd" clip-rule="evenodd"><path d="m31669 12028c0 493-399 893-892 893h-4464c-493 0-893-400-893-893v-4464c0-493 400-893 893-893h4464c493 0 892 400 892 893v4464m0 18749c0 493-399 892-892 892h-23213c-493 0-893-399-893-892v-14285h3048c-241 851-370 1750-370 2678 0 5424 4397 9821 9821 9821 5424 0 9821-4397 9821-9821 0-928-129-1827-370-2678h3048v14285m-12499-17856c3452 0 6250 2798 6250 6249 0 3452-2798 6250-6250 6250-3451 0-6249-2798-6249-6250 0-3451 2798-6249 6249-6249m11607-9821h-23213c-2466 0-4464 1999-4464 4464v23213c0 2465 1998 4464 4464 4464h23213c2465 0 4464-1999 4464-4464v-23213c0-2465-1999-4464-4464-4464" fill="#572025" fill-rule="nonzero"/></svg>