<?xml version="1.0" encoding="UTF-8"?>
<!DOCTYPE svg PUBLIC "-//W3C//DTD SVG 1.1//EN" "http://www.w3.org/Graphics/SVG/1.1/DTD/svg11.dtd">
<!-- Creator: CorelDRAW X7 -->
<svg xmlns="http://www.w3.org/2000/svg" xml:space="preserve" width="1802px" height="364px" version="1.1" style="shape-rendering:geometricPrecision; text-rendering:geometricPrecision; image-rendering:optimizeQuality; fill-rule:evenodd; clip-rule:evenodd"
viewBox="0 0 226244 45714"
 xmlns:xlink="http://www.w3.org/1999/xlink">
 <defs>
  <style type="text/css">
   <![CDATA[
    .str0 {stroke:#2C3E50;stroke-width:186.269;stroke-linecap:round;stroke-linejoin:round}
    .fil0 {fill:none}
    .fil1 {fill:#E31E24;fill-rule:nonzero}
   ]]>
        	 .fil1 
	 {	opacity: 1; font-weight: 900; 
		 -webkit-animation: blink 2s infinite; 
		 -moz-animation: blink 2s infinite;
		 -ms-animation: blink 2s infinite;
		 -o-animation: blink 2s infinite;
		 animation: blink 2s infinite;}
		@-keyframes blink {0%, 100% {opacity: 1;}50% {opacity: 0.1;}}
		@-webkit-keyframes blink {0%, 100% {opacity: 1;}50% {opacity: 0.1;}}
		@-moz-keyframes blink {0%, 100% {opacity: 1;}50% {opacity: 0.1;}}
		@-ms-keyframes blink {0%, 100% {opacity: 1;}50% {opacity: 0.1;}}
		@-o-keyframes blink {0%, 100% {opacity: 1;}50% {opacity: 0.1;}}
  </style>

 </defs>
 <g id="Слой_x0020_1">
  <metadata id="CorelCorpID_0Corel-Layer"/>
  <g id="_622408112">
   <path class="fil0 str0" d="M93 33445l5099 -448 1342 -894c1299,-271 2458,-891 3578,-1610l358 156 447 -268 1610 -67 2795 -828 2662 560 2907 -1700 358 179 1297 -716 1431 313c3764,-2240 4309,-1662 6060,-682l4853 -2460 1655 -402 2549 -1968 2729 -1208 2460 -1520 2683 -2147 2102 -984 3713 -2237 581 135 2505 -1745 3891 -805 1968 582 1878 1520 1521 626 582 671c5334,4085 6474,4692 7827,5367l671 -44 2817 2057 4518 2192 939 -45 962 492 223 -134 1543 626 358 -179 3131 1118 402 -134 805 425 984 89 1052 515 2549 447 1968 760 3645 783 2035 -112 1879 604 2124 -179 604 -335 827 45 2841 -649 3086 -447 2885 -1409 2504 -559 1230 -134 4272 -1633 3175 -671 1744 -805 1342 -313 6217 -939 537 -492 492 313 1252 -268 447 402c4950,-1573 8111,-4443 12166,-6664 898,-249 1845,-273 2818,-179 3313,1901 6358,2684 10007,5032 1003,190 1990,249 2963,201 1700,-171 3422,-1953 4026,-850 154,252 745,0 1118,0l7245 4294c1423,803 3602,1001 6217,850l984 -626 537 -90 3176 -1521c866,-575 2250,-960 4249,-1118l2370 -268 1342 -268 850 492 671 -90 670 268 1655 -134 313 -402 1566 1163 402 -45 425 291 336 -101 648 458 1979 805c1391,739 2791,1683 4361,2718l1879 1431 1118 268 760 -223c2403,1386 4545,2848 6441,4383l3265 1073"/>
   <line class="fil0 str0" x1="30037" y1="27440" x2="23230" y2= "31052" />
   <line class="fil0 str0" x1="10917" y1="30381" x2="10662" y2= "31500" />
   <polyline class="fil0 str0" points="53362,14649 51094,17724 38571,26356 "/>
   <polyline class="fil0 str0" points="52078,22331 49886,27206 48008,29263 44474,31097 "/>
   <polyline class="fil0 str0" points="60531,16114 62812,18261 63662,20363 64243,21794 65004,22957 64870,24343 66211,25506 65764,26669 66838,28592 69700,29442 "/>
   <polyline class="fil0 str0" points="60263,17008 61068,18261 58787,23628 58563,28548 56014,29666 54359,30695 51407,31365 "/>
   <polyline class="fil0 str0" points="57332,12601 56953,14862 54001,17098 51541,20318 "/>
   <polyline class="fil0 str0" points="65707,15498 65093,16785 67777,19200 71802,22331 "/>
   <polyline class="fil0 str0" points="66569,19245 69745,23046 72920,25730 77885,28861 "/>
   <polyline class="fil0 str0" points="26410,26876 24303,28861 22425,29576 "/>
   <line class="fil0 str0" x1="81540" y1="25070" x2="86696" y2= "28637" />
   <polyline class="fil0 str0" points="92063,31187 93181,30426 95418,31142 "/>
   <polyline class="fil0 str0" points="97117,31142 99398,30247 100304,30258 101008,30639 "/>
   <path class="fil0 str0" d="M111128 31802c4323,-351 5874,-3586 8945,-2863l3310 403 5948 1744"/>
   <polyline class="fil0 str0" points="131031,28134 128347,25719 120552,28997 "/>
   <path class="fil0 str0" d="M140625 33099c-686,-373 -1338,-589 -2058,-1119 -875,-637 -969,-313 -1453,-469 -1021,-239 -2043,-1126 -3064,-716 -3525,-112 -6576,403 -8610,2259"/>
   <path class="fil0 str0" d="M140111 23628c1715,793 3458,1175 5233,1073 1550,1931 3682,2140 5523,2572"/>
   <line class="fil0 str0" x1="156100" y1="17210" x2="163748" y2= "23203" />
   <path class="fil0 str0" d="M157308 28973c-626,849 1073,1222 1610,1833l-492 448 1565 1744c713,789 146,1202 -1520,1565"/>
   <path class="fil0 str0" d="M162876 29017c4552,383 6452,1511 4205,3802"/>
   <line class="fil0 str0" x1="167036" y1="26289" x2="162429" y2= "27989" />
   <polyline class="fil0 str0" points="172045,32193 173924,31030 174774,31254 175623,31164 181482,33803 "/>
   <line class="fil0 str0" x1="179169" y1="23630" x2="182601" y2= "26871" />
   <line class="fil0 str0" x1="173968" y1="22756" x2="178888" y2= "25529" />
   <polyline class="fil0 str0" points="194677,26066 195213,24992 194498,23114 195571,22398 195862,23315 197785,23315 199037,25216 198076,26401 201162,29599 "/>
   <line class="fil0 str0" x1="195571" y1="22398" x2="196285" y2= "21447" />
   <polyline class="fil0 str0" points="201028,31030 203488,31701 206127,32238 208273,31835 212835,32238 215519,33356 218605,34161 "/>
   <path class="fil0 str0" d="M183898 28526l4517 1028 1297 671 1476 671 5188 1252c1737,671 9825,1812 14402,3086"/>
  </g>
  <rect class="fil0" x="93" width="226058" height="45714"/>
  <path class="fil1" d="M73951 19825l13776 3914c49,14 78,65 64,115 -14,49 -65,78 -115,64l-13863 -3938 -4 -2c-50,-14 -78,-66 -63,-115 403,-1334 231,-2547 -287,-3502 -307,-566 -735,-1042 -1237,-1398l-3 -2c-2,-2 -5,-4 -7,-5 -73,-52 -147,-101 -222,-147 -343,-209 -714,-366 -1100,-461 -2,-1 -4,-1 -7,-2 -291,-72 -590,-109 -892,-108 -637,1 -1287,171 -1897,541l-1 0c-298,181 -587,409 -861,690 -36,36 -94,37 -131,1 -37,-35 -38,-94 -2,-131 265,-272 545,-497 833,-679l-1339 -3546c-18,-48 7,-101 55,-119 48,-18 101,6 119,54l1327 3514c329,-187 668,-320 1010,-403l-280 -8621c-2,-52 38,-95 90,-96 51,-2 94,38 95,90l280 8586c234,-44 469,-66 702,-67 286,0 569,31 845,92l718 -3751c9,-50 58,-83 108,-74 51,10 84,59 74,109l-719 3761c375,101 735,257 1069,462 54,33 107,67 160,102l3436 -5154c29,-43 87,-55 129,-26 43,28 55,86 26,129l-3439 5159c496,367 919,846 1225,1411l3 5 10639 -4699c47,-21 102,1 123,48 20,47 -1,101 -48,122l-10629 4695c218,450 365,949 420,1486l4311 -52c51,-1 93,40 94,91 1,52 -40,94 -92,94l-4298 52c33,539 -25,1114 -195,1711z"/>
 </g>
</svg>
