<?xml version="1.0" encoding="UTF-8"?>
<!DOCTYPE svg PUBLIC "-//W3C//DTD SVG 1.1//EN" "http://www.w3.org/Graphics/SVG/1.1/DTD/svg11.dtd">
<!-- Creator: CorelDRAW X7 -->
<svg xmlns="http://www.w3.org/2000/svg" xml:space="preserve" width="100%" height="100%" version="1.1" style="shape-rendering:geometricPrecision; text-rendering:geometricPrecision; image-rendering:optimizeQuality; fill-rule:evenodd; clip-rule:evenodd"
viewBox="0 0 21000 26023"
 xmlns:xlink="http://www.w3.org/1999/xlink">
 <defs>
  <style type="text/css">
   <![CDATA[
    .fil0 {fill:#424F5C}
    .fil1 {fill:#CDCCCD}
   ]]>
    .fil0 
	 {	opacity: 1; font-weight: 900; 
		 -webkit-animation: blink 4s infinite; 
		 -moz-animation: blink 4s infinite;
		 -ms-animation: blink 4s infinite;
		 -o-animation: blink 4s infinite;
		 animation: blink 4s infinite;
	}
		@-keyframes blink {0%, 100% {opacity: 1;}50% {opacity: 0;}}
		@-webkit-keyframes blink {0%, 100% {opacity: 1;}50% {opacity: 0;}}
		@-moz-keyframes blink {0%, 100% {opacity: 1;}50% {opacity: 0;}}
		@-ms-keyframes blink {0%, 100% {opacity: 1;}50% {opacity: 0;}}
		@-o-keyframes blink {0%, 100% {opacity: 1;}50% {opacity: 0;}}

		
  </style>
 </defs>
 <g id="Слой_x0020_1">
  <metadata id="CorelCorpID_0Corel-Layer"/>
  <g>
   <path class="fil0" d="M19385 20209c34,-41 105,-48 143,-8 34,36 48,86 65,130 323,911 644,1819 966,2728 29,79 71,157 143,201 84,53 184,56 280,65 25,51 23,112 1,165 -380,-12 -761,-11 -1140,0 -22,6 -27,-17 -31,-30 -12,-44 -7,-93 10,-135 104,-10 213,0 310,-41 60,-24 66,-96 48,-149 -95,-290 -195,-578 -293,-865 -329,0 -657,0 -987,0 -38,1 -79,1 -111,21 -25,15 -37,42 -48,69 -83,236 -168,475 -253,711 -14,43 -28,93 -8,135 16,41 54,65 93,80 76,29 160,32 240,41 22,53 25,113 -2,164 -343,-12 -686,-13 -1027,-1 -20,-54 -23,-114 3,-165 97,-7 201,-19 282,-78 95,-68 150,-179 192,-286 349,-868 696,-1738 1045,-2607 21,-52 42,-105 78,-145l1 0 0 0zm-17940 21c264,12 530,15 793,3 21,0 41,-6 62,1 25,47 25,109 0,156 -50,19 -121,23 -144,80 -21,67 12,136 35,196 81,200 177,391 264,589 11,26 26,51 42,75 99,-196 198,-392 293,-588 32,-79 79,-160 68,-248 -12,-71 -92,-90 -149,-100 -26,-51 -21,-109 -6,-161 90,-3 178,4 269,4 152,5 305,0 456,-8 24,51 27,112 1,164 -48,16 -101,23 -145,50 -137,74 -216,213 -284,346 -127,256 -255,516 -380,773 193,428 388,857 580,1285 9,18 19,36 27,54 12,-9 21,-18 26,-30 273,-628 544,-1257 815,-1886 50,-113 106,-225 130,-348 10,-57 6,-126 -38,-168 -63,-56 -150,-65 -230,-73 -18,-51 -28,-121 7,-166 185,3 372,12 558,7 107,0 216,-4 323,-7 23,51 23,111 0,164 -100,15 -204,47 -276,121 -100,97 -139,231 -193,355 -369,848 -739,1697 -1107,2547 -18,38 -33,80 -65,107 -30,23 -76,22 -104,-4 -36,-30 -48,-76 -67,-118 -206,-479 -415,-956 -622,-1434 -229,474 -451,950 -678,1423 -27,53 -43,128 -107,149 -59,15 -101,-41 -119,-88 -365,-912 -726,-1826 -1092,-2738 -33,-81 -63,-169 -125,-233 -64,-65 -157,-76 -242,-85 -26,-53 -27,-113 -6,-165 340,11 678,11 1018,-2 24,51 27,116 0,165 -77,17 -166,17 -228,73 -41,36 -39,95 -29,145 17,80 53,157 83,235 278,674 556,1347 831,2022 7,12 16,22 26,32 8,-15 17,-29 24,-44 167,-362 332,-723 498,-1084 7,-12 12,-26 4,-38 -133,-302 -267,-602 -400,-904 -34,-77 -68,-154 -107,-230 -33,-57 -68,-117 -127,-154 -45,-31 -103,-42 -157,-53 -24,-51 -27,-111 -6,-164l0 0zm5957 930c258,3 514,17 770,3 28,-1 59,-5 89,-1 25,51 20,111 -3,163 -105,7 -212,15 -311,60 -77,33 -142,88 -195,153 -151,184 -300,368 -450,551 -27,37 -58,78 -62,126 -1,34 21,61 40,88 217,270 431,540 647,811 33,42 66,89 110,121 71,52 160,78 247,92 22,51 24,110 -3,160 -218,-5 -438,-11 -656,3 0,-82 6,-171 -47,-240 -184,-245 -370,-490 -554,-735 -66,-87 -180,-114 -284,-114 0,162 0,325 0,488 2,92 0,184 19,275 10,43 28,92 68,116 51,33 113,35 170,44 15,0 21,16 26,28 12,46 9,96 -12,139 -327,-13 -656,-13 -982,0 -27,-51 -26,-113 -3,-166 76,-9 154,-9 225,-41 47,-19 77,-63 91,-108 25,-89 24,-183 25,-275 2,-355 2,-713 2,-1071 -2,-104 2,-211 -17,-314 -10,-58 -37,-119 -92,-146 -73,-36 -154,-36 -234,-45 -23,-53 -24,-114 1,-167 328,14 657,16 984,0 24,52 27,114 0,165 -61,14 -129,11 -184,47 -41,27 -58,74 -68,120 -19,88 -17,180 -19,271 0,157 0,313 0,470 124,0 237,-64 325,-145 82,-73 154,-157 222,-244 83,-102 166,-202 229,-318 21,-42 49,-90 32,-139 -21,-50 -84,-51 -130,-60 -16,0 -19,-19 -24,-29 -12,-46 -6,-92 8,-136l0 0zm1230 -2c325,12 648,16 971,4 29,-2 58,-4 86,1 29,50 20,109 3,162 -86,10 -175,9 -250,54 -70,48 -81,140 -89,219 -10,199 -4,396 -5,595 1,269 -3,540 3,809 7,89 7,195 77,261 74,59 175,50 264,62 20,54 21,114 -3,166 -181,-4 -365,-7 -548,-9 -169,-3 -340,6 -510,8 -18,-53 -20,-111 0,-163 78,-11 162,-11 235,-47 51,-23 79,-79 91,-134 20,-100 18,-203 18,-303 0,-368 0,-736 0,-1105 -2,-86 -2,-173 -24,-256 -14,-49 -42,-96 -91,-118 -71,-32 -152,-30 -229,-39 -20,-55 -20,-112 1,-167l0 0zm2054 7c253,-5 517,-28 755,73 149,60 271,179 320,332 65,200 24,420 -73,601 -97,180 -274,312 -471,357 -179,41 -374,47 -545,-30 2,189 -5,377 6,566 9,74 20,159 83,207 74,53 169,39 255,57 26,52 19,112 0,163 -293,-7 -584,-15 -877,-4 -62,-2 -124,10 -185,0 -22,-52 -17,-109 1,-162 95,-13 210,-6 281,-81 58,-79 57,-185 62,-278 3,-92 1,-183 1,-275 0,-312 0,-627 0,-941 -1,-86 -1,-172 -20,-256 -13,-53 -42,-106 -93,-128 -72,-34 -152,-32 -228,-41 -17,-40 -23,-82 -15,-123 4,-16 7,-45 33,-42 237,5 473,15 710,5l0 0zm1271 -5c82,0 163,3 245,3 329,9 657,6 986,7 158,-1 320,7 477,-20 35,203 62,408 87,614 -40,17 -83,26 -127,27 -39,-121 -68,-252 -153,-350 -70,-80 -182,-106 -284,-106 -121,2 -242,0 -363,2 -46,-2 -95,15 -124,54 -25,33 -27,75 -27,115 0,228 0,456 0,682 136,0 272,5 408,-7 53,-6 116,-14 150,-61 42,-63 20,-146 39,-216 39,-25 89,-16 130,2 -16,243 -13,488 -2,731 -42,18 -91,18 -133,0 -6,-64 0,-135 -27,-194 -30,-61 -104,-78 -167,-84 -133,-14 -265,-6 -398,-9 0,246 0,492 0,738 0,77 26,157 83,208 41,40 100,28 151,29 129,-3 257,6 385,-7 118,-17 218,-94 284,-189 74,-107 115,-231 147,-355 45,-9 92,1 131,21 -38,234 -80,467 -142,696 -281,-9 -560,-12 -841,-9 -304,-3 -608,2 -912,9 -25,-52 -24,-112 -3,-166 94,-13 202,-6 276,-75 64,-79 61,-187 67,-283 3,-383 0,-765 1,-1147 -1,-102 2,-204 -18,-304 -9,-51 -28,-106 -74,-138 -56,-38 -128,-41 -196,-48 -18,-1 -38,-4 -54,-5 -23,-53 -20,-112 -2,-165l0 0zm3080 3c141,-1 281,-10 420,9 221,29 437,113 604,264 172,154 279,369 326,592 45,213 43,434 2,645 -39,194 -126,383 -267,522 -144,145 -337,233 -536,269 -192,39 -390,24 -584,24 -303,-10 -605,-9 -905,2 -24,-53 -24,-112 0,-165 90,-12 196,-6 268,-69 65,-71 65,-173 72,-261 5,-280 0,-561 2,-840 -2,-177 3,-355 -6,-532 -6,-80 -10,-173 -71,-233 -75,-65 -179,-48 -267,-70 -26,-50 -19,-107 -2,-160 188,2 373,10 561,9 127,-4 256,-4 383,-6l0 0zm1570 -5c352,16 704,14 1057,2 20,53 22,113 -4,165 -88,12 -189,7 -261,66 -68,65 -68,167 -76,254 -6,303 -1,605 -3,907 2,171 -4,340 8,511 7,76 19,169 91,214 73,42 161,39 244,50 23,51 20,108 3,161 -128,2 -255,-6 -383,-6 -227,-4 -452,2 -676,9 -24,-52 -25,-115 2,-166 80,-9 163,-9 236,-46 62,-34 82,-109 92,-174 15,-121 10,-245 12,-366 -2,-348 2,-699 -2,-1048 -6,-97 -1,-206 -63,-288 -69,-78 -186,-63 -277,-81 -27,-50 -24,-112 0,-164l0 0zm-11889 167c-27,-52 -24,-112 -1,-165 228,5 457,12 687,9 124,0 249,-9 373,-7 17,52 18,111 -5,163 -77,9 -157,9 -228,42 -46,21 -77,66 -89,116 -27,103 -22,208 -25,314 0,355 0,713 0,1070 3,100 -2,203 25,301 12,48 41,95 89,118 71,32 151,32 228,39 23,53 23,114 2,165 -353,-11 -707,-12 -1059,1 -21,-54 -24,-115 3,-166 79,-9 164,-9 236,-48 53,-27 77,-88 88,-142 16,-98 15,-195 16,-292 0,-357 0,-712 0,-1070 -1,-94 0,-189 -21,-279 -12,-55 -43,-108 -96,-130 -70,-30 -148,-32 -223,-39l0 0zm-2282 2627c13,-11 40,-9 33,15 -53,249 -100,501 -144,755 94,-82 192,-168 319,-192 80,-14 177,-17 240,44 50,56 45,139 41,208 -23,172 -64,342 -89,514 -3,36 -12,81 18,110 31,23 71,21 107,26 -4,27 3,84 -42,73 -147,-7 -295,-1 -441,-1 2,-23 4,-47 14,-67 43,-17 95,-8 126,-48 35,-49 43,-112 55,-170 19,-114 42,-228 63,-342 8,-49 15,-102 5,-151 -12,-46 -52,-87 -101,-87 -97,-2 -182,51 -257,107 -39,29 -74,66 -83,116 -26,135 -50,269 -76,405 -4,42 -15,86 0,130 23,35 72,28 108,36 0,24 -5,50 -16,74 -155,-9 -312,-5 -469,-2 0,-25 4,-49 12,-73 49,-5 109,-2 145,-43 33,-45 40,-104 52,-158 60,-328 121,-657 180,-985 12,-36 -4,-77 -44,-84 -93,-20 -190,-6 -285,-10 -51,2 -104,-8 -152,12 -43,22 -55,70 -63,112 -58,328 -120,656 -179,985 -5,47 -20,113 27,145 50,26 107,21 160,26 0,25 -4,49 -13,73 -209,-7 -419,-3 -628,-1 1,-23 1,-48 13,-68 63,-14 135,0 189,-43 45,-37 53,-100 66,-153 56,-304 112,-606 168,-909 6,-43 20,-85 15,-130 -5,-25 -30,-44 -56,-47 -62,-7 -125,-2 -186,-2 -56,0 -120,-4 -163,37 -48,47 -70,111 -101,169 -20,-5 -41,-9 -63,-12 46,-112 80,-228 114,-344 17,2 37,6 53,9 5,17 0,42 23,49 33,5 68,2 101,2 271,0 544,0 814,0 66,0 134,-2 198,-24 68,-20 128,-58 192,-86l0 0zm16609 18c39,-9 78,-23 117,-26 -6,64 -27,124 -37,186 -58,303 -111,604 -168,907 -12,85 -41,171 -36,259 6,68 89,72 142,80 -3,21 1,60 -30,60 -85,13 -176,29 -251,74 -18,12 -39,17 -61,19 -7,-49 -5,-100 -1,-150 -67,30 -121,81 -192,110 -96,48 -220,45 -312,-16 -74,-51 -111,-138 -121,-223 -26,-223 63,-456 238,-598 115,-98 277,-152 429,-119 34,8 68,29 103,24 32,-109 45,-221 68,-333 3,-43 21,-96 -9,-133 -33,-23 -76,-15 -111,-20 0,-23 0,-43 0,-65 78,-9 155,-21 232,-36l0 0zm-9190 90c50,2 100,0 150,-7 -2,111 -5,223 -11,335 -25,5 -51,8 -74,9 -14,-69 -15,-151 -71,-204 -56,-51 -136,-39 -205,-41 -58,2 -116,-4 -174,2 -49,3 -80,51 -86,95 -30,148 -54,298 -84,446 92,0 182,4 274,-2 40,-4 85,-6 114,-39 27,-32 34,-74 45,-113 23,-6 47,-8 73,-2 -23,112 -48,222 -64,335 -3,22 -3,44 -13,62 -22,8 -46,5 -68,2 0,-33 7,-68 -2,-100 -15,-38 -59,-50 -95,-53 -92,-9 -186,-3 -278,-4 -33,180 -66,359 -100,539 -9,36 5,90 52,92 99,5 200,1 302,1 75,2 149,-24 206,-75 67,-57 108,-137 148,-214 24,-15 53,0 76,7 -44,127 -95,252 -151,374 -350,-7 -702,-5 -1054,2 0,-27 6,-51 14,-77 54,-3 118,2 166,-33 42,-36 52,-96 65,-147 55,-300 110,-598 164,-895 9,-51 19,-103 12,-154 -3,-24 -22,-45 -46,-54 -38,-14 -82,-12 -123,-15 0,-28 5,-53 17,-75 273,7 547,2 821,3l0 0zm9777 7c65,-32 134,33 124,101 -12,59 -70,105 -130,112 -62,5 -107,-67 -88,-123 14,-44 53,-75 94,-90l0 0zm-13621 458c20,-7 40,-7 60,-7 -13,70 -39,138 -45,208 54,-57 105,-123 175,-162 53,-34 121,-56 182,-32 42,16 69,66 52,110 -18,53 -71,101 -131,98 -39,-6 -53,-51 -80,-74 -37,-20 -68,14 -93,38 -63,65 -131,137 -144,231 -21,119 -47,238 -64,359 -3,38 -12,89 26,112 41,23 90,21 134,27 -3,23 -3,48 -15,69 -53,8 -105,-2 -158,0 -124,-4 -249,3 -373,2 3,-24 3,-48 15,-68 51,-14 119,-4 155,-53 35,-50 41,-113 55,-172 25,-142 53,-284 78,-427 3,-36 14,-77 -9,-108 -28,-28 -75,-27 -113,-36 3,-19 5,-40 8,-60 95,-12 193,-26 285,-55l0 0zm10259 -2c16,-7 33,-7 49,0 -16,53 -30,110 -39,166 53,-23 92,-68 143,-94 79,-45 167,-83 260,-68 88,9 166,65 212,141 64,104 69,237 39,353 -44,192 -172,367 -352,452 -139,66 -302,63 -443,7 -22,104 -39,205 -57,309 -4,44 -20,101 18,135 43,25 94,21 139,27 -3,23 -3,47 -13,66 -17,9 -36,4 -55,4 -157,-5 -314,-2 -473,0 4,-22 2,-47 16,-68 47,-12 107,-2 145,-41 35,-41 40,-99 54,-150 57,-311 113,-623 169,-934 8,-47 26,-99 8,-147 -28,-35 -79,-32 -118,-41 2,-19 3,-40 7,-60 97,-12 195,-26 291,-57l0 0zm3365 -2c15,-6 29,-3 44,2 -58,238 -95,481 -141,723 -7,50 -22,103 0,151 31,36 87,28 129,36 -2,26 2,80 -41,72 -157,-7 -317,-1 -476,-1 2,-24 2,-48 15,-68 47,-14 104,-4 144,-41 35,-39 42,-96 54,-145 29,-158 58,-315 86,-474 2,-33 14,-77 -12,-105 -30,-23 -72,-23 -108,-31 1,-19 4,-40 8,-60 100,-12 201,-27 298,-59l0 0zm-16260 125c94,-75 213,-128 335,-118 86,4 181,31 232,105 56,81 53,187 35,278 -1,30 -30,45 -57,42 -194,0 -388,-5 -580,-5 -19,106 -26,222 21,322 33,71 97,130 174,142 102,12 210,-19 288,-86 18,-11 41,-45 67,-23 3,5 12,18 16,26 -95,96 -216,175 -352,190 -102,10 -213,2 -300,-59 -76,-54 -122,-145 -129,-237 -17,-219 79,-442 250,-577l0 0zm3255 53c97,-99 231,-176 374,-172 87,1 183,21 244,94 59,72 60,173 49,261 -4,23 -5,50 -25,63 -20,9 -40,8 -59,8 -187,-3 -373,-5 -560,-5 -17,101 -23,210 18,307 29,74 89,140 169,155 65,10 136,2 196,-24 60,-22 106,-68 162,-98 7,13 14,27 19,41 -43,48 -96,89 -152,124 -115,69 -260,87 -393,56 -120,-31 -214,-136 -229,-259 -26,-199 45,-409 187,-551l0 0zm1010 -12c96,-94 224,-162 360,-160 90,1 188,21 247,94 64,83 62,199 41,299 -6,28 -38,34 -63,32 -191,0 -382,-2 -573,-4 -21,124 -25,265 52,370 48,70 134,107 217,94 100,-3 186,-59 257,-121 7,3 21,8 28,12 3,6 8,18 11,26 -97,101 -222,181 -365,192 -114,10 -245,-9 -327,-96 -90,-92 -104,-231 -84,-353 24,-143 92,-284 199,-385l0 0zm3807 47c107,-130 270,-222 442,-211 83,5 174,22 231,86 55,57 48,166 -25,205 -40,21 -103,33 -129,-12 -21,-54 8,-121 -31,-169 -40,-44 -106,-41 -159,-32 -101,27 -175,116 -217,210 -48,107 -73,226 -65,344 7,85 39,175 113,224 57,41 136,41 202,21 82,-24 151,-77 210,-136 13,10 29,18 41,30 -77,97 -174,191 -299,218 -115,24 -246,13 -343,-58 -79,-59 -118,-158 -125,-253 -10,-167 45,-337 154,-467l0 0zm1946 247c59,-218 239,-407 462,-451 101,-15 213,-9 301,46 58,33 90,105 69,170 -20,65 -96,98 -157,80 -27,-9 -38,-39 -35,-65 -1,-44 8,-95 -24,-131 -33,-35 -86,-37 -130,-32 -94,11 -169,79 -214,157 -61,98 -91,214 -98,329 -3,93 13,192 75,261 41,47 106,72 166,68 112,-4 210,-69 284,-148 15,7 30,17 42,29 -66,83 -146,165 -250,203 -95,34 -201,34 -296,5 -83,-25 -156,-89 -189,-170 -47,-111 -36,-237 -6,-351l0 0zm1910 -448c116,-20 243,-15 346,50 83,54 131,148 143,245 30,214 -63,441 -232,577 -133,108 -323,148 -486,93 -96,-32 -174,-110 -206,-204 -53,-139 -24,-296 37,-429 75,-161 221,-296 398,-332l0 0zm2167 36c105,-51 229,-56 338,-15 64,23 116,79 136,145 20,70 16,148 1,219 -5,29 -37,36 -63,35 -190,-3 -382,-5 -574,-6 -18,107 -25,225 24,325 32,66 91,125 165,138 106,15 216,-15 298,-85 19,-10 36,-41 60,-26 12,7 25,26 10,38 -95,100 -226,175 -368,184 -86,4 -178,-4 -255,-50 -82,-49 -135,-139 -145,-233 -30,-270 122,-557 373,-669l0 0zm2567 65c95,-74 214,-114 333,-111 77,2 162,22 210,87 53,73 50,166 39,252 -22,150 -57,296 -77,446 -5,37 -7,97 40,110 39,14 74,-13 105,-35 5,15 29,34 10,49 -47,48 -111,80 -176,90 -48,5 -103,-5 -136,-42 -22,-24 -28,-58 -37,-88 -82,56 -165,125 -269,129 -78,4 -166,1 -231,-53 -48,-41 -58,-112 -48,-172 10,-80 60,-147 121,-195 90,-74 200,-116 312,-144 68,-19 139,-25 204,-52 18,-47 18,-96 18,-145 0,-55 -14,-118 -65,-147 -44,-25 -100,-18 -149,-10 -41,7 -85,22 -112,57 -26,36 -8,86 -23,127 -24,50 -89,71 -140,54 -25,-6 -33,-36 -29,-57 6,-64 53,-113 100,-150l0 0zm-4722 -31c-104,27 -173,121 -214,214 -59,139 -83,295 -44,441 18,71 60,142 131,172 85,38 190,19 260,-44 68,-65 104,-155 126,-243 22,-102 36,-208 25,-314 -6,-68 -27,-137 -80,-183 -54,-50 -134,-60 -204,-43l0 0zm1185 33c-58,18 -110,51 -155,86 -39,29 -80,63 -89,115 -27,139 -50,280 -77,420 -6,32 -12,64 -6,95 15,39 51,70 92,81 102,32 217,9 302,-57 72,-59 120,-147 149,-233 32,-102 49,-210 32,-315 -12,-61 -35,-124 -85,-165 -45,-38 -108,-48 -163,-27l0 0zm2096 -33c-92,16 -166,80 -211,157 -52,89 -76,188 -91,289 -12,96 -14,201 35,286 31,54 92,90 155,82 68,-8 126,-46 183,-84 33,-24 71,-49 77,-93 30,-157 61,-311 86,-468 14,-56 -22,-108 -65,-138 -49,-36 -112,-39 -169,-31l0 0zm-3646 -3265c-67,11 -141,59 -139,133 -2,544 0,1086 0,1628 -2,63 9,136 66,170 91,53 200,53 301,56 193,0 404,-15 568,-134 114,-83 184,-215 220,-349 50,-198 50,-403 39,-604 -18,-222 -62,-452 -199,-631 -109,-142 -280,-229 -453,-260 -133,-24 -271,-30 -403,-9l0 0zm4226 -163c-100,267 -196,535 -296,802 -6,18 -18,42 -4,62 34,23 78,18 117,19 272,0 547,2 819,0 -153,-448 -303,-900 -459,-1348 -65,154 -118,312 -177,465l0 0zm0 0l0 0 0 0zm-4812 -16642l-2475 549 -1416 589 1416 1613 2120 -709 355 -2042zm-6051 4401l-1101 -2044 -2397 589 -237 1768 2319 237 1416 -550zm943 4598l-591 -2399 -2985 590 0 2004 3576 -195zm6248 -4796l-2830 1063 275 2436 3183 -1376 -628 -2123zm-1611 6525l-589 -1024 2828 -1138 276 1925 -2515 237zm6331 -3974l-237 -277 -1203 998 541 953 677 -898 222 -776zm-171 -3022l-456 -1031 -1025 909 142 1268 1336 -266 3 -880zm-1537 -3359l-697 -1293 -992 977 934 1367 755 -1051zm-3811 -3105l-486 -682 992 -311 1120 1199 -869 703 -757 -909zm-2450 -844l-2133 589 532 1974 2023 -677 -69 -1347 -353 -539zm-6072 16052l89 -1523 1581 119 1474 -335 511 1522 -3655 217zm-4480 -2358l-87 -432 1768 570 441 1610 -688 -393 -745 -333 -689 -1022zm-708 -3222l30 -99 1818 -68 -167 1817 -1474 -402 -133 -821 -74 -427zm1366 -4646l-1120 3 -495 1857 1375 193 240 -2053zm-916 13447l0 0 0 0zm5957 930l0 0 0 0zm1230 -2l0 0 0 0zm2078 244c-41,52 -35,122 -38,185 3,251 -5,500 3,751 123,44 254,59 384,45 101,-13 197,-76 244,-166 76,-134 82,-295 77,-444 -7,-128 -39,-267 -140,-356 -94,-82 -225,-97 -345,-88 -66,5 -143,15 -185,73zm1247 -242l0 0 0 0zm2993 178l0 0 0 0zm1657 -180l0 0 0 0zm-11889 167l0 0 0 0zm-2282 2627l0 0 0 0zm12033 52c112,-8 221,-32 331,-60 25,0 17,26 14,41 -36,131 -57,264 -83,397 -53,293 -107,586 -160,879 -5,42 -17,89 3,131 28,44 86,33 130,41 -2,24 -5,47 -11,71 -151,0 -302,-6 -452,0 -16,-2 -40,6 -54,-6 0,-21 0,-50 18,-65 48,-8 109,-1 144,-44 32,-42 39,-96 51,-146 57,-316 115,-631 174,-948 7,-61 28,-124 15,-186 -20,-45 -80,-32 -120,-37 -3,-24 -3,-46 0,-68zm4127 599l0 0 0 0zm-8741 -543l0 0 0 0zm-5149 72c0,-26 5,-52 14,-75 279,8 560,5 841,5 42,0 85,-3 127,-9 -1,111 -5,222 -12,331 -21,3 -45,6 -70,10 -12,-69 -15,-152 -69,-205 -54,-45 -131,-37 -198,-37 -66,2 -133,-5 -196,2 -37,3 -62,35 -67,70 -30,158 -58,315 -87,471 90,0 181,1 269,-2 44,-3 95,-6 126,-42 23,-32 31,-74 41,-110 23,-6 47,-6 71,-5 -24,132 -54,264 -69,399 -24,6 -50,7 -74,1 4,-45 18,-108 -32,-134 -67,-30 -143,-18 -213,-21 -45,3 -92,-8 -134,4 -31,150 -56,302 -85,453 -6,53 -24,114 9,160 41,35 103,27 154,34 -1,25 -7,49 -14,73 -196,-5 -389,-5 -585,0 1,-25 6,-49 13,-73 64,-7 144,1 186,-56 38,-55 44,-121 58,-184 52,-296 108,-592 161,-888 6,-46 19,-104 -17,-142 -40,-32 -98,-26 -148,-30zm14926 -65l0 0 0 0zm-13621 458l0 0 0 0zm4444 7c27,-7 54,-20 81,-11 -19,67 -39,133 -48,199 94,-81 195,-167 322,-190 80,-14 176,-15 240,46 48,58 45,138 37,208 -22,170 -61,338 -89,509 -1,37 -12,80 17,110 30,26 74,22 110,29 -2,25 -7,49 -14,73 -156,-5 -313,-5 -469,0 1,-24 6,-49 13,-73 43,-5 91,-5 124,-40 29,-36 38,-84 47,-130 24,-125 47,-249 71,-373 8,-52 18,-108 6,-163 -12,-48 -56,-90 -107,-87 -95,1 -180,54 -254,110 -39,27 -71,67 -80,113 -24,133 -47,266 -72,399 -6,42 -15,86 -3,128 18,41 71,33 107,44 6,24 -6,48 -11,72 -158,-5 -315,-5 -474,0 -1,-25 5,-51 17,-75 47,-5 107,-1 142,-42 31,-44 39,-100 51,-153 27,-155 58,-311 85,-466 2,-35 14,-80 -20,-105 -30,-16 -68,-16 -102,-24 1,-18 4,-39 5,-59 90,-15 180,-24 267,-49l1 0zm6045 104l0 0 0 0zm3135 -115l0 0 0 0zm-16090 107c-93,50 -151,147 -185,245 136,-5 274,-3 410,-9 29,0 32,-36 36,-58 7,-63 3,-140 -54,-181 -62,-39 -143,-27 -207,3zm3322 -3c-98,46 -157,147 -193,248 125,-3 252,-6 376,-6 24,-2 60,1 65,-29 13,-66 17,-149 -36,-202 -58,-50 -147,-41 -212,-11zm994 3c-96,48 -153,145 -188,245 133,-5 268,-5 402,-9 21,1 38,-15 39,-36 8,-65 14,-147 -41,-194 -60,-48 -146,-38 -212,-6zm3586 106l0 0 0 0zm1946 247l0 0 0 0zm1922 -378l0 0 0 0zm2188 33c-89,51 -142,145 -174,237 135,-3 269,-5 403,-8 40,3 43,-42 44,-69 8,-64 -1,-139 -59,-174 -66,-38 -152,-22 -214,14zm2624 436c-81,49 -140,139 -142,234 -1,55 35,109 89,121 75,18 147,-22 207,-59 37,-24 86,-47 92,-94 20,-97 37,-196 53,-293 -100,29 -207,41 -299,91zm-7780 -531c146,4 294,3 441,0 -2,23 0,48 -14,69 -36,12 -83,5 -110,38 -17,27 -4,60 1,92 41,161 79,325 119,488 0,13 20,39 32,18 41,-50 70,-110 106,-165 74,-119 148,-240 222,-361 12,-21 30,-49 15,-74 -26,-30 -68,-27 -103,-34 -1,-24 4,-48 11,-71 124,3 246,4 371,0 -6,25 2,71 -34,74 -80,18 -147,75 -191,142 -194,296 -374,602 -558,907 -56,89 -109,181 -184,258 -51,53 -120,99 -197,95 -39,0 -84,-28 -80,-71 6,-49 47,-90 94,-102 47,-8 98,13 143,-8 62,-28 86,-95 124,-145 30,-62 80,-116 83,-187 5,-55 -3,-112 -17,-163 -45,-181 -89,-364 -133,-545 -13,-48 -22,-101 -49,-144 -24,-31 -68,-33 -104,-40 0,-24 4,-48 12,-71zm-9333 -19724l-874 -315 471 -1046 1150 -19 -747 1380z"/>
  </g>
  <g>
   <path class="fil1" d="M9706 19514c-97,-3 -169,-12 -165,-21 6,-6 -72,-13 -171,-15 -497,-6 -1488,-207 -2243,-453 -625,-204 -1336,-518 -1886,-832 -1179,-675 -2254,-1620 -3065,-2701 -1281,-1704 -1984,-3710 -2045,-5836l-10 -373 38 71c19,41 54,98 76,128 75,111 82,165 90,705 9,500 12,541 62,727 80,297 178,415 273,326 63,-59 83,-53 121,41 86,214 142,774 78,795 -12,3 -48,-45 -86,-105 -86,-145 -136,-203 -182,-203 -55,0 -65,49 -29,142 15,47 36,124 42,173 14,97 36,208 89,442 20,86 42,187 50,225 8,39 74,187 148,330 72,144 144,293 156,332 13,40 63,156 113,260 47,104 122,278 166,385 81,204 119,266 167,266 41,0 23,-47 -173,-450 -96,-197 -176,-368 -176,-382 0,-12 59,37 133,107 224,218 386,299 524,265 109,-27 80,-132 -134,-464 -71,-113 -130,-213 -130,-227 0,-12 -17,-39 -39,-58 -23,-20 -39,-49 -39,-64 0,-39 175,-21 315,34 109,40 458,233 530,292l45 36 -72 152c-39,83 -71,175 -71,204 0,97 66,208 150,250 40,21 102,58 136,82 173,129 798,373 1101,430 162,31 402,36 531,11 77,-16 84,-12 137,54 69,87 270,400 367,575 92,168 124,305 92,405 -47,145 -77,143 -405,-21 -99,-50 -234,-108 -298,-130 -120,-39 -308,-53 -349,-26 -43,27 -71,109 -59,166 16,85 -17,65 -88,-46 -88,-145 -273,-331 -442,-448 -131,-90 -659,-380 -740,-405 -68,-20 -58,46 33,228 50,99 86,185 79,193 -6,6 -55,-11 -103,-38 -76,-43 -110,-82 -184,-211 -50,-87 -111,-185 -135,-213 -68,-88 -197,-183 -250,-183 -41,0 -46,8 -41,63 5,52 18,71 78,98 118,56 194,148 407,494 111,180 211,331 222,338 39,24 33,-4 -16,-96 -27,-53 -45,-100 -39,-106 5,-6 53,15 103,47 69,41 125,103 199,213 156,229 200,284 233,284 47,0 32,-49 -79,-238 -152,-262 -297,-563 -281,-579 35,-35 547,290 668,424 47,51 115,150 151,219 57,106 68,145 68,252 0,72 -12,159 -29,195 -27,59 -26,66 9,93 56,40 81,34 153,-30 57,-51 66,-70 75,-190l9 -133 62 97c198,305 439,545 572,571 39,7 156,-2 269,-20 109,-17 221,-33 250,-33 72,3 180,75 301,207 496,532 560,617 560,736 0,46 -12,67 -49,84 -67,30 -369,-20 -620,-103 -250,-83 -715,-281 -845,-358 -106,-65 -106,-65 -101,-156 10,-172 -65,-226 -1007,-726 -207,-109 -287,-122 -287,-45 0,56 98,157 217,228 39,23 109,86 157,140 73,82 80,97 45,87 -25,-5 -45,-4 -45,5 0,22 117,118 144,120 36,3 78,13 117,28 85,34 17,-54 -216,-281 -172,-167 -235,-238 -202,-229 85,21 314,139 575,294 247,144 251,150 221,192 -15,23 -29,70 -29,106 0,51 15,77 83,130 177,140 511,312 929,476 255,100 468,156 696,185 89,11 166,23 168,26 1,1 36,71 77,154 39,83 102,184 137,228 116,134 329,294 483,359l147 65 326 -6c617,-12 539,-26 705,113 154,130 232,234 202,265 -11,10 -86,-2 -193,-32 -562,-160 -832,-168 -754,-20 75,139 405,343 556,343 26,0 80,13 118,29 39,16 95,28 127,28 30,0 63,9 74,20 10,9 41,20 68,23 39,5 51,-2 54,-37 6,-33 -3,-45 -30,-45 -20,0 -116,-25 -211,-59 -97,-33 -186,-62 -196,-63 -10,-3 -36,-29 -54,-58 -19,-31 -42,-54 -51,-54 -21,0 -67,-101 -51,-116 4,-5 88,9 182,32 345,89 458,107 547,93 166,-24 244,-176 136,-261 -77,-60 -343,-193 -474,-237 -180,-61 -422,-85 -635,-65 -226,22 -306,6 -480,-97 -243,-145 -418,-359 -430,-528l-6 -88 79 3c42,3 267,14 501,26 736,34 1297,104 1297,160 0,26 -69,124 -153,218 -117,132 -80,179 188,238 80,19 181,30 226,29 44,-2 208,7 361,21 361,30 635,10 1155,-89 213,-41 263,-62 278,-121 21,-78 -14,-107 -215,-183 -205,-77 -297,-128 -280,-155 34,-55 1990,-393 2274,-393l73 0 -48 71c-65,95 -107,242 -121,415 -12,130 -8,148 40,219 110,168 345,234 597,168 73,-20 150,-47 171,-60 23,-11 76,-34 118,-48 45,-13 163,-63 266,-108 291,-132 481,-136 560,-18 27,43 27,54 -2,126 -51,130 -119,173 -296,186 -528,44 -753,91 -928,191 -95,54 -110,75 -180,223 -83,177 -92,231 -51,331 50,116 109,138 346,125 280,-15 493,-51 549,-95 26,-21 71,-36 101,-36 30,0 91,-14 138,-29 44,-17 90,-26 98,-21 9,6 22,0 29,-11 7,-11 25,-16 41,-11 16,7 27,4 27,-5 0,-11 37,-24 84,-31 359,-52 873,-262 1031,-418 94,-92 102,-122 44,-158 -74,-47 -32,-115 100,-160 379,-135 619,-215 622,-210 3,3 9,29 10,57 8,109 99,92 467,-83 81,-39 157,-71 168,-71 78,-2 161,-122 109,-155 -23,-15 -141,27 -189,66 -94,82 -168,68 -107,-18 49,-70 49,-92 -4,-119 -84,-46 -481,57 -832,217 -226,104 -446,215 -469,237 -11,11 -33,18 -48,18 -16,0 -67,20 -114,44 -70,35 -89,56 -107,122 -19,71 -18,82 21,114 24,19 65,34 91,34 25,0 48,6 48,15 0,26 -130,104 -172,104 -23,0 -103,28 -175,61 -74,33 -174,72 -224,87 -49,14 -163,53 -255,87 -92,34 -234,80 -314,102 -81,20 -161,46 -180,56 -64,36 -501,119 -558,107 -68,-13 -131,-60 -165,-125 -22,-39 -15,-62 41,-175 42,-86 86,-144 124,-165 130,-74 483,-137 797,-142 150,-1 202,-10 266,-45 80,-44 273,-233 326,-320 82,-134 121,-361 71,-408 -33,-36 -181,-29 -391,14 -255,54 -322,77 -636,219 -285,128 -344,142 -604,140 -172,-1 -210,-15 -243,-92 -42,-102 -3,-298 109,-546l43 -94 103 0c249,0 1181,-184 1534,-305 340,-115 819,-376 846,-462 18,-55 -39,-103 -177,-148 -146,-48 -205,-89 -205,-137 0,-156 777,-535 1465,-715 83,-22 169,-41 188,-41 44,0 47,46 8,79 -17,14 -53,62 -80,110 -28,48 -58,88 -67,88 -9,0 -57,60 -109,134 -149,218 -124,313 76,302 36,-1 468,-124 530,-149 35,-14 115,-44 178,-67 346,-119 527,-201 994,-448 21,-12 62,-44 87,-69 76,-70 101,-23 40,69 -111,163 -136,296 -76,401 20,34 56,70 80,82 56,23 142,27 142,3 0,-9 55,-60 123,-113 66,-52 167,-141 224,-194 58,-52 106,-88 106,-80 0,58 -338,446 -403,461 -11,3 -24,11 -29,20 -6,7 -59,40 -118,69 -131,67 -463,376 -597,559 -132,180 -221,368 -197,412 29,42 82,50 120,18 17,-14 58,-78 92,-145 107,-211 182,-309 359,-471 186,-172 319,-264 375,-264 52,0 372,-335 525,-550 143,-199 195,-332 183,-478 -5,-71 -12,-83 -56,-88 -41,-6 -77,21 -196,154 -176,193 -292,305 -416,400l-92 70 -12 -59c-9,-43 3,-89 41,-171 31,-62 62,-133 69,-154 6,-23 62,-109 124,-190 59,-83 110,-157 110,-166 0,-9 55,-65 120,-124 66,-60 217,-204 338,-322 201,-194 447,-388 447,-353 0,9 -24,84 -53,166 -64,181 -56,214 51,214 91,0 107,-21 127,-176 7,-61 56,-207 110,-331 53,-122 98,-249 98,-281 0,-51 -7,-56 -65,-56 -73,0 -181,67 -344,212 -60,56 -143,127 -180,161 -39,34 -137,112 -217,174 -81,59 -214,175 -294,252 -82,79 -153,144 -160,144 -6,0 10,-56 38,-123 61,-151 68,-391 15,-575 -19,-65 -43,-157 -53,-204 -10,-48 -29,-99 -41,-114 -32,-40 -127,-19 -192,40 -27,24 -80,67 -119,92 -151,103 -414,341 -482,441 -42,64 -95,115 -129,127 -49,17 -61,11 -112,-47 -32,-39 -70,-117 -91,-193 -33,-119 -33,-137 -3,-273 58,-257 186,-473 318,-536 41,-20 189,-55 331,-79 141,-23 292,-62 337,-84 225,-115 401,-477 401,-819 0,-146 -111,-540 -175,-618 -22,-29 -53,-73 -65,-99 -22,-42 -19,-53 53,-107 41,-34 215,-175 381,-314 543,-450 764,-598 863,-573 46,11 48,17 35,104 -6,49 -30,129 -54,177 -61,127 -68,237 -20,332 36,67 56,84 147,112 148,47 202,29 371,-122 125,-115 366,-366 406,-426 77,-117 87,-154 77,-297 -10,-120 -22,-162 -74,-239 -105,-158 -101,-189 44,-534 122,-286 178,-346 270,-283 41,29 41,29 31,-184 -5,-115 -14,-349 -19,-518 -7,-166 -21,-401 -31,-518 -26,-266 -126,-875 -175,-1063 -20,-74 -46,-185 -58,-244 -93,-455 -424,-1397 -670,-1917 -64,-129 -164,-345 -227,-480 -114,-249 -232,-434 -305,-487 -60,-42 -157,-23 -202,39 -51,68 -66,255 -35,403 33,142 8,172 -80,92 -202,-192 -527,-717 -527,-856 0,-84 51,-93 119,-20 63,72 60,70 126,40 35,-16 50,-38 50,-74 0,-73 -138,-316 -284,-502 -132,-169 -560,-631 -628,-677 -23,-16 -82,-67 -133,-112 -104,-96 -127,-103 -144,-48 -6,20 -49,60 -96,87 -89,53 -293,287 -328,377 -48,132 71,305 325,469 219,143 225,151 160,246 -30,41 -86,99 -127,126 -165,114 -514,121 -572,12 -10,-19 -26,-87 -32,-150 -21,-179 -75,-299 -178,-402 -53,-50 -125,-100 -163,-113 -118,-40 -355,-28 -536,28 -207,67 -556,232 -726,348l-133 89 -91 -68c-190,-145 -377,-428 -578,-869 -46,-102 -83,-211 -82,-244 2,-112 80,-144 175,-72 55,39 308,98 426,98 92,0 130,-50 130,-170 0,-81 -14,-119 -75,-217 -121,-183 -230,-291 -413,-412 -95,-62 -195,-133 -226,-157 -30,-26 -89,-55 -134,-67 -128,-34 -198,2 -336,171 -66,80 -134,144 -152,144 -64,0 -269,-117 -404,-231 -75,-61 -217,-215 -317,-339 -134,-166 -196,-226 -231,-232 -116,-15 -40,142 203,423 168,196 325,321 522,420 138,70 171,78 274,73 96,-4 122,-13 140,-45 9,-23 69,-98 130,-166l111 -124 60 38c34,20 120,71 194,115 239,141 509,466 471,566 -22,57 -108,62 -238,15 -231,-88 -394,-72 -465,44 -56,92 -47,146 53,380 214,505 368,738 601,921 63,50 114,103 114,118 0,33 -128,109 -291,175 -157,65 -589,136 -1069,177 -378,35 -388,35 -451,-3 -82,-47 -90,-102 -37,-254 21,-62 41,-151 41,-195 0,-68 -14,-93 -86,-169 -97,-102 -145,-116 -406,-113 -320,0 -603,45 -831,134 -356,139 -563,304 -563,447 0,58 15,88 83,152 46,44 133,105 192,138 145,79 275,186 275,230 0,110 -420,323 -766,388 -282,54 -1068,128 -1306,125 -104,-1 -121,-8 -178,-68 -35,-36 -88,-127 -118,-202 -45,-118 -54,-172 -59,-364 -6,-242 37,-666 74,-746 29,-59 143,-139 191,-131 20,1 48,13 61,25 15,11 111,37 213,56 302,57 551,40 551,-39 0,-17 8,-30 19,-30 25,0 25,-29 0,-123 -20,-72 -20,-72 -126,-72 -57,0 -148,8 -201,18 -53,12 -184,35 -291,51 -199,31 -492,115 -512,148 -7,11 -24,17 -41,17 -18,0 -107,38 -201,82 -93,45 -259,102 -366,128 -207,48 -470,62 -491,25 -9,-12 1,-57 20,-97 40,-88 28,-185 -32,-262 -35,-46 -55,-51 -154,-51 -62,0 -180,13 -258,30 -150,35 -416,144 -440,183 -13,24 32,136 91,220 72,106 37,154 -162,215 -75,25 -142,53 -148,62 -6,8 -24,16 -43,16 -17,0 -67,15 -111,36 -268,123 -371,144 -699,136 -146,-1 -302,4 -346,12 -75,14 -84,23 -116,108 -16,49 -40,107 -50,125 -10,19 -19,45 -19,59 0,32 -132,175 -199,217 -61,39 -233,47 -266,12 -14,-13 -100,-24 -210,-25 -222,-2 -193,-24 -382,293 -145,241 -278,597 -293,784 -8,96 -5,131 10,123 12,-9 59,-23 106,-33 47,-9 170,-37 272,-59 102,-23 234,-47 290,-51 57,-5 169,-20 246,-34 110,-19 187,-19 347,-2 115,13 222,29 240,37 74,32 50,199 -40,284 -140,131 -307,336 -348,421 -77,163 -6,266 193,281 579,47 844,38 928,-36 10,-8 42,-15 72,-15 30,0 59,-9 65,-19 6,-8 39,-22 75,-27 82,-13 268,-80 420,-152 139,-65 283,-190 281,-246 0,-62 -66,-154 -168,-236 -140,-108 -223,-217 -223,-288 0,-71 130,-212 195,-212 23,0 83,-20 134,-46 50,-23 213,-83 358,-129 145,-48 284,-92 305,-101 21,-8 79,-25 128,-36 47,-15 114,-32 147,-42 32,-10 149,-35 261,-58 180,-33 234,-36 465,-20 145,11 284,28 311,37 33,14 91,92 181,249 291,500 352,731 267,1009 -30,101 -63,160 -120,220l-77 82 -132 -14c-71,-7 -207,-30 -299,-54 -114,-28 -235,-41 -365,-43 -171,0 -212,7 -305,49 -145,66 -223,137 -291,259 -79,136 -109,283 -111,496 0,154 8,196 67,339 86,222 205,392 324,465 80,50 120,60 248,67 195,9 285,-31 465,-208 152,-147 368,-287 494,-320 51,-14 126,-17 186,-8 87,12 112,25 185,104 150,161 198,269 320,729 75,281 80,317 68,470 -15,210 -45,315 -98,337 -23,9 -213,31 -423,46 -628,50 -1259,191 -2132,476 -294,98 -433,172 -538,292 -63,72 -64,80 -52,184 8,59 24,124 36,143 12,20 109,100 215,177 107,78 202,158 213,178 60,111 -85,186 -660,332 -316,82 -897,50 -964,-51 -33,-49 -15,-121 40,-166 47,-40 135,-221 188,-390 43,-133 44,-148 17,-225 -33,-102 -112,-157 -311,-220 -412,-127 -1003,-118 -1745,30 -111,21 -209,35 -219,30 -9,-7 0,-75 22,-155 77,-291 37,-635 -148,-1256 -75,-251 -196,-340 -445,-327 -129,9 -166,19 -282,88 -73,42 -164,93 -200,115 -56,33 -71,34 -96,12 -105,-87 -136,-559 -53,-796 56,-165 117,-266 160,-266 17,0 72,27 128,61 197,126 294,160 438,152 178,-11 263,-71 404,-279 148,-219 188,-358 201,-714 10,-247 7,-295 -31,-416 -42,-139 -49,-148 -255,-317 -67,-54 -143,-59 -248,-10 -33,13 -135,40 -227,59 -223,46 -502,22 -771,-64 -135,-42 -130,-92 36,-309 129,-168 204,-304 206,-369 0,-114 -117,-198 -321,-230 -208,-34 -413,32 -572,188 -118,113 -148,202 -149,424 0,234 -26,305 -138,387 -149,107 -261,101 -400,-26 -77,-71 -77,-68 -6,-287 74,-242 429,-960 479,-977 12,-3 27,18 34,53 28,119 126,95 252,-62 145,-177 475,-832 500,-992 9,-56 6,-65 -28,-65 -23,0 -79,31 -124,70 -120,101 -157,116 -157,74 0,-61 134,-268 379,-592l234 -308 133 6c154,9 246,-24 430,-153 136,-96 230,-214 325,-412 90,-186 114,-211 259,-279 119,-58 251,-74 275,-35 9,14 -54,88 -151,181 -90,86 -184,184 -208,216 -54,73 -59,162 -9,187 103,55 448,40 622,-27 107,-41 114,-69 15,-68 -177,0 -459,-56 -471,-93 -5,-14 75,-108 178,-207 260,-249 288,-349 104,-349 -140,3 -311,63 -488,183 -132,89 -193,161 -309,385 -83,152 -100,173 -215,241 -138,82 -221,95 -293,46 -52,-38 -58,-136 -10,-206 83,-119 814,-817 1146,-1094 241,-200 350,-295 382,-331 53,-57 138,-121 526,-390 253,-175 350,-231 413,-240 100,-13 251,-89 506,-249 196,-127 460,-249 528,-249 47,0 49,0 155,235 78,174 143,384 143,472 0,19 -26,60 -54,92 -76,78 -224,243 -271,300 -54,70 -302,254 -356,268 -29,7 -66,-4 -104,-31 -56,-39 -62,-41 -119,-10 -32,15 -59,37 -59,46 0,8 -23,27 -50,43 -68,35 -61,92 27,219l77 110 -136 340c-140,345 -169,394 -390,640 -60,66 -165,216 -235,333 -68,117 -146,245 -172,284 -47,73 -54,97 -30,97 9,0 32,-27 51,-59 41,-71 201,-157 287,-157 72,0 266,166 375,323 37,55 73,103 80,109 19,15 56,142 60,207 3,32 -8,77 -20,101 -13,24 -24,47 -24,50 0,3 163,5 360,3 397,-5 434,-14 753,-145 107,-45 229,-89 272,-100 155,-39 156,-42 80,-182 -82,-150 -85,-204 -12,-262 132,-104 481,-208 709,-210 109,-1 135,5 180,49 44,40 124,217 107,237 -4,4 -12,39 -19,80l-14 74 75 0c41,-2 133,-15 203,-31 69,-16 168,-37 219,-48 51,-10 140,-42 197,-71 364,-184 740,-293 1165,-332 243,-24 246,-26 221,-80 -12,-26 -61,-75 -111,-107 -154,-103 -266,-77 -553,125 -124,89 -182,112 -302,112 -151,0 -223,-33 -336,-151 -76,-81 -109,-136 -150,-257 -90,-268 -100,-311 -89,-410 6,-53 19,-210 30,-352 11,-141 23,-278 30,-305 5,-27 14,-71 20,-100l11 -51 324 -12c284,-12 748,-71 801,-104 8,-7 10,-144 4,-311l-15 -301 50 -47c131,-121 584,-213 890,-181 203,20 227,41 227,210 1,198 15,213 229,228 108,7 228,2 321,-13 80,-14 164,-20 187,-16 56,14 415,-45 533,-90 56,-20 139,-68 187,-103 157,-121 477,-249 621,-248 146,2 421,50 490,86 35,19 87,73 117,127 126,218 249,304 448,305 246,2 400,-24 375,-65 -5,-9 19,-32 55,-51 38,-20 64,-44 58,-54 -6,-8 4,-27 22,-41 29,-23 29,-26 -6,-59 -22,-20 -134,-74 -252,-124 -118,-47 -234,-99 -257,-115 -24,-15 -65,-28 -92,-28 -108,0 -73,-86 73,-181 113,-73 315,-97 453,-55 170,51 424,195 728,408 83,56 157,103 167,103 23,0 153,69 194,102 18,15 48,14 101,-3 83,-27 134,-18 241,50 41,26 80,47 88,47 7,0 30,15 50,32 19,19 53,43 75,54 95,53 429,291 487,347 80,80 102,153 52,188 -32,25 -32,29 16,90 27,36 168,184 312,331 228,231 323,315 466,425 19,14 58,26 88,26l55 0 -81 -92c-96,-110 -104,-189 -19,-198 40,-6 74,20 176,131 237,256 840,1053 1100,1455 102,157 220,329 261,380 39,53 110,172 154,266 427,897 530,1131 700,1625 236,688 423,1497 495,2136 68,622 73,1545 11,2185 -229,2358 -1259,4543 -2926,6212 -1289,1286 -2879,2192 -4667,2657 -964,251 -1961,346 -3130,302l0 0zm9727 -6883c39,-46 131,-197 200,-339 118,-238 177,-318 177,-240 0,59 60,31 115,-56 69,-110 172,-407 154,-451 -10,-27 -20,-29 -51,-14 -56,29 -61,8 -37,-148 26,-164 -1,-250 -84,-258 -39,-4 -98,44 -304,245 -259,253 -418,453 -521,658 -138,272 -13,252 150,-21 136,-231 492,-612 568,-612 13,0 36,14 49,29 32,39 12,307 -27,382 -104,193 -250,450 -277,483 -29,38 -31,29 -20,-130 9,-166 -5,-214 -60,-214 -40,0 -209,162 -268,254 -32,51 -56,116 -56,152 0,56 8,65 47,65 24,0 62,-17 81,-39 64,-71 96,-50 82,54 -47,325 -41,334 82,200l0 0zm-192 -366c0,-36 81,-145 101,-138 39,13 38,46 -5,100 -37,48 -96,73 -96,38l0 0zm707 -482c0,-36 34,-84 49,-69 17,17 -7,93 -31,93 -9,0 -18,-10 -18,-24l0 0zm-14206 -2832c113,-17 260,-35 325,-42 187,-19 187,-17 187,-133 -3,-56 -7,-112 -16,-124 -8,-12 -63,-33 -123,-47 -137,-32 -192,-59 -268,-140 -198,-207 -188,-488 22,-697 114,-114 245,-172 468,-206 322,-50 538,33 646,247 61,114 43,304 -39,444 -74,133 -139,195 -288,278l-118 68 5 104c1,58 12,113 22,124 12,12 85,6 192,-14 95,-16 279,-44 407,-61 128,-16 240,-34 250,-41 21,-12 21,-151 0,-225 -23,-85 -90,-73 -163,30 -34,50 -82,95 -104,100 -168,36 -292,49 -310,30 -35,-35 -2,-71 131,-138 268,-136 385,-308 385,-563 0,-153 -22,-214 -114,-309 -162,-168 -395,-239 -740,-224 -392,17 -701,135 -914,349 -128,127 -175,219 -191,361 -29,287 157,515 454,555 50,7 101,23 113,40 39,47 -21,80 -172,95 -136,13 -142,12 -211,-50 -44,-39 -87,-59 -116,-56 -40,6 -44,18 -49,121 -7,127 17,175 82,162 21,-5 134,-23 247,-38l0 0zm-1739 -3088l68 -29 0 -142c0,-143 16,-198 157,-557 50,-125 97,-213 267,-483 33,-50 79,-101 104,-113 70,-32 349,-26 453,12 190,66 307,-27 432,-357 47,-119 92,-225 103,-235 54,-56 -14,-308 -100,-359 -21,-14 -41,-38 -41,-55 0,-15 -6,-28 -15,-28 -9,0 -51,-31 -95,-68l-78 -67 9 154c7,130 1,180 -37,280 -74,209 -167,380 -246,454 -66,62 -89,71 -175,71 -71,0 -133,-18 -216,-59 -183,-92 -317,-69 -444,71 -98,115 -364,717 -428,981 -22,85 -32,245 -26,385 6,127 77,204 170,185 38,-6 99,-25 138,-41l0 0zm-1595 -1521c96,-101 108,-134 70,-194 -18,-29 -9,-59 53,-172 42,-75 95,-155 119,-180 47,-45 115,-59 133,-26 7,9 -41,124 -106,255 -127,257 -140,322 -78,357 53,28 191,6 286,-47 65,-36 92,-74 179,-248 90,-181 102,-218 92,-291 -9,-80 -8,-83 27,-62 29,17 50,15 98,-10 80,-41 80,-78 6,-109 -68,-29 -143,-6 -214,62 -35,30 -40,52 -32,110 11,60 -4,107 -76,261 -90,195 -146,255 -238,255 -75,0 -65,-51 68,-317 124,-245 133,-299 56,-323 -61,-21 -204,29 -266,88 -66,69 -365,628 -352,662 21,52 88,25 175,-71l0 0zm2196 -771c94,-50 128,-78 138,-121 20,-71 223,-471 292,-574 32,-44 136,-164 231,-270l175 -193 133 -331 133 -332 -68 -97c-113,-166 -113,-193 9,-300 123,-110 186,-131 269,-88 53,27 65,27 133,0 69,-31 318,-266 494,-466 80,-96 81,-98 63,-195 -11,-53 -41,-151 -70,-218 -27,-67 -65,-164 -80,-216 -34,-108 -25,-108 -273,8 -188,89 -278,154 -244,177 30,16 216,-26 342,-79 53,-24 103,-36 112,-25 21,19 -260,332 -432,480 -157,136 -213,160 -288,122 -107,-56 -150,-36 -405,192 -174,155 -371,400 -371,463 0,80 87,47 323,-117 128,-91 211,-118 235,-77 19,29 -269,655 -354,771 -41,58 -123,157 -180,219 -215,234 -482,687 -575,976 -68,211 -72,262 -19,315 56,56 136,49 277,-24l0 0zm5704 -391c18,-95 15,-300 -10,-414 -28,-133 -164,-327 -286,-412 -174,-119 -324,-97 -537,82 -281,231 -452,267 -612,122 -92,-83 -143,-177 -164,-298 -10,-59 -18,-77 -32,-57 -59,93 34,509 153,669 93,127 164,173 288,187 119,12 172,-10 430,-175 83,-53 184,-106 224,-118 199,-54 433,124 468,355 20,139 57,164 78,59l0 0zm849 -132c269,-486 362,-917 303,-1392 -27,-217 -44,-262 -99,-262 -58,0 -786,370 -786,398 -7,292 0,572 14,586 20,20 139,-36 163,-78 9,-17 11,-117 2,-218 -9,-102 -12,-196 -9,-207 6,-10 123,-80 264,-154 187,-99 264,-130 279,-113 12,12 26,119 29,242 14,356 -70,625 -301,970 -70,105 -126,206 -126,227 0,57 99,198 136,190 17,-3 77,-89 131,-189l0 0zm4543 -617c15,-19 -6,-77 -78,-220 -162,-315 -209,-488 -148,-568 13,-20 68,-47 122,-60 118,-29 126,-67 29,-116 -49,-24 -92,-31 -150,-22 -63,9 -112,-2 -233,-50 -155,-60 -265,-127 -265,-157 0,-9 66,-33 148,-51 125,-32 158,-33 211,-11 114,44 133,47 133,17 0,-34 -287,-231 -334,-231 -18,0 -92,17 -166,39 -74,20 -241,61 -372,90 -131,29 -250,63 -264,76 -51,47 48,92 387,180 329,84 426,119 468,169 9,14 35,101 52,193 39,189 130,400 250,577 115,165 164,201 210,145l0 0zm-3208 -106c57,-37 63,-102 12,-167 -21,-26 -115,-174 -210,-328l-174 -282 36 -178c41,-194 32,-218 -66,-207 -42,4 -51,18 -71,143 -35,199 -96,343 -217,512 -58,81 -107,160 -107,174 0,13 24,45 51,71 66,63 98,42 197,-147 44,-83 91,-160 100,-172 15,-13 71,77 181,297 100,197 172,316 189,316 17,0 53,-15 79,-32l0 0zm-8089 -777c116,-123 251,-265 296,-316 87,-95 172,-157 252,-180 74,-22 53,37 -33,109 -79,62 -103,115 -53,115 25,0 308,-278 308,-304 0,-9 -41,-9 -89,-1 -50,8 -88,6 -88,-3 0,-8 37,-49 83,-89 64,-55 75,-74 46,-74 -20,0 -79,38 -129,83 -51,47 -176,152 -278,235 -233,191 -635,597 -617,624 33,54 101,9 302,-199l0 0zm4087 16586c-314,-31 -395,-47 -417,-82 -33,-52 19,-125 106,-152 97,-29 138,-119 77,-178 -130,-131 -1192,-276 -2026,-276l-172 0 -12 -73c-26,-154 -127,-300 -470,-664 -161,-172 -254,-254 -337,-298 -232,-122 -477,-163 -709,-117 -128,25 -147,25 -196,-5 -200,-123 -617,-739 -535,-788 47,-29 142,1 402,129 332,159 434,192 565,182 102,-8 260,-92 324,-171 71,-87 -6,-347 -198,-670 -82,-136 -314,-453 -353,-480 -33,-23 -11,-29 195,-44 127,-9 493,-17 812,-17 474,0 616,7 785,38 231,39 257,57 257,178 0,85 -64,206 -189,361 -115,145 -92,207 133,373 75,53 116,66 264,85 97,12 230,15 302,7 70,-9 243,-18 382,-19 283,-7 680,-67 912,-138 489,-149 592,-204 592,-305 0,-60 -30,-90 -178,-166 -347,-179 -433,-234 -461,-287 -16,-30 -28,-60 -28,-66 0,-30 167,-83 632,-195 949,-231 1574,-346 1880,-346l136 0 138 147c155,166 327,415 407,590 42,89 54,146 52,235 -2,207 -136,428 -274,455 -39,6 -238,-4 -442,-24 -455,-44 -644,-27 -864,72 -228,106 -321,261 -308,515 8,122 18,159 86,269 95,157 219,282 317,325 151,63 573,-17 869,-167 268,-134 395,-179 567,-200 192,-23 310,-11 376,39 50,36 127,275 160,483 17,112 15,124 -56,275 -41,87 -89,169 -106,183 -16,15 -140,33 -303,45 -403,31 -963,119 -1794,287 -631,127 -747,169 -747,282 0,74 53,114 238,174 176,56 213,74 213,100 0,72 -629,132 -1004,99l0 0zm-577 -1484c64,-18 160,-50 211,-72 89,-37 97,-37 217,-7 68,17 220,43 341,55 263,27 494,-3 693,-94 147,-65 199,-125 199,-225 0,-60 -13,-86 -81,-148 -98,-86 -234,-151 -415,-197 -74,-19 -133,-40 -133,-46 0,-7 44,-36 98,-65 162,-90 198,-217 83,-301 -71,-51 -338,-70 -338,-22 0,18 27,33 77,42 42,8 92,29 110,52 32,36 32,39 0,75 -18,20 -75,47 -126,57 -155,35 -1751,124 -1891,104 -49,-7 -51,-12 -42,-82 8,-70 4,-78 -56,-109 -85,-45 -396,-65 -440,-29 -89,74 36,148 219,132 142,-12 169,6 106,75 -56,59 -47,130 19,157 59,28 1193,6 1604,-28 270,-25 281,-22 494,28 350,84 540,196 506,300 -19,64 -209,145 -379,164 -169,21 -460,-2 -683,-52 -133,-30 -143,-28 -233,9 -117,52 -360,112 -505,127 -183,20 -470,-54 -470,-119 0,-36 83,-65 197,-65 119,0 196,29 209,77 14,55 79,71 135,33 60,-41 61,-72 3,-126 -98,-91 -566,-112 -677,-31 -72,55 -77,107 -15,181 148,175 602,246 963,150l0 0zm4254 481c0,-12 15,-49 32,-83 45,-89 25,-409 -41,-618 -58,-180 -171,-348 -254,-378 -32,-10 -146,-20 -255,-20 -269,0 -468,50 -787,201 -327,154 -364,156 -558,27 -218,-145 -301,-274 -302,-475 -2,-107 4,-135 45,-177 97,-106 186,-134 400,-133 109,0 293,12 409,27 119,14 283,19 378,14 281,-21 415,-104 534,-335 46,-88 53,-126 55,-269 0,-162 -2,-172 -96,-351 -54,-102 -164,-276 -248,-384l-152 -201 64 -24c33,-12 122,-23 193,-23 308,0 1080,-110 1447,-207 339,-89 614,-208 871,-378 207,-137 270,-200 270,-286 0,-59 -14,-80 -86,-135 -47,-36 -145,-95 -217,-132 -224,-112 -272,-191 -197,-308 94,-143 689,-453 1059,-553 205,-55 525,-128 646,-148 148,-24 151,172 6,405 -121,193 -151,268 -151,374 0,138 42,175 226,192 132,12 180,7 342,-33 489,-129 667,-186 886,-292 193,-93 224,-110 325,-180 32,-22 108,-65 170,-95 62,-31 194,-118 292,-193 101,-73 193,-131 208,-125 36,15 107,137 171,296 103,255 89,519 -40,777 -73,144 -78,148 -184,184 -57,19 -175,40 -258,43 -171,10 -305,56 -460,158 -139,92 -216,184 -296,351 -168,356 -155,673 36,880 65,69 74,73 190,73 210,0 264,-37 424,-298 102,-166 369,-434 422,-424 18,4 36,36 45,75 6,38 21,104 33,147 31,119 28,448 -8,584 -73,284 -132,365 -389,532 -60,40 -159,116 -219,167 -113,100 -418,260 -669,353 -330,125 -493,178 -560,188 -37,5 -85,15 -105,24 -35,13 -34,9 7,-67 25,-44 83,-125 130,-180 87,-108 127,-206 127,-321 0,-124 -26,-121 -509,18 -535,155 -671,206 -1074,402 -442,216 -675,417 -607,525 23,36 40,47 234,136 177,84 165,110 -104,246 -381,190 -723,286 -1398,388 -453,68 -453,68 -453,39l0 0zm3795 -2378l80 -40 -11 -191c-8,-104 -18,-312 -24,-460 -12,-258 -16,-274 -64,-310 -75,-59 -160,-47 -451,67 -529,210 -1152,427 -1202,421 -38,-4 -50,-16 -49,-50 4,-77 -64,-51 -188,70 -94,90 -118,125 -118,173 0,203 310,138 1412,-300 267,-108 426,-160 438,-148 12,9 24,188 27,394 6,208 14,386 21,397 17,27 41,23 129,-23l0 0zm-8716 548c-99,-10 -211,-27 -250,-37 -84,-23 -84,-29 10,-182 50,-80 59,-120 68,-264 9,-169 9,-172 -54,-250 -74,-91 -153,-147 -207,-147 -21,0 -127,-21 -236,-47 -339,-84 -526,-98 -1183,-84 -334,7 -689,18 -792,24l-187 12 -73 -80c-194,-213 -277,-604 -241,-1126l15 -209 59 -25c79,-32 220,-3 435,92 228,101 353,131 501,122 116,-8 131,-13 189,-80 131,-152 169,-249 187,-500l18 -231 -92 -194c-74,-153 -116,-215 -205,-296 -150,-138 -257,-176 -485,-164 -160,7 -184,16 -401,121 -128,63 -262,118 -300,124 -61,11 -77,2 -146,-71 -89,-92 -145,-190 -202,-364 -33,-94 -40,-166 -38,-349 0,-126 10,-278 20,-334 12,-58 31,-182 45,-277 13,-97 39,-193 56,-213 24,-29 96,-50 306,-87 246,-46 322,-49 755,-47 412,1 508,7 657,42 178,41 267,97 267,163 0,48 -74,184 -176,326 -136,183 -164,248 -151,338 18,136 127,213 406,281 182,46 623,44 788,-1 59,-17 199,-52 311,-79 210,-50 707,-205 818,-258 32,-16 103,-62 156,-101 102,-77 127,-141 99,-252 -16,-59 -209,-204 -398,-299 -145,-73 -215,-154 -199,-236 12,-56 148,-113 592,-248 742,-223 1212,-329 1754,-392 312,-35 335,-30 346,72 4,44 -3,135 -17,201 -59,283 -68,827 -15,1042 20,85 139,304 201,373 149,165 313,246 492,246 139,0 316,-50 358,-98 18,-20 98,-68 178,-110 80,-38 226,-127 325,-195 258,-178 281,-189 391,-169 127,24 299,193 395,390 70,140 71,144 58,308 -18,228 -61,359 -139,437 -76,76 -92,77 -373,36 -380,-54 -684,-28 -894,79 -130,64 -267,192 -317,287 -50,98 -113,479 -128,773 -11,204 -8,257 28,386 23,84 59,182 83,221 23,38 37,79 29,89 -4,11 -80,24 -163,30 -420,36 -1206,193 -1990,396 -349,92 -476,145 -587,245 -67,61 -80,149 -37,244 23,52 178,159 363,252 95,48 125,82 125,142 0,50 -296,135 -687,195 -207,33 -259,35 -521,7l0 0zm-743 -2109c36,-12 32,-56 -44,-344 -37,-145 -68,-275 -68,-289 -1,-37 28,-30 135,37 89,56 102,59 151,33 62,-29 107,-95 77,-107 -11,-5 -32,-17 -50,-27 -25,-19 -23,-24 8,-44 19,-14 56,-40 80,-56 40,-33 40,-35 3,-74 -55,-61 -94,-51 -184,48 -67,74 -88,88 -126,76 -26,-6 -50,-17 -54,-21 -11,-9 -9,-11 113,-173 47,-61 80,-124 76,-140 -8,-15 -35,-42 -62,-59 -44,-30 -61,-30 -127,-9 -43,14 -91,20 -108,14 -42,-17 -39,-68 8,-97 94,-59 23,-100 -157,-90l-107 7 4 94 8 92 -83 0c-98,0 -156,28 -156,80 0,57 64,81 162,59 45,-12 139,-20 207,-20 143,0 150,13 66,129 -66,90 -152,160 -288,230 -110,55 -157,99 -137,130 22,37 90,23 203,-42 97,-56 110,-57 130,-29 14,17 45,153 68,304 24,148 56,280 65,294 20,22 104,20 187,-6l0 0zm1017 -68c129,-12 339,-33 463,-51 124,-17 341,-42 486,-57 144,-16 269,-34 280,-40 32,-20 20,-59 -31,-108 -44,-41 -56,-43 -113,-25 -35,14 -100,29 -145,37l-83 13 -20 -77c-44,-168 -199,-990 -199,-1055 0,-97 -65,-141 -182,-122 -340,54 -807,104 -888,95 -135,-12 -160,16 -129,148 41,164 217,1052 217,1097 0,40 -10,45 -100,50 -118,7 -162,50 -114,106 29,36 6,37 558,-11l0 0zm-109 -163c-29,-66 -76,-308 -59,-317 6,-4 145,-23 304,-41 160,-16 316,-37 345,-42 68,-14 83,12 118,198 24,125 24,137 -11,161 -19,16 -84,28 -143,28 -62,0 -198,13 -305,28 -242,38 -225,38 -249,-15l0 0zm-109 -477c-7,-15 -14,-74 -15,-130l-2 -103 295 -34c415,-47 418,-47 435,18 7,30 13,89 15,133l0 77 -274 34c-360,43 -440,44 -454,5l0 0zm-63 -367c-12,-15 -23,-75 -27,-133l-5 -107 88 -15c48,-7 203,-27 342,-44 233,-30 257,-30 280,0 28,41 52,205 31,228 -12,11 -607,97 -680,97 -4,0 -17,-12 -29,-26l0 0zm-3766 2256c-240,-64 -432,-133 -689,-257 -303,-142 -364,-234 -255,-394 94,-140 51,-279 -133,-424 -54,-42 -222,-139 -376,-214 -388,-192 -597,-239 -681,-155 -54,55 -39,141 40,224 81,87 284,407 284,451 1,47 -78,80 -148,64 -126,-31 -434,-358 -529,-562 -70,-146 -172,-430 -225,-623 -82,-301 -127,-574 -82,-516 4,4 56,85 120,179 98,151 119,172 169,172 71,0 86,-44 71,-198 -53,-536 -71,-633 -145,-829 -68,-178 -154,-275 -239,-273 -36,1 -76,12 -93,25 -17,15 -36,17 -44,7 -24,-26 -74,-262 -101,-482 -22,-184 -20,-671 2,-695 7,-6 81,59 167,144 86,84 175,163 199,176 103,55 286,14 388,-90 76,-76 71,-258 -19,-521 -37,-110 -68,-225 -68,-255 0,-85 77,-122 255,-122 134,0 166,7 287,69 74,39 148,92 163,118 30,54 17,93 -106,303 -107,184 -95,379 32,495 111,100 451,230 794,304 109,21 358,21 373,-3 6,-9 49,-20 93,-20 80,-1 180,-17 298,-49l56 -16 -17 274c-37,575 -21,758 92,999 115,248 248,355 485,388 143,21 157,20 243,-25 530,-272 496,-259 583,-235 103,28 174,112 294,354 88,177 92,194 92,344 -2,177 -39,355 -84,408 -44,50 -119,41 -282,-32 -260,-118 -383,-151 -551,-151 -176,-2 -308,49 -373,139 -50,66 -71,279 -67,599 9,412 89,630 322,873 89,91 -293,111 -595,32l0 0zm-1228 -1490c0,-24 -30,-186 -68,-358 -37,-174 -73,-361 -81,-418l-14 -103 62 0c40,0 62,-9 62,-29 0,-42 -58,-89 -109,-89 -29,0 -77,-27 -117,-71 -60,-59 -70,-81 -65,-142 5,-71 7,-72 101,-77 108,-9 285,65 445,183 111,81 177,89 177,21 0,-57 -115,-141 -342,-249 -330,-159 -579,-112 -532,100 6,30 30,80 52,107 23,29 34,57 28,65 -23,22 -259,-50 -520,-154 -134,-53 -252,-97 -260,-97 -10,0 -17,23 -17,48 0,61 72,100 347,187 182,58 202,70 222,124 21,64 27,191 7,191 -6,0 -50,-35 -99,-79 -147,-128 -284,-152 -339,-56 -38,68 -7,177 83,296 96,124 195,177 327,169l108 -7 17 98c18,110 103,267 143,267 38,0 37,-19 -40,-338 -88,-369 -115,-529 -95,-549 32,-31 190,29 216,81 12,28 46,199 75,383 54,348 63,372 142,477 55,75 84,82 84,19l0 0zm-822 -559c-67,-32 -141,-149 -141,-221 0,-95 214,-15 311,117 53,71 53,91 6,118 -53,27 -100,24 -176,-14l0 0zm9693 1483c-77,-27 -95,-53 -184,-231 -71,-147 -71,-148 -70,-393 2,-136 17,-334 37,-441 66,-404 117,-495 330,-591 118,-55 132,-56 408,-51 812,15 750,19 841,-43 106,-70 192,-221 219,-388 12,-71 24,-258 26,-414 4,-281 4,-284 -59,-409 -74,-154 -109,-195 -216,-264 -92,-56 -172,-64 -375,-31 -193,31 -326,91 -572,254 -245,165 -374,236 -424,236 -18,0 -58,13 -91,31 -57,29 -63,27 -260,-65 -228,-109 -321,-184 -400,-315 -54,-91 -56,-95 -52,-417 1,-316 60,-827 99,-866 8,-8 109,-4 221,13 114,16 217,24 232,18 17,-6 151,-19 301,-29 726,-53 1260,-179 1620,-386 329,-192 466,-334 424,-444 -26,-69 -178,-195 -358,-301 -282,-166 -315,-252 -149,-412 152,-148 382,-258 648,-314 120,-26 261,-54 309,-66 48,-12 227,-21 396,-23 350,0 364,6 344,138 -8,45 -45,141 -84,218 -132,259 -108,455 70,543 71,36 121,45 255,45 189,-3 491,-41 640,-86 55,-15 138,-35 188,-43 72,-10 316,-80 598,-167 118,-38 424,-224 525,-317 58,-55 121,-108 139,-118 35,-18 36,-12 24,124 -25,267 70,809 180,1027 104,208 257,352 399,376 61,10 93,3 164,-40 108,-62 352,-314 461,-476 108,-158 161,-170 263,-58 173,191 247,439 221,746 -18,226 -36,240 -288,243 -229,1 -329,36 -457,146 -97,86 -194,239 -221,352 -48,187 -74,879 -42,1093 21,148 69,295 108,343 16,17 28,39 28,47 0,9 15,34 33,54 33,38 33,41 -33,98 -319,269 -778,478 -1347,616 -354,85 -523,103 -584,62 -68,-44 -64,-120 12,-248 37,-61 93,-164 128,-231 192,-385 73,-418 -814,-221 -353,78 -504,129 -865,303 -290,141 -536,308 -634,432 -62,77 -74,172 -32,242 30,52 217,175 314,208 21,8 77,47 124,88 65,58 82,85 74,116 -29,92 -436,314 -768,424 -328,104 -802,184 -1435,237 -194,18 -393,35 -442,39 -49,6 -114,-1 -147,-13l0 0zm2384 -2422c137,-47 326,-110 421,-138 112,-34 172,-61 172,-80 0,-30 -32,-34 -158,-9 -48,11 -94,11 -102,5 -8,-9 76,-117 187,-243 201,-228 434,-521 650,-819 64,-87 123,-160 132,-160 19,0 175,705 175,799 0,15 -51,53 -116,83 -120,62 -162,113 -109,133 15,7 119,-26 228,-71 110,-47 284,-113 386,-148 206,-74 240,-95 204,-131 -18,-20 -44,-20 -112,0 -153,40 -161,37 -187,-91 -13,-61 -61,-284 -109,-495 -97,-431 -101,-400 63,-491 51,-27 97,-60 101,-74 18,-57 -70,-41 -324,61 -150,60 -321,123 -383,140 -193,54 -199,133 -6,89 180,-39 184,-51 -334,593 -152,188 -324,405 -383,482 -59,78 -121,139 -136,138 -20,-4 -51,-121 -112,-407 -45,-221 -80,-410 -72,-418 4,-9 66,-42 134,-74 97,-42 128,-66 128,-97 0,-56 -36,-52 -235,22 -94,34 -287,93 -434,133 -228,60 -265,75 -265,108 0,37 10,40 108,32 60,-6 135,-9 167,-11l58 0 102 452c57,248 104,480 104,513 1,72 -12,86 -162,144 -81,31 -112,55 -112,81 0,56 53,48 331,-51l0 0zm4213 83c-27,-35 -77,-169 -106,-275 -27,-107 -11,-865 21,-1055 21,-117 94,-236 184,-304 46,-33 94,-42 276,-51 267,-11 351,-47 425,-178 48,-82 50,-100 50,-411 0,-296 -6,-331 -44,-411 -26,-48 -45,-98 -45,-111 0,-31 -71,-254 -98,-301 -11,-23 -48,-54 -80,-72 -124,-64 -319,51 -517,306 -176,231 -311,382 -360,409 -41,23 -55,23 -90,-1 -118,-79 -222,-224 -291,-409 -74,-191 -157,-852 -128,-1006 39,-206 887,-814 1194,-855 57,-7 86,2 140,43 103,78 121,140 101,342 -36,379 -10,521 109,582 46,24 76,26 168,9 62,-12 133,-29 158,-38 53,-20 283,-195 283,-217 0,-8 41,-67 89,-132 158,-211 202,-371 139,-492 -15,-29 -70,-93 -119,-141 -211,-204 -223,-306 -68,-575 169,-293 245,-398 315,-427 59,-26 65,-24 118,41 30,37 62,98 69,136 7,37 24,92 39,120 32,64 295,853 378,1137 32,115 70,265 82,334 13,70 33,163 44,207 10,44 28,131 36,196 10,65 30,207 46,314 20,129 31,343 31,621 0,414 0,426 -44,477 -41,47 -266,477 -301,574 -6,19 -28,113 -49,205 -34,163 -34,166 5,275 23,59 55,128 70,152 68,106 -42,385 -219,555 -63,60 -133,119 -155,133 -60,33 -215,31 -260,-4 -35,-25 -36,-33 -14,-93 37,-95 83,-346 83,-447 -1,-198 -73,-228 -284,-116 -193,102 -638,418 -694,493 -14,17 -80,76 -147,124 -68,51 -131,103 -143,115 -54,60 -332,248 -367,248 -6,0 -19,-12 -30,-26l0 0zm1765 -2399c19,-40 14,-84 -18,-216 -24,-92 -43,-183 -43,-201 0,-20 52,-88 114,-154 63,-64 130,-141 146,-166 20,-28 38,-44 44,-38 6,5 29,101 48,211 43,219 50,237 91,237 74,0 57,-114 -135,-904 -80,-329 -87,-344 -132,-344 -41,0 -48,9 -47,69 0,38 33,171 72,296 85,278 103,372 71,372 -12,0 -89,72 -169,157 -136,146 -368,342 -554,465 -80,52 -98,98 -56,140 44,45 82,26 225,-115 80,-77 151,-133 162,-128 9,7 28,77 42,155 12,79 27,156 32,177 13,50 84,41 107,-13l0 0zm-260 -541c73,-38 195,-159 237,-234 44,-83 64,-233 41,-314 -33,-125 -118,-152 -252,-84 -169,85 -332,347 -312,496 21,159 137,212 286,136l0 0zm-131 -124c-32,-32 -29,-142 5,-208 16,-32 63,-88 107,-128 125,-112 222,-88 222,52 0,180 -237,382 -334,284l0 0zm-16282 1936c-250,-29 -670,-148 -856,-243 -129,-65 -129,-132 2,-352 117,-204 133,-267 89,-385 -36,-94 -101,-152 -258,-230 -339,-167 -630,-185 -784,-51 -130,112 -130,194 -9,550 73,216 73,256 -3,320 -125,105 -284,54 -459,-148 -72,-83 -74,-88 -60,-203 31,-312 48,-628 49,-1034 0,-495 -9,-528 -121,-528l-61 0 13 -113c9,-63 28,-189 43,-281 58,-334 90,-393 119,-210 18,115 62,142 119,74 82,-97 233,-563 320,-983 23,-115 50,-227 59,-251l20 -45 81 54c71,47 103,54 221,54 128,0 149,-7 252,-76 89,-58 130,-103 187,-204 72,-129 74,-137 83,-387 6,-142 18,-267 29,-282 24,-41 249,-140 317,-140 91,0 258,54 272,90 15,38 -11,85 -127,233 -133,170 -175,265 -175,389 0,86 9,113 45,149 160,150 867,212 1163,102 182,-68 210,-70 259,-17 58,62 75,177 71,507 -1,251 -4,274 -64,429 -68,172 -168,323 -221,334 -33,6 -79,-15 -317,-142 -310,-165 -538,-41 -675,372 -50,143 -56,184 -53,442 0,347 32,480 141,590 126,123 268,121 475,-9 59,-38 146,-92 192,-122 101,-61 166,-54 199,26 44,113 162,572 191,749 49,305 44,461 -20,621 -32,77 -71,155 -88,176 -92,104 -447,199 -660,175l0 0zm-937 -1672c9,-18 23,-113 30,-211 6,-107 32,-240 62,-329 57,-178 59,-192 20,-192 -20,0 -29,-20 -29,-69 0,-77 65,-289 109,-351 57,-81 37,-110 -79,-110 -124,0 -161,27 -180,130 -10,56 -5,77 29,107 54,52 70,118 47,210 -17,71 -20,75 -112,80 -113,7 -137,-10 -110,-81 10,-29 24,-106 29,-169 4,-64 16,-135 28,-156 12,-21 23,-59 23,-80 0,-38 -12,-41 -163,-41 -193,0 -236,23 -292,151 -37,89 -45,191 -21,279 12,41 18,34 40,-51 37,-146 81,-185 206,-178l102 6 5 82c4,45 -7,114 -24,153 -30,72 -33,73 -134,68 -56,-1 -113,-3 -127,-1 -30,3 -72,113 -57,153 9,19 -18,99 -68,196 -44,90 -77,176 -71,190 6,15 81,35 208,50 216,24 364,77 437,151 52,57 69,60 92,13l0 0zm-156 -199c-69,-53 -232,-133 -326,-158 -47,-12 -84,-31 -84,-41 0,-44 69,-156 102,-168 68,-21 366,14 393,47 38,45 18,358 -23,358 -9,0 -36,-17 -62,-38l0 0zm-160 -1125c47,-45 29,-108 -33,-131 -74,-26 -83,-103 -16,-150 90,-63 221,-12 401,154 113,103 183,139 183,90 0,-12 -38,-71 -85,-133 -198,-255 -308,-331 -447,-308 -98,18 -171,77 -216,175 -62,139 -39,243 68,294 74,38 115,40 145,9l0 0zm-1262 2034c-68,-127 -109,-168 -140,-143 -34,30 -35,-74 -7,-502 96,-1449 470,-2815 1112,-4054 309,-599 755,-1289 1007,-1563 56,-61 300,-248 370,-285 78,-41 72,17 -12,112 -177,201 -375,468 -496,667 -68,116 -136,221 -149,237 -31,32 -71,175 -55,201 24,35 68,18 189,-80 155,-125 182,-107 109,64 -48,113 -311,534 -376,603 -22,22 -31,15 -56,-45 -21,-48 -43,-71 -69,-71 -113,0 -488,639 -637,1086 -67,196 -65,192 -121,167 -76,-33 -147,-4 -180,73 -44,107 -39,125 40,113 61,-9 72,-4 107,53 30,50 34,76 19,125 -9,34 -58,221 -107,415 -113,446 -201,718 -232,718 -14,0 -32,-44 -43,-103 -15,-82 -25,-104 -56,-104 -27,0 -42,26 -63,98 -86,326 -124,491 -146,630 -28,182 -34,511 -12,533 9,9 40,0 72,-19 32,-19 60,-27 65,-19 12,24 -20,1037 -35,1104 -17,81 -51,77 -98,-11l0 0zm10272 -109l-82 -16 29 -85c47,-131 56,-321 18,-465 -17,-71 -54,-223 -80,-341 -45,-199 -177,-610 -223,-693 -47,-88 -175,-187 -278,-214 -273,-73 -544,-4 -877,221 -263,177 -322,201 -456,189 -62,-5 -148,-29 -195,-53 -68,-36 -94,-64 -150,-180 -104,-217 -117,-273 -104,-449 17,-203 40,-281 118,-399l63 -95 138 2c75,1 205,20 285,42 81,22 239,53 353,65 329,39 467,-7 577,-194 12,-19 52,-78 88,-133 96,-144 127,-276 116,-487 -12,-242 -76,-394 -367,-866 -17,-25 -24,-52 -18,-58 5,-5 160,-20 343,-32 622,-39 1081,-121 1303,-234 60,-30 156,-95 208,-142 55,-48 148,-124 208,-169 126,-92 174,-175 140,-249 -20,-47 -152,-144 -410,-305 -133,-85 -166,-142 -126,-228 12,-28 54,-62 95,-77 41,-17 116,-51 167,-79 106,-57 306,-92 742,-127 297,-25 401,-16 439,44 14,23 5,79 -32,204 -65,208 -65,223 -14,323 85,168 232,207 650,176 555,-40 971,-120 1076,-206 29,-24 121,-75 206,-115 85,-40 180,-91 213,-113 57,-42 59,-42 125,-7 36,21 145,120 240,223 358,388 460,565 464,811 1,103 -6,139 -36,173 -38,41 -53,43 -200,32 -86,-5 -199,-20 -248,-33 -51,-12 -158,-20 -238,-17 -127,8 -159,18 -231,68 -133,98 -166,178 -162,411 0,150 11,228 44,325 80,229 347,575 527,681 74,43 103,49 213,43 143,-10 204,-45 288,-166 99,-142 339,-380 383,-380 64,0 141,74 365,352 208,259 365,504 420,652 16,47 36,164 40,264 16,255 -30,335 -297,513 -213,141 -428,225 -826,319 -408,97 -1022,142 -1125,85 -41,-24 -41,-29 -17,-109 15,-47 68,-169 117,-272 94,-198 107,-276 71,-387 -18,-49 -40,-66 -105,-85 -194,-53 -931,28 -1280,143 -234,77 -581,250 -721,361 -319,250 -309,425 32,623 76,46 186,121 244,168 134,113 132,158 -6,264 -130,97 -415,237 -616,299 -387,120 -1397,236 -1628,184l0 0zm2126 -2630c33,-80 91,-228 128,-328 40,-105 79,-182 94,-182 22,0 89,50 439,330 88,68 92,70 130,47 27,-18 168,-551 260,-986 78,-370 72,-353 162,-436 116,-107 54,-154 -99,-77 -41,21 -137,57 -216,80 -114,33 -142,50 -142,80 0,33 14,39 89,39 64,0 92,9 100,32 8,16 -20,195 -60,396 -118,596 -108,560 -150,548 -45,-12 -407,-271 -418,-298 -15,-36 174,-489 225,-539 26,-27 74,-71 106,-92 48,-35 54,-48 36,-68 -21,-21 -50,-15 -150,27 -70,27 -182,65 -252,83 -196,51 -234,103 -80,111 88,7 94,8 98,72 8,74 -68,317 -98,317 -29,0 -287,-195 -299,-226 -11,-31 6,-53 73,-94 117,-74 21,-100 -132,-35 -48,22 -173,59 -279,83 -172,41 -231,76 -195,109 6,9 49,12 95,11 46,-2 107,7 136,19 98,45 506,358 507,391 0,56 -170,420 -199,425 -25,5 -694,-548 -761,-630 -34,-41 -1,-100 77,-141 58,-31 80,-89 32,-89 -14,0 -100,26 -192,58 -90,31 -254,75 -361,98 -208,44 -240,59 -221,109 10,25 34,28 126,18 80,-8 134,-3 182,17 66,29 478,371 861,717 236,212 259,212 348,4l0 0zm5793 814c-7,-17 -1,-119 12,-228 14,-115 17,-258 10,-347 -14,-141 -19,-153 -94,-227l-80 -74 -148 10c-174,13 -269,48 -548,199 -186,99 -299,172 -563,356 -55,38 -103,68 -111,68 -4,0 -22,-73 -36,-162 -36,-258 -225,-602 -497,-918 -42,-47 -104,-139 -137,-202 -35,-62 -92,-141 -130,-175 -65,-56 -78,-59 -180,-51 -194,19 -296,92 -601,433 -152,169 -185,171 -335,30 -164,-155 -329,-412 -362,-566 -39,-180 -33,-299 21,-375l45 -63 296 17c478,28 494,25 592,-72 192,-187 169,-508 -59,-853 -126,-190 -448,-536 -570,-612 -49,-31 -85,-65 -82,-75 14,-37 470,-293 662,-369 205,-82 301,-97 388,-65 40,15 107,34 148,40 123,21 188,96 212,245 53,338 98,428 242,494 94,43 327,50 448,14 155,-46 408,-332 408,-460 0,-51 -133,-175 -308,-291 -269,-175 -284,-255 -92,-466 152,-167 190,-192 279,-192 55,-2 88,22 225,163 227,229 556,598 613,686 147,221 154,313 23,232 -89,-56 -180,-43 -198,28 -15,62 53,249 165,456 104,192 429,637 501,683 57,39 89,26 89,-39 0,-26 9,-53 19,-59 13,-8 20,-73 20,-147 0,-95 9,-142 29,-158 18,-14 32,-38 32,-53 0,-18 15,-26 43,-23 31,6 84,68 186,224 325,492 479,930 369,1050 -20,22 -46,40 -58,40 -28,0 -184,148 -269,256 -113,145 -232,407 -232,511 0,158 53,291 178,444 63,78 116,158 116,177 -1,116 -196,339 -354,407 -28,12 -70,38 -96,56 -61,45 -214,48 -231,3l0 0zm-557 -2188c24,-14 40,-41 40,-74 -2,-68 -17,-90 -84,-124l-52 -29 96 -52 97 -55 0 67c0,81 57,136 131,125 50,-5 56,-15 64,-78 3,-56 -5,-79 -40,-102 -25,-17 -61,-33 -81,-33 -33,0 -31,-6 17,-63 116,-137 132,-245 60,-402 -64,-136 -124,-173 -245,-154 -128,20 -160,18 -202,-21 -77,-68 -18,-161 113,-181 117,-21 139,-106 42,-168 -76,-47 -348,127 -348,224 0,65 69,185 140,246 60,50 72,53 205,42 76,-4 148,-4 158,5 73,48 29,193 -91,302 -157,142 -411,201 -497,116 -21,-23 -50,-82 -63,-134 -25,-99 -64,-138 -115,-120 -83,32 -51,228 58,349 87,95 173,124 333,113 116,-10 156,3 106,34 -30,19 -22,120 12,156 36,37 92,40 146,11l0 0zm0 0l0 0 0 0z"/>
  </g>
 </g>
</svg>
